<svg width="67" height="60" viewBox="0 0 67 60" fill="none" xmlns="http://www.w3.org/2000/svg">
<mask id="path-1-outside-1" maskUnits="userSpaceOnUse" x="0" y="0.466098" width="67" height="59" fill="black">
<rect fill="white" y="0.466098" width="67" height="59"/>
<path d="M62.5952 23.2067C62.6349 23.1239 62.6651 23.0371 62.686 22.9473C63.3862 19.9263 61.9624 17.8975 60.7361 16.9364C60.4578 14.6706 58.322 13.2211 56.5739 12.5214C56.3959 10.387 55.5855 8.65377 54.1578 7.35994C51.8211 5.24291 48.4732 4.95727 46.8362 4.95727C46.8194 4.95727 46.803 4.95727 46.7861 4.95727C45.1913 2.23126 41.5419 2.1053 39.414 2.50053C38.1658 2.07405 36.9072 1.73485 35.6689 1.49037C34.9791 1.35449 34.3081 1.80279 34.1717 2.49359C34.0354 3.1839 34.4846 3.85436 35.1754 3.99074C36.4048 4.23373 37.6595 4.58037 38.9027 5.02124C39.1333 5.10356 39.3822 5.11695 39.6203 5.06091C39.6629 5.05099 43.8687 4.09488 44.7911 6.69096C44.987 7.24092 45.5335 7.58707 46.1147 7.53252C46.1549 7.52855 50.1687 7.17596 52.4539 9.2558C53.2578 9.98776 53.7542 10.932 53.957 12.1207C52.2377 12.203 49.5558 12.807 48.1598 15.5712C47.8424 16.1995 48.0939 16.9657 48.7222 17.2836C48.9067 17.3763 49.103 17.4204 49.2959 17.4204C49.7616 17.4204 50.2104 17.1645 50.4345 16.7207C51.6099 14.3949 54.5303 14.6285 55.0604 14.6919C55.5315 14.8467 58.3259 15.843 58.2134 17.5509C58.1801 18.0567 58.4499 18.5342 58.9007 18.7668C58.9052 18.7688 59.3574 19.0232 59.7497 19.5573C60.2649 20.2585 60.434 21.1199 60.2545 22.1207L60.1687 22.2347C58.1906 22.4519 55.2156 23.6967 54.8095 27.3763C54.7326 28.076 55.2369 28.7058 55.9366 28.7832C55.9843 28.7881 56.0314 28.7906 56.078 28.7906C56.7192 28.7906 57.2711 28.3081 57.343 27.656C57.6004 25.3242 59.6029 24.8606 60.4663 24.7693C66.0507 28.8655 62.1087 38.4182 61.8479 39.0306C60.4653 41.6738 58.7301 43.0262 56.555 43.1497C55.6227 42.3706 53.1819 40.6384 48.9161 39.6163C48.2312 39.4522 47.5434 39.8742 47.3793 40.5585C47.2156 41.2434 47.6371 41.9312 48.322 42.0949C51.9669 42.9682 54.0477 44.4028 54.8154 45.0197C54.8055 45.3693 54.7594 45.715 54.6746 46.0507C53.768 49.652 48.8938 51.5409 43.8087 50.2605C42.9672 50.0482 42.1519 49.7562 41.3857 49.3917C41.0088 49.2121 40.568 49.229 40.2054 49.4363C39.8434 49.6431 39.6054 50.015 39.5687 50.4306C39.4229 52.0805 39.4938 53.6699 39.7785 55.1725L36.4321 55.7289C36.2893 55.2221 36.1459 54.6294 35.9907 53.9853C35.2429 50.8883 34.1628 46.4207 30.987 42.7549C33.6307 42.1112 36.1742 41.6862 38.5714 41.4894C39.2731 41.4318 39.7953 40.8164 39.7373 40.1152C39.6798 39.4135 39.0639 38.8923 38.3631 38.9493C35.1948 39.2092 31.7978 39.8429 28.265 40.8323C25.0262 41.2707 22.7579 41.0951 22.504 41.0728C16.9796 40.2426 15.4368 36.9047 15.7958 34.2947C15.8534 33.8767 15.7001 33.4571 15.3867 33.1745C15.0733 32.8918 14.6409 32.7827 14.2308 32.8829L13.3069 33.109C11.6957 33.0292 7.6684 32.4053 5.85585 30.2947C5.06835 29.3773 4.76683 28.2694 4.93495 26.9077C4.99942 26.382 4.73262 25.8712 4.26448 25.6247C4.25902 25.6218 3.7165 25.295 3.5831 24.7192C3.42441 24.0334 3.88461 23.2122 4.2987 22.6443C4.54913 22.3007 4.61162 21.8544 4.46532 21.4551C4.4554 21.4284 3.51566 18.7172 4.5888 16.4668C5.18588 15.2146 6.33043 14.2913 7.99123 13.7229C8.47226 13.5583 8.80849 13.1323 8.84816 12.6255C8.84965 12.6091 9.01181 10.993 10.1891 10.1152C11.0024 9.50921 12.1757 9.35399 13.6758 9.65401C14.016 9.72146 14.3686 9.64856 14.6533 9.45069C14.9379 9.25282 15.1298 8.94784 15.1844 8.60517C15.1888 8.5774 15.7596 5.92528 20.7321 5.83106C21.4864 6.86106 23.1507 9.56723 21.9158 11.9917C21.5965 12.6191 21.8464 13.3867 22.4732 13.7061C22.6587 13.8003 22.8561 13.8449 23.0505 13.8449C23.5147 13.8449 23.9625 13.5905 24.1876 13.1487C24.6468 12.2466 24.8581 11.3421 24.9017 10.4688C25.5895 10.1762 26.6607 9.8618 27.5156 10.1162C28.0716 10.2808 28.499 10.6845 28.8229 11.349C29.0435 11.8023 29.4973 12.0656 29.9699 12.0656C30.1569 12.0656 30.3473 12.024 30.5273 11.9362C31.1601 11.6282 31.4229 10.865 31.1145 10.2322C30.4782 8.92701 29.4849 8.04182 28.2412 7.67236C26.9166 7.27911 25.5687 7.53004 24.5714 7.86626C24.2387 6.72865 23.7155 5.7403 23.2553 5.01281C23.8553 4.75146 24.6657 4.44698 25.6634 4.18464C26.3443 4.00611 26.7514 3.30887 26.5724 2.62848C26.3934 1.9471 25.6962 1.54095 25.0158 1.71948C23.0014 2.24861 21.6213 2.93693 21.0093 3.27861C15.8474 3.27961 13.8519 5.5345 13.1006 6.99446C11.3218 6.82634 9.82361 7.1948 8.63542 8.09389C7.25034 9.14174 6.68302 10.6498 6.45491 11.5811C4.49656 12.4013 3.09662 13.6734 2.28779 15.3694C1.11397 17.8315 1.56624 20.4807 1.87618 21.6803C1.09662 22.9384 0.835273 24.1519 1.10009 25.2945C1.32424 26.2635 1.87817 26.9374 2.34482 27.355C2.2858 29.1204 2.81444 30.6652 3.92181 31.955C6.66716 35.1511 12.139 35.598 13.2196 35.6555C13.4978 39.2097 16.2035 42.7167 22.1643 43.599C22.1831 43.6019 22.2025 43.6044 22.2218 43.6064C22.2749 43.6118 22.9349 43.6763 24.0502 43.6763C25.0629 43.6763 26.4524 43.6228 28.1033 43.4224C31.6193 46.746 32.7098 51.2563 33.5127 54.5833C33.8052 55.7943 34.0577 56.8407 34.387 57.647C34.5848 58.132 35.0554 58.4395 35.5662 58.4395C35.6356 58.4395 35.7056 58.4341 35.776 58.4222L41.5429 57.4626C41.9019 57.4026 42.2183 57.1923 42.4122 56.8843C42.6061 56.5764 42.6592 56.2 42.5575 55.8504C42.2431 54.7658 42.0725 53.6108 42.0472 52.3998C42.4212 52.5248 42.8015 52.6354 43.1859 52.7321C46.2431 53.5018 49.3559 53.3346 51.9515 52.261C54.678 51.1333 56.5228 49.1487 57.1462 46.6731C57.232 46.3309 57.292 45.9828 57.3277 45.6312C59.5032 45.3287 62.1221 44.0339 64.1301 40.1663C64.142 40.1435 64.1529 40.1207 64.1633 40.0973C64.2183 39.9739 65.5171 37.0252 65.897 33.4294C66.3661 28.9855 65.2275 25.4819 62.5952 23.2067Z"/>
</mask>
<path d="M62.5952 23.2067C62.6349 23.1239 62.6651 23.0371 62.686 22.9473C63.3862 19.9263 61.9624 17.8975 60.7361 16.9364C60.4578 14.6706 58.322 13.2211 56.5739 12.5214C56.3959 10.387 55.5855 8.65377 54.1578 7.35994C51.8211 5.24291 48.4732 4.95727 46.8362 4.95727C46.8194 4.95727 46.803 4.95727 46.7861 4.95727C45.1913 2.23126 41.5419 2.1053 39.414 2.50053C38.1658 2.07405 36.9072 1.73485 35.6689 1.49037C34.9791 1.35449 34.3081 1.80279 34.1717 2.49359C34.0354 3.1839 34.4846 3.85436 35.1754 3.99074C36.4048 4.23373 37.6595 4.58037 38.9027 5.02124C39.1333 5.10356 39.3822 5.11695 39.6203 5.06091C39.6629 5.05099 43.8687 4.09488 44.7911 6.69096C44.987 7.24092 45.5335 7.58707 46.1147 7.53252C46.1549 7.52855 50.1687 7.17596 52.4539 9.2558C53.2578 9.98776 53.7542 10.932 53.957 12.1207C52.2377 12.203 49.5558 12.807 48.1598 15.5712C47.8424 16.1995 48.0939 16.9657 48.7222 17.2836C48.9067 17.3763 49.103 17.4204 49.2959 17.4204C49.7616 17.4204 50.2104 17.1645 50.4345 16.7207C51.6099 14.3949 54.5303 14.6285 55.0604 14.6919C55.5315 14.8467 58.3259 15.843 58.2134 17.5509C58.1801 18.0567 58.4499 18.5342 58.9007 18.7668C58.9052 18.7688 59.3574 19.0232 59.7497 19.5573C60.2649 20.2585 60.434 21.1199 60.2545 22.1207L60.1687 22.2347C58.1906 22.4519 55.2156 23.6967 54.8095 27.3763C54.7326 28.076 55.2369 28.7058 55.9366 28.7832C55.9843 28.7881 56.0314 28.7906 56.078 28.7906C56.7192 28.7906 57.2711 28.3081 57.343 27.656C57.6004 25.3242 59.6029 24.8606 60.4663 24.7693C66.0507 28.8655 62.1087 38.4182 61.8479 39.0306C60.4653 41.6738 58.7301 43.0262 56.555 43.1497C55.6227 42.3706 53.1819 40.6384 48.9161 39.6163C48.2312 39.4522 47.5434 39.8742 47.3793 40.5585C47.2156 41.2434 47.6371 41.9312 48.322 42.0949C51.9669 42.9682 54.0477 44.4028 54.8154 45.0197C54.8055 45.3693 54.7594 45.715 54.6746 46.0507C53.768 49.652 48.8938 51.5409 43.8087 50.2605C42.9672 50.0482 42.1519 49.7562 41.3857 49.3917C41.0088 49.2121 40.568 49.229 40.2054 49.4363C39.8434 49.6431 39.6054 50.015 39.5687 50.4306C39.4229 52.0805 39.4938 53.6699 39.7785 55.1725L36.4321 55.7289C36.2893 55.2221 36.1459 54.6294 35.9907 53.9853C35.2429 50.8883 34.1628 46.4207 30.987 42.7549C33.6307 42.1112 36.1742 41.6862 38.5714 41.4894C39.2731 41.4318 39.7953 40.8164 39.7373 40.1152C39.6798 39.4135 39.0639 38.8923 38.3631 38.9493C35.1948 39.2092 31.7978 39.8429 28.265 40.8323C25.0262 41.2707 22.7579 41.0951 22.504 41.0728C16.9796 40.2426 15.4368 36.9047 15.7958 34.2947C15.8534 33.8767 15.7001 33.4571 15.3867 33.1745C15.0733 32.8918 14.6409 32.7827 14.2308 32.8829L13.3069 33.109C11.6957 33.0292 7.6684 32.4053 5.85585 30.2947C5.06835 29.3773 4.76683 28.2694 4.93495 26.9077C4.99942 26.382 4.73262 25.8712 4.26448 25.6247C4.25902 25.6218 3.7165 25.295 3.5831 24.7192C3.42441 24.0334 3.88461 23.2122 4.2987 22.6443C4.54913 22.3007 4.61162 21.8544 4.46532 21.4551C4.4554 21.4284 3.51566 18.7172 4.5888 16.4668C5.18588 15.2146 6.33043 14.2913 7.99123 13.7229C8.47226 13.5583 8.80849 13.1323 8.84816 12.6255C8.84965 12.6091 9.01181 10.993 10.1891 10.1152C11.0024 9.50921 12.1757 9.35399 13.6758 9.65401C14.016 9.72146 14.3686 9.64856 14.6533 9.45069C14.9379 9.25282 15.1298 8.94784 15.1844 8.60517C15.1888 8.5774 15.7596 5.92528 20.7321 5.83106C21.4864 6.86106 23.1507 9.56723 21.9158 11.9917C21.5965 12.6191 21.8464 13.3867 22.4732 13.7061C22.6587 13.8003 22.8561 13.8449 23.0505 13.8449C23.5147 13.8449 23.9625 13.5905 24.1876 13.1487C24.6468 12.2466 24.8581 11.3421 24.9017 10.4688C25.5895 10.1762 26.6607 9.8618 27.5156 10.1162C28.0716 10.2808 28.499 10.6845 28.8229 11.349C29.0435 11.8023 29.4973 12.0656 29.9699 12.0656C30.1569 12.0656 30.3473 12.024 30.5273 11.9362C31.1601 11.6282 31.4229 10.865 31.1145 10.2322C30.4782 8.92701 29.4849 8.04182 28.2412 7.67236C26.9166 7.27911 25.5687 7.53004 24.5714 7.86626C24.2387 6.72865 23.7155 5.7403 23.2553 5.01281C23.8553 4.75146 24.6657 4.44698 25.6634 4.18464C26.3443 4.00611 26.7514 3.30887 26.5724 2.62848C26.3934 1.9471 25.6962 1.54095 25.0158 1.71948C23.0014 2.24861 21.6213 2.93693 21.0093 3.27861C15.8474 3.27961 13.8519 5.5345 13.1006 6.99446C11.3218 6.82634 9.82361 7.1948 8.63542 8.09389C7.25034 9.14174 6.68302 10.6498 6.45491 11.5811C4.49656 12.4013 3.09662 13.6734 2.28779 15.3694C1.11397 17.8315 1.56624 20.4807 1.87618 21.6803C1.09662 22.9384 0.835273 24.1519 1.10009 25.2945C1.32424 26.2635 1.87817 26.9374 2.34482 27.355C2.2858 29.1204 2.81444 30.6652 3.92181 31.955C6.66716 35.1511 12.139 35.598 13.2196 35.6555C13.4978 39.2097 16.2035 42.7167 22.1643 43.599C22.1831 43.6019 22.2025 43.6044 22.2218 43.6064C22.2749 43.6118 22.9349 43.6763 24.0502 43.6763C25.0629 43.6763 26.4524 43.6228 28.1033 43.4224C31.6193 46.746 32.7098 51.2563 33.5127 54.5833C33.8052 55.7943 34.0577 56.8407 34.387 57.647C34.5848 58.132 35.0554 58.4395 35.5662 58.4395C35.6356 58.4395 35.7056 58.4341 35.776 58.4222L41.5429 57.4626C41.9019 57.4026 42.2183 57.1923 42.4122 56.8843C42.6061 56.5764 42.6592 56.2 42.5575 55.8504C42.2431 54.7658 42.0725 53.6108 42.0472 52.3998C42.4212 52.5248 42.8015 52.6354 43.1859 52.7321C46.2431 53.5018 49.3559 53.3346 51.9515 52.261C54.678 51.1333 56.5228 49.1487 57.1462 46.6731C57.232 46.3309 57.292 45.9828 57.3277 45.6312C59.5032 45.3287 62.1221 44.0339 64.1301 40.1663C64.142 40.1435 64.1529 40.1207 64.1633 40.0973C64.2183 39.9739 65.5171 37.0252 65.897 33.4294C66.3661 28.9855 65.2275 25.4819 62.5952 23.2067Z" fill="#1F7240"/>
<path d="M62.5952 23.2067C62.6349 23.1239 62.6651 23.0371 62.686 22.9473C63.3862 19.9263 61.9624 17.8975 60.7361 16.9364C60.4578 14.6706 58.322 13.2211 56.5739 12.5214C56.3959 10.387 55.5855 8.65377 54.1578 7.35994C51.8211 5.24291 48.4732 4.95727 46.8362 4.95727C46.8194 4.95727 46.803 4.95727 46.7861 4.95727C45.1913 2.23126 41.5419 2.1053 39.414 2.50053C38.1658 2.07405 36.9072 1.73485 35.6689 1.49037C34.9791 1.35449 34.3081 1.80279 34.1717 2.49359C34.0354 3.1839 34.4846 3.85436 35.1754 3.99074C36.4048 4.23373 37.6595 4.58037 38.9027 5.02124C39.1333 5.10356 39.3822 5.11695 39.6203 5.06091C39.6629 5.05099 43.8687 4.09488 44.7911 6.69096C44.987 7.24092 45.5335 7.58707 46.1147 7.53252C46.1549 7.52855 50.1687 7.17596 52.4539 9.2558C53.2578 9.98776 53.7542 10.932 53.957 12.1207C52.2377 12.203 49.5558 12.807 48.1598 15.5712C47.8424 16.1995 48.0939 16.9657 48.7222 17.2836C48.9067 17.3763 49.103 17.4204 49.2959 17.4204C49.7616 17.4204 50.2104 17.1645 50.4345 16.7207C51.6099 14.3949 54.5303 14.6285 55.0604 14.6919C55.5315 14.8467 58.3259 15.843 58.2134 17.5509C58.1801 18.0567 58.4499 18.5342 58.9007 18.7668C58.9052 18.7688 59.3574 19.0232 59.7497 19.5573C60.2649 20.2585 60.434 21.1199 60.2545 22.1207L60.1687 22.2347C58.1906 22.4519 55.2156 23.6967 54.8095 27.3763C54.7326 28.076 55.2369 28.7058 55.9366 28.7832C55.9843 28.7881 56.0314 28.7906 56.078 28.7906C56.7192 28.7906 57.2711 28.3081 57.343 27.656C57.6004 25.3242 59.6029 24.8606 60.4663 24.7693C66.0507 28.8655 62.1087 38.4182 61.8479 39.0306C60.4653 41.6738 58.7301 43.0262 56.555 43.1497C55.6227 42.3706 53.1819 40.6384 48.9161 39.6163C48.2312 39.4522 47.5434 39.8742 47.3793 40.5585C47.2156 41.2434 47.6371 41.9312 48.322 42.0949C51.9669 42.9682 54.0477 44.4028 54.8154 45.0197C54.8055 45.3693 54.7594 45.715 54.6746 46.0507C53.768 49.652 48.8938 51.5409 43.8087 50.2605C42.9672 50.0482 42.1519 49.7562 41.3857 49.3917C41.0088 49.2121 40.568 49.229 40.2054 49.4363C39.8434 49.6431 39.6054 50.015 39.5687 50.4306C39.4229 52.0805 39.4938 53.6699 39.7785 55.1725L36.4321 55.7289C36.2893 55.2221 36.1459 54.6294 35.9907 53.9853C35.2429 50.8883 34.1628 46.4207 30.987 42.7549C33.6307 42.1112 36.1742 41.6862 38.5714 41.4894C39.2731 41.4318 39.7953 40.8164 39.7373 40.1152C39.6798 39.4135 39.0639 38.8923 38.3631 38.9493C35.1948 39.2092 31.7978 39.8429 28.265 40.8323C25.0262 41.2707 22.7579 41.0951 22.504 41.0728C16.9796 40.2426 15.4368 36.9047 15.7958 34.2947C15.8534 33.8767 15.7001 33.4571 15.3867 33.1745C15.0733 32.8918 14.6409 32.7827 14.2308 32.8829L13.3069 33.109C11.6957 33.0292 7.6684 32.4053 5.85585 30.2947C5.06835 29.3773 4.76683 28.2694 4.93495 26.9077C4.99942 26.382 4.73262 25.8712 4.26448 25.6247C4.25902 25.6218 3.7165 25.295 3.5831 24.7192C3.42441 24.0334 3.88461 23.2122 4.2987 22.6443C4.54913 22.3007 4.61162 21.8544 4.46532 21.4551C4.4554 21.4284 3.51566 18.7172 4.5888 16.4668C5.18588 15.2146 6.33043 14.2913 7.99123 13.7229C8.47226 13.5583 8.80849 13.1323 8.84816 12.6255C8.84965 12.6091 9.01181 10.993 10.1891 10.1152C11.0024 9.50921 12.1757 9.35399 13.6758 9.65401C14.016 9.72146 14.3686 9.64856 14.6533 9.45069C14.9379 9.25282 15.1298 8.94784 15.1844 8.60517C15.1888 8.5774 15.7596 5.92528 20.7321 5.83106C21.4864 6.86106 23.1507 9.56723 21.9158 11.9917C21.5965 12.6191 21.8464 13.3867 22.4732 13.7061C22.6587 13.8003 22.8561 13.8449 23.0505 13.8449C23.5147 13.8449 23.9625 13.5905 24.1876 13.1487C24.6468 12.2466 24.8581 11.3421 24.9017 10.4688C25.5895 10.1762 26.6607 9.8618 27.5156 10.1162C28.0716 10.2808 28.499 10.6845 28.8229 11.349C29.0435 11.8023 29.4973 12.0656 29.9699 12.0656C30.1569 12.0656 30.3473 12.024 30.5273 11.9362C31.1601 11.6282 31.4229 10.865 31.1145 10.2322C30.4782 8.92701 29.4849 8.04182 28.2412 7.67236C26.9166 7.27911 25.5687 7.53004 24.5714 7.86626C24.2387 6.72865 23.7155 5.7403 23.2553 5.01281C23.8553 4.75146 24.6657 4.44698 25.6634 4.18464C26.3443 4.00611 26.7514 3.30887 26.5724 2.62848C26.3934 1.9471 25.6962 1.54095 25.0158 1.71948C23.0014 2.24861 21.6213 2.93693 21.0093 3.27861C15.8474 3.27961 13.8519 5.5345 13.1006 6.99446C11.3218 6.82634 9.82361 7.1948 8.63542 8.09389C7.25034 9.14174 6.68302 10.6498 6.45491 11.5811C4.49656 12.4013 3.09662 13.6734 2.28779 15.3694C1.11397 17.8315 1.56624 20.4807 1.87618 21.6803C1.09662 22.9384 0.835273 24.1519 1.10009 25.2945C1.32424 26.2635 1.87817 26.9374 2.34482 27.355C2.2858 29.1204 2.81444 30.6652 3.92181 31.955C6.66716 35.1511 12.139 35.598 13.2196 35.6555C13.4978 39.2097 16.2035 42.7167 22.1643 43.599C22.1831 43.6019 22.2025 43.6044 22.2218 43.6064C22.2749 43.6118 22.9349 43.6763 24.0502 43.6763C25.0629 43.6763 26.4524 43.6228 28.1033 43.4224C31.6193 46.746 32.7098 51.2563 33.5127 54.5833C33.8052 55.7943 34.0577 56.8407 34.387 57.647C34.5848 58.132 35.0554 58.4395 35.5662 58.4395C35.6356 58.4395 35.7056 58.4341 35.776 58.4222L41.5429 57.4626C41.9019 57.4026 42.2183 57.1923 42.4122 56.8843C42.6061 56.5764 42.6592 56.2 42.5575 55.8504C42.2431 54.7658 42.0725 53.6108 42.0472 52.3998C42.4212 52.5248 42.8015 52.6354 43.1859 52.7321C46.2431 53.5018 49.3559 53.3346 51.9515 52.261C54.678 51.1333 56.5228 49.1487 57.1462 46.6731C57.232 46.3309 57.292 45.9828 57.3277 45.6312C59.5032 45.3287 62.1221 44.0339 64.1301 40.1663C64.142 40.1435 64.1529 40.1207 64.1633 40.0973C64.2183 39.9739 65.5171 37.0252 65.897 33.4294C66.3661 28.9855 65.2275 25.4819 62.5952 23.2067Z" stroke="#1F7240" stroke-width="1.8" mask="url(#path-1-outside-1)"/>
<path d="M31.8417 23.2755L31.8416 23.2755C30.5683 21.4741 30.2216 19.6432 30.2032 19.5418M31.8417 23.2755L39.371 26.4812C40.0747 26.4628 40.6307 25.8782 40.6123 25.1745L41.0622 25.1632C41.0622 25.163 41.0622 25.1629 41.0622 25.1627C41.0384 24.2254 40.2714 23.4822 39.3388 23.4822C39.3281 23.4822 39.3181 23.4824 39.3131 23.4826L39.3122 23.4826C39.3081 23.4827 39.3065 23.4827 39.3061 23.4827M31.8417 23.2755C32.1023 23.6443 32.4137 24.0278 32.7817 24.4023L31.8417 23.2755ZM30.2032 19.5418L30.646 19.4616M30.2032 19.5418C30.2033 19.542 30.2033 19.5422 30.2033 19.5424L30.646 19.4616M30.2032 19.5418C30.0325 18.6056 30.6528 17.7073 31.5896 17.5366C32.5243 17.3651 33.4198 17.9832 33.5944 18.915C33.613 19.0104 33.8584 20.194 34.6909 21.3318C35.5134 22.4559 36.9102 23.5427 39.2948 23.4828L39.3061 23.4826V23.4827M30.646 19.4616C30.6594 19.5355 30.9907 21.292 32.2091 23.0158C32.4997 23.4269 32.8558 23.8563 33.2862 24.2679M30.646 19.4616L33.2862 24.2679M39.3061 23.4827H39.3059C39.3059 23.4827 39.306 23.4827 39.3061 23.4827ZM33.2862 24.2679C33.0571 25.5771 31.0546 26.2937 31.0075 26.3101L33.2862 24.2679Z" fill="#1F7240" stroke="#1F7240" stroke-width="0.9"/>
<path d="M46.784 21.7328L46.7841 21.7329C47.9771 23.6755 48.8826 26.8426 46.5745 30.8758L46.1839 30.6523L46.5745 30.8758C46.2555 31.4332 45.6736 31.744 45.0761 31.744C44.786 31.744 44.4907 31.6707 44.221 31.5158C43.3948 31.0428 43.1075 29.9895 43.5806 29.1627C44.7823 27.0627 44.8445 25.2175 43.8854 23.6048L43.8854 23.6048C43.1259 22.3276 41.9735 21.6025 41.9164 21.5665C41.9146 21.5654 41.9139 21.5649 41.9144 21.5652L41.9077 21.5613L41.9077 21.5613C41.0953 21.0737 40.8237 20.0187 41.3089 19.2007L41.309 19.2006C41.7927 18.386 42.8419 18.1109 43.6622 18.5918L46.784 21.7328ZM46.784 21.7328C45.5413 19.7104 43.7582 18.6482 43.6622 18.5919L46.784 21.7328Z" fill="#1F7240" stroke="#1F7240" stroke-width="0.9"/>
<path d="M59.9537 33.9974L59.9537 33.9974C60.7286 33.4439 60.9086 32.3669 60.3549 31.5918L59.9887 31.8533L60.3549 31.5918C59.8014 30.8169 58.7245 30.6369 57.9493 31.1906C56.7581 32.0415 55.7611 32.2984 54.9522 32.1098L54.952 32.1098C54.3298 31.9652 53.821 31.5667 53.4528 31.1709C53.108 30.8004 52.9141 30.4622 52.8928 30.4243C52.4484 29.5895 51.4138 29.2684 50.5737 29.7062L50.5735 29.7063C49.729 30.147 49.4012 31.1884 49.8422 32.0329L49.8424 32.0332C49.8977 32.1388 50.9508 34.1244 53.0771 35.0948C52.7293 36.7591 52.6451 39.4639 54.9701 41.4081L54.9702 41.4082C55.2923 41.6773 55.6849 41.8099 56.0755 41.8099C56.5679 41.8099 57.0576 41.5992 57.3988 41.1923L57.3992 41.1917C58.0097 40.4612 57.9132 39.3736 57.1825 38.7623L57.1825 38.7623C56.6008 38.2758 56.3821 37.6318 56.3447 36.9782C56.3142 36.4463 56.4061 35.9273 56.5111 35.5305C57.6562 35.3345 58.8081 34.8156 59.9537 33.9974Z" fill="#1F7240" stroke="#1F7240" stroke-width="0.9"/>
<path d="M20.6892 23.8959L20.6896 23.8958C21.6338 23.7772 22.4972 24.4441 22.6169 25.3896L20.6892 23.8959ZM20.6892 23.8959C19.7442 24.0153 19.0753 24.8789 19.1954 25.8237L20.6892 23.8959ZM13.1688 28.3212L13.1696 28.321C13.2922 28.2996 15.5225 27.9196 17.6288 28.8468C17.9726 28.5745 18.3679 28.2025 18.6782 27.7478C19.051 27.2017 19.2883 26.5572 19.1954 25.8238L13.1688 28.3212ZM13.1688 28.3212C12.2326 28.4865 11.6112 29.3774 11.7721 30.3116C11.9334 31.2484 12.8245 31.8756 13.759 31.7195L13.7591 31.7195M13.1688 28.3212L13.7591 31.7195M13.7591 31.7195L13.7654 31.7184M13.7591 31.7195L13.7654 31.7184M13.7654 31.7184C13.7644 31.7185 13.7653 31.7184 13.7681 31.718M13.7654 31.7184L13.7681 31.718M17.7518 35.1997L17.7518 35.1997C17.7845 33.8005 17.4416 32.8953 16.8506 32.3828L17.7518 35.1997ZM17.7518 35.1997C17.7297 36.1503 18.4813 36.9389 19.431 36.9637C19.4498 36.9644 19.4665 36.9644 19.4748 36.9644L19.4766 36.9644C20.4103 36.9644 21.1779 36.2189 21.2 35.2803L21.2 35.2802M17.7518 35.1997L21.2 35.2802M21.2 35.2802C21.2379 33.6651 20.9303 32.2718 20.2543 31.1423M21.2 35.2802L20.2543 31.1423M13.7681 31.718C13.8105 31.7118 14.2923 31.6418 14.9068 31.688M13.7681 31.718L14.9068 31.688M14.9068 31.688C15.5685 31.7378 16.3136 31.9174 16.8506 32.3828L14.9068 31.688ZM20.2543 31.1423C21.4992 30.0165 22.9586 28.0856 22.6169 25.3898L20.2543 31.1423Z" fill="#1F7240" stroke="#1F7240" stroke-width="0.9"/>
<path d="M9.7709 18.5914L9.7714 18.5902C9.77984 18.5702 9.78816 18.5509 9.79564 18.5336C10.0558 17.9071 10.0789 17.1145 9.80294 16.0967L9.7709 18.5914ZM9.7709 18.5914C9.65865 18.8602 9.4844 19.11 9.25136 19.3469L9.25097 19.3473M9.7709 18.5914L9.25097 19.3473M9.25097 19.3473C8.66186 19.9478 7.91607 20.1877 7.85382 20.207C6.94514 20.4625 6.40933 21.4024 6.65569 22.3162L6.65569 22.3162M9.25097 19.3473L6.65569 22.3162M6.65569 22.3162C6.86323 23.0859 7.55999 23.5917 8.31953 23.5917C8.4691 23.5917 8.62029 23.5722 8.77053 23.5314L8.77073 23.5314M6.65569 22.3162L8.77073 23.5314M8.77073 23.5314C8.87051 23.5043 10.357 23.0893 11.6305 21.841M8.77073 23.5314L11.6305 21.841M11.0154 13.9809L11.0155 13.9809C11.935 13.7314 12.882 14.274 13.1312 15.1934L11.0154 13.9809ZM11.0154 13.9809C10.0964 14.2305 9.55335 15.1772 9.8029 16.0966L11.0154 13.9809ZM11.6305 21.841C12.486 22.3839 13.4636 22.6654 14.5164 22.6654C14.8464 22.6654 15.1824 22.638 15.5237 22.5827C17.0576 22.3356 18.2007 21.6166 18.3407 21.5258L11.6305 21.841ZM18.8499 19.141C19.368 19.9402 19.1398 21.0078 18.3408 21.5257L18.8499 19.141ZM18.8499 19.141C18.3319 18.3418 17.2643 18.1138 16.4647 18.6316M18.8499 19.141L16.4647 18.6316M16.4647 18.6316L16.7093 19.0093M16.4647 18.6316L16.7093 19.0093M16.7093 19.0093L16.466 18.6308C16.4665 18.6305 16.466 18.6308 16.4645 18.6317M16.7093 19.0093C17.3005 18.6265 18.0895 18.7951 18.4723 19.3857L16.4645 18.6317M16.7093 19.0093C16.7024 19.0138 15.9605 19.4745 15.0466 19.6223M16.7093 19.0093L15.0466 19.6223M16.4645 18.6317C16.4267 18.6544 15.7673 19.0499 14.9748 19.178L15.0466 19.6223M16.4645 18.6317L15.0466 19.6223M15.0466 19.6223C14.1281 19.7706 13.4031 19.5613 12.8055 18.9682M15.0466 19.6223L14.9747 19.178C14.2776 19.2906 13.75 19.1671 13.3053 18.8121M12.8055 18.9682L13.2408 19.0825C13.2643 18.993 13.2858 18.9029 13.3053 18.8121M12.8055 18.9682L13.1225 18.6488C13.182 18.7078 13.2428 18.7622 13.3053 18.8121M12.8055 18.9682C13.0942 17.8697 13.0594 16.6458 12.6969 15.3113C12.5129 14.6319 11.8132 14.2307 11.1333 14.4152L13.1312 15.1935C13.4815 16.4832 13.5448 17.6965 13.3053 18.8121M10.1861 18.7648C10.0478 19.0961 9.83751 19.3927 9.5722 19.6624L10.1861 18.7648Z" fill="#1F7240" stroke="#1F7240" stroke-width="0.9"/>
<path d="M40.2411 7.53626L40.2411 7.53629C41.7054 8.40511 42.6609 9.84165 43.109 11.746L40.2411 7.53626ZM40.2411 7.53626C37.9182 6.15841 35.2819 6.86743 35.1609 6.90082L40.2411 7.53626ZM36.0765 10.2265L36.0765 10.2263C35.1599 10.4778 34.2091 9.93986 33.9565 9.02128L36.0765 10.2265ZM36.0765 10.2265L36.0867 10.2234M36.0765 10.2265L36.0867 10.2234M36.0867 10.2234C36.0828 10.2246 36.0853 10.224 36.0938 10.2221C36.15 10.2096 36.466 10.1394 36.8927 10.1326C37.3841 10.1247 37.9749 10.2019 38.4811 10.5022L38.4811 10.5022M36.0867 10.2234L38.4811 10.5022M38.4811 10.5022C39.0627 10.8473 39.5081 11.5003 39.752 12.5362L39.752 12.5363M38.4811 10.5022L39.752 12.5363M39.752 12.5363C39.9393 13.3311 40.6474 13.866 41.4298 13.866C41.5621 13.866 41.6939 13.8504 41.8242 13.8201L41.8254 13.8198M39.752 12.5363L41.8254 13.8198M41.8254 13.8198C42.7524 13.6018 43.3277 12.6734 43.1091 11.7463L41.8254 13.8198ZM35.1607 6.90089C34.243 7.15393 33.7036 8.10315 33.9565 9.02113L35.1607 6.90089Z" fill="#1F7240" stroke="#1F7240" stroke-width="0.9"/>
<path d="M29.1812 33.645L29.1812 33.645C29.1811 33.645 29.1813 33.6451 29.1817 33.6452C29.2086 33.6556 30.2367 34.0512 31.4723 33.9872C32.9869 33.9079 34.1677 33.167 35.006 31.7267C35.4849 30.9036 36.5409 30.6242 37.3638 31.1034L29.1812 33.645ZM29.1812 33.645L29.178 33.6437M29.1812 33.645L29.178 33.6437M29.178 33.6437C28.2989 33.284 27.295 33.7028 26.932 34.5804L29.178 33.6437ZM31.1926 37.4435C29.3982 37.4435 28.0429 36.9065 27.8657 36.8331L31.1926 37.4435ZM31.1926 37.4435C31.3031 37.4435 31.4161 37.4414 31.5311 37.4367M31.1926 37.4435L31.5311 37.4367M31.5311 37.4367C33.4588 37.3635 36.157 36.6055 37.9871 33.4614C38.4663 32.6385 38.1871 31.5825 37.364 31.1035L31.5311 37.4367ZM26.9319 34.5805C26.5678 35.4605 26.9855 36.4691 27.8655 36.833L26.9319 34.5805Z" fill="#1F7240" stroke="#1F7240" stroke-width="0.9"/>
<path d="M44.9969 39.1772L44.9972 39.1775C45.4635 39.8743 45.3525 40.8203 44.7421 41.394L44.9969 39.1772ZM44.9969 39.1772C44.5897 38.57 43.8299 38.2787 43.1162 38.4711C42.4261 38.6564 41.9196 39.258 41.8472 39.9652L41.8472 39.9652M44.9969 39.1772L41.8472 39.9652M41.8472 39.9652C41.7736 40.6854 42.1758 41.3883 42.8268 41.6947L42.8271 41.6948M41.8472 39.9652L42.8271 41.6948M42.8271 41.6948C43.4588 41.9915 44.2276 41.8779 44.7419 41.3943L42.8271 41.6948Z" fill="#1F7240" stroke="#1F7240" stroke-width="0.9"/>
<path d="M30.466 3.99437L30.4655 3.99439C29.7466 4.02875 29.0652 3.59627 28.7903 2.93067L30.466 3.99437ZM30.466 3.99437C31.1689 3.96006 31.7892 3.49145 32.0152 2.82591M30.466 3.99437L32.0152 2.82591M29.426 0.837738L29.426 0.837719C30.0522 0.418492 30.8969 0.461607 31.4777 0.939483L29.426 0.837738ZM29.426 0.837738C28.7502 1.29027 28.4786 2.17584 28.7903 2.93064L29.426 0.837738ZM32.0152 2.82591C32.2447 2.15173 32.0272 1.39143 31.4778 0.939515L32.0152 2.82591Z" fill="#1F7240" stroke="#1F7240" stroke-width="0.9"/>
</svg>
