<svg width="67" height="67" viewBox="0 0 67 67" fill="none" xmlns="http://www.w3.org/2000/svg">
<path fill-rule="evenodd" clip-rule="evenodd" d="M15.2939 23.417C15.2939 21.7944 16.5913 20.4846 18.1986 20.4846C19.8058 20.4846 21.1032 21.7944 21.1032 23.417C21.1032 25.0396 19.8058 26.3495 18.1986 26.3495C16.5913 26.3495 15.2939 25.0396 15.2939 23.417ZM15.2939 33.2819C15.2939 31.6788 16.5913 30.3495 18.1986 30.3495C19.8058 30.3495 21.1032 31.6788 21.1032 33.2819C21.1032 34.885 19.7864 36.2143 18.1986 36.2143C16.6107 36.2143 15.2939 34.885 15.2939 33.2819ZM25.9442 35.2368H49.1811C50.2461 35.2368 51.1175 34.3571 51.1175 33.2819C51.1175 32.2066 50.2461 31.3269 49.1811 31.3269H25.9442C24.8792 31.3269 24.0078 32.2066 24.0078 33.2819C24.0078 34.3571 24.8792 35.2368 25.9442 35.2368ZM49.1811 25.372H25.9442C24.8791 25.372 24.0078 24.4922 24.0078 23.417C24.0078 22.3418 24.8791 21.4621 25.9442 21.4621H49.1811C50.2461 21.4621 51.1175 22.3418 51.1175 23.417C51.1175 24.4922 50.2461 25.372 49.1811 25.372Z" fill="currentColor"/>
<path fill-rule="evenodd" clip-rule="evenodd" d="M8.37484 5.58333H58.6248C61.6957 5.58333 64.2082 8.09583 64.2082 11.1667V44.6667C64.2082 47.7375 61.6957 50.25 58.6248 50.25H39.0832V55.8333H41.8748C43.4103 55.8333 44.6665 57.0896 44.6665 58.625C44.6665 60.1604 43.4103 61.4167 41.8748 61.4167H25.1248C23.5894 61.4167 22.3332 60.1604 22.3332 58.625C22.3332 57.0896 23.5894 55.8333 25.1248 55.8333H27.9165V50.25H8.37484C5.304 50.25 2.7915 47.7375 2.7915 44.6667V11.1667C2.7915 8.09583 5.304 5.58333 8.37484 5.58333ZM11.1665 44.6667H55.8332C57.3686 44.6667 58.6248 43.4104 58.6248 41.875V13.9583C58.6248 12.4229 57.3686 11.1667 55.8332 11.1667H11.1665C9.63108 11.1667 8.37483 12.4229 8.37483 13.9583V41.875C8.37483 43.4104 9.63108 44.6667 11.1665 44.6667Z" fill="currentColor"/>
</svg>
