<svg width="54" height="62" viewBox="0 0 54 62" fill="none" xmlns="http://www.w3.org/2000/svg">
<path d="M41.8183 46.7648H41.8173C39.348 46.7697 37.3474 48.7704 37.3423 51.2397V51.2408V58.3178C37.2615 58.3264 37.187 58.331 37.1195 58.331H12.542H12.5353C12.4218 58.327 12.3191 58.222 12.3191 58.1083V11.8433C12.3191 11.7274 12.426 11.6205 12.542 11.6205H49.4093C49.5249 11.6205 49.6321 11.7277 49.6321 11.8433L49.6308 46.542C49.6308 46.6085 49.6257 46.683 49.6156 46.7648H41.8183ZM49.4094 8.45174H44.8492V3.8916C44.8493 2.02503 43.3241 0.5 41.4583 0.5H4.59021C2.72371 0.5 1.19873 2.025 1.19873 3.8916V50.1565C1.19873 52.023 2.72371 53.5481 4.59033 53.5481H9.15059V58.1084C9.15059 59.9748 10.6749 61.5 12.5422 61.5H37.1198C37.9965 61.5 39.0205 61.2569 39.9645 60.8826C40.9085 60.5083 41.8207 59.9835 42.4591 59.3827L50.5365 51.7795C50.5366 51.7795 50.5366 51.7794 50.5367 51.7793C51.1801 51.1744 51.7409 50.2897 52.1404 49.3649C52.54 48.44 52.7997 47.4253 52.7997 46.5423L52.8011 11.8436C52.801 9.97687 51.276 8.45174 49.4094 8.45174ZM9.15036 11.8435V50.3795H4.59021C4.47459 50.3795 4.3674 50.2723 4.3674 50.1567V3.8916C4.3674 3.77598 4.47459 3.66878 4.59021 3.66878H41.4584C41.5736 3.66878 41.6812 3.77629 41.6812 3.8916V8.45186H12.542C10.6747 8.45186 9.15036 9.97691 9.15036 11.8435ZM41.8184 49.9337H47.8745L40.5111 56.8643V51.2409C40.5111 50.8842 40.6534 50.5626 40.8951 50.3187C41.1404 50.0762 41.4622 49.9337 41.8184 49.9337Z" fill="currentColor" stroke="currentColor"/>
<path d="M41.4587 18.5722H20.495C19.6195 18.5722 18.9106 19.2811 18.9106 20.1565C18.9106 21.032 19.6197 21.7408 20.495 21.7408H41.4587C42.3333 21.7408 43.0431 21.0321 43.0431 20.1565C43.0431 19.2808 42.3333 18.5722 41.4587 18.5722Z" fill="currentColor" stroke="currentColor"/>
<path d="M41.4587 33.03H20.495C19.6195 33.03 18.9106 33.7389 18.9106 34.6143C18.9106 35.4898 19.6197 36.1987 20.495 36.1987H41.4587C42.3333 36.1987 43.0431 35.49 43.0431 34.6143C43.0431 33.7385 42.3332 33.03 41.4587 33.03Z" fill="currentColor" stroke="currentColor"/>
<path d="M32.0611 40.2589H20.495C19.6195 40.2589 18.9106 40.9678 18.9106 41.8433C18.9106 42.7187 19.6195 43.4276 20.495 43.4276H32.0611C32.9361 43.4276 33.6448 42.7185 33.6448 41.8433C33.6448 40.968 32.9361 40.2589 32.0611 40.2589Z" fill="currentColor" stroke="currentColor"/>
<path d="M41.4587 25.8011H20.495C19.6195 25.8011 18.9106 26.51 18.9106 27.3854C18.9106 28.2609 19.6197 28.9698 20.495 28.9698H41.4587C42.3333 28.9698 43.0431 28.2611 43.0431 27.3854C43.0431 26.5098 42.3333 25.8011 41.4587 25.8011Z" fill="currentColor" stroke="currentColor"/>
</svg>
