<svg viewBox="0 0 45 45" xmlns="http://www.w3.org/2000/svg">
  <path fill-rule="evenodd" clip-rule="evenodd" d="M0 22.5C0 10.0736 10.0736 0 22.5 0C34.9264 0 45 10.0736 45 22.5C45 34.9264 34.9264 45 22.5 45C10.0736 45 0 34.9264 0 22.5ZM22.4675 16.52C24.2957 16.52 25.5289 17.3108 26.232 17.9717L28.9797 15.285C27.2922 13.7142 25.0962 12.75 22.4675 12.75C18.6596 12.75 15.3711 14.9383 13.77 18.1233L13.7701 18.1234C13.1102 19.445 12.7316 20.9292 12.7316 22.5C12.7316 24.0708 13.1102 25.555 13.7701 26.8767L16.892 24.4569L13.7808 26.8767C15.3818 30.0617 18.6596 32.25 22.4674 32.25C25.0961 32.25 27.3029 31.3833 28.9148 29.8883L25.8425 27.505C25.0204 28.0792 23.917 28.48 22.4674 28.48C19.8928 28.48 17.7077 26.7792 16.9288 24.4284L16.9289 24.4283C16.7233 23.8217 16.6044 23.1717 16.6044 22.5C16.6044 21.8283 16.7233 21.1783 16.9181 20.5717L16.918 20.5716C17.7077 18.2208 19.8929 16.52 22.4675 16.52ZM31.6084 20.7233C31.7491 21.33 31.814 21.915 31.814 22.7167C31.814 25.685 30.7538 28.1875 28.9148 29.8883L25.8426 27.505C27.1407 26.595 27.7249 25.2408 27.8331 24.3417H22.4675V20.7233H31.6084Z" fill="#795C31"/>
</svg>
