<svg width="82" height="66" viewBox="0 0 82 66" fill="none" xmlns="http://www.w3.org/2000/svg">
<path d="M53.8093 19.9695L58.0408 12.4595L66.1096 15.4925L70.3411 7.98252" stroke="currentColor" stroke-width="5" stroke-linecap="round" stroke-linejoin="round"/>
<path d="M62.3052 26.3823L66.9801 30.3894L71.655 26.3823L76.3298 30.3894" stroke="currentColor" stroke-width="4.5" stroke-linecap="round" stroke-linejoin="round"/>
<path d="M41.2412 9.63273L41.2409 9.63268C40.017 9.48303 38.8488 10.0446 38.1821 11.1051C33.8837 17.9405 31.5109 21.2215 28.2648 23.5492C25.291 25.6817 21.5673 27.0316 14.8637 29.4619C14.1932 29.705 13.4928 29.9589 12.7604 30.2255C5.1288 33.0031 5.04153 43.8842 12.4342 47.1187L16.7514 58.98C17.6849 61.5449 20.4922 62.9128 23.0294 61.9893C25.568 61.0653 26.8408 58.2128 25.9072 55.6476L22.4328 46.1018C22.5727 46.0509 22.7111 46.0004 22.8481 45.9505C28.6457 43.8369 31.94 42.636 35.4795 42.4633C39.2072 42.2814 43.2466 43.2425 50.7847 45.6681C53.3445 46.4921 55.6279 43.9741 54.7156 41.4675L43.9079 11.7735C43.4839 10.6086 42.4638 9.78291 41.2412 9.63273ZM40.7991 13.8058L51.0278 41.909C45.7226 40.2107 41.8825 39.0914 38.0863 38.864C34.2215 38.6324 30.4422 39.3253 25.2296 41.1757L21.5077 30.95C26.7202 29.0053 30.0713 27.0907 32.8833 24.4202C35.6394 21.8027 37.8483 18.4837 40.7991 13.8058ZM22.5086 56.8845C22.7582 57.5702 22.4105 58.3036 21.7725 58.5358C21.137 58.7671 20.3998 58.4295 20.1499 57.743L16.5538 47.8626C17.5947 47.8 18.4079 47.5597 19.0344 47.3394L22.5086 56.8845ZM21.8288 42.4109L17.7375 43.9C15.0093 44.893 11.9347 43.4306 10.9044 40.5997C9.87402 37.7688 11.2893 34.6722 14.0174 33.6792L18.1087 32.1901L21.8288 42.4109Z" fill="currentColor" stroke="currentColor" stroke-width="1.25"/>
</svg>
