<svg width="61" height="61" viewBox="0 0 61 61" fill="none" xmlns="http://www.w3.org/2000/svg">
  <path fill-rule="evenodd" clip-rule="evenodd" d="M54.8752 0.708333H16.9585C13.9793 0.708333 11.5418 3.14583 11.5418 6.125V44.0417C11.5418 47.0208 13.9793 49.4583 16.9585 49.4583H54.8752C57.8543 49.4583 60.2918 47.0208 60.2918 44.0417V6.125C60.2918 3.14583 57.8543 0.708333 54.8752 0.708333ZM0.708496 14.25C0.708496 12.7604 1.92725 11.5417 3.41683 11.5417C4.90641 11.5417 6.12516 12.7604 6.12516 14.25V52.1667C6.12516 53.6562 7.34391 54.875 8.8335 54.875H46.7502C48.2397 54.875 49.4585 56.0937 49.4585 57.5833C49.4585 59.0729 48.2397 60.2917 46.7502 60.2917H6.12516C3.146 60.2917 0.708496 57.8542 0.708496 54.875V14.25ZM41.3335 35.9167C41.3335 37.4062 40.1147 38.625 38.6252 38.625C37.1356 38.625 35.9168 37.4062 35.9168 35.9167V16.9583H33.2085C31.7189 16.9583 30.5002 15.7396 30.5002 14.25C30.5002 12.7604 31.7189 11.5417 33.2085 11.5417H38.6252C40.1147 11.5417 41.3335 12.7604 41.3335 14.25V35.9167ZM19.6668 44.0417H52.1668C53.6564 44.0417 54.8752 42.8229 54.8752 41.3333V8.83333C54.8752 7.34375 53.6564 6.125 52.1668 6.125H19.6668C18.1772 6.125 16.9585 7.34375 16.9585 8.83333V41.3333C16.9585 42.8229 18.1772 44.0417 19.6668 44.0417Z" fill="#1F7240"/>
</svg>
