<svg xmlns="http://www.w3.org/2000/svg" id="Layer_1" x="0" y="0" version="1.1" viewBox="0 0 500 500" xml:space="preserve"><defs/><style>.st0{fill:#0c592e}</style><path d="M84.66 180.3c-2.71-27.24 14.06-52.98 40.85-59.92 29.49-7.63 52.88 11.12 72.85 30.32 2.23 2.14 6.3 2.47 8.49 0 18.03-20.46 42.4-36.56 69.83-40.39 24.97-3.49 50.2 5.15 67.27 23.82 9.13 9.99 15.13 22.68 15.93 36.27.21 3.48 3.73 7.33 7.6 5.79 31.02-12.43 60.21 11.85 69.45 40.57 9.6 29.86 1.22 63.38-21.68 84.84-11.88 11.13-26.74 18.36-42.72 21.24-4.23.76-4.96 5.61-3.59 8.81 6.08 14.2-2.71 30.35-12.5 40.48-11.79 12.21-27.65 20.37-43.3 26.48-17.2 6.71-35.48 12.29-54.11 12.22-15.83-.06-30.99-4.87-44.49-13.04-14.87-9-27.38-21.62-37.24-35.87-2.61-3.77-7.78-3.94-10.36 0-9.24 14.09-29.17 17.46-44.76 17.26-18.03-.23-35.96-6.13-50.42-16.96-25.19-18.88-39.75-52.58-31.44-83.57 4.09-15.26 13.69-29.78 28.76-35.94 3.8-1.55 6.42-6.75 2.65-10.03-8.43-7.32-15.03-18.54-12.67-30.09 2.03-9.92 12.21-18.63 22.6-16.32 7.52 1.67 10.74-9.9 3.19-11.57-15.9-3.52-31.57 6.87-36.62 22.01-5.38 16.1 2.82 33.88 15.01 44.47.88-3.34 1.77-6.69 2.65-10.03C31.94 245.01 19.8 286.06 29 319.46c11.02 40.03 46.88 68.78 88.17 71.53 21.58 1.44 47.5-3.75 60.13-23.01h-10.36c20.2 29.16 50.94 52.72 87.43 54.71 21.21 1.15 42.38-4.86 61.95-12.51 18.01-7.04 36.35-16.27 49.65-30.68 13.45-14.58 21.51-34.75 13.32-53.9-1.2 2.94-2.39 5.88-3.59 8.81 33.84-6.1 62.58-31.16 72.88-64.01 10.41-33.23 1.69-73.96-26.45-96.01-16.17-12.68-38.42-17.55-57.85-9.77 2.53 1.93 5.06 3.86 7.6 5.79-1.68-28.32-20.96-52.52-46.2-64.42-27.58-12.99-58.82-9.77-85.63 3.63-15.87 7.93-29.99 19.32-41.69 32.6h8.49c-11.68-11.24-24.04-22.6-38.98-29.33-14.84-6.69-31.34-8.15-47.05-3.67-30.79 8.78-51.33 39.23-48.16 71.08.75 7.61 12.76 7.69 12 0z" class="st0"/><path d="M189.9 231.08c2-13.12-5.51-28.23-20.41-28.08-14.42.15-27 11.94-32.8 24.34-7.11 15.23-6.95 32.84-4.37 49.14 2.32 14.65 9.59 29.62 24 35.59 18.27 7.58 35.93-4.63 47.12-18.33 4.85-5.93-3.59-14.47-8.49-8.49-8.47 10.37-22.61 22.78-36.64 14.48-12.66-7.5-14.89-24.49-15.48-37.81-.63-14.22 1.43-29.64 12.2-39.95 4-3.83 11.42-8.67 17.25-6.56 4.67 1.69 6.72 7.95 6.02 12.47-1.12 7.57 10.44 10.82 11.6 3.2zM222.69 200.73c-4.35 31.1-2.26 62.54 6.66 92.69 2.19 7.39 13.77 4.24 11.57-3.19-8.27-27.94-10.71-57.41-6.66-86.31.45-3.23-.79-6.4-4.19-7.38-2.8-.81-6.94.98-7.38 4.19z" class="st0"/><path d="M232.34 268.06c18.06-2.04 36.12-4.08 54.18-6.13 7.59-.86 7.67-12.87 0-12-18.06 2.04-36.12 4.08-54.18 6.13-7.59.86-7.67 12.87 0 12z" class="st0"/><path d="M293.41 197.85c.06-.86.11-1.71.17-2.57h-12c1.18 34.02.75 68.06-1.28 102.04-.46 7.71 11.54 7.69 12 0 2.03-33.98 2.46-68.02 1.28-102.04-.27-7.77-11.5-7.68-12 0-.06.86-.11 1.71-.17 2.57-.5 7.71 11.51 7.68 12 0zM309.88 274.22c-1.03 5.36-2.23 10.73-3.08 16.12-.67 4.21-.31 8.94 3.84 11.3 4.02 2.29 9.59.32 13.82-.35 6.15-.97 12.29-1.95 18.44-2.92 7.61-1.2 4.38-12.77-3.19-11.57-3.56.56-7.12 1.13-10.67 1.69-3.29.52-7.58.49-10.67 1.69-.65.1-1.29.2-1.94.31 1.26 3.13 1.97 3.8 2.15 1.99.67-.94.61-3.12.84-4.33.69-3.58 1.37-7.16 2.06-10.74 1.41-7.55-10.15-10.78-11.6-3.19z" class="st0"/><path d="M333.99 265.78c-2.59 17.57-4.15 35.23-4.52 52.98-.16 7.73 11.84 7.72 12 0 .35-16.67 1.66-33.3 4.09-49.79 1.12-7.55-10.44-10.81-11.57-3.19z" class="st0"/></svg>