<svg xmlns="http://www.w3.org/2000/svg" id="Layer_1" x="0" y="0" version="1.1" viewBox="0 0 500 500" xml:space="preserve"><defs/><style>.st0{fill:#09592d}</style><path d="M73.32 200.64c-29.71 9.98-41.26 43.21-33.75 71.81 7.51 28.6 31.71 56.56 62.05 60.95 16.47 2.38 33.56-2.17 45.56-13.96-3.14-.4-6.28-.81-9.42-1.21 14.91 27.53 42.65 47.03 73.75 51.09 16.53 2.16 33.67.14 49.18-6.01 13.44-5.33 32.25-14.96 31.36-32.03-3.41 1.41-6.83 2.83-10.24 4.24 25.39 22.6 64.14 18.28 92.94 5.08 31.05-14.23 55.03-44.49 55.77-79.47.35-16.58-5.94-35.12-21.64-42.95v10.36c12.88-7.71 15.2-24.76 14.8-38.51-.44-14.98-4.87-29.88-12.66-42.68-16.19-26.58-46.58-41.94-77.6-39.91-14.98.98-37.76 5.41-42.54 22.18h11.57c-3.28-19.47-18.92-34.68-34.81-45.05-15.79-10.31-34.14-16.33-52.86-18.14-35.29-3.41-78.97 10.64-94.51 45.26-8.46 18.84-6.54 41.9 7.72 57.39 2.42-3.14 4.85-6.28 7.27-9.42-18.44-7.98-40.59-12.08-57.68 1.3-13.83 10.83-17.51 33.03-3.5 45.43 5.76 5.1 14.28-3.35 8.49-8.49-9.65-8.54-5.33-22.92 4.63-29.11 12.95-8.04 28.88-4.46 42.01 1.22 6.02 2.61 12.18-4.1 7.27-9.42-10.4-11.28-11.63-28.39-6.07-42.26 5.98-14.94 19.6-25.63 33.87-32.14 28.84-13.17 64.11-10.25 91.46 5.19 15.73 8.88 32 22.73 35.14 41.42 1.03 6.1 10.06 5.31 11.57 0 2.09-7.32 12.35-9.84 18.81-11.45 7.53-1.88 15.27-2.43 23-1.9 15.58 1.07 31.15 7.23 42.83 17.67 11.6 10.37 19.48 24.29 22.89 39.44 1.66 7.39 2.12 15.03 1.41 22.58-.65 6.84-2.21 15.23-8.58 19.04-3.66 2.19-4.14 8.3 0 10.36 11.22 5.6 15.52 18.4 15.7 30.28.22 14.6-4.72 28.85-12.77 40.92-15.72 23.58-44.49 37.74-72.41 39.52-15.24.97-31.33-1.78-43.06-12.23-3.63-3.23-10.53-1.26-10.24 4.24.67 12.81-19.98 19.98-29.65 22.95-13.58 4.18-28.27 5.22-42.25 2.48-25.62-5.03-47.64-21.65-60.04-44.54-1.86-3.44-6.74-3.85-9.42-1.21-10.76 10.57-26.92 13.4-41.2 9.36-15.11-4.28-27.61-15.49-36.08-28.42-9.11-13.92-14.94-31.49-11.28-48.17 3.07-13.99 12.49-26.84 26.37-31.51 7.31-2.45 4.19-14.04-3.16-11.57z" class="st0"/><path d="M206.17 198.49c3.81-12.99-6.82-25.15-19.76-25.66-14.46-.56-24.86 11.12-29.71 23.53-5.39 13.81-5.82 29.73-1.97 43.98 3.32 12.3 10.53 25.53 23.28 29.98 15.58 5.44 27.46-7.34 35.72-18.68 4.55-6.25-5.85-12.24-10.36-6.06-5.65 7.75-14.59 18.67-24.96 11.61-9.55-6.5-13.25-20.28-14.03-31.14-.82-11.36.96-25.23 8.41-34.37 3.39-4.16 8.79-7.57 14.38-6.83 5.02.66 8.91 5.41 7.44 10.44-2.18 7.44 9.39 10.61 11.56 3.2zM289.45 195.68c3.92-8.01 1.48-17.13-5.87-22.25-6.94-4.83-16.52-5.12-24.31-2.29-17.45 6.34-26.45 23.81-27.46 41.54-.55 9.68.91 19.71 3.31 29.09 2.27 8.86 6.26 17.44 13.72 23.07 7.04 5.3 16.19 6.9 24.33 3.17 7.32-3.36 12.57-10.26 15.91-17.41 9.45-20.24 9.66-44.66 2.58-65.62-2.46-7.28-14.05-4.16-11.57 3.19 5.88 17.41 6.16 36.56-.36 53.86-2.23 5.93-6.09 13.15-12.44 15.48-7.82 2.87-14.66-4.13-17.74-10.54-3.68-7.66-5.12-17.09-5.68-25.5-.55-8.44.07-17.38 4.06-25 3.23-6.17 8.51-11.65 15.19-14 3.5-1.23 7.57-1.67 11.13-.43 2.95 1.03 6.55 4.08 4.83 7.58-3.38 6.91 6.97 13 10.37 6.06zM317.07 171.46c.25-.25 2.62-2.71 3.38-1.88.23.26-.84 3.53-.87 3.62-.84 2.57-2.31 4.94-3.85 7.14-2.91 4.14-9.51 8.76-8.74 14.42.88 6.52 8.12 6.31 13.17 6.38 7.16.1 14.19-1.87 21.3-1.62 7.72.27 7.71-11.73 0-12-8.62-.3-18 3.52-26.6 1.31 1.2.92 2.39 1.84 3.59 2.76-.13-.22-.25-.44-.38-.66l.6 4.62c.38-1.55 3.52-4.04 4.52-5.31 1.67-2.11 3.31-4.27 4.68-6.59 2.71-4.62 5.09-10.52 4.3-15.96-.72-4.97-4.33-8.65-9.16-9.82-5.48-1.33-10.61 1.31-14.42 5.09-5.49 5.46 3 13.95 8.48 8.5z" class="st0"/></svg>