<svg xmlns="http://www.w3.org/2000/svg" viewBox="0 0 400 400"><defs/><style>.st0{fill:#39c4f3}.st1{fill:#2ca54f}.st2{fill:#31b456}</style><g id="Layer_1"><path d="M233.88 73.63c-24.9-3.86-63.29 2.03-83.83 16.15s-34.52 36.66-38.11 60.72c-2.02 13.51-3.13 29.08-.81 42.56 3.91 22.73 16.48 42.92 27.03 56.11 16.29 20.36 48.66 35.99 86.43 33.48 13.79-.92 40.65-10.98 52.66-17.57 11.18-6.14 20.41-15.23 27.74-25.43 8.31-11.56 14.32-24.74 16.85-38.59 3.66-20.08 1.5-43.98-6.75-62.76-7.99-18.19-19.9-34.62-36.2-46.61-9.64-7.06-29.49-15.65-45.01-18.06z" class="st0"/><path d="M235.48 67.85c-21.18-3.13-43.61-.86-64.01 5.53-21.59 6.76-39.4 20.21-51.6 39.37-13.19 20.7-17.32 46.56-15.82 70.78 1.54 24.77 12.77 47.8 27.76 67.21 12.84 16.63 31.27 27.76 51.35 33.54 22.01 6.33 44.27 5.94 65.95-1.11 20.85-6.78 40.61-15.72 55.07-32.78 16.56-19.54 25.42-43.57 25.37-69.19-.06-27.95-10-54.36-27.7-75.9-16.54-20.13-40.72-33.2-66.37-37.45-7.55-1.25-10.8 10.31-3.19 11.57 20.31 3.37 40.12 12.44 54.62 27.18 15.26 15.51 25.88 35.9 29.33 57.4 3.63 22.61.15 45.81-11.73 65.52-5.86 9.72-13.4 18.77-22.6 25.51-7.25 5.31-15.56 9-23.9 12.25-8.57 3.34-17.36 6.33-26.36 8.28-9.43 2.04-19.45 1.73-28.98.55-19.26-2.38-38.74-10.12-53.06-23.45-14.59-13.58-25.61-33.46-30.78-52.57-3.14-11.63-3.45-23.57-2.5-35.53.85-10.78 2.53-21.43 6.53-31.53 8.07-20.37 24.5-37.87 45.08-45.75 19.88-7.6 43.2-10.99 64.36-7.86 7.54 1.12 10.8-10.45 3.18-11.57z" class="st0"/><path d="M290.15 122.43c-1.6 1.56-4.23-.35-6.05 1.05-1.28.98-1.64 3.46-1.7 4.96-.17 4.2 1.96 8.2 6.54 7.79 7.23-.65 8.62-8.67 14.79-10.31 2.29-.61 8.81 1.98 9.04-2.1.14-2.4-2.74-6.1-3.73-8.09-1.01-2.03-1.91-4.42-3.78-5.84-1.93-1.47-3.18-1.18-5.37-.92-.38.15-.72.35-1.04.61-2.04-.5-3.21-1.8-3.51-3.9-.38-1.22-.17-3.32-.89-4.43-1.63-2.48-5.2-1.58-6.87.55-.96 1.22-1.36 2.83-.78 4.32.81 2.09 3.72 1.91 1.59 4.45-.53.63-.6 1.49 0 2.12.67.7 1.82.76 2.35 1.3 1.42 1.45.23-.42-.07 1.49-.24 1.51-.48 2.8 1.25 3.58.97.44 2.09-.37 2.87-.07 1.09-.52 1.29-.29.61.71-.03.82-.45 1.2-1.26 1.14-1.09.35-1.14-.26-2.05-.16-1.56.17-2.97.82-2.75 2.65.23 1.89 3.23 1.92 3 0 .44 3.59 5.26-1.04 5.8-2.27.8-1.83 1.22-4.36-1.1-5.24-.29-.11-3.39-.1-3.09.48.23.43 1.41-1.36 1.49-1.93.49-3.51-3.48-2.25-4.94-3.78v2.12c1.12-1.33 3.27-3.74 2.17-5.7-.28-.49-1.54-.86-1.63-1.19.65-1.51.99-1.81 1.02-.9.2 1.07.51 2.11.95 3.11.75 1.78 2.18 4.71 4.42 5.06.75.12 1.37-.29 2.08-.35 1.68-1.39 3.49-.87 5.43 1.54.52.99 1.02 1.99 1.5 3 .38.77 3 4.85 2.55 5.58.15-.24-4.09-.11-4.11-.11-3.24.4-5.62 1.25-7.8 3.64-1.69 1.85-2.33 3.99-4.59 5.44-4.61 2.95-10.65-3.38-5.72-5.87.32-.16 2.44.37 3 .23 1.09-.28 1.7-.85 2.48-1.6 1.4-1.39-.72-3.51-2.1-2.16z" class="st1"/><path d="M152.49 145.88c-4.23 3.68-10.27 17.08-1.28 19.35 1.84.47 3.36-.39 4.91-1.26.84-.47 3.08-2.5 4.03-2.59 2.35-.23.32 1-.12 1.92-2.87 5.97 5.35 4.31 5.39 9.37.02 1.93 3.02 1.93 3 0-.03-3.62-1.83-4.05-3.88-6.38-.91-1.03-1.69-.63-.93-2.84.21-.61.84-1.11 1.02-1.78.28-1.02.19-2.41-.52-3.28-1.86-2.29-4.29-.36-6.15.83-.93.59-2.26 1.92-3.36 2.16-4.85 1.06-5-1.75-4.82-4.53.23-3.6 2.16-6.54 4.82-8.85 1.47-1.27-.66-3.39-2.11-2.12z" class="st2"/><path d="M126.08 111.68c.8 7.41-5.94 12.69-6.68 19.85-.8 7.74 4.95 16.3 8.37 22.84.82 1.57 3.07.44 2.74-1.16-.9-4.34-1.81-8.68-2.71-13.02-.73.56-1.47 1.13-2.2 1.69 3.31 2.41 6.96 5.05 8.67 8.9 1.4 3.15.69 6.4 1.58 9.62 1.36 4.99 6.37 6.58 10.75 8.21 2.85 1.07 5.77 2.02 8.81 2.36 1.18.13 3.37-.21 4.43.5.54.36 1.17 2.04 1.74 2.6 2.41 2.33 6.38 2.29 7.85-.99.78-1.75-1.8-3.28-2.59-1.51-1.79 4.01-4.66-2.16-4.98-2.88-.2-.43-.82-.79-1.3-.74-5.25.52-9.98-.95-14.8-2.87-1.69-.67-4.37-1.59-5.7-2.98-2.31-2.42-1.41-6.22-1.95-9.14-1.15-6.21-6.15-10.14-11-13.67-1.15-.84-2.44.54-2.2 1.69.9 4.34 1.81 8.68 2.71 13.02.91-.39 1.83-.77 2.74-1.16-3.9-7.47-10.39-16.79-6.71-25.34 2.28-5.28 6.08-9.77 5.43-15.83-.21-1.89-3.21-1.91-3 .01z" class="st2"/><path d="M153.97 147.99c6.12-.5 16.06-2.94 19.21 4.13.26.58 1.11.87 1.69.69 1.35-.41 2.04-.83 2.73-2.13.64-1.23.23-1.33.61-2.61-.4-1.31.02-2.34 1.26-3.1.51-1.13 1.35-1.82 2.51-2.06 4.04-2.69 4.81-6.37 7.39-10.28 2.14-3.24 5.52-5.68 9.23-6.79 3.31-.98 6.28-.16 9.57-.51 3.28-.36 6.17-2.5 5.72-6.07-.08-.65-.41-1.27-1.1-1.45-1.42-.35-2.7-.51-4.17-.49.48.37.96.73 1.45 1.1-.16-1-.33-2-.49-3-.08-.5-.58-.93-1.05-1.05-1.12-.3-2.25-.59-3.37-.89v2.89c4.17-1.76 8.32-2.85 12.83-3.29-.35-.85-.71-1.71-1.06-2.56-3.01 3.78-2.16 10.24 3.62 10.59 2.04.12 4.03-.87 4.76-2.85.84-2.26-3.04-8.98-1.49-10.08 1.02-.72.96-2.37-.36-2.74-4.07-1.13-3.4-6.01-7.12-7.26-2.76-.92-5.68.83-7.81 2.41.73.56 1.47 1.13 2.2 1.69 1.74-6.25-6.25-8.2-10.31-4.91-2.53 2.04-6.3 11.17-10.05 9.48-.99-.45-2.32-3.13-3.31-3.94-1.66-1.37-3.51-2.19-5.55-2.79.3.73.6 1.47.9 2.2 2.7-4.73 7.66-6.9 12.95-5.87 1.93.38 4.41 1.46 6.06-.23.78-.8.54-1.27.82-2.17.68-2.14.66-3.45 2.67-4.7 2.3-1.43 4.48-2.16 6.04-4.52-.56.23-1.13.46-1.69.69-.07 2.66-1.17 4.11-3.3 4.37-.91.27-1.41 1.36-.9 2.2 3.01 4.91 13.19 5 17.09 1.25 1.83-1.75 2.8-4.48 1.68-6.9-1.59-3.42-6.77-3.35-8.11-6.7-.35.62-.7 1.23-1.05 1.85 5.13-1.81 10.47-2.21 15.71-.53 5.86 1.87 2.43 6.24 3.34 10.94.82 4.2 4.58 8.1 9.1 6.37 2.9-1.1 4.42-4.02 6.92-5.68 3.2-2.12 7.32-2.19 11.01-2.46 5.16-.39 10.33-.87 13.99-4.94 1.29-1.43-.83-3.56-2.12-2.12-4.35 4.84-11.42 3.68-17.27 4.56-2.49.37-4.97 1-7.12 2.37-2.89 1.84-4.2 5.36-7.9 4.87-6.9-.92-2.17-8.66-3.38-12.83-.55-1.91-2.07-2.53-3.83-3.26-6.18-2.57-13.01-2.39-19.25-.18-.7.25-1.37 1.05-1.05 1.85.93 2.33 2.42 3.31 4.59 4.5.51.28 1.52.55 1.89 1 1.29.56 1.09 1.67-.58 3.34.24 2.35-.54 3.42-2.34 3.2-2.32.57-7.41.17-8.74-2.01-.3.73-.6 1.47-.9 2.2 2.7-.81 5.91-1.99 6.48-5.13.43-2.39-.88-4.44-3.17-5.03-.67-.17-1.32.12-1.69.69-1.86 2.84-5.72 3.02-7.94 5.43-.68.74-.98 1.45-1.33 2.37-.71 1.85.3 2.46-2.31 2.61-1.52.09-3.2-.66-4.82-.58-1.63.08-3.24.45-4.75 1.06-3.23 1.31-5.67 3.6-7.39 6.6-.49.85-.04 1.93.9 2.2 3.63 1.06 6.09 3.27 7.68 6.68.22.46.81.75 1.3.74 2.82-.05 4.92-1.16 6.86-3.2 1.05-1.1 1.81-2.42 2.68-3.66.66-1.06 1.39-2.07 2.19-3.03 1.81-2.47 3.94-2.16 6.4.94-.32 1.16 1.11 2.5 2.2 1.69 5.34-3.95 7.76 3.8 12.61 5.15-.12-.91-.24-1.83-.36-2.74-1.4 1-2.04 1.97-2.13 3.74-.04.8.25 1.89.49 2.63.19.47.4.93.62 1.38 1.33 2.05.58 1.82-2.23-.69.71-.89.38-2.7-1.06-2.56-4.75.46-9.23 1.54-13.63 3.4-1.26.53-1.58 2.48 0 2.89 2.1.55 2.47.71 2.82 2.83.1.63.84 1.11 1.45 1.1 1.14-.1 2.27.03 3.37.39-.37-.48-.73-.96-1.1-1.45.51 4.07-7.97 2.8-9.91 3.04-1.69.21-3.32.63-4.89 1.26-3.57 1.42-6.69 3.83-8.9 6.98-1.19 1.69-1.91 3.58-2.87 5.39-1.55 2.93-3.15 3.55-5.91 5.13-1.12.64-2.03 1.12-2.67 2.27-.86 1.55.21 6-1.67 6.57.56.23 1.13.46 1.69.69-3.75-8.44-14.44-6.21-21.8-5.61-1.89.2-1.91 3.2.02 3.04zM155.72 86.29c4.89-2.57 9.4 1.72 14.04 2.79 2.28.53 5.14.22 6.05-2.33.72-2.01-.43-3.72-2.34-4.35-1.76-.58-3.69-.74-5.47-1.32-1.72-.56-2.98-.63-4.77-.3-1.9.35-1.09 3.24.8 2.89 1.07-.2 5.61 1.08 7.35 1.52 1.75-.02 1.73.14-.05.47-.87.52-1.73.5-2.56-.06-1.15-.3-2.41-1.06-3.54-1.54-3.7-1.56-7.32-2.3-11.01-.36-1.72.9-.21 3.49 1.5 2.59zM170.1 77.44c1.94 2.1 5.1 6.72 8.46 4.35 1.16-.82 1.46-2.24 1.11-3.56-.26-.97-1.4-2.28-1.1-3.29.55-1.85-2.34-2.65-2.89-.8-.25.85-.19 1.71.1 2.54.2.59 1.08 1.73 1 2.35-.06.43.27.28-.32.37-.48.07-1.11-.72-1.4-1.01-.97-.99-1.89-2.05-2.84-3.07-1.31-1.42-3.43.71-2.12 2.12zM168.75 173.6c.5 3.42 4.25 5.53 7.7 5.63s6.77-1.23 10.12-2.08c3.35-.85 7.15-1.17 10.04.74 1.17.77 2.16 1.89 3.51 2.27 1.3.36 2.67-.05 4.01-.12 3.63-.2 6.96 2.05 9.5 4.65 2.54 2.6 4.65 5.66 7.55 7.85 5 3.78 11.61 4.47 17.41 6.85 1.05.43 2.16 1.01 2.58 2.06.8 1.98-1.27 3.81-2.6 5.48-4.94 6.17-1.28 17.21-7.72 21.77-1.98 1.4-4.6 1.84-6.34 3.53-3.25 3.15-2.38 9.51-6.37 11.62-2.15 1.13-5.5.94-6.16 3.28-.35 1.24.38 2.62-.08 3.82-.69 1.81-3.26 1.76-4.89 2.81-2.06 1.33-2.3 4.24-1.93 6.67.37 2.42 1.14 4.95.32 7.26-.71 1.99-2.54 4.1-1.42 5.89.81 1.29 2.85 1.59 3.29 3.05.38 1.27-.91 2.56-2.24 2.66-1.33.09-2.56-.64-3.62-1.44-3.88-2.94-6.71-7.24-7.89-11.96-.67-2.68-.82-5.45-.96-8.21-.31-5.87-.62-11.73-.93-17.6-.28-5.39-.46-11.2 2.5-15.71-3.95-1.34-7.48-3.88-10.01-7.2-.83-1.09-1.6-2.31-2.8-2.98-1.22-.68-2.72-.7-3.99-1.3-2.74-1.31-3.49-4.8-3.9-7.81-.57-4.13-1.12-8.44.24-12.37.66-1.9 1.75-3.66 2.1-5.63 1-5.71-4.54-10.61-10.11-12.21 1.9.48 3.61 1.64 4.77 3.21" class="st2"/><path d="M167.3 174c1.71 6.24 8.2 7.38 13.81 6.19 4.77-1.02 10.03-3.75 14.74-1 1.36.79 2.29 1.97 3.87 2.42 1.84.53 3.84-.14 5.72.1 5.33.67 8.4 5.69 11.82 9.27 2.58 2.7 5.49 4.58 8.96 5.94 1.95.77 3.98 1.33 5.98 1.93 1.39.42 5.81 1.15 6.66 2.33 1.35 1.88-3.21 7.52-3.83 9.55-.96 3.15-.99 6.5-1.56 9.72-.95 5.34-3.55 6.74-7.96 9.26-2.09 1.2-3.34 2.76-4.27 4.97-.61 1.44-.84 3.03-1.46 4.46-1.35 3.12-2.83 3.32-5.69 4.46-1.7.68-3.11 1.43-3.6 3.33-.56 2.13.58 2.96-1.67 4.46-1.27.85-2.65.85-3.77 2.09-1.53 1.71-1.7 4.15-1.55 6.32.22 3.11.86 5.65-.24 8.93-.42 1.25-1.23 2.32-1.15 3.73.06 1.05.53 1.83 1.19 2.58.11.12 1.17.88 1.2.96.75 2.27-2.2.68-3.18-.16-4.44-3.82-6.54-9.17-7.07-14.88-.55-5.96-.67-12-.98-17.98-.32-6.09-1.02-12.37 2.14-17.88.52-.9 0-1.86-.9-2.2-3.72-1.42-6.61-3.58-9.15-6.61-1.13-1.35-2.05-2.75-3.66-3.57-2.68-1.36-4.08-.16-6-4.14-.57-1.17-.65-2.7-.84-3.96-.58-3.82-.95-7.8.23-11.54 1.37-4.34 3.4-7.66 1.01-12.14-2.07-3.87-6.05-6.2-10.07-7.55-1.84-.62-2.61 2.26-.8 2.89 1.73.49 3.1 1.43 4.11 2.83 1.28 1.45 3.39-.68 2.12-2.12-1.6-1.81-3.17-2.81-5.44-3.6-.27.96-.53 1.93-.8 2.89 3.81 1.28 7.7 3.61 8.7 7.76.9 3.69-1.43 6.46-2.21 9.94-1.05 4.69-.52 10.84 1.08 15.39 1.82 5.18 6.5 4.89 10 8.53 3.39 3.52 6.25 6.11 10.91 7.89-.3-.73-.6-1.47-.9-2.2-5.03 8.77-2.49 20.56-1.98 30.15.47 8.82.98 17.3 7.83 23.72 1.73 1.62 4.16 3.69 6.74 3.25 2.29-.39 3.94-2.59 3.14-4.86-.5-1.43-2.03-1.81-2.68-3.14-.97-1.99 1.05-4.11 1.32-6.4.17-1.5-.12-2.98-.34-4.46-.44-2.95-.99-4.12 1.26-6.18 1.26-1.16 2.19-1.39 3.47-2.26 3.06-2.09.77-5.48 4.38-7.25 2.83-1.38 4.73-1.69 6.19-4.82.63-1.35.94-2.82 1.43-4.22 1.13-3.24 2.55-4.29 5.45-5.78 3.12-1.6 5.27-3.34 6.51-6.72 1.26-3.44 1.18-7.2 1.86-10.75.35-1.82.82-3.65 1.8-5.24.95-1.55 2.59-2.76 3.25-4.5 2.75-7.21-11.37-8.52-15.4-10.13-6.07-2.43-8.8-7.38-13.47-11.48-1.57-1.38-3.3-2.58-5.28-3.29-2.52-.91-4.35-.09-6.84-.44-2.27-.32-3.65-2.23-5.72-3.04-1.97-.78-4.11-.87-6.2-.67-5.55.54-16.96 6.74-19.32-1.89-.52-1.85-3.41-1.06-2.9.81z" class="st2"/><path d="M285.85 137.33c-4.6 6.1-9.69 12.06-13.85 18.47-3.25 5.01-3.12 9.61-2.14 15.34 1.59 9.24 5.79 21.43 17.27 21.24 2.1-.04 3.89-.65 5.67-1.72 2.32-1.39 4.19-2.55 7.24-1.64.89.27 1.65.86 2.59 1.02 1.94.33 2.45-.97 4.07-1.16 4.64-.54 3.64 5 4.29 7.43.64 2.41 1.97 4.55 3 6.8 1.94 4.25 1.49 7.17-.05 11.36-1.57 4.27-2.39 8.34.61 12.12 1.2 1.51 3.31-.62 2.12-2.12-3.9-4.9 2.43-12 1.72-17.5-.64-5.01-4.6-8.81-4.67-13.93-.04-3.23.5-6.5-3.18-7.89-1.47-.56-2.54-.24-3.94.14-1.35.36-3.04 1.63-4.49 1.43-.85-.11-1.77-1-2.64-1.24-4.85-1.31-7.38 3.43-11.91 3.83-7.43.66-11.85-6.64-13.53-12.82-1.97-7.26-3.08-14.03 1.49-20.49 4.13-5.83 8.62-11.44 12.92-17.15 1.16-1.54-1.44-3.04-2.59-1.52z" class="st1"/><path d="M287.19 139.07c6.44 1.91 12.97 1.36 18.89-1.9 4.12-2.26 4.47 1.43 6.86 3.58 2.91 2.62 6.41 1.92 8.54 5.94.9 1.71 3.5.19 2.59-1.51-1.32-2.48-2.65-3.88-5.25-5.01-2.83-1.23-3.64-1.81-5.33-4.62-.61-1.02-.83-1.95-1.99-2.57-2.46-1.33-4.84.49-6.94 1.61-5.25 2.8-10.89 3.29-16.58 1.59-1.85-.55-2.64 2.34-.79 2.89z" class="st1"/><path d="M128.64 111.75c-.52-3.57-.99-5.1 1.65-8.73.99-1.36 2.43-2.67 3.61-3.86 2.44-2.46 5.04-4.75 7.76-6.89 2.9-2.27 6.17-5.19 9.95-5.75 2.53-.38 4.35.05 6.75-1.05 1.75-.81.23-3.39-1.51-2.59-2.21 1.02-4.88.31-7.18.88-1.45.35-2.71 1.13-3.96 1.91-3.81 2.4-7.4 5.31-10.73 8.34-2.98 2.7-6.42 5.68-8.53 9.15-1.82 3.01-1.18 6.09-.7 9.41.27 1.88 3.16 1.07 2.89-.82zM165.17 80.39c-2.01-1.16-4.41-.41-6.59-1.54-.12.91-.24 1.83-.36 2.74 1.93-.55 3.58-1.57 5.39-2.42 1.78-.84 4.84-2.83 6.2-.84.88 1.3 2.62.71 2.8-.76.2-1.68-.5-2.83-1.88-3.72-1.54-.99-2.81 1.12-1.82 2.36.83 1.03 1.54 2.06 2.24 3.17 1.02 1.63 3.62.13 2.59-1.51-.83-1.32-1.73-2.56-2.71-3.78-.61.79-1.21 1.57-1.82 2.36.13.38.27.75.4 1.13.93-.25 1.86-.5 2.8-.76-1.65-2.42-2.13-3.22-5.09-2.29-3.42 1.07-6.48 3.21-9.89 4.18-1.19.34-1.53 2.13-.36 2.74 1.09.57 2.15 1.03 3.38 1.24.93.16 2.41-.17 3.21.29 1.67.97 3.18-1.62 1.51-2.59zM178.27 73.5c.37.77 22.26-4.11 24.43-4.35 7.99-.87 16.06-.84 24.06-.19 15.64 1.27 31.46 7.25 44.88 15.33 1.66 1 3.17-1.59 1.51-2.59-8.15-4.91-16.95-8.13-25.81-11.5-9.13-3.47-18.61-4.39-28.33-4.67-9.62-.27-19.16.66-28.6 2.52-4.06.81-10.1 1.17-13.61 3.38-1.47.92-1.92 1.94-1.13 3.58.85 1.74 3.44.22 2.6-1.51zM151.98 99.48c.05-.05.1-.1.14-.15.48-.5.55-1.22.23-1.82-.04-.07-.08-.15-.12-.22-.31-.58-1.08-.86-1.69-.69-4.41 1.2-8.2 7-10.33 10.73-.9 1.57 1.08 2.83 2.36 1.82 6.26-4.95 12.52-9.9 18.78-14.86l-2.12-2.12c-8 7.2-15.85 14.49-21.92 23.44-1 1.47 1.14 2.9 2.36 1.82 8.36-7.47 15.38-16.4 24.7-22.76-.61-.79-1.21-1.57-1.82-2.36-8.85 8.1-17.58 16.3-24.61 26.09-.87 1.21.84 2.88 2.05 2.05 4.38-3 7.87-7.23 11.65-10.91 4.83-4.71 9.83-9.2 15.25-13.22-.61-.79-1.21-1.57-1.82-2.36-9.57 8.96-19.03 18.01-26.69 28.71-.87 1.21.85 2.89 2.05 2.05 4.7-3.27 8.28-8.14 12.31-12.18 4.64-4.65 9.47-9.07 14.46-13.34l-2.12-2.12c-8.93 8.71-17.76 17.52-24.75 27.91-.99 1.47 1.14 2.92 2.36 1.82 9-8.17 16.34-18.12 26.31-25.21-.61-.79-1.21-1.57-1.82-2.36-8.97 8.91-17.85 17.89-25.14 28.26-.98 1.39 1.22 3.08 2.36 1.82 8.45-9.35 16.97-18.64 26.93-26.43l-2.12-2.12c-4.89 5.13-9.78 10.27-14.43 15.62-3.61 4.14-8.01 8.49-9.9 13.73-.52 1.43 1.51 2.5 2.51 1.46 8.44-8.82 16.68-17.95 26.28-25.54l-2.12-2.12c-8.63 8.88-17.15 17.86-23.44 28.61-.86 1.47 1.14 3.03 2.36 1.82 8.63-8.65 17.12-17.49 26.79-25.01l-2.12-2.12c-8.24 8.01-16.36 16.09-23.14 25.4-1 1.38 1.22 3.06 2.36 1.82 4.22-4.61 8.32-9.31 12.28-14.14 2.93-3.58 6.47-7.19 7.95-11.64.42-1.26-1.12-2.35-2.2-1.69-8.96 5.38-16.08 14.49-22.72 22.41-1.22 1.46.79 3.55 2.12 2.12 7.34-7.87 15.07-15.33 23.2-22.38l-2.12-2.12c-7.78 7.75-15.45 15.58-21.68 24.66-.97 1.41 1.2 3.05 2.36 1.82 7.86-8.36 15.78-16.67 25.14-23.39-.61-.79-1.21-1.57-1.82-2.36-8.84 8.51-17.56 17.09-24.85 26.99-1.01 1.37 1.23 3.08 2.36 1.82 7.89-8.8 15.85-17.54 25.16-24.88l-2.12-2.12c-8.16 8.03-16.21 16.13-23 25.38-1.01 1.38 1.21 3.05 2.36 1.82 7.65-8.25 15.37-16.45 24.58-23.01-.61-.79-1.21-1.57-1.82-2.36-7.4 7.22-14.75 14.48-21.28 22.52-1.19 1.47.74 3.53 2.12 2.12 7.28-7.46 14.61-14.85 23.22-20.78-.61-.79-1.21-1.57-1.82-2.36-7.07 7.56-14.1 15.16-20.52 23.29-1.16 1.47.74 3.54 2.12 2.12 7.43-7.65 14.9-15.26 23.47-21.65-.61-.79-1.21-1.57-1.82-2.36-6.7 6.85-13.35 13.75-19.22 21.34-1.15 1.48.69 3.51 2.12 2.12 7.39-7.19 14.83-14.33 23.36-20.16-.61-.79-1.21-1.57-1.82-2.36-6.7 6.71-13.4 13.42-20.11 20.13-1.37 1.37.72 3.45 2.12 2.12 6.74-6.38 13.52-12.67 21.33-17.74-.61-.79-1.21-1.57-1.82-2.36-6.78 5.82-13.49 11.69-19.35 18.47-1.27 1.47.65 3.38 2.12 2.12 6.49-5.57 12.98-11.13 19.47-16.7l-2.12-2.12c-6.45 6.25-12.78 12.56-18.26 19.7-1.1 1.43 1.15 2.84 2.36 1.82 6.26-5.32 12.04-11.08 17.39-17.31 1.29-1.5-.62-3.29-2.12-2.12-6.63 5.13-8.8 13.85-15.42 18.96l2.12 2.12c4.31-3.53 11.8-9.65 10.94-15.87-.23-1.65-2.42-1.18-2.89 0-2.16 5.42-3.64 12.35-10.1 14 .39.91.77 1.83 1.16 2.74 3.66-1.7 5.93-4.43 7.08-8.28.55-1.85-2.34-2.65-2.89-.8-.95 3.17-2.73 5.11-5.7 6.49-1.58.73-.44 3.15 1.16 2.74 7.64-1.95 9.61-9.6 12.2-16.09h-2.89c.63 4.53-7.04 10.39-10.16 12.96-1.51 1.24.63 3.28 2.12 2.12 6.63-5.13 8.8-13.85 15.42-18.96l-2.12-2.12c-5.35 6.23-11.14 11.99-17.39 17.31.79.61 1.57 1.21 2.36 1.82 5.32-6.93 11.53-13.02 17.79-19.09 1.4-1.36-.67-3.36-2.12-2.12-6.49 5.57-12.98 11.13-19.47 16.7l2.12 2.12c5.86-6.78 12.57-12.64 19.35-18.47 1.29-1.11-.39-3.28-1.82-2.36-8.02 5.2-15.01 11.65-21.94 18.21l2.12 2.12c6.7-6.71 13.4-13.42 20.11-20.13 1.17-1.17-.38-3.34-1.82-2.36-8.75 5.98-16.39 13.26-23.97 20.63l2.12 2.12c5.87-7.59 12.52-14.48 19.22-21.34 1.14-1.17-.41-3.41-1.82-2.36-8.78 6.55-16.46 14.28-24.07 22.12l2.12 2.12c6.42-8.13 13.45-15.73 20.52-23.29 1.11-1.19-.36-3.36-1.82-2.36-8.83 6.07-16.37 13.6-23.83 21.25l2.12 2.12c6.53-8.04 13.88-15.3 21.28-22.52 1.19-1.16-.4-3.37-1.82-2.36-9.42 6.71-17.35 15.03-25.18 23.48.79.61 1.57 1.21 2.36 1.82 6.63-9.04 14.56-16.93 22.53-24.77 1.41-1.39-.65-3.28-2.12-2.12-9.31 7.34-17.27 16.07-25.16 24.88.79.61 1.57 1.21 2.36 1.82 7.13-9.69 15.74-18.07 24.38-26.39 1.2-1.15-.41-3.37-1.82-2.36-9.57 6.87-17.7 15.31-25.75 23.86.79.61 1.57 1.21 2.36 1.82 6.09-8.87 13.62-16.49 21.21-24.05 1.38-1.38-.68-3.37-2.12-2.12-8.13 7.05-15.86 14.51-23.2 22.38l2.12 2.12c6.45-7.69 13.41-16.71 22.11-21.94-.73-.56-1.47-1.13-2.2-1.69-1.65 4.95-6.27 9.26-9.57 13.2-3.21 3.83-6.52 7.57-9.89 11.25.79.61 1.57 1.21 2.36 1.82 6.62-9.1 14.62-16.97 22.67-24.79 1.43-1.39-.64-3.27-2.12-2.12-9.67 7.51-18.16 16.36-26.79 25.01.79.61 1.57 1.21 2.36 1.82 6.16-10.53 14.52-19.3 22.97-28 1.38-1.42-.64-3.29-2.12-2.12-9.6 7.6-17.84 16.72-26.28 25.54.84.49 1.67.97 2.51 1.46 2.05-5.66 7.61-10.75 11.58-15.18 3.91-4.36 7.95-8.6 11.99-12.85 1.37-1.44-.64-3.28-2.12-2.12-9.95 7.79-18.48 17.07-26.93 26.43.79.61 1.57 1.21 2.36 1.82 7.15-10.16 15.89-18.93 24.67-27.65 1.17-1.16-.39-3.37-1.82-2.36-10.2 7.25-17.71 17.32-26.92 25.68.79.61 1.57 1.21 2.36 1.82 6.85-10.18 15.53-18.77 24.28-27.31 1.4-1.37-.67-3.36-2.12-2.12-4.53 3.88-8.95 7.89-13.19 12.08-4.24 4.18-8.08 9.57-12.97 12.97l2.05 2.05c7.51-10.48 16.85-19.33 26.22-28.1 1.22-1.14-.43-3.38-1.82-2.36-4.67 3.45-9.06 7.21-13.28 11.2-4.46 4.22-8.55 9.45-13.63 12.93l2.05 2.05c6.87-9.57 15.49-17.56 24.14-25.48 1.24-1.13-.4-3.32-1.82-2.36-9.54 6.51-16.75 15.59-25.31 23.23.79.61 1.57 1.21 2.36 1.82 5.92-8.73 13.65-15.82 21.45-22.84 1.46-1.32-.64-3.29-2.12-2.12-6.26 4.95-12.52 9.9-18.78 14.86.79.61 1.57 1.21 2.36 1.82 1.6-2.8 5.07-8.41 8.54-9.35-.56-.23-1.13-.46-1.69-.69.04.07.08.15.12.22.08-.61.16-1.21.23-1.82-.05.05-.1.1-.14.15-1.41 1.41.7 3.53 2.05 2.14z" class="st2"/><path d="M164.6 134.11c-.59-5.48-6.46 2.22-7.35 3.25l2.12 2.12c2.55-3.08 5.11-6.15 7.66-9.23 1.22-1.47-.84-3.59-2.12-2.12-2.22 2.55-4.37 5.15-6.43 7.83-1.58 2.05-3.8 4.24-4.35 6.84-.21 1.01.44 1.82 1.45 1.9 3.57.28 7.38-5.58 9.36-7.98 1.22-1.47-.67-3.44-2.12-2.12-2.88 2.63-5.33 5.54-7.46 8.8-.57.88.04 1.88.9 2.2 1.9.71 3.21-1.35 4.35-2.55 2.6-2.72 5.09-5.52 7.52-8.39l-2.12-2.12c-2.85 3.45-5.54 7.01-8.08 10.7-.71 1.02.49 2.68 1.69 2.2 3.46-1.38 5.95-5.27 8.4-7.94-.79-.61-1.57-1.21-2.36-1.82-1.58 2.32-3.15 4.63-4.73 6.95-.96 1.41 1.19 3.04 2.36 1.82 2.01-2.13 4.03-4.25 6.04-6.38-.79-.61-1.57-1.21-2.36-1.82-1.27 2.06-2.55 4.12-3.82 6.18-.88 1.43 1.2 3.09 2.36 1.82 1.61-1.78 3.22-3.56 4.82-5.34-.79-.61-1.57-1.21-2.36-1.82-1.12 1.73-2.23 3.46-3.35 5.18-.93 1.44 1.17 3.03 2.36 1.82 1.71-1.75 3.41-3.5 5.12-5.24-.79-.61-1.57-1.21-2.36-1.82-1.55 2.16-2.98 4.37-4.3 6.68-.88 1.54 1.09 2.88 2.36 1.82 2.04-1.71 3.58-3.74 5.12-5.9-.86-.5-1.73-1.01-2.59-1.51-.96 2.26-1.91 4.53-2.87 6.79-.59 1.4 1.18 3.28 2.36 1.82 1.75-2.19 3.51-4.37 5.26-6.56-.79-.61-1.57-1.21-2.36-1.82-1.2 2.28-2.23 4.6-3.14 7.02-.51 1.36 1.59 2.63 2.51 1.46 1.12-1.43 2.24-2.86 3.35-4.29-.84-.49-1.67-.97-2.51-1.46-.56 1.69-1.12 3.37-1.67 5.06-.57 1.71 1.81 2.46 2.74 1.16.89-1.25 1.77-2.49 2.66-3.74-.86-.5-1.73-1.01-2.59-1.51-.92 2.08-1.45 4.04-1.71 6.3-.19 1.67 2.02 1.77 2.8.76.26-.34.52-.69.78-1.03h-2.59c.15.31.3.61.45.92.84 1.74 3.43.22 2.59-1.51-.15-.31-.3-.61-.45-.92-.55-1.12-1.98-.81-2.59 0-.26.34-.52.69-.78 1.03.93.25 1.86.5 2.8.76.13-1.68.56-3.28 1.3-4.79.78-1.76-1.46-3.11-2.59-1.51-.89 1.25-1.77 2.49-2.66 3.74.91.39 1.83.77 2.74 1.16.56-1.69 1.12-3.37 1.67-5.06.45-1.36-1.57-2.66-2.51-1.46-1.12 1.43-2.24 2.86-3.35 4.29.84.49 1.67.97 2.51 1.46.81-2.17 1.76-4.25 2.84-6.3.75-1.43-1.24-3.21-2.36-1.82-1.75 2.19-3.51 4.37-5.26 6.56.79.61 1.57 1.21 2.36 1.82.96-2.26 1.91-4.53 2.87-6.79.74-1.76-1.45-3.12-2.59-1.51-1.4 1.96-2.81 3.74-4.65 5.29.79.61 1.57 1.21 2.36 1.82 1.32-2.31 2.75-4.52 4.3-6.68 1.01-1.4-1.19-3.01-2.36-1.82-1.71 1.75-3.41 3.5-5.12 5.24.79.61 1.57 1.21 2.36 1.82 1.12-1.73 2.23-3.46 3.35-5.18.92-1.42-1.21-3.09-2.36-1.82-1.61 1.78-3.22 3.56-4.82 5.34.79.61 1.57 1.21 2.36 1.82 1.27-2.06 2.55-4.12 3.82-6.18.89-1.44-1.18-3.06-2.36-1.82-2.01 2.13-4.03 4.25-6.04 6.38.79.61 1.57 1.21 2.36 1.82 1.58-2.32 3.15-4.63 4.73-6.95.96-1.41-1.21-3.07-2.36-1.82-1.93 2.1-4.38 6.09-7.08 7.17.56.73 1.13 1.47 1.69 2.2 2.4-3.47 4.93-6.83 7.61-10.09 1.21-1.47-.87-3.6-2.12-2.12-.84.99-8.34 10.4-8.95 10.17.3.73.6 1.47.9 2.2 2-3.06 4.29-5.72 6.99-8.19l-2.12-2.12c-1.07 1.3-5.34 7.25-7.24 7.1.48.63.96 1.27 1.45 1.9.54-2.54 3.48-5.41 5.01-7.34 1.61-2.04 3.29-4.03 5-6l-2.12-2.12c-2.55 3.08-5.11 6.15-7.66 9.23-1.22 1.47.84 3.59 2.12 2.12.63-.73 1.26-1.46 1.9-2.18 1.24-.81 1.36-1.88.34-3.19.18 1.86 3.18 1.88 2.97-.04z" class="st2"/><path d="M144.15 126.05l-.45-.99c-.51-1.12-2-.82-2.59 0-3.64 5.05-6.84 10.33-9.61 15.91-.88 1.76 1.45 3.04 2.59 1.51 4-5.36 8.05-10.61 12.95-15.18-.79-.61-1.57-1.21-2.36-1.82-4.28 6.71-8.39 13.44-11.37 20.84-.67 1.68 1.83 2.45 2.74 1.16l11.4-16.23c-.86-.5-1.73-1.01-2.59-1.51-3.06 5.06-6.12 10.11-9.18 15.17-1.01 1.68 1.5 3.07 2.59 1.51 3.99-5.7 8.01-13.44 13.82-17.4l-2.05-2.05c-5.03 6.79-9.82 13.57-12.88 21.51-.64 1.65 1.86 2.52 2.74 1.16 4.38-6.76 8.8-13.47 14.06-19.59-.79-.61-1.57-1.21-2.36-1.82-5 6.98-9.89 13.98-13.53 21.79-.8 1.73 1.57 3.19 2.59 1.51 1.84-3.01 3.35-6.1 4.64-9.39.49-1.24-1.16-2.34-2.2-1.69-1.65 1.03-2.92 2.13-3.83 3.89-.12.23-1.11 2.36-.83 2.29-1.29.33-3.31-3.66-3.75-4.32-.08.61-.16 1.21-.23 1.82 1.47-1.77 2.93-3.54 4.4-5.31-.79-.61-1.57-1.21-2.36-1.82-1.92 2.88-6.36 14.38 1.08 12.96-.56-.23-1.13-.46-1.69-.69 1.01 1.64.86 4.59.92 6.45h3c.28-1.3.56-2.59.85-3.89-.93-.25-1.86-.5-2.8-.76-.29 3-.29 5.88.01 8.88.2 1.95 2.75 1.9 3 0 .58-4.41 1.28-8.66 2.76-12.86-.98-.13-1.96-.27-2.95-.4-.45 4.28-.89 8.56-1.34 12.84-.18 1.69 2.56 2.03 2.95.4 1.83-7.78 4.69-15.11 8.63-22.06-.86-.5-1.73-1.01-2.59-1.51-3 6-5.82 12.08-8.46 18.25.91.39 1.83.77 2.74 1.16 3.17-8.13 6.26-17.29 12.23-23.85-.79-.61-1.57-1.21-2.36-1.82-4.14 8.54-7.87 17.25-11.18 26.14-.52 1.4 1.54 2.55 2.51 1.46 2.79-3.13 3.81-7.37 5.55-11.11 2.15-4.6 4.71-8.97 7.56-13.18-.91-.39-1.83-.77-2.74-1.16-2.66 8.34-7.85 15.57-10.33 23.99-.49 1.67 1.85 2.57 2.74 1.16 4.91-7.74 8.28-16.43 14.35-23.4-.79-.61-1.57-1.21-2.36-1.82l-11.43 18.21c-1.03 1.64 1.56 3.14 2.59 1.51 2.16-3.43 4.57-6.61 7.28-9.63-.79-.61-1.57-1.21-2.36-1.82-1.08 1.71-2.15 3.42-3.23 5.14-.93 1.48 1.14 2.96 2.36 1.82 1.34-1.25 1.22-1.1 2.12-2.7.95-1.68-1.64-3.2-2.59-1.51-.55.7-1.1 1.4-1.65 2.09.79.61 1.57 1.21 2.36 1.82 1.08-1.71 2.15-3.42 3.23-5.14.9-1.43-1.21-3.1-2.36-1.82-2.88 3.21-5.44 6.59-7.74 10.24.86.5 1.73 1.01 2.59 1.51l11.43-18.21c.89-1.42-1.22-3.12-2.36-1.82-6.25 7.18-9.77 16.04-14.82 24.01.91.39 1.83.77 2.74 1.16 2.48-8.41 7.67-15.64 10.33-23.99.54-1.69-1.83-2.51-2.74-1.16-2.51 3.71-4.8 7.54-6.78 11.56-1.89 3.84-3.01 8.92-5.86 12.11.84.49 1.67.97 2.51 1.46 3.23-8.65 6.86-17.12 10.88-25.42.7-1.45-1.14-3.15-2.36-1.82-6.37 6.99-9.62 16.48-13 25.17-.61 1.57 2.07 2.72 2.74 1.16 2.65-6.17 5.47-12.24 8.46-18.25.86-1.71-1.63-3.21-2.59-1.51-4.07 7.18-7.05 14.74-8.93 22.78.98.13 1.96.27 2.95.4.45-4.28.89-8.56 1.34-12.84.19-1.77-2.42-1.9-2.95-.4-1.56 4.44-2.25 9.01-2.86 13.66h3c-.3-3-.31-5.88-.01-8.88.15-1.51-2.12-2-2.8-.76-1.02 1.88-1.37 3.28-1.26 5.4.1 1.92 3.05 1.94 3 0-.07-2.44 0-5.82-1.32-7.96-.37-.61-1.02-.82-1.69-.69-1.93.37 2.18-8.37 2.31-8.55.93-1.4-1.26-3.14-2.36-1.82-1.47 1.77-2.93 3.54-4.4 5.32-.41.5-.62 1.23-.23 1.82 1.37 2.07 3.42 6.61 6.68 6.23.79-.09 1.39-.46 1.92-1.01 1.93-2.03.74-4.02 3.91-6-.73-.56-1.47-1.13-2.2-1.69-1.2 3.04-2.64 5.89-4.34 8.67.86.5 1.73 1.01 2.59 1.51 3.64-7.81 8.53-14.81 13.53-21.79.99-1.38-1.25-3.11-2.36-1.82-5.43 6.32-10.01 13.22-14.53 20.2.91.39 1.83.77 2.74 1.16 2.95-7.66 7.73-14.24 12.58-20.79.89-1.21-.85-2.87-2.05-2.05-6.36 4.35-10.56 12.29-14.9 18.48.86.5 1.73 1.01 2.59 1.51 3.06-5.06 6.12-10.11 9.18-15.17 1.01-1.68-1.5-3.07-2.59-1.51l-11.4 16.23c.91.39 1.83.77 2.74 1.16 2.88-7.15 6.94-13.65 11.07-20.13.94-1.47-1.14-2.95-2.36-1.82-5.08 4.75-9.27 10.23-13.42 15.79.86.5 1.73 1.01 2.59 1.51 2.78-5.57 5.97-10.86 9.61-15.91h-2.59l.45.99c.81 1.74 3.39.21 2.59-1.53z" class="st2"/><path d="M137.65 157.41c-.4 2.54-.14 4.93 2.24 6.34.46.28 1.05.26 1.51 0 1.88-1.07 2.31-3.69 2.85-5.61-.96-.27-1.93-.53-2.89-.8-.51 2.15-1.8 7.95 1.91 8.04 3.25.08 3.82-4.86 4.07-7.13.18-1.67-2.63-2.05-2.95-.4-.42 2.17-.52 4.14-.22 6.35.26 1.92 2.74 1.93 3 0 .27-2.05.84-6.89-1.68-8.01-.65-.28-1.28-.26-1.82.23-2.66 2.43-1.88 6.82-.25 9.55.58.98 2 .96 2.59 0 1.52-2.5 1.86-4.83 1.23-7.67-.36-1.63-3.05-1.3-2.95.4.18 2.91.9 5.22 2.49 7.68.44.67 1.33.97 2.05.54 1.13-.68 1.36-.97 1.73-2.24-.84.22-1.67.44-2.51.66 1.74 1.46 3.03 1.99 5.26 2.28.77.1 1.54-.77 1.5-1.5-.02-.26-.03-.51-.05-.77-.12-1.95-2.82-1.91-3 0-.14 1.5.04 1.79 1.07 2.86.51.54 1.62.63 2.12 0 1.33-1.68 2.87-4.74 5.28-4.87-.25-.93-.5-1.86-.76-2.8-2.76 1.83-4.76 4.01-6.25 6.97-.66 1.31.7 2.83 2.05 2.05 1.93-1.11 3.31-2.42 4.57-4.25-.91-.39-1.83-.77-2.74-1.16-.18 1.02-.35 2.05-.53 3.07-.12.72.19 1.72 1.05 1.85-.01 0 2.5.05 2.27-.13.25.19.58 2.36.96 2.9.49.71 1.71 1.12 2.36.3.18-.23.37-.46.55-.69h-2.12c.24.27.49.55.73.82.89 1 2.55.18 2.56-1.06 0-.44.01-.88.01-1.31-.93.25-1.86.5-2.8.76.51.91 1.02 1.83 1.53 2.74.68 1.22 2.3.78 2.74-.36.12-.3.24-.61.35-.91.7-1.8-2.2-2.58-2.89-.8-.12.3-.24.61-.35.91.91-.12 1.83-.24 2.74-.36-.51-.91-1.02-1.83-1.53-2.74-.74-1.32-2.78-.7-2.8.76 0 .44-.01.88-.01 1.31.85-.35 1.71-.71 2.56-1.06-.24-.27-.49-.55-.73-.82-.5-.56-1.63-.61-2.12 0-.18.23-.37.46-.55.69.79.1 1.57.2 2.36.3-.84-1.21-.4-2.88-1.61-3.85-1.29-1.04-2.03-.09-3.41-.3.35.62.7 1.23 1.05 1.85.18-1.02.35-2.05.53-3.07.29-1.67-1.75-2.6-2.74-1.16-.84 1.41-2.01 2.47-3.49 3.17l2.05 2.05c1.28-2.54 2.8-4.32 5.18-5.89 1.16-.77.82-2.88-.76-2.8-3.95.21-5.12 2.87-7.4 5.75h2.12c-.06-.25-.13-.49-.19-.74h-3c.02.26.03.51.05.77l1.5-1.5c-1.05-.47-2.09-.94-3.14-1.41-.85-.72-2.17-.49-2.51.66-.12.15-.23.3-.35.45.68.18 1.37.36 2.05.54-1.27-1.97-1.93-3.78-2.08-6.17-.98.13-1.96.27-2.95.4.58 1.98.27 3.76-.92 5.36h2.59c-1.33-1.8-1.41-3.77-.22-5.91-.61.08-1.21.16-1.82.23.89.39.31 4.6.2 5.42h3c-.27-2.01-.28-3.49.12-5.55-.98-.13-1.96-.27-2.95-.4-.25 2.27-1.36 5.22-.09-.11.44-1.88-2.37-2.66-2.89-.8-.15.55-1.49 5.13-.82.86.3-1.85-2.59-2.66-2.89-.76zM133.86 142.13c-2.1-1.57-5.9-6.1-8.9-4.54-2.58 1.35-1.74 4.4-.85 6.49.57 1.34 2.97.68 2.8-.76-.3-2.57-1.59-4.35-2.33-6.78-1.25-4.15 1.66-9.11 3.51-12.67 3.4-6.53 7.92-12.26 13.3-17.26l-2.12-2.12c-6.73 7.47-12.65 15.54-17.72 24.22-.71 1.22.79 2.96 2.05 2.05 4.07-2.93 6.86-7.66 10.08-11.46 3.84-4.53 7.86-8.91 12-13.16l-2.12-2.12c-3.97 4.55-7.94 9.11-11.37 14.08-2.81 4.06-6.52 9.15-6.55 14.27-.01 1.57 1.99 1.94 2.8.76 4.79-7 9.57-14 14.36-21.01.98-1.43-1.17-2.99-2.36-1.82-4.1 4.05-7.88 8.38-11.27 13.04-2.44 3.36-7.36 8.72-6.94 13.11.14 1.48 1.93 2.05 2.8.76 3.58-5.36 7.17-10.72 10.75-16.08-.86-.5-1.73-1.01-2.59-1.51l-10.65 18.18c-1 1.7 1.47 3.04 2.59 1.51 5.67-7.75 11.37-15.46 17.54-22.82l-2.12-2.12c-6.01 7.68-11.94 15.41-16.47 24.08-.9 1.72 1.51 3.11 2.59 1.51 4.52-6.69 9.08-13.33 14.5-19.33-.79-.61-1.57-1.21-2.36-1.82-4.21 6.34-8.72 12.56-12 19.45-.82 1.73 1.53 3.16 2.59 1.51 3.67-5.68 7.75-11 12.28-16.02-.79-.61-1.57-1.21-2.36-1.82-4.38 6.46-8.65 12.94-11.87 20.07-.79 1.74 1.51 3.15 2.59 1.51 4.09-6.17 8.39-12.19 12.93-18.04-.79-.61-1.57-1.21-2.36-1.82-3.94 5.37-7.24 11.05-9.97 17.13-.65 1.45 1.1 3.16 2.36 1.82 1.47-1.58 2.95-3.17 4.42-4.75-.84-.49-1.67-.97-2.51-1.46-.78 2.67-2.6 5.83-1.16 8.47.93 1.69 3.52.18 2.59-1.51-.68-1.25 1.08-4.86 1.46-6.16.41-1.41-1.48-2.56-2.51-1.46-1.47 1.58-2.95 3.17-4.42 4.75.79.61 1.57 1.21 2.36 1.82 2.73-6.08 6.03-11.75 9.97-17.13 1-1.36-1.31-3.16-2.36-1.82-4.7 6.05-9.17 12.26-13.4 18.64.86.5 1.73 1.01 2.59 1.51 3.22-7.13 7.49-13.61 11.87-20.07.95-1.41-1.22-3.08-2.36-1.82-4.7 5.2-8.94 10.73-12.75 16.62.86.5 1.73 1.01 2.59 1.51 3.28-6.89 7.79-13.11 12-19.45.94-1.41-1.21-3.08-2.36-1.82-5.59 6.2-10.31 13.03-14.97 19.94.86.5 1.73 1.01 2.59 1.51 4.42-8.46 10.14-15.98 16-23.47 1.16-1.49-.86-3.62-2.12-2.12-6.34 7.55-12.19 15.47-18.01 23.42.86.5 1.73 1.01 2.59 1.51l10.65-18.18c.99-1.68-1.53-3.11-2.59-1.51-3.58 5.36-7.17 10.72-10.75 16.08.93.25 1.86.5 2.8.76-.35-3.65 4.98-9.52 7.03-12.28 3.12-4.2 6.58-8.08 10.3-11.76-.79-.61-1.57-1.21-2.36-1.82-4.79 7-9.57 14-14.36 21.01.93.25 1.86.5 2.8.76.03-4.82 4.38-10.37 7.11-14.13 3.07-4.23 6.5-8.17 9.93-12.1 1.26-1.44-.76-3.52-2.12-2.12-3.71 3.81-7.32 7.71-10.78 11.74-3.38 3.93-6.48 9.38-10.69 12.42l2.05 2.05c4.95-8.46 10.69-16.33 17.25-23.61 1.29-1.43-.7-3.44-2.12-2.12-5.96 5.54-10.94 12.01-14.51 19.34-1.34 2.75-2.91 5.84-3.36 8.89-.63 4.2 2.04 6.61 2.51 10.6.93-.25 1.86-.5 2.8-.76-1.15-2.7 1.05-1.29 2.19-.44 1.15.86 2.31 1.73 3.46 2.59 1.56 1.2 3.05-1.4 1.52-2.54z" class="st2"/><path d="M128.99 120.46c.89-.3 2.68-6.4 2.89-7.73.2-1.31-.01-2.04-.56-3.22-.39-.84-1.76-.99-2.36-.3-1.06 1.23-1.47 2.16-1.44 3.83.03 1.64 2.58 2.1 2.95.4 1.23-5.76 2.62-11.24 7.04-15.43 4.14-3.92 9.49-6.88 14.27-9.95-.5-.86-1.01-1.73-1.51-2.59-7.07 4.81-13.64 10.19-19.73 16.2.84.49 1.67.97 2.51 1.46.38-.58.75-1.15 1.13-1.73l-2.12-2.12c-3.57 3.83-5.19 8.35-4.69 13.58.18 1.91 2.85 1.94 3 0 .72-9.17 13.18-17.64 20.17-22.2-.5-.86-1.01-1.73-1.51-2.59-8.2 6.01-15.28 13.09-21.31 21.28-1.01 1.37 1.23 3.08 2.36 1.82 6.21-7 12.48-13.91 19.79-19.79l-2.12-2.12c-7 6.7-13.86 13.49-19.25 21.58-.93 1.4 1.24 3.11 2.36 1.82 6.19-7.18 12.43-14.27 19.94-20.11l-2.12-2.12c-6.67 6.79-13.25 13.63-18.97 21.26-1.01 1.35.87 2.58 2.05 2.05 3.75-1.67 6.83-6.15 9.67-9.02 3.83-3.87 7.65-7.75 11.48-11.62 1.36-1.38-.73-3.47-2.12-2.12-6.13 5.95-12.18 11.93-17.43 18.69-.98 1.27.22 3.26 1.82 2.36 8.58-4.88 13.89-14.29 22.7-19.01-.61-.79-1.21-1.57-1.82-2.36-4.3 4.65-8.59 9.29-12.89 13.94-1.33 1.44.65 3.35 2.12 2.12 5.72-4.78 11.44-9.55 17.16-14.33-.85-.35-1.71-.71-2.56-1.06.1-.21.21-.43.31-.64.61.79 1.21 1.57 1.82 2.36 1.5-1.62 2.8-3.28 4.02-5.13.59-.9-.17-2.36-1.3-2.26-2.36.23-4.53 1.01-6.88.88-2.43-.14-3.45-.08-5.89 0 .25.93.5 1.86.76 2.8 2.3-1 6.45-2.68 8.87-1.02.39-.91.77-1.83 1.16-2.74-5.55-1.26-9.85 1.32-14.16 4.62-1.22.94-.61 3.34 1.16 2.74 3.33-1.14 6.66-2.28 9.99-3.41-.39-.91-.77-1.83-1.16-2.74-2.54 1.45-7.32 3.58-6.63 7.12.13.65.82 1.09 1.45 1.1 2.82.05 5.54-1.8 7.74-3.38 1.43-1.03.53-2.98-1.16-2.74-1.85.26-2.99.86-4.43 2.01-.94.75-.3 2.19.66 2.51 1.19.39 2.39.78 3.58 1.17 1.84.6 2.63-2.3.8-2.89-1.19-.39-2.39-.78-3.58-1.17.22.84.44 1.67.66 2.51 1.04-.41 2.07-.82 3.11-1.23-.39-.91-.77-1.83-1.16-2.74-1.68 1.21-4.09 3.01-6.22 2.97.48.37.96.73 1.45 1.1-.14-.74 4.43-3.26 5.25-3.73 1.44-.82.49-3.3-1.16-2.74-3.33 1.14-6.66 2.28-9.99 3.41.39.91.77 1.83 1.16 2.74 3.5-2.68 7.18-5.38 11.85-4.32 1.69.39 2.56-1.78 1.16-2.74-3.61-2.47-8.26-.56-11.9 1.02-1.4.61-.65 2.84.76 2.8 1.73-.05 3.18.03 4.84.17 2.82.24 5.12-.78 7.93-1.04-.43-.75-.86-1.5-1.3-2.26-1.06 1.62-2.23 3.1-3.55 4.52-1.18 1.27.3 3.11 1.82 2.36.14-.07.27-.13.41-.2.48-.24.72-.79.74-1.3.01-.15.02-.3.02-.45.07-1.41-1.64-1.83-2.56-1.06-5.72 4.78-11.44 9.55-17.16 14.33l2.12 2.12c4.3-4.65 8.59-9.29 12.89-13.94 1.16-1.25-.3-3.17-1.82-2.36-8.81 4.72-14.15 14.15-22.7 19.01.61.79 1.21 1.57 1.82 2.36 5.25-6.76 11.3-12.74 17.43-18.69l-2.12-2.12c-3.38 3.42-6.75 6.84-10.13 10.25-2.99 3.03-6.49 8.18-10.41 9.92l2.05 2.05c5.56-7.42 12.01-14.05 18.5-20.65 1.39-1.42-.64-3.27-2.12-2.12-7.51 5.84-13.76 12.93-19.94 20.11.79.61 1.57 1.21 2.36 1.82 5.25-7.89 11.97-14.45 18.78-20.97 1.43-1.37-.65-3.3-2.12-2.12-7.31 5.88-13.58 12.79-19.79 19.79.79.61 1.57 1.21 2.36 1.82 5.71-7.76 12.46-14.5 20.23-20.2 1.52-1.12.13-3.66-1.51-2.59-8.23 5.37-20.81 14.07-21.66 24.79h3c-.42-4.39.77-8.2 3.81-11.46 1.31-1.41-.74-3.48-2.12-2.12-1.27 1.25-1.31 1.37-1.9 3.05-.51 1.46 1.49 2.46 2.51 1.46 5.9-5.83 12.26-11.06 19.12-15.73 1.58-1.07.13-3.64-1.51-2.59-5.45 3.49-11.67 6.87-16.12 11.64-4 4.28-5.37 9.96-6.57 15.53.98.13 1.96.27 2.95.4.19-.57.38-1.14.56-1.7-.79-.1-1.57-.2-2.36-.3.55 1.18-5 14.4 1.06 12.33 1.77-.7.99-3.6-.84-2.97z" class="st2"/><path d="M165.37 88.82c-.13-.72-.32-1.03-.87-1.5-.7-.6-1.88-.6-2.36.3-.89 1.67-1.37 3.85.61 4.92 2.64 1.42 4.23-2.05 5-3.96.49-1.21-1.17-2.39-2.2-1.69-2.17 1.45-5.13 4.77-2.06 7.15 3.2 2.48 5.98-2.47 6.94-4.8.41-1.01-.84-2.25-1.85-1.85-3.54 1.44-7.57 8.34-1.84 9.89 3.76 1.02 10.21-5.6 9.03-9.26-.15-.46-.53-.96-1.05-1.05-4.16-.71-11.15 6.96-9.9 11.03.14.45.54.98 1.05 1.05 2.86.4 4.69-1.61 6.86-3.34 3.81-3.03 7.26-6.42 10.48-10.06.68-.77.52-2.28-.66-2.51-3.66-.69-6.73 2.9-9.31 5.13-3.31 2.86-7.27 5.96-8.88 10.14-.42 1.09.82 2.15 1.85 1.85 4.68-1.38 8.63-5.87 12.31-8.9 5.43-4.46 10.91-8.81 16.88-12.53-.5-.86-1.01-1.73-1.51-2.59-5.26 3.76-10.36 7.73-15.23 11.98-3.55 3.1-9.83 7.11-10.86 11.99-.24 1.14 1.07 2.54 2.2 1.69 7.77-5.78 14.49-12.91 22.91-17.8-.61-.79-1.21-1.57-1.82-2.36-8.6 6.95-17.12 13.99-24.05 22.67-.74.93-.36 2.64 1.06 2.56 3.98-.21 7.64-4.48 10.68-6.85 5.01-3.9 9.93-7.92 14.77-12.02 1.33-1.12-.37-3.18-1.82-2.36-8.51 4.85-16.13 10.84-22.85 17.96-1.16 1.23.31 3.21 1.82 2.36 5.96-3.38 10.44-8.75 16.5-11.97-.61-.79-1.21-1.57-1.82-2.36-5.67 4.44-11.21 8.94-15.82 14.51-1.21 1.46.7 3.48 2.12 2.12 3.27-3.14 6.71-5.97 10.44-8.55l-2.05-2.05c-2.55 3.48-5.65 6.34-8.85 9.2-1.44 1.29.68 3.4 2.12 2.12 2.22-1.98 4.56-3.75 7.05-5.37l-2.05-2.05c-.77 1.51-1.66 2.8-2.82 4.04.79.61 1.57 1.21 2.36 1.82.76-1.33 1.83-2.34 3.21-3.02l-2.05-2.05c-1 1.57-2.12 2.98-3.41 4.33-1.35 1.41.67 3.36 2.12 2.12 1.89-1.61 3.82-2.93 5.98-4.14-.61-.79-1.21-1.57-1.82-2.36-1.78 2.14-3.56 4.29-5.33 6.43-.99 1.2.36 3.47 1.82 2.36 2.27-1.74 4.61-3.29 7.08-4.72-.61-.79-1.21-1.57-1.82-2.36-1.38 1.67-2.76 3.34-4.14 5-1.23 1.48.65 3.4 2.12 2.12 1.97-1.71 3.91-3.25 6.21-4.47-.61-.79-1.21-1.57-1.82-2.36-2.13 2.39-4.26 4.78-6.38 7.17-1.06 1.19.38 3.44 1.82 2.36l6.42-4.86-2.05-2.05c-.84 1.51-1.82 2.69-3.13 3.81-1.28 1.09.45 3.38 1.82 2.36 1.19-.9 2.39-1.79 3.58-2.69l-2.05-2.05c-1.03 1.72-2.17 3.26-3.53 4.74-1.31 1.43.68 3.4 2.12 2.12 1.76-1.56 3.26-2.52 5.31-3.52-.61-.79-1.21-1.57-1.82-2.36-1.84 2.22-3.67 4.44-5.51 6.66-.99 1.2.34 3.45 1.82 2.36 4.98-3.67 9.96-7.35 14.94-11.02-.61-.79-1.21-1.57-1.82-2.36-4.33 3.9-8.99 7.61-12.6 12.22-1.16 1.48.68 3.49 2.12 2.12 5.21-4.97 10.8-9.39 16.86-13.31l-2.05-2.05c-1.61 3.22-5.07 5.08-7.72 7.38-2.69 2.32-5.2 4.82-7.63 7.41-.97 1.04-.03 3 1.46 2.51 2.77-.92 4.54-2.61 6.76-4.5 3.23-2.76 6.49-5.22 10.25-7.21-.61-.79-1.21-1.57-1.82-2.36-4.87 4.63-9.73 9.25-14.6 13.88-1.21 1.15.41 3.36 1.82 2.36 4.9-3.5 9.79-7.01 14.69-10.51-.61-.79-1.21-1.57-1.82-2.36-4.53 4.23-9.06 8.45-13.59 12.68-1.22 1.14.43 3.38 1.82 2.36 4.1-3.03 8.21-6.05 12.31-9.08-.61-.79-1.21-1.57-1.82-2.36-5.04 4.37-10.21 8.57-15.53 12.61-1.5 1.14-.1 3.71 1.51 2.59 5.44-3.78 10.88-7.56 16.31-11.34-.61-.79-1.21-1.57-1.82-2.36-2.52 2.41-5.05 4.82-7.57 7.23-1.2 1.15.42 3.38 1.82 2.36l9.48-6.96c-.61-.79-1.21-1.57-1.82-2.36l-4.92 5.52c-1.31 1.47.64 3.32 2.12 2.12 1.91-1.54 3.87-2.9 5.97-4.17-.61-.79-1.21-1.57-1.82-2.36-1.14 1.44-2.29 2.76-3.58 4.08-1.37 1.4.66 3.35 2.12 2.12.9-.81 1.88-1.51 2.93-2.09-.73-.56-1.47-1.13-2.2-1.69-.16.47-.31.94-.47 1.42-.41 1.23 1.12 2.38 2.2 1.69.88-.32 1.75-.64 2.63-.97-.25-.93-.5-1.86-.76-2.8-.93.72-1.99 1.19-3.17 1.39-1.87.49-1.08 3.38.8 2.89 1.46-.38 2.61-.87 3.89-1.7 1.15-.74.82-2.95-.76-2.8-1.62.16-2.77.5-4.14 1.37.73.56 1.47 1.13 2.2 1.69.16-.47.31-.94.47-1.42.42-1.25-1.12-2.35-2.2-1.69-1.27.77-2.4 1.6-3.54 2.56l2.12 2.12c1.28-1.32 2.44-2.63 3.58-4.08.98-1.24-.24-3.32-1.82-2.36-2.31 1.4-4.47 2.95-6.57 4.64l2.12 2.12 4.92-5.52c1.06-1.19-.37-3.42-1.82-2.36l-9.48 6.96c.61.79 1.21 1.57 1.82 2.36 2.52-2.41 5.05-4.82 7.57-7.23 1.21-1.15-.4-3.34-1.82-2.36-5.44 3.78-10.88 7.56-16.31 11.34.5.86 1.01 1.73 1.51 2.59 5.52-4.19 10.9-8.54 16.14-13.08 1.27-1.1-.44-3.37-1.82-2.36-4.1 3.03-8.21 6.05-12.31 9.08.61.79 1.21 1.57 1.82 2.36 4.53-4.23 9.06-8.45 13.59-12.68 1.22-1.14-.41-3.36-1.82-2.36-4.9 3.5-9.79 7.01-14.69 10.51.61.79 1.21 1.57 1.82 2.36 4.87-4.63 9.73-9.25 14.6-13.88 1.27-1.2-.34-3.14-1.82-2.36-2.61 1.39-5.03 2.99-7.37 4.81-2.74 2.13-5.59 5.51-8.92 6.61.49.84.97 1.67 1.46 2.51 2.83-3.02 5.79-5.91 8.98-8.56 2.54-2.11 5.33-3.81 6.84-6.84.63-1.26-.71-2.92-2.05-2.05-6.26 4.05-12.07 8.63-17.46 13.78l2.12 2.12c3.6-4.6 8.27-8.31 12.6-12.22 1.24-1.12-.43-3.38-1.82-2.36-4.98 3.67-9.96 7.35-14.94 11.02.61.79 1.21 1.57 1.82 2.36 1.84-2.22 3.67-4.44 5.51-6.66 1.08-1.31-.24-3.13-1.82-2.36-2.21 1.08-4.09 2.37-5.92 3.99l2.12 2.12c1.54-1.68 2.82-3.39 3.99-5.35.72-1.21-.81-2.99-2.05-2.05-1.19.9-2.39 1.79-3.58 2.69.61.79 1.21 1.57 1.82 2.36 1.55-1.31 2.62-2.64 3.6-4.41.67-1.2-.78-3.01-2.05-2.05l-6.42 4.86c.61.79 1.21 1.57 1.82 2.36 2.13-2.39 4.26-4.78 6.38-7.17 1.13-1.27-.28-3.17-1.82-2.36-2.53 1.35-4.66 3.06-6.82 4.94l2.12 2.12c1.38-1.67 2.76-3.34 4.14-5 1.04-1.26-.25-3.25-1.82-2.36-2.48 1.42-4.82 2.98-7.08 4.72.61.79 1.21 1.57 1.82 2.36 1.78-2.14 3.56-4.29 5.33-6.43 1.05-1.26-.25-3.23-1.82-2.36-2.37 1.33-4.52 2.85-6.58 4.61l2.12 2.12c1.48-1.55 2.73-3.13 3.88-4.94.82-1.28-.79-2.8-2.05-2.05-1.82 1.08-3.11 2.34-4.29 4.1-.95 1.42 1.2 3.06 2.36 1.82 1.35-1.45 2.38-2.88 3.28-4.64.64-1.26-.72-2.92-2.05-2.05-2.72 1.76-5.24 3.68-7.66 5.84l2.12 2.12c3.4-3.04 6.62-6.13 9.32-9.81.88-1.21-.85-2.88-2.05-2.05-3.93 2.72-7.6 5.7-11.05 9.01l2.12 2.12c4.62-5.57 10.16-10.06 15.82-14.51 1.39-1.09-.38-3.12-1.82-2.36-6.07 3.22-10.54 8.58-16.5 11.97.61.79 1.21 1.57 1.82 2.36 6.55-6.94 13.95-12.77 22.24-17.49-.61-.79-1.21-1.57-1.82-2.36-3.63 3.08-7.3 6.11-11.03 9.08-2.14 1.7-4.29 3.38-6.45 5.04-1.5 1.15-3.85 3.77-5.84 3.88.35.85.71 1.71 1.06 2.56 6.93-8.68 15.45-15.72 24.05-22.67 1.35-1.09-.38-3.19-1.82-2.36-8.43 4.9-15.13 12.01-22.91 17.8.73.56 1.47 1.13 2.2 1.69.91-4.32 8.29-9.13 11.46-11.85 4.26-3.65 8.69-7.07 13.26-10.33 1.54-1.1.15-3.63-1.51-2.59-4.66 2.9-9.05 6.17-13.33 9.61-4.33 3.47-9.81 9.94-15.15 11.51l1.85 1.85c1.15-2.99 4.46-5.55 6.8-7.66 1.65-1.48 5.49-5.93 7.7-5.51-.22-.84-.44-1.67-.66-2.51-3.61 4.09-7.65 8.36-12.21 11.4-2.4 1.6-.65.23.5-.98.72-.76 1.4-1.55 2.18-2.26.72-.58 1.43-1.16 2.15-1.73-1.02-.12-1.73.28-2.12 1.19-.34.51-.74.98-1.19 1.39-.93 1.19-1.27.44-1.02-2.24l-1.85-1.85c-.16.35-.31.69-.47 1.04-.73-.56-1.47-1.13-2.2-1.69-.04.45-.08.91-.13 1.36-.79.1-1.57.2-2.36.3l.09.18c.37 1.92 3.26 1.12 2.91-.77z" class="st2"/><path d="M166.75 107.82c-.07-.34-.03-.66.14-.96.38-1.04-.81-2.22-1.85-1.85-1.2.43-2.11 1.27-2.27 2.59-.15 1.26.63 2.44 1.95 2.51 1.2.07 2.28-.97 3.12-1.7 1.12-.97 2.16-2.16 3.58-2.71-.56-.73-1.13-1.47-1.69-2.2-1.71 2.69-3.66 5.18-5.85 7.5-1.33 1.4.79 3.53 2.12 2.12 2.37-2.49 4.48-5.2 6.32-8.1.66-1.04-.46-2.69-1.69-2.2-1.19.47-2.19 1.11-3.17 1.94-.88.74-1.96 2.22-3.13 2.42.39.05.77.1 1.16.15-.11-.05-.22-.11-.34-.16l.69.9v-.15l-1.85-1.85c-.32.87-.32 1.66-.14 2.56.38 1.88 3.27 1.07 2.9-.81zM162.83 80.07c2.33.35 3.95.1 5.85-1.34 1.23-.93.59-3.38-1.16-2.74-1.86.68-2.8 1.38-3.73 3.21-.52 1.03.12 2.21 1.3 2.26 2.29.08 4.09-.4 6.04-1.63 1.18-.74.8-2.91-.76-2.8-6.36.47-1.52 8.85 2.08 3.87-.91-.39-1.83-.77-2.74-1.16-1.21 3.97 5.98 4.36 8.17 5.4.25-.93.5-1.86.76-2.8-1.59-.13-2.51.42-3.29 1.79.91.12 1.83.24 2.74.36-.06-.29-.12-.58-.17-.87-.91.12-1.83.24-2.74.36 2.59 4.02 6.09.12 8.51-2.02.93-.82.23-2.68-1.06-2.56-2.61.24-4.3.94-6.35 2.57-1.52 1.21.62 3.29 2.12 2.12 1.49-1.16 5.82-4.06 4.37-6.63-1.25-2.23-3.54-.75-4.64.56.84.49 1.67.97 2.51 1.46.28-1.85.51-3.69.67-5.56-.63.48-1.27.96-1.9 1.45 7.17 1.76 13.7-.66 20.11-3.79 1.33-.65.7-2.88-.76-2.8-4.65.27-8.92 2.27-13.55 2.75-2.65.27-4.38.93-5.43 3.51-.44 1.07.84 2.17 1.85 1.85 4.14-1.33 8.23-2.76 12.3-4.31-.39-.91-.77-1.83-1.16-2.74-4.81 2.08-9.5 4.24-13.77 7.31-1.58 1.14-.25 3.38 1.51 2.59 5.46-2.43 10.92-4.87 16.38-7.3-.5-.86-1.01-1.73-1.51-2.59-5.69 2.78-11.2 5.65-16.07 9.75-1.33 1.12.37 3.17 1.82 2.36 5.92-3.34 12-6.33 18.27-8.96-.39-.91-.77-1.83-1.16-2.74-6.54 3.43-13.3 6.57-18.94 11.42-1.34 1.15.37 3.12 1.82 2.36 7.97-4.19 15.93-8.37 23.9-12.56 1.72-.9.2-3.45-1.51-2.59-7.37 3.67-14.66 7.42-21.3 12.34-1.52 1.13-.23 3.51 1.51 2.59 8.58-4.49 17.15-8.99 25.73-13.48 1.53-.8.47-3.17-1.16-2.74-4.46 1.17-8.92 2.34-13.37 3.51.39.91.77 1.83 1.16 2.74 6.59-2.81 13.66-2.73 20.68-2.56 1.64.04 2.1-2.71.4-2.95-5.68-.78-11.11-.07-16.73.87.27.96.53 1.93.8 2.89 3.22-.95 6.43-1.66 9.76-2.11 1.88-.25 1.93-3.23 0-3-6.48.78-12.79 2.1-19.03 4.03-1.84.57-1.08 3.38.8 2.89 4.13-1.06 8.25-2.13 12.38-3.19-.39-.91-.77-1.83-1.16-2.74-7.36 5.02-16.04 8.17-21.79 15.26-1.04 1.28.24 3.2 1.82 2.36 8.66-4.62 17.21-9.58 26.61-12.55-.39-.91-.77-1.83-1.16-2.74-8.04 4.01-15.97 8.2-22.26 14.74-1.17 1.22.32 3.22 1.82 2.36 6.78-3.91 13.55-7.69 21.13-9.84-.39-.91-.77-1.83-1.16-2.74-6.48 3.53-13.3 6.73-18.73 11.82-1.1 1.04.04 2.9 1.46 2.51 4.52-1.26 8.31-4.3 12.98-5.02-.39-.91-.77-1.83-1.16-2.74-2.3 1.71-4.65 3.35-7.1 4.84-2.16 1.32-6.19 4.46-8.79 4.13-.69-.09-1.22.54-1.45 1.1-.15.38-.3.77-.45 1.15-.29.73.32 1.68 1.05 1.85 4.89 1.08 10.77 1.12 14.46-2.61 1.45-1.47 2.49-2.77 4.35-3.81 1.01-.56 2.18-.84 3.1-1.57 1.48-1.18 2.05-2.45 2.03-4.31-.02-1.21-1.24-1.77-2.26-1.3-5.44 2.55-11.88 9.28-18.04 9.41.25.93.5 1.86.76 2.8 4.69-2.26 9.5-4.13 14.47-5.66-.39-.91-.77-1.83-1.16-2.74-2.75 1.56-5.51 3.13-8.26 4.69-1.69.96-.2 3.46 1.51 2.59 4.89-2.47 8.24-9.05 14.21-8.52-.25-.93-.5-1.86-.76-2.8-1.04.77-1.34 1.05-2.04 2.13-.85 1.31.8 2.74 2.05 2.05.92-.38 1.85-.76 2.77-1.14-.56-.73-1.13-1.47-1.69-2.2-.74.97-1.48 1.95-2.22 2.92-.77 1.01.52 2.67 1.69 2.2-.19.07-2.6 2.77-3.53 3.69-.84.83-.38 2.16.66 2.51 3.7 1.24 9.67 2.2 11.25-2.77 1.27-3.99-2.6-6.21-5.78-7.24-.81-.26-1.59.31-1.85 1.05-.37.68-.75 1.35-1.12 2.03-.91 1.1-.08 2.92 1.46 2.51 1.58-.42 3.16-.85 4.74-1.27-.39-.91-.77-1.83-1.16-2.74-1.99 1.53-3.98 3.07-5.97 4.6-1.5 1.16-.27 3.46 1.51 2.59 1.92-.93 3.84-1.87 5.76-2.8-.5-.86-1.01-1.73-1.51-2.59-1.8.9-3.32 1.97-4.81 3.31-.9.81-.24 2.72 1.06 2.56 1.59-.19 3.01-.47 4.54-.99-.39-.91-.77-1.83-1.16-2.74-1 .73-2.01 1.45-3.01 2.18-1.55 1.12-.05 3.73 1.51 2.59 1-.73 2.01-1.45 3.01-2.18 1.27-.92.58-3.33-1.16-2.74-1.2.48-2.45.77-3.74.88.35.85.71 1.71 1.06 2.56 1.39-1.26 2.57-2.03 4.2-2.84 1.73-.87.21-3.43-1.51-2.59-1.92.93-3.84 1.87-5.76 2.8.5.86 1.01 1.73 1.51 2.59 1.99-1.53 3.98-3.07 5.97-4.6 1.26-.97.62-3.22-1.16-2.74-1.58.42-3.16.85-4.74 1.27.49.84.97 1.67 1.46 2.51 1.17-1.42 1.29-1.61 1.89-3.35-.62.35-1.23.7-1.85 1.05 3.21.49 2.89 2.19-.95 5.1-.99-.23-1.96-.52-2.92-.88.22.84.44 1.67.66 2.51 1.48-1.46 4.89-4.36 4.52-6.79-.31-1.96-2.28-2.56-3.9-1.92.56.73 1.13 1.47 1.69 2.2.74-.97 1.48-1.95 2.22-2.92.82-1.08-.53-2.54-1.69-2.2-1.84.53-1.81.52-3.49 1.44l2.05 2.05c.32-.35.64-.71.97-1.06 1.21-.9.78-2.66-.76-2.8-7.08-.62-10.11 6.1-15.73 8.93.5.86 1.01 1.73 1.51 2.59 2.75-1.56 5.51-3.13 8.26-4.69 1.46-.83.49-3.25-1.16-2.74-5.22 1.61-10.26 3.59-15.19 5.96-1.37.66-.67 2.82.76 2.8 7.12-.14 13.35-6.91 19.55-9.81-.75-.43-1.5-.86-2.26-1.3.03 2.35-5.65 4.35-7.09 5.79-3.96 3.96-7.42 4.85-13.05 3.61.35.62.7 1.23 1.05 1.85.15-.38.3-.77.45-1.15-.48.37-.96.73-1.45 1.1 2.55.32 5.21-1.63 7.34-2.81 3.51-1.95 6.84-4.17 10.07-6.57 1.39-1.03.56-3-1.16-2.74-4.71.72-8.45 3.75-12.98 5.02.49.84.97 1.67 1.46 2.51 5.22-4.9 11.89-7.96 18.12-11.35 1.5-.81.48-3.21-1.16-2.74-7.82 2.23-14.83 6.1-21.84 10.14.61.79 1.21 1.57 1.82 2.36 6.13-6.38 13.83-10.37 21.65-14.28 1.52-.76.46-3.25-1.16-2.74-9.65 3.04-18.44 8.1-27.33 12.85.61.79 1.21 1.57 1.82 2.36 5.57-6.87 14.04-9.92 21.18-14.79 1.37-.93.56-3.18-1.16-2.74-4.13 1.06-8.25 2.13-12.38 3.19.27.96.53 1.93.8 2.89 5.97-1.85 12.02-3.17 18.23-3.92v-3c-3.6.48-7.07 1.19-10.56 2.22-1.89.55-1.07 3.21.8 2.89 5.06-.85 10-1.58 15.13-.87.13-.98.27-1.96.4-2.95-7.67-.19-15.05-.08-22.2 2.97-1.59.68-.44 3.16 1.16 2.74 4.46-1.17 8.92-2.34 13.37-3.51-.39-.91-.77-1.83-1.16-2.74-8.58 4.49-17.15 8.99-25.73 13.48.5.86 1.01 1.73 1.51 2.59 6.63-4.92 13.92-8.67 21.3-12.34-.5-.86-1.01-1.73-1.51-2.59-7.97 4.19-15.93 8.37-23.9 12.56.61.79 1.21 1.57 1.82 2.36 5.42-4.66 12.05-7.65 18.34-10.95 1.47-.77.43-3.41-1.16-2.74-6.51 2.73-12.83 5.8-18.98 9.26.61.79 1.21 1.57 1.82 2.36 4.66-3.92 10.02-6.62 15.46-9.28 1.75-.86.22-3.36-1.51-2.59-5.46 2.43-10.92 4.87-16.38 7.3.5.86 1.01 1.73 1.51 2.59 4.27-3.07 8.96-5.23 13.77-7.31 1.54-.67.44-3.35-1.16-2.74-4.06 1.54-8.16 2.97-12.3 4.31l1.85 1.85c.73-1.79 5.8-1.47 7.64-1.94 2.88-.73 5.43-1.94 8.46-2.12-.25-.93-.5-1.86-.76-2.8-5.64 2.76-11.48 5.04-17.8 3.49-1.01-.25-1.81.47-1.9 1.45-.11 1.6-.3 3.18-.56 4.76-.2 1.3 1.43 2.74 2.51 1.46-.86-.62-1.54-.55-2.03.23-.6.59-1.25 1.12-1.95 1.6l2.12 2.12c1.41-.56 2.82-1.13 4.23-1.69-.35-.85-.71-1.71-1.06-2.56-.09.08-3.35 3.33-3.79 2.63-.63-.98-2.52-1-2.74.36-.18 1.09-.23 1.43.17 2.46.45 1.14 2.05 1.56 2.74.36.23-.1.47-.2.7-.3 1.46.12 2.08-2.17.76-2.8-.89-.42-6.48-3.02-6.79-2.01.53-1.73-1.8-2.46-2.74-1.16.17.21.34.43.51.64-.25-.93-.5-1.86-.76-2.8-1.34 1.05-2.85 1.45-4.53 1.22.43.75.86 1.5 1.3 2.26.65-.61 1.29-1.22 1.94-1.83-.39-.91-.77-1.83-1.16-2.74-1.18.35-2.36.69-3.54 1.04-1.83-.32-2.65 2.57-.74 2.86zM205.41 99.95c.21-.78.05-1.33-.52-1.9-.38-.38-.94-.52-1.46-.39-2.1.56-3.99 2.32-5.65 3.68-1.32 1.08.4 3.27 1.82 2.36 2.18-1.4 4.4-2.59 6.77-3.62-.61-.79-1.21-1.57-1.82-2.36-2.24 2.13-4.49 4.25-6.73 6.38-1.24 1.18.35 3.22 1.82 2.36 3-1.78 6.01-3.55 9.01-5.33-.5-.86-1.01-1.73-1.51-2.59-2.99 2.24-5.76 4.51-7.91 7.59-.87 1.25.82 2.81 2.05 2.05 2.47-1.52 4.93-3.04 7.4-4.56 1.22-.75.78-2.85-.76-2.8-.37.01-.74.03-1.11.04-1.92.07-1.94 2.96 0 3-.06-.03-.13-.05-.19-.08.22-.84.44-1.67.66-2.51-2.2.89-3.69 2.1-4.87 4.18-.71 1.26.75 2.89 2.05 2.05 2.4-1.54 4.79-3.08 7.19-4.61-.61-.79-1.21-1.57-1.82-2.36-2.78 2.2-5.64 4.18-7.44 7.3-.76 1.33.75 2.76 2.05 2.05 3.65-1.97 7.3-3.93 10.95-5.9-.5-.86-1.01-1.73-1.51-2.59-3.8 2.64-7.46 5.32-10.45 8.88-1.05 1.25.26 3.25 1.82 2.36 3.69-2.12 7.26-4.4 10.75-6.84-.61-.79-1.21-1.57-1.82-2.36-2.67 2.79-5.56 5.11-8.86 7.11-1.4.85-.49 3.36 1.16 2.74 1.84-.69 3.69-1.38 5.53-2.07-.39-.91-.77-1.83-1.16-2.74-2.12.99-4.18 2.06-6.22 3.22.5.86 1.01 1.73 1.51 2.59 2.01-1.16 6.28-3.97 8.06-2.7.18.13.75 1.61 1.08 1.96.57.59 1.26.97 2.03 1.25 4.04 1.52 3.67-1.91 3.16-4.78-.84.49-1.67.97-2.51 1.46.54 1.28 1.08 2.55 1.63 3.83.21 1.88 3.16 1.95 3 0-.36-4.46-1.31-8.6-5.33-11.2-2.99-1.94-4.89.94-6.58 3.54-.67 1.03.46 2.7 1.69 2.2 2.17-.87 4.33-1.55 6.61-2.06-.49-.84-.97-1.67-1.46-2.51-.96.91-1.93 1.82-2.89 2.74-1.24 1.18.35 3.22 1.82 2.36.87-.6 1.82-.99 2.85-1.17-.56-.73-1.13-1.47-1.69-2.2-.61 1.08-1.32 2.1-2.13 3.04-.74.91-.45 2.09.66 2.51l1.11.9c1.2 1.51 3.31-.62 2.12-2.12-.89-1.12-1.09-1.17-2.43-1.67.22.84.44 1.67.66 2.51.96-1.18 1.81-2.35 2.6-3.65.7-1.14-.45-2.52-1.69-2.2-1.32.34-2.4.79-3.56 1.47.61.79 1.21 1.57 1.82 2.36.96-.91 1.93-1.82 2.89-2.74 1.14-1.08-.06-2.82-1.46-2.51-2.28.51-4.45 1.19-6.61 2.06.56.73 1.13 1.47 1.69 2.2 1.58-2.45 1.95-3.35 3.94-1.1 1.92 2.17 2.15 4.51 2.37 7.25h3c-.27-2.45-.94-4.04-2.5-5.95-1.05-1.28-2.74.15-2.51 1.46.5 2.86-.08-.67-.79-1.49-.81-.95-1.11-1.17-2.4-1.32-3.03-.35-7.27 2.24-9.77 3.69-1.67.97-.17 3.55 1.51 2.59 2.03-1.16 4.1-2.23 6.22-3.22 1.52-.71.44-3.34-1.16-2.74-1.84.69-3.69 1.38-5.53 2.07.39.91.77 1.83 1.16 2.74 3.51-2.13 6.63-4.62 9.47-7.58 1.13-1.18-.37-3.37-1.82-2.36-3.48 2.45-7.05 4.72-10.75 6.84.61.79 1.21 1.57 1.82 2.36 2.83-3.36 6.26-5.91 9.85-8.41 1.57-1.09.21-3.52-1.51-2.59-3.65 1.97-7.3 3.93-10.95 5.9l2.05 2.05c1.65-2.87 4.42-4.68 6.97-6.69 1.34-1.06-.4-3.27-1.82-2.36-2.4 1.54-4.79 3.08-7.19 4.61l2.05 2.05c.61-1.36 1.63-2.3 3.07-2.8.99-.4 1.55-1.65.66-2.51-.64-.61-1.05-.78-1.93-.8v3c.37-.01.74-.03 1.11-.04-.25-.93-.5-1.86-.76-2.8-2.47 1.52-4.93 3.04-7.4 4.56l2.05 2.05c1.86-2.67 4.26-4.59 6.84-6.52 1.5-1.13.19-3.6-1.51-2.59-3 1.78-6.01 3.55-9.01 5.33.61.79 1.21 1.57 1.82 2.36 2.24-2.13 4.49-4.25 6.73-6.38 1.33-1.26-.36-2.99-1.82-2.36-2.37 1.03-4.59 2.22-6.77 3.62.61.79 1.21 1.57 1.82 2.36.76-.66 1.56-1.27 2.41-1.82 1-.43 1.07-1.26.21-2.49-.49 1.89 2.4 2.68 2.9.82z" class="st2"/><path d="M214.37 69.84c-3.46-1.01-7.3 2.89-9.84 4.85-1.35 1.04.4 3.27 1.82 2.36 3.35-2.16 6.54-4.06 10.49-4.93-.39-.91-.77-1.83-1.16-2.74-4.1 2.66-10.58 5.24-13.03 9.69-.55 1.01.14 2.23 1.3 2.26 2.63.05 4.73-1.1 7.11-2.16 3.65-1.63 7.29-3.26 10.94-4.9-.5-.86-1.01-1.73-1.51-2.59-5.37 2.72-10.58 5.53-15.3 9.3-1.44 1.15.4 2.98 1.82 2.36 3.02-1.33 5.83-2.89 8.54-4.77 1.61-1.12.24-3.36-1.51-2.59-2.09.91-4.18 1.83-6.28 2.74-1.54.67-.42 3.39 1.16 2.74 2.94-1.2 9.39-2.8 10.42-6.16.16-.52-.03-1.07-.39-1.46-1.19-1.28-3.06-1.05-4.69-1.2.13.98.27 1.96.4 2.95 5.2-1.17 10.43-2.19 15.7-3.07 1.65-.28 1.29-3.11-.4-2.95-6.13.61-12.15 1.65-18.12 3.16.27.96.53 1.93.8 2.89l14.46-4.17c1.36-.39 1.5-2.58 0-2.89-3.69-.78-7.42.78-11-.48v2.89c2.81-.56 5.18-.32 7.8.83.39-.91.77-1.83 1.16-2.74-6.14-2.58-13.73 2.24-18.06 6.33-1.16 1.09.07 2.79 1.46 2.51 3.7-.75 6.95-3.18 10.82-2.94-.25-.93-.5-1.86-.76-2.8-1.52 1.1-2.97 1.99-4.63 2.85-1.57.81-.45 3.1 1.16 2.74 6.19-1.37 12.42-2.16 18.76-2.39 1.93-.07 1.93-2.9 0-3-7.03-.35-13.67 1.32-20.39 3.21-1.86.52-1.07 3.4.8 2.89 4.79-1.3 9.18-1.29 13.97.02.13-.98.27-1.96.4-2.95-4.58-.11-9.09.08-13.64.58.13.98.27 1.96.4 2.95 4.39-1.39 8.84-1.62 13.28-.28 2.04.61 4 1.49 5.76 2.7 3.68 2.52 3.05 5.28 1.27 8.86.91.39 1.83.77 2.74 1.16.57-2.39 1.62-5.02 1.57-7.49-.01-.51-.27-1.06-.74-1.3-5.6-2.84-3.62 9.94-3.13 12.11.23.99 1.38 1.31 2.2.9 3.96-2.02 7.37-4.58 10.41-7.82 1.11-1.18-.4-3.42-1.82-2.36-2.86 2.14-5.43 4.28-7.23 7.41-.6 1.05.42 2.69 1.69 2.2 4.12-1.56 7.75-3.67 11.14-6.48 1.5-1.24-.63-3.29-2.12-2.12-3.47 2.72-6.87 5.21-11.08 6.69l1.85 1.85c.64-2.67 8.47-6.65 10.67-8.2 1.36-.95.57-3.15-1.16-2.74-5.1 1.22-9.7 3.22-14.07 6.13-1.62 1.08-.22 3.42 1.51 2.59 4.34-2.07 8.67-4.15 13.01-6.22 1.51-.72.43-3.39-1.16-2.74-4.42 1.8-8.54 3.98-12.47 6.68-1.57 1.08-.2 3.54 1.51 2.59 3.75-2.07 7.44-4.23 11.08-6.48 1.19-.73.8-2.92-.76-2.8-3.84.3-7.24 1.39-10.82 2.76-1.77.68-1.04 3.55.8 2.89 3.58-1.27 7.17-2.55 10.75-3.82 1.23-.44 1.61-2.67 0-2.89-3.71-.52-7.24-.61-10.97-.17.13.98.27 1.96.4 2.95 3.75-.6 9.87-.14 12.5-3.19.76-.88.34-2.69-1.06-2.56-4.23.39-8.4 1-12.57 1.83.39.91.77 1.83 1.16 2.74 2.67-1.33 5.35-2.66 8.02-3.99 1.39-.69.65-2.77-.76-2.8-1.02-.02-12.1.01-12.14-.25-.05-.38 2.99-1.65 2.54-3.59-1.05-4.51-9.15-1.31-11.41-.08-1.43.78-.6 2.64.76 2.8 5.87.68 11.65.66 17.51-.07 1.86-.23 1.98-3.05 0-3-4.98.13-9.78.87-14.57 2.25-1.68.49-1.26 2.82.4 2.95 5.64.42 11.04-1.79 16.67-1.06-.13-.98-.27-1.96-.4-2.95-3.9 1.51-7.84 2.83-11.87 3.98.27.96.53 1.93.8 2.89 4.52-1.32 9.01-2.58 13.69-3.17-.25-.93-.5-1.86-.76-2.8-3.8 1.66-7.6 3.31-11.4 4.97-1.59.69-.44 3.15 1.16 2.74 3.04-.79 6.07-1.57 9.11-2.36-.49-.84-.97-1.67-1.46-2.51-.44.45-3.23 3.84-4.23 2.76-1.16-1.24-3.25.36-2.36 1.82 1.09 1.27 1.4 2.77.93 4.5h2.12c-.16-.85-.32-1.71-.47-2.56.2-1.66-2.68-2.07-2.95-.4-.31 1.92-.78 3.69-1.45 5.52-.56 1.51 1.48 2.37 2.51 1.46.69-.62 1.39-1.24 2.08-1.86 1.44-1.29-.68-3.4-2.12-2.12-.69.62-1.39 1.24-2.08 1.86.84.49 1.67.97 2.51 1.46.67-1.82 1.14-3.6 1.45-5.52-.98-.13-1.96-.27-2.95-.4-.22 1.89-.15 3.39 1.35 4.68.67.58 1.44.54 2.12 0 2.73-2.16 1.01-5.74-.46-8.14-.79.61-1.57 1.21-2.36 1.82 3.11 3.33 6.11-.38 8.48-2.76 1.07-1.07-.02-2.88-1.46-2.51-3.04.79-6.07 1.57-9.11 2.36.39.91.77 1.83 1.16 2.74 3.8-1.66 7.6-3.31 11.4-4.97 1.33-.58.69-2.98-.76-2.8-4.95.63-9.7 1.88-14.49 3.28-1.85.54-1.07 3.42.8 2.89 4.03-1.14 7.97-2.46 11.87-3.98 1.63-.63 1.29-2.73-.4-2.95-5.65-.73-11.03 1.47-16.67 1.06.13.98.27 1.96.4 2.95 4.55-1.32 9.03-2.02 13.78-2.15v-3c-5.86.73-11.65.75-17.51.07.25.93.5 1.86.76 2.8.37-.2 5.97-2.84 6.25-1.42.05.24-1.12.76-1.3 1.19-.48 1.16-1.12 2.04-.17 3.29.83 1.08 2.24.99 3.44 1.05 3.74.19 7.52.16 11.27.23-.25-.93-.5-1.86-.76-2.8-2.67 1.33-5.35 2.66-8.02 3.99-1.6.79-.43 3.06 1.16 2.74 3.9-.78 7.81-1.36 11.77-1.72-.35-.85-.71-1.71-1.06-2.56-1.84 2.13-8.58 2.01-11.17 2.42-1.65.26-1.28 3.15.4 2.95 3.45-.41 6.72-.43 10.17.06v-2.89c-3.58 1.27-7.17 2.55-10.75 3.82.27.96.53 1.93.8 2.89 3.32-1.27 6.45-2.38 10.03-2.65-.25-.93-.5-1.86-.76-2.8-3.64 2.25-7.33 4.41-11.08 6.48.5.86 1.01 1.73 1.51 2.59 3.72-2.56 7.57-4.68 11.76-6.38-.39-.91-.77-1.83-1.16-2.74-4.34 2.07-8.67 4.15-13.01 6.22.5.86 1.01 1.73 1.51 2.59 4.14-2.76 8.51-4.67 13.35-5.83-.39-.91-.77-1.83-1.16-2.74-2.9 2.04-5.82 4.06-8.71 6.11-1.67 1.18-2.86 1.86-3.34 3.88-.25 1.04.72 2.24 1.85 1.85 4.68-1.64 8.53-4.42 12.4-7.46l-2.12-2.12c-3 2.48-6.18 4.33-9.82 5.71.56.73 1.13 1.47 1.69 2.2 1.59-2.77 3.63-4.45 6.15-6.34-.61-.79-1.21-1.57-1.82-2.36-2.88 3.06-6.06 5.44-9.81 7.35.73.3 1.47.6 2.2.9-.38-1.4-.6-2.84-.67-4.29-.05-1.06-.03-2.11.07-3.17-2.14-2.96-2.65 3.16-2.89 4.13-.38 1.59 1.95 2.74 2.74 1.16 3-6.03 2.37-10.31-3.62-13.76-6.14-3.53-13.4-4.03-20.08-1.92-1.53.48-1.36 3.14.4 2.95 4.55-.5 9.06-.69 13.64-.58 1.7.04 2.02-2.5.4-2.95-5.24-1.44-10.32-1.45-15.56-.02.27.96.53 1.93.8 2.89 6.45-1.81 12.83-3.44 19.59-3.1v-3c-6.61.24-13.09 1.07-19.55 2.5.39.91.77 1.83 1.16 2.74 1.66-.86 3.12-1.75 4.63-2.85 1.2-.87.79-2.7-.76-2.8-4.21-.27-7.6 2.24-11.62 3.05.49.84.97 1.67 1.46 2.51 3.54-3.34 10.06-7.69 15.14-5.56 1.55.65 2.71-2.06 1.16-2.74-3.37-1.48-6.5-1.85-10.11-1.14-1.56.31-1.28 2.44 0 2.89 3.68 1.29 7.27-.31 11 .48v-2.89l-14.46 4.17c-1.85.53-1.08 3.37.8 2.89 5.71-1.45 11.46-2.47 17.32-3.05-.13-.98-.27-1.96-.4-2.95-5.26.88-10.49 1.9-15.7 3.07-1.75.39-1.19 2.8.4 2.95 1.64.15 1.55-.22-.61.41-1.84.53-3.79 1.81-5.54 2.53.39.91.77 1.83 1.16 2.74 2.09-.91 4.18-1.83 6.28-2.74-.5-.86-1.01-1.73-1.51-2.59-2.72 1.88-5.52 3.44-8.54 4.77.61.79 1.21 1.57 1.82 2.36 4.5-3.6 9.57-6.24 14.69-8.83 1.75-.88.22-3.36-1.51-2.59-2.52 1.13-5.05 2.26-7.57 3.39-2.73 1.22-5.93 3.32-8.96 3.26.43.75.86 1.5 1.3 2.26 1.95-3.55 8.62-6.45 11.95-8.61 1.43-.93.52-3.11-1.16-2.74-4.17.92-7.65 2.94-11.21 5.23.61.79 1.21 1.57 1.82 2.36 1.06-.82 5.26-4.56 6.92-4.08 1.85.53 2.64-2.36.79-2.9z" class="st2"/><path d="M246.44 87.23c2.39-3.07 10.18-2.17 13.71-2.36 1.69-.09 2.04-2.42.4-2.95-3.21-1.03-5.81-1.02-9.01.05-1.29.43-1.56 2.6 0 2.89 3.47.66 6.96-.53 10.36.44v-2.89c-4.84.7-9.52 1.51-14.06 3.4-1.39.58-1.45 3.16.4 2.95 4.24-.49 8.42-1.2 12.57-2.16-.27-.96-.53-1.93-.8-2.89l-8.22 2.16c-1.58.42-1.32 3.15.4 2.95 4.82-.58 9.66-1.06 14.46-1.73 1.98-.28 3.43-.44 4.57-2.21.49-.77.04-2.03-.9-2.2-3.57-.67-6.28-2.61-9.56-3.96-4.52-1.86-9.18-3.12-13.61-5.27-2.9-1.41-5.67-3.2-8.83-3.99-3.71-.93-7.69-.71-11.49-.66-1.96.03-1.9 2.83 0 3 8.08.73 15.65 1.14 23.06 4.76 6.31 3.08 12.51 5.95 19.08 8.46 1.28.49 2.3-1.15 1.69-2.2-1.42-2.49-3.36-3.01-6.06-3.64-4.01-.93-6.68-2.96-10.34-4.56-3.73-1.62-8.04-1.91-12.01-2.56-2.46-.4-5.37-1.5-7.83-.77-1.26.37-1.44 2.05-.36 2.74 1.87 1.19 3.77 1.59 5.88 2.21 3.22.94 6.14 2.46 9.15 3.92 3.53 1.71 7.73 3.95 11.72 2.95 1.32-.33 1.39-2.05.36-2.74-4.53-3.03-11.24-2.54-16.4-2.09-1.6.14-2.14 2.5-.4 2.95l19.92 5.13c1.88.48 2.63-2.31.8-2.89-4.13-1.32-7.99-.61-12.11.42-1.87.47-1.08 3.36.8 2.89 3.56-.89 6.94-1.56 10.51-.42.27-.96.53-1.93.8-2.89l-19.92-5.13c-.13.98-.27 1.96-.4 2.95 4.65-.4 10.83-1.04 14.88 1.68.12-.91.24-1.83.36-2.74-4.41 1.1-9.9-3-13.72-4.75-3.44-1.58-7.55-2-10.72-4.02-.12.91-.24 1.83-.36 2.74 2.38-.7 6.53.82 9.03 1.23 3.05.5 6.14.82 8.97 2.1 2.02.92 3.75 2.33 5.77 3.24 2.63 1.18 7.49.79 9.09 3.58.56-.73 1.13-1.47 1.69-2.2-7.55-2.88-14.54-6.75-21.97-9.84-6.61-2.75-13.93-2.85-20.97-3.49v3c4.68-.07 9.46-.33 13.81 1.68 3.14 1.46 6.13 3.17 9.33 4.52 3.59 1.51 7.56 2.4 11.06 4.1 2.96 1.44 5.16 2.85 8.49 3.47-.3-.73-.6-1.47-.9-2.2-.87 1.36-7.15 1.34-8.73 1.53-2.57.31-5.14.62-7.71.92.13.98.27 1.96.4 2.95l8.22-2.16c1.87-.49 1.08-3.33-.8-2.89-3.9.9-7.8 1.59-11.78 2.06.13.98.27 1.96.4 2.95 4.53-1.89 9.22-2.7 14.06-3.4 1.54-.22 1.31-2.52 0-2.89-3.49-1-6.84.22-10.36-.44v2.89c2.43-.81 4.98-.83 7.41-.05.13-.98.27-1.96.4-2.95-4.71.25-12.53-1-15.83 3.24-1.14 1.46.97 3.6 2.15 2.08z" class="st2"/><path d="M317.41 146.26c4.51 12.35 6.17 25.25 5.24 38.29-.46 6.5-1 13.01-2.1 19.43-.57 3.33-1.26 6.63-2.15 9.89-.76 2.81-1.48 7.71-4.15 9.34-3.29 2.01-.28 7.21 3.03 5.18 5.11-3.13 6.29-10.19 7.59-15.6 1.79-7.44 2.7-15.09 3.35-22.71.62-7.34 1.46-14.72.37-22.04-1.17-7.9-2.66-15.87-5.4-23.39-1.3-3.58-7.11-2.02-5.78 1.61z" class="st1"/><path d="M321.33 147.11c3.11 10.64 4.96 21.57 5.28 32.66.14 4.96.05 9.97-.44 14.91-.59 6.08-3.15 11.16-4.48 17.01-.43 1.88 2.46 2.68 2.89.8 1.18-5.16 3.6-9.82 4.29-15.12.76-5.81.9-11.75.73-17.6-.33-11.35-2.21-22.57-5.39-33.46-.53-1.85-3.42-1.06-2.88.8z" class="st1"/><path d="M288.22 144.59c-3.96 1.4-8.8 4.29-9.79 8.74-.96 4.27 2.91 7.02 6.83 6.29 4.73-.88 9.02-5.67 10.66-10.02 1.25-3.31.27-7.39-3.95-7.28-7.95.19-17.25 15.21-14.43 22.42 4.36 11.15 18.37-2.78 21.68-7.44 2.07-2.9 5.66-7.95 3.45-11.65-2.42-4.05-7.6-1.7-10.36.59-4.61 3.82-17.9 18.95-9.15 24.67 8.14 5.32 18.36-13.32 20.59-18.73 1.24-3.01 1.77-7.22-2.47-7.92-4.68-.77-8.97 6.03-11.24 9.2-3.34 4.66-6.85 10.9-7.31 16.72-.33 4.11 2.06 8.61 6.86 6.81 5.57-2.09 9.59-10.86 12.4-15.6 2.31-3.9 7.31-10.62 4.91-15.36-.48-.96-1.57-1.44-2.59-1.49-6.09-.27-11.36 9.18-13.79 13.88-2.36 4.57-6.63 12.9-1.98 17.46 5.27 5.17 12.31-2.09 15.48-6.01 3.76-4.64 10.84-12.72 8.28-19.12-.56-1.39-1.44-2.02-2.89-2.2-6.91-.89-12.66 11.57-14.55 16.8-1.62 4.5-3.15 17.8 5.89 14.38 3.45-1.31 6-5.31 7.96-8.25 2.64-3.97 4.65-8.53 5.72-13.18.62-2.72 1.13-6.21-1.71-7.91-2.77-1.67-5.22.07-7.03 2.22-4.59 5.44-9.71 16.65-6.1 23.67 3.97 7.72 11.15 1.57 14.45-3.04 3.5-4.9 9.93-16.64 4.47-22.09-6.49-6.47-11.33 10.97-12.06 14.64-.72 3.64-1.36 8.91 1.11 12.1 2.03 2.62 5.44 2.41 7.65.17 2.9-2.93 3.73-8.49 4.16-12.39.62-5.55-.12-11.05-1.7-16.38-1.1-3.73-6.54-2.17-5.79 1.6 1.46 7.21 2.91 14.43 4.37 21.64.67 3.33 5.98 2.56 5.89-.8-.11-4.34-.21-8.69-.72-13.01-.17-1.48-.38-3-.65-4.47-.22-1.24-2.35-7.18-1.65-8.07-.97.26-1.95.51-2.92.77-.84-.22.96 4.68 1.13 5.26.47 1.67.88 3.37 1.24 5.07.89 4.3 1.34 8.68 1.49 13.07.29 8.56-.59 17.08-2.06 25.5 1.96.27 3.93.53 5.89.8.04-6.41 1.25-12.85.47-19.24-.38-3.08-1.34-9.92-5.71-10.01-4.15-.08-5.71 6.48-6.41 9.43-1.23 5.13-1.78 11.52 1.41 16.03 1.66 2.34 5.55 1.63 5.59-1.51.05-3.9-.3-7.66-.99-11.49-.53-2.96-5.12-2.75-5.79 0-1.61 6.61-.98 13 2.01 19.12.92 1.88 2.35 3.81 2.69 5.91.38 2.31-.65 4.71-1.28 6.86-1.02 3.5-1.64 6.98-1.96 10.61-.26 3 4.23 4.03 5.59 1.51 6.24-11.6 5.74-26.63 4.67-39.38-1.96.27-3.93.53-5.89.8.62 3.11.32 5.66-.73 8.64 1.96.27 3.93.53 5.89.8.31-8.44-1.58-16.44-5.51-23.9l-4.1 4.1c.37.71.75 1.42 1.12 2.13 1.67-.97 3.34-1.95 5.01-2.92-1.26-1.07-2.52-2.15-3.78-3.22-2.92-2.49-7.19 1.73-4.24 4.24 1.26 1.07 2.52 2.15 3.78 3.22 2.38 2.03 5.48.05 5.01-2.92-.41-2.63-1.7-4.26-3.88-5.72-2.63-1.77-5.41 1.62-4.1 4.1 3.45 6.55 4.96 13.48 4.69 20.87-.13 3.54 4.82 3.86 5.89.8 1.39-3.96 1.54-7.72.73-11.83-.65-3.28-6.18-2.59-5.89.8.97 11.58 1.83 25.8-3.85 36.35 1.86.5 3.73 1.01 5.59 1.51.58-6.54 4.62-13.29 2.79-19.83-.84-3.01-2.77-5.59-3.87-8.49-1.57-4.16-1.64-8.3-.59-12.6h-5.79c.59 3.3.81 6.55.77 9.89 1.86-.5 3.73-1.01 5.59-1.51-1.94-2.74-1.7-6.6-1.15-9.79.29-1.67 1.07-6.46 2.48-7.06h-3.03c2.19 1.21 1.52 9.34 1.42 11.59-.18 4.03-.64 8.03-.66 12.07-.02 3.28 5.3 4.21 5.89.8 1.86-10.66 2.95-21.52 1.95-32.33-.45-4.89-1.27-9.76-2.61-14.49-.88-3.08-1.67-8.52-5.32-9.45-.94-.24-2.27-.05-2.92.77-2.64 3.37-1.34 7.38-.46 11.18 1.41 6.11 1.57 12.36 1.72 18.6 1.96-.27 3.93-.53 5.89-.8-1.46-7.21-2.91-14.43-4.37-21.64-1.93.53-3.86 1.06-5.79 1.6 2.03 6.88 1.74 12.7.41 19.63-.12.63-.75 4.13-.37 1.27.23-1.7.1-3.47.47-5.2.44-2.03 2.25-10.29 4.35-10.86-.97-.26-1.95-.51-2.92-.77 3.05 3.03-4.4 17.69-8.05 17.81-3.1.1.06-8.31 1-10.39.63-1.4 1.7-2.75 2.27-4.16 1.23-.97 1.31-1.44.24-1.41-.9-.36-1.25.13-1.04 1.46-1.47 2.85-2.15 6.03-3.85 8.84-.84 1.38-1.76 2.73-2.78 3.98-.88 1.07-1.53 2.83-2.4 1.66-1.29-1.73 2.81-9.05 3.72-10.63.8-1.41 4.29-7.84 6.49-7.56-.96-.73-1.93-1.47-2.89-2.2 1.26 3.16-3.28 8.56-4.99 10.95-1.03 1.44-8.31 11.34-8.75 5.69-.21-2.78 2.77-7.4 4.12-9.69 1.02-1.73 5.03-8.86 7.41-8.76-.86-.5-1.73-.99-2.59-1.49.26.51-2.61 5.31-3.12 6.23-1.15 2.06-2.37 4.1-3.61 6.11-.93 1.51-1.88 3.01-2.89 4.45-.86 1.24-1.77 2.44-2.75 3.59-1.29.61-1.52 1.33-.7 2.17-.26-3.67 2.27-8.12 4.04-11.2 1.21-2.12 5.67-10.28 8.59-10.16-.86-.5-1.73-.99-2.59-1.49.76 1.12-4.62 8.62-5.32 9.56-.6.81-6.27 7.63-6.72 7.28-2.1-1.61 5.47-10.71 6.47-11.8.23-.26 3.91-3.65 3.9-3.69-.01-.05-2.23 3.02-2.56 3.49-2.16 3.11-5.16 6.28-8.5 8.16-5.08 2.86-.94-6.08.17-7.72 1.09-1.6 2.4-3.07 3.91-4.29.59-.42 1.17-.84 1.76-1.25-1.3-1.07-2.1-.84-2.41.7-1.49 1.44-2.43 2.85-4.16 4.07-1.16 1.37-.91 1.1.77-.8 1.11-.98 2.37-1.68 3.78-2.11 3.66-1.22 2.1-7.02-1.55-5.73z" class="st1"/><path d="M316.1 177.45c-3.39 1.24-8.22 2.95-6.35 7.55 1.14 2.81 6.33 2.88 5.89-.8-.24-2.02-.66-3.58-1.59-5.39-1.01-1.96-4.17-1.95-5.18 0-1.42 2.73-1.41 5-.07 7.76.98 2.03 4.16 1.88 5.18 0 5.22-9.58-12.12-13.98-13.48-4.68-.5 3.45 2.49 5.57 5.59 4.27 3.68-1.54 6.61-5.44 4.94-9.3-.4-.92-1.64-1.5-2.59-1.49-3.35.06-8.58 4.89-7.77 8.54 1.06 4.77 6.85 2.88 9.23.46 2.38-2.41-.66-6.46-3.64-4.71-1.03.61-2.07 1.22-3.1 1.83-1.74.93-2.09 1.17-1.04.7.86.5 1.73.99 2.59 1.49-2.8-3.74-11.19-8.09-14.99-3.06-4.76 6.32 6.55 6.56 9.78 5.41 3.61-1.29 2.21-6.67-1.6-5.79-1.75.41-3.42.9-5.08 1.59-1.55.64-3.55 2.35-5.12 2.65-4.99.96-7.61-7.79-8.79-11.16-3.26-9.34 1.52-19.33 9.62-24.49-1.21-1.57-2.42-3.14-3.64-4.71-3.19 4.12-6.41 8.26-8.45 13.08-1.24 2.92-3.49 8.05-.5 10.59 1.05.89 2.39 1.15 3.64.47 1.58-.87 2.78-2.28 4.08-3.52-1.67-.97-3.34-1.95-5.01-2.92-1.31 3.17-4.71 8.85-3.32 12.34.55 1.37 1.44 2.04 2.89 2.2 3.32.37 6.2-3.6 8.41-5.59-1.67-.97-3.34-1.95-5.01-2.92-1.38 3.83-4.69 9.39-2.57 13.45.49.94 1.56 1.46 2.59 1.49 3.54.1 6.61-4.7 8.83-6.92-1.57-1.21-3.14-2.42-4.71-3.64-1.85 4.31-6.74 10.7-3.27 15.03.65.81 1.98 1.04 2.92.77 1.89-.53 2.93-2.02 4.24-3.42 2.43-2.61 4.86-5.21 7.3-7.82-1.57-1.21-3.14-2.42-4.71-3.64-1.75 2.49-3.16 4.87-3.9 7.85-.67 2.69 2.08 4.49 4.41 3.39 3.02-1.43 5.99-2.95 8.91-4.57 3.38-1.88.35-7.06-3.03-5.18-2.92 1.62-5.89 3.15-8.91 4.57l4.41 3.39c.61-2.46 1.85-4.37 3.29-6.42 1.97-2.8-2.41-6.1-4.71-3.64-1.77 1.9-3.54 3.79-5.31 5.69-.88.95-1.77 1.9-2.65 2.84-1.54 1.41-1.85 1.8-.93 1.17.97.26 1.95.51 2.92.77-.19-.23-.37-.47-.56-.7.26.97.51 1.95.77 2.92.59-3.39 2.65-6.84 4-9.98 1.26-2.94-2.11-6.24-4.71-3.64-.45.45-4.52 5.17-4.59 5.17.86.5 1.73.99 2.59 1.49-.54-1.03 2.69-7.48 3.17-8.82 1.08-3.01-2.96-4.77-5.01-2.92-.56.51-3.55 3.9-4.17 3.83.96.73 1.93 1.47 2.89 2.2.05.14.85-2.68 1.2-3.67.65-1.85 1.37-3.67 2.12-5.48 1.22-2.94-3.03-4.8-5.01-2.92-.91.91-1.86 1.77-2.86 2.58 1.21.16 2.42.31 3.64.47.65.55 1.23-2.68 1.32-2.93.54-1.5 1.29-2.92 2.08-4.3 1.62-2.81 3.58-5.41 5.56-7.97 1.91-2.47-.49-6.71-3.64-4.71-11.12 7.08-16.65 20.52-11.71 33 1.95 4.94 4.3 11.22 9.55 13.54 5.48 2.42 10.94-2.95 16.16-4.16-.53-1.93-1.06-3.86-1.6-5.79-.73.26-3.32.37-3.68.74.36 1.26.73 2.53 1.09 3.79.7.07 1.41.14 2.11.22 1.58.59 2.07 2.3 3.53 2.95 2.8 1.24 6.15-1.81 8.33-3.09-1.21-1.57-2.42-3.14-3.64-4.71-.18.27-.35.53-.53.8.5.86.99 1.73 1.49 2.59.01-.84 3.57-2.17 1.82-2.14-.86-.5-1.73-.99-2.59-1.49-3.32.49-2.33 1.71 2.95 3.65h5.18c.02-.57.05-1.14.07-1.7h-5.18c.26.79.52 1.57.77 2.36 1.96-.27 3.93-.53 5.89-.8-.51.78-.4.95.33.51.61-.22 1.22-.45 1.83-.67 3.59-1.31 2.03-7.11-1.6-5.78z" class="st1"/><path d="M319.62 191.78c.15 1.51.02 3-.39 4.48-.81 3.75 4.88 5.37 5.79 1.6 1.4-5.82 1.59-11.44.76-17.35-.47-3.38-5.95-2.52-5.89.8.16 9.45-.43 18.83-1.9 28.17-.47 3.02 4.02 5.72 5.48 2.31 3.05-7.11 3.13-14.28 2.77-21.91h-6c.76 7.77-.23 15.34-3.32 22.54-1.51 3.51 3.66 6.57 5.18 3.03 3.52-8.2 5.02-16.66 4.14-25.56-.37-3.77-6.19-3.92-6 0 .3 6.36.62 12.9-1.95 18.88 1.83.77 3.66 1.54 5.48 2.31 1.55-9.87 2.29-19.77 2.11-29.76-1.96.27-3.93.53-5.89.8.67 4.81.37 9.45-.76 14.16 1.93.53 3.86 1.06 5.79 1.6.44-2.06.66-3.95.6-6.07-.1-3.89-6.1-3.9-6-.03zM287 148.07c.24-5.33 3.51-3.18 6.57-2.86 2.39.25 4.79-.27 7.05-1.02 3-.99 5.94-3 8.2.17.53.75.6 3.63 1.29 4.03 1.35.78 3.58-1.15 4.45-1.87 1.63-1.38.79-3.65-.61-4.71-4.9-3.72-15.56-1.52-18.37 4.06-.61 1.21-.5 2.64.47 3.64 3.32 3.41 9.35.42 12.98-1.09l-3.39-4.41c-.49.75-.98 1.51-1.47 2.26-2.11 3.25 3.08 6.26 5.18 3.03.49-.75.98-1.51 1.47-2.26 1.33-2.04-.93-5.43-3.39-4.41-.55.23-6.89 2.89-7.14 2.64.16 1.21.31 2.42.47 3.64 1.41-2.81 8.08-3.48 10.16-1.9-.2-1.57-.4-3.14-.61-4.71-2.51 2.12-5.39 4.07-5.11 7.78.2 2.63 2.1 4.53 4.73 4.79 8.28.81 6.64-7.9 4.45-12.81-1.19-2.67-3.01-5.02-5.98-5.71-4.74-1.1-8.64 2.92-13.26 2.97-3.51.04-6.26-2.65-9.62-.33-2.93 2.02-4.35 5.72-4.51 9.12-.19 3.82 5.81 3.82 5.99-.04z" class="st1"/><g><path d="M315.15 144.09c.02-.07.03-.14.05-.2l-2.1 2.1c.11-.02.22-.05.32-.07h-1.6c.46.08 2.75.86 1.69-.25.38.39.49 1.62.6 2.11.36 1.66.4 3.33.3 5.02-.23 3.86 5.77 3.84 6 0 .19-3.14-.14-6.6-1.43-9.5-1.18-2.65-4.79-3.68-7.48-3.09-.99.22-1.85 1.13-2.1 2.1-.02.07-.03.14-.05.2-.93 3.73 4.85 5.33 5.8 1.58z" class="st1"/></g><g><path d="M284.72 125.96c-.53 1.05-.82 2.17-.87 3.34-.22 1.46 1.32 2.51 2.51 1.46 1.54-1.36 2.49-2.89 3.41-4.73.87-1.72-1.55-3.16-2.59-1.51-1.48 2.33-3.01 5.07-.91 7.4.47.52 1.24.52 1.82.23 2.55-1.25 4.13-4.31 5.22-6.79.66-1.5-1.03-3.05-2.36-1.82-2.02 1.89-5.74 5.92-4.28 8.97.23.48.8.72 1.3.74 3.52.15 6.6-6.68 7.8-9.19.69-1.45-1.13-3.15-2.36-1.82-2.23 2.44-5.95 6.51-5.57 10.08.11 1.06.86 1.59 1.9 1.45 1.49-.21 2.26-1.76 3.13-2.83 1.69-2.07 3.61-4.09 5.11-6.31 1.96-2.92 2.87-6.5 1.54-9.93-.18-.45-.51-.97-1.05-1.05-1.53-.23-2.1.45-3.43 1.41l2.05 2.05c.77-1.8 1.39-3.82-.24-5.35-.98-.92-1.47-.74-2.16-1.85-.45-.72-1.55-4.56-1.55-5.03-.98.13-1.96.27-2.95.4 1.01 2.94 2.49 5.99 4.89 8.07 3 2.61 7.2.51 9.47 4.54.7 1.24 1.73 2.38.85 3.24-.35.34-1.33.31-1.75.42-1.6.43-2.95.84-4.4 1.69-3.69 2.16-6.42 5.64-9.64 8.38l2.12 2.12c3.23-3.65 7.22-6.39 10.66-9.81 1.65-1.64 3.85-3.56 3.22-6.08-.98-3.9-8.26-7.66-8.38-1.43-.02.83.7 1.47 1.5 1.5 1.64.06 3-1.12 4.54-1.59-.56-.73-1.13-1.47-1.69-2.2-1.1 1.74-2.64 3.03-3.55 4.88-.55 1.14.36 2.57 1.69 2.2 1.63-.46 2.88-1.47 4.5-1.96-.49-.84-.97-1.67-1.46-2.51-1.4 1.38-4.56 3.26-4.42 5.54.07 1.11 1.23 1.91 2.26 1.3 1.92-1.14 3.85-2.29 5.77-3.43 1.66-.99.16-3.56-1.51-2.59-1.92 1.11-3.72 2.31-5.49 3.64-1.3.98-.61 3.16 1.16 2.74 1.76-.42 3.49-1.33 5.29-1.54-.43-.75-.86-1.5-1.3-2.26-.44.46-.88.91-1.32 1.37-1.5 1.22.63 3.33 2.12 2.12 1-.81 1.05-.92 1.79-1.98.61-.88-.19-2.39-1.3-2.26-2.16.25-3.98 1.14-6.09 1.65.39.91.77 1.83 1.16 2.74 1.77-1.34 3.57-2.53 5.49-3.64-.5-.86-1.01-1.73-1.51-2.59-1.92 1.14-3.85 2.29-5.77 3.43.75.43 1.5.86 2.26 1.3-.02-.32 3.31-3.19 3.54-3.41 1.05-1.04-.02-2.94-1.46-2.51-1.6.48-2.89 1.51-4.5 1.96.56.73 1.13 1.47 1.69 2.2.89-1.83 2.46-3.17 3.55-4.88.7-1.1-.46-2.58-1.69-2.2-1.03.31-2.74 1.51-3.74 1.48l1.5 1.5c1.11.04 1.88.68 2.32 1.9l-1.17 2.34c-1.04 1.47-2.76 2.68-4.12 3.84-2.67 2.29-5.33 4.47-7.67 7.12-1.29 1.46.65 3.37 2.12 2.12 4.92-4.19 7.97-8.31 14.59-9.46 2-.35 3.11-.58 3.01-2.77-.14-2.83-3.13-7.79-5.4-9.38-1.37-.96-2.19-.55-3.7-.79-4.22-.66-5.84-3.01-7.16-6.86-.54-1.56-2.93-1.36-2.95.4-.02 1.93.68 5.39 1.61 7.03.71 1.25 3.4 2.15 2.74 3.68-.51 1.2.68 3.04 2.05 2.05 1.85-.86 2.16-1.23.93-1.14-.78-.23-.95.1-.51.98.22.92.12 1.83-.29 2.7-.17 1.52-.85 2.81-2.04 3.86-.92 1.2-4.21 6.62-5.7 6.83.63.48 1.27.96 1.9 1.45-.28-2.6 3.14-6.27 4.69-7.96-.79-.61-1.57-1.21-2.36-1.82-.83 1.72-3.93 5.09-4.22 6.64.09 2.95.56 2.84 1.4-.33.72-1.23 1.62-2.3 2.72-3.2-.79-.61-1.57-1.21-2.36-1.82-.89 2.04-2.02 4.68-4.15 5.72.61.08 1.21.16 1.82.23.04-1.43.5-2.69 1.38-3.76-.86-.5-1.73-1.01-2.59-1.51-.84 1.68-1.47 2.82-2.94 4.12.84.49 1.67.97 2.51 1.46.06-1.18.35-2.29.87-3.34.73-1.8-2.17-2.58-2.85-.79z" class="st1"/></g></g></svg>