<svg xmlns="http://www.w3.org/2000/svg" viewBox="0 0 612 792"><defs/><style>.st1{fill:#39b54a}.st2{fill:#b5d782}.st3{fill:#8dc63f}.st4{fill:#c2b4aa}.st5{fill:#a3cf62}.st6{fill:#5c9b59}</style><g id="Layer_6"><g id="XMLID_6_"><path id="XMLID_87_" d="M330 469.9c3.4 8.9 6.9 17.8 10.3 26.7 9.6 24.9 19.4 50.2 35.6 71.5 16.2 21.3 39.8 38.3 66.5 40.3 8.6.6 17.7-.4 25-5.1 7.3-4.7 12.3-13.6 10.6-22.1-1.1-5.6-4.9-10.3-8.5-14.7-35.7-42.9-74.6-83.1-116.4-120.1-4.4-3.9-9.4-8-15.3-7.9" class="st1"/><g id="XMLID_70_"><path id="XMLID_81_" d="M328.7 470.2c19.6 50.9 39.4 120.1 99 136.8 12.2 3.4 26.6 4.6 38.2-1.5 10.1-5.3 16.7-17.3 12.1-28.4-2.4-6-7.2-10.9-11.3-15.8-5.4-6.4-10.8-12.8-16.4-19-10.9-12.3-22-24.4-33.4-36.3-13.1-13.6-26.6-26.9-40.4-39.8-6.8-6.4-13.7-12.6-20.6-18.8-5.4-4.8-10.7-9.7-18.2-10.1-1.6-.1-1.6 2.4 0 2.5 8.2.4 14.2 7.4 19.9 12.5 5.5 5 11 10 16.5 15.1 10.6 10 21.1 20.1 31.3 30.5 20.7 21 40.5 42.8 59.5 65.3 4.3 5.1 9.6 10.3 11.4 16.9 2 7.2-1.1 14.7-6.5 19.7-10.7 9.8-27.8 8.6-40.8 5.1-25.2-6.8-45.3-25.9-59.1-47.4-17.3-27-27.4-58.2-38.8-87.9-.5-1.5-2.9-.9-2.4.6z" class="st1"/></g></g></g><g id="Layer_4"><g id="XMLID_15_"><path id="XMLID_105_" d="M263 299.8c1.5 3.8 4.1 7.1 6.5 10.4 10.6 14.4 18.9 30.3 28 45.8 9.1 15.4 19.1 30.6 32.5 42.5l.2-.4c7.8 10.4 10.4 23.9 9.7 36.9s-4.4 25.6-8.1 38c-8.9-4-15.5-11.8-20.5-20.2s-8.4-17.6-13-26.2c-6-11.2-13.7-21.4-19.8-32.6-5.2-9.4-9.1-19.5-14.8-28.5-4-6.3-8.8-12.1-12.6-18.5-3.9-6.4-6.9-13.6-6.7-21.1" class="st2"/><g id="XMLID_95_"><path id="XMLID_104_" d="M261.9 300.4c4 9.2 11.5 17.2 16.8 25.8 5.5 8.9 10.6 18.1 15.9 27.2 9.7 16.6 20.2 32.9 34.5 45.9.7.7 1.8.3 2.1-.6.1-.1.1-.3.2-.4-.8.1-1.5.2-2.3.3 16 22.1 8.5 50.1 1.5 74 .6-.2 1.2-.5 1.8-.7-12.9-6.1-20-18.7-25.9-31.1-6.2-13.1-13.2-25.1-20.9-37.3-7.5-12-12.7-25.1-20-37.2-7.8-13-19.9-24.4-20.1-40.5 0-1.6-2.5-1.6-2.5 0 .2 15.4 10.6 26.5 18.5 38.7 8.4 12.8 13.7 27.3 21.9 40.3 4 6.4 8.3 12.7 12 19.3 3.9 6.9 7 14.2 10.5 21.3 5.7 11.7 13.1 23 25.2 28.7.7.3 1.6.1 1.8-.7 7.3-24.5 14.7-53.3-1.7-75.9-.7-.9-1.9-.7-2.3.3-.1.1-.1.3-.2.4l2.1-.6c-14.7-13.3-25.2-30-35.1-47-4.9-8.6-9.7-17.2-14.9-25.6-5.3-8.6-12.8-16.5-16.8-25.8-.6-1.5-2.8-.2-2.1 1.2z" class="st2"/></g></g></g><g id="Layer_3"><g id="XMLID_38_"><path id="XMLID_130_" d="M523.4 617.2c-.9-7.1-5-13.2-9.2-19-29.9-41.9-63.4-81.2-100-117.3-6.5-6.4-13-12.6-19.5-19-20.2-19.9-39.4-40.9-57.4-62.7-.2-.1-.4-.3-.7-.4-1.1-.7-1.8-.9-2.5-.9-1.6-.1-3.1-.9-4-2.1-.8.1-1.6.5-2.3 1-1.7 1.4-2.4 3.5-2.9 5.6-2 9.1.4 18.8 4.6 27.1s10.1 15.7 15.6 23.2c9.3 12.7 17.7 26.2 27.9 38.3 10.7 12.7 23.2 23.8 35.6 34.8 28.5 25.2 56.9 50.4 85.4 75.7 7.7 6.8 15.4 13.6 23.8 19.4 1.1.8 2.4 1.6 3.7 1.2 1.8-.5 2.2-3 1.9-4.9z" class="st3"/><g id="XMLID_90_"><path id="XMLID_129_" d="M524.6 616.9c-1.4-8.5-6.5-15.4-11.4-22.3-5.7-8-11.6-15.8-17.6-23.6-11.8-15.4-24.2-30.3-37-44.9-26.5-30.1-56-56.9-83.5-86-7.8-8.2-15.4-16.6-22.9-25.2L341.1 402c-1.2-1.5-2.3-3.2-4-4.3-2.1-1.4-4.4-.8-6.3-2.8-.3-.3-.8-.4-1.2-.3-7.7 2.3-7.3 13.7-6.5 20 1.4 9.9 6.3 18.8 11.9 26.8 6.3 9.1 13 17.8 19.3 26.9 6.3 9.1 12.7 18.1 20 26.5 15.3 17.5 33.5 32.3 50.8 47.7 18.6 16.5 37.3 33 55.9 49.6 9.6 8.5 18.9 17.2 29 25.1 2.7 2.1 7.3 7.2 11.2 6.3 2.9-.6 3.4-3.7 3.2-6.2-.1-1.6-2.6-1.6-2.5 0 .1 1.6-2.2 2.8-3.8 2.7-.5 0-2.7-2-2.9-2.1-2.1-1.5-4.2-3.1-6.2-4.8-4-3.2-7.9-6.6-11.7-10-7.5-6.7-15.1-13.3-22.6-20-15.2-13.5-30.4-27-45.6-40.4-14.9-13.2-30.3-26-44.3-40.2-13.8-13.9-24.4-30-35.7-45.8-10.6-14.8-26-31-23.8-50.7.2-2.1 1-8.5 4.4-8.4.4 0 1.5 1 2 1.2 2.3 1 3.8.9 5.6 2.9 1.9 2.1 3.6 4.4 5.5 6.5 6.3 7.4 12.8 14.8 19.3 22 26.4 29 55.6 55.2 82.1 84.1 14.5 15.8 28.4 32.1 41.7 48.9 7 8.8 13.8 17.7 20.4 26.8 6.1 8.4 13.8 17.1 15.5 27.6.7 1.5 3.1.9 2.8-.7z" class="st3"/></g></g><g id="XMLID_174_"><path id="XMLID_207_" d="M210.3 523.6c.4 4.7-.7 9.4-1.5 14-.9 5.6-1.2 11.2-1.5 16.8-.8 15.5-1.7 31.1-2.5 46.6-.3 6.4-.7 12.9-2.3 19.1-1.6 6.2-4.5 12.3-9.2 16.7.9-3.2 1.9-6.5 2.8-9.7.8-2.9 1.7-5.8 2.2-8.8.6-3.4.7-6.8.9-10.2.8-17.4 1.8-34.8 2.8-52.2.2-2.8.3-5.6.5-8.4.4-6.9.8-13.9 2.2-20.7.3-1.3.6-2.6 1.5-3.5.9-.9 2.5-1.3 3.5-.5" class="st2"/><g id="XMLID_201_"><path id="XMLID_206_" d="M209 523.6c.4 8.9-2.2 18.1-2.7 27.1-.6 9.7-1 19.3-1.6 29-.5 9.7-.8 19.4-1.6 29.1-.9 10-3.2 19.9-10.6 27.2l2.1 1.2c2.5-8.5 5.2-16.7 5.8-25.6.6-9.5.9-19 1.4-28.5.5-9.6 1-19.2 1.6-28.7.3-4.8.5-9.5.8-14.3.2-2 .6-17.8 5.2-15.9 1.5.6 2.1-1.8.7-2.4-7.4-3-7.6 10.4-8 14.6-1.1 11-1.4 22.2-2 33.3-.6 11.3-1.2 22.5-1.8 33.8-.3 5.8-.3 11.7-1.6 17.4-1.2 5.3-3 10.6-4.5 15.8-.4 1.2 1.2 2.1 2.1 1.2 13.5-13.2 11.7-34.9 12.7-52.2.6-10.4 1.1-20.7 1.7-31.1.3-5.8.7-11.6 1.6-17.4.7-4.5 1.6-8.9 1.4-13.5-.2-1.7-2.7-1.7-2.7-.1z" class="st2"/></g></g><g id="XMLID_10_"><path id="XMLID_45_" d="M259.2 306c-5.2 7.6-11.5 14.4-18.7 20.2-1.3 1-2.8 2.1-4.4 1.7-.9-.2-1.7-.8-2.3-1.4-3-2.9-4.8-6.8-6.6-10.6-1.8-3.8-3.5-7.5-5.3-11.3l.1.3c.5-.7-.1-1.6-.4-2.5-.3-.9-.1-1.8 0-2.7.6-3.2 1.1-6.5 1.8-9.7.1-.6.3-1.2.6-1.7.6-1 1.9-1.6 1.8-2.8l1.2-.5c1.6-3.3 5.5-4.9 9.1-5.6 7.7-1.5 15.9-.7 23.1 2.3l.3.2c.9.2 1.3 1.3 1.5 2.2.3 1.6.7 3.3.6 4.9 0 1.3-.3 2.6-.5 3.9-.2 1.2-.4 2.3-.5 3.5-.1 1.9 0 3.7-.2 5.6-.2 1.9-.7 3.8-1.9 5.2" class="st3"/><g id="XMLID_33_"><path id="XMLID_44_" d="M258.1 305.4c-2.9 4.2-6.1 8.1-9.6 11.8-2.6 2.7-6.5 7.8-10 9-7 2.3-13.4-17.7-15.5-22.1-.7.4-1.4.8-2.2 1.3 0 .1.1.2.1.3.6 1.2 2.2.5 2.3-.6.2-1.5-.4-2.4-.5-3.8-.1-1.8.8-4.9 1.1-6.8.5-2.8 1.1-5.1 2.8-7.3 3.2-4.1 8-6.2 13.6-6.7 3.5-.3 7.1-.2 10.6.5 2.2.4 6.5.8 8.1 2.4 2.8 2.8 1.1 8.3.6 11.7-.5 4 .3 8.3-2.1 11.9-.9 1.3 1.3 2.6 2.2 1.3 2.4-3.6 1.9-7.3 2.2-11.4.3-4.2 2.2-9.6.1-13.7-1-1.9-2.7-2.3-4.7-3-4.6-1.6-9.5-2.3-14.4-2.2-6.8.2-13.1 1.8-17.6 6.9-1.6 1.8-2.6 3.8-3.2 6.2-.6 2.8-1.3 5.8-1.6 8.7-.2 1.8.5 3.7.3 5.5.8-.2 1.6-.4 2.3-.6 0-.1-.1-.2-.1-.3-.7-1.5-2.8-.2-2.2 1.3 2.6 5.6 5 11.5 8.1 16.9 1.8 3 4.6 7.7 8.7 7 4.2-.7 8.6-6.2 11.4-9 4.1-4.2 7.8-8.7 11.2-13.5 1.1-1.8-1.1-3.1-2-1.7z" class="st3"/></g></g></g><g id="Layer_2"><g id="XMLID_3_"><path id="XMLID_219_" d="M221.7 305.6c2.8-5.3 4-11.6 3.2-17.5-.1-.7-.3-1.5-.8-2-.6-.6-1.6-.6-2.5-.5-1.1.2-2.2.5-3.2 1.1-3.4 2-5.2 6.2-4.6 10.1.6 3.9 3.5 7.2 7.1 8.8" class="st1"/><g id="XMLID_46_"><path id="XMLID_218_" d="M222.8 306.3c2.4-4.8 8.3-26.6-4-21.2-9.9 4.4-6.8 17.4 1.5 21.5 1.4.7 2.7-1.4 1.3-2.2-6-2.9-9.5-11.4-3.2-16.1 2.3-1.7 4.7-1.6 5.5 1.9.3 1.3.1 2.9-.1 4.2-.3 3.8-1.4 7.3-3.1 10.7-.8 1.4 1.4 2.6 2.1 1.2z" class="st1"/></g></g><g id="XMLID_4_"><path id="XMLID_220_" d="M254.6 286.7c-1.6 4.4-2.7 9-3.1 13.6-.1 1-.2 2 .1 3 .3 1 .9 1.9 1.9 2.3 1.3.5 2.7-.2 3.9-1 3.8-2.6 6.5-6.6 7.6-11.1.5-2.3.6-4.8-.5-6.9-1.1-2.1-3.5-3.6-5.8-3.1-2.2.5-3.6 2.5-4.7 4.5" class="st1"/><g id="XMLID_26_"><path id="XMLID_32_" d="M253.4 286.4c-1.4 4-2.5 8-3 12.2-.3 2.3-.7 5.1 1 7 3.9 4.5 10.1-2.5 12.2-5.7 2.8-4.4 4.8-11.9.3-15.9-4.3-3.8-8.6-.6-11 3.4-.8 1.4 1.3 2.6 2.2 1.3 1.3-2.1 3-5 6.4-3.4 2.9 1.3 2.8 5.6 2.3 8-.7 3.1-2.4 6.1-4.6 8.3-.7.8-1.5 1.4-2.4 2-1.3-.6-2.7-1.1-4-1.7-.6-.8.5-4.8.7-5.8.6-3.1 1.4-6 2.5-9 .4-1.6-2-2.2-2.6-.7z" class="st1"/></g></g><g id="XMLID_2_"><g id="XMLID_100_"><path id="XMLID_245_" d="M152.1 204c15.2 10.5 29.3 22.5 42.1 35.9 12.3 12.9 25.5 27.5 33 43.8.7 1.5 2.8.2 2.2-1.3-7.5-16.4-21-31.3-33.3-44.3-12.9-13.5-27.2-25.7-42.6-36.3-1.5-.9-2.7 1.3-1.4 2.2z" class="st4"/></g></g><g id="XMLID_7_"><g id="XMLID_51_"><path id="XMLID_57_" d="M276.4 191.9c-8.1 12.3-13.3 26.3-18.3 40.1-5.5 15.3-10.3 30.9-14.4 46.6-.4 1.6 2 2.2 2.4.7 4-15.1 8.5-30.1 13.8-44.8 5.1-14.2 10.3-28.6 18.6-41.3.9-1.4-1.2-2.7-2.1-1.3z" class="st4"/></g></g><g id="XMLID_9_"><path id="XMLID_77_" d="M213.8 444.3c-2.1 1.1-4.6.8-6.8.1-3.7-1.2-7.1-3.6-9.4-6.8-.9-1.2-1.6-2.5-1.6-3.9-.1-2.2 1.6-4.2 3.6-5 2-.8 4.4-.6 6.5.2" class="st5"/><g id="XMLID_66_"><path id="XMLID_76_" d="M213.5 443.1c-4.5 1.8-9.6-.9-12.9-4-1.8-1.7-3.4-3.6-3.1-6.1.6-4.1 5.1-3.9 8.1-3 1.5.5 2.2-1.9.7-2.4-3.1-1-6.6-1.1-9.3 1.1-2.3 2-2.9 4.9-1.7 7.6 2.7 6.2 12.1 11.8 18.7 9.1 1.6-.5 1-2.9-.5-2.3z" class="st5"/></g></g><g id="XMLID_35_"><path id="XMLID_93_" d="M302 460.9c2.3-1.9 2.2-5.4 1.8-8.4-2.6-18.9-6.8-37.6-9-56.5-.7-6.5-1.3-13.1-2.3-19.5-1.6-9.5-4.4-18.7-7.1-27.9l-.2.7c-1.4-3.5-3.3-6.8-5.8-9.8-1.3-1.5-3-3.1-5-3-2.3.1-3.9 2.4-4.8 4.6-2.9 6.9-2.7 14.7-1.1 22s4.6 14.2 7.3 21.2c4.2 11 7.6 22.2 11.1 33.4 3.4 11.2 6.9 22.6 6.8 34.4" class="st3"/><g id="XMLID_78_"><path id="XMLID_92_" d="M302.9 461.8c4.7-4.9 1.5-14.1.5-20-1.7-10.4-3.7-20.7-5.3-31-1.6-10.2-2.5-20.5-3.9-30.8-1.5-10.9-4.6-21.3-7.7-31.8-.3-1.1-2.1-1.3-2.4 0-.1.2-.1.5-.2.7h2.4c-2.2-5.2-9.4-19.3-16.2-11.2-6.9 8.2-4 23-1.1 32 4.3 13.4 9.8 26.4 14 39.9 4.3 13.8 9.3 27.8 9.4 42.4 0 1.6 2.5 1.6 2.5 0-.1-10.1-2.4-19.8-5.2-29.4-3.1-10.5-6.4-21-10-31.4-3.4-9.7-8.1-19.2-10.1-29.4-1.1-5.7-1.4-11.7.2-17.3.3-1.1.8-3.5 1.6-4.2 2-.4 4.1-.8 6.1-1.2.7.7 1.3 1.5 1.9 2.3 1.9 2.5 3.3 5.2 4.6 8 .4 1 2.1 1.3 2.4 0 .1-.2.1-.5.2-.7h-2.4c2.8 9.2 5.6 18.4 7.1 27.9 1.5 9 2 18.1 3.3 27.1 1.2 8.8 2.8 17.6 4.4 26.4.8 4.4 1.5 8.8 2.3 13.2.7 4.6 3.6 12.8 0 16.6-1.3 1.3.5 3 1.6 1.9z" class="st3"/></g></g><g id="XMLID_85_"><g id="XMLID_154_"><path id="XMLID_158_" d="M503.8 468.6c1.6 0 1.6-2.5 0-2.5s-1.6 2.5 0 2.5z"/></g></g><g id="XMLID_117_"><path id="XMLID_148_" d="M503.8 467.1c3.5-.3 6.6 2.8 7.5 6.1 1 3.4.3 7-.4 10.4-10.5 50.6-35.4 97.6-42.1 148.8h.5c-.2 3.9-.5 7.8-.7 11.7-.2 4-.5 8 .7 11.8.7 2.2 1.8 4.3 2.9 6.3 2.1 3.9 4.2 7.8 6.3 11.8l-.9-1.2c-3.2-3-6.1-6.3-8.8-9.8-1.6-2.2-3.2-4.5-3.9-7.1-.7-2.3-.7-4.8-.7-7.2.7-50.8 23.5-98.4 35.7-147.8 1.3-5.4 2.5-10.8 3.6-16.2.2-1.1.4-2.3-.1-3.2-.6-.9-2.2-1.2-2.7-.3" class="st2"/><g id="XMLID_110_"><path id="XMLID_147_" d="M503.8 468.3c11.2.4 5.5 17.5 4 23.8-1.5 6.4-3.3 12.8-5.2 19.1-4 13.6-8.7 26.9-13.3 40.3-9.1 26.4-18 52.9-21.7 80.6-.1.8.3 1.5 1.2 1.6h.5l-1.3-1.3c-.4 7.2-1.9 15.2-.4 22.3 1.5 7 6.4 13.7 9.7 20 .7-.5 1.3-1 2-1.5-5.7-7.3-13.5-12.3-13.9-22.5-.4-9.4.9-19.2 2.3-28.4 2.8-18.2 7.7-36 13.1-53.6 5.5-17.7 11.5-35.3 16.5-53.2 2.5-8.8 4.7-17.7 6.6-26.7.5-2.2 1.9-6 .3-8.1-1.1-1.4-2.8-1.5-4.2-.5-1.3.9 0 3.1 1.3 2.2 1-.7-.4 8.6-.5 9.3-.5 2.4-1.1 4.8-1.7 7.2-1 4.1-2.1 8.2-3.2 12.3-2.3 8.2-4.7 16.4-7.3 24.5-5.4 17.1-11.1 34.1-15.8 51.4-4.4 16.3-8 33-9.3 49.9-.6 7.3-2 15.9 1.5 22.6 3.1 6 8.5 10.1 12.6 15.2.9 1.2 2.6-.3 2-1.5-3.3-6.1-8-12.6-9.5-19.4-1.5-6.8.1-14.7.5-21.6 0-.7-.6-1.2-1.3-1.3h-.5c.4.5.8 1.1 1.2 1.6 4.4-31.9 15.5-62.2 25.8-92.6 5.1-15.1 10.1-30.2 13.9-45.7 2-7.9 8.4-28.1-5.9-28.7-1.6.2-1.6 2.7 0 2.7z" class="st2"/></g></g><g id="XMLID_12_"><path id="XMLID_121_" d="M330 472c0 7.5-.1 15-.1 22.5 0 4.2-.1 8.5-1.3 12.5-1.6 5.4-5.3 10.2-10.2 13.1l.1.3c2-.3 3.3-2.5 3.2-4.6s-1.1-3.9-2.2-5.6v-1.6c-.6-9.7-3.9-18.9-6.6-28.2s-4.7-19.2-2.5-28.6l1.1-.8c5.3 3.8 9.8 8.5 13.5 13.9.5.7 1 1.5 1.4 2.2.5.7.9 1.4 1.4 2.1 1 1.6 2.1 3.2 2.6 5.1" class="st3"/><g id="XMLID_114_"><path id="XMLID_120_" d="M328.7 472c0 8.1 0 16.2-.1 24.3-.2 9.4-2.5 17.5-10.9 22.7-.4.3-.8.9-.6 1.4 0 .1.1.2.1.3.2.6.8 1.1 1.5.9 2-.7 3.4-2 4-4.2.7-3.1-1.3-5.2-2-8-.9-3.5-.7-7.4-1.5-11-1.1-5-2.7-10-4.1-14.9-1.4-4.7-2.7-9.4-3.6-14.1-.3-1.6-2.1-16.7-.1-17 .9-.1 4.5 3.9 5.2 4.6 1.9 1.9 3.7 3.8 5.3 5.9 2.6 3.4 5.7 7.4 7.1 11.5.5 1.5 2.9.9 2.4-.7-3.3-9.5-11.6-18.1-19.5-24-.3-.2-.9-.2-1.3 0-3.2 2.5-2.6 8.1-2.5 11.7.2 6.5 1.7 12.9 3.5 19.1 1.8 6.4 4 12.7 5.3 19.3.7 3.2.5 6.7 1.2 9.8.6 2.6 4.8 7.6-.1 9.4l1.5.9c.6 1.3 6.5-5.4 7-6.2 2.1-3.1 3.4-6.7 3.9-10.4 1.5-10.3.6-21.2.6-31.5.2-1.4-2.3-1.4-2.3.2z" class="st3"/></g></g><g id="XMLID_173_"><path id="XMLID_167_" d="M319.2 510.6c-6.1 1.3-12.5.2-18.8-.2-7.8-.5-15.6.1-23.3.6-3.5.3-7 .5-10.5.8-13.7 1-27.3 2-41 3.1-3.2.3-6.5.5-9.6 1.4-1.8.5-3.6 1.1-5 2.4-1.3 1.3-2.1 3.3-1.4 5.1.6 1.6 2.2 2.5 3.9 2.9s3.3.1 5-.2c22-3 44.4-2.8 66.6-1.8 12.3.6 25.4 1.3 36-5" class="st4"/><g id="XMLID_131_"><path id="XMLID_165_" d="M318.8 509.4c-8.9 1.6-18.2-.6-27.2-.5-8.4.1-16.7 1-25.1 1.6-8.8.6-17.6 1.3-26.3 2-7.6.6-15.5.7-23 2.2-3.9.8-9.4 2.9-9.1 7.9.3 5.4 6.4 5.6 10.4 5.1 17.6-2 35.1-2.8 52.9-2.3 16.6.4 35.2 3.8 50.4-4.7 1.4-.8.1-2.9-1.3-2.2-15.7 8.7-36 4.6-53.1 4.2-9.2-.2-18.3-.1-27.5.4-4.6.2-9.1.6-13.7 1.1-2 .2-3.9.4-5.8.7-1.2.2-2.4.3-3.6.5-3.1.7-4.8-1.3-4.9-5.9 2.1-3.1 10.5-3.1 13.7-3.4 4.5-.4 9.1-.7 13.6-1.1l27.3-2.1c8.7-.6 17.4-1.5 26-1.6 9-.1 18 1.9 26.9.4 1.7-.2 1-2.6-.6-2.3z" class="st4"/></g></g><g id="XMLID_11_"><path id="XMLID_142_" d="M501.4 480.8c2.2-1.1 3.9-3.1 4.6-5.5.7-2.4.4-5-.9-7.1h-.9c-24.7 17.8-50.2 34.5-76.3 50.2-3.3 2-6.5 3.9-9.7 6-8.2 5.5-15.7 12-24.2 16.9-2.7 1.6-6.2 3-8.9 1.5l3.6 1.6c-.5 1.4-1 2.8-1.1 4.2-.1 1.5.3 3 1.3 4 .7.6 1.6 1 2.1 1.8l1.1.9c25.6-19.6 52.1-37.9 79.5-54.9 9.8-6.1 19.7-12 29.1-18.7" class="st4"/><g id="XMLID_125_"><path id="XMLID_141_" d="M502 481.8c5.3-3.2 6.9-8.8 4.2-14.3-.2-.4-.7-.6-1.1-.6-3.6-.2-8 4.7-10.8 6.7-4.9 3.5-9.9 6.9-14.9 10.3-10.2 6.9-20.6 13.7-31 20.3-10.2 6.4-20.7 12.3-30.7 19-4.8 3.2-9.4 6.8-14.1 10.2-4.5 3.3-12.2 10.3-18.1 8.1-1.3-.5-2.3 1.7-1 2.3.6.3 3.1.9 3.3 1.4-.4-1-1.5 3.9-1.4 4.7.4 2.9 2.8 4.4 4.8 6.2.4.3 1.1.5 1.5.2 17.3-13.2 35-25.9 53.2-38 18.3-12.1 37.5-22.9 55.4-35.6 1.3-.9.1-3.1-1.3-2.2-19.4 13.8-40.3 25.5-60.1 38.8-9.7 6.5-19.3 13.2-28.7 20.1-4.6 3.3-9.2 6.7-13.7 10.1-1.1.8-2.9 1.8-3.8 2.9-.6.2-.9.6-.9 1.1 0 .7-.2.7-.7.1-.3 0-1.1-1-1.3-1.2-2.8-3.5-2.1-4.9-1-7.9.2-.5-.1-1.2-.6-1.4-1.2-.5-2.4-1-3.6-1.6-.3.8-.6 1.5-1 2.3 4.5 1.6 8.4-.6 12.1-3 5.2-3.2 10-7 14.9-10.6 10.5-7.7 22-14.1 33-20.9 11-6.9 21.9-14 32.7-21.2 5.5-3.7 11-7.5 16.5-11.3 2.6-1.8 5.2-3.7 7.8-5.5 2.2-1.6 3.3-3.6 3.4 1 0 3.2-1.7 5.7-4.4 7.3-1.2.9 0 3.1 1.4 2.2z" class="st4"/></g></g><g id="XMLID_14_"><path id="XMLID_161_" d="M352.4 456.9c-3-3.5-6.5-6.5-10.5-9-.6-.4-1.3-.8-2-.8-1.6 0-2.6 1.6-3.2 3-5.6 12.6-4.7 27.1-3.2 40.8.6 5 1.2 10.1 3.1 14.7.4 1 1.2 2.2 2.3 2.1.8-.1 1.4-.8 1.8-1.5 5-8.3 7.7-17.8 10.2-27.2.8-3 1.6-6 2.5-9 .7-2.7 1.5-5.5 1.2-8.2-.3-2.8-1.8-5.6-4.4-6.7" class="st3"/><g id="XMLID_149_"><path id="XMLID_160_" d="M353.3 456c-2.7-3-9.1-10.5-13.7-10-4.9.5-6.5 10.2-7.2 13.6-1.4 6.9-1.5 14-1.1 21 .4 7.3.9 15.2 2.9 22.3.8 2.9 2.5 8 6.4 5.4 2-1.4 3.2-5.2 4.3-7.4 1.5-3.2 2.7-6.5 3.8-9.9 2.5-7.7 5-15.8 6.7-23.8 1-5.1.4-10.4-4.6-13-1.4-.8-2.7 1.4-1.3 2.2 6.4 3.5 3.1 11.7 1.6 17.1-1.3 4.8-2.6 9.7-4.1 14.5-1.5 4.8-3.2 9.6-5.4 14-.4.7-1 2.6-1.6 3-.3 1.1-.9 1-1.6-.2-.9-.3-1.3-.9-1.4-1.7-1.1-2-1.3-5.1-1.6-7.4-1.4-9.5-2.3-19.4-1.4-28.9.4-4.8 1.1-11.7 3.9-15.8 3.5-5.2 11 3.8 13.8 6.9.9 1.1 2.7-.7 1.6-1.9z" class="st3"/></g></g><g id="XMLID_5_"><g id="XMLID_94_"><path id="XMLID_168_" d="M276.1 514.4c1.6 0 1.6-2.5 0-2.5s-1.6 2.5 0 2.5z" class="st4"/></g></g><g id="XMLID_16_"><g id="XMLID_171_"><path id="XMLID_177_" d="M248.9 514.5c1.6 0 1.6-2.5 0-2.5s-1.7 2.5 0 2.5z" class="st4"/></g></g><g id="XMLID_54_"><path id="XMLID_214_" d="M357.6 514.7c-2.8-2.3-6.6-3.4-10.2-2.9-.4.1-.8.1-1.1.4-.8.7-.3 1.9.1 2.8l-.1-.3c1.9 10.1 5.4 19.7 8.9 29.3l.6.7c1.4 1.5 3.4 2.4 5.5 2.6s4.1-.3 6.1-1" class="st6"/><g id="XMLID_209_"><path id="XMLID_213_" d="M358.2 513.6c-3.3-2.5-16.3-6.3-12.8 1.9.6 1.3 2.6.4 2.3-1 0-.1-.1-.2-.1-.3-.4-1.6-2.7-.9-2.4.7 1 5 2.3 10 3.9 14.8 1.4 4.5 2.6 10.5 5 14.5 3 4.8 8.9 4.7 13.7 3.1 1.5-.5.9-2.9-.7-2.4-3.5 1.2-8 1.7-10.6-1.6-1.8-2.2-2.6-7-3.5-9.7-2.2-6.4-4-12.8-5.4-19.4-.8.2-1.6.4-2.4.7 0 .1.1.2.1.3.8-.3 1.5-.6 2.3-1-.7-1.7 4.6-1 4.9-.9 1.6.5 3.1 1.4 4.5 2.4 1.3 1 2.5-1.1 1.2-2.1z" class="st6"/></g></g><g id="XMLID_21_"><path id="XMLID_192_" d="M357.9 514.7c2.5 4.7 3.4 10.1 4.8 15.2 1.1 3.8 2.5 7.5 4.1 11.1.7 1.4 1.4 2.9 1.5 4.5 0 .4-.2.9-.6.8" class="st6"/><g id="XMLID_179_"><path id="XMLID_191_" d="M356.8 515.4c2.5 5.3 3.4 11 5.1 16.5.4 1.3 5.2 13.4 5.2 13.4-1.4.8-.1 2.9 1.3 2.2 3.5-1.9-1.9-10.2-2.7-12.2-2.6-6.9-3.5-14.4-6.8-21.1-.6-1.5-2.8-.3-2.1 1.2z" class="st6"/></g></g></g><g id="Layer_5"><g id="XMLID_13_"><path id="XMLID_49_" d="M210.8 446.7c-.8-2.6-1.6-5.2-2.5-7.8-.8-2.6-1.6-5.2-1.6-7.8 0-2.7 1.1-5.5 3.3-7 1.5-1 3.3-1.4 5.1-1.5 8.6-.6 16.8 3.1 24.5 6.7 12 5.6 24.1 11.3 36.9 14.6 3.5.9 7 1.6 10.2 3.1 7.1 3.3 12.1 9.8 16.7 16-9.7 2.1-19.5 3.5-29.3 4.2-6.1.5-12.2.6-18.2-.3-11.2-1.8-21.3-7.6-31-13.5-3.1-1.8-6.2-3.7-8.7-6.3" class="st2"/><g id="XMLID_39_"><path id="XMLID_48_" d="M212 446.4c-1.4-4.5-3.5-9.2-3.9-13.9-.6-8.8 7.6-9.4 14.2-8.2 10.2 1.8 19.6 7.7 28.9 11.8 8.7 3.8 17.4 7.1 26.6 9.5 5.3 1.4 10.2 3 14.4 6.6 3.9 3.3 7 7.5 10.1 11.6.2-.6.5-1.2.7-1.8-14.9 3.1-31.7 6.4-46.8 3.9-7.6-1.2-14.7-4.3-21.4-8-6.1-3.3-12.8-6.7-17.8-11.5-1.2-1.1-2.9.7-1.8 1.8 5.2 5 12 8.5 18.3 11.9 6.9 3.7 14.2 6.9 22 8.2 15.6 2.6 32.9-.7 48.2-3.9.7-.2 1.2-1.2.7-1.8-6.7-8.9-13.2-15.9-24.2-18.8-13.7-3.6-26.4-9-39.3-15-8.4-4-20.9-10.6-30.4-6.3-9.6 4.3-3.3 17.9-1.1 24.8.7 1.3 3.1.6 2.6-.9z" class="st2"/></g></g><g id="XMLID_152_"><path id="XMLID_189_" d="M335.8 653c1 1.3 2.7.4 3.5-1.4.7-1.7.8-4 .8-6.1.8-44 1.5-88 2.3-132.1.1-8.2.3-16.4-.7-24.4l.8.3c.7-2.5-1.9-4.7-3.3-3.2-1.5 1.4-1.9 4.5-2 7.2-.6 9.8 0 19.8.4 29.6 1.9 42.9.8 86.2-3.4 128.7" class="st2"/><g id="XMLID_184_"><path id="XMLID_188_" d="M335.1 654.1c8.2 5.6 6.4-21.7 6.5-24.3.3-15.8.5-31.5.8-47.3.3-15.8.5-31.5.8-47.3.3-15.3 1.3-30.9-.3-46.1-.6.4-1.3.7-1.9 1.1.3.1.5.2.8.3.9.4 1.8-.1 1.9-1.1.2-2.4-1.4-5.8-4.4-4.7-4.1 1.4-3.6 9.6-3.7 12.6-.6 17.3 1.1 34.7 1.4 52.1.5 34.2-.9 68.3-4.2 102.3-.2 1.6 2.3 1.6 2.5 0 2.6-27.2 4.1-54.5 4.3-81.8.1-13.4-.1-26.7-.6-40.1-.3-6.9-.7-13.8-.9-20.7-.1-3.3-.1-6.6-.1-9.9 0-2 .1-4 .2-5.9 0-.5.1-.9.1-1.4-.4-2.3.5-3.2 2.8-2.6.6-.4 1.3-.7 1.9-1.1-.3-.1-.5-.2-.8-.3-.8-.3-2 0-1.9 1.1 1.5 13.3.6 26.8.4 40.2-.2 13.5-.5 26.9-.7 40.4-.2 13.5-.5 26.9-.7 40.4-.1 6.6-.2 13.1-.3 19.7-.1 3.6-.1 7.2-.2 10.8 0 1.1-.2 12.9-2.5 11.3-1.2-.8-2.5 1.4-1.2 2.3z" class="st2"/></g></g><g id="XMLID_170_"><path id="XMLID_166_" d="M390.9 557.3c.1-.3.1-.5.2-.8.4-1.7.7-3.5 1.1-5.3 0-.2.1-.3.1-.4-.8-2.8-2.2-5.4-4.2-7.6l-.6.8c-1.5-11.5-1.6-23.1-.4-34.6l-.8-1c-3.2-1.8-7-2.6-10.7-2.3-2.3.2-4.5.8-6.7 1.5-1.2.3-2.4.7-3.4 1.5-.8.6-1.5 1.5-2.1 2.4-1.3 1.8-2.6 4.1-1.5 6l.1-.4c.6 5 1.5 10.1 2.8 15 1.8 7.1 4.5 14.2 9.7 19.4 4.4 4.2 10.6 6.8 16.4 5.8z" class="st6"/><g id="XMLID_134_"><path id="XMLID_145_" d="M392.1 557.7c.6-2.5 1.8-5.3 1.3-7.8-.6-2.8-2.5-5.3-4.3-7.4-.6-.6-1.5-.4-2 .3-.2.3-.4.6-.6.8.8.2 1.6.4 2.3.6-1-8.3-1.4-16.6-1.1-25 .2-5.5 2.8-10.5-3.2-12.8-5.6-2.2-12.2-1.6-17.6.8-4 1.7-7.3 6.3-6.2 10.8.3 1.2 2.1 1.2 2.4 0 0-.1.1-.2.1-.4-.8-.1-1.6-.2-2.5-.3 2 16.3 8 43.8 30 41.4 1.6-.2 1.6-2.7 0-2.5-20.4 2.2-25.7-23.8-27.5-38.9-.2-1.3-2.1-1.8-2.5-.3 0 .1-.1.2-.1.4h2.4c-1.8-7.1 9.2-9.8 14.1-9.8 1.9 0 4 .3 5.9 1 3.9 1.5 2.5 3.4 2.3 6.9-.7 9.6-.3 19.3.9 28.8.1 1.2 1.6 1.7 2.3.6.2-.3.4-.6.6-.8-.7.1-1.3.2-2 .3 1.5 1.8 3.6 4.4 3.8 6.8.1 1.7-.9 4.3-1.3 6-.3 1.4 2.1 2 2.5.5z" class="st6"/></g></g></g><g id="Layer_7"><g id="XMLID_8_"><path id="XMLID_82_" d="M213.3 444.6c4.3 6.4 9.4 12.1 15.3 16.9 1.5 1.3 3.1 2.5 4.9 3.5 1.8 1 3.7 1.8 5.6 2.6 2.9 1.2 5.7 2.4 8.6 3.6 8.6 3.6 17.1 7.2 26 10 2.4.8 5.2 1.9 5.6 4.4-3.5-.9-7-1.7-10.5-2.6-1.9-.5-3.8-.9-5.7-1.5-2-.7-4-1.5-6-2.3-2.4-1-4.8-1.9-7.1-2.9-6.1-2.5-12.4-5.1-16.8-10 .7 1.1 1.5 2.5 1 3.7-.6 1.5-2.4 1.9-3.9 2-3.5.4-7.2.8-10.3-.8-1.3-.7-2.4-1.6-3.5-2.6-3-2.6-5.9-5.4-8.7-8.2-3.3-3.3-6.5-6.9-8.3-11.3-.5-1.3-.8-2.9.1-3.9.5-.6 1.4-.8 2.1-.9 2.8-.6 5.6-1.2 8.5-1.8.5-.1 1.1-.2 1.6-.1 1.6.4 1.9 2.4 2 4" class="st4"/><g id="XMLID_61_"><path id="XMLID_75_" d="M212.2 445.2c6.5 9.5 14.8 18.6 25.5 23.2 6 2.6 12.1 5.1 18.1 7.6 3.4 1.4 6.9 2.8 10.4 4.1 3.2 1.1 10.6 2.4 11.8 5.9l1.5-1.5c-7.5-1.8-15-3.4-22.2-6.4-8.2-3.3-17.1-6.1-23.3-12.6-1-1-2.7.3-2 1.5 3.4 6.1-10.8 3.9-12.8 2.5-3.4-2.2-6.6-5.7-9.5-8.6-2.6-2.6-6.6-5.9-7.9-9.4-3.5-9.5 10.4-7.4 10.6-4.9.1 1.6 2.6 1.6 2.5 0-.2-2-.6-4.5-2.9-5.2-1.6-.4-4.2.5-5.6.8-2 .4-4.6.5-6.4 1.4-6.4 3.2 1.8 12.5 4.6 15.6 5 5.4 11.6 13.9 19.5 14.5 5.5.4 14.2-.7 10.1-8-.7.5-1.3 1-2 1.5 5.7 5.9 13.4 8.7 20.9 11.8 8.5 3.5 16.9 5.7 25.8 7.8.9.2 1.9-.6 1.5-1.5-1.5-4.3-6.1-5.1-10-6.4-7.8-2.7-15.4-5.9-23-9.1-6.5-2.8-13-5.1-18.5-9.7-5.6-4.7-10.4-10.2-14.5-16.2-.9-1.3-3.1 0-2.2 1.3z" class="st4"/></g></g></g></svg>