<svg xmlns="http://www.w3.org/2000/svg" xmlns:xlink="http://www.w3.org/1999/xlink" viewBox="0 0 612 792"><defs><path id="SVGID_1_" d="M323.22 122.25h100.17v100.17H323.22z"/></defs><style>.st3{fill:#d5e9c6}.st4{fill:#ef5ba1}.st5{clip-path:url(#XMLID_20_)}.st6{fill:#8dc63f}.st7{fill:#b9d989}.st9{clip-path:url(#XMLID_21_)}.st10{fill:#939598}.st13,.st14,.st15{clip-path:url(#SVGID_4_);fill:#39c4f3}.st14,.st15{fill:#2ca54f}.st15{fill:#31b456}</style><g id="Layer_1"><path id="XMLID_1_" fill="#e6e7e8" stroke="#e6e7e8" stroke-miterlimit="10" d="M283.6 312.97H174.96c-6.6 0-12-5.4-12-12v-63.99c0-6.6 5.4-12 12-12H283.6c6.6 0 12 5.4 12 12v63.99c0 6.6-5.4 12-12 12z"/><path id="XMLID_2_" fill="#d5e9c6" stroke="#d5e9c6" stroke-miterlimit="10" d="M432.92 210.24H324.28c-6.6 0-12-5.4-12-12v-63.99c0-6.6 5.4-12 12-12h108.64c6.6 0 12 5.4 12 12v63.99c0 6.6-5.4 12-12 12z"/><g id="XMLID_4_"><g id="XMLID_22_"><path id="XMLID_26_" fill="#e6e7e8" d="M162.26 299.14c-.32 6.56-2.85 12.48-7.34 17.27-1.63 1.74-.04 4.97 2.43 4.18 4.62-1.48 9.61-2.6 14.03-4.62 3.7-1.69 5.54-4.72 7.12-8.33.7-1.6-.08-3.87-2.16-3.76-4.67.24-9.03 5.35-12.51 8.09 1.39.81 2.79 1.62 4.18 2.43.44-2.12 1.22-3.86 2.46-5.62 1.65-2.32-2.01-5.09-3.93-3.03-1.75 1.88-3.29 3.87-4.67 6.04-1.75 2.75 2.49 5.12 4.32 2.52 1.58-2.24 3.01-4.54 4.32-6.95 1.34-2.46-1.88-5.08-3.93-3.03-1.58 1.59-2.88 3.29-3.99 5.25-1.59 2.8 2.73 5.33 4.32 2.52.9-1.59 1.92-2.94 3.21-4.23l-3.93-3.03c-1.31 2.41-2.74 4.71-4.32 6.95l4.32 2.52c1.16-1.81 2.43-3.45 3.89-5.03l-3.93-3.03c-1.49 2.1-2.44 4.29-2.97 6.81-.54 2.59 2.24 3.95 4.18 2.43 1.51-1.19 3.03-2.38 4.54-3.57 1.16-.91 2.94-2.98 4.44-3.05-.72-1.25-1.44-2.51-2.16-3.76-1.61 3.68-3.09 5.71-7.03 7.09-3.67 1.29-7.43 2.38-11.14 3.56.81 1.39 1.62 2.79 2.43 4.18 5.41-5.77 8.41-12.91 8.8-20.8.18-3.22-4.82-3.21-4.98 0z"/></g></g><g id="XMLID_5_"><g id="XMLID_29_"><path id="XMLID_33_" d="M439.27 195.12c.02 8.16 4.8 14.88 12.25 17.99.22-1.64.44-3.27.66-4.91-3.9-.12-7.94-.02-11.74-1.04-2.93-.78-8.11-3.17-8.27-6.86-.41.72-.83 1.44-1.24 2.16.13-.06.25-.12.38-.18h-2.52c2.21 1.11 4.06 3.13 6.23 4.38 2.24 1.29 4.61 2.27 7.05 3.11 1.67.58 3.81-1.33 3.08-3.08-1.23-2.94-4.21-3.61-5.84-6.36l-3.42 3.42c2.21 1.14 4.26 2.42 6.25 3.91 2.58 1.93 5.07-2.41 2.52-4.32-1.99-1.49-4.04-2.77-6.25-3.91-2.15-1.11-4.75 1.18-3.42 3.42.74 1.25 1.56 2.41 2.65 3.4.16.15 2.7 1.78 2.69 1.76l3.08-3.08c-4-1.39-7.16-3.41-10.53-5.88-1.55-1.14-2.55-1.84-4.45-.92-.75.36-1.27 1.34-1.24 2.16.51 11.85 16.65 12.63 25.01 12.89 3.05.1 3.08-3.9.66-4.91-5.37-2.24-8.56-7.43-8.58-13.17-.02-3.2-5.02-3.2-5.01.02z" class="st3"/></g></g><g id="XMLID_6_"><g id="XMLID_36_"><path id="XMLID_40_" d="M440.11 194.55c.81 7.41 4.52 13.7 10.68 17.92 2.66 1.82 5.16-2.51 2.52-4.32-4.57-3.14-7.6-8.08-8.2-13.61-.35-3.15-5.36-3.19-5 .01z" class="st3"/></g></g></g><g id="Layer_2"><g id="XMLID_7_"><path id="XMLID_106_" d="M228.76 263.88c-1.79-4.58-4.61-8.75-8.19-12.09-2.67-2.5-6.39-4.63-9.8-3.38-2.8 1.03-4.39 3.98-5.51 6.78-1.14 2.85-2.07 5.87-1.87 8.93.29 4.46 2.94 8.41 5.91 11.73 5.48 6.14 12.37 10.99 19.97 14.06v-.01c7.6-3.05 14.5-7.89 19.99-14.03 2.97-3.32 5.62-7.26 5.92-11.72.21-3.06-.72-6.09-1.86-8.94-1.12-2.8-2.7-5.75-5.5-6.78-3.42-1.26-7.13.87-9.81 3.36-3.58 3.34-6.41 7.5-8.21 12.08" class="st4"/><g id="XMLID_49_"><path id="XMLID_79_" d="M231.17 263.22c-2.8-6.68-7.84-14.97-15.29-17.2-7.37-2.21-11.62 4.16-13.69 10.23-5.83 17.07 12.75 30.31 26.4 36.07 1.54.65 3.16-.96 3.16-2.41v-.01c-.61.8-1.22 1.61-1.84 2.41 13.66-5.74 32.26-18.95 26.45-36.03-1.98-5.82-5.86-12.02-12.94-10.42-7.85 1.78-13.17 10.52-16.05 17.35-1.25 2.96 3.59 4.25 4.82 1.33 1.97-4.67 6.37-12.45 11.82-13.69 7.01-1.6 9.6 10.76 8.21 15.53-2.86 9.84-14.8 17.39-23.64 21.11-1.04.43-1.84 1.21-1.84 2.41v.01c1.05-.8 2.11-1.61 3.16-2.41-8.84-3.73-20.76-11.3-23.6-21.14-1.39-4.8.78-14.62 6.41-15.37 6.22-.83 11.6 8.75 13.62 13.57 1.25 2.91 6.09 1.63 4.84-1.34z" class="st4"/></g></g><g id="XMLID_10_"><defs><circle id="XMLID_3_" cx="499.21" cy="166.25" r="37.67"/></defs><use fill="#cfe5ae" overflow="visible" xlink:href="#XMLID_3_"/><clipPath id="XMLID_20_"><use overflow="visible" xlink:href="#XMLID_3_"/></clipPath><g id="XMLID_11_" class="st5"><g id="XMLID_112_"><path id="XMLID_121_" d="M511.19 174.08c-5.56 7.42-19.27 5.95-24.29-.99-1.87-2.58-6.21-.09-4.32 2.52 7.41 10.25 24.98 11.59 32.92.99 1.94-2.57-2.4-5.07-4.31-2.52z" class="st6"/></g></g><g id="XMLID_17_" class="st5"><path id="XMLID_100_" d="M515.11 176.79c2.46 6.31 5.55 12.39 9.19 18.1" class="st7"/><g id="XMLID_80_"><path id="XMLID_94_" d="M512.69 177.46c2.59 6.52 5.71 12.76 9.45 18.7 1.71 2.72 6.04.21 4.32-2.52-3.5-5.57-6.51-11.39-8.94-17.5-1.18-2.97-6.02-1.68-4.83 1.32z" class="st6"/></g></g><g id="XMLID_18_" class="st5"><path id="XMLID_78_" d="M483.6 176.11c-3.08 6.29-5.96 12.68-8.63 19.15" class="st7"/><g id="XMLID_73_"><path id="XMLID_77_" d="M481.44 174.85c-3.16 6.49-6.11 13.08-8.88 19.75-1.23 2.97 3.6 4.26 4.82 1.33 2.6-6.27 5.4-12.45 8.37-18.56 1.41-2.88-2.9-5.41-4.31-2.52z" class="st6"/></g></g><g id="XMLID_9_" class="st5"><g id="XMLID_64_"><path id="XMLID_70_" d="M440.76 189.63c3.22 0 3.22-5 0-5s-3.22 5 0 5z" class="st6"/></g></g><g id="XMLID_13_" class="st5"><path id="XMLID_62_" d="M501.6 194.67c-.9 1.47-2.94 2.12-4.53 1.43 2.55-.18 5.09-.35 7.64-.53.47-.03 1-.1 1.27-.47.6-.82-.61-1.78-1.61-1.94-2.09-.34-4.3.12-6.1 1.25-.23.15-.47.32-.56.58-.24.67.61 1.2 1.29 1.4 2.14.62 4.38 1.09 6.59.82 2.21-.26 4.42-1.36 5.58-3.26 1.16-1.9.99-4.66-.7-6.11-.19-.17-.43-.32-.68-.27-.23.05-.39.25-.52.44-.91 1.31-1.67 3.05-.88 4.43.39.68 1.12 1.13 1.89 1.31 2.2.52 4.51-1.15 5.2-3.3.69-2.15.01-4.55-1.27-6.42-.36-.52-.84-1.05-1.47-1.07-.65-.02-1.17.52-1.53 1.05-.98 1.46-1.41 3.28-1.2 5.03.14 1.15.79 2.46 1.94 2.54.99.08 1.79-.8 2.3-1.65 1.22-2.06 1.75-4.52 1.48-6.9-.07-.59-.24-1.25-.76-1.52-.77-.39-1.63.34-2.14 1.04-2.28 3.15-3.26 7.21-2.69 11.06 2.6-2.81 3.92-6.78 3.5-10.59-.08-.73-.31-1.57-1-1.83-.8-.31-1.61.37-2.16 1.02-2.52 2.99-4.16 6.69-4.69 10.56.72.1 1.24-.65 1.54-1.32 1.23-2.72 1.9-5.7 1.95-8.69.01-.42-.02-.91-.35-1.17-.59-.48-1.42.18-1.86.8-2.3 3.17-4.05 6.73-5.16 10.49-.18.6-.23 1.45.36 1.66 2.38-2.96 3.13-7.15 1.92-10.74-2.57 2.74-4.26 6.29-4.77 10.01.96-2.22 1.41-4.66 1.3-7.07-.02-.37-.06-.75-.27-1.05-.56-.78-1.83-.39-2.55.25-1.67 1.48-2.4 3.93-1.81 6.07 1.09-1.69 1.55-3.77 1.28-5.76-.09-.69-.3-1.42-.83-1.87-.66-.55-1.69-.51-2.43-.07s-1.24 1.21-1.57 2.01c-.82 1.97-.74 4.29.19 6.2.81-2.53.72-5.34-.26-7.82-.31-.78-.72-1.56-1.41-2.05-.68-.49-1.69-.6-2.34-.07-.35.29-.56.72-.72 1.15-.7 1.86-.79 3.93-.26 5.84.06-2.94-.18-5.9-.7-8.79-1.54 2.46-2.63 5.19-3.22 8.03.49-3.12.7-6.28.62-9.43-1.72 4.26-3.44 8.51-5.16 12.77-.36.88-.72 1.81-.6 2.76.25 1.93 2.34 2.99 4.19 3.58 5.03 1.61 10.32 2.15 15.57 2.68 2.99.3 6.02.6 9 .2 5.97-.8 11.47-4.58 14.35-9.86-.92 1.51-1.84 3.03-2.76 4.54 1.58-.08 2.81-1.91 2.27-3.4-2.86.9-5.72 1.81-8.58 2.71 2.2-2.52 4.24-5.18 6.12-7.94-2.23 3.52-4.46 7.04-6.68 10.56.32-2.54.63-5.09.95-7.63.09-.75.15-1.62-.37-2.16-.74-.76-2.01-.35-2.96.13-3.42 1.75-6.71 3.83-10.39 4.95-3.67 1.13-7.92 1.17-11.1-.98 2.08 2.3 4.78 4.04 7.74 4.97-4.6-1.63-9.3-2.94-14.08-3.92 1.27 2 3.62 3.27 5.99 3.23.26 0 .53-.03.74-.19.47-.38.2-1.14-.14-1.63-1.46-2.1-3.75-3.6-6.25-4.1-.38-.08-.8-.12-1.14.08-.73.45-.41 1.57 0 2.32.42.78.92 1.63 1.75 1.91 1.23.42 2.55-.69 2.87-1.95.31-1.26-.08-2.58-.47-3.82-.14-.45-.52-1.01-.94-.8-.22.11-.3.37-.34.61-.22 1.2-.14 2.46.23 3.63" class="st7"/><g id="XMLID_57_"><path id="XMLID_61_" d="M499.83 192.9c-.7.26-1.4.52-2.09.78-.22 1.64-.44 3.27-.66 4.91 2.67-.19 13.62.77 11.27-5.3-1.81-4.68-9.82-2.73-12.39-.09-.6.61-.93 1.59-.64 2.43 1.86 5.46 11.62 5 15.56 2.15 4.25-3.07 5.12-10.46-.41-12.65-.85-.34-1.8.1-2.43.64-2.81 2.39-3.51 7.45-.09 9.64 3.59 2.29 8.21-.11 9.71-3.73 1.33-3.23.34-8.57-2.79-10.56-3.45-2.19-6.33 1.53-7.09 4.61-.75 3.06.11 8.29 4.2 8.33 4.48.04 6.29-6.09 6.34-9.62.04-3.12-1.71-6.76-5.46-5.13-4.67 2.02-5.58 10.04-5.2 14.27.17 1.92 2.75 3.6 4.27 1.77 2.67-3.22 7.6-12.98 2.25-16.15-6.07-3.61-10.1 9.08-10.78 12.88-.3 1.65 1.13 3.86 3.08 3.08 4.15-1.67 8.74-14.49 2.81-16.04-3.56-.93-5.74 3.85-7 6.26-1.46 2.8-4.22 7.39-2.15 10.39 1.11 1.61 3.2 1.59 4.32 0 2.69-3.84 3.37-8.14 2.17-12.67-.45-1.72-2.94-2.55-4.18-1.1-2.82 3.3-4.63 6.83-5.41 11.11-.58 3.17 3.71 4.36 4.82 1.33 1.18-3.22 3.42-11.65-2.47-11.67-4.9-.01-6.24 6.16-5.69 9.87.32 2.15 3.63 2.39 4.57.6 1.76-3.38 3.34-11.28-2.56-11.76-6.08-.49-6.81 7.65-5.36 11.67.79 2.18 4.2 2.56 4.82 0 .97-4.01 1.08-12.51-4.59-13.35-5.65-.84-5.92 6.73-5.21 10.41.54 2.81 4.91 2.1 4.91-.66 0-3.19-.29-6.31-.79-9.46-.35-2.2-3.57-2.33-4.57-.6-1.59 2.76-2.71 5.52-3.47 8.63 1.61.44 3.21.89 4.82 1.33.47-3.37.73-6.68.7-10.09-.03-3-3.9-3.16-4.91-.66-1.6 3.95-3.25 7.88-4.79 11.86-.85 2.2-1.61 4.43-.36 6.65 2.48 4.39 9.92 4.98 14.23 5.59 12.73 1.81 25.42 2.3 32.84-10.05 1.66-2.77-2.65-5.27-4.32-2.52-.92 1.51-1.84 3.03-2.76 4.54-1.1 1.82.73 4.35 2.82 3.67 2.76-.89 4.35-2.83 4.1-5.81-.13-1.54-1.5-2.94-3.16-2.41-2.86.9-5.72 1.81-8.58 2.71.81 1.39 1.62 2.79 2.43 4.18 2.32-2.71 4.47-5.52 6.51-8.45l-4.32-2.52c-2.23 3.52-4.46 7.04-6.68 10.56 1.55.42 3.11.84 4.66 1.26.47-3.8 3.22-13.47-3.86-12.58-2.88.36-5.58 2.61-8.12 3.84-4.21 2.04-8.79 3.36-13.13.89-2.46-1.4-5.04 1.89-3.03 3.93 2.58 2.61 5.4 4.36 8.84 5.62.44-1.61.89-3.21 1.33-4.82-4.62-1.59-9.3-2.89-14.08-3.92-2.58-.55-3.97 2.25-2.43 4.18 2.05 2.57 11.34 7.14 11.23.5-.07-4.29-8.81-9.96-12.23-6.39-3.25 3.39 1.82 9.52 5.9 7.99 4.34-1.63 4.53-9.98-.07-11.22-1.05-.28-2.29.18-2.82 1.15-1.1 1.97-.77 4.02-.37 6.17.59 3.16 5.41 1.82 4.82-1.33-.05-.77-.09-1.54-.14-2.31-.94.38-1.88.77-2.82 1.15-.54.2-.67.6-.38 1.19-.72.41-1.44.83-2.16 1.24-.09.01 5.48 1.31 5.12 2.49l1.75-1.75c-1.96-.07-3.39-.87-4.3-2.39-.81 1.39-1.62 2.79-2.43 4.18 4.78 1.02 9.46 2.32 14.08 3.92 3.06 1.05 4.32-3.73 1.33-4.82-2.64-.97-4.66-2.33-6.64-4.33l-3.03 3.93c4.33 2.47 9.13 2.55 13.8.96 2.51-.85 5.01-2.04 7.3-3.39.48-.26.97-.52 1.45-.78 1.23-1.47 1.49-1.13.79 1.01.21 1.74-.5 4.01-.71 5.72-.33 2.63 3.46 3.16 4.66 1.26 2.23-3.52 4.46-7.04 6.68-10.56 1.74-2.75-2.5-5.14-4.32-2.52-1.79 2.58-3.69 5.05-5.73 7.43-1.51 1.77-.12 4.98 2.43 4.18 2.86-.9 5.72-1.81 8.58-2.71-1.05-.8-2.11-1.61-3.16-2.41-.14.33-.29.66-.43.99.94 1.22 1.88 2.45 2.82 3.67.92-1.51 1.84-3.03 2.76-4.54l-4.32-2.52c-5.67 9.42-15.02 9.19-24.7 8.05-2.11-.25-11.46-.6-13-2.93-1.39-2.09 1.19-6.1 1.97-8.03.98-2.43 1.97-4.86 2.95-7.3-1.64-.22-3.27-.44-4.91-.66.02 2.95-.12 5.83-.53 8.76-.43 3.08 4.04 4.55 4.82 1.33.65-2.67 1.59-5.04 2.97-7.43-1.52-.2-3.05-.4-4.57-.6.44 2.72.61 5.38.61 8.13 1.64-.22 3.27-.44 4.91-.66-.89-2.02-.77-2.7.38-2.03.38 1.68.3 3.33-.22 4.97h4.82c-1.06-2.95 1.33-5.97-1.21-1.11 1.52.2 3.05.4 4.57.6-.84-5.62-.7-.34-1.49 1.8 1.61.44 3.21.89 4.82 1.33.63-3.42 1.86-6.25 4.13-8.91-1.39-.37-2.79-.74-4.18-1.1.86 3.28.26 6.06-1.67 8.82h4.32c-.44-.64 3.52-9.19 4.5-9.18-.72-.41-1.44-.83-2.16-1.24.08.14-.54 7.06-1.64 7.5l3.08 3.08c.11-.6 3.02-10.18 4.05-9.46-1.11-.78-1.22 2.45-1.26 2.66-.42 1.94-1.36 3.67-2.62 5.2 1.42.59 2.85 1.18 4.27 1.77-.16-1.7 1.24-8.58 1.05-8.77-.8-.8-.73 1.38-.92 2.02-.31 1.01 2.99-1.1-1.22 2.47-.81.21-1.62.43-2.43.64-.18 1.08-.36 2.16-.53 3.24-1.01.97-2.18 1.45-3.5 1.43-.51.06-4.83.06-4.97-.33-.21.81-.43 1.62-.64 2.43 1.48-.25 2.81-.8 4-1.65.41-.72.83-1.44 1.24-2.16-1.57 1.01-5.8.53-7.65.66-2.66.18-3.58 4.27-.66 4.91 2.8.62 4.98.08 6.96-2.07 2.16-2.37-1.37-5.91-3.55-3.54z" class="st6"/></g></g><use fill="none" stroke="#cfe5ae" stroke-miterlimit="10" overflow="visible" xlink:href="#XMLID_3_"/></g><circle id="XMLID_8_" cx="499.21" cy="160.04" r="14.16" fill="#8dc63f" stroke="#8dc63f" stroke-miterlimit="10"/><g id="XMLID_41_"><defs><circle id="XMLID_47_" cx="107.99" cy="268.98" r="37.67"/></defs><use fill="#d1d3d4" overflow="visible" xlink:href="#XMLID_47_"/><clipPath id="XMLID_21_"><use overflow="visible" xlink:href="#XMLID_47_"/></clipPath><g id="XMLID_67_" class="st9"><g id="XMLID_113_"><path id="XMLID_117_" d="M119.97 276.81c-5.56 7.42-19.27 5.95-24.29-.99-1.87-2.58-6.21-.09-4.32 2.52 7.41 10.25 24.98 11.59 32.92.99 1.93-2.57-2.4-5.07-4.31-2.52z" class="st10"/></g></g><g id="XMLID_66_" class="st9"><g id="XMLID_107_"><path id="XMLID_111_" d="M121.47 280.19c2.59 6.52 5.71 12.76 9.45 18.7 1.71 2.72 6.04.21 4.32-2.52-3.5-5.57-6.51-11.39-8.94-17.5-1.18-2.97-6.02-1.68-4.83 1.32z" class="st10"/></g></g><g id="XMLID_54_" class="st9"><g id="XMLID_101_"><path id="XMLID_105_" d="M90.21 277.58c-3.16 6.49-6.11 13.08-8.88 19.75-1.23 2.97 3.6 4.26 4.82 1.33 2.6-6.27 5.4-12.45 8.37-18.56 1.41-2.88-2.9-5.41-4.31-2.52z" class="st10"/></g></g><g id="XMLID_43_" class="st9"><g id="XMLID_95_"><path id="XMLID_99_" d="M49.53 292.36c3.22 0 3.22-5 0-5-3.21 0-3.22 5 0 5z" class="st10"/></g></g><g id="XMLID_42_" class="st9"><g id="XMLID_89_"><path id="XMLID_93_" d="M108.61 295.63c-.7.26-1.4.52-2.09.78-.22 1.64-.44 3.27-.66 4.91 2.67-.19 13.62.77 11.27-5.3-1.81-4.68-9.82-2.73-12.39-.09-.6.61-.93 1.59-.64 2.43 1.86 5.46 11.62 5 15.56 2.15 4.25-3.07 5.12-10.46-.41-12.65-.85-.34-1.8.1-2.43.64-2.81 2.39-3.51 7.45-.09 9.64 3.59 2.29 8.21-.11 9.71-3.73 1.33-3.23.34-8.57-2.79-10.56-3.45-2.19-6.33 1.53-7.09 4.61-.75 3.06.11 8.29 4.2 8.33 4.48.04 6.29-6.09 6.34-9.62.04-3.12-1.71-6.76-5.46-5.13-4.67 2.02-5.58 10.04-5.2 14.27.17 1.92 2.75 3.6 4.27 1.77 2.67-3.22 7.6-12.98 2.25-16.15-6.07-3.61-10.1 9.08-10.78 12.88-.3 1.65 1.13 3.86 3.08 3.08 4.15-1.67 8.74-14.49 2.81-16.04-3.56-.93-5.74 3.85-7 6.26-1.46 2.8-4.22 7.39-2.15 10.39 1.11 1.61 3.2 1.59 4.32 0 2.69-3.84 3.37-8.14 2.17-12.67-.45-1.72-2.94-2.55-4.18-1.1-2.82 3.3-4.63 6.83-5.41 11.11-.58 3.17 3.71 4.36 4.82 1.33 1.18-3.22 3.42-11.65-2.47-11.67-4.9-.01-6.24 6.16-5.69 9.87.32 2.15 3.63 2.39 4.57.6 1.76-3.38 3.34-11.28-2.56-11.76-6.08-.49-6.81 7.65-5.36 11.67.79 2.18 4.2 2.56 4.82 0 .97-4.01 1.08-12.51-4.59-13.35-5.65-.84-5.92 6.73-5.21 10.41.54 2.81 4.91 2.1 4.91-.66 0-3.19-.29-6.31-.79-9.46-.35-2.2-3.57-2.33-4.57-.6-1.59 2.76-2.71 5.52-3.47 8.63 1.61.44 3.21.89 4.82 1.33.47-3.37.73-6.68.7-10.09-.03-3-3.9-3.16-4.91-.66-1.6 3.95-3.25 7.88-4.79 11.86-.85 2.2-1.61 4.43-.36 6.65 2.48 4.39 9.92 4.98 14.23 5.59 12.73 1.81 25.42 2.3 32.84-10.05 1.66-2.77-2.65-5.27-4.32-2.52-.92 1.51-1.84 3.03-2.76 4.54-1.1 1.82.73 4.35 2.82 3.67 2.76-.89 4.35-2.83 4.1-5.81-.13-1.54-1.5-2.94-3.16-2.41-2.86.9-5.72 1.81-8.58 2.71.81 1.39 1.62 2.79 2.43 4.18 2.32-2.71 4.47-5.52 6.51-8.45l-4.32-2.52c-2.23 3.52-4.46 7.04-6.68 10.56 1.55.42 3.11.84 4.66 1.26.47-3.8 3.22-13.47-3.86-12.58-2.88.36-5.58 2.61-8.12 3.84-4.21 2.04-8.79 3.36-13.13.89-2.46-1.4-5.04 1.89-3.03 3.93 2.58 2.61 5.4 4.36 8.84 5.62.44-1.61.89-3.21 1.33-4.82-4.62-1.59-9.3-2.89-14.08-3.92-2.58-.55-3.97 2.25-2.43 4.18 2.05 2.57 11.34 7.14 11.23.5-.07-4.29-8.81-9.96-12.23-6.39-3.25 3.39 1.82 9.52 5.9 7.99 4.34-1.63 4.53-9.98-.07-11.22-1.05-.28-2.29.18-2.82 1.15-1.1 1.97-.77 4.02-.37 6.17.59 3.16 5.41 1.82 4.82-1.33-.05-.77-.09-1.54-.14-2.31-.94.38-1.88.77-2.82 1.15-.54.2-.67.6-.38 1.19-.72.41-1.44.83-2.16 1.24-.09.01 5.48 1.31 5.12 2.49l1.75-1.75c-1.96-.07-3.39-.87-4.3-2.39-.81 1.39-1.62 2.79-2.43 4.18 4.78 1.02 9.46 2.32 14.08 3.92 3.06 1.05 4.32-3.73 1.33-4.82-2.64-.97-4.66-2.33-6.64-4.33l-3.03 3.93c4.33 2.47 9.13 2.55 13.8.96 2.51-.85 5.01-2.04 7.3-3.39.48-.26.97-.52 1.45-.78 1.23-1.47 1.49-1.13.79 1.01.21 1.74-.5 4.01-.71 5.72-.33 2.63 3.46 3.16 4.66 1.26 2.23-3.52 4.46-7.04 6.68-10.56 1.74-2.75-2.5-5.14-4.32-2.52-1.79 2.58-3.69 5.05-5.73 7.43-1.51 1.77-.12 4.98 2.43 4.18 2.86-.9 5.72-1.81 8.58-2.71-1.05-.8-2.11-1.61-3.16-2.41-.14.33-.29.66-.43.99.94 1.22 1.88 2.45 2.82 3.67.92-1.51 1.84-3.03 2.76-4.54l-4.32-2.52c-5.67 9.42-15.02 9.19-24.7 8.05-2.11-.25-11.46-.6-13-2.93-1.39-2.09 1.19-6.1 1.97-8.03.98-2.43 1.97-4.86 2.95-7.3-1.64-.22-3.27-.44-4.91-.66.02 2.95-.12 5.83-.53 8.76-.43 3.08 4.04 4.55 4.82 1.33.65-2.67 1.59-5.04 2.97-7.43-1.52-.2-3.05-.4-4.57-.6.44 2.72.61 5.38.61 8.13 1.64-.22 3.27-.44 4.91-.66-.89-2.02-.77-2.7.38-2.03.38 1.68.3 3.33-.22 4.97h4.82c-1.06-2.95 1.33-5.97-1.21-1.11 1.52.2 3.05.4 4.57.6-.84-5.62-.7-.34-1.49 1.8 1.61.44 3.21.89 4.82 1.33.63-3.42 1.86-6.25 4.13-8.91-1.39-.37-2.79-.74-4.18-1.1.86 3.28.26 6.06-1.67 8.82h4.32c-.44-.64 3.52-9.19 4.5-9.18-.72-.41-1.44-.83-2.16-1.24.08.14-.54 7.06-1.64 7.5l3.08 3.08c.11-.6 3.02-10.18 4.05-9.46-1.11-.78-1.22 2.45-1.26 2.66-.42 1.94-1.36 3.67-2.62 5.2 1.42.59 2.85 1.18 4.27 1.77-.16-1.7 1.24-8.58 1.05-8.77-.8-.8-.73 1.38-.92 2.02-.31 1.01 2.99-1.1-1.22 2.47-.81.21-1.62.43-2.43.64-.18 1.08-.36 2.16-.53 3.24-1.01.97-2.18 1.45-3.5 1.43-.51.06-4.83.06-4.97-.33-.21.81-.43 1.62-.64 2.43 1.48-.25 2.81-.8 4-1.65.41-.72.83-1.44 1.24-2.16-1.57 1.01-5.8.53-7.65.66-2.66.18-3.58 4.27-.66 4.91 2.8.62 4.98.08 6.96-2.07 2.16-2.37-1.37-5.91-3.55-3.54z" class="st10"/></g></g><use fill="none" stroke="#d1d3d4" stroke-miterlimit="10" overflow="visible" xlink:href="#XMLID_47_"/></g><circle id="XMLID_19_" cx="107.99" cy="262.77" r="14.16" fill="#939598" stroke="#939598" stroke-miterlimit="10"/><defs><use xlink:href="#SVGID_1_"/></defs><clipPath id="SVGID_2_"><use overflow="visible" xlink:href="#SVGID_1_"/></clipPath><g clip-path="url(#SVGID_2_)"><defs><use id="SVGID_3_" xlink:href="#SVGID_1_"/></defs><clipPath id="SVGID_4_"><use overflow="visible" xlink:href="#SVGID_3_"/></clipPath><path d="M381.8 140.69c-6.24-.97-15.85.51-20.99 4.05s-8.65 9.18-9.54 15.21c-.5 3.38-.78 7.28-.2 10.66.98 5.69 4.13 10.75 6.77 14.05 4.08 5.1 12.19 9.01 21.64 8.39 3.45-.23 10.18-2.75 13.19-4.4 2.8-1.54 5.11-3.81 6.95-6.37 2.08-2.9 3.59-6.19 4.22-9.66.92-5.03.37-11.01-1.69-15.72-2-4.56-4.98-8.67-9.07-11.67-2.43-1.79-7.4-3.94-11.28-4.54" class="st13"/><path d="M382.2 139.24c-5.3-.78-10.92-.22-16.03 1.39-5.41 1.69-9.87 5.06-12.92 9.86-3.3 5.18-4.34 11.66-3.96 17.72.39 6.2 3.2 11.97 6.95 16.83 3.22 4.16 7.83 6.95 12.86 8.4 5.51 1.59 11.09 1.49 16.52-.28 5.22-1.7 10.17-3.94 13.79-8.21 4.15-4.89 6.37-10.91 6.35-17.33-.01-7-2.5-13.61-6.94-19.01-4.14-5.03-10.2-8.3-16.62-9.37-1.89-.31-2.71 2.58-.8 2.9 5.09.84 10.05 3.11 13.68 6.81 3.82 3.88 6.48 8.99 7.34 14.38.91 5.66.04 11.47-2.94 16.41-1.47 2.43-3.36 4.7-5.66 6.39-1.82 1.33-3.9 2.25-5.99 3.07-2.14.84-4.35 1.59-6.6 2.07-2.36.51-4.87.43-7.26.14-4.82-.6-9.7-2.53-13.29-5.87-3.65-3.4-6.41-8.38-7.71-13.16-.79-2.91-.86-5.9-.63-8.9.21-2.7.63-5.37 1.64-7.9 2.02-5.1 6.14-9.48 11.29-11.46 4.98-1.9 10.82-2.75 16.12-1.97 1.9.27 2.71-2.63.81-2.91" class="st13"/><path d="M395.89 152.91c-.4.39-1.06-.09-1.51.26-.32.25-.41.87-.42 1.24-.04 1.05.49 2.05 1.64 1.95 1.81-.16 2.16-2.17 3.7-2.58.57-.15 2.21.5 2.27-.53.03-.6-.69-1.53-.93-2.03-.25-.51-.48-1.11-.95-1.46-.48-.37-.8-.29-1.34-.23-.09.04-.18.09-.26.15-.51-.12-.81-.45-.88-.98-.09-.31-.04-.83-.22-1.11-.41-.62-1.3-.4-1.72.14-.24.31-.34.71-.2 1.08.2.52.93.48.4 1.12-.13.16-.15.37 0 .53.17.17.46.19.59.32.36.36.06-.11-.02.37-.06.38-.12.7.31.9.24.11.52-.09.72-.02.27-.13.32-.07.15.18-.01.21-.11.3-.32.29-.27.09-.29-.06-.51-.04-.39.04-.74.2-.69.66.06.47.81.48.75 0 .11.9 1.32-.26 1.45-.57.2-.46.3-1.09-.28-1.31-.07-.03-.85-.02-.77.12.06.11.35-.34.37-.48.12-.88-.87-.56-1.24-.95v.53c.28-.33.82-.94.54-1.43-.07-.12-.38-.22-.41-.3.16-.38.25-.45.26-.23.05.27.13.53.24.78.19.45.55 1.18 1.11 1.27.19.03.34-.07.52-.09.42-.35.87-.22 1.36.39.13.25.25.5.38.75.1.19.75 1.21.64 1.4.04-.06-1.02-.03-1.03-.03-.81.1-1.41.31-1.95.91-.42.46-.58 1-1.15 1.36-1.15.74-2.67-.85-1.43-1.47.08-.04.61.09.75.06.27-.07.43-.21.62-.4.34-.33-.2-.86-.54-.52" class="st14"/><path d="M361.41 158.78c-1.06.92-2.57 4.28-.32 4.85.46.12.84-.1 1.23-.32.21-.12.77-.62 1.01-.65.59-.06.08.25-.03.48-.72 1.5 1.34 1.08 1.35 2.35 0 .48.76.48.75 0-.01-.91-.46-1.02-.97-1.6-.23-.26-.42-.16-.23-.71.05-.15.21-.28.26-.44.07-.26.05-.6-.13-.82-.47-.57-1.07-.09-1.54.21-.23.15-.57.48-.84.54-1.21.27-1.25-.44-1.21-1.13.06-.9.54-1.64 1.21-2.22.36-.32-.17-.85-.54-.54" class="st15"/><path d="M354.8 150.22c.2 1.86-1.49 3.18-1.67 4.97-.2 1.94 1.24 4.08 2.1 5.72.21.39.77.11.69-.29-.23-1.09-.45-2.17-.68-3.26-.18.14-.37.28-.55.42.83.6 1.74 1.26 2.17 2.23.35.79.17 1.6.39 2.41.34 1.25 1.59 1.65 2.69 2.06.71.27 1.45.51 2.21.59.3.03.84-.05 1.11.13.13.09.29.51.44.65.6.58 1.6.57 1.97-.25.2-.44-.45-.82-.65-.38-.45 1-1.17-.54-1.25-.72-.05-.11-.21-.2-.32-.19-1.32.13-2.5-.24-3.71-.72-.42-.17-1.09-.4-1.43-.75-.58-.61-.35-1.56-.49-2.29-.29-1.56-1.54-2.54-2.75-3.42-.29-.21-.61.13-.55.42.23 1.09.45 2.17.68 3.26.23-.1.46-.19.69-.29-.98-1.87-2.6-4.2-1.68-6.35.57-1.32 1.52-2.45 1.36-3.97-.07-.46-.82-.46-.77.02" class="st15"/><path d="M361.78 159.31c1.53-.13 4.02-.74 4.81 1.03.07.15.28.22.42.17.34-.1.51-.21.68-.53.16-.31.06-.33.15-.65-.1-.33.01-.59.31-.78.13-.28.34-.46.63-.51 1.01-.67 1.2-1.59 1.85-2.57.54-.81 1.38-1.42 2.31-1.7.83-.25 1.57-.04 2.4-.13.82-.09 1.55-.63 1.43-1.52-.02-.16-.1-.32-.28-.36-.36-.09-.68-.13-1.04-.12.12.09.24.18.36.28l-.12-.75c-.02-.12-.15-.23-.26-.26-.28-.07-.56-.15-.84-.22v.72c1.04-.44 2.08-.71 3.21-.82-.09-.21-.18-.43-.27-.64-.75.95-.54 2.57.91 2.65.51.03 1.01-.22 1.19-.71.21-.57-.76-2.25-.37-2.52.25-.18.24-.59-.09-.69-1.02-.28-.85-1.51-1.78-1.82-.69-.23-1.42.21-1.96.6.18.14.37.28.55.42.44-1.57-1.57-2.05-2.58-1.23-.63.51-1.58 2.8-2.52 2.37-.25-.11-.58-.78-.83-.99-.41-.34-.88-.55-1.39-.7.07.18.15.37.22.55.68-1.18 1.92-1.73 3.24-1.47.48.09 1.11.37 1.52-.06.2-.2.13-.32.21-.54.17-.54.17-.87.67-1.18.58-.36 1.12-.54 1.51-1.13-.14.06-.28.11-.42.17-.02.67-.29 1.03-.83 1.09-.23.07-.35.34-.22.55.75 1.23 3.3 1.25 4.28.31.46-.44.7-1.12.42-1.73-.4-.86-1.7-.84-2.03-1.68-.09.15-.18.31-.26.46 1.28-.45 2.62-.55 3.93-.13 1.47.47.61 1.56.84 2.74.21 1.05 1.15 2.03 2.28 1.6.73-.28 1.11-1.01 1.73-1.42.8-.53 1.83-.55 2.76-.62 1.29-.1 2.59-.22 3.5-1.24.32-.36-.21-.89-.53-.53-1.09 1.21-2.86.92-4.33 1.14-.62.09-1.24.25-1.78.59-.72.46-1.05 1.34-1.98 1.22-1.73-.23-.54-2.17-.85-3.21-.14-.48-.52-.63-.96-.82-1.55-.64-3.26-.6-4.82-.05-.18.06-.34.26-.26.46.23.58.61.83 1.15 1.13.13.07.38.14.47.25.32.14.27.42-.14.84.06.59-.13.86-.59.8-.58.14-1.86.04-2.19-.5-.07.18-.15.37-.22.55.68-.2 1.48-.5 1.62-1.28.11-.6-.22-1.11-.79-1.26-.17-.04-.33.03-.42.17-.47.71-1.43.76-1.99 1.36-.17.18-.25.36-.33.59-.18.46.08.62-.58.65-.38.02-.8-.17-1.21-.15-.41.02-.81.11-1.19.27-.81.33-1.42.9-1.85 1.65-.12.21-.01.48.22.55.91.27 1.53.82 1.92 1.67.05.12.2.19.32.19.71-.01 1.23-.29 1.72-.8.26-.28.45-.61.67-.92.16-.27.35-.52.55-.76.45-.62.99-.54 1.6.24-.08.29.28.63.55.42 1.34-.99 1.94.95 3.16 1.29l-.09-.69c-.35.25-.51.49-.53.94-.01.2.06.47.12.66.05.12.1.23.15.35.33.51.15.46-.56-.17.18-.22.09-.68-.27-.64-1.19.12-2.31.39-3.41.85-.32.13-.39.62 0 .72.52.14.62.18.71.71.03.16.21.28.36.28.29-.02.57.01.84.1-.09-.12-.18-.24-.28-.36.13 1.02-2 .7-2.48.76-.42.05-.83.16-1.23.32-.89.36-1.68.96-2.23 1.75-.3.42-.48.9-.72 1.35-.39.73-.79.89-1.48 1.28-.28.16-.51.28-.67.57-.21.39.05 1.5-.42 1.65.14.06.28.12.42.17-.94-2.11-3.62-1.56-5.46-1.41-.42.06-.42.81.06.77M362.22 143.86c1.23-.64 2.35.43 3.52.7.57.13 1.29.06 1.52-.58.18-.5-.11-.93-.59-1.09-.44-.15-.92-.18-1.37-.33-.43-.14-.75-.16-1.19-.07-.47.09-.27.81.2.72.27-.05 1.4.27 1.84.38.44 0 .43.04-.01.12-.22.13-.43.13-.64-.01-.29-.07-.6-.27-.89-.39-.93-.39-1.83-.58-2.76-.09-.43.22-.06.87.37.64M365.82 141.65c.49.53 1.28 1.68 2.12 1.09.29-.2.37-.56.28-.89-.07-.24-.35-.57-.27-.82.14-.46-.59-.66-.72-.2-.06.21-.05.43.02.64.05.15.27.43.25.59-.01.11.07.07-.08.09-.12.02-.28-.18-.35-.25-.24-.25-.47-.51-.71-.77-.33-.37-.87.16-.54.52M365.48 165.73c.13.86 1.06 1.38 1.93 1.41s1.69-.31 2.53-.52c.84-.21 1.79-.29 2.51.18.29.19.54.47.88.57.33.09.67-.01 1-.03.91-.05 1.74.51 2.38 1.16s1.16 1.42 1.89 1.97c1.25.95 2.91 1.12 4.36 1.72.26.11.54.25.65.51.2.5-.32.96-.65 1.37-1.24 1.54-.32 4.31-1.93 5.45-.5.35-1.15.46-1.59.88-.81.79-.6 2.38-1.6 2.91-.54.28-1.38.24-1.54.82-.09.31.09.66-.02.96-.17.45-.82.44-1.22.7-.52.33-.58 1.06-.48 1.67.09.61.29 1.24.08 1.82-.18.5-.64 1.03-.36 1.47.2.32.71.4.82.76.09.32-.23.64-.56.67-.33.02-.64-.16-.91-.36-.97-.74-1.68-1.81-1.98-3-.17-.67-.2-1.37-.24-2.06-.08-1.47-.16-2.94-.23-4.41-.07-1.35-.12-2.8.63-3.93-.99-.34-1.87-.97-2.51-1.8-.21-.27-.4-.58-.7-.75-.31-.17-.68-.17-1-.33-.69-.33-.87-1.2-.98-1.96-.14-1.03-.28-2.11.06-3.1.16-.48.44-.92.52-1.41.25-1.43-1.14-2.66-2.53-3.06.47.12.9.41 1.2.8" class="st15"/><path d="M365.12 165.83c.43 1.56 2.05 1.85 3.46 1.55 1.2-.25 2.51-.94 3.69-.25.34.2.57.49.97.61.46.13.96-.04 1.43.02 1.34.17 2.1 1.43 2.96 2.32.65.68 1.38 1.15 2.24 1.49.49.19 1 .33 1.5.48.35.11 1.45.29 1.67.58.34.47-.8 1.88-.96 2.39-.24.79-.25 1.63-.39 2.43-.24 1.34-.89 1.69-1.99 2.32-.52.3-.84.69-1.07 1.24-.15.36-.21.76-.37 1.12-.34.78-.71.83-1.43 1.12-.42.17-.78.36-.9.83-.14.53.14.74-.42 1.12-.32.21-.66.21-.94.52-.38.43-.43 1.04-.39 1.58.05.78.22 1.41-.06 2.24-.11.31-.31.58-.29.93.02.26.13.46.3.65.03.03.29.22.3.24.19.57-.55.17-.8-.04-1.11-.96-1.64-2.3-1.77-3.73-.14-1.49-.17-3-.25-4.5-.08-1.52-.26-3.1.54-4.48.13-.23 0-.47-.22-.55-.93-.36-1.65-.9-2.29-1.66-.28-.34-.51-.69-.92-.89-.67-.34-1.02-.04-1.5-1.04-.14-.29-.16-.68-.21-.99-.15-.96-.24-1.95.06-2.89.34-1.09.85-1.92.25-3.04-.52-.97-1.52-1.55-2.52-1.89-.46-.16-.65.57-.2.72.43.12.78.36 1.03.71.32.36.85-.17.53-.53-.4-.45-.79-.7-1.36-.9-.07.24-.13.48-.2.72.95.32 1.93.91 2.18 1.94.22.93-.36 1.62-.55 2.49-.26 1.17-.13 2.71.27 3.85.46 1.3 1.63 1.23 2.5 2.14.85.88 1.56 1.53 2.73 1.98l-.22-.55c-1.26 2.2-.62 5.15-.5 7.55.12 2.21.25 4.33 1.96 5.94.43.41 1.04.92 1.69.81.57-.1.99-.65.79-1.22-.13-.36-.51-.45-.67-.79-.24-.5.26-1.03.33-1.6.04-.37-.03-.75-.09-1.12-.11-.74-.25-1.03.31-1.55.32-.29.55-.35.87-.57.77-.52.19-1.37 1.1-1.81.71-.35 1.18-.42 1.55-1.21.16-.34.24-.71.36-1.06.28-.81.64-1.07 1.37-1.45.78-.4 1.32-.84 1.63-1.68.31-.86.3-1.8.47-2.69.09-.46.21-.91.45-1.31.24-.39.65-.69.81-1.13.69-1.81-2.85-2.13-3.86-2.54-1.52-.61-2.2-1.85-3.37-2.87-.39-.35-.83-.65-1.32-.82-.63-.23-1.09-.02-1.71-.11-.57-.08-.91-.56-1.43-.76-.49-.19-1.03-.22-1.55-.17-1.39.13-4.25 1.69-4.84-.47-.14-.44-.87-.24-.74.23" class="st15"/><path d="M394.81 156.64c-1.15 1.53-2.43 3.02-3.47 4.63-.81 1.26-.78 2.41-.54 3.84.4 2.32 1.45 5.37 4.33 5.32.52-.01.97-.16 1.42-.43.58-.35 1.05-.64 1.81-.41.22.07.41.22.65.26.48.08.61-.24 1.02-.29 1.16-.14.91 1.25 1.07 1.86.16.6.49 1.14.75 1.7.49 1.06.37 1.8-.01 2.84-.39 1.07-.6 2.09.15 3.03.3.38.83-.16.53-.53-.98-1.23.61-3 .43-4.38-.16-1.25-1.15-2.21-1.17-3.49-.01-.81.13-1.63-.8-1.97-.37-.14-.64-.06-.99.03-.34.09-.76.41-1.12.36-.21-.03-.44-.25-.66-.31-1.21-.33-1.85.86-2.98.96-1.86.17-2.97-1.66-3.39-3.21-.49-1.82-.77-3.51.37-5.13 1.03-1.46 2.16-2.87 3.23-4.29.31-.39-.34-.77-.63-.39" class="st14"/><path d="M395.15 157.08c1.61.48 3.25.34 4.73-.47 1.03-.57 1.12.36 1.72.9.73.66 1.6.48 2.14 1.49.23.43.88.05.65-.38-.33-.62-.66-.97-1.31-1.25-.71-.31-.91-.45-1.33-1.16-.15-.26-.21-.49-.5-.65-.62-.33-1.21.12-1.74.4-1.31.7-2.73.82-4.15.4-.48-.14-.68.58-.21.72" class="st14"/><path d="M355.44 150.24c-.13-.89-.25-1.28.41-2.19.25-.34.61-.67.9-.97.61-.62 1.26-1.19 1.94-1.73.73-.57 1.55-1.3 2.49-1.44.63-.09 1.09.01 1.69-.26.44-.2.06-.85-.38-.65-.55.25-1.22.08-1.8.22-.36.09-.68.28-.99.48-.95.6-1.85 1.33-2.69 2.09-.75.68-1.61 1.42-2.14 2.29-.46.75-.3 1.53-.17 2.36.08.47.81.27.74-.2M364.59 142.38c-.5-.29-1.11-.1-1.65-.39l-.09.69c.48-.14.9-.39 1.35-.61.45-.21 1.21-.71 1.55-.21.22.32.66.18.7-.19.05-.42-.13-.71-.47-.93-.39-.25-.7.28-.46.59.21.26.38.52.56.79.26.41.91.03.65-.38-.21-.33-.43-.64-.68-.95-.15.2-.3.39-.46.59.03.09.07.19.1.28.23-.06.47-.13.7-.19-.41-.61-.53-.81-1.27-.57-.86.27-1.62.8-2.48 1.05-.3.09-.38.53-.09.69.27.14.54.26.85.31.23.04.6-.04.8.07.43.25.81-.39.39-.64M367.87 140.66c.09.19 5.57-1.03 6.12-1.09 2-.22 4.02-.21 6.03-.05 3.92.32 7.88 1.81 11.24 3.84.42.25.79-.4.38-.65-2.04-1.23-4.24-2.04-6.46-2.88-2.29-.87-4.66-1.1-7.1-1.17-2.41-.07-4.8.16-7.16.63-1.02.2-2.53.29-3.41.85-.37.23-.48.49-.28.9.2.43.85.05.64-.38M361.29 147.16l.04-.04c.12-.12.14-.3.06-.46l-.03-.06c-.08-.15-.27-.21-.42-.17-1.1.3-2.05 1.75-2.59 2.69-.22.39.27.71.59.46 1.57-1.24 3.13-2.48 4.7-3.72l-.53-.53c-2 1.8-3.97 3.63-5.49 5.87-.25.37.29.73.59.46 2.09-1.87 3.85-4.11 6.19-5.7-.15-.2-.3-.39-.46-.59-2.22 2.03-4.4 4.08-6.16 6.53-.22.3.21.72.51.51 1.1-.75 1.97-1.81 2.92-2.73 1.21-1.18 2.46-2.3 3.82-3.31-.15-.2-.3-.39-.46-.59-2.4 2.24-4.76 4.51-6.68 7.19-.22.3.21.72.51.51 1.18-.82 2.07-2.04 3.08-3.05 1.16-1.16 2.37-2.27 3.62-3.34l-.53-.53c-2.24 2.18-4.45 4.39-6.2 6.99-.25.37.29.73.59.46 2.25-2.05 4.09-4.54 6.59-6.31l-.46-.59c-2.25 2.23-4.47 4.48-6.3 7.08-.25.35.31.77.59.46 2.12-2.34 4.25-4.67 6.74-6.62l-.53-.53c-1.22 1.29-2.45 2.57-3.61 3.91-.9 1.04-2.01 2.13-2.48 3.44-.13.36.38.63.63.37 2.11-2.21 4.18-4.49 6.58-6.4l-.53-.53c-2.16 2.22-4.3 4.47-5.87 7.16-.21.37.29.76.59.46 2.16-2.17 4.29-4.38 6.71-6.26l-.53-.53c-2.06 2.01-4.1 4.03-5.79 6.36-.25.35.3.77.59.46 1.06-1.15 2.08-2.33 3.07-3.54.73-.9 1.62-1.8 1.99-2.92.1-.31-.28-.59-.55-.42-2.24 1.35-4.03 3.63-5.69 5.61-.31.36.2.89.53.53 1.84-1.97 3.77-3.84 5.81-5.61l-.53-.53c-1.95 1.94-3.87 3.9-5.43 6.18-.24.35.3.76.59.46 1.97-2.09 3.95-4.18 6.3-5.86-.15-.2-.3-.39-.46-.59-2.21 2.13-4.4 4.28-6.22 6.76-.25.34.31.77.59.46 1.98-2.2 3.97-4.39 6.3-6.23l-.53-.53c-2.04 2.01-4.06 4.04-5.76 6.36-.25.35.3.76.59.46 1.92-2.07 3.85-4.12 6.16-5.76-.15-.2-.3-.39-.46-.59-1.85 1.81-3.69 3.63-5.33 5.64-.3.37.19.88.53.53 1.82-1.87 3.66-3.72 5.82-5.2-.15-.2-.3-.39-.46-.59-1.77 1.89-3.53 3.8-5.14 5.83-.29.37.19.89.53.53 1.86-1.92 3.73-3.82 5.88-5.42-.15-.2-.3-.39-.46-.59-1.68 1.72-3.34 3.44-4.81 5.34-.29.37.17.88.53.53 1.85-1.8 3.71-3.59 5.85-5.05-.15-.2-.3-.39-.46-.59l-5.04 5.04c-.34.34.18.86.53.53 1.69-1.6 3.38-3.17 5.34-4.44-.15-.2-.3-.39-.46-.59-1.7 1.46-3.38 2.93-4.85 4.62-.32.37.16.85.53.53 1.63-1.39 3.25-2.79 4.88-4.18l-.53-.53c-1.61 1.57-3.2 3.15-4.57 4.93-.28.36.29.71.59.46 1.57-1.33 3.02-2.77 4.36-4.34.32-.38-.15-.82-.53-.53-1.66 1.28-2.2 3.47-3.86 4.75l.53.53c1.08-.88 2.95-2.42 2.74-3.98-.06-.41-.61-.3-.72 0-.54 1.36-.91 3.09-2.53 3.51.1.23.19.46.29.69.92-.43 1.49-1.11 1.77-2.07.14-.46-.59-.66-.72-.2-.24.79-.68 1.28-1.43 1.63-.4.18-.11.79.29.69 1.91-.49 2.41-2.4 3.05-4.03h-.72c.16 1.13-1.76 2.6-2.55 3.24-.38.31.16.82.53.53 1.66-1.28 2.2-3.47 3.86-4.75l-.53-.53c-1.34 1.56-2.79 3-4.36 4.34.2.15.39.3.59.46 1.33-1.73 2.89-3.26 4.46-4.78.35-.34-.17-.84-.53-.53-1.63 1.39-3.25 2.79-4.88 4.18l.53.53c1.47-1.7 3.15-3.17 4.85-4.62.32-.28-.1-.82-.46-.59-2.01 1.3-3.76 2.92-5.49 4.56l.53.53 5.04-5.04c.29-.29-.09-.84-.46-.59-2.19 1.5-4.11 3.32-6 5.17l.53.53c1.47-1.9 3.13-3.63 4.81-5.34.29-.29-.1-.85-.46-.59-2.2 1.64-4.12 3.58-6.03 5.54l.53.53c1.61-2.04 3.37-3.94 5.14-5.83.28-.3-.09-.84-.46-.59-2.21 1.52-4.1 3.41-5.97 5.32l.53.53c1.64-2.01 3.48-3.83 5.33-5.64.3-.29-.1-.84-.46-.59-2.36 1.68-4.34 3.76-6.31 5.88.2.15.39.3.59.46 1.66-2.26 3.65-4.24 5.64-6.2.35-.35-.16-.82-.53-.53-2.33 1.84-4.32 4.03-6.3 6.23.2.15.39.3.59.46 1.79-2.43 3.94-4.52 6.11-6.61.3-.29-.1-.84-.46-.59-2.4 1.72-4.43 3.83-6.45 5.97.2.15.39.3.59.46 1.52-2.22 3.41-4.13 5.31-6.02.35-.35-.17-.84-.53-.53-2.04 1.77-3.97 3.63-5.81 5.61l.53.53c1.61-1.93 3.36-4.18 5.54-5.49-.18-.14-.37-.28-.55-.42-.41 1.24-1.57 2.32-2.4 3.31-.8.96-1.63 1.9-2.48 2.82.2.15.39.3.59.46 1.66-2.28 3.66-4.25 5.68-6.21.36-.35-.16-.82-.53-.53-2.42 1.88-4.55 4.1-6.71 6.26.2.15.39.3.59.46 1.54-2.64 3.64-4.83 5.75-7.01.35-.36-.16-.82-.53-.53-2.4 1.9-4.47 4.19-6.58 6.4.21.12.42.24.63.37.51-1.42 1.91-2.69 2.9-3.8.98-1.09 1.99-2.15 3-3.22.34-.36-.16-.82-.53-.53-2.49 1.95-4.63 4.28-6.74 6.62.2.15.39.3.59.46 1.79-2.54 3.98-4.74 6.18-6.93.29-.29-.1-.84-.46-.59-2.55 1.82-4.44 4.34-6.74 6.43l.59.46c1.71-2.55 3.89-4.7 6.08-6.84.35-.34-.17-.84-.53-.53-1.14.97-2.24 1.98-3.3 3.02-1.06 1.05-2.02 2.4-3.25 3.25l.51.51c1.88-2.62 4.22-4.84 6.57-7.04.3-.28-.11-.85-.46-.59-1.17.86-2.27 1.81-3.33 2.81-1.12 1.06-2.14 2.37-3.41 3.24l.51.51c1.72-2.4 3.88-4.4 6.04-6.38.31-.28-.1-.83-.46-.59-2.39 1.63-4.19 3.9-6.34 5.82.2.15.39.3.59.46 1.48-2.19 3.42-3.96 5.37-5.72.37-.33-.16-.82-.53-.53-1.57 1.24-3.13 2.48-4.7 3.72.2.15.39.3.59.46.4-.7 1.27-2.11 2.14-2.34-.14-.06-.28-.11-.42-.17l.03.06c.02-.15.04-.3.06-.46l-.04.04c-.28.22.25.75.59.4" class="st15"/><path d="M364.45 155.84c-.15-1.37-1.62.56-1.84.81l.53.53 1.92-2.31c.31-.37-.21-.9-.53-.53-.56.64-1.09 1.29-1.61 1.96-.4.51-.95 1.06-1.09 1.71-.05.25.11.46.36.48.89.07 1.85-1.4 2.34-2 .3-.37-.17-.86-.53-.53-.72.66-1.33 1.39-1.87 2.2-.14.22.01.47.22.55.48.18.8-.34 1.09-.64.65-.68 1.27-1.38 1.88-2.1l-.53-.53c-.71.87-1.39 1.76-2.02 2.68-.18.26.12.67.42.55.87-.34 1.49-1.32 2.1-1.99-.2-.15-.39-.3-.59-.46-.39.58-.79 1.16-1.18 1.74-.24.35.3.76.59.46.5-.53 1.01-1.07 1.51-1.6-.2-.15-.39-.3-.59-.46-.32.52-.64 1.03-.96 1.55-.22.36.3.77.59.46.4-.45.81-.89 1.21-1.34l-.59-.46c-.28.43-.56.87-.84 1.3-.23.36.29.76.59.46l1.28-1.31c-.2-.15-.39-.3-.59-.46-.39.54-.75 1.09-1.08 1.67-.22.39.27.72.59.46.51-.43.9-.94 1.28-1.48-.22-.13-.43-.25-.65-.38l-.72 1.7c-.15.35.3.82.59.46.44-.55.88-1.09 1.32-1.64-.2-.15-.39-.3-.59-.46-.3.57-.56 1.15-.79 1.76-.13.34.4.66.63.37.28-.36.56-.72.84-1.07-.21-.12-.42-.24-.63-.37l-.42 1.27c-.14.43.45.62.69.29.22-.31.44-.62.67-.94-.22-.13-.43-.25-.65-.38-.23.52-.36 1.01-.43 1.58-.05.42.51.44.7.19.07-.09.13-.17.2-.26h-.65l.11.23c.21.43.86.05.65-.38l-.11-.23c-.14-.28-.49-.2-.65 0-.07.09-.13.17-.2.26.23.06.47.13.7.19.03-.42.14-.82.33-1.2.19-.44-.37-.78-.65-.38-.22.31-.44.62-.67.94.23.1.46.19.69.29l.42-1.27c.11-.34-.39-.67-.63-.37-.28.36-.56.72-.84 1.07.21.12.42.24.63.37.2-.54.44-1.06.71-1.58.19-.36-.31-.8-.59-.46-.44.55-.88 1.1-1.32 1.64.2.15.39.3.59.46l.72-1.7c.19-.44-.36-.78-.65-.38-.35.49-.7.94-1.17 1.33.2.15.39.3.59.46.33-.58.69-1.13 1.08-1.67.25-.35-.3-.76-.59-.46-.43.44-.85.88-1.28 1.31.2.15.39.3.59.46.28-.43.56-.87.84-1.3.23-.36-.3-.77-.59-.46-.4.45-.81.89-1.21 1.34.2.15.39.3.59.46.32-.52.64-1.03.96-1.55.22-.36-.3-.77-.59-.46-.5.53-1.01 1.07-1.51 1.6.2.15.39.3.59.46.39-.58.79-1.16 1.18-1.74.24-.35-.3-.77-.59-.46-.48.53-1.1 1.53-1.77 1.8.14.18.28.37.42.55.6-.87 1.23-1.71 1.91-2.53.3-.37-.22-.9-.53-.53-.21.25-2.09 2.6-2.24 2.55.07.18.15.37.22.55.5-.77 1.08-1.43 1.75-2.05l-.53-.53c-.27.32-1.34 1.81-1.81 1.78l.36.48c.13-.64.87-1.35 1.25-1.84.4-.51.82-1.01 1.25-1.5l-.53-.53-1.92 2.31c-.31.37.21.9.53.53l.48-.55c.31-.2.34-.47.08-.8.08.47.83.48.78 0" class="st15"/><path d="M359.33 153.82c-.04-.08-.08-.17-.11-.25-.13-.28-.5-.2-.65 0-.91 1.26-1.71 2.59-2.41 3.98-.22.44.36.76.65.38 1-1.34 2.02-2.66 3.24-3.8l-.59-.46c-1.07 1.68-2.1 3.37-2.85 5.22-.17.42.46.61.69.29.95-1.36 1.9-2.71 2.86-4.07-.22-.13-.43-.25-.65-.38-.77 1.27-1.53 2.53-2.3 3.8-.25.42.38.77.65.38 1-1.43 2.01-3.36 3.46-4.36l-.51-.51c-1.26 1.7-2.46 3.4-3.23 5.39-.16.41.47.63.69.29 1.1-1.69 2.2-3.37 3.52-4.91-.2-.15-.39-.3-.59-.46-1.25 1.75-2.48 3.5-3.39 5.46-.2.43.39.8.65.38.46-.75.84-1.53 1.16-2.35.12-.31-.29-.59-.55-.42-.41.26-.73.53-.96.97-.03.06-.28.59-.21.57-.32.08-.83-.92-.94-1.08l-.06.46c.37-.44.73-.89 1.1-1.33-.2-.15-.39-.3-.59-.46-.48.72-1.59 3.6.27 3.25-.14-.06-.28-.11-.42-.17.25.41.22 1.15.23 1.61h.75c.07-.32.14-.65.21-.97l-.7-.19c-.07.75-.07 1.47 0 2.22.05.49.69.48.75 0 .15-1.1.32-2.17.69-3.22-.25-.03-.49-.07-.74-.1-.11 1.07-.22 2.14-.34 3.22-.04.42.64.51.74.1.46-1.95 1.17-3.78 2.16-5.52-.22-.13-.43-.25-.65-.38-.75 1.5-1.46 3.03-2.12 4.57.23.1.46.19.69.29.79-2.03 1.57-4.33 3.06-5.97-.2-.15-.39-.3-.59-.46-1.04 2.14-1.97 4.32-2.8 6.55-.13.35.39.64.63.37.7-.78.95-1.84 1.39-2.78.54-1.15 1.18-2.25 1.89-3.3-.23-.1-.46-.19-.69-.29-.67 2.09-1.97 3.9-2.59 6.01-.12.42.46.64.69.29 1.23-1.94 2.07-4.11 3.59-5.86-.2-.15-.39-.3-.59-.46-.95 1.52-1.91 3.04-2.86 4.56-.26.41.39.79.65.38.54-.86 1.14-1.66 1.82-2.41-.2-.15-.39-.3-.59-.46l-.81 1.29c-.23.37.28.74.59.46.34-.31.3-.28.53-.68.24-.42-.41-.8-.65-.38-.14.17-.28.35-.41.52.2.15.39.3.59.46l.81-1.29c.22-.36-.3-.78-.59-.46-.72.8-1.36 1.65-1.94 2.56.22.13.43.25.65.38.95-1.52 1.91-3.04 2.86-4.56.22-.36-.31-.78-.59-.46-1.57 1.8-2.45 4.02-3.71 6.01.23.1.46.19.69.29.62-2.11 1.92-3.92 2.59-6.01.14-.42-.46-.63-.69-.29-.63.93-1.2 1.89-1.7 2.9-.47.96-.76 2.23-1.47 3.03.21.12.42.24.63.37.81-2.17 1.72-4.29 2.73-6.37.18-.36-.29-.79-.59-.46-1.59 1.75-2.41 4.13-3.26 6.3-.15.39.52.68.69.29.66-1.54 1.37-3.07 2.12-4.57.21-.43-.41-.8-.65-.38-1.02 1.8-1.76 3.69-2.24 5.7.25.03.49.07.74.1.11-1.07.22-2.14.34-3.22.05-.44-.61-.48-.74-.1-.39 1.11-.56 2.26-.72 3.42h.75c-.08-.75-.08-1.47 0-2.22.04-.38-.53-.5-.7-.19-.26.47-.34.82-.31 1.35.03.48.76.49.75 0-.02-.61 0-1.46-.33-1.99-.09-.15-.26-.2-.42-.17-.48.09.55-2.1.58-2.14.23-.35-.32-.79-.59-.46-.37.44-.73.89-1.1 1.33-.1.12-.16.31-.06.46.34.52.86 1.66 1.67 1.56.2-.02.35-.12.48-.25.48-.51.19-1.01.98-1.5-.18-.14-.37-.28-.55-.42-.3.76-.66 1.47-1.09 2.17.22.13.43.25.65.38.91-1.95 2.14-3.71 3.39-5.46.25-.34-.31-.78-.59-.46-1.36 1.58-2.51 3.31-3.64 5.06.23.1.46.19.69.29.74-1.92 1.93-3.57 3.15-5.21.22-.3-.21-.72-.51-.51-1.59 1.09-2.65 3.08-3.73 4.63.22.13.43.25.65.38.77-1.27 1.53-2.53 2.3-3.8.25-.42-.37-.77-.65-.38-.95 1.36-1.9 2.71-2.86 4.07.23.1.46.19.69.29.72-1.79 1.74-3.42 2.77-5.04.24-.37-.29-.74-.59-.46-1.27 1.19-2.32 2.56-3.36 3.95.22.13.43.25.65.38.7-1.4 1.49-2.72 2.41-3.98h-.65c.04.08.08.17.11.25.2.45.85.06.65-.37" class="st15"/><path d="M357.7 161.67c-.1.64-.04 1.23.56 1.59.12.07.26.07.38 0 .47-.27.58-.92.71-1.4-.24-.07-.48-.13-.72-.2-.13.54-.45 1.99.48 2.01.81.02.96-1.22 1.02-1.79.05-.42-.66-.51-.74-.1-.1.54-.13 1.04-.06 1.59.06.48.69.48.75 0 .07-.51.21-1.73-.42-2-.16-.07-.32-.06-.46.06-.67.61-.47 1.71-.06 2.39.15.24.5.24.65 0 .38-.63.47-1.21.31-1.92-.09-.41-.76-.33-.74.1.05.73.22 1.31.62 1.92.11.17.33.24.51.13.28-.17.34-.24.43-.56-.21.06-.42.11-.63.17.43.37.76.5 1.32.57.19.03.39-.19.38-.38 0-.06-.01-.13-.01-.19-.03-.49-.71-.48-.75 0-.03.38.01.45.27.72.13.13.41.16.53 0 .33-.42.72-1.19 1.32-1.22-.06-.23-.13-.47-.19-.7-.69.46-1.19 1-1.57 1.74-.17.33.17.71.51.51.48-.28.83-.61 1.14-1.06-.23-.1-.46-.19-.69-.29-.04.26-.09.51-.13.77-.03.18.05.43.26.46 0 0 .63.01.57-.03.06.05.15.59.24.73.12.18.43.28.59.08.05-.06.09-.11.14-.17h-.53l.18.21c.22.25.64.05.64-.27v-.33c-.23.06-.47.13-.7.19.13.23.25.46.38.69.17.31.58.19.69-.09.03-.08.06-.15.09-.23.17-.45-.55-.65-.72-.2-.03.08-.06.15-.09.23l.69-.09c-.13-.23-.25-.46-.38-.69-.18-.33-.7-.18-.7.19v.33l.64-.27c-.06-.07-.12-.14-.18-.2-.12-.14-.41-.15-.53 0-.05.06-.09.11-.14.17.2.03.39.05.59.08-.21-.3-.1-.72-.4-.96-.32-.26-.51-.02-.85-.07.09.15.17.31.26.46.04-.26.09-.51.13-.77.07-.42-.44-.65-.69-.29-.21.35-.5.62-.88.79l.51.51c.32-.64.7-1.08 1.3-1.48.29-.19.21-.72-.19-.7-.99.05-1.28.72-1.85 1.44h.53c-.02-.06-.03-.12-.05-.19h-.75c0 .06.01.13.01.19l.38-.38c-.26-.12-.52-.23-.79-.35-.21-.18-.54-.12-.63.17l-.09.11c.17.04.34.09.51.13-.32-.49-.48-.95-.52-1.54-.25.03-.49.07-.74.1.14.49.07.94-.23 1.34h.65c-.33-.45-.35-.94-.05-1.48-.15.02-.3.04-.46.06.22.1.08 1.15.05 1.36h.75c-.07-.5-.07-.88.03-1.39-.25-.03-.49-.07-.74-.1-.06.57-.34 1.31-.02-.03.11-.47-.59-.67-.72-.2-.04.14-.37 1.28-.2.22.09-.47-.64-.67-.71-.2M356.75 157.84c-.53-.39-1.48-1.53-2.23-1.14-.65.34-.43 1.1-.21 1.63.14.34.74.17.7-.19-.08-.64-.4-1.09-.58-1.7-.31-1.04.42-2.28.88-3.17.85-1.64 1.98-3.07 3.33-4.32l-.53-.53c-1.69 1.87-3.17 3.89-4.44 6.07-.18.31.2.74.51.51 1.02-.73 1.72-1.92 2.53-2.87.96-1.14 1.97-2.23 3.01-3.3l-.53-.53c-.99 1.14-1.99 2.28-2.85 3.53-.7 1.02-1.63 2.29-1.64 3.57 0 .39.5.49.7.19 1.2-1.75 2.4-3.51 3.59-5.26.24-.36-.29-.75-.59-.46-1.03 1.01-1.97 2.1-2.82 3.27-.61.84-1.84 2.18-1.74 3.28.04.37.48.51.7.19.9-1.34 1.8-2.68 2.69-4.03-.22-.13-.43-.25-.65-.38l-2.67 4.55c-.25.43.37.76.65.38 1.42-1.94 2.85-3.87 4.39-5.71l-.53-.53c-1.51 1.92-2.99 3.86-4.13 6.03-.23.43.38.78.65.38 1.13-1.68 2.27-3.34 3.63-4.84-.2-.15-.39-.3-.59-.46-1.05 1.59-2.18 3.15-3.01 4.87-.21.43.38.79.65.38.92-1.42 1.94-2.76 3.07-4.01l-.59-.46c-1.1 1.62-2.17 3.24-2.97 5.03-.2.44.38.79.65.38 1.02-1.55 2.1-3.05 3.24-4.52-.2-.15-.39-.3-.59-.46-.99 1.35-1.81 2.77-2.5 4.29-.16.36.28.79.59.46.37-.4.74-.79 1.11-1.19-.21-.12-.42-.24-.63-.37-.19.67-.65 1.46-.29 2.12.23.42.88.05.65-.38-.17-.31.27-1.22.37-1.54.1-.35-.37-.64-.63-.37-.37.4-.74.79-1.11 1.19.2.15.39.3.59.46.68-1.52 1.51-2.94 2.5-4.29.25-.34-.33-.79-.59-.46-1.18 1.52-2.3 3.07-3.36 4.67.22.13.43.25.65.38.81-1.79 1.88-3.41 2.97-5.03.24-.35-.3-.77-.59-.46-1.18 1.3-2.24 2.69-3.19 4.16.22.13.43.25.65.38.82-1.72 1.95-3.28 3.01-4.87.23-.35-.3-.77-.59-.46-1.4 1.55-2.58 3.26-3.75 4.99.22.13.43.25.65.38 1.11-2.12 2.54-4 4.01-5.88.29-.37-.22-.91-.53-.53-1.59 1.89-3.05 3.87-4.51 5.87.22.13.43.25.65.38.89-1.52 1.78-3.03 2.67-4.55.25-.42-.38-.78-.65-.38-.9 1.34-1.8 2.68-2.69 4.03.23.06.47.13.7.19-.09-.91 1.25-2.38 1.76-3.07.78-1.05 1.65-2.02 2.58-2.94-.2-.15-.39-.3-.59-.46-1.2 1.75-2.4 3.51-3.59 5.26l.7.19c.01-1.21 1.1-2.6 1.78-3.54.77-1.06 1.63-2.04 2.49-3.03.31-.36-.19-.88-.53-.53-.93.95-1.83 1.93-2.7 2.94-.85.98-1.62 2.35-2.68 3.11l.51.51c1.24-2.12 2.68-4.09 4.32-5.91.32-.36-.18-.86-.53-.53-1.49 1.39-2.74 3.01-3.64 4.84-.33.69-.73 1.46-.84 2.23-.16 1.05.51 1.66.63 2.65.23-.06.47-.13.7-.19-.29-.68.26-.32.55-.11.29.22.58.43.87.65.38.31.75-.34.37-.63" class="st15"/><path d="M355.53 152.42c.22-.08.67-1.6.72-1.94.05-.33 0-.51-.14-.81-.1-.21-.44-.25-.59-.08-.27.31-.37.54-.36.96.01.41.65.53.74.1.31-1.44.66-2.82 1.76-3.87 1.04-.98 2.38-1.72 3.57-2.49-.13-.22-.25-.43-.38-.65-1.77 1.2-3.42 2.55-4.94 4.06.21.12.42.24.63.37.09-.14.19-.29.28-.43l-.53-.53c-.89.96-1.3 2.09-1.17 3.4.05.48.71.49.75 0 .18-2.3 3.3-4.42 5.05-5.56-.13-.22-.25-.43-.38-.65-2.05 1.51-3.83 3.28-5.34 5.33-.25.34.31.77.59.46 1.56-1.75 3.13-3.48 4.96-4.96l-.53-.53c-1.75 1.68-3.47 3.38-4.82 5.4-.23.35.31.78.59.46 1.55-1.8 3.11-3.57 4.99-5.04l-.53-.53c-1.67 1.7-3.32 3.41-4.75 5.32-.25.34.22.65.51.51.94-.42 1.71-1.54 2.42-2.26l2.87-2.91c.34-.34-.18-.87-.53-.53-1.54 1.49-3.05 2.99-4.37 4.68-.25.32.06.82.46.59 2.15-1.22 3.48-3.58 5.68-4.76-.15-.2-.3-.39-.46-.59-1.08 1.16-2.15 2.33-3.23 3.49-.33.36.16.84.53.53l4.3-3.59-.64-.27c.03-.05.05-.11.08-.16.15.2.3.39.46.59.38-.41.7-.82 1.01-1.28.15-.22-.04-.59-.32-.57-.59.06-1.14.25-1.72.22-.61-.04-.86-.02-1.47 0 .06.23.13.47.19.7.58-.25 1.62-.67 2.22-.26.1-.23.19-.46.29-.69-1.39-.32-2.47.33-3.55 1.16-.31.23-.15.84.29.69.83-.28 1.67-.57 2.5-.85-.1-.23-.19-.46-.29-.69-.64.36-1.83.9-1.66 1.78.03.16.21.27.36.28.71.01 1.39-.45 1.94-.85.36-.26.13-.75-.29-.69-.46.07-.75.21-1.11.5-.24.19-.08.55.17.63.3.1.6.19.9.29.46.15.66-.57.2-.72-.3-.1-.6-.19-.9-.29.06.21.11.42.17.63.26-.1.52-.21.78-.31-.1-.23-.19-.46-.29-.69-.42.3-1.03.75-1.56.74.12.09.24.18.36.28-.04-.18 1.11-.82 1.32-.93.36-.21.12-.83-.29-.69-.83.28-1.67.57-2.5.85.1.23.19.46.29.69.88-.67 1.8-1.35 2.97-1.08.42.1.64-.45.29-.69-.9-.62-2.07-.14-2.98.26-.35.15-.16.71.19.7.43-.01.8.01 1.21.04.71.06 1.28-.19 1.99-.26l-.32-.57c-.27.41-.56.78-.89 1.13-.3.32.07.78.46.59.03-.02.07-.03.1-.05.12-.06.18-.2.19-.32 0-.04 0-.08.01-.11.02-.35-.41-.46-.64-.27l-4.3 3.59.53.53c1.08-1.16 2.15-2.33 3.23-3.49.29-.31-.07-.79-.46-.59-2.21 1.18-3.54 3.54-5.68 4.76.15.2.3.39.46.59 1.31-1.69 2.83-3.19 4.37-4.68l-.53-.53c-.85.86-1.69 1.71-2.54 2.57-.75.76-1.63 2.05-2.61 2.48l.51.51c1.39-1.86 3.01-3.52 4.63-5.17.35-.36-.16-.82-.53-.53-1.88 1.46-3.45 3.24-4.99 5.04.2.15.39.3.59.46 1.32-1.98 3-3.62 4.7-5.25.36-.34-.16-.83-.53-.53-1.83 1.47-3.4 3.2-4.96 4.96.2.15.39.3.59.46 1.43-1.94 3.12-3.63 5.07-5.06.38-.28.03-.92-.38-.65-2.06 1.34-5.21 3.52-5.42 6.21h.75c-.11-1.1.19-2.05.95-2.87.33-.35-.19-.87-.53-.53-.32.31-.33.34-.48.76-.13.37.37.62.63.37 1.48-1.46 3.07-2.77 4.79-3.94.4-.27.03-.91-.38-.65-1.36.88-2.92 1.72-4.04 2.92-1 1.07-1.35 2.5-1.64 3.89.25.03.49.07.74.1.05-.14.09-.28.14-.43-.2-.03-.39-.05-.59-.08.14.29-1.25 3.61.27 3.09.42-.15.23-.88-.23-.72" class="st15"/><path d="M364.64 144.49c-.03-.18-.08-.26-.22-.38-.17-.15-.47-.15-.59.08-.22.42-.34.96.15 1.23.66.35 1.06-.51 1.25-.99.12-.3-.29-.6-.55-.42-.54.36-1.29 1.19-.52 1.79.8.62 1.5-.62 1.74-1.2.1-.25-.21-.56-.46-.46-.89.36-1.9 2.09-.46 2.48.94.25 2.56-1.4 2.26-2.32-.04-.12-.13-.24-.26-.26-1.04-.18-2.79 1.74-2.48 2.76.04.11.13.24.26.26.72.1 1.17-.4 1.72-.84.95-.76 1.82-1.61 2.63-2.52.17-.19.13-.57-.17-.63-.92-.17-1.68.73-2.33 1.28-.83.72-1.82 1.49-2.22 2.54-.1.27.21.54.46.46 1.17-.35 2.16-1.47 3.08-2.23 1.36-1.12 2.73-2.21 4.23-3.14-.13-.22-.25-.43-.38-.65-1.32.94-2.59 1.93-3.81 3-.89.78-2.46 1.78-2.72 3-.06.29.27.64.55.42 1.95-1.45 3.63-3.23 5.74-4.46-.15-.2-.3-.39-.46-.59-2.15 1.74-4.29 3.5-6.02 5.68-.19.23-.09.66.27.64 1-.05 1.91-1.12 2.67-1.71 1.25-.98 2.49-1.98 3.7-3.01.33-.28-.09-.8-.46-.59-2.13 1.21-4.04 2.71-5.72 4.5-.29.31.08.8.46.59 1.49-.85 2.61-2.19 4.13-3-.15-.2-.3-.39-.46-.59-1.42 1.11-2.81 2.24-3.96 3.63-.3.37.18.87.53.53.82-.79 1.68-1.49 2.62-2.14l-.51-.51c-.64.87-1.42 1.59-2.22 2.31-.36.32.17.85.53.53.56-.5 1.14-.94 1.77-1.34l-.51-.51c-.19.38-.42.7-.71 1.01.2.15.39.3.59.46.19-.33.46-.59.8-.76l-.51-.51c-.25.39-.53.75-.85 1.08-.34.35.17.84.53.53.47-.4.96-.73 1.5-1.04-.15-.2-.3-.39-.46-.59-.45.54-.89 1.07-1.34 1.61-.25.3.09.87.46.59.57-.44 1.15-.82 1.77-1.18-.15-.2-.3-.39-.46-.59-.35.42-.69.84-1.04 1.25-.31.37.16.85.53.53.49-.43.98-.81 1.56-1.12-.15-.2-.3-.39-.46-.59-.53.6-1.07 1.2-1.6 1.8-.26.3.1.86.46.59.54-.41 1.07-.81 1.61-1.22l-.51-.51c-.21.38-.46.67-.78.95-.32.27.11.85.46.59l.9-.67-.51-.51c-.26.43-.54.82-.88 1.19-.33.36.17.85.53.53.44-.39.82-.63 1.33-.88l-.46-.59c-.46.56-.92 1.11-1.38 1.67-.25.3.08.86.46.59 1.25-.92 2.49-1.84 3.74-2.76-.15-.2-.3-.39-.46-.59-1.08.98-2.25 1.91-3.15 3.06-.29.37.17.87.53.53 1.3-1.25 2.71-2.35 4.22-3.33l-.51-.51c-.4.81-1.27 1.27-1.93 1.85-.67.58-1.3 1.21-1.91 1.86-.24.26-.01.75.37.63.69-.23 1.14-.65 1.69-1.13.81-.69 1.63-1.31 2.57-1.81-.15-.2-.3-.39-.46-.59l-3.66 3.48c-.3.29.1.84.46.59 1.23-.88 2.45-1.76 3.68-2.63-.15-.2-.3-.39-.46-.59-1.13 1.06-2.27 2.12-3.4 3.18-.3.28.11.85.46.59 1.03-.76 2.06-1.52 3.08-2.27-.15-.2-.3-.39-.46-.59-1.26 1.09-2.56 2.15-3.89 3.16-.38.29-.02.93.38.65 1.36-.95 2.72-1.89 4.09-2.84-.15-.2-.3-.39-.46-.59-.63.6-1.26 1.21-1.9 1.81-.3.29.1.85.46.59l2.37-1.74c-.15-.2-.3-.39-.46-.59l-1.23 1.38c-.33.37.16.83.53.53.48-.39.97-.72 1.49-1.04-.15-.2-.3-.39-.46-.59-.28.36-.57.69-.9 1.02-.34.35.17.84.53.53.22-.2.47-.38.73-.52-.18-.14-.37-.28-.55-.42-.04.12-.08.24-.12.35-.1.31.28.6.55.42l.66-.24c-.06-.23-.13-.47-.19-.7-.23.18-.5.3-.79.35-.47.12-.27.85.2.72.36-.09.65-.22.97-.42.29-.18.21-.74-.19-.7-.41.04-.69.12-1.04.34.18.14.37.28.55.42.04-.12.08-.24.12-.35.1-.31-.28-.59-.55-.42-.32.19-.6.4-.89.64l.53.53c.32-.33.61-.66.9-1.02.25-.31-.06-.83-.46-.59-.58.35-1.12.74-1.65 1.16l.53.53 1.23-1.38c.27-.3-.09-.86-.46-.59l-2.37 1.74c.15.2.3.39.46.59.63-.6 1.26-1.21 1.9-1.81.3-.29-.1-.84-.46-.59-1.36.95-2.72 1.89-4.09 2.84.13.22.25.43.38.65 1.38-1.05 2.73-2.14 4.04-3.28.32-.28-.11-.84-.46-.59-1.03.76-2.06 1.52-3.08 2.27.15.2.3.39.46.59 1.13-1.06 2.27-2.12 3.4-3.18.31-.28-.1-.84-.46-.59-1.23.88-2.45 1.75-3.68 2.63l.46.59 3.66-3.48c.32-.3-.09-.79-.46-.59-.65.35-1.26.75-1.84 1.2-.69.53-1.4 1.38-2.23 1.66.12.21.24.42.37.63.71-.76 1.45-1.48 2.25-2.14.63-.53 1.33-.95 1.71-1.71.16-.31-.18-.73-.51-.51-1.57 1.01-3.02 2.16-4.37 3.45l.53.53c.9-1.15 2.07-2.08 3.15-3.06.31-.28-.11-.85-.46-.59-1.25.92-2.49 1.84-3.74 2.76.15.2.3.39.46.59.46-.56.92-1.11 1.38-1.67.27-.33-.06-.78-.46-.59-.55.27-1.02.59-1.48 1l.53.53c.39-.42.71-.85 1-1.34.18-.3-.2-.75-.51-.51l-.9.67c.15.2.3.39.46.59.39-.33.66-.66.9-1.11.17-.3-.2-.75-.51-.51-.54.41-1.07.81-1.61 1.22.15.2.3.39.46.59.53-.6 1.07-1.2 1.6-1.8.28-.32-.07-.79-.46-.59-.63.34-1.17.77-1.71 1.24l.53.53c.35-.42.69-.84 1.04-1.25.26-.31-.06-.81-.46-.59-.62.36-1.21.75-1.77 1.18.15.2.3.39.46.59.45-.54.89-1.07 1.34-1.61.26-.32-.06-.81-.46-.59-.59.33-1.13.71-1.65 1.16l.53.53c.37-.39.68-.78.97-1.24.2-.32-.2-.7-.51-.51-.45.27-.78.59-1.07 1.03-.24.36.3.77.59.46.34-.36.6-.72.82-1.16.16-.31-.18-.73-.51-.51-.68.44-1.31.92-1.92 1.46l.53.53c.85-.76 1.66-1.53 2.33-2.46.22-.3-.21-.72-.51-.51-.99.68-1.9 1.43-2.77 2.26l.53.53c1.16-1.39 2.54-2.52 3.96-3.63.35-.27-.1-.78-.46-.59-1.52.81-2.64 2.15-4.13 3 .15.2.3.39.46.59 1.64-1.74 3.49-3.2 5.57-4.38-.15-.2-.3-.39-.46-.59-.91.77-1.83 1.53-2.76 2.27-.53.43-1.07.85-1.62 1.26-.38.29-.96.94-1.46.97l.27.64c1.74-2.17 3.87-3.94 6.02-5.68.34-.27-.09-.8-.46-.59-2.11 1.23-3.79 3.01-5.74 4.46.18.14.37.28.55.42.23-1.08 2.08-2.29 2.87-2.97 1.07-.91 2.18-1.77 3.32-2.59.39-.28.04-.91-.38-.65-1.17.73-2.27 1.55-3.34 2.41-1.08.87-2.46 2.49-3.79 2.88l.46.46c.29-.75 1.12-1.39 1.7-1.92.41-.37 1.37-1.48 1.93-1.38-.06-.21-.11-.42-.17-.63-.9 1.02-1.91 2.09-3.06 2.85-.6.4-.16.06.12-.24.18-.19.35-.39.55-.57.18-.14.36-.29.54-.43-.26-.03-.43.07-.53.3-.08.13-.18.24-.3.35-.23.3-.32.11-.25-.56l-.46-.46c-.04.09-.08.17-.12.26-.18-.14-.37-.28-.55-.42-.01.11-.02.23-.03.34-.2.03-.39.05-.59.08.01.02.02.03.02.04.1.44.83.24.74-.24" class="st15"/><path d="M364.98 149.25c-.02-.09-.01-.17.04-.24.1-.26-.2-.56-.46-.46-.3.11-.53.32-.57.65-.04.31.16.61.49.63.3.02.57-.24.78-.42.28-.24.54-.54.9-.68-.14-.18-.28-.37-.42-.55-.43.67-.92 1.3-1.47 1.88-.33.35.2.88.53.53.59-.62 1.12-1.3 1.58-2.03.16-.26-.11-.67-.42-.55-.3.12-.55.28-.79.48-.22.19-.49.56-.78.61.1.01.19.03.29.04-.03-.01-.06-.03-.08-.04.06.07.11.15.17.22v-.04l-.46-.46c-.08.22-.08.41-.04.64.08.47.81.26.71-.21M364 142.3c.58.09.99.02 1.47-.34.31-.23.15-.85-.29-.69-.47.17-.7.34-.93.8-.13.26.03.55.32.57.57.02 1.03-.1 1.51-.41.3-.19.2-.73-.19-.7-1.59.12-.38 2.22.52.97-.23-.1-.46-.19-.69-.29-.3.99 1.5 1.09 2.05 1.35.06-.23.13-.47.19-.7-.4-.03-.63.11-.82.45l.69.09-.04-.22-.69.09c.65 1.01 1.53.03 2.13-.51.23-.21.06-.67-.27-.64-.65.06-1.08.23-1.59.64-.38.3.16.82.53.53.37-.29 1.46-1.02 1.1-1.66-.31-.56-.89-.19-1.16.14.21.12.42.24.63.37.07-.46.13-.92.17-1.39l-.48.36c1.8.44 3.43-.16 5.04-.95.33-.16.18-.72-.19-.7-1.16.07-2.23.57-3.39.69-.66.07-1.1.23-1.36.88-.11.27.21.54.46.46 1.04-.33 2.06-.69 3.08-1.08-.1-.23-.19-.46-.29-.69-1.2.52-2.38 1.06-3.45 1.83-.4.28-.06.85.38.65 1.37-.61 2.73-1.22 4.1-1.83-.13-.22-.25-.43-.38-.65-1.43.69-2.81 1.42-4.02 2.44-.33.28.09.79.46.59 1.48-.84 3-1.59 4.57-2.24-.1-.23-.19-.46-.29-.69-1.64.86-3.33 1.65-4.74 2.86-.34.29.09.78.46.59 1.99-1.05 3.99-2.1 5.98-3.14.43-.23.05-.86-.38-.65-1.85.92-3.67 1.86-5.33 3.09-.38.28-.06.88.38.65 2.15-1.13 4.3-2.25 6.44-3.38.38-.2.12-.79-.29-.69-1.12.29-2.23.59-3.35.88.1.23.19.46.29.69 1.65-.7 3.42-.68 5.18-.64.41.01.53-.68.1-.74-1.42-.2-2.78-.02-4.19.22.07.24.13.48.2.72.81-.24 1.61-.42 2.44-.53.47-.06.48-.81 0-.75-1.62.2-3.2.53-4.76 1.01-.46.14-.27.85.2.72 1.03-.27 2.07-.53 3.1-.8-.1-.23-.19-.46-.29-.69-1.84 1.26-4.02 2.05-5.46 3.82-.26.32.06.8.46.59 2.17-1.16 4.31-2.4 6.67-3.14-.1-.23-.19-.46-.29-.69-2.01 1.01-4 2.05-5.57 3.69-.29.31.08.81.46.59 1.7-.98 3.39-1.92 5.29-2.46-.1-.23-.19-.46-.29-.69-1.62.88-3.33 1.69-4.69 2.96-.28.26.01.73.37.63 1.13-.32 2.08-1.08 3.25-1.26-.1-.23-.19-.46-.29-.69-.58.43-1.16.84-1.78 1.21-.54.33-1.55 1.12-2.2 1.04-.17-.02-.31.13-.36.28-.04.1-.08.19-.11.29-.07.18.08.42.26.46 1.23.27 2.7.28 3.62-.65.36-.37.62-.69 1.09-.95.25-.14.55-.21.78-.39.37-.3.51-.61.51-1.08 0-.3-.31-.44-.57-.32-1.36.64-2.98 2.32-4.52 2.36.06.23.13.47.19.7 1.18-.57 2.38-1.03 3.62-1.42-.1-.23-.19-.46-.29-.69-.69.39-1.38.78-2.07 1.18-.42.24-.05.87.38.65 1.22-.62 2.06-2.27 3.56-2.13-.06-.23-.13-.47-.19-.7-.26.19-.33.26-.51.53-.21.33.2.69.51.51.23-.09.46-.19.69-.28l-.42-.55c-.19.24-.37.49-.56.73-.19.25.13.67.42.55-.05.02-.65.69-.89.92-.21.21-.1.54.17.63.93.31 2.42.55 2.82-.69.32-1-.65-1.56-1.45-1.81-.2-.06-.4.08-.46.26-.09.17-.19.34-.28.51-.23.28-.02.73.37.63.4-.11.79-.21 1.19-.32-.1-.23-.19-.46-.29-.69-.5.38-1 .77-1.49 1.15-.38.29-.07.87.38.65.48-.23.96-.47 1.44-.7-.13-.22-.25-.43-.38-.65-.45.23-.83.49-1.2.83-.23.2-.06.68.27.64.4-.05.75-.12 1.14-.25-.1-.23-.19-.46-.29-.69-.25.18-.5.36-.75.55-.39.28-.01.93.38.65l.75-.55c.32-.23.15-.83-.29-.69-.3.12-.61.19-.94.22l.27.64c.35-.32.64-.51 1.05-.71.43-.22.05-.86-.38-.65-.48.23-.96.47-1.44.7.13.22.25.43.38.65.5-.38 1-.77 1.49-1.15.32-.24.16-.81-.29-.69-.4.11-.79.21-1.19.32.12.21.24.42.37.63.29-.36.32-.4.47-.84-.15.09-.31.18-.46.26.8.12.72.55-.24 1.28-.25-.06-.49-.13-.73-.22.06.21.11.42.17.63.37-.37 1.23-1.09 1.13-1.7-.08-.49-.57-.64-.98-.48.14.18.28.37.42.55.19-.24.37-.49.56-.73.21-.27-.13-.64-.42-.55-.46.13-.45.13-.87.36l.51.51c.08-.09.16-.18.24-.26.3-.22.2-.67-.19-.7-1.77-.16-2.53 1.53-3.94 2.24.13.22.25.43.38.65.69-.39 1.38-.78 2.07-1.18.37-.21.12-.81-.29-.69-1.31.4-2.57.9-3.8 1.49-.34.16-.17.71.19.7 1.78-.04 3.34-1.73 4.9-2.46-.19-.11-.38-.22-.56-.32.01.59-1.41 1.09-1.78 1.45-.99.99-1.86 1.22-3.27.91.09.15.18.31.26.46.04-.1.08-.19.11-.29-.12.09-.24.18-.36.28.64.08 1.31-.41 1.84-.7.88-.49 1.71-1.05 2.52-1.65.35-.26.14-.75-.29-.69-1.18.18-2.12.94-3.25 1.26.12.21.24.42.37.63 1.31-1.23 2.98-1.99 4.54-2.84.37-.2.12-.8-.29-.69-1.96.56-3.71 1.53-5.47 2.54.15.2.3.39.46.59 1.53-1.6 3.46-2.6 5.42-3.58.38-.19.12-.81-.29-.69-2.42.76-4.62 2.03-6.84 3.22.15.2.3.39.46.59 1.39-1.72 3.52-2.48 5.3-3.7.34-.23.14-.8-.29-.69-1.03.27-2.07.53-3.1.8.07.24.13.48.2.72 1.5-.46 3.01-.79 4.57-.98V139c-.9.12-1.77.3-2.64.55-.47.14-.27.8.2.72 1.27-.21 2.51-.4 3.79-.22.03-.25.07-.49.1-.74-1.92-.05-3.77-.02-5.56.74-.4.17-.11.79.29.69 1.12-.29 2.23-.59 3.35-.88-.1-.23-.19-.46-.29-.69-2.15 1.13-4.3 2.25-6.44 3.38.13.22.25.43.38.65 1.66-1.23 3.49-2.17 5.33-3.09-.13-.22-.25-.43-.38-.65-1.99 1.05-3.99 2.1-5.98 3.14l.46.59c1.36-1.17 3.02-1.92 4.59-2.74.37-.19.11-.85-.29-.69-1.63.68-3.21 1.45-4.75 2.32.15.2.3.39.46.59 1.17-.98 2.51-1.66 3.87-2.32.44-.21.05-.84-.38-.65-1.37.61-2.73 1.22-4.1 1.83.13.22.25.43.38.65 1.07-.77 2.24-1.31 3.45-1.83.39-.17.11-.84-.29-.69-1.02.39-2.04.75-3.08 1.08l.46.46c.18-.45 1.45-.37 1.91-.48.72-.18 1.36-.49 2.12-.53-.06-.23-.13-.47-.19-.7-1.41.69-2.87 1.26-4.46.87-.25-.06-.45.12-.48.36-.03.4-.08.8-.14 1.19-.05.33.36.69.63.37-.22-.16-.39-.14-.51.06-.15.15-.31.28-.49.4l.53.53c.35-.14.71-.28 1.06-.42-.09-.21-.18-.43-.27-.64-.02.02-.84.83-.95.66-.16-.25-.63-.25-.69.09-.05.27-.06.36.04.62.11.29.51.39.69.09.06-.03.12-.05.18-.08.37.03.52-.54.19-.7-.22-.11-1.62-.76-1.7-.5.13-.43-.45-.62-.69-.29.04.05.08.11.13.16l-.19-.7c-.33.26-.71.36-1.13.3l.32.57c.16-.15.32-.31.49-.46-.1-.23-.19-.46-.29-.69-.3.09-.59.17-.89.26-.54-.03-.74.69-.27.76M374.66 147.28c.05-.2.01-.33-.13-.48-.09-.1-.24-.13-.37-.1-.53.14-1 .58-1.41.92-.33.27.1.82.46.59.55-.35 1.1-.65 1.69-.91-.15-.2-.3-.39-.46-.59-.56.53-1.12 1.07-1.69 1.6-.31.29.09.81.46.59.75-.45 1.5-.89 2.26-1.34-.13-.22-.25-.43-.38-.65-.75.56-1.44 1.13-1.98 1.9-.22.31.21.7.51.51.62-.38 1.24-.76 1.85-1.14.31-.19.19-.71-.19-.7-.09 0-.18.01-.28.01-.48.02-.49.74 0 .75-.02-.01-.03-.01-.05-.02.06-.21.11-.42.17-.63-.55.22-.93.52-1.22 1.05-.18.32.19.72.51.51.6-.39 1.2-.77 1.8-1.16-.15-.2-.3-.39-.46-.59-.7.55-1.41 1.05-1.86 1.83-.19.33.19.69.51.51.91-.49 1.83-.98 2.74-1.48-.13-.22-.25-.43-.38-.65-.95.66-1.87 1.33-2.62 2.22-.26.31.07.81.46.59.92-.53 1.82-1.1 2.69-1.71-.15-.2-.3-.39-.46-.59-.67.7-1.39 1.28-2.22 1.78-.35.21-.12.84.29.69.46-.17.92-.35 1.39-.52-.1-.23-.19-.46-.29-.69-.53.25-1.05.52-1.56.81.13.22.25.43.38.65.5-.29 1.57-1 2.02-.68.04.03.19.4.27.49.14.15.32.24.51.31 1.01.38.92-.48.79-1.2-.21.12-.42.24-.63.37.14.32.27.64.41.96.05.47.79.49.75 0-.09-1.12-.33-2.15-1.33-2.8-.75-.48-1.23.23-1.65.89-.17.26.12.68.42.55.54-.22 1.09-.39 1.66-.51-.12-.21-.24-.42-.37-.63-.24.23-.48.46-.73.69-.31.29.09.81.46.59.22-.15.45-.25.71-.29-.14-.18-.28-.37-.42-.55-.15.27-.33.52-.53.76-.19.23-.11.52.17.63l.28.23c.3.38.83-.16.53-.53-.22-.28-.27-.29-.61-.42.06.21.11.42.17.63.24-.29.45-.59.65-.91.17-.29-.11-.63-.42-.55-.33.08-.6.2-.89.37.15.2.3.39.46.59l.72-.69c.28-.27-.01-.71-.37-.63-.57.13-1.11.3-1.66.52.14.18.28.37.42.55.4-.61.49-.84.99-.28.48.54.54 1.13.59 1.81h.75c-.07-.61-.23-1.01-.63-1.49-.26-.32-.69.04-.63.37.13.72-.02-.17-.2-.37-.2-.24-.28-.29-.6-.33-.76-.09-1.82.56-2.45.92-.42.24-.04.89.38.65.51-.29 1.03-.56 1.56-.81.38-.18.11-.84-.29-.69-.46.17-.92.35-1.39.52.1.23.19.46.29.69.88-.53 1.66-1.16 2.37-1.9.28-.3-.09-.84-.46-.59-.87.61-1.77 1.18-2.69 1.71.15.2.3.39.46.59.71-.84 1.57-1.48 2.47-2.11.39-.27.05-.88-.38-.65-.91.49-1.83.98-2.74 1.48l.51.51c.41-.72 1.11-1.17 1.75-1.68.34-.26-.1-.82-.46-.59-.6.39-1.2.77-1.8 1.16l.51.51c.15-.34.41-.58.77-.7.25-.1.39-.41.17-.63-.16-.15-.26-.2-.48-.2v.75c.09 0 .18-.01.28-.01-.06-.23-.13-.47-.19-.7-.62.38-1.24.76-1.85 1.14l.51.51c.47-.67 1.07-1.15 1.71-1.63.38-.28.05-.9-.38-.65-.75.45-1.5.89-2.26 1.34.15.2.3.39.46.59.56-.53 1.12-1.07 1.69-1.6.33-.32-.09-.75-.46-.59-.59.26-1.15.56-1.69.91.15.2.3.39.46.59.19-.17.39-.32.6-.46.25-.11.27-.32.05-.62-.09.5.63.7.75.23" class="st15"/><path d="M376.91 139.74c-.87-.25-1.83.72-2.46 1.21-.34.26.1.82.46.59.84-.54 1.64-1.02 2.63-1.23-.1-.23-.19-.46-.29-.69-1.03.67-2.65 1.31-3.26 2.43-.14.25.04.56.32.57.66.01 1.19-.27 1.78-.54.91-.41 1.83-.82 2.74-1.23-.13-.22-.25-.43-.38-.65-1.35.68-2.65 1.38-3.83 2.33-.36.29.1.75.46.59.76-.33 1.46-.72 2.14-1.19.4-.28.06-.84-.38-.65-.52.23-1.05.46-1.57.69-.39.17-.11.85.29.69.74-.3 2.35-.7 2.61-1.54.04-.13-.01-.27-.1-.37-.3-.32-.77-.26-1.17-.3.03.25.07.49.1.74 1.3-.29 2.61-.55 3.93-.77.41-.07.32-.78-.1-.74-1.53.15-3.04.41-4.54.79.07.24.13.48.2.72 1.21-.35 2.41-.7 3.62-1.04.34-.1.38-.65 0-.72-.92-.19-1.86.19-2.76-.12v.72c.7-.14 1.3-.08 1.95.21.1-.23.19-.46.29-.69-1.54-.65-3.44.56-4.52 1.58-.29.27.02.7.37.63.93-.19 1.74-.8 2.71-.74-.06-.23-.13-.47-.19-.7-.38.27-.74.5-1.16.71-.39.2-.11.78.29.69 1.55-.34 3.11-.54 4.7-.6.48-.02.48-.73 0-.75-1.76-.09-3.42.33-5.11.8-.46.13-.27.85.2.72 1.2-.33 2.3-.32 3.5.01.03-.25.07-.49.1-.74-1.15-.03-2.28.02-3.42.15.03.25.07.49.1.74 1.1-.35 2.21-.4 3.33-.07.51.15 1 .37 1.44.68.92.63.76 1.32.32 2.22.23.1.46.19.69.29.14-.6.41-1.26.39-1.88 0-.13-.07-.26-.19-.32-1.4-.71-.91 2.49-.78 3.03.06.25.35.33.55.22.99-.51 1.84-1.15 2.61-1.96.28-.3-.1-.86-.46-.59-.72.54-1.36 1.07-1.81 1.86-.15.26.11.67.42.55 1.03-.39 1.94-.92 2.79-1.62.38-.31-.16-.82-.53-.53-.87.68-1.72 1.31-2.77 1.67l.46.46c.16-.67 2.12-1.67 2.67-2.05.34-.24.14-.79-.29-.69-1.28.31-2.43.81-3.52 1.54-.41.27-.06.86.38.65 1.09-.52 2.17-1.04 3.26-1.56.38-.18.11-.85-.29-.69-1.11.45-2.14 1-3.12 1.67-.39.27-.05.89.38.65.94-.52 1.86-1.06 2.78-1.62.3-.18.2-.73-.19-.7-.96.07-1.81.35-2.71.69-.44.17-.26.89.2.72.9-.32 1.79-.64 2.69-.96.31-.11.4-.67 0-.72-.93-.13-1.81-.15-2.75-.04.03.25.07.49.1.74.94-.15 2.47-.04 3.13-.8.19-.22.09-.67-.27-.64-1.06.1-2.1.25-3.15.46.1.23.19.46.29.69l2.01-1c.35-.17.16-.69-.19-.7-.25-.01-3.03 0-3.04-.06-.01-.09.75-.41.64-.9-.26-1.13-2.29-.33-2.86-.02-.36.19-.15.66.19.7 1.47.17 2.92.16 4.39-.02.47-.06.5-.76 0-.75-1.25.03-2.45.22-3.65.56-.42.12-.31.71.1.74 1.41.1 2.77-.45 4.17-.26-.03-.25-.07-.49-.1-.74-.98.38-1.96.71-2.97 1 .07.24.13.48.2.72 1.13-.33 2.26-.65 3.43-.79-.06-.23-.13-.47-.19-.7-.95.41-1.9.83-2.85 1.24-.4.17-.11.79.29.69l2.28-.59c-.12-.21-.24-.42-.37-.63-.11.11-.81.96-1.06.69-.29-.31-.81.09-.59.46.27.32.35.69.23 1.13h.53c-.04-.21-.08-.43-.12-.64.05-.42-.67-.52-.74-.1-.08.48-.19.93-.36 1.38-.14.38.37.59.63.37.17-.16.35-.31.52-.47.36-.32-.17-.85-.53-.53-.17.16-.35.31-.52.47.21.12.42.24.63.37.17-.46.29-.9.36-1.38-.25-.03-.49-.07-.74-.1-.06.47-.04.85.34 1.17.17.14.36.13.53 0 .68-.54.25-1.44-.12-2.04-.2.15-.39.3-.59.46.78.84 1.53-.09 2.12-.69.27-.27 0-.72-.37-.63-.76.2-1.52.39-2.28.59.1.23.19.46.29.69.95-.41 1.9-.83 2.85-1.24.33-.15.17-.75-.19-.7-1.24.16-2.43.47-3.63.82-.46.14-.27.86.2.72 1.01-.29 1.99-.62 2.97-1 .41-.16.32-.68-.1-.74-1.41-.18-2.76.37-4.17.26.03.25.07.49.1.74 1.14-.33 2.26-.51 3.45-.54v-.75c-1.47.18-2.92.19-4.39.02.06.23.13.47.19.7.09-.05 1.49-.71 1.56-.36.01.06-.28.19-.33.3-.12.29-.28.51-.04.82.21.27.56.25.86.26.94.05 1.88.04 2.82.06-.06-.23-.13-.47-.19-.7l-2.01 1c-.4.2-.11.77.29.69.98-.2 1.96-.34 2.95-.43l-.27-.64c-.46.53-2.15.5-2.8.61-.41.07-.32.79.1.74.86-.1 1.68-.11 2.55.02v-.72c-.9.32-1.79.64-2.69.96.07.24.13.48.2.72.83-.32 1.62-.6 2.51-.66-.06-.23-.13-.47-.19-.7-.91.56-1.84 1.1-2.78 1.62.13.22.25.43.38.65.93-.64 1.89-1.17 2.94-1.6-.1-.23-.19-.46-.29-.69-1.09.52-2.17 1.04-3.26 1.56.13.22.25.43.38.65 1.04-.69 2.13-1.17 3.34-1.46-.1-.23-.19-.46-.29-.69-.73.51-1.46 1.02-2.18 1.53-.42.3-.72.47-.84.97-.06.26.18.56.46.46 1.17-.41 2.14-1.11 3.11-1.87l-.53-.53c-.75.62-1.55 1.08-2.46 1.43.14.18.28.37.42.55.4-.69.91-1.11 1.54-1.59-.15-.2-.3-.39-.46-.59-.72.77-1.52 1.36-2.46 1.84.18.07.37.15.55.22-.09-.35-.15-.71-.17-1.08-.01-.26-.01-.53.02-.79-.54-.74-.66.79-.72 1.03-.1.4.49.69.69.29.75-1.51.59-2.58-.91-3.45-1.54-.88-3.36-1.01-5.03-.48-.38.12-.34.79.1.74 1.14-.13 2.27-.17 3.42-.15.43.01.51-.63.1-.74-1.31-.36-2.58-.36-3.9-.01.07.24.13.48.2.72 1.62-.45 3.21-.86 4.91-.78v-.75c-1.66.06-3.28.27-4.9.63.1.23.19.46.29.69.42-.21.78-.44 1.16-.71.3-.22.2-.68-.19-.7-1.06-.07-1.9.56-2.91.76.12.21.24.42.37.63.89-.84 2.52-1.93 3.79-1.39.39.16.68-.52.29-.69-.84-.37-1.63-.46-2.53-.28-.39.08-.32.61 0 .72.92.32 1.82-.08 2.76.12v-.72c-1.21.35-2.41.7-3.62 1.04-.46.13-.27.84.2.72 1.43-.36 2.87-.62 4.34-.76-.03-.25-.07-.49-.1-.74-1.32.22-2.63.48-3.93.77-.44.1-.3.7.1.74.41.04.39-.06-.15.1-.46.13-.95.45-1.39.63.1.23.19.46.29.69.52-.23 1.05-.46 1.57-.69-.13-.22-.25-.43-.38-.65-.68.47-1.38.86-2.14 1.19.15.2.3.39.46.59 1.13-.9 2.4-1.56 3.68-2.21.44-.22.05-.84-.38-.65-.63.28-1.26.57-1.9.85-.68.31-1.49.83-2.24.82.11.19.22.38.32.57.49-.89 2.16-1.62 2.99-2.16.36-.23.13-.78-.29-.69-1.04.23-1.92.74-2.81 1.31.15.2.3.39.46.59.27-.21 1.32-1.14 1.73-1.02.5.14.7-.58.24-.72" class="st15"/><path d="M384.94 144.1c.6-.77 2.55-.54 3.43-.59.42-.02.51-.61.1-.74-.8-.26-1.46-.25-2.26.01-.32.11-.39.65 0 .72.87.16 1.74-.13 2.59.11v-.72c-1.21.17-2.38.38-3.52.85-.35.15-.36.79.1.74 1.06-.12 2.11-.3 3.15-.54-.07-.24-.13-.48-.2-.72-.69.18-1.37.36-2.06.54-.4.1-.33.79.1.74 1.21-.14 2.42-.27 3.62-.43.5-.07.86-.11 1.14-.55.12-.19.01-.51-.22-.55-.89-.17-1.57-.65-2.39-.99-1.13-.47-2.3-.78-3.41-1.32-.73-.35-1.42-.8-2.21-1-.93-.23-1.93-.18-2.88-.16-.49.01-.47.71 0 .75 2.02.18 3.92.29 5.77 1.19 1.58.77 3.13 1.49 4.78 2.12.32.12.57-.29.42-.55-.36-.62-.84-.75-1.52-.91-1-.23-1.67-.74-2.59-1.14-.93-.41-2.01-.48-3.01-.64-.62-.1-1.35-.37-1.96-.19-.32.09-.36.51-.09.69.47.3.94.4 1.47.55.81.23 1.54.62 2.29.98.88.43 1.94.99 2.94.74.33-.08.35-.51.09-.69-1.13-.76-2.82-.64-4.11-.52-.4.03-.53.63-.1.74 1.66.43 3.33.86 4.99 1.28.47.12.66-.58.2-.72-1.03-.33-2-.15-3.03.11-.47.12-.27.84.2.72.89-.22 1.74-.39 2.63-.11l.2-.72c-1.66-.43-3.33-.86-4.99-1.28-.03.25-.07.49-.1.74 1.16-.1 2.71-.26 3.73.42l.09-.69c-1.1.28-2.48-.75-3.44-1.19-.86-.4-1.89-.5-2.68-1.01l-.09.69c.6-.18 1.64.21 2.26.31.76.12 1.54.21 2.25.53.51.23.94.58 1.44.81.66.3 1.88.2 2.28.9.14-.18.28-.37.42-.55-1.89-.72-3.64-1.69-5.5-2.47-1.65-.69-3.49-.71-5.25-.87v.75c1.17-.02 2.37-.08 3.46.42.79.37 1.53.79 2.34 1.13.9.38 1.89.6 2.77 1.03.74.36 1.29.71 2.13.87-.07-.18-.15-.37-.22-.55-.22.34-1.79.34-2.19.38-.64.08-1.29.15-1.93.23.03.25.07.49.1.74.69-.18 1.37-.36 2.06-.54.47-.12.27-.83-.2-.72-.98.23-1.95.4-2.95.51.03.25.07.49.1.74 1.14-.47 2.31-.68 3.52-.85.39-.06.33-.63 0-.72-.88-.25-1.71.06-2.59-.11v.72c.61-.2 1.25-.21 1.86-.01.03-.25.07-.49.1-.74-1.18.06-3.14-.25-3.96.81-.29.33.24.87.53.49" class="st15"/><path d="M402.71 158.88c1.13 3.09 1.54 6.32 1.31 9.59-.12 1.63-.25 3.26-.53 4.87-.14.83-.32 1.66-.54 2.48-.19.7-.37 1.93-1.04 2.34-.82.5-.07 1.8.76 1.3 1.28-.78 1.58-2.55 1.9-3.91.45-1.86.68-3.78.84-5.69.16-1.84.37-3.69.09-5.52-.29-1.98-.67-3.97-1.35-5.86-.31-.9-1.77-.51-1.44.4" class="st14"/><path d="M403.7 159.09c.78 2.67 1.24 5.4 1.32 8.18.04 1.24.01 2.5-.11 3.73-.15 1.52-.79 2.8-1.12 4.26-.11.47.62.67.72.2.29-1.29.9-2.46 1.08-3.79.19-1.45.22-2.94.18-4.41-.08-2.84-.55-5.65-1.35-8.38-.13-.45-.86-.25-.72.21" class="st14"/><path d="M395.4 158.46c-.99.35-2.2 1.07-2.45 2.19-.24 1.07.73 1.76 1.71 1.58 1.19-.22 2.26-1.42 2.67-2.51.31-.83.07-1.85-.99-1.82-1.99.05-4.32 3.81-3.61 5.62 1.09 2.79 4.6-.7 5.43-1.86.52-.73 1.42-1.99.86-2.92-.61-1.02-1.9-.43-2.59.15-1.15.96-4.48 4.75-2.29 6.18 2.04 1.33 4.6-3.34 5.16-4.69.31-.75.44-1.81-.62-1.98-1.17-.19-2.25 1.51-2.81 2.3-.84 1.17-1.71 2.73-1.83 4.19-.08 1.03.52 2.16 1.72 1.71 1.39-.52 2.4-2.72 3.11-3.91.58-.98 1.83-2.66 1.23-3.85-.12-.24-.39-.36-.65-.37-1.53-.07-2.84 2.3-3.45 3.48-.59 1.14-1.66 3.23-.5 4.37 1.32 1.3 3.08-.52 3.88-1.51.94-1.16 2.71-3.18 2.07-4.79-.14-.35-.36-.5-.72-.55-1.73-.22-3.17 2.9-3.64 4.21-.41 1.13-.79 4.46 1.47 3.6.86-.33 1.5-1.33 1.99-2.07.66-.99 1.17-2.14 1.43-3.3.16-.68.28-1.55-.43-1.98-.69-.42-1.31.02-1.76.55-1.15 1.36-2.43 4.17-1.53 5.93.99 1.93 2.79.39 3.62-.76.88-1.23 2.49-4.17 1.12-5.53-1.62-1.62-2.84 2.75-3.02 3.67-.18.91-.34 2.23.28 3.03.51.66 1.36.6 1.92.04.73-.73.93-2.13 1.04-3.1.15-1.39-.03-2.77-.42-4.1-.28-.93-1.64-.54-1.45.4.36 1.81.73 3.61 1.09 5.42.17.83 1.5.64 1.48-.2-.03-1.09-.05-2.18-.18-3.26-.04-.37-.1-.75-.16-1.12-.06-.31-.59-1.8-.41-2.02-.24.06-.49.13-.73.19-.21-.05.24 1.17.28 1.32.12.42.22.84.31 1.27.22 1.08.33 2.17.37 3.27.07 2.14-.15 4.28-.52 6.38.49.07.98.13 1.48.2.01-1.6.31-3.22.12-4.82-.09-.77-.34-2.49-1.43-2.51-1.04-.02-1.43 1.62-1.61 2.36-.31 1.29-.45 2.89.35 4.02.42.59 1.39.41 1.4-.38.01-.98-.08-1.92-.25-2.88-.13-.74-1.28-.69-1.45 0-.4 1.65-.25 3.26.5 4.79.23.47.59.95.67 1.48.09.58-.16 1.18-.32 1.72-.26.88-.41 1.75-.49 2.66-.07.75 1.06 1.01 1.4.38 1.56-2.9 1.44-6.67 1.17-9.86-.49.07-.98.13-1.48.2.16.78.08 1.42-.18 2.16.49.07.98.13 1.48.2.08-2.11-.4-4.12-1.38-5.99l-1.03 1.03c.09.18.19.36.28.53.42-.24.84-.49 1.26-.73l-.95-.81c-.73-.62-1.8.43-1.06 1.06.32.27.63.54.95.81.6.51 1.37.01 1.26-.73-.1-.66-.43-1.07-.97-1.43-.66-.44-1.36.4-1.03 1.03.86 1.64 1.24 3.38 1.18 5.23-.03.89 1.21.97 1.48.2.35-.99.39-1.93.18-2.96-.16-.82-1.55-.65-1.48.2.24 2.9.46 6.46-.96 9.1.47.13.93.25 1.4.38.14-1.64 1.16-3.33.7-4.97-.21-.75-.69-1.4-.97-2.13-.39-1.04-.41-2.08-.15-3.15h-1.45c.15.83.2 1.64.19 2.48.47-.13.93-.25 1.4-.38-.49-.69-.43-1.65-.29-2.45.07-.42.27-1.62.62-1.77h-.76c.55.3.38 2.34.36 2.9-.05 1.01-.16 2.01-.17 3.02 0 .82 1.33 1.05 1.48.2.47-2.67.74-5.39.49-8.1-.11-1.22-.32-2.45-.65-3.63-.22-.77-.42-2.13-1.33-2.37-.24-.06-.57-.01-.73.19-.66.84-.34 1.85-.12 2.8.35 1.53.39 3.1.43 4.66.49-.07.98-.13 1.48-.2-.36-1.81-.73-3.61-1.09-5.42l-1.45.4c.51 1.72.44 3.18.1 4.92-.03.16-.19 1.04-.09.32.06-.43.02-.87.12-1.3.11-.51.56-2.58 1.09-2.72-.24-.06-.49-.13-.73-.19.76.76-1.1 4.43-2.02 4.46-.78.02.02-2.08.25-2.6.16-.35.43-.69.57-1.04.31-.24.33-.36.06-.35-.23-.09-.31.03-.26.37-.37.71-.54 1.51-.96 2.21-.21.35-.44.68-.7 1-.22.27-.38.71-.6.42-.32-.43.7-2.27.93-2.66.2-.35 1.08-1.96 1.63-1.89-.24-.18-.48-.37-.72-.55.32.79-.82 2.14-1.25 2.74-.26.36-2.08 2.84-2.19 1.42-.05-.7.69-1.85 1.03-2.43.26-.43 1.26-2.22 1.85-2.19-.22-.12-.43-.25-.65-.37.06.13-.65 1.33-.78 1.56-.29.52-.59 1.03-.9 1.53-.23.38-.47.75-.72 1.12-.21.31-.44.61-.69.9-.32.15-.38.33-.17.54-.07-.92.57-2.03 1.01-2.81.3-.53 1.42-2.57 2.15-2.54-.22-.12-.43-.25-.65-.37.19.28-1.16 2.16-1.33 2.4-.15.2-1.57 1.91-1.68 1.82-.53-.4 1.37-2.68 1.62-2.96.06-.06.98-.91.98-.92 0-.01-.56.76-.64.87-.54.78-1.29 1.57-2.13 2.04-1.27.72-.24-1.52.04-1.93.27-.4.6-.77.98-1.07.15-.1.29-.21.44-.31-.32-.27-.53-.21-.6.18-.37.36-.61.71-1.04 1.02-.29.34-.23.28.19-.2.28-.25.59-.42.95-.53.86-.35.47-1.8-.45-1.48" class="st14"/><path d="M402.39 166.69c-.85.31-2.06.74-1.59 1.89.29.7 1.58.72 1.48-.2-.06-.5-.17-.9-.4-1.35-.25-.49-1.04-.49-1.3 0-.36.68-.35 1.25-.02 1.94.25.51 1.04.47 1.3 0 1.31-2.4-3.04-3.5-3.38-1.17-.13.86.62 1.39 1.4 1.07.92-.39 1.66-1.36 1.24-2.33-.1-.23-.41-.38-.65-.37-.84.02-2.15 1.23-1.95 2.14.27 1.2 1.72.72 2.31.11.59-.6-.17-1.62-.91-1.18-.26.15-.52.3-.78.46-.44.23-.52.29-.26.18.22.12.43.25.65.37-.7-.94-2.8-2.03-3.75-.77-1.19 1.58 1.64 1.64 2.45 1.35.9-.32.55-1.67-.4-1.45-.44.1-.86.23-1.27.4-.39.16-.89.59-1.28.66-1.25.24-1.91-1.95-2.2-2.8-.82-2.34.38-4.84 2.41-6.13-.3-.39-.61-.79-.91-1.18-.8 1.03-1.6 2.07-2.12 3.28-.31.73-.87 2.02-.13 2.65.26.22.6.29.91.12.4-.22.7-.57 1.02-.88-.42-.24-.84-.49-1.26-.73-.33.79-1.18 2.22-.83 3.09.14.34.36.51.72.55.83.09 1.55-.9 2.11-1.4-.42-.24-.84-.49-1.26-.73-.35.96-1.17 2.35-.64 3.37.12.24.39.36.65.37.89.03 1.65-1.18 2.21-1.73-.39-.3-.79-.61-1.18-.91-.46 1.08-1.69 2.68-.82 3.76.16.2.5.26.73.19.47-.13.73-.51 1.06-.86.61-.65 1.22-1.31 1.83-1.96-.39-.3-.79-.61-1.18-.91-.44.62-.79 1.22-.98 1.97-.17.67.52 1.12 1.1.85.76-.36 1.5-.74 2.23-1.14.85-.47.09-1.77-.76-1.3-.73.41-1.47.79-2.23 1.15.37.28.74.57 1.1.85.15-.62.46-1.1.82-1.61.49-.7-.6-1.53-1.18-.91-.44.47-.89.95-1.33 1.42-.22.24-.44.47-.66.71-.39.35-.46.45-.23.29.24.06.49.13.73.19-.05-.06-.09-.12-.14-.17.06.24.13.49.19.73.15-.85.66-1.71 1-2.5.32-.74-.53-1.56-1.18-.91-.11.11-1.13 1.29-1.15 1.29.22.12.43.25.65.37-.13-.26.67-1.87.79-2.21.27-.75-.74-1.2-1.26-.73-.14.13-.89.98-1.04.96.24.18.48.37.72.55.01.03.21-.67.3-.92.16-.46.34-.92.53-1.37.31-.74-.76-1.2-1.26-.73-.23.23-.47.44-.72.65.3.04.61.08.91.12.16.14.31-.67.33-.73.13-.37.32-.73.52-1.08.41-.7.9-1.35 1.39-1.99.48-.62-.12-1.68-.91-1.18-2.79 1.77-4.17 5.14-2.93 8.27.49 1.24 1.08 2.81 2.39 3.39 1.37.61 2.74-.74 4.05-1.04-.13-.48-.27-.97-.4-1.45-.18.07-.83.09-.92.18.09.32.18.63.27.95.18.02.35.04.53.05.4.15.52.58.88.74.7.31 1.54-.45 2.08-.77-.3-.39-.61-.79-.91-1.18l-.13.2c.12.22.25.43.37.65 0-.21.89-.54.46-.54-.22-.12-.43-.25-.65-.37-.83.12-.58.43.74.91h1.3c.01-.14.01-.28.02-.43h-1.3c.06.2.13.39.19.59.49-.07.98-.13 1.48-.2-.13.2-.1.24.08.13.15-.06.31-.11.46-.17.94-.32.56-1.77-.35-1.44" class="st14"/><path d="M403.27 170.28c.04.38 0 .75-.1 1.12-.2.94 1.22 1.34 1.45.4.35-1.46.4-2.86.19-4.35-.12-.85-1.49-.63-1.48.2.04 2.37-.11 4.72-.48 7.05-.12.76 1.01 1.43 1.37.58.76-1.78.78-3.58.69-5.49h-1.5c.19 1.95-.06 3.84-.83 5.64-.38.88.92 1.65 1.3.76.88-2.05 1.26-4.17 1.04-6.4-.09-.94-1.55-.98-1.5 0 .08 1.59.15 3.23-.49 4.73.46.19.92.39 1.37.58.39-2.47.57-4.95.53-7.45-.49.07-.98.13-1.48.2.17 1.21.09 2.37-.19 3.55.48.13.97.27 1.45.4.11-.52.16-.99.15-1.52-.01-.97-1.52-.97-1.49 0M395.1 159.33c.06-1.33.88-.8 1.65-.72.6.06 1.2-.07 1.77-.26.75-.25 1.49-.75 2.05.04.13.19.15.91.32 1.01.34.2.9-.29 1.11-.47.41-.35.2-.91-.15-1.18-1.23-.93-3.9-.38-4.6 1.02-.15.3-.13.66.12.91.83.85 2.34.1 3.25-.27-.28-.37-.57-.74-.85-1.1-.12.19-.25.38-.37.57-.53.81.77 1.57 1.3.76.12-.19.25-.38.37-.57.33-.51-.23-1.36-.85-1.1-.14.06-1.73.72-1.79.66.04.3.08.61.12.91.35-.7 2.02-.87 2.54-.48-.05-.39-.1-.79-.15-1.18-.63.53-1.35 1.02-1.28 1.95.05.66.53 1.13 1.18 1.2 2.07.2 1.66-1.98 1.11-3.21-.3-.67-.75-1.26-1.5-1.43-1.19-.28-2.16.73-3.32.74-.88.01-1.57-.66-2.41-.08-.73.51-1.09 1.43-1.13 2.28-.04.97 1.46.97 1.51 0" class="st14"/><path d="M402.15 158.34c0-.02.01-.03.01-.05l-.52.52c.03-.01.05-.01.08-.02h-.4c.12.02.69.22.42-.06.09.1.12.41.15.53.09.42.1.83.08 1.26-.06.97 1.44.96 1.5 0 .05-.79-.03-1.65-.36-2.38-.3-.66-1.2-.92-1.87-.77-.25.05-.46.28-.52.52 0 .02-.01.03-.01.05-.25.93 1.2 1.34 1.44.4M394.53 153.8c-.13.26-.2.54-.22.84-.06.37.33.63.63.37.39-.34.62-.72.85-1.18.22-.43-.39-.79-.65-.38-.37.58-.75 1.27-.23 1.85.12.13.31.13.46.06.64-.31 1.04-1.08 1.31-1.7.16-.38-.26-.76-.59-.46-.51.47-1.44 1.48-1.07 2.25.06.12.2.18.32.19.88.04 1.65-1.67 1.95-2.3.17-.36-.28-.79-.59-.46-.56.61-1.49 1.63-1.39 2.52.03.27.22.4.48.36.37-.05.57-.44.78-.71.42-.52.9-1.03 1.28-1.58.49-.73.72-1.63.39-2.49-.04-.11-.13-.24-.26-.26-.38-.06-.53.11-.86.35l.51.51c.19-.45.35-.96-.06-1.34-.24-.23-.37-.19-.54-.46-.11-.18-.39-1.14-.39-1.26-.25.03-.49.07-.74.1.25.74.62 1.5 1.22 2.02.75.65 1.8.13 2.37 1.14.17.31.43.6.21.81-.09.08-.33.08-.44.1-.4.11-.74.21-1.1.42-.92.54-1.61 1.41-2.41 2.1l.53.53c.81-.91 1.81-1.6 2.67-2.46.41-.41.96-.89.81-1.52-.24-.98-2.07-1.92-2.1-.36 0 .21.18.37.38.38.41.01.75-.28 1.14-.4-.14-.18-.28-.37-.42-.55-.28.44-.66.76-.89 1.22-.14.28.09.64.42.55.41-.11.72-.37 1.13-.49-.12-.21-.24-.42-.37-.63-.35.35-1.14.82-1.11 1.39.02.28.31.48.56.32.48-.29.96-.57 1.44-.86.41-.25.04-.89-.38-.65-.48.28-.93.58-1.37.91-.33.25-.15.79.29.69.44-.11.87-.33 1.32-.39-.11-.19-.22-.38-.32-.57-.11.11-.22.23-.33.34-.38.3.16.83.53.53.25-.2.26-.23.45-.49.15-.22-.05-.6-.32-.57-.54.06-1 .29-1.52.41.1.23.19.46.29.69.44-.33.89-.63 1.37-.91-.13-.22-.25-.43-.38-.65l-1.44.86c.19.11.38.22.57.32-.01-.08.83-.8.89-.85.26-.26 0-.74-.37-.63-.4.12-.72.38-1.13.49.14.18.28.37.42.55.22-.46.62-.79.89-1.22.17-.28-.11-.65-.42-.55-.26.08-.69.38-.94.37l.38.38c.28.01.47.17.58.47-.1.2-.19.39-.29.59-.26.37-.69.67-1.03.96-.67.57-1.33 1.12-1.92 1.78-.32.36.16.84.53.53 1.23-1.05 2-2.08 3.65-2.37.5-.09.78-.14.75-.69-.03-.71-.78-1.95-1.35-2.35-.34-.24-.55-.14-.93-.2-1.06-.17-1.46-.75-1.79-1.72-.13-.39-.73-.34-.74.1 0 .48.17 1.35.4 1.76.18.31.85.54.69.92-.13.3.17.76.51.51.46-.21.54-.31.23-.28-.19-.06-.24.02-.13.24.06.23.03.46-.07.68-.04.38-.21.7-.51.97-.23.3-1.06 1.66-1.43 1.71l.48.36c-.07-.65.79-1.57 1.17-1.99-.2-.15-.39-.3-.59-.46-.21.43-.98 1.27-1.06 1.66.02.74.14.71.35-.08.18-.31.41-.58.68-.8-.2-.15-.39-.3-.59-.46-.22.51-.51 1.17-1.04 1.43.15.02.3.04.46.06.01-.36.12-.67.35-.94-.22-.13-.43-.25-.65-.38-.21.42-.37.71-.74 1.03.21.12.42.24.63.37.01-.29.09-.57.22-.84.18-.42-.54-.61-.71-.16" class="st14"/></g></g></svg>