<svg xmlns="http://www.w3.org/2000/svg" id="Layer_1" x="0" y="0" version="1.1" viewBox="0 0 500 500" xml:space="preserve"><defs/><style>.st0{fill:#d3e493}</style><path d="M71.51 200.32c-28.39 13.27-32.43 52.33-24.46 79.04 8.42 28.2 32.78 51.09 63.6 48.37 15.62-1.37 30.01-8.68 38.59-22.07-3.14.4-6.28.81-9.42 1.21 22.9 23.11 49.68 48.42 84.54 47.66 29.47-.64 58.33-18.76 70.13-46.03-3.14.4-6.28.81-9.42 1.21 21.64 17.73 49.91 28.26 78.08 24.71 26.06-3.28 49.41-19.32 60.87-43.18 6.35-13.22 8.56-27.58 5.85-42.03-1.4 2.46-2.79 4.92-4.19 7.38 35.87-14.92 47.09-61.33 39.05-96.21-8.2-35.55-37.34-61.94-74.23-63.47-19.6-.81-39.29 5.87-53.26 19.84 3.41 1.41 6.83 2.83 10.24 4.24-.02-16.16-8.17-31.33-20.46-41.61-13.52-11.31-30.63-16.65-47.85-19-34.81-4.75-72.23 1.01-100.69 22.69-14.33 10.92-25.4 24.97-32.29 41.64 3.34-.88 6.69-1.77 10.03-2.65-24.07-18.81-60.34-11.75-81.99 7.62-21.23 19-26.33 53.38-5.99 74.98 5.31 5.63 13.78-2.87 8.49-8.49-16.03-17.01-10.22-43.48 5.97-57.99 16.22-14.54 46.47-22.11 65.02-7.62 3.79 2.96 8.2 1.79 10.03-2.65 10.84-26.23 35.43-44.55 62.19-52.21 15.29-4.38 31.25-5.61 47.09-4.56 15.12 1 30.75 3.93 44 11.62 13.73 7.97 24.42 21.87 24.44 38.23.01 5.2 6.56 7.92 10.24 4.24 21.04-21.02 56.34-21.01 80.09-4.57 25.45 17.61 34.08 52.92 27.21 81.9-4.01 16.94-13.64 35.44-30.53 42.47-3.2 1.33-4.86 3.84-4.19 7.38 5.16 27.48-13.95 55.51-39.04 65.7-28.7 11.66-62.51 2.12-85.7-16.89-2.63-2.15-7.74-2.67-9.42 1.21-10.35 23.93-35.02 40.06-61.13 40.11-30.84.05-54.48-23.76-74.69-44.16-2.81-2.84-7.36-2-9.42 1.21-12.02 18.75-39.78 20.71-57.4 9.17-20.65-13.53-29.18-42.08-25.25-65.63 2.24-13.41 8.52-26.47 21.33-32.46 6.99-3.26.9-13.61-6.06-10.35z" class="st0"/><path d="M154.23 253.23c-1.51-29.51 1.15-58.93 8.06-87.66-3.34.88-6.69 1.77-10.03 2.65 18.06 22.11 26.8 50.02 42.8 73.46 5.16 7.57 20.36 30.36 29.29 14.32 1.67-3 2.01-6.53 2.56-9.85.75-4.49 1.45-8.99 2.11-13.5 1.24-8.58 2.33-17.19 3.22-25.81 2.09-20.07 3.15-40.23 3.27-60.4.05-7.72-11.95-7.73-12 0-.12 20.18-1.18 40.33-3.27 60.4-1.02 9.82-2.29 19.62-3.81 29.38-.4 2.57-.82 5.14-1.25 7.71-.2 1.2-1.09 3.81-.92 5.06-.7 1.54-.05 1.55 1.96.04-.72-.76-1.44-1.52-2.14-2.3-1.39-1.55-2.75-3.14-4.04-4.78-19.96-25.22-28.86-57.21-49.29-82.22-2.87-3.52-9.04-1.46-10.03 2.65-7.15 29.72-10.05 60.32-8.49 90.85.4 7.68 12.4 7.73 12 0zM246.11 240.59c.2-.19.41-.39.61-.58-6.74 4.09-.86 13.48 6.06 10.36 1.37-.62 2.82-.85 4.32-.74.39.03 2.66.74 1.98-.06-.58-.69-.63 1.66-.88 2.52-.38 1.3-.88 2.57-1.44 3.8-2.17 4.74-5.31 8.69-9.14 12.17-3.19 2.9-1.74 9.19 2.65 10.03 9.82 1.87 19.47 1.8 29.25-.29 7.55-1.61 4.35-13.18-3.19-11.57-7.58 1.62-15.25 1.74-22.87.29.88 3.34 1.77 6.69 2.65 10.03 7.13-6.48 14.92-17.31 14.81-27.44-.14-12.56-15.75-12.91-24.19-9.11 2.02 3.45 4.04 6.91 6.06 10.36 1.66-1.01 2.71-2.04 3.7-3.72 3.89-6.68-6.48-12.72-10.38-6.05zM358.78 162.47c-4.28-8.78-14.78-11.24-23.72-9.54-9.78 1.85-18.24 8.52-24.08 16.33-12.46 16.68-14.78 43.22-7.17 62.43 8.1 20.46 28.85 29.03 49.78 23.96 19.52-4.73 35.51-20.92 37.96-41.09 3.09-25.49-13.62-47.6-34.99-59.43-6.76-3.74-12.82 6.62-6.06 10.36 13.98 7.74 25.77 19.87 28.8 36.05 2.99 15.98-4.75 30.92-18.81 38.65-12.81 7.04-31.64 7.65-41.26-4.99-9.37-12.31-9.11-31.75-4.92-45.9 2.46-8.31 7.28-16.24 14.69-21 5.18-3.33 15.81-7.19 19.42.22 3.39 6.95 13.74.87 10.36-6.05z" class="st0"/></svg>