<svg xmlns="http://www.w3.org/2000/svg" id="Layer_1" x="0" y="0" version="1.1" viewBox="0 0 500 500" xml:space="preserve"><defs/><style>.st0{fill:#a97c50}.st1{fill:#2bb673}.st2{fill:#be1e2d}.st3{fill:#c49a6c}.st4{fill:#ceab83}</style><g id="XMLID_20_"><path d="M305.33 279.91c-1.29 1.26-2.58 2.52-3.88 3.78-.01.01-.02.02-.02.03l-.9-1.18c-24.68-26.29-48.68-52.29-76.38-75.24l-.78-.9c.95-.58 1.23-1.82 1.93-2.69.39-.49.91-.85 1.38-1.26.71-.62 1.31-1.35 1.79-2.15l76.86 79.61z" class="st0"/><path d="M304.44 279.03c-1.28 1.24-2.76 2.43-3.9 3.81.65.08 1.31.17 1.96.25-1.8-2.34-3.9-4.42-5.92-6.57-2.56-2.73-5.13-5.47-7.7-8.2-5.12-5.44-10.25-10.85-15.43-16.22-10.34-10.71-20.88-21.22-31.87-31.25-3.1-2.83-6.24-5.63-9.41-8.37-1.65-1.43-3.31-2.85-4.98-4.25-1.04-.87-2.05-1.68-2.94-2.7-.08.65-.17 1.31-.25 1.96 1.18-.85 1.5-2.13 2.43-3.16 1.07-1.18 2.25-2 3.12-3.39-.65.08-1.31.17-1.96.25 2.56 2.65 5.12 5.31 7.69 7.96 6.09 6.31 12.18 12.62 18.28 18.93 7.42 7.69 14.85 15.38 22.27 23.07 6.39 6.62 12.78 13.24 19.18 19.86 3.1 3.21 6.08 6.59 9.32 9.66.05.04.09.09.13.14 1.12 1.16 2.89-.61 1.77-1.77-2.56-2.65-5.12-5.31-7.69-7.96-6.09-6.31-12.18-12.62-18.28-18.93-7.42-7.69-14.85-15.38-22.27-23.07-6.39-6.62-12.78-13.24-19.18-19.86-3.1-3.21-6.08-6.59-9.32-9.66-.05-.04-.09-.09-.13-.14-.58-.6-1.54-.42-1.96.25-.74 1.18-1.78 1.89-2.73 2.88-.75.78-1.06 2.14-1.92 2.77-.68.49-.82 1.31-.25 1.96 1.88 2.16 4.33 3.86 6.51 5.73 2.83 2.43 5.64 4.9 8.41 7.4 5.53 4.98 10.95 10.09 16.28 15.29 10.67 10.4 20.98 21.16 31.2 32 2.89 3.06 5.77 6.14 8.66 9.21 2.29 2.44 4.78 4.78 6.81 7.43.44.57 1.39.94 1.96.25 1.13-1.37 2.62-2.56 3.9-3.81 1.14-1.11-.63-2.87-1.79-1.75z" class="st0"/></g><g id="XMLID_56_"><path d="M221.22 212.35c.78-1.44 2.44-2.37 4.08-2.27 1.64.09 3.18 1.2 3.8 2.72.1.24.18.49.35.68.4.43 1.1.33 1.68.21 2.04-.41 4.2-.58 6.17.1 1.97.68 3.69 2.36 3.92 4.43.1.87-.06 1.76.12 2.61.47 2.17 3.52 3.25 5.25 1.86.66-.53 1.32-1.37 2.13-1.14.31.09.55.33.76.58 1.08 1.3 1.55 3.1 1.24 4.77-.1.52-.26 1.04-.17 1.56.34 1.88 3.32 1.72 4.5 3.23 1.05 1.34.24 3.4 1 4.93.66 1.34 2.33 1.9 3.14 3.15.83 1.27.59 2.93.72 4.44.13 1.51 1.09 3.28 2.6 3.17 1.3-.09 2.32-1.56 3.59-1.3.55.12.98.54 1.49.78.82.37 1.77.23 2.64.44 1.39.33 2.5 1.61 2.61 3.04.11 1.42-.78 2.87-2.11 3.4 1.4.91 3.22.3 4.87.07 1.65-.23 3.85.45 3.85 2.12 0 1.5-1.87 3.08-.85 4.18.42.45 1.12.47 1.73.55 2.49.34 4.59 2.56 4.8 5.07.03.41.03.84.23 1.2.39.67 1.31.74 2.09.85 3.47.53 6.19 4.08 5.8 7.57-.07.59-.19 1.24.14 1.73.22.32.6.5.93.71 1.52.96 2.23 3.04 1.6 4.73-.62 1.69-2.51 2.81-4.29 2.55" class="st1"/><path d="M222.3 212.98c.7-1.16 2-1.88 3.36-1.6.7.14 1.36.56 1.82 1.11.46.57.57 1.34 1.08 1.86 1.04 1.06 2.52.57 3.78.37 1.74-.27 3.68-.28 5.28.56 1.13.59 2.12 1.63 2.34 2.92.26 1.5-.16 2.9.76 4.27 1.23 1.83 3.89 2.63 5.89 1.64.52-.26.91-.63 1.36-.99.59-.48.46-.4.88.25.44.69.68 1.51.7 2.34.02.8-.28 1.54-.29 2.34-.03 2.74 2.61 2.83 4.35 4.01 1.1.76.73 2.33.87 3.49.18 1.48.9 2.51 2.05 3.43 1.2.96 1.95 1.64 2.05 3.28.08 1.39.03 2.72.62 4.02.55 1.19 1.61 2.25 2.99 2.32.78.04 1.49-.24 2.17-.6.58-.31 1.05-.82 1.72-.61s1.18.71 1.9.86c.86.18 1.82.02 2.6.51 1.62 1.03 1.08 3.13-.48 3.87-.86.41-.77 1.73 0 2.16 1.63.91 3.3.62 5.06.33.91-.15 3.37-.32 2.94 1.21-.38 1.37-1.54 2.51-.81 4.02.82 1.69 2.76 1.22 4.18 1.96 1.51.79 2.24 2.18 2.44 3.82.23 1.96 1.43 2.53 3.21 2.84 1.67.3 3.09 1.23 4 2.67.41.65.7 1.36.84 2.11.15.84-.05 1.63-.03 2.47.04 2.18 2.42 2.35 2.89 4.28.49 2.01-1.3 3.47-3.18 3.28-1.6-.16-1.59 2.34 0 2.5 3.84.38 6.8-3.49 5.38-7.08-.31-.77-.78-1.48-1.4-2.03-.26-.23-.79-.44-1-.7-.38-.48-.07-1.29-.07-1.85-.01-1.79-.67-3.54-1.76-4.95-1.11-1.45-2.69-2.58-4.48-3.02-.4-.1-.8-.13-1.2-.21-.63-.13-.65-.13-.72-.75-.11-.91-.31-1.76-.73-2.58-.81-1.6-2.29-2.87-3.99-3.45-.44-.15-.87-.22-1.33-.29-.62-.09-.76.11-.67-.49.12-.8.81-1.53.97-2.37.37-1.95-1.08-3.41-2.87-3.86-.89-.23-1.79-.21-2.69-.07-1.2.18-2.58.66-3.72.02v2.16c2.86-1.36 3.6-5.12 1.41-7.43-.48-.5-1.07-.89-1.72-1.14-.84-.32-1.72-.22-2.57-.43-.69-.17-1.21-.7-1.9-.9-.69-.2-1.37-.12-2.03.15-.62.25-1.14.72-1.75.95-.83.3-1.27-.45-1.5-1.16-.48-1.47-.05-3.09-.53-4.58-.51-1.58-1.7-2.34-2.88-3.37-1.32-1.15-.84-2.7-1.12-4.25-.26-1.38-1.14-2.38-2.37-2.98-.69-.34-2.36-.63-2.61-1.45-.2-.68.29-1.74.27-2.49-.02-.83-.18-1.66-.48-2.43-.48-1.25-1.39-2.82-2.86-3-1.61-.2-2.13 1.31-3.46 1.69-1.08.31-2.45-.37-2.71-1.49-.19-.84 0-1.75-.12-2.61-.11-.73-.36-1.43-.72-2.07-.74-1.28-1.95-2.31-3.29-2.92-1.8-.81-3.8-.95-5.74-.72-.48.06-.96.13-1.44.21-.64.11-.71.26-1.06-.23-.48-.68-.77-1.37-1.43-1.93-2.73-2.34-6.78-1.54-8.6 1.49-.84 1.43 1.32 2.69 2.15 1.31z" class="st1"/></g><g id="XMLID_1_"><path d="M235.19 219.42c2.99 2.67 4.65 6.49 4.81 10.47.12 3.16-.85 6.9-4.67 6.7-2.2-.12-4.45-.25-6.46-1.14-2.06-.92-3.71-2.56-5.21-4.25-1.98-2.21-3.88-4.69-4.29-7.63-.43-3.12 1.81-7.32 5.15-7.83 3.64-.56 8.01 1.31 10.67 3.68z" class="st2"/><path d="M234.3 220.3c2.95 2.69 4.59 6.57 4.44 10.57-.05 1.32-.31 2.98-1.37 3.88-1.25 1.07-3.55.55-5.02.34-4.36-.61-7.62-3.97-9.99-7.5-1.06-1.58-1.97-3.46-1.78-5.41.16-1.56.93-3.13 2.09-4.2 1.53-1.4 3.73-1.27 5.63-.8 2.2.55 4.3 1.63 6 3.12 1.21 1.05 2.98-.71 1.77-1.77-3.36-2.92-9.27-5.65-13.64-3.4-1.87.97-3.18 2.85-3.87 4.79-.77 2.18-.55 4.44.35 6.54 1.03 2.41 2.76 4.46 4.54 6.36 1.81 1.92 3.87 3.57 6.45 4.31 1.28.36 2.62.51 3.95.61 1.25.09 2.51.21 3.7-.24 1.86-.71 2.96-2.45 3.4-4.33 1.22-5.23-.99-11.08-4.88-14.64-1.18-1.08-2.96.68-1.77 1.77z" class="st2"/></g><g id="XMLID_8_"><path d="M248.8 232.01c3.18 3.46 6.72 9.31 6.29 14.23-.36 4.11-3.27 9-7.42 10.1-1.6.43-3.3.36-4.93.1-4.54-.72-8.87-2.97-11.86-6.45-2.99-3.49-4.57-8.21-4.01-12.77.56-4.56 3.34-8.85 7.39-11.01 5.17-2.74 11.12 2.08 14.54 5.8z" class="st2"/><path d="M247.92 232.89c3.39 3.74 6.94 9.35 5.71 14.63-.56 2.4-1.85 4.76-3.79 6.32-2.38 1.92-5.48 1.77-8.31 1.09-5.67-1.35-10.72-5.26-12.65-10.87-1.84-5.35-.6-11.35 3.69-15.16 2.4-2.13 5.12-2.8 8.12-1.54 2.82 1.18 5.18 3.32 7.23 5.53 1.1 1.18 2.86-.59 1.77-1.77-4.04-4.35-10.5-9.27-16.54-5.72-5.77 3.4-8.5 10.31-7.34 16.78 1.24 6.96 6.6 12.38 13.17 14.62 3.2 1.09 7.07 1.71 10.27.31 2.72-1.19 4.73-3.68 5.91-6.35 3.09-7.01-.7-14.38-5.47-19.63-1.09-1.2-2.85.57-1.77 1.76z" class="st2"/></g><g id="XMLID_11_"><path d="M278.25 267.22c3.41 1.11 6.41 3.45 8.29 6.51 1.89 3.05 2.65 6.78 2.11 10.32l-.7-2.32c-.2.93.08 1.89.14 2.84.06.95-.19 2.05-1.04 2.48-.33.17-.71.2-1.08.22-3.79.14-7.3-1.9-10.4-4.09-4.83-3.41-9.29-7.36-13.26-11.74-2.35-2.59-4.6-5.48-5.26-8.92-.55-2.89.64-8.55 4.41-8.48 3.86.07 8.11 2.42 10.8 5.04 2.91 2.84 4.85 6.6 5.82 10.56.3 1.21.51 2.44.93 3.61" class="st2"/><path d="M277.92 268.43c6.36 2.15 10.45 8.6 9.53 15.29h2.41c-.23-.77-.47-1.55-.7-2.32-.44-1.44-2.28-1-2.46.33-.11.82.02 1.54.09 2.36.04.46.19 1.16-.1 1.56-.61.85-2.83.24-3.69.01-2.71-.73-5.1-2.34-7.35-3.95-4.59-3.3-8.83-7.11-12.61-11.31-3.05-3.39-5.91-7.51-4.45-12.24.5-1.6 1.43-2.96 3.24-2.86 2.64.14 5.2 1.38 7.34 2.85 2.38 1.64 4.26 3.88 5.64 6.42 1.56 2.87 1.97 5.95 2.98 9 .5 1.52 2.92.87 2.41-.66-.56-1.7-.83-3.47-1.37-5.17-.48-1.52-1.11-3.02-1.87-4.42-1.48-2.74-3.53-5.11-6.04-6.96-3.79-2.79-11.26-6.09-14.1-.44-2.57 5.1-.4 10.35 2.94 14.5 4.27 5.31 9.61 9.94 15.17 13.85 2.92 2.06 6.15 3.93 9.78 4.23 1.52.13 3.21.01 4.07-1.43 1.02-1.69.17-3.52.41-5.33l-2.46.33c.23.77.47 1.55.7 2.32.32 1.07 2.23 1.3 2.41 0 1.11-8.1-3.5-15.73-11.28-18.37-1.5-.52-2.16 1.89-.64 2.41z" class="st2"/></g><g id="XMLID_48_"><path d="M217.4 211.47c-2.02 2.14-4.03 4.29-6.05 6.43l6.05-6.43z" class="st0"/><path d="M216.52 210.58c-2.02 2.14-4.03 4.29-6.05 6.43-.45.48-.51 1.3 0 1.77.49.45 1.29.51 1.77 0l5.31-5.64c.25-.26.49-.52.74-.79.45-.48.51-1.3 0-1.77-.49-.44-1.29-.5-1.77 0l-5.31 5.64c-.25.26-.49.52-.74.79l1.77 1.77c2.02-2.14 4.03-4.29 6.05-6.43.45-.48.51-1.3 0-1.77-.49-.44-1.29-.5-1.77 0z" class="st3"/></g><g id="XMLID_44_"><path d="M218.35 211.29c25.52 25.96 50.89 52.08 76.1 78.36l-76.1-78.36z" class="st0"/><path d="M217.47 212.17c19.9 20.24 39.7 40.57 59.41 61 5.57 5.78 11.14 11.56 16.7 17.36l1.77-1.77c-2.52-2.6-5.04-5.19-7.56-7.79-6.05-6.23-12.11-12.47-18.16-18.7-7.33-7.54-14.65-15.09-21.98-22.63-6.34-6.52-12.67-13.05-19.01-19.57-3.07-3.17-6.04-6.51-9.26-9.53-.05-.04-.09-.09-.13-.14-1.13-1.15-2.9.62-1.78 1.77 2.52 2.6 5.04 5.19 7.56 7.79 6.05 6.23 12.11 12.47 18.16 18.7 7.33 7.54 14.65 15.09 21.98 22.63 6.34 6.52 12.67 13.05 19.01 19.57 3.07 3.17 6.04 6.51 9.26 9.53.05.04.09.09.13.14 1.12 1.16 2.88-.61 1.77-1.77-19.65-20.48-39.4-40.87-59.25-61.17-5.61-5.74-11.23-11.47-16.86-17.19-1.12-1.14-2.89.62-1.76 1.77z" class="st3"/></g><g id="XMLID_41_"><path d="M294.99 289.65c-1.65 3.25-3.76 6.31-6.25 9.09l6.25-9.09z" class="st0"/><path d="M293.91 289.02c-1.63 3.19-3.66 6.16-6.05 8.83.65.5 1.31 1.01 1.96 1.51l5.46-7.95.78-1.14c.38-.56.1-1.39-.45-1.71-.61-.35-1.32-.1-1.7.46l-5.46 7.95-.78 1.14c-.8 1.17 1.02 2.57 1.96 1.51 2.53-2.83 4.71-5.96 6.44-9.34.31-.6.16-1.36-.45-1.71-.56-.33-1.4-.16-1.71.45z" class="st3"/></g><path id="XMLID_39_" d="M221.24 224.63c3.19 4.74 7.16 8.82 11.79 12.15 1.07.77 2.27-.69 1.71-1.71-2.95-5.39-6.67-10.33-11.03-14.67-1.16-1.15-2.79.55-1.77 1.77l15.18 18c.95 1.13 2.59-.31 1.96-1.51-4.05-7.75-10.4-13.87-16.67-19.82l-1.77 1.77c5.83 4.74 11.22 9.98 16.12 15.68.94 1.09 2.68-.31 1.96-1.51-4-6.69-9.13-12.65-15.18-17.56-1.25-1.01-2.81.52-1.77 1.77 4.76 5.66 9.52 11.33 14.28 16.99.91 1.08 2.75-.33 1.96-1.51-4.48-6.76-10.29-12.5-17.11-16.88-1.1-.71-2.27.66-1.71 1.71 3.25 6.05 7.23 11.66 11.85 16.74.97 1.06 2.67-.3 1.96-1.51-3.46-5.93-8.1-11.03-13.65-15.06-1.07-.78-2.27.7-1.71 1.71 3.75 6.83 8.36 13.16 13.69 18.85.97 1.04 2.69-.3 1.96-1.51-3.62-6.07-8.22-11.5-13.63-16.05-1.05-.89-2.68.21-1.96 1.51 2.89 5.23 6.81 9.84 11.52 13.53.67.52 1.46.46 1.96-.25 1.22-1.72-.04-3.81-.86-5.41-1-1.97-2.12-3.88-3.34-5.73-2.47-3.72-5.34-7.15-8.56-10.24-.71-.68-2.26-.25-2.13.88.26 2.31 1.13 4.43 2.71 6.16 1.15 1.25 4.14 3.24 5 .54.57-1.79-1.06-4.53-1.99-5.96-1.28-1.98-2.97-3.61-4.96-4.87-.87-.55-1.79.19-1.88 1.08-.18 1.87.39 3.72 1.54 5.2.98 1.26 3.09 3.09 4.8 2.23 1.82-.91.77-3.21.04-4.45-1.1-1.86-2.56-3.4-4.27-4.7-.6-.46-1.73 0-1.84.75-.5 3.4 1.39 6.62 4.68 7.71.79.26 1.57-.43 1.58-1.21.03-1.94-.79-3.83-2.32-5.05-1.34-1.08-3.94-1.91-4.57.39-.48 1.76.3 4.08 1.01 5.67.89 1.99 2.29 3.61 4.01 4.92.77.59 1.9-.21 1.88-1.08-.03-2-.7-3.89-1.95-5.46-.98-1.22-3.15-3.29-4.88-2.47-1.82.87-.82 3.27-.18 4.57.95 1.97 2.42 3.57 4.17 4.86.94.7 2.05-.45 1.84-1.41-.77-3.48-3.14-6.46-6.38-7.95-.7-.32-1.64-.1-1.84.75-.84 3.59 1.75 7.05 5.37 7.42.86.09 1.36-.86 1.21-1.58-.65-3.03-2.91-5.4-5.85-6.33-.99-.31-2.05.94-1.41 1.84 1.89 2.68 5.7 4.26 8.7 2.36 2.56-1.61 2.6-6.09-.75-6.8-1.13-.24-2.22 1.21-1.22 2.09 4.39 3.88 7.94 8.67 11.66 13.17 3.97 4.81 7.93 9.62 11.9 14.43.97 1.18 2.5-.32 1.96-1.51-2.46-5.44-6.88-9.56-11.22-13.51-1.19-1.08-2.95.66-1.77 1.77 7.92 7.43 15.32 15.38 22.15 23.82.9 1.11 2.71-.33 1.96-1.51-5.07-8.06-11.47-15.22-18.94-21.12-.5.65-1.01 1.31-1.51 1.96 9.21 6.79 17.11 15.13 24.95 23.41 1.11 1.17 2.85-.58 1.77-1.77-7.9-8.64-16.79-16.33-26.47-22.92-1.19-.81-2.49.97-1.51 1.96 8.98 9.06 17.96 18.12 26.94 27.19 1.14 1.15 2.86-.59 1.77-1.77-8.77-9.51-18.23-18.42-28.89-25.79-1.21-.84-2.44.96-1.51 1.96 7.54 8.19 15.09 16.39 22.63 24.58.94 1.02 2.82-.36 1.96-1.51-6.88-9.25-15.22-17.29-24.73-23.82-1.2-.83-2.46.96-1.51 1.96l26.79 28.32c1.12 1.19 2.78-.55 1.77-1.77-7.78-9.3-16.38-17.89-26.12-25.14l-1.26 2.16c13.1 9.07 22.15 22.55 33.71 33.3.87.81 2.49.02 2.09-1.22-1.74-5.43-5.36-9.84-9.07-14.04-4.25-4.81-8.63-9.51-13.11-14.11l-1.77 1.77c9.2 7.33 16.54 16.58 23.79 25.77.87 1.1 2.79-.36 1.96-1.51-6.32-8.89-13.76-16.93-22.19-23.86-1.26-1.04-2.76.51-1.77 1.77 6.83 8.71 14.36 16.84 22.51 24.31 1.08.99 2.57-.24 1.96-1.51-4.17-8.79-10.69-16.11-17.13-23.28l-1.77 1.77c8.13 8.38 16.26 16.76 24.38 25.14.96.99 2.79-.33 1.96-1.51-5.34-7.62-11.67-14.48-18.86-20.39-1.23-1.01-2.87.56-1.77 1.77 9.08 9.98 18.16 19.95 27.24 29.93.95 1.05 2.72-.31 1.96-1.51-3.8-6.08-8.33-11.66-13.5-16.62-1.17-1.13-2.81.56-1.77 1.77 5.98 6.89 11.96 13.78 17.94 20.66 1.08 1.24 2.73-.53 1.77-1.77-2.63-3.39-5.52-6.57-8.64-9.51-1.17-1.1-2.92.63-1.77 1.77l7.83 7.74c.64.63 1.28 1.26 1.91 1.89.33.33 1.59 1.24 1.56 1.67-.02.21-.5.66-.65.85-.3.39-.61.78-.91 1.17-.61.78-1.22 1.56-1.83 2.33-.97 1.23.58 2.92 1.77 1.77 1.63-1.58 2.73-3.59 3.12-5.84.19-1.09-1.21-2.28-2.09-1.22-1.68 2.02-3.24 4.13-4.66 6.35-.39.61-.05 1.73.75 1.84.61.08 1.22.16 1.84.25 1 .13 2.05-.81 1.41-1.84-5.67-9.13-11.56-18.4-20.4-24.8-1.25-.9-2.32.95-1.51 1.96 5.66 7.14 11.32 14.27 16.97 21.41l1.77-1.77c-6.84-6.84-13.69-13.68-20.53-20.52-1.14-1.14-2.88.6-1.77 1.77 3.62 3.81 7.23 7.61 10.85 11.42 3.1 3.26 6.14 7.24 10.19 9.38 1.4.74 3.91 1.78 4.58-.44.52-1.71-.96-4.05-1.71-5.5-1.97-3.81-4.77-7.17-8.13-9.84-1-.8-2.88.26-1.96 1.51 3.67 5 7.73 9.67 12.2 13.97.9.87 2.41 0 2.09-1.22-1.69-6.5-7.28-10.69-12.5-14.38-1.22-.86-2.4.95-1.51 1.96 4 4.54 8.01 9.09 12.01 13.63l1.77-1.77c-3.59-4.01-7.25-7.95-10.99-11.82-3.34-3.44-6.67-7.37-11.02-9.55-1-.5-2.53.62-1.71 1.71 3.55 4.72 7.7 8.85 12.44 12.36 1.09.8 2.22-.71 1.71-1.71-3.23-6.33-7.69-11.98-13.11-16.58-1.05-.89-2.68.22-1.96 1.51 2.28 4.11 4.8 8.06 7.58 11.85.93 1.27 3.01.15 2.16-1.26-2.79-4.62-5.69-9.31-9.95-12.72-.85-.68-2.58-.09-2.09 1.22 1.67 4.4 3.79 8.59 6.37 12.52.9 1.37 2.81.19 2.16-1.26-1.37-3.05-3.31-5.77-5.73-8.07-.85-.81-2.53-.02-2.09 1.22.7 1.99 1.62 3.85 2.8 5.6.9 1.33 2.89.18 2.16-1.26-.86-1.7-2.02-3.2-3.46-4.46-1.07-.94-2.62.23-1.96 1.51.59 1.14 1.17 2.29 1.76 3.43.73 1.43 2.89.17 2.16-1.26-.59-1.14-1.17-2.29-1.76-3.43-.65.5-1.31 1.01-1.96 1.51 1.29 1.13 2.29 2.42 3.07 3.95l2.16-1.26c-1.06-1.57-1.92-3.22-2.55-5-.7.41-1.39.81-2.09 1.22 2.28 2.17 4.05 4.7 5.34 7.57l2.16-1.26c-2.46-3.75-4.53-7.73-6.12-11.92-.7.41-1.39.81-2.09 1.22 4.11 3.29 6.87 7.76 9.56 12.21l2.16-1.26c-2.77-3.79-5.3-7.74-7.58-11.85-.65.5-1.31 1.01-1.96 1.51 5.27 4.48 9.57 9.91 12.72 16.07l1.71-1.71c-4.37-3.24-8.28-7.12-11.55-11.47l-1.71 1.71c4.29 2.15 7.57 6.11 10.85 9.51 3.63 3.75 7.18 7.58 10.66 11.47 1.08 1.2 2.83-.57 1.77-1.77-4-4.54-8.01-9.09-12.01-13.63-.5.65-1.01 1.31-1.51 1.96 4.67 3.3 9.84 7.06 11.36 12.88.7-.41 1.39-.81 2.09-1.22-4.31-4.15-8.27-8.64-11.81-13.47-.65.5-1.31 1.01-1.96 1.51 2.78 2.21 5.15 4.86 6.95 7.92.9 1.53 1.49 3.14 2.22 4.74.44-.24.39-.39-.16-.45-.25-.11-.49-.23-.73-.35-.36-.19-.7-.4-1.04-.62-.77-.5-1.47-1.07-2.15-1.69-2.96-2.68-5.61-5.75-8.35-8.64-2.99-3.15-5.99-6.3-8.98-9.45l-1.77 1.77c6.84 6.84 13.69 13.68 20.53 20.52 1.17 1.17 2.74-.54 1.77-1.77-5.66-7.14-11.32-14.27-16.97-21.41-.5.65-1.01 1.31-1.51 1.96 8.46 6.13 14.08 15.17 19.5 23.9.47-.61.94-1.22 1.41-1.84-.61-.08-1.22-.16-1.84-.25.25.61.5 1.22.75 1.84 1.3-2.03 2.72-3.98 4.26-5.84-.7-.41-1.39-.81-2.09-1.22-.32 1.85-1.12 3.42-2.48 4.73l1.77 1.77c.71-.91 1.42-1.81 2.13-2.72.59-.75 1.33-1.5 1.78-2.34.99-1.86-.71-3.14-1.9-4.32-3.31-3.27-6.61-6.54-9.92-9.8l-1.77 1.77c3.12 2.95 6.01 6.12 8.64 9.51l1.77-1.77c-5.98-6.89-11.96-13.78-17.94-20.66l-1.77 1.77c5.02 4.82 9.42 10.22 13.11 16.12.65-.5 1.31-1.01 1.96-1.51-9.08-9.98-18.16-19.95-27.24-29.93l-1.77 1.77c7.02 5.76 13.25 12.44 18.47 19.88.65-.5 1.31-1.01 1.96-1.51-8.13-8.38-16.26-16.76-24.38-25.14-1.13-1.16-2.84.58-1.77 1.77 6.31 7.03 12.66 14.17 16.74 22.78.65-.5 1.31-1.01 1.96-1.51-8.16-7.47-15.69-15.6-22.51-24.31l-1.77 1.77c8.26 6.79 15.61 14.63 21.8 23.35.65-.5 1.31-1.01 1.96-1.51-7.25-9.19-14.59-18.43-23.79-25.77-1.23-.98-2.92.59-1.77 1.77 4.26 4.36 8.42 8.82 12.47 13.38 3.64 4.1 7.37 8.35 9.07 13.66.7-.41 1.39-.81 2.09-1.22-11.74-10.91-20.92-24.48-34.22-33.69-1.34-.93-2.53 1.22-1.26 2.16 9.56 7.11 17.98 15.63 25.61 24.75l1.77-1.77-26.79-28.32c-.5.65-1.01 1.31-1.51 1.96 9.14 6.27 17.22 14.03 23.83 22.92.65-.5 1.31-1.01 1.96-1.51-7.54-8.19-15.09-16.39-22.63-24.58-.5.65-1.01 1.31-1.51 1.96 10.48 7.25 19.76 16.05 28.38 25.4l1.77-1.77c-8.98-9.06-17.96-18.12-26.94-27.19-.5.65-1.01 1.31-1.51 1.96 9.5 6.47 18.21 14.04 25.97 22.52l1.77-1.77c-8-8.44-16.06-16.88-25.45-23.8-1.13-.83-2.63 1.08-1.51 1.96 7.31 5.77 13.59 12.73 18.55 20.61.65-.5 1.31-1.01 1.96-1.51-6.83-8.44-14.23-16.4-22.15-23.82l-1.77 1.77c4.2 3.82 8.45 7.74 10.83 13 .65-.5 1.31-1.01 1.96-1.51-3.97-4.81-7.93-9.62-11.9-14.43-3.72-4.5-7.27-9.29-11.66-13.17-.41.7-.81 1.39-1.22 2.09.62.13.94.73.81 1.36-.16.72-.94 1.12-1.6 1.26-1.66.37-3.39-.51-4.34-1.86-.47.61-.94 1.22-1.41 1.84 2.14.67 3.63 2.4 4.1 4.58.4-.53.8-1.05 1.21-1.58-1.98-.2-3.4-2.36-2.96-4.25-.61.25-1.22.5-1.84.75 2.71 1.25 4.59 3.54 5.23 6.46.61-.47 1.22-.94 1.84-1.41-.97-.72-1.83-1.61-2.5-2.62-.32-.49-.61-1-.85-1.53-.11-.24-.17-.56-.31-.78-.04-.1-.07-.2-.09-.3-.05-.32-.2-.18-.44.4.05.18 1.04.69 1.22.86.42.38.78.81 1.08 1.29.64 1.02.96 2.13.99 3.33.63-.36 1.25-.72 1.88-1.08-1.9-1.44-3.22-3.59-3.7-5.92-.11-.52-.08-1.06-.18-1.58-.11-.57-.02.13.06.25.11.15.45.29.61.42.9.78 1.33 1.88 1.31 3.06.53-.4 1.05-.8 1.58-1.21-1.88-.62-3.23-2.64-2.94-4.64-.61.25-1.22.5-1.84.75.96.73 1.83 1.61 2.55 2.57.34.45.64.93.92 1.42.13.22.23.5.38.71.06.09.1.19.12.3.06.33.18.2.36-.39-.06-.18-.99-.64-1.18-.81-.35-.33-.65-.71-.89-1.13-.56-.97-.72-2-.62-3.1-.63.36-1.25.72-1.88 1.08 2.37 1.5 4.27 3.72 5.3 6.34.11.29.21.59.31.88.06.18.11.36.16.54.17-.09.34-.18.52-.27 0-.08-1.56-1.42-1.71-1.61-.86-1.13-1.42-2.51-1.57-3.92-.71.29-1.42.59-2.13.88 2.76 2.65 5.27 5.53 7.45 8.67 1.06 1.52 2.04 3.1 2.95 4.72.45.81.89 1.63 1.3 2.46.32.65 1.15 1.82.67 2.5.65-.08 1.31-.17 1.96-.25-4.56-3.56-8.33-7.96-11.13-13.02-.65.5-1.31 1.01-1.96 1.51 5.26 4.42 9.72 9.64 13.24 15.54.65-.5 1.31-1.01 1.96-1.51-5.19-5.54-9.64-11.69-13.3-18.34l-1.71 1.71c5.19 3.78 9.52 8.62 12.75 14.17.65-.5 1.31-1.01 1.96-1.51-4.48-4.92-8.31-10.37-11.46-16.23l-1.71 1.71c6.45 4.14 11.98 9.59 16.21 15.98.65-.5 1.31-1.01 1.96-1.51-4.76-5.66-9.52-11.33-14.28-16.99l-1.77 1.77c5.9 4.78 10.9 10.53 14.79 17.05.65-.5 1.31-1.01 1.96-1.51-4.9-5.7-10.29-10.94-16.12-15.68-1.22-.99-2.96.64-1.77 1.77 6.13 5.81 12.33 11.75 16.28 19.32.65-.5 1.31-1.01 1.96-1.51l-15.18-18-1.77 1.77c4.22 4.19 7.78 8.94 10.64 14.16l1.71-1.71c-4.27-3.07-7.96-6.89-10.89-11.25-.89-1.39-3.06-.14-2.15 1.2z" class="st3"/><g id="XMLID_154_"><path d="M210.95 217.82c-5.51 25.04-11.02 50.09-16.54 75.13.11.04.21.09.32.13.4.17 2.77 1.37 2.6 1.4 1.27-.2 2.39.04 3.33.54 2.93.28 5.88.44 8.83.58 26.18 1.26 52.37 2.51 78.55 3.77l-77.09-81.55z" class="st4"/><path d="M209.75 217.49c-4.3 19.51-8.59 39.03-12.89 58.54-1.22 5.53-2.43 11.06-3.65 16.59-.16.73.22 1.26.87 1.54.44.19.87.42 1.3.64.23.12.46.24.68.36.07.04.67.44.39.2-.11-.41-.21-.81-.32-1.22v.02c-.13.7.33 1.69 1.21 1.58 1.3-.16 2.12.31 3.33.54 1.41.27 2.97.25 4.41.34 2.96.19 5.93.31 8.89.45 5.97.29 11.93.57 17.9.86 11.93.57 23.86 1.15 35.8 1.72 6.79.33 13.59.65 20.38.98 1.12.05 1.59-1.38.88-2.13-2.55-2.7-5.11-5.4-7.66-8.1-6.13-6.49-12.26-12.97-18.39-19.46-7.45-7.88-14.89-15.76-22.34-23.64l-19.17-20.28c-3.12-3.3-6.11-6.79-9.39-9.93-.04-.04-.09-.09-.13-.14-1.11-1.17-2.87.6-1.77 1.77 2.55 2.7 5.11 5.4 7.66 8.1 6.13 6.49 12.26 12.97 18.39 19.46 7.45 7.88 14.89 15.76 22.34 23.64l19.17 20.28c2.12 2.25 4.25 4.49 6.37 6.74.96 1.02 1.91 2.32 3.02 3.19.05.04.09.09.13.14.29-.71.59-1.42.88-2.13-24.03-1.15-48.06-2.31-72.09-3.46-3.3-.16-6.6-.3-9.9-.49-1.6-.09-3.43 0-4.99-.37-1.34-.32-2.3-.75-3.73-.57.4.53.8 1.05 1.21 1.58.32-1.7-2.57-2.56-3.79-3.07.29.51.58 1.03.87 1.54 4.3-19.51 8.59-39.03 12.89-58.54 1.22-5.53 2.43-11.06 3.65-16.59.35-1.59-2.06-2.26-2.41-.68z" class="st4"/></g></svg>