<svg xmlns="http://www.w3.org/2000/svg" viewBox="0 0 500 500"><defs/><style>.st0{fill:#67686b}.st1,.st2{fill:#5157a6;stroke:#fff;stroke-width:1.5;stroke-miterlimit:10}.st2{stroke-width:.5}.st3{fill:#686868;stroke:#686868}.st3,.st4,.st5{stroke-miterlimit:10}.st4{fill:#797a7d;stroke:#797a7d}.st5{stroke:#8a8c8e}.st5,.st6{fill:#8a8c8e}.st7{fill:#686868}.st8{fill:#474846}.st9{fill:#d1d3d4;stroke:#d1d3d4}.st10,.st12,.st9{stroke-miterlimit:10}.st10{stroke-width:.5;stroke:#fff}.st12{fill:none;stroke:#6f7173}</style><g id="left_panels"><path d="M159.08 185.16l17.2 5.15-3.55 4.08-13.65-4.08z" class="st0"/><path d="M115.66 147.46l43.42 13.15v55.73l-43.42-12.81z" class="st1"/><path d="M72.55 133.7l43.11 13.76v56.07l-43.11-14.49z" class="st1"/><path d="M31.71 120.86l40.84 12.84v55.34L31.71 176.2z" class="st1"/><path d="M129.56 151.67v55.96M145.43 156.47v55.5M102.49 143.26v55.41M88.21 138.7v55.69M59.45 129.58v54.64M46.91 125.64v55.34M31.71 138.7l127.37 40.53M31.71 157.47l127.37 39.29" class="st2"/></g><g id="Layer_4"><path d="M235.51 130.1L250 119.79s30.59-9.63 54.64 14.45c5.01 5.96 21.29 18.34 12.12 46.09-4.59 4.59-12.12 11.69-12.12 11.69l-69.13-61.92z" class="st3"/><path d="M187.71 162.23l38.78-30.06s29.5-11.01 58.63 17.66c5.27 5.04 21.78 20.64 19.26 45.63-4.82 5.04-32.98 32.91-32.98 32.91l-83.69-66.14z" class="st4"/><path d="M178.03 185.16s-1.43-13.42 7.95-21.57c4.66-4.05 11.98-6.8 23.47-5.96 9.17 1.83 61.91 12.21 65.58 58.72-.69 7.09-4.84 28.84-37.5 22.32s-59.5-53.51-59.5-53.51z" class="st5"/><path d="M176.69 189.91s.01-.2.1-.57c.51-2.04 3.49-9.39 20.8-18.95 4.28-1.22 26.6-2.14 46.47 17.43 4.89 4.28 19.26 20.26 11.92 36.58-2.75 2.86-12.18 11.42-16.94 12.8-4.75 1.37-62.35-47.29-62.35-47.29z" class="st4"/><path d="M171.05 203.09s-5.55-6.71 14.63-20.16c4.59-1.53 25.07-6.42 46.78 16.2 5.5 5.5 19.87 18.34 9.17 35.77-4.59 3.67-6.09 7.17-13.15 8.87-7.06 1.69-4.87 0-4.87 0l-52.56-40.68z" class="st5"/><path d="M160.61 211.54l16.09-13.03s12.77-6.85 33.96 6.51c4.99 3.88 25.47 19.17 14.77 37.21-3.36 3.06-13.15 9.78-13.15 9.78l-51.67-40.47z" class="st3"/><path d="M143.88 220.8c3.43-4.69 8.77-7.89 14.48-8.91 1.9-.34 3.85-.44 5.78-.26 3.15.28 6.19 1.22 9.19 2.21 4.61 1.53 9.21 3.21 13.38 5.71 14.86 8.93 23.95 24.83 23.59 35.33-.03 1 .51 1.97.3 2.95-.26 1.27-1.23 2.26-2.15 3.17-3.12 3.09-6.24 6.18-9.35 9.27-4.44-6.95-11.51-11.76-18.71-15.79-7.2-4.03-14.78-7.51-21.2-12.68-5.67-4.56-10.25-10.3-14.79-15.99-.95-1.19-1.96-2.63-1.6-4.11" class="st6"/><path d="M146.04 222.06c4.14-5.55 11.26-8.54 18.1-7.93 4.02.35 7.99 1.88 11.77 3.23 3.62 1.29 7.13 2.82 10.39 4.87 5.5 3.46 10.39 8.04 14.18 13.33 3.24 4.52 5.87 9.52 6.96 14.98.06.31.12.63.17.94.06.36.07.47.07.52.07.63.12 1.27.13 1.91.02.92.03 1.79.21 2.7.16.83.06 1.13-.5 1.78-1.47 1.7-3.21 3.21-4.8 4.79-1.79 1.77-3.58 3.55-5.37 5.32l3.93.51c-5.2-8.02-13.31-13.27-21.54-17.76-4.4-2.4-8.88-4.66-13.14-7.31-4.17-2.6-7.92-5.65-11.32-9.2-1.95-2.04-3.79-4.18-5.58-6.36-.9-1.09-1.78-2.19-2.66-3.3-.44-.55-1.91-1.95-1.79-2.72.22-1.33-.35-2.69-1.75-3.08-1.2-.33-2.85.41-3.08 1.75-.52 3.15 1.22 5.26 3.07 7.58 1.58 1.98 3.17 3.94 4.81 5.86 3.43 3.99 7.15 7.69 11.39 10.82 8.15 6.01 17.7 9.71 26.06 15.37 4.33 2.93 8.34 6.45 11.2 10.86.87 1.35 2.74 1.68 3.93.51 3.3-3.27 6.72-6.45 9.91-9.82 1.64-1.73 2.63-3.67 2.23-6.09-.22-1.33-.17-2.65-.31-3.99-.65-6.17-3.24-12.04-6.6-17.2-4.06-6.22-9.34-11.61-15.46-15.82-3.57-2.45-7.43-4.31-11.47-5.86-4.09-1.57-8.37-3.14-12.71-3.82-9.53-1.5-18.97 2.4-24.73 10.11-.81 1.08-.18 2.79.9 3.42 1.25.74 2.59.18 3.4-.9z" class="st6"/><path d="M145.03 222.51c.42-.26-.43-.64-.85-.4-3.68 2.1-5.58 6.54-5.57 10.77.01 4.24 1.67 8.3 3.7 12.02 7.15 13.04 19.35 23.02 33.17 28.52 5.52 2.2 11.76 3.7 17.33 1.64 8.24-3.06 12.04-13.31 10.24-21.9-1.8-8.6-7.88-15.66-14.48-21.47-9.32-8.2-21.01-14.94-33.39-14.12-2.64.18-5.34.73-7.55 2.18s-3.87 3.96-3.75 6.61" class="st7"/><path d="M146.8 224.27c1.59-1.96.46-4.62-2.12-4.73-1.78-.08-3.51 1.47-4.63 2.7-2.35 2.58-3.58 5.91-3.88 9.36-.64 7.36 3.57 14.68 7.7 20.45 8.14 11.35 20.05 20.1 33.26 24.63 7.16 2.46 15.23 2.88 21.4-2.11 4.79-3.87 7.2-10.21 7.44-16.23.57-14.39-11.7-26.2-22.51-33.87-5.97-4.24-12.81-7.69-20.08-8.91-6.95-1.17-16.36-1.1-20.56 5.63-.96 1.55-1.46 3.36-1.44 5.18.04 3.22 5.04 3.22 5 0-.03-2.68 2.15-4.64 4.53-5.47 2.91-1.02 6.14-1.04 9.18-.76 5.99.54 11.71 2.95 16.81 6.02 5.34 3.22 10.25 7.24 14.55 11.76 3.99 4.19 7.45 9.08 8.91 14.75 1.2 4.67.67 9.82-1.72 14.05-2.69 4.76-7.31 7.11-12.75 6.8-6.02-.34-12.02-3.19-17.22-6.07-5.14-2.85-9.89-6.35-14.08-10.48-4.7-4.63-8.74-10.05-11.5-16.06-1.34-2.91-2.3-6.29-1.9-9.53.18-1.47.67-2.93 1.41-4.2.32-.55.67-1.04 1.11-1.51.24-.26.5-.52.78-.74.1-.11.22-.19.35-.26.69-.36.35-.45-1-.26-.38-.5-.77-1-1.15-1.49.02.05.03.09.05.14.21-.81.43-1.62.64-2.43-.04.05-.07.09-.11.14-.85 1.05-1.02 2.51 0 3.54.87.84 2.67 1.02 3.53-.04z" class="st7"/><ellipse cx="170.35" cy="244.52" class="st8" rx="12.92" ry="20.25" transform="rotate(-56.58 170.34543907 244.5074771)"/></g><g id="Layer_3"><path d="M194.54 181.41l-8.56 7.63h8.56l8.12-7.07s-3.57-1.05-8.12-.56zM213.17 185.16l-7.93 6.33 7.93 3.97 7.2-6.42s-2.37-2.07-7.2-3.88zM228.47 195.27l-8.1 5.7 5.66 5.2 8.02-5.45c0-.01-3.32-3.51-5.58-5.45zM240.74 208.49l-7.68 4.47 3.84 7.57 7.69-4.19s-1.82-5.15-3.85-7.85zM244.59 228.37l-7.86 3.78-1.22 5.07 6.11-2.32s2.68-5.45 2.97-6.53z" class="st9"/></g><g id="right_panels"><path d="M253.47 216.34s-3.13.96-3.1 3.48c3.93 1.15 17.2 4.57 17.2 4.57l.56-4.02-14.66-4.03z" class="st0"/><path d="M263.33 255.08l8.26-59.62 58.7 16.51-12.54 60.07zM330.29 211.97l66.65 19.57-19.42 60.53-59.77-20.03z" class="st1"/><path d="M396.94 231.54l69.4 20.48-22.47 62.83-66.35-22.78z" class="st1"/><path d="M288.65 200.26l-8.56 60.04M310.09 206.29l-10.52 60.09M350.72 217.97l-15.09 60.06M374.81 225.04l-17.47 60.27M419.9 238.31l-20.24 61.36M443.82 245.37l-21.89 61.95M269.36 211.54l190.45 58.73M266.18 234.53l185.83 57.54" class="st10"/></g><g id="Layer_6"><ellipse cx="146.56" cy="264.84" fill="#d8d9da" stroke="#d8d9da" stroke-miterlimit="10" rx="33.3" ry="49.34" transform="rotate(-60 146.55859178 264.85091904)"/><path d="M114.01 281.21c-.5.14 10.46-17.4 27.88-18.46M150.08 267.21s7.52 12.59-2.95 33.62M152.69 265.59c2.94-1.7 25.28 6.4 33.03 28.58M142.39 257.91s-9.38-17.4-38.56-17.74M143.07 228.16s6.84 10.52 4.06 27.36M150.87 261.39s10.44-9.41 35.74-3.07" class="st12"/><ellipse cx="148.32" cy="261.39" fill="#bec0c2" stroke="#bec0c2" stroke-miterlimit="10" rx="5.76" ry="6.95" transform="rotate(-71.385 148.324583 261.38997163)"/><path fill="#b3b5b8" d="M106.22 236.06s20.86-15.36 51.54 5.18c8.71 5.84 33.71 21.59 31.61 49.03 2.29-3.44 3.58-8.33 3.58-12.75.01-9.11-3.74-24.32-23.65-38.22-3.32-2.32-7.45-5.08-12.15-6.97-3.44-1.38-6.44-2.68-10.09-3.71-5.62-1.59-11.34-2.43-16.91-2.24-4.63.16-10.2 1.09-14.77 3.13-3.61 1.63-6.41 3.51-9.16 6.55z"/><path d="M146.56 259.66s3.36-.91 4.32 3.09c-1.16 1.38-43.16 40.94-43.16 40.94s-2.87 1.33-3.88-2.85c5.1-5.1 42.72-41.18 42.72-41.18z" class="st8"/></g></svg>