<svg xmlns="http://www.w3.org/2000/svg" id="Layer_1" x="0" y="0" version="1.1" viewBox="0 0 400 400" xml:space="preserve"><defs/><style>.st1{fill:#efcf19}</style><linearGradient id="SVGID_1_" x1="201.9307" x2="202.1047" y1="58.3276" y2="102.2417" gradientUnits="userSpaceOnUse"><stop offset=".0398" stop-color="#f9ed32"/><stop offset=".1849" stop-color="#f9e731"/><stop offset=".364" stop-color="#f8dd2e"/><stop offset=".5609" stop-color="#f8cc29"/><stop offset=".7707" stop-color="#f7b423"/><stop offset=".9886" stop-color="#f7951e"/><stop offset="1" stop-color="#f7941d"/></linearGradient><path fill="url(#SVGID_1_)" d="M188.15 101.51c6.75-.84 13.63-.64 20.32.57.58.11 1.19.22 1.76.05.87-.26 1.41-1.11 1.84-1.91 3.68-6.85 4.83-15.02 3.19-22.61-1.64-7.6-6.07-14.56-12.25-19.28 1.48 4.39 1.95 9.34.09 13.58-2.51 5.7-8.62 8.96-12.03 14.18-2.61 4-3.47 9.1-2.31 13.73"/><path d="M188.15 102.53c5.55-.67 11.17-.68 16.72.02 2.09.26 5 1.44 6.8-.1 1.61-1.38 2.44-3.96 3.16-5.88 3.32-8.83 2.78-18.85-1.46-27.27-2.29-4.55-5.61-8.57-9.64-11.69-.72-.56-2.06-.09-1.71.99 1.38 4.19 1.98 9 .04 13.13-1.54 3.26-4.28 5.69-6.84 8.14-2.6 2.49-5.07 5.11-6.49 8.47-1.58 3.72-1.89 7.83-.96 11.76.3 1.28 2.27.74 1.97-.54-.98-4.13-.38-8.57 1.78-12.25 1.85-3.15 4.71-5.51 7.28-8.04 2.53-2.48 4.85-5.24 5.87-8.7 1.22-4.09.63-8.51-.68-12.5l-1.71.99c6.56 5.07 11.09 12.52 12.34 20.74.68 4.51.35 9.18-.89 13.57-.62 2.2-1.45 4.35-2.55 6.35-.61 1.11-1.09 1.61-2.45 1.39-1.21-.19-2.42-.4-3.63-.56-5.63-.72-11.32-.73-16.96-.05-1.28.14-1.29 2.18.01 2.03z" class="st1"/><path fill="#f1d933" d="M202.88 108.08c-1.97.09-3.04-.28-4.62-.22-5.75.23-11.56.48-17.08 1.95-12.83 3.44-22.75 13.49-27.04 24.97-4.29 11.48-3.42 24.15.36 35.77.97 2.97 2.13 5.91 3.78 8.62 4.17 6.85 11.33 11.93 19.2 15.16 8.26 3.39 17.45 4.9 26.5 4.37 4.05-.24 8.1-.89 11.89-2.2 8.55-2.96 15.32-9.11 20.72-15.81 1.9-2.36 3.68-4.82 4.94-7.51 1.32-2.82 2.05-5.85 2.46-8.9 1.67-12.26 2.3-27.73-5.49-37.88-7.8-10.15-19.75-19.04-35.62-18.32z"/><path fill="#f2db33" d="M202.88 107.06c-1.1.03-2.17-.09-3.27-.18-1.33-.1-2.67.01-4 .07-2.89.13-5.77.32-8.64.7-4.97.66-9.77 2.03-14.21 4.39-7.85 4.15-14.29 10.96-18.13 18.96-4.55 9.5-5.26 20.34-3.45 30.61.95 5.36 2.47 10.8 4.89 15.7 2.11 4.26 5.22 7.93 8.9 10.91 8.08 6.53 18.39 10.09 28.63 11.23 10.72 1.19 21.92-.18 31.07-6.22 4.01-2.65 7.56-5.95 10.72-9.56 3.45-3.94 6.67-8.2 8.27-13.25 1.49-4.67 1.88-9.78 2.19-14.65.3-4.66.25-9.35-.4-13.98-.63-4.46-1.87-8.89-4.09-12.84-2.08-3.71-5.08-7.02-8.15-9.92-6.43-6.07-14.42-10.44-23.25-11.64-2.33-.32-4.7-.42-7.08-.33-1.31.05-1.32 2.09 0 2.04 8.89-.36 17.37 2.42 24.52 7.68 6.54 4.81 12.4 11.38 14.76 19.26 2.52 8.4 2.11 17.48 1.07 26.09-.63 5.21-1.86 10.01-4.82 14.41-2.66 3.95-5.91 7.6-9.44 10.79-3.49 3.15-7.46 5.84-11.84 7.61-4.9 1.97-10.2 2.72-15.45 2.83-10.31.21-20.88-2.17-29.85-7.34-3.9-2.25-7.5-5.07-10.38-8.56-3.2-3.87-5.08-8.55-6.5-13.32-2.98-10.01-3.75-20.85-.69-30.93 2.48-8.19 7.64-15.56 14.53-20.65 3.5-2.59 7.4-4.6 11.57-5.86 5.18-1.56 10.62-1.92 15.99-2.15 2.2-.1 4.35.2 6.54.14 1.3-.04 1.3-2.08-.01-2.04z"/><linearGradient id="SVGID_2_" x1="255.3691" x2="255.5431" y1="68.4776" y2="112.3917" gradientTransform="rotate(38.445 241.86941281 87.20249486)" gradientUnits="userSpaceOnUse"><stop offset=".0398" stop-color="#f9ed32"/><stop offset=".1849" stop-color="#f9e731"/><stop offset=".364" stop-color="#f8dd2e"/><stop offset=".5609" stop-color="#f8cc29"/><stop offset=".7707" stop-color="#f7b423"/><stop offset=".9886" stop-color="#f7951e"/><stop offset="1" stop-color="#f7941d"/></linearGradient><path fill="url(#SVGID_2_)" d="M226.43 106.18c5.81 3.54 11.07 7.97 15.56 13.08.39.45.8.91 1.35 1.13.84.34 1.79.01 2.63-.35 7.14-3.07 13.12-8.76 16.56-15.73 3.44-6.97 4.3-15.18 2.4-22.71-1.57 4.36-4.28 8.53-8.38 10.69-5.51 2.9-12.33 1.66-18.24 3.63-4.53 1.51-8.38 4.97-10.35 9.32"/><path d="M225.92 107.06c4.43 2.72 8.54 5.93 12.23 9.6.87.87 1.72 1.76 2.54 2.67.69.77 1.36 1.69 2.38 2.04 2.03.7 4.48-.87 6.2-1.82 8.19-4.51 14.33-12.38 16.61-21.44 1.39-5.5 1.38-11.28.02-16.78-.26-1.05-1.64-.89-1.97 0-1.36 3.69-3.53 7.34-6.91 9.5-3.5 2.24-7.73 2.44-11.75 2.82-3.81.36-7.57.96-10.9 2.97-3.17 1.91-5.73 4.75-7.3 8.11-.55 1.18 1.21 2.22 1.76 1.03 1.65-3.52 4.39-6.38 7.89-8.1 3.82-1.87 8.17-1.85 12.3-2.33 3.93-.45 7.69-1.42 10.76-4.03 2.91-2.46 4.81-5.89 6.11-9.42h-1.97c2.21 9 .47 18.68-4.87 26.26-2.43 3.45-5.58 6.42-9.15 8.67-.82.52-1.67 1-2.53 1.44-.9.46-2.25 1.34-3.3 1.26-.96-.08-1.79-1.46-2.39-2.1-.83-.91-1.69-1.79-2.57-2.65-3.69-3.6-7.79-6.76-12.18-9.46-1.1-.69-2.13 1.07-1.01 1.76z" class="st1"/><linearGradient id="SVGID_3_" x1="297.4479" x2="297.6218" y1="118.8064" y2="162.7206" gradientTransform="rotate(81.17 284.27362086 127.77591059)" gradientUnits="userSpaceOnUse"><stop offset=".0398" stop-color="#f9ed32"/><stop offset=".1849" stop-color="#f9e731"/><stop offset=".364" stop-color="#f8dd2e"/><stop offset=".5609" stop-color="#f8cc29"/><stop offset=".7707" stop-color="#f7b423"/><stop offset=".9886" stop-color="#f7951e"/><stop offset="1" stop-color="#f7941d"/></linearGradient><path fill="url(#SVGID_3_)" d="M250.38 132.41c1.86 6.54 2.73 13.37 2.55 20.16-.01.59-.03 1.21.22 1.75.39.82 1.31 1.22 2.17 1.53 7.33 2.59 15.58 2.47 22.84-.32s13.46-8.23 17.17-15.06c-4.11 2.14-8.93 3.36-13.41 2.17-6.02-1.61-10.18-7.14-15.86-9.71-4.35-1.97-9.53-2.03-13.93-.17"/><path d="M249.4 132.68c1.52 5.4 2.38 10.96 2.52 16.57.05 1.92-.6 4.8.9 6.33 1.48 1.5 4.29 1.96 6.25 2.38 9.48 2.02 19.61-.06 27.4-5.85 4-2.97 7.33-6.75 9.74-11.12.51-.92-.5-1.86-1.4-1.4-3.84 1.96-8.34 3.21-12.62 2.07-3.48-.93-6.36-3.27-9.16-5.43-2.89-2.22-5.89-4.34-9.47-5.26-3.87-.99-8-.71-11.69.8-1.2.49-.68 2.46.54 1.97 3.9-1.59 8.24-1.76 12.21-.3 3.57 1.31 6.47 3.92 9.48 6.16 2.92 2.17 6.05 4.01 9.73 4.43 4.18.48 8.33-.79 12.02-2.67l-1.4-1.4c-4.03 7.31-10.83 12.96-18.85 15.37-4.43 1.33-9.15 1.7-13.74 1.06-2.2-.3-4.54-.77-6.59-1.64-1.18-.5-1.34-1.2-1.31-2.41.02-1.27.02-2.53-.02-3.8-.19-5.55-1.07-11.06-2.57-16.4-.36-1.26-2.33-.72-1.97.54z" class="st1"/><g><linearGradient id="SVGID_4_" x1="291.4831" x2="291.657" y1="164.464" y2="208.3782" gradientTransform="matrix(-.4887 .8724 -.8724 -.4887 568.7917 29.5682)" gradientUnits="userSpaceOnUse"><stop offset=".0398" stop-color="#f9ed32"/><stop offset=".1849" stop-color="#f9e731"/><stop offset=".364" stop-color="#f8dd2e"/><stop offset=".5609" stop-color="#f8cc29"/><stop offset=".7707" stop-color="#f7b423"/><stop offset=".9886" stop-color="#f7951e"/><stop offset="1" stop-color="#f7941d"/></linearGradient><path fill="url(#SVGID_4_)" d="M251.92 170.37c-2.57 6.3-6.1 12.2-10.43 17.45-.38.46-.77.93-.9 1.51-.2.89.28 1.77.77 2.54 4.18 6.56 10.74 11.56 18.17 13.84 7.43 2.28 15.67 1.82 22.8-1.26-4.55-.85-9.1-2.86-11.89-6.56-3.75-4.98-3.61-11.9-6.49-17.43-2.21-4.23-6.24-7.47-10.85-8.73"/><path d="M250.94 170.1c-1.99 4.84-4.56 9.44-7.62 13.69-.77 1.07-1.58 2.11-2.41 3.13-.67.83-1.37 1.66-1.39 2.78-.03 1.99 1.75 3.95 2.9 5.42 5.73 7.29 14.33 12 23.56 12.88 5.76.55 11.55-.43 16.86-2.68.8-.34.57-1.71-.24-1.87-3.98-.77-7.95-2.33-10.71-5.41-2.68-3-3.55-7.07-4.53-10.86-.95-3.69-2.12-7.29-4.56-10.29-2.42-2.98-5.76-5.12-9.44-6.16-1.27-.36-1.81 1.61-.54 1.97 3.87 1.1 7.3 3.56 9.49 6.96 2.15 3.35 2.84 7.34 3.88 11.11 1.01 3.65 2.47 7.21 5.34 9.79 2.93 2.64 6.7 4.11 10.53 4.85-.08-.62-.16-1.24-.24-1.87-8.52 3.62-18.53 3.4-26.81-.76-3.69-1.86-7.01-4.39-9.76-7.47-.68-.76-1.32-1.54-1.91-2.36-.58-.81-1.65-1.99-1.73-3.01-.08-1.04 1.13-2.03 1.72-2.79.69-.88 1.37-1.78 2.01-2.7 3.05-4.3 5.56-8.94 7.56-13.82.5-1.2-1.47-1.73-1.96-.53z" class="st1"/></g><g><linearGradient id="SVGID_5_" x1="234.0214" x2="234.1953" y1="198.9763" y2="242.8905" gradientTransform="rotate(157.941 228.79836467 221.94383742)" gradientUnits="userSpaceOnUse"><stop offset=".0398" stop-color="#f9ed32"/><stop offset=".1849" stop-color="#f9e731"/><stop offset=".364" stop-color="#f8dd2e"/><stop offset=".5609" stop-color="#f8cc29"/><stop offset=".7707" stop-color="#f7b423"/><stop offset=".9886" stop-color="#f7951e"/><stop offset="1" stop-color="#f7941d"/></linearGradient><path fill="url(#SVGID_5_)" d="M229.13 200c-5.94 3.31-12.39 5.71-19.05 7.1-.58.12-1.19.25-1.65.62-.71.57-.89 1.56-.99 2.46-.84 7.73 1.16 15.73 5.54 22.16s11.09 11.22 18.59 13.27c-3.02-3.51-5.32-7.92-5.18-12.56.19-6.23 4.62-11.55 5.82-17.66.92-4.69-.2-9.74-3.02-13.6"/><path d="M228.62 199.12c-4.76 2.63-9.8 4.69-15.05 6.1-1.24.33-2.49.62-3.75.9-.97.21-1.87.51-2.5 1.32-1.29 1.67-1.09 4.56-1.07 6.55.1 9.68 4.37 19.09 11.7 25.43 3.87 3.34 8.43 5.8 13.36 7.18 1.04.29 1.62-.96.99-1.71-2.61-3.08-4.75-6.89-4.88-11.02-.12-3.94 1.67-7.55 3.24-11.05 1.53-3.41 2.89-6.88 2.9-10.68.01-3.88-1.23-7.7-3.47-10.86-.75-1.06-2.53-.04-1.76 1.03 2.37 3.33 3.52 7.38 3.11 11.46-.41 4.06-2.48 7.7-4.04 11.39-1.49 3.52-2.45 7.15-1.77 10.99.67 3.83 2.75 7.25 5.23 10.18l.99-1.71c-8.23-2.3-15.38-7.84-19.53-15.33-2.24-4.04-3.59-8.59-3.94-13.19-.16-2.11-.33-4.62.23-6.68.33-1.21 1.35-1.25 2.42-1.48 1.25-.28 2.5-.59 3.74-.93 5.18-1.45 10.18-3.53 14.88-6.13 1.15-.63.12-2.4-1.03-1.76z" class="st1"/></g><g><linearGradient id="SVGID_6_" x1="176.2661" x2="176.44" y1="203.7502" y2="247.6643" gradientTransform="rotate(-167.317 175.60047565 225.45218442)" gradientUnits="userSpaceOnUse"><stop offset=".0398" stop-color="#f9ed32"/><stop offset=".1849" stop-color="#f9e731"/><stop offset=".364" stop-color="#f8dd2e"/><stop offset=".5609" stop-color="#f8cc29"/><stop offset=".7707" stop-color="#f7b423"/><stop offset=".9886" stop-color="#f7951e"/><stop offset="1" stop-color="#f7941d"/></linearGradient><path fill="url(#SVGID_6_)" d="M193.1 207.39c-6.77-.67-13.43-2.36-19.7-5.02-.55-.23-1.12-.47-1.71-.43-.91.06-1.62.77-2.21 1.46-5.09 5.87-8.01 13.59-8.08 21.36s2.72 15.54 7.71 21.5c-.48-4.61.15-9.54 2.9-13.27 3.7-5.01 10.38-6.85 14.85-11.19 3.43-3.33 5.38-8.12 5.27-12.89"/><path d="M193.1 206.37c-5.37-.55-10.67-1.74-15.75-3.55-1.17-.41-2.32-.87-3.46-1.34-1.1-.46-2.17-.79-3.32-.27-1.92.87-3.36 3.29-4.49 4.99-5.17 7.79-6.94 17.58-4.77 26.68 1.24 5.19 3.69 10 7.08 14.11.54.66 1.83.14 1.74-.72-.4-4.14-.02-8.52 2.3-12.08 2.1-3.24 5.6-5.17 8.82-7.11 3.18-1.91 6.23-3.96 8.43-7.01 2.32-3.23 3.51-7.18 3.46-11.15-.02-1.31-2.06-1.32-2.04 0 .05 4.12-1.38 8.22-4.14 11.31-2.56 2.87-6.06 4.62-9.28 6.63-3.1 1.93-6.03 4.22-7.73 7.53-1.87 3.65-2.26 7.85-1.87 11.89l1.74-.72c-5.56-6.72-8.24-15.63-7.19-24.3.53-4.36 1.99-8.62 4.21-12.42 1.07-1.84 2.32-3.81 3.89-5.27 1.04-.97 2.12-.29 3.24.17 1.15.47 2.3.9 3.47 1.3 5.06 1.74 10.31 2.85 15.64 3.39 1.33.11 1.32-1.93.02-2.06z" class="st1"/></g><g><linearGradient id="SVGID_7_" x1="146.8784" x2="147.0523" y1="172.909" y2="216.8232" gradientTransform="rotate(-126.32 140.68675416 198.08665589)" gradientUnits="userSpaceOnUse"><stop offset=".0398" stop-color="#f9ed32"/><stop offset=".1849" stop-color="#f9e731"/><stop offset=".364" stop-color="#f8dd2e"/><stop offset=".5609" stop-color="#f8cc29"/><stop offset=".7707" stop-color="#f7b423"/><stop offset=".9886" stop-color="#f7951e"/><stop offset="1" stop-color="#f7941d"/></linearGradient><path fill="url(#SVGID_7_)" d="M159.68 193.53c-4.67-4.94-8.59-10.6-11.58-16.71-.26-.53-.53-1.09-1-1.45-.73-.54-1.73-.48-2.63-.35-7.7 1.09-14.96 5-20.11 10.82s-8.14 13.51-8.28 21.29c2.66-3.8 6.37-7.11 10.89-8.11 6.08-1.35 12.33 1.64 18.55 1.29 4.77-.26 9.39-2.59 12.43-6.27"/><path d="M160.4 192.81c-3.56-3.79-6.68-7.97-9.28-12.48-.61-1.07-1.2-2.15-1.75-3.25-.47-.92-.86-1.98-1.76-2.59-1.8-1.22-4.64-.32-6.57.15-9.24 2.27-17.32 8.45-21.84 16.82-2.6 4.81-4.01 10.2-4.14 15.67-.03 1.09 1.35 1.29 1.9.52 2.21-3.1 5.14-5.96 8.81-7.23 4.05-1.4 8.29-.47 12.38.24 3.83.66 7.67 1.08 11.46-.02 3.53-1.02 6.71-3.09 9.08-5.88.84-1-.59-2.45-1.44-1.44-2.5 2.95-5.88 4.98-9.68 5.72-4.3.84-8.61-.4-12.86-1.02-3.94-.58-7.84-.54-11.48 1.28-3.29 1.65-5.91 4.35-8.02 7.32.63.17 1.27.34 1.9.52.22-9.05 4.26-17.75 11.13-23.66 3.32-2.85 7.25-5.01 11.42-6.31.96-.3 1.93-.55 2.91-.76 1.01-.21 2.57-.73 3.58-.36.91.33 1.35 1.88 1.76 2.66.57 1.09 1.16 2.17 1.78 3.23 2.61 4.44 5.74 8.57 9.27 12.33.9.94 2.34-.5 1.44-1.46z" class="st1"/></g><g><linearGradient id="SVGID_8_" x1="114.8368" x2="115.0107" y1="106.3422" y2="150.2563" gradientTransform="matrix(-.00024 -1 1 -.00024 -4.5293 260.3426)" gradientUnits="userSpaceOnUse"><stop offset=".0398" stop-color="#f9ed32"/><stop offset=".1849" stop-color="#f9e731"/><stop offset=".364" stop-color="#f8dd2e"/><stop offset=".5609" stop-color="#f8cc29"/><stop offset=".7707" stop-color="#f7b423"/><stop offset=".9886" stop-color="#f7951e"/><stop offset="1" stop-color="#f7941d"/></linearGradient><path fill="url(#SVGID_8_)" d="M144.97 159.25c-.84-6.75-.65-13.63.57-20.32.11-.58.22-1.19.05-1.76-.26-.87-1.11-1.41-1.91-1.84-6.85-3.68-15.02-4.83-22.62-3.19-7.6 1.64-14.56 6.07-19.28 12.25 4.39-1.48 9.34-1.96 13.58-.09 5.7 2.51 8.97 8.62 14.18 12.03 4 2.61 9.1 3.47 13.73 2.31"/><path d="M145.99 159.25c-.67-5.55-.69-11.17.01-16.72.26-2.09 1.44-5-.1-6.8-1.38-1.61-3.96-2.44-5.88-3.16-8.83-3.32-18.85-2.78-27.27 1.47-4.55 2.29-8.57 5.61-11.68 9.64-.56.72-.09 2.06.99 1.71 4.19-1.38 9-1.98 13.13-.04 3.26 1.54 5.69 4.28 8.14 6.84 2.49 2.6 5.11 5.07 8.47 6.49 3.72 1.58 7.83 1.89 11.76.95 1.28-.3.74-2.27-.54-1.97-4.13.98-8.57.38-12.25-1.77-3.15-1.85-5.51-4.71-8.04-7.28-2.48-2.53-5.25-4.84-8.7-5.87-4.09-1.21-8.51-.63-12.5.68l.99 1.71c5.07-6.56 12.51-11.09 20.74-12.34 4.51-.69 9.18-.36 13.57.88 2.2.62 4.35 1.45 6.35 2.55 1.11.61 1.61 1.09 1.39 2.45-.19 1.21-.4 2.42-.56 3.63-.72 5.63-.72 11.32-.04 16.96.13 1.28 2.17 1.29 2.02-.01z" class="st1"/></g><g><linearGradient id="SVGID_9_" x1="150.2045" x2="150.3784" y1="70.3389" y2="114.253" gradientTransform="rotate(-43.797 154.8694695 92.8423442)" gradientUnits="userSpaceOnUse"><stop offset=".0398" stop-color="#f9ed32"/><stop offset=".1849" stop-color="#f9e731"/><stop offset=".364" stop-color="#f8dd2e"/><stop offset=".5609" stop-color="#f8cc29"/><stop offset=".7707" stop-color="#f7b423"/><stop offset=".9886" stop-color="#f7951e"/><stop offset="1" stop-color="#f7941d"/></linearGradient><path fill="url(#SVGID_9_)" d="M155.86 120.53c4.29-5.27 9.39-9.89 15.06-13.65.49-.33 1.01-.67 1.3-1.18.45-.79.25-1.78.01-2.65-2.08-7.49-6.9-14.18-13.35-18.53s-14.46-6.31-22.18-5.44c4.11 2.14 7.88 5.39 9.46 9.74 2.13 5.86-.02 12.44 1.13 18.56.88 4.69 3.79 8.97 7.84 11.51"/><path d="M156.59 121.25c3.34-4.07 7.12-7.79 11.31-10.98.98-.74 1.98-1.46 3-2.15.86-.58 1.81-1.12 2.29-2.09.95-1.93-.3-4.57-1.01-6.39-3.39-8.65-10.19-15.67-18.79-19.21-5.25-2.16-11.02-2.98-16.67-2.38-.92.1-1.49 1.38-.52 1.9 3.36 1.78 6.5 4.22 8.31 7.63 2.07 3.9 1.65 8.41 1.48 12.66-.16 3.99 0 7.9 1.69 11.59 1.49 3.26 3.94 6 6.95 7.94 1.11.71 2.13-1.05 1.03-1.76-3.17-2.04-5.62-5.13-6.8-8.71-1.36-4.1-.78-8.42-.68-12.64.09-4-.4-8.01-2.69-11.41-2.06-3.05-5.03-5.34-8.26-7.05-.17.63-.34 1.27-.52 1.9 9.13-.97 18.48 1.91 25.27 8.15 3.09 2.84 5.6 6.26 7.41 10.05.84 1.76 2 4.07 2.07 6.05.05 1.27-1.21 1.76-2.12 2.39-.99.68-1.96 1.39-2.91 2.13-4.17 3.21-7.94 6.88-11.28 10.95-.83 1 .6 2.45 1.44 1.43z" class="st1"/></g></svg>