<svg xmlns="http://www.w3.org/2000/svg" viewBox="0 0 612 792"><defs/><style>.st1{fill:#603913}.st2{fill:#3c2415}.st3{fill:#f7941e}.st4{fill:#a7a9ac}</style><g id="Layer_4"><g id="XMLID_1_"><g id="XMLID_200_"><path id="XMLID_210_" d="M245.1 428.6c12 30 25.1 59.6 39.5 88.6 4.7 9.5 18.3 14.7 28.2 11.5 9.9-3.2 19.3-12.9 18.4-24.1-1.5-18.8-7.4-35.4-14.7-52.7-3.2-7.7-6.5-15.5-9-23.5-.7-2.1-1.3-4.3-1.8-6.4-.6-2.4-.9-9.2-.7-1 0-4.4-.9-1.9-2.6 7.4-5.7 7.8-12.4 10.9-20.1 9.1 4.3.8-5.4-3 .1.3 1.1.6 4.3 2.1 4.8 3.2-2.9-2.2-3.3-2.5-1.2-.8.8.7 1.7 1.5 2.5 2.2 3 2.8 5.9 5.9 8.7 8.9 6.5 7.1 12.8 14.3 19.2 21.5 13.3 15 26.6 30.1 39.9 45.1 7 7.9 21.5 9.6 30.3 3.9 9.3-6 14.5-17.2 11.5-28.2-4.6-16.7-14-31-23.6-45.2-4.2-6.2-8.4-12.5-11.7-19.3-.4-.8-.8-1.7-1.2-2.5-1.4-2.7 1.9 5.1.9 2.2-.6-1.7-1.3-3.4-1.8-5.1-.5-1.7-1-3.5-1.3-5.3-.2-.9-.7-4.3-.1-.1.7 4.6.1 0 .1-.8-14.2 5.9-28.5 11.8-42.7 17.7 14 14.5 28.3 28.7 42.9 42.6 7.4 7.1 14.9 14 22.5 20.9 7 6.4 14.6 12.4 21.1 19.2 0 0 2.3 2.1 2.2 2.5 0-1.1-2.9-3.9-1-1 .9 1.4 1.3 3.9-.6-1.8.7 1.9.1 3.5 0-2.1 0 1-.3 3.3.3-.3l.3-1.8c-.6 2-.5 1.9.2-.2.4-.6 4.4-6.1 2.4-4.1-2.1 2 5-4.3 1.2-1.1-2.3 1.9-1.3-2 2.1-.9-.3-.1-2.7.8-2.8.8-.7.2-1.4.3-2.1.4-3.2.8 5.8-.5 2.3-.3-6 .4-12 1.1-17.9 2.1-12 2.2-21.3 9.6-29.6 18-2.2 2.3 4.1-2.2 1.2-1.1-.4.2-1.8.8-2.1 1.1 1.7-1.9 4.4-1.6 1.5-.7-1 .3-2 .7-3 1-4.7 1.5-9.5 3-14.2 4.3-2.7.7-5.5 1.4-8.3 2-1.2.2-2.5.4-3.7.7-3.1.6 4.9-.2.1-.1-2.6 0-5.2.3-7.8.1-1.1-.1-4.4-.5-.3.1 4.6.7-.4-.1-1-.3-1.9-.4-3.8-1-5.6-1.6-3.9-1.2 1.6.5 1.9.9-.8-.7-2.3-1.2-3.2-1.7-1.1-.7-2.9-2.6-.4-.1 2.9 3-.1-.1-.8-.8-.1-.1-1.7-2-2-2.1.7.9 1.4 1.8 2.1 2.8-1.4-2.2-.9-1.3 1.2 2.8v13.3c-1.1 5.8-7 11.3-12.7 13.2-5.2 1.7-4.1.3-1.7.3 2.8 0 5.6 0 8.4.3.9.1 5 .4 1.4.1-3.6-.3.5.1 1.4.2 4.4.6 8.8 1.3 13.2 1.7 12.2 1.3 24.9-.5 35.8-6.2 23.1-12.2 29.7-40.7 23.8-64.4-5.1-20.4-19.7-39.4-38.4-49.2-15.1-7.9-33.8-10.7-47 2.6-11.3 11.3-10.9 26.3-8.7 40.9 3.7 24.4 12.5 48.1 24.6 69.6 5.2 9.3 17.9 14.8 28.2 11.5 10.1-3.3 18.9-12.9 18.4-24.1-1-20.4-5.2-40.2-13.1-59.1-1.4-3.3-2.8-6.7-4.2-10-1.7-4.1.2.5.5 1.1-.5-1-.9-2.2-1.3-3.2-1.7-4.3-3.4-8.6-4.6-13-.5-1.9-1-3.8-1.4-5.8-.2-.8-.2-1.8-.5-2.5 1.7 4.3.3 3.9.3 1.6 0-2-.1-4 0-6 .1-1.1 1-4.5.1-1.2-1.1 3.8.4-1.2.6-2.1 2.2-10 5-19.9 5-30.3 0-9.3-1.6-19.1-5-27.8-7.4-18.9-20.7-36.6-39.8-45-12.4-5.4-25.8-7.6-39-3.3-9.9 3.2-18.4 8.6-26.8 14.5-16.8 11.9-31.9 24.7-44.4 41.1-12.2 16.1-19.8 36.4-20.2 56.8-.2 10.7 1.7 21.9 7.1 31.3 7.2 12.6 20.9 20.9 35.5 19 14.6-2 23.4-11.7 32.7-22 7.4-8.1 14.7-16.2 22.1-24.3 7.5-8.3 15.1-16.6 22.6-24.9 3.8-4.2 7.5-8.3 11.3-12.5 5.5-6.1 12.1-12.5 13.3-21 1.2-8.2.8-15-4.5-21.8-4.4-5.7-12-10.7-19.6-9.9-12.7 1.4-24.6 4.7-35.5 11.6-9.2 5.9-17.7 13.3-24.6 21.8-7.5 9.3-14 19.2-19.8 29.7-2.6 4.8-5.2 9.6-7.8 14.3-1.3 2.4-2.6 4.7-4 7.1-.4.7-1.9 2.4-1.9 3.1 2.4-2.8 3-3.6 1.7-2.2-6.1 5.9 1.5 5.2 22.9-2.2l9 9c1.3 8.9 2 11.5 2 7.8 0-.9 0-1.7.1-2.6.1-.9.1-1.8.2-2.7.2-1.9.1-1.2-.3 2.1-.5-2.3 1.3-6.7 1.8-9 1.7-6.9 4.1-13.5 6.6-20.1 5.1-13.2 10.6-26.2 16-39.3 6-14.6-9.2-32.7-24.1-31.6-21 1.5-39.9 11.9-56 25-3.9 3.2-7.5 7-10 11.4 0 .1-6.7 16.8-6.2 16.8.4-1 .9-1.9 1.3-2.9-1.4 2.3-.9 1.8 1.5-1.4-.5.1-4 3.5-4.3 4 3.1-2.4 3.6-2.8 1.5-1.2l-1.2.9c-2.9 2.2-5.8 4.3-8.6 6.7-13.1 11.5-18 28.2-27.5 42.3-.4.6-3.1 3.7-3.1 4.4 2.1-2.7 2.3-3 .6-.8-.8.9-1.5 1.8-2.3 2.8-2.7 3.1-5.4 6.2-8.1 9.2-2.4 2.6-5.1 4.9-7.6 7.4 3.1-2.3 3.6-2.8 1.4-1.3-.8.5-1.7 1-2.6 1.4 3.8-1.5 4.4-1.9 1.9-1.1 4.3-.4 5.1-.6 2.3-.5-18.1.3-32.2 21.3-21.6 37.6 8.8 13.5 22.6 17.5 37.1 22.2 11.1 3.6 22.3 6.9 33.6 9.9 24.1 6.4 48.6 11 73.3 14.2 11.2 1.4 22.5 2.5 33.8 3.1 12.4.6 26.8 2.4 38.5-2.5 10.3-4.3 17.3-13.1 18.8-24.3 1.2-9.2-1.6-18.1-6.6-25.8-6.7-10.3-14.9-19.6-23.5-28.3-19-19.1-40-36.2-62.1-51.7-10.2-7.2-25.2-2.7-32.3 6.4-6.9 8.9-7.8 25.1 2 32.8 29.2 23.2 58.7 46.2 88.4 68.8 8.4 6.4 23.5 3.5 30.3-3.9 8.1-8.8 8.7-19.7 3.9-30.3-14-31-30.7-60.8-50.1-88.8-3.2-4.6-6.3-9.6-10.1-13.6-6.5-6.7-16-10.3-25.3-9.1-10.1 1.4-18.2 7.6-22.1 16.9-3.1 7.4-2.5 14-1.4 21.7 2.5 16.7 7.5 32.9 12.8 49 2.9 8.9 5.9 17.8 8.6 26.8 1.3 4.3 2.5 8.7 3.6 13.1.6 2.3 1.1 4.7 1.6 7.1l.6 2.7c.5 2.5.5 2.4 0-.3-.8-3.9-.2-7.8 2-11.5l9-9c1.2-.5 2.4-1.1 3.6-1.6h13.3c-2.5-.5-1.9-.1 1.9 1.1-1-.6-1.9-1.3-2.8-2-1.8-1.4-3.7-2.7-5.5-4.1-3.9-2.9-7.9-5.9-11.8-8.8-7.3-5.5-14.7-11-22-16.5l-45.6-34.2c-4.7-3.5-13.9-4.3-19.3-2.5-5.3 1.7-9.6 4.6-13 9-7.7 9.9-6.7 23.7 2 32.8 17.1 18 37.5 32.5 57.6 46.9l25.2-43.2c-11.5-7.9-23.6-14.9-36.3-20.8-17.2-8-40.2-19.8-56.5-2.8-16.2 17-4.7 39.1 7.1 54.5 1.9 2.5 3.9 5 5.7 7.6.2.3 2.5 4.1 2.6 4.2-1.9-.2-1.1-8.5-.9-9.2l1.2-2.7c-.5 1.1-1.1 2.2-1.6 3.3-.8 1.7-1.7 3.4-2.5 5-1.7 3.3-3.5 6.7-5.3 10-6 11.1-3.5 28.2 9 34.2 5.1 2.7 2.9-.5-6.7-9.7 5.8-10.3 11.6-20.5 17.5-30.8-13.3 3.1-21.1 15.2-21.8 28.2 14.2-5.9 28.5-11.8 42.7-17.7-6.4-5.4-12.8-10.8-19.3-16.2-8.3-7-20.5-10.2-30.3-3.9-9 5.8-15 17.4-11.5 28.2 3 9.2 7.6 17.4 14.7 24.1 9.1 8.6 22.9 9.7 32.8 2 10-7.8 12.3-21.1 6.4-32.3-10-18.9-26.5-37.5-50.1-36-17.1 1.1-27.2 15-24.1 31.6 2.4 12.6 12.4 20.6 23.7 24.9 9.2 3.5 20.7-1.7 26.3-9 6.4-8.3 6.5-18.5 2-27.8-4.4-8.9-13.5-14.3-22.7-17-2.1-.6-4.9-1.8-7.1-1.9 3.9 1.8 5 2.3 3.2 1.4-1.6-.9-.8-.2 2.5 2.1-3.5-3.2 3.1 4.7.7.6.5 1.1.9 2.2 1.4 3.4l-.9-2.7c-.5-1.4-.9-2.7-1.3-4.1-1.5-4.1-3.1-8.3-5.7-11.9-7.1-10-17.4-17.3-30.1-16.8-14 .5-24.3 11-25 25-.1 1.5-.1 2.9-.2 4.4-.1 2.9-1.6 4.4.4-1.4 2.1-3.7 4.3-7.4 6.4-11-.2.2-.4.3-.6.5 3.7-2.1 7.4-4.3 11-6.4 6.2-1.6 14.2.9 8.9-.4-2.5-.6-5.5-1.2-8.1-1.2-7 0-14.6 3-19.6 7.9-9.8 9.8-12.2 27.9-.5 37.7 8.1-13.9 16.2-27.9 24.3-41.8-.4-.1-1.9-.7-2.4-.7 1.9-.1 5.8 2.9 6.7 3.9.6 4 1.1 8 1.7 12.1 3.7 5.4 3.9 9.9.6 13.5-.4.5-.7.9-1.1 1.4.5-.6 1.1-1.3 1.6-1.9 1.3-1.4 2.6-2.8 4.1-4.2.8-.8 1.7-1.5 2.5-2.2 3.3-3-3 1.9-.4.4 7.4-4.4 16-8.6 21.8-15.1 3.3-3.6 5.2-6.5 7-10.8.6-1.4 1.2-2.9 1.8-4.3 1.6-3.9-.7 1.6-.8 1.9-.2.4-3.8 4.7-.9 1.8-.1.1-4.4 2.8-2 1.6 3.3-1.7 6.8-5.1 9.7-7.7 7.4-6.5 14-14.5 19.1-22.9 1.2-1.9 2.3-3.9 3.2-5.9 1.2-2.6 1.7-.5-1 .9.6-.3 1.3-1.4 1.7-1.9l10.5-11.4c6.9-7.4 13.7-14.8 20.6-22.2 6.6-7.1 13.1-14.3 19.8-21.3 1.4-1.5 2.8-3 4.3-4.4.7-.6 3.7-3 .8-.9-2.9 2.1.4-.1 1.1-.6.2-.1 2.4-1.3 2.4-1.3 0 .1-4.6 1.8-.9.3 2.4-.9 4.8-1.9 7.3-2.8 10.2-3.9 20.2-7.5 30.7-10.4 2.7-.7-2 .3-2.2.3.8.3 3-.2 4-.2s2 .1 3 .1c3 0-5.6-1.5-1.4-.1.6.2 2.5.9 2.9.8-.9.1-4.9-2.6-1.9-.8-.1-.1 2.4 1.5 2.5 1.5-1.3.3-4.5-4.2-.7 0 8.9 9.6 26.5 9.7 35.4 0 9.4-10.3 9.5-25.1 0-35.4-19.2-20.7-48.7-18-72.8-8.9-11.8 4.5-25.3 8.1-35.8 15.1-10.6 7-18.7 17.2-27.3 26.4-8 8.6-15.9 17.2-23.9 25.8-8.5 9.2-17.9 18-23.9 29.2-1.2 2.2-2.4 4.3-3.9 6.3-.2.2-.3.4-.5.7-1.6 2.2-1.3 1.8.9-1.1 0 .3-2.2 2.6-2.2 2.6-1.5 1.7-3.1 3.3-4.7 4.9-.8.8-1.7 1.6-2.5 2.3-.9.8-1.7 1.5-2.6 2.2l2.4-1.8c-3 2.4-6.4 4.5-9.1 7.2-4.3 4.3-6.3 8.5-8.5 14.1-.4.9-.7 1.8-1 2.7.9-2.6 1.7-4.4 3.6-6.4-2.6 2.8 1.6-1.1 2-1.3-1.1.3-2.4 1.6-3.5 2.2-10.7 6.2-20.8 13-28.7 22.8-8.5 10.4-12.4 23.6-5.1 36.1 4.8 8.3 13.5 13.7 22.7 16 10.4 2.6 23-1.6 28.2-11.5 4.9-9.2 4.8-23.1-3.9-30.3-.2-.2-.4-.3-.6-.5 2.4 5.9 4.9 11.8 7.3 17.7v-.6c-1.1 4.2-2.3 8.4-3.4 12.6-4 3.2-7.9 6.4-11.9 9.6H81.8c3.6.5 7 1.6 10.7 1.8 6.9.4 14.7-2.7 19.5-7.5 7.9-8 8.1-17.4 8.6-27.8l-25 25c2.8 0 1.7-.4-3.3-1.2-2.4 0-4.5-.8-6.1-2.4-1.8-1.5-2-1.6-.6-.3-.8-1-1.5-2-2.3-2.9 0 .4 2.5 5.3.6.6-1.7-4.1-.2 0 .2 1 2.5 7.7 5.5 15.2 11.2 21.2 5.1 5.5 11.9 8.8 19 10.9 1.9.6 3.9 1.1 5.9 1.6 4 1-1.3-.4-2.3-1-1.1-.9-2.2-1.8-3.4-2.7-2.6-3.9-3.3-4.7-2.1-2.4 9.4-12.2 18.8-24.5 28.2-36.7 4.5 1.3 7.8 3.8 10 7.6 1.4 4.1 1.8 4.9 1.3 2.4-8 10.5-16.1 21.1-24.1 31.6 2.5-.2 5.5.9-.7-.5 3.3.7-.9-.3-1.7-1 .5.4 3.3 2.1 3.9 2.3-1.9-.6-3.8-3.3-1-.3.4.4.8.8 1.1 1.2 1.2 1.4.7.8-1.4-1.8.4-.1 2.1 3.1 2.3 3.4 1.6 2.6 3 5.3 4.4 7.9l39.3-30.3c-.8-.7-1.5-1.4-2.2-2.2 2.2 3.1 2.6 3.5 1.1 1.3-.6-.9-1.1-1.8-1.5-2.7 1.4 3.6 1.7 4.1.8 1.6-13.9 8.1-27.9 16.2-41.8 24.3 6.4 5.4 12.8 10.8 19.3 16.2 7.9 6.6 17.4 9.3 27.3 5.2 9.5-4 14.8-12.7 15.4-22.8-.1 1.5-.2 2.9-.4 4.4-2.1 3.7-4.3 7.4-6.4 11-2.7 1.5-5.4 3.1-8.1 4.6 12.4-2.9 21.9-18.4 17.5-30.8-3-8.4-7.8-16.2-16.2-20.2l9 34.2c8-14.7 18.7-31.3 12.7-48.6-4.2-12.3-13.8-20.7-20-31.8-.5-.8-2.3-5-.8-1.2.7 1.8.8 2.1.4.8-3.6-10.6-10.3-2.6-20 24-1.5-.1-6.1-1.6-2.4-.1l3.9 1.5c1.4.5 2.8 1.1 4.1 1.7 2.9 1.2-4.5-2-.2-.1 2.7 1.2 5.4 2.5 8.1 3.8 11.2 5.5 22 11.8 32.3 18.9 10.8 7.4 28.2 2.4 34.2-9 6.8-12.9 2.4-26.1-9-34.2-4.4-3.1-8.7-6.2-13.1-9.4-2.4-1.8-4.8-3.5-7.2-5.3-.9-.7-1.8-1.6-2.8-2.2 2.5 1.4 2.7 2.1.1.1-8.6-6.9-16.9-14.2-24.4-22.2l-30.3 39.3c27.5 20.6 55 41.2 82.5 61.9 11.8 8.9 26.8 12.1 39.4 2.4 12.9-10 11.5-24.9 8.3-39-3.5-15.3-8.7-30.2-13.6-45.2-2.8-8.6-5.6-17.2-7.9-26-1.1-4.1-2.1-8.2-2.9-12.3-.5-2.4-.9-4.7-1.3-7.1-.1-.8-.7-4 0 .1.2 2.1.3 2.5.2 1.3-.1-5.6-1.9-1.1-5.6 13.3-3.7 2.1-7.4 4.3-11 6.4-1.4.2-2.7.4-4.1.6-4.2-1.1-8.4-2.3-12.6-3.4 2.2 1.1 1.7.7-1.5-1.3-2.3-2.9-2.5-3.2-.9-.9 1.3 2.1 2.8 4 4.2 6 2.8 4 5.5 8.1 8.1 12.3 5 7.7 9.8 15.6 14.4 23.5 9.5 16.5 18.2 33.4 26 50.7l34.2-34.2c-6.7-5.1-13.5-10.3-20.2-15.5-1-.8-2.1-1.6-3.1-2.4 2.5 1.9 2.6 2 .4.3-1.5-1.2-3.1-2.4-4.6-3.6-3.3-2.6-6.7-5.2-10-7.8-13.6-10.6-27.2-21.3-40.7-32.1l-30.3 39.3c3.7 2.6 7.4 5.3 11 8 1 .7 1.9 1.5 2.9 2.2 2.8 2.1-3.5-2.8-.7-.6 2.1 1.7 4.3 3.4 6.4 5.1 7.3 5.9 14.4 12.1 21.2 18.5 6.8 6.3 13.6 12.9 19.8 19.8.5.6 4.1 5.5 4.6 5.5-.3 0-3.5-4.8-.6-.8.5.7 1 1.5 1.6 2.2.7 1 1.3 2 2 3 .6.9 1.8 4 .6.5-1.2-3.6-.3-.8-.2-.1-1.4-7.6 5.8-24.7 16.8-23.3-3.8-.5-8.1.1-12 0-5.3-.1-10.7-.3-16-.6-9.7-.6-19.4-1.5-29.1-2.7-4.6-.5.3.1 1 .2-1.2-.1-2.5-.4-3.7-.5-2.2-.3-4.4-.7-6.5-1-5.3-.8-10.6-1.8-15.8-2.8-9.6-1.9-19.1-4-28.6-6.3-10.7-2.7-21.4-5.6-31.9-8.9-5.4-1.7-10.8-3.4-16.2-5.2-2.2-.7-4.5-1.5-6.7-2.3-3.9-1.3 1.6.6 2 .8-.4-.2-.8-.5-1.2-.7 2.1 1.2 3.8 2.9 5.1 5-7.2 12.5-14.4 25.1-21.6 37.6 21.7-.4 36.2-15.6 49.1-31.1 6.5-7.8 12.6-15.9 17.3-24.9 3.4-6.5 6.7-13 10.7-19.2 2.6-4.1-3.8 4.1.4-.4.7-.8 3.7-2.8 3.9-3.7-3.1 2.4-3.6 2.7-1.5 1.2l2.4-1.8c2.4-1.8 5-3.8 7.4-5.8 4-3.4 7.5-7.8 9.8-12.5 1.6-3.2 2.9-6.5 3.9-9.9.6-2 3.3-7.9 0-2 2.3-4.1-4.1 3.4-.5.4.7-.7 1.4-1.4 2.2-2-3.1 2.4-3.6 2.8-1.5 1.2 3.2-2 6.3-4.2 9.6-6.2s7.3-3.4 10.4-5.6c-3.4 1.4-3.9 1.6-1.3.7 1-.4 2.1-.7 3.2-1 1.1-.3 2.1-.5 3.2-.7-3.9.4-4.5.5-1.7.3-8-10.5-16.1-21.1-24.1-31.6-5.9 14.5-12.2 28.9-17.6 43.6-2.6 7.2-4.9 14.5-6.3 22.1-2.2 11.6-4.3 24.6 1.7 35.5 8.8 15.7 29.7 18.4 43.3 7.9 7.9-6.1 12.4-14.5 17.1-23.1 3.6-6.6 7.2-13.3 11-19.8 1.8-3.1 3.7-6.2 5.7-9.2 1-1.5 2.1-3 3.1-4.4.4-.6 2.3-3.1.1-.2-2.3 3 0 .1.5-.5 2.4-2.8 4.9-5.5 7.6-7.9 1.3-1.2 3-2.3 4.1-3.6 0 0-4.2 3-2 1.6.9-.5 1.7-1.2 2.6-1.8 1.5-1 3.1-1.9 4.6-2.8.7-.4 1.4-.7 2.1-1 2.7-1.6-4.7 1.6-1.8.7 1.7-.5 3.4-1.2 5.1-1.7 1.9-.5 8.6-1.3.9-.5-8-10.5-16.1-21.1-24.1-31.6.2-1.4 1.8-3.1 2.6-4.2 1.8-2.9.2-.4-.4.2-1.4 1.4-2.7 2.9-4 4.4-3.1 3.4-6.2 6.8-9.3 10.3-5.8 6.3-11.5 12.7-17.3 19-11.2 12.4-22.5 24.8-33.7 37.2-1.1 1.2-2.3 2.4-3.4 3.7-2.8 3.2 3.8-2 .1-.1 3-1.6 3.9-1.4 7.8-1.4 7.6 0 5.5.3 3.5-.3 2.7.9 4.9 1.9 7 3.9-2.5-2.3 1.5 1.5 1.5 2.1 0-.4-.8-1.3-1-1.7-1-2.5 1.1 3.3 1.2 2.9.1-1-.8-2.8-1.1-3.8-1.1-3.6.2 5 .1.4-.1-2.2-.2-4.4-.1-6.7 0-.8.2-1.7.2-2.5 0-2.7-.4 2.4-.4 2.5.6-1.5.6-3.4 1-4.9.4-1.6.8-3.3 1.3-4.9.3-.8.5-1.6.8-2.4.7-1.9 2.6-4.1-.4.5 1.8-2.8 2.9-6.2 4.6-9 .9-1.5 1.8-2.9 2.7-4.3.5-.7 1-1.4 1.4-2.1.4-.6 2.7-3.8.6-.8-2.3 3.1 1.7-1.9 2.3-2.6 1.1-1.3 2.3-2.5 3.4-3.7 2.5-2.6 5.2-5.1 7.9-7.6 2.7-2.4 6-4.4 8.4-7 0 0-3.9 3-1.7 1.3.7-.5 1.3-1 2-1.5 1.6-1.2 3.2-2.3 4.8-3.5 3-2.2 6-4.3 9.2-6.3 1.5-.9 3-1.9 4.5-2.7.8-.4 1.6-.8 2.3-1.2 2.6-1.6-4.2 1.2-1.2.5 1.1-.3 6.2-1.2 2.4-1-3.9.3 0 .3.9.1 2.4-.5-2-.2-2.5-.5.4.3 4.4 1.4 4.8 1.3-.2.1-4.4-2.2-2.1-.9 1 .6 2 1 3 1.6.9.5 5.3 3.8 2.2 1.2-3.1-2.5 1.2 1.1 2 1.9 1.1 1 2.1 2.1 3.1 3.2.5.6 1 1.2 1.5 1.7 2.1 2.3-2.7-4.1-1.2-1.5 1.7 2.8 3.4 5.5 4.9 8.4 2 4-1.6-4.7-.2-.4.5 1.7 1.1 3.3 1.5 5 .4 1.5.6 2.9 1 4.4.6 2.6-.4-3.1-.4-2.9 0 .7.1 1.5.2 2.2.1 1.7.2 3.5.1 5.2 0 1.1-.5 6.8-.1 2.8s-.5 1.8-.7 2.8c-.4 1.8-.9 3.6-1.3 5.4-1.4 5.8-2.4 11.5-3.1 17.4-2.4 20.3 6.2 39.2 13.9 57.4 1.1 2.6-.8-1.9-.8-2 .3 1.1.9 2.2 1.3 3.2.8 1.9 1.5 3.9 2.2 5.8 1.6 4.4 2.9 8.8 4 13.3 1.1 4.2 1.9 8.4 2.6 12.7.8 4.9-.3-.7-.1-1.1-.3.7.3 2.9.4 3.7.2 2.5.4 4.9.5 7.4 15.5-4.2 31.1-8.4 46.6-12.6-2.4-4.2-4.6-8.5-6.6-12.8-.7-1.4-4.4-8-1.1-2.3-1.3-2.2-2-5.2-2.9-7.6-3.4-9.3-6-19-7.8-28.7-.4-2.3-.6-4.8-1.2-7.1.1.4.3 6 .4 2.3 0-.9 0-1.8-.1-2.7-.1-1.8 1.1-4.6-.4 2.8.4-2.2 1.9-2.2-1.1 2.6-3.1 4.9-9 8.9-14.8 8.8-1.9 0-5.7-.8-1.5 0 3.1.6-4.6-2.3-1.9-.8.8.5 1.7.8 2.6 1.3 1.5.8 2.9 1.7 4.3 2.6 3.4 2.1-1.2-1-1.6-1.3.6.7 1.5 1.3 2.2 1.9 1.8 1.6 3.4 3.4 5 5.2 1.9 2.2-.7 1-1.2-1.6.1.6 1.4 2 1.6 2.4 1.1 1.6 1.9 3.3 2.9 5 1.1 2 0 2.6-.7-2 .1.8.8 2 1 2.7.6 1.8 1.1 3.7 1.5 5.6.2.8.2 2 .5 2.8-1.8-5-.5-4.7-.5-2.4 0 1.6-.5 4.2-.1 5.7-.9-3.4 1-5.2.3-2.4-.2.9-.5 1.8-.7 2.7-.7 3.7.6-1.5 1-2.1-.4.5-1.9 3-2 3.6 0-.2 3.6-3.8 1.8-2.4-.8.7-3.2 2.5-.1.4 3.2-2.2.2-.4-.6.2-2.5 1.8 4.8-1.4 1.7-.7-1 .2-2 .6-3 .8-1.3.3-3.9 1.6-.6.2 3.1-1.3 1-.2-.6-.1h-4c-2-.1-4.8.1-6.6-.6 4.2 1.6 3 .4 1 .1-1.3-.2-2.5-.3-3.8-.5-6.8-.9-13.8-2.1-20.7-1.6-8.3.6-15.7 2.2-22.4 7.3-9 7-13.6 19-10.3 30.2 3.5 11.8 14.4 22.2 25.1 27.5 21.6 10.8 45 9.2 67.6 2.6 12.2-3.6 23.9-7.3 33.8-15.5 1.7-1.4 3.2-2.9 4.7-4.4.8-.8 1.6-1.5 2.3-2.2 2.2-2.4-4 2.6-1.2 1s-4.8 1.3-1.7.6c1-.2 2-.6 3.1-.8 1-.2 4.6-.7.6-.2-4.3.5.6 0 1.5-.1 12.5-1.1 24.4-2.8 34.6-10.7 12.9-9.9 18.2-26 14.2-41.8-3.4-13.3-13-22.8-22.9-31.6-9.1-8.1-18-16.3-26.9-24.6-17.3-16.2-34.1-32.9-50.5-49.9-7-7.2-18.3-9-27.3-5.2-8.7 3.7-15.9 13-15.4 22.8 1.1 19.4 9 36.5 19.6 52.5 4.3 6.6 8.9 13 13 19.7 2 3.2 3.8 6.5 5.5 9.9.4.9 2.1 4.8.5.9-1.6-3.8-.3-.6 0 .3.7 2 1.4 4 1.9 6 13.9-8.1 27.9-16.2 41.8-24.3-11.8-13.3-23.5-26.7-35.3-40-10.9-12.3-21.4-25.7-33.7-36.7-7.6-6.9-16.3-13.4-26.2-16.5-14.2-4.4-30.7 1.4-37.6 14.8-9 17.6.7 39.3 7.6 56.1 3.3 8 6.8 16 9.7 24.1 1.4 3.9 2.6 7.9 3.6 11.9.5 1.9.9 3.8 1.2 5.7.2 1 .7 4.7.2.8-.6-4.3 0 1.2.1 1.6 15.5-4.2 31.1-8.4 46.6-12.6-6.5-13.2-12.9-26.6-18.9-40.1-2.9-6.4-5.7-12.9-8.5-19.4-2.6-6 2 4.9-.5-1.1-.7-1.8-1.5-3.6-2.2-5.3-1.5-3.6-2.9-7.1-4.3-10.7-2.5-6.3-5.4-11.4-11.5-14.9-5.4-3.1-13.3-4.5-19.3-2.5-12.4 3.7-23.3 17.7-18.1 30.7z" class="st1"/></g></g><g id="XMLID_9_"><g id="XMLID_213_"><path id="XMLID_217_" d="M155.8 465.6c2.7 1.3 5.4 2.7 8.1 4.2 5.7 3.2 13.9 1.6 17.1-4.5 3.1-5.9 1.6-13.7-4.5-17.1-2.7-1.5-5.4-2.9-8.1-4.2-3.1-1.5-6.2-2.2-9.6-1.3-2.9.8-6 3-7.5 5.7-1.5 2.9-2.3 6.4-1.3 9.6 1 3.1 2.9 6.2 5.8 7.6z" class="st1"/></g></g><g id="XMLID_11_"><g id="XMLID_220_"><path id="XMLID_224_" d="M168.3 464c16.1 0 16.1-25 0-25s-16.1 25 0 25z" class="st1"/></g></g><g id="XMLID_14_"><g id="XMLID_227_"><path id="XMLID_231_" d="M301.4 378.4c11.4 11.8 22.9 23.6 34.3 35.4 4.7 4.8 13 4.7 17.7 0 5.2-5.2 4.3-12.5 0-17.7-10.9-13.2-21.9-26.5-32.8-39.7l-17.7 17.7c23.4 25.4 46.9 50.8 70.3 76.3 21.2 23 42.1 46.8 68.6 63.9 13.2 8.5 29.5 13.3 41.1 24.1 10.6 9.9 25.9-2.5 19.6-15.1-2.9-5.8-7.2-10-12.3-13.8-3.9-2.9-10.4-1.8-13.9 1-4 3.2-5.6 8.1-4.5 13.1.1.8.3 1.5.6 2.2-.1 2.2 0 2.5.3.9.2-1.8 1.5-3 3.7-3.4.6-.4.5-.6-.4-.4-3.4-1.6-10 2.4-12.4 4.8-5.1 5.1-6.7 12.8-5.8 19.7 5.3-4 10.5-8 15.8-12.1-2.8-.5-5.7-1.1-8.5-2-2.1-.7-.3-.3-2.2-1-1.3-.8-1.6-1-.8-.5.2.6.2.5-.2-.1-.4-.8-.4-.7 0 .2v.3c.1-1.4-.5 1-.8 1.5-2.7 3.9-10.4 2-9.9-3.4 5.3-4 10.5-8 15.8-12.1-15.5-4.3-33.6 5.7-36.5 22l8.7-8.7c-15.4 2.6-30.2 6.3-42.1 16.9 7 4.1 13.9 8.1 20.9 12.2 2.4-9.3-3.2-18.5-12.5-20.9-9.6-2.5-17.6 4-24.1 10.1-4.8 4.5-8.5 10.2-13.6 14.4-3.3 2.7-7.1 3-11.9 3.3-14 .7-26.8 1.1-37.8 11-1.6 1.5-3.4 3.1-4.5 3.5-1.7.6-3.5.6-5.5.2-6-1.2-10.5-6-14.5-10.3-5 6.5-10.1 13.1-15.1 19.6.6.3 3.7 1.2 1.8.6.8 1.3.9 1.6.4.8v.8c-.1 14.2 20.7 16.9 24.6 3.3 5.5-19.3-11.2-36.7-30.5-33.6-8.2 1.3-15 5.7-22.1 9.8-1.3.8-3 1.7-4.3 2.2-.1 0-4.7 1.2-2.3.7-1.5-.1-1.8 0-.6.1-1.4-.5-1.7-.5-.7 0-1.3-.8-1.5-.8-.6-.2.3.4.5.8.6 1.3-4 5.3-8 10.5-12.1 15.8 10.5 1.2 20.6-2.9 28.4-9.8 5.5-4.9 4.7-16.5-2.5-19.6-7.5-3.3-15.4-5.8-23.4-2.6-1.5.6-9.2 5.4-8 6.4.9-.2 1.8-.4 2.6-.7 1.1.3.9.2-.7-.2 1.3.5-3-1.5-2.6-1.2-6.9-3.6-13.1-6.9-21-7.8-8.5-1-16.2.7-24 4.1-5 2.2-7.1 9.2-5.7 14.1 1.5 5.4 6.5 9 12.1 9.2l18.3.6-3.3-24.6c-9.6 3.1-18.7 6.5-27.2-.1-9.1-7.2-17.2-16.4-25.5-24.5-11.6-11.2-29.3 6.5-17.7 17.7 10.4 10 20.4 21.9 32.6 29.8 13.8 9 29.7 6.1 44.5 1.3 13.3-4.4 11.1-24.1-3.3-24.6L188 560c2.1 7.8 4.2 15.5 6.3 23.3 9.8-4.3 17.9 3.6 26.9 6.9 6 2.2 13.1 2.3 18.7-1.1 1.5-.9 3.8-2.4 4.7-3.9 1-1.7 1.4-.9-.6-.9-2.7 0 1.8 1 2.1 1.1-.8-6.5-1.7-13.1-2.5-19.6-3.2 2.8-6.3 3-10.7 2.5-7.7-.9-14.7 8.8-12.1 15.8 6.8 18 26.2 20.1 41.8 12.3 5.2-2.6 11.3-8.5 17.4-8.6-1.4 0 2.2.7.9.3-2-.6.6.9-.2-.2 1.5 2 .3-.7.8 1.7v.5c.2-1.2.2-1.1-.2.5l24.6 3.3c.1-9.8-5.4-19.8-14.6-23.7-5.7-2.5-12.1-2.2-16.1 3.2-3.8 5.1-3.3 11.7 1 16.4 9.3 10.2 22 18.8 36.5 17.8 7.9-.5 14.6-3.4 20.5-8.6 4.4-3.8 5.3-5 11.1-5.8-1.9.3 2.5-.1 2.4-.1 1.2-.1 2.4-.1 3.6-.2 2.7-.1 5.4-.1 8-.3 6.9-.5 13.8-1.6 19.9-5 5.6-3 9.8-7.7 13.9-12.4 2.3-2.6 4.6-5.1 7.1-7.4.9-.9 3.6-2.4 3.9-3.5-.2.5-6.7-.4-7.7-2.6-.6-2.1-1.1-4.2-1.7-6.3.1-.4.2-.8.3-1.1-3.3 12.5 11.8 20.3 20.9 12.2 8.1-7.2 20.5-8.7 31.1-10.5 3.9-.6 8.1-4.9 8.7-8.7.1-.9.3-1.7.6-2.5-.5 1-.3.9.4-.5-1.3 1.9 2.8-2.2.9-.9 1.3-.7 1.5-.8.5-.4.8-.3 1.6-.5 2.5-.7-1.2.2-1.1.2.5.1-1.2-.2-1.1-.1.4.2 8.4 2.3 15.1-4.1 15.8-12.1.8-9.4-7-17.3-15.8-19-10.2-1.9-19.6 4.2-22.6 14-2.6 8.5.3 18 6.6 24.2 6 6 14.4 8.4 22.5 10 7.1 1.3 16.9-3.3 15.8-12.1 0-.4-.5-4.7-.2-4.8.1.5 0 1-.3 1.4-.6 1.2-1.5 2.1-2.8 2.7-3.3.9-3.6 1.4-1 1.3 1.3-.2 2.7-.3 4-.5 2.1-.5 4.1-1.4 5.9-2.6 9.6-6.3 10-17.8 7.6-28-6.1 4.7-12.2 9.4-18.4 14.1 1.4 1 2.4 3 3.3 4.9 6.5-5 13.1-10.1 19.6-15.1-11.1-10.4-24.9-15.8-38-23.1-12.7-7-24-16.1-34.6-26-23.7-22.4-45.1-47.5-67.2-71.5-13.4-14.5-26.8-29.1-40.2-43.6-4.6-5-13-4.6-17.7 0-5.2 5.2-4.3 12.5 0 17.7 10.9 13.2 21.9 26.5 32.8 39.7l17.7-17.7c-11.4-11.8-22.9-23.6-34.3-35.4-11.1-11.9-28.8 5.8-17.6 17.3z" class="st1"/></g></g><g id="XMLID_15_"><g id="XMLID_234_"><path id="XMLID_238_" d="M102.6 553.6l-5.3-5.3c-2.1-2.1-5.1.5-3.9 3 2.2 4.6 6.2 7.1 11.2 7.7 2.9.3 3.2-4.1.7-4.9-2.8-.9-4.8-2.2-6.8-4.4s-5.1.6-3.9 3c2 4.2 5.4 6.9 10 7.8 2.2.5 4.5-2.4 2.4-4.2-2.8-2.4-5.6-4.8-8.5-7.1-2.1-1.8-5.4.4-3.9 3 2.2 3.8 5.3 6.2 9.5 7.4 1.8.5 3.6-1.2 3.1-3.1-2.9-9.3-5.7-18.5-8.6-27.8-1.3-4.3-2.7-8.6-4-13-1.3-4.2-3.5-9.1-2.8-13.5.9-5.6 5.1-11.2.9-16.5-3.5-4.5-9.8-4.5-15-3.7l2.4 4.2c2.2-1.9 4.4-3.8 6.6-5.8 2.2-1.9-.6-5.2-3-3.9-10.3 5.3-20.5 10.7-30.8 16-2.2 1.1-1.2 4.8 1.3 4.7 5.8-.3 10.7-2.5 14.5-6.9 1.3-1.4.6-4.5-1.8-4.3-6.4.7-12.3 2.4-18.1 5.1-2.5 1.2-.7 5.6 1.9 4.6 5.5-2.1 10.9-4.6 16.2-7.4 2.5-1.3.8-5.4-1.9-4.6-6.3 1.9-11.9 5-16.8 9.5-1.7 1.6-.2 4.1 1.8 4.3 6.1.5 11.1-2.3 16.1-5.4l-3.4-3.4c-4.3 6.5-8.1 13.3-11.5 20.3-1.4 2.9 2.9 5.4 4.3 2.5 2.8-5.6 4.9-11.4 6.4-17.4.6-2.7-3.2-4.5-4.6-1.9-4.1 7.5-6.3 15.6-6.7 24.2-.1 2.9 4.1 3.3 4.9.7 1.7-5.2 2.3-10.6 1.4-16-.4-2.8-1.2-7.6-5.1-7.7-8.9-.2-2.6 21-1.5 25 .7 2.4 4.1 2.3 4.8 0 1.9-6.1 2.9-18.1-3.6-22.2-6.9-4.4-9.3 4.3-8.6 9.4.5 4 3.6 12.8 8.8 7.9 5.4-5 2.5-14.9-.2-20.3-.8-1.5-2.8-1.5-3.9-.5-5.4 5-6.4 12.9-2.6 19.1 1.2 2 3.8 1.3 4.6-.6 1.5-3.8 4.7-19.3-3-19-7.5.3-7.3 13.3-5.6 17.9.9 2.4 3.9 2.3 4.8 0 1.4-3.3 4.7-15.7-2.1-15.9-6.2-.2-6.2 12.6-5.8 16.4.4 3.2 4.6 3.2 5 0 .6-4.5-.5-8.6-3.1-12.3-1.3-1.8-3.9-1.5-4.6.6-1.3 3.9-1 7.5.9 11.1 1.1 2.2 4.8 1.2 4.7-1.3-.2-3.5-.9-6.5-2.3-9.6-.7-1.7-3.5-1.6-4.3 0-2.2 4.2-2.2 8.2-.3 12.5 1.3 2.8 4.9.6 4.6-1.9-.4-3.1-1.4-5.7-3.1-8.3-1.2-1.8-3.9-1.5-4.6.6-1.1 3.7-.8 6.9.7 10.4 1.1 2.6 5.5.7 4.6-1.9-1-2.9-2.4-5.2-4.5-7.5-1.1-1.3-3.1-.8-3.9.5-1.8 2.7-1.8 5.5-.1 8.3 1.2 2 4.9 1.3 4.7-1.3-.3-3.8-2.7-9.6-7.7-7.1-4.5 2.2-1.5 6.9 1.3 8.8 1.6 1.1 3.8-.4 3.8-2.2 0-3.9-3-9-7.6-6.7-3.7 1.8-2.7 7.2 1.2 7.9 1.7.3 3.9-1.1 3.1-3.1-1.4-3.6-5.3-7.9-9.4-4.5-2.9 2.4-1.5 6.4 1.8 7.5 2.3.7 3.7-1.8 2.8-3.7-1.6-3.5-4.5-5.2-8.3-5.4-1.7-.1-2.8 1.7-2.4 3.2.4 1.5.7 2 1.8 3l3-3.9c-2.2-1.1-4.3-1.9-6.7-2.4-2.3-.5-3.7 1.7-2.8 3.7 1.2 2.6 4.2 3 6.7 3.8l14.1 4.5c9.1 2.9 18.2 5.8 27.2 8.7 2.7.9 4.4-3.2 1.9-4.6-7.3-3.8-14.5-7.7-21.8-11.5-2.8-1.5-5.3 2.7-2.5 4.3 4.8 2.8 9.8 5.1 14.9 7.1 2.6 1 4.5-3.4 1.9-4.6-3.6-1.7-6.9-3.7-10-6.2l-3 3.9c4.2 2.3 8.5 4.2 13.1 5.5 2.5.8 4-2.4 2.4-4.2-2.2-2.5-4.7-4-7.9-4.9-2.4-.6-4.2 2.4-2.4 4.2 1.5 1.5 3.1 3 4.6 4.5 2.3 2.3 5.8-1.3 3.5-3.5-1.5-1.5-3.1-3-4.6-4.5l-2.4 4.2c2.4.6 4.1 1.7 5.7 3.6l2.4-4.2c-4.2-1.2-8.1-2.9-11.9-5-2.4-1.3-5.3 2.1-3 3.9 3.4 2.8 7 5.1 11 7 .6-1.5 1.3-3 1.9-4.6-4.8-1.9-9.3-4.1-13.7-6.6-.8 1.4-1.7 2.9-2.5 4.3 7.3 3.8 14.5 7.7 21.8 11.5.6-1.5 1.3-3 1.9-4.6L33 510.4c-3.8-1.2-7.5-2.4-11.3-3.6-2-.6-10.5-2.1-11.2-3.9-.9 1.2-1.9 2.4-2.8 3.7 2 .5 3.6 1 5.5 1.9 2.5 1.2 5.1-1.8 3-3.9-.2-.3-.3-.6-.5-.8-.8 1.1-1.6 2.1-2.4 3.2 2.1.1 3.4 1 4 2.9.9-1.2 1.9-2.4 2.8-3.7.5 1.1 1 2.2 1.5 3.2l3.1-3.1c0 1.2.1 2.4.1 3.6 1.3-.7 2.5-1.4 3.8-2.2-.4.9-.7 1.7-1.1 2.6 1.6-.4 3.1-.8 4.7-1.3 0-1.1.1-2.1.1-3.2-1.3.2-2.6.3-3.9.5 1.5 1.7 2.4 3.1 3.2 5.3 1.5-.6 3-1.3 4.6-1.9-1-2.4-.9-4.3-.2-6.6-1.5.2-3 .4-4.6.6 1.4 2.3 2.2 4.5 2.6 7.1 1.5-.6 3-1.3 4.6-1.9-1.2-2.6-1-4.9.3-7.4h-4.3c1.1 2.5 1.5 4.5 1.6 7.1 1.6-.4 3.1-.8 4.7-1.3-1.2-2.4-1.2-4.8-.4-7.3-1.5.2-3 .4-4.6.6 2.2 3.1 2.9 6.1 2.4 9.8h5c-.1-1.2.6-12 1.5-11.6-2.1-1-2 4.9-2.1 5.2-.3 1.6-.8 3-1.4 4.5h4.8c-.4-1.2-1.6-10.8.4-10.3.8.2.1 6.6 0 6.8-.3 1.6-.8 3.1-1.4 4.7 1.5-.2 3-.4 4.6-.6-2.7-4.4-1.9-9.6 1.8-13.1-1.3-.2-2.6-.3-3.9-.5 1.4 2.7 2.5 5.6 2.5 8.7 0 1.4 0 3.4-.3 4.7.4 1.5.3 1.4-.3 0-.4-.8-.8-1.7-.9-2.6-.1-.5-.9-3.5-.4-3.9 2.4-2.3 3 1.7 3.2 2.7.9 4.1.5 7.9-.7 11.9h4.8c-.8-2.7-1.4-5.5-1.9-8.3-.2-1-.5-9.5-1.4-9.8-1.1-.3-.1 2.1 0 2.8.3 1.6.4 3.1.4 4.7 0 3.2-.7 6.2-1.7 9.3 1.6.2 3.3.4 4.9.7.3-7.7 2.3-14.9 6-21.6-1.5-.6-3-1.3-4.6-1.9-1.4 5.7-3.3 11-5.9 16.3 1.4.8 2.9 1.7 4.3 2.5 3.4-7 7.2-13.8 11.5-20.3 1.4-2.1-1.3-4.7-3.4-3.4-4.2 2.7-8.4 5.2-13.6 4.7.6 1.4 1.2 2.8 1.8 4.3 4.3-3.9 9-6.6 14.6-8.2-.6-1.5-1.3-3-1.9-4.6-4.9 2.6-9.8 4.9-15 6.9.6 1.5 1.3 3 1.9 4.6 5-2.4 10.1-3.8 15.5-4.4-.6-1.4-1.2-2.8-1.8-4.3-3 3.4-6.5 5.2-11 5.4.4 1.6.8 3.1 1.3 4.7 10.3-5.3 20.5-10.7 30.8-16l-3-3.9c-2.2 1.9-4.4 3.8-6.6 5.8-2.1 1.8.2 4.5 2.4 4.2 2.8-.4 7.2-.8 9.3 1.5 2.6 2.8.1 7.3-.9 10.3-1.8 5.9-.1 10.8 1.6 16.5 4.4 14.2 8.7 28.4 13.1 42.6l3.1-3.1c-3-.9-5-2.4-6.5-5.1l-3.9 3c2.8 2.4 5.6 4.8 8.5 7.1l2.4-4.2c-3.4-.7-5.5-2.4-7-5.5l-3.9 3c2.5 2.8 5.4 4.5 9 5.7.2-1.6.4-3.3.7-4.9-3.3-.4-5.5-2.4-6.9-5.2l-3.9 3 5.3 5.3c2.3 2.2 5.8-1.4 3.5-3.6z" class="st1"/></g></g><g id="XMLID_18_"><g id="XMLID_241_"><path id="XMLID_245_" d="M408.6 501.6c-3.4 7.1-7 14.2-10.7 21.2 1.4.8 2.9 1.7 4.3 2.5 4.5-9.4 8.1-19.2 10.6-29.3.8-3.1-3.9-4.4-4.8-1.3-2.7 9.1-5.7 18-9.2 26.7 1.6.2 3.3.4 4.9.7-.4-3.6.8-7.1 1.7-10.5.9-3.2 1.7-8.8 4.2-11.2-1.3-.2-2.6-.3-3.9-.5 1.7 2.9.7 10.3.6 13.4-.1 4.2-.3 8.4-.7 12.7-.3 3.2 4.7 3.2 5 0 .5-5.5.8-11 .7-16.6 0-3.7.7-8.7-1.3-12.1-.8-1.4-2.8-1.6-3.9-.5-3.1 2.9-3.9 7.7-5 11.7-1.2 4.3-3 9-2.4 13.5.3 2.8 3.8 3.4 4.9.7 3.5-8.8 6.6-17.7 9.2-26.7-1.6-.4-3.2-.9-4.8-1.3-2.4 9.7-5.8 19.1-10.1 28.1-1.4 2.9 2.8 5.4 4.3 2.5 3.7-7 7.3-14.1 10.7-21.2 1.4-2.9-2.9-5.4-4.3-2.5z" class="st1"/></g></g><g id="XMLID_73_"><g id="XMLID_248_"><path id="XMLID_252_" d="M435.9 552.6c-.3.8-.7 1.6-1.1 2.4 1 .1 2 .3 3 .4-.7-1.1-.8-2.1-.2-3.2-1.6-.2-3.3-.4-4.9-.7 0 .5.1 4.8.5 2.1.8-.6.7-1.1-.1-1.4-.6-.4-1-.9-1.4-1.5-.6 1.4-1.2 2.8-1.8 4.3h.2c1.2-.9 2.4-1.9 3.7-2.8-5.7-2.9-10.2-7-13.5-12.4-1.7-2.7-6-.2-4.3 2.5 3.7 6.1 8.9 11 15.2 14.2 1.7.9 4.5-.6 3.7-2.8-.9-2.3-2.4-3.6-5-3.7-2.3-.1-3.1 2.7-1.8 4.3 1.5 1.9 4.3 4.6 7 3.9 3-.8 2.6-4.2 2.6-6.6.1-2.9-4-3.3-4.9-.7-.9 2.6-.9 6.2 1.5 8.1.8.6 2.1 1.1 3 .4 1.8-1.3 2.6-3.3 3.4-5.3 1.2-3.2-3.7-4.5-4.8-1.5z" class="st1"/></g></g><g id="XMLID_76_"><g id="XMLID_255_"><path id="XMLID_259_" d="M302.8 344.6c4.9 4.6 9.4 9.4 13.6 14.6l3.5-3.5c-8.5-7.5-17.5-14.1-27.2-19.9-.8 1.4-1.7 2.9-2.5 4.3 3 1.7 5.8 3.6 8.4 5.8 2.4 2 5.9-1.2 3.5-3.5-6.4-6.3-14.4-10.3-23.2-11.7-2.2-.3-4.6 2.4-2.4 4.2 3.9 3.2 8 6 12.5 8.4 2.9 1.5 5.1-2.5 2.5-4.3-4.2-3-8.7-5.5-13.5-7.5-2.4-1-7.1-3.6-9.5-1.1-6.3 6.3 10.6 10.1 13.7 10.4 1.3.1 2.6-1.2 2.5-2.5-.4-6.4-9.9-8.3-15-8.9-6-.7-9.1 4.2-3.6 8.1 3.1 2.2 11.9 4.9 13.2-.7 1.6-7-10.9-7.1-14.8-6.4-2.6.4-2.1 4.1 0 4.8 4.4 1.5 8.8 2 13.5 1.8 2.1-.1 3.4-2.7 1.8-4.3-3.9-3.8-9.4-3.8-13.4-.2-1.5 1.3-.6 3.6 1.1 4.2 4.3 1.4 8.3.8 12-1.6 1.6-1 1.6-3.3 0-4.3-5.1-3.1-12.1-4.5-17.6-1.7-3.5 1.8-6 7-1.9 9.7 3.7 2.5 8-1.7 6.7-5.6-1.7-5.3-8.7-4.5-12.3-1.9-3 2.1-4.1 7.7.5 8.8 4.6 1.1 6.6-4.9 3.7-7.8-3.4-3.5-11.5-1.9-13.6 2.5-2.2 4.6 2.3 8.2 6.6 7.2 4.1-.9 7.3-6.6 2.6-9.2-5.4-3-14.1 3.1-17.6 6.7-1.8 1.8 0 4.7 2.4 4.2 3-.7 5.6-1.7 8.3-3.1 2.4-1.3 1-4.4-1.3-4.7-9.1-.9-17.7 1.9-24.7 7.9-1.5 1.3-.6 3.6 1.1 4.2 4.8 1.6 8.6-1 12.2-4 1.7-1.4.3-4.4-1.8-4.3-9.6.5-19.3 1.5-26.7 8.2-1.2 1-.9 3.2.5 3.9 3.8 1.9 7.4 1.9 11.1-.1 2.6-1.4.7-5.1-1.9-4.6-3.6.7-7.2 1.4-10.7 2.1.6 1.5 1.3 3 1.9 4.6 4.6-2.4 9.3-3.6 14.5-3.6 3.3 0 3.2-4.7 0-5-13.8-1.2-27.1 6-33.7 18.1-1.1 2 .7 4 2.8 3.7 2.4-.4 3.9-1.6 5.1-3.7-1.5-.6-3-1.3-4.6-1.9-2.5 9.4-5.5 18.6-9 27.6-1.2 3 3.7 4.3 4.8 1.3 3.5-9.1 6.5-18.3 9-27.6.7-2.7-3.2-4.5-4.6-1.9-.7.5-1.4.9-2.1 1.4.9 1.2 1.9 2.4 2.8 3.7 5.9-10.7 17.3-16.7 29.4-15.6v-5c-6.1 0-11.7 1.4-17.1 4.3-2.6 1.4-.7 5.1 1.9 4.6 3.6-.7 7.2-1.4 10.7-2.1-.6-1.5-1.3-3-1.9-4.6-2 1.3-4 1.3-6.1.1.2 1.3.3 2.6.5 3.9 6.4-5.7 15.1-6.2 23.2-6.7-.6-1.4-1.2-2.8-1.8-4.3-2.1 1.7-4.4 3.7-7.4 2.7.4 1.4.7 2.8 1.1 4.2 6-5.1 13.4-7.2 21.1-6.4-.4-1.6-.8-3.1-1.3-4.7-2.3 1.2-4.6 2-7.1 2.6l2.4 4.2c1.9-1.9 3.9-3.5 6.4-4.5.9-.4 2.9-.6 3.6-1 1.1.2 1.4-.1.9-.8-.5-.8-.2-1.1 1.1-1 1.7-.1 3.5-.2 5.2-.4.6-.3 1.2-.5 1.8-.8 2.4-.6 4.9-1.3 7.4-1.7 3.9-.6 7.2.2 10.5 2.2v-4.3c-2.7 1.7-5.2 2-8.2 1 .4 1.4.7 2.8 1.1 4.2 1.9-1.7 4.5-1.6 6.3.2.6-1.4 1.2-2.8 1.8-4.3-4.2.3-8.1-.2-12.1-1.6v4.8c1.7-.4 3.5-.4 5.3-.1 1.2.6 2.3.6 3.5 0-.8-.1-1.5-.1-2.3-.2-1.5-.3-2.9-1-4.1-2-.7 1.3-.4 1.8 1.1 1.5 1.1.1 2.1.3 3.1.6 1.5.4 7.1 1.5 7.2 3.3l2.5-2.5c-.7-.1-9.9-1.6-9.5-2.9l-1.7 1.7c2.5-.8 7.2 2.3 9.4 3.5 3 1.5 5.8 3.3 8.6 5.3.8-1.4 1.7-2.9 2.5-4.3-4.1-2.2-7.9-4.6-11.5-7.6l-2.4 4.2c8.1 1.3 15.1 4.7 21 10.5l3.5-3.5c-3-2.4-6.1-4.6-9.4-6.5-2.8-1.6-5.3 2.7-2.5 4.3 9.3 5.6 18 12 26.2 19.1 2.4 2.2 5.5-1.1 3.5-3.5-4.2-5.2-8.8-10-13.6-14.6-1.8-2.5-5.4 1-3 3.2z" class="st1"/></g></g></g><g id="Layer_2"><g id="XMLID_4_"><g id="XMLID_239_"><path id="XMLID_254_" d="M335.9 414.6c1.7 14.5 5.5 28.6 11.5 42 2.7 6.1 5.8 12.1 10 17.3 4.2 5.3 9.3 9.8 14 14.6 5.3 5.3 9.7 10.8 12.4 17.8 2.5 6.5 4.4 13.2 7.4 19.5 6.4 13.7 15.7 25.8 24.9 37.7 1.9 2.5 6.3 0 4.3-2.5-8.7-11.3-17.4-22.6-23.8-35.4-6.1-12.2-8.2-25.6-17.4-36.2-8.8-10-18.6-17.7-24.8-29.8-7.2-14.1-11.7-29.5-13.6-45.2-.2-2.9-5.2-3-4.9.2z" class="st2"/></g></g><g id="XMLID_5_"><g id="XMLID_172_"><path id="XMLID_225_" d="M382.8 504.9c2.4 18.5 6.8 36.5 13.3 53.9 1.1 3 5.9 1.7 4.8-1.3-6.3-17-10.7-34.6-13.1-52.6-.4-3.1-5.4-3.1-5 0z" class="st2"/></g></g><g id="XMLID_6_"><g id="XMLID_163_"><path id="XMLID_170_" d="M321.6 486.7c3.4 26.9 9.3 53.4 17.6 79.2 1 3.1 5.8 1.7 4.8-1.3-8.1-25.4-14-51.4-17.4-77.8-.4-3.3-5.4-3.3-5-.1z" class="st2"/></g></g><g id="XMLID_7_"><g id="XMLID_150_"><path id="XMLID_161_" d="M262.7 422.2c-8.6 26.3-8.8 54-8 81.4.2 6.9.5 13.7.6 20.6.2 7 .9 14.4-.4 21.3-1.2 6.7-4.2 13.1-6.6 19.5-2.7 7.1-5.4 14.2-8.1 21.2-1.2 3 3.7 4.3 4.8 1.3l7.8-20.4c2.4-6.4 5.4-12.8 6.7-19.4 2.7-12.9.6-27.3.2-40.4-.9-28.2-1.1-56.7 7.7-83.8 1.1-3.1-3.8-4.4-4.7-1.3z" class="st2"/></g></g><g id="XMLID_8_"><g id="XMLID_81_"><path id="XMLID_86_" d="M383 427.7c5.5 9.9 14.8 17.8 22.9 25.5 9 8.6 18.4 16.9 28 24.8 8.6 7.1 17.5 15.2 27.2 20.6 5.2 2.8 11 3.8 16.1 7 4.2 2.6 8 5.3 13 6.1 3.1.5 4.5-4.3 1.3-4.8-5-.8-8.8-3.8-13-6.4-4.7-2.8-10.1-3.6-14.8-6.2-10-5.4-18.9-13.7-27.6-20.9-8.7-7.2-17.1-14.7-25.3-22.4-8.2-7.8-17.9-15.8-23.4-25.8-1.6-2.9-6-.4-4.4 2.5z" class="st1"/></g></g><g id="XMLID_10_"><g id="XMLID_98_"><path id="XMLID_114_" d="M490.9 512.6c4.9 5 16 18.9 8.4 25.7-5.8 5.2-14.9 2.4-20.3 9-2 2.5 1.5 6 3.5 3.5 3.8-4.7 10.4-4.1 15.7-6.2 3.9-1.6 7.1-4.5 8.2-8.7 2.5-9.4-5.9-20.6-12-26.9-2.2-2.3-5.7 1.3-3.5 3.6z" class="st1"/></g></g><g id="XMLID_12_"><g id="XMLID_87_"><path id="XMLID_97_" d="M478.1 550.2c1.4 11.9-18.5 4.1-24.6 3.4-3.4-.4-6.9-.6-10.3.2-3.2.7-6.1 4.2-9 4.3-2.8.1-4.4-2.5-7.6-1.5-3.2 1-6.3 3.6-9 5.6-1.2.9-6.3 6.4-7.6 6.3-1.2-.1-3.6-4.7-5.3-5.4-2.9-1.3-5.5 3-2.5 4.3 2.7 1.1 3.3 4.7 6.1 5.8 3 1.2 5-.9 7.2-2.8 3.3-2.9 9.9-10 14.7-7.9 3.1 1.3 4.7 2.6 7.8.3 2.2-1.7 3.6-3.5 6.6-4.2 2.5-.6 5.5-.3 8.1-.1 5.5.5 10.6 2.4 16.1 3.2 7.3 1 15.4-3.3 14.4-11.6-.5-3.1-5.5-3.1-5.1.1z" class="st1"/></g></g><g id="XMLID_117_"><g id="XMLID_139_"><path id="XMLID_155_" d="M399.2 563.2c-6.1 2.7-10.3 7.5-14.3 12.6-4.8 6.2-9.6 13.2-18.1 14.1-7.4.8-14.8-1.4-22.3.3-6.8 1.6-12.9 5.8-17.3 11.1-2 2.5 1.5 6 3.5 3.5 5.7-6.8 13.3-10.6 22.2-10.4 6.8.2 13.8 1.6 20.3-1 12.5-5 16.1-20.5 28.4-25.9 3.1-1.2.6-5.5-2.4-4.3z" class="st1"/></g></g><g id="XMLID_26_"><g id="XMLID_91_"><path id="XMLID_174_" d="M141.1 406.4c-15.1 24.9-34 47.3-56.1 66.4-2.4 2.1 1.1 5.6 3.5 3.5 22.4-19.3 41.6-42.1 56.9-67.4 1.6-2.7-2.7-5.3-4.3-2.5z" class="st1"/></g></g><g id="XMLID_33_"><g id="XMLID_94_"><path id="XMLID_101_" d="M86.3 470.3c-9.6 6.4-19.8 10-30.8 13.1-4.4 1.2-8.5 2.9-12.2 5.6-4.1 3-7.5 6.9-12.5 8.5-3.1 1-1.8 5.8 1.3 4.8 4.3-1.3 7.6-3.9 11-6.7 4.7-4 9.4-6.2 15.4-7.8 10.8-2.9 20.9-6.9 30.3-13.2 2.7-1.8.2-6.1-2.5-4.3z" class="st1"/></g></g><g id="XMLID_40_"><g id="XMLID_106_"><path id="XMLID_120_" d="M30.4 498c-7.4 3.1-16.2-.7-23.7 2.8-4.8 2.2-2.3 6.1.8 8.7 11.1 9.2 26.7 8.7 39.7 13.6 3 1.1 4.3-3.7 1.3-4.8-6.5-2.5-13.3-3.6-20-5.2-3.4-.8-6.7-1.7-9.9-3-1.8-.7-9.7-4-9.7-6.3-.4.7-.8 1.4-1.2 2.2 7.2-4.5 16.5 0 24.1-3.1 2.8-1.3 1.6-6.2-1.4-4.9z" class="st1"/></g></g><g id="XMLID_47_"><g id="XMLID_138_"><path id="XMLID_159_" d="M47.1 523.1c4.3 1.4 5 8.7 7.9 12 3.1 3.5 7 6.7 10.4 9.9 2.8 2.6 5.9 5 9.8 5.8 1.4.3 2.9.3 4.3.1 3.8-.6 6.6-1.2 10.5-.4 3.1.6 4.5-4.2 1.3-4.8-2.3-.5-4.7-1-7.1-.8-2 .1-3.8.9-5.7 1-6.4.5-10.3-5.6-14.5-9.4-1.4-1.3-3.1-2.5-4.5-3.9-2.3-2.3-3.1-5.1-4.4-8-1.4-3.1-3.4-5.3-6.7-6.3-3-1-4.4 3.8-1.3 4.8z" class="st1"/></g></g><g id="XMLID_54_"><g id="XMLID_115_"><path id="XMLID_146_" d="M88.3 548.7c1.7 11 11.7 16.7 21.8 18.7 7.4 1.4 13.9 1.5 19.7 7 4 3.8 7.3 8 11.9 11.1 10 6.8 22.6 8 34.3 7 7.1-.6 14-2 21-3 7-1.1 14.2-1.7 20.2 2.5 2.6 1.8 5.1-2.5 2.5-4.3-9.4-6.6-21.4-3.5-31.8-1.8-13.1 2.1-27.4 3.8-39.7-2.4-9.5-4.7-14.4-15.7-24.7-18.9-11.3-3.5-28-1.8-30.4-17.3-.5-3.1-5.3-1.7-4.8 1.4z" class="st1"/></g></g><g id="XMLID_19_"><g id="XMLID_121_"><path id="XMLID_131_" d="M220.4 593.5c7.4 1.1 12 7.3 18.5 10.2 7 3 14 .9 20.4-2.5 3.4-1.8 6.6-4 10-5.9 2.2-1.2 4.4-2.4 6.8-3.1 1.3-.4 2.7-.7 4.1-.8 1.1-.3 1.4-.2.7.3 1.5 2.8.6 7.5 1.9 10.6.9 2.1 2.3 3.6 4.5 4.5 3.5 1.5 7.8 1 11.6 1.4 4.4.5 8.8 1 13.2 1.3 4.5.3 18.2 2.2 18.5-5.2.1-3.2-4.9-3.2-5 0 0-.7-2 .1-3.1.2-1.8.2-3.6.2-5.3.1-4.1-.1-8.2-.4-12.3-.9-2.7-.3-5.4-.7-8.1-.9-2.2-.2-5.4.3-7.4-.8-3.5-1.8-2.8-8.4-3.4-11.7-2.2-11-21.5 2.1-26.1 4.8-7.8 4.6-15.1 6.9-23.1 1.5-4.8-3.3-9-7.1-15-8-3.2-.4-4.6 4.4-1.4 4.9z" class="st1"/></g></g><g id="XMLID_68_"><g id="XMLID_142_"><path id="XMLID_148_" d="M202.2 398.9c-10.9 25.5-29.5 47.9-45.7 70.2-8.2 11.2-16.3 22.4-24 33.9-3.8 5.6-7.4 11.3-10.9 17.1-3.4 5.5-6.8 12.1-13.6 13.6-3.1.7-1.8 5.5 1.3 4.8 11.5-2.5 16.8-16.4 22.5-25.3 8.2-12.7 16.9-25 25.8-37.2 8.7-12 17.5-23.8 26-36 8.6-12.3 17.1-24.8 23-38.7 1.2-2.8-3.1-5.3-4.4-2.4z" class="st2"/></g></g><g id="XMLID_75_"><g id="XMLID_134_"><path id="XMLID_140_" d="M121.5 459.9c-5.5 4.5-10.9 9-16.1 13.9-4.8 4.6-9 9.8-13.8 14.4-2.5 2.4-5.1 4.7-8.1 6.3-3.5 2-6.8 1.9-10.6 2.4-6.3 1-11.9 4.2-17.3 7.4-2.8 1.6-.3 6 2.5 4.3 3.4-2 6.7-4.1 10.4-5.5 3.7-1.4 7.3-1.3 11.1-2 5.5-.9 10.3-4.7 14.3-8.4 5.1-4.7 9.4-10.1 14.4-14.9 5.3-5.1 11-9.8 16.7-14.5 2.5-1.9-1-5.4-3.5-3.4z" class="st2"/></g></g><g id="XMLID_82_"><g id="XMLID_126_"><path id="XMLID_130_" d="M208.6 481.2c-4.4 10.6-8.9 21.2-14.7 31.1-5.7 9.6-12.4 18.4-17.7 28.3-5 9.4-8.2 19.8-13.7 28.8-2.7 4.5-11.8 15.6-7.5 21 .9 1.1 2.6.8 3.5 0 .1-.1.2-.2.3-.2 1.1-.9.8-2.6 0-3.5l-.2-.2c-2-2.5-5.5 1-3.5 3.5l.2.2v-3.5c-.1.1-.2.2-.3.2h3.5c.3.4 2.3-4.8 2.5-5.3 1.1-2.2 2.4-4.2 3.6-6.2 2.6-4.1 4.9-8.2 6.8-12.6 4-9.5 8.2-18.7 13.5-27.5 5.1-8.5 11.1-16.4 15.8-25.1 4.8-8.9 8.7-18.3 12.6-27.6 1.4-3-3.4-4.3-4.7-1.4z" class="st2"/></g></g><g id="XMLID_89_"><g id="XMLID_53_"><path id="XMLID_111_" d="M207 485.2c-3.1 9.6-6.2 19.1-10 28.5-3.6 8.7-8 17-11.7 25.6-3.5 8-5.9 16-7.6 24.5-.9 4.7-2.4 8.9-4 13.4-1.2 3.5-1.8 6.7-.7 10.2.9 3.1 5.8 1.8 4.8-1.3-1.4-4.5 1.3-8.7 2.7-12.9 1.5-4.4 2-9 3-13.5 1.9-8.5 5.3-16.5 9-24.4 7.5-16 13.8-32 19.2-48.8 1.1-3.1-3.7-4.4-4.7-1.3z" class="st2"/></g></g><g id="XMLID_103_"><g id="XMLID_45_"><path id="XMLID_51_" d="M255.1 548.1c-5.9 15.6-2.8 32.2.3 48 .6 3.2 5.4 1.8 4.8-1.3-2.9-15-5.9-30.6-.3-45.4 1.2-2.9-3.6-4.2-4.8-1.3z" class="st2"/></g></g><g id="XMLID_110_"><g id="XMLID_37_"><path id="XMLID_43_" d="M426.1 479.5c10.6 10.3 21.2 20.6 31.8 31 10.5 10.3 18.8 21.2 20.5 36.2.4 3.2 5.4 3.2 5 0-1.6-14.2-8.3-25.7-18.2-35.9-11.6-11.9-23.7-23.3-35.6-34.8-2.3-2.2-5.9 1.3-3.5 3.5z" class="st2"/></g></g><g id="XMLID_62_"><path id="XMLID_267_" d="M297.1 294.6c1.3-1.8 3.1-3.2 5.2-4 2.2-.8 4.6-1 6.5-2.3 1.9-1.3 3-3.9 1.8-5.8-.9-1.4-2.8-2-4.4-1.6-1.6.4-3 1.5-4 2.8-2.7 3.3-3.6 7.7-5.1 11.6-.3.7-.6 1.4-1.1 1.9" class="st3"/><g id="XMLID_189_"><path id="XMLID_232_" d="M298.9 296.4c1.9-2.4 4-3.4 7-4.3 1.9-.6 3.9-1.2 5.4-2.6 2.8-2.7 3.3-7.3.1-9.9-3.6-2.8-8.3-.9-11 2.2-1.4 1.7-2.4 3.6-3.3 5.7-1 2.4-1.4 6-3 7.9-2 2.5 1.5 6 3.5 3.5 1.7-2 2.3-4.6 3.2-7.1.8-2.4 2.8-8.7 6.2-8.6 2.5.1 1 2.7-.3 3.4-1.4.7-3.1.9-4.6 1.4-2.7 1-5 2.6-6.8 4.8-1.9 2.5 1.6 6.1 3.6 3.6z" class="st3"/></g></g><g id="XMLID_77_"><path id="XMLID_266_" d="M237.7 278.8c-6 .1-11.8 3.7-14.6 9-.9 1.7-1.6 3.7-3.2 4.7-.7.4-1.7.6-2.5.1-.3-.2-.6-.6-.8-1-1.7-2.8-1.9-6.4-1.1-9.6.8-3.2 2.6-6.1 4.7-8.6.7-.9 1.5-1.8 2.6-2.3 2.3-1.1 5-.1 7.4.8 3.5 1.4 7 2.9 10 5.2" class="st3"/><g id="XMLID_261_"><path id="XMLID_265_" d="M237.7 276.3c-3.7.2-7.2 1.2-10.3 3.2-3.4 2.3-4.5 5.4-7 8.3-.8.9-1.3 1.9-2.5.1-.7-1.1-.2-4 .1-5.2.6-2.5 2.4-6.3 4.4-8 4.5-3.6 12.6 1.8 16.6 4.6 2.6 1.9 5.1-2.5 2.5-4.3-4.6-3.3-13.4-8.7-19.3-6.3-5.4 2.2-9.1 10.3-9.5 15.8-.3 4.4 1.9 13.4 8.2 10.2 2.8-1.4 3.5-4.5 5.1-6.9 2.6-4 7-6.3 11.7-6.5 3.2-.2 3.2-5.2 0-5z" class="st3"/></g></g><g id="XMLID_3_"><g id="XMLID_175_"><path id="XMLID_179_" d="M385.9 424.6c-16.6-18.9-33.1-37.9-49.7-56.8-13.2-15-27.1-30.5-45.9-38.5-9.2-3.9-19.4-6-29.4-5-10.8 1.2-19.7 7.3-30 9.9-5.2 1.3-10.5 1.9-15.5 3.9-4.7 1.8-9 4.4-13 7.4-7.8 5.8-14.2 13.2-20.3 20.8-7.3 9.1-14.3 18.6-23.5 26-6.8 5.5-17.2 8.9-18.4 18.8-.4 3.2 4.6 3.2 5 0 .5-4.6 5.2-7.2 8.7-9.5 3.5-2.3 6.9-4.6 10.1-7.4 7.2-6.2 13.1-13.7 18.9-21.1 5.8-7.2 11.6-14.5 18.6-20.6 8-6.9 16.6-10.5 26.8-12.6 9.9-2 18.4-7.5 28.2-9.7 9.7-2.2 19.9-.7 29.2 2.8 19 7.2 33.1 22.8 46.2 37.8 16.8 19.1 33.5 38.3 50.2 57.4 2.4 2.4 5.9-1.2 3.8-3.6z" class="st1"/></g></g></g><g id="Layer_3"><g id="XMLID_13_"><path id="XMLID_199_" d="M277.7 308.9c.5.2 1-.1 1.4-.5.3-.4.5-.9.6-1.4.1-.2.1-.6-.2-.6h-.2c-1.2.4-1.5 2-2.3 2.9-.5.6-1.3 1-2 1.3-2.6 1.1-5.5 1.3-8.3 1.5-2.6.1-5.3.1-7.8-.5s-5-1.8-6.7-3.8c2.1 1.5 4 3.2 6.1 4.7s4.5 2.7 7 2.9c2 .2 4.1-.3 6-1.1 1.9-.8 3.6-1.9 5.3-3 .6-.4 1.2-.8 1.6-1.4s.7-1.3.4-2l.1-1.8c-3.3-8.6-6.6-17.8-4.6-26.7 2.2-10 10.8-17.6 20.4-21.2 9.6-3.6 20.1-3.7 30.3-3.2 6.9.3 15.6-.2 18.4-6.5 2.5-5.7-2-12.1-7.2-15.6-6.7-4.5-14.8-6.6-21.8-10.6-7-4.1-13.2-11.5-11.9-19.5 1.1-6.5 7-11.3 13.3-13.3 6.3-2 13-1.6 19.6-1.6 29.8.2 60.5-6 85-23 6.2-4.3 12.1-9.4 15.3-16.2 3.3-6.8 3.5-15.4-1.1-21.4-4.4-5.7-12.1-7.7-19.2-8.9-19.9-3.2-40.3-2.8-60.4-.9-13.3 1.2-26.7 3-39.3 7.4-18.6 6.4-34.9 18.1-53.1 25.7-9.7 4-19.9 6.9-30.3 8.4-5.3.8-10.8 1.3-15.8 3.1-5.1 1.9-9.8 5.5-11.6 10.5-1.8 5.1.4 11.7 5.4 13.5l-.3-.4c8.4 6.6 18.3 10.7 28.1 15 21.8 9.5 43.1 19.8 64 31 1.7.9 3.6 2.4 3.2 4.2-.4 1.7-2.6 2.2-4.3 2.3-10.4.7-20.8-.6-31.2-1.1-10.4-.5-21.2-.1-30.8 4-1.1.5-2.3 1-3 2.1-1.4 2.1-.3 4.9 1 7.1 3 4.7 7 8.8 11.7 11.8 2.9 1.8 6 3.3 8.7 5.3 2.7 2 5.1 4.8 5.7 8.2.8 4.4-1.7 8.8-5.2 11.6-1.8 1.4-3.9 2.5-5.4 4.3-3.8 4.4-2.5 11-1 16.6" class="st4"/><g id="XMLID_194_"><path id="XMLID_198_" d="M277.7 311.4c4.4 0 6.5-7.8 1.5-7.4-.8.1-1.5.6-2.1 1.1-2 1.7-3.1 3.4-6 4.1-5.5 1.4-13 1-17.1-3.1l-3 3.9c3.8 2.9 7.4 6.4 12.2 7.6 4.8 1.2 9.5-.8 13.5-3.3 8.6-5.4 2.5-13.3.6-21.2-3.1-13.3 2.5-24.8 14.7-31 11.1-5.6 23.5-4.6 35.5-4.6 7.3 0 16.6-1.5 18.7-9.8 2.3-9-6.3-16.1-13.3-19.7-9.7-5-27.3-8.8-28.2-22.4-1-14.7 18.8-15.4 28.7-15.3 22.8.2 45.8-2.9 66.9-11.8 16.6-7 41.5-20.4 40.1-41.7-1.5-23.1-33.7-22.8-50.5-23.3-12.9-.3-25.9.4-38.8 1.7-12.3 1.2-24.6 3.1-36.3 7.1-12.6 4.4-24.2 11.1-36 17.3-12.8 6.8-25.9 12.5-40.1 15.4-11.2 2.3-25.2 1.7-33.3 11.2-5.6 6.7-5.2 17.9 3.4 21.9 2 .9 5-1.2 3.4-3.4-.1-.1-.2-.3-.3-.4l-3.4 3.4c14.5 11.1 32.8 16.8 49.1 24.5 9 4.2 17.9 8.6 26.8 13.1 4 2 8 4.1 12 6.2.4.2 5.8 2.6 5.7 3.2-.1 1.6-7.4 1.1-8.2 1.1-17.7-.1-36.2-4.3-53.4 1.8-5.8 2.1-9.8 5.5-6.8 12.1 3.2 7 10 12.3 16.4 16.1 4.2 2.4 10.2 5.5 10.4 11.1.1 5.6-5 8.1-8.6 11.2-6.1 5.3-4.9 13.4-3.1 20.5.8 3.1 5.6 1.8 4.8-1.3-1-4-2.3-8.6-.5-12.6 1.7-3.7 6.4-5.4 8.9-8.6 4.1-5.2 4.6-11.8.5-17.1-5.2-6.7-14.2-9-19.9-15.3-1.5-1.7-3.6-3.8-4.2-5.9-1.2-3.8 1.4-4.6 4.3-5.5 5-1.7 10.3-2.4 15.5-2.7 9.7-.5 19.3.7 28.9 1.2 4.7.2 9.5.5 14.2-.1 2.2-.3 4.5-.9 5.7-3 3.3-6.1-6.9-9.7-10.6-11.7-8.8-4.6-17.7-9.1-26.6-13.4-10.1-4.9-20.3-9.5-30.6-14-9.8-4.3-19.6-8.5-28.1-15-2-1.5-4.8 1.5-3.4 3.4.1.1.2.3.3.4l3.4-3.4c-5-2.3-6-8.3-3.3-12.8 3.1-5.2 9.3-7.3 14.9-8.4 10.9-2.2 21.7-3.3 32.3-6.9 20.8-7.1 38.6-20.5 59.2-28 21.2-7.7 45.2-9.2 67.6-9.4 12-.1 24.2.5 36 2.9 4.4.9 9.2 2.3 12.6 5.5 4.7 4.3 5.6 10.9 4 16.8-2.8 10.4-12.7 17.3-21.4 22.6-8.9 5.4-18.6 9.5-28.6 12.5-10.1 3-20.5 4.9-30.9 5.8-10.4.9-20.9 0-31.2 1-8.1.8-16.5 3.9-20.8 11.3-4.1 7.2-1.8 15.3 3.4 21.2 6.6 7.5 16.5 9.8 25 14.2 4.4 2.2 9.5 5.5 10.8 10.7 1.6 6.6-4.7 8.9-9.9 9.4-11.1 1-22-.9-33 2-9.1 2.4-17.7 7.7-22.8 15.7-5.8 9.1-4.7 19.8-1.5 29.6.7 2.1 2.8 5.5 2.3 7.6-.4 2-3.1 3.2-4.8 4.1-7.5 3.6-12.4-1.6-18-5.8-2.3-1.7-5 2-3 3.9 4.4 4.5 10.2 5.3 16.3 5 3-.1 6.2-.4 8.9-1.5.8-.3 1.5-.7 2.2-1.2.4-.3 2.3-3.1 2.3-3.1l-2.4-.6c0-.6-.1-1.2-.1-1.8-3 .2-3 5.2.2 5.1z" class="st4"/></g></g></g><g id="Layer_5"><g id="XMLID_41_"><g id="XMLID_48_"><path id="XMLID_167_" d="M352.1 372.6c-13.2-18-27.5-35.5-37.7-55.3l34.2 65.8c9.8 14.9 19.5 29.8 29.3 44.6 1.3 2 3.1 4.2 5.4 3.8-5.6-21.7-18-40.9-31.2-58.9z" class="st3"/><g id="XMLID_63_"><path id="XMLID_166_" d="M354.2 371.3c-13.2-18-27.4-35.4-37.7-55.3-1.5-2.9-5.8-.3-4.3 2.5 5.9 11.4 11.9 22.8 17.8 34.2 6.4 12.2 12.1 25 19.7 36.5 6 9.1 11.9 18.2 17.9 27.3 2.8 4.3 5.5 8.8 8.6 13 1.9 2.6 3.8 4.3 7.1 4.4 1.6.1 2.8-1.7 2.4-3.2-5.9-21.9-18.2-41.2-31.5-59.4-1.9-2.6-6.2-.1-4.3 2.5 13.1 17.9 25.2 36.7 31 58.3.8-1.1 1.6-2.1 2.4-3.2-3.4-.2-6.4-7.4-8.1-10-2.7-4.1-5.4-8.3-8.1-12.4-4.9-7.4-9.8-14.9-14.7-22.3-2.4-3.7-4.3-7.6-6.3-11.5-7.7-14.8-15.4-29.7-23.1-44.5-2.1-4.1-4.3-8.2-6.4-12.3-1.4.8-2.9 1.7-4.3 2.5 10.4 19.9 24.5 37.3 37.7 55.3 1.8 2.7 6.1.2 4.2-2.4z" class="st3"/></g></g><g id="XMLID_55_"><path id="XMLID_58_" d="M313.5 316.6c-1.9-3.1-4-6.4-7-8.5-3-2.2-7.3-3-10.4-1-1 .6-1.8 1.5-2.8 2-3.6 1.9-7.8-.8-11.4-2.7-7.2-3.6-15.9-3.9-23.3-.7-2.6 1.1-5.4 2.6-8 1.6-2.8-1.1-4.2-4.6-7.1-5.3-2.4-.5-4.6 1.2-6.5 2.7-8.3 7-16.6 14.1-23.6 22.4-4.3 5.1-8.1 10.7-12.6 15.6-9.3 10.3-21.4 17.6-31.1 27.5-8.3 8.4-14.7 18.3-21 28.2-.7 1.1-1.4 2.3-1.7 3.6-.8 4.6 5.2 7.7 9.7 6.4s7.7-4.9 11.4-7.7c4.3-3.2 10.2-6.6 10.8-11.5.1 1.6.3 3.2 1.1 4.7 1.1 2 3.6 3.4 5.7 2.5 1.5-.7 2.3-2.3 3.1-3.7 5.2-8.8 16.1-13.3 20.6-22.5 2.1-4.2 2.9-9.4 6.8-12.1 2.3 2.3 2.3 6.1 1.5 9.2-.8 3.1-2.4 6.1-2.8 9.3-.1.8-.1 1.7.3 2.5 1.1 1.9 4 1.3 5.8.1 1.8-1.2 3.8-2.8 5.9-2.1-4.8 30.2-19 58.6-21.1 89.1-.1 2.1.1 4.7 2.1 5.4 1.8.6 3.5-.9 4.6-2.4 3.7-4.9 5.8-10.8 7.8-16.6 5.3-15.1 10.6-30.3 15.9-45.4-.8 7.5-.3 15.2 1.4 22.6.4 1.8 1.2 3.9 3 4.2 1.8.3 3.2-1.3 4.2-2.8 15.6-23.6 14.4-54.2 22.1-81.4 2.2 6 4.3 12 6.5 17.9 2.2-4.3 4.3-8.5 6.5-12.8 2.2 7 5.8 13.5 10.6 19 1-3.1 1.4-6.3 1.2-9.5 3 16.5 7.6 32.7 13.7 48.2l4.8-21c9.9 7.8 8.9 25.1 19.9 31.3 1.5-11.5-.6-23.5-5.8-33.8-3.1-6.1-7.4-12.1-7-18.9.1-1.6.6-3.5 2-4.3 2.6-1.6 5.7 1 7.5 3.4 5.2 6.9 9.8 14.3 13.5 22.1 1 2.1 2.4 4.5 4.7 4.6 2 0 3.6-2 3.8-4 .2-2-.7-4-1.5-5.8l-33.8-69.6z" class="st3"/><g id="XMLID_23_"><path id="XMLID_57_" d="M315.6 315.3c-3.9-6.2-9.9-13.9-18.3-11.5-1.5.4-2.6 1.4-3.9 2.1-3.6 1.9-5.5.6-8.9-1-4.3-2.1-8.6-3.6-13.4-3.9-4.2-.3-8.5.5-12.5 1.9-3.4 1.3-6.1 2.5-9.3.2-1.4-1-2.3-2.4-4-3.2-3.3-1.4-6.3 0-8.9 2-4.5 3.4-8.7 7.3-12.8 11-8.4 7.7-14.9 16.5-22.2 25.1-6.7 8.1-15.1 14.4-23.2 21-7.9 6.5-14.9 13.6-20.9 21.8-3.1 4.3-6.1 8.7-8.9 13.2-2 3-4.6 6.2-3.8 10.1 1.7 8 12 7.8 17.4 4.3 4.1-2.6 8-6.1 11.9-9.1 3.4-2.6 6.4-5.4 7.3-9.7-1.6-.2-3.3-.4-4.9-.7.4 4.5 2.5 10 8 9.9 5.2-.1 7.8-7.6 10.9-10.7 4.3-4.3 9.4-7.7 13.2-12.5 3.9-4.9 4.6-12.2 9.4-16.2h-3.5c5 6.4-5.2 14.1-1.4 20.5 3.6 6.1 9.6-1.1 13.8-.8-.8-1.1-1.6-2.1-2.4-3.2-2.7 16-7.7 31.5-12.3 47-2.3 7.8-4.5 15.6-6.1 23.5-1.4 6.6-3.7 15.1-2.6 21.9.7 4.1 4.3 6.8 8.3 4.5 5.3-3.1 7.9-11.5 9.9-16.9 5.9-16.1 11.4-32.4 17.1-48.5-1.6-.2-3.3-.4-4.9-.7-.6 6.2-.4 12.4.6 18.6.5 3.4 1 8.6 4.7 10.2 8 3.4 13.5-13.4 15.5-18.5 8.4-21.4 8.7-45 14.8-67.1h-4.8c2.2 6 4.3 12 6.5 17.9.7 1.9 3.5 2.7 4.6.6 2.2-4.3 4.3-8.5 6.5-12.8-1.5-.2-3-.4-4.6-.6 2.5 7.5 6.2 14.1 11.3 20.1 1.3 1.5 3.7.6 4.2-1.1 1-3.4 1.4-6.7 1.3-10.2-1.6.2-3.3.4-4.9.7 3 16.5 7.6 32.6 13.7 48.2.8 2.1 4.2 2.6 4.8 0l4.8-21c-1.4.4-2.8.7-4.2 1.1 10 8.5 8.7 24.5 20.4 31.7 1.8 1.1 3.6-.4 3.8-2.2 1.2-10.7-.2-21.4-4.4-31.4-1.8-4.2-4.3-8.1-6.2-12.2-.9-2-2.9-6.2-2.2-8.4 2-5.8 6.5 1.8 7.9 3.7 3 4.3 5.7 8.7 8.1 13.3 1.7 3.2 3 7.8 6.4 9.6 7.3 3.9 10-5.6 8.1-10.8-2.2-6.1-5.7-12-8.6-17.9-5.2-10.8-10.5-21.5-15.7-32.3-3.6-6.6-7.1-13.6-10.5-20.6-1.4-2.9-5.7-.4-4.3 2.5l23.7 48.6c3.3 6.7 6.8 13.4 9.8 20.2.1.1.1.3.2.4l.9 2.3c-.6 6.9-2.7 1.8-3.3 1.1-3.1-4.1-5-9.7-7.8-14.1-3-4.7-9-16.4-16.3-13.1-8.4 3.8-1.5 17.5 1.3 22.7 6.3 11.6 9.2 23.6 7.7 36.8 1.3-.7 2.5-1.4 3.8-2.2-10.8-6.6-9.8-22.7-19.4-30.9-1.3-1.1-3.7-.9-4.2 1.1l-4.8 21h4.8c-6.1-15.6-10.7-31.7-13.7-48.2-.5-2.8-5-2.1-4.9.7.1 3.1-.3 5.9-1.1 8.9 1.4-.4 2.8-.7 4.2-1.1-4.5-5.3-7.8-11.3-10-17.9-.6-1.9-3.5-2.6-4.6-.6-2.2 4.3-4.3 8.5-6.5 12.8 1.5.2 3 .4 4.6.6-2.2-6-4.3-12-6.5-17.9-.8-2.2-4.1-2.5-4.8 0-4.7 17-6.1 34.6-10.1 51.6-2.1 8.7-4.8 17.2-9.2 25-.8 1.4-2.4 5.9-4.9 4.5-1-.6-1.4-7.1-1.5-7.9-.6-5-.5-10.1-.1-15.1.3-3-4-3.2-4.9-.7-4.7 13.3-9.3 26.6-14 39.9-2.1 6-4 12.3-7.2 17.9-.4.6-2 4-2.8 4.1-2.3.2-1.4-3.1-1.4-4 .3-3.6.8-7.3 1.4-10.9 4.4-25.8 15.2-50 19.4-75.8.3-1.7-.7-3-2.4-3.2-3.3-.3-4.3 1.6-7.1 2.4-1.1 1.1-1.7 1-1.8-.3-.5-.8-.4-1.7.1-2.6.3-1.5 1.1-3.1 1.6-4.6 1.5-4.8 1.5-9.2-1.7-13.2-.9-1.1-2.6-.8-3.5 0-3 2.5-4.3 5.7-5.7 9.3-1.8 4.6-4.3 8.1-7.9 11.5-2.9 2.7-6.1 5.2-9 8-1.3 1.3-2.5 2.7-3.6 4.1-.6.8-1.1 2.3-1.9 2.8-.4 1-1.2 1.1-2.4.2-2.1.3-3-.6-2.5-2.9-.2-2.6-4.3-3.6-4.9-.7-.8 3.9-4.3 6.2-7.4 8.4-2.6 1.9-5 4-7.6 6-2.5 2-9.7 6-11.8 1-1.3-3 4.8-10 6.4-12.3 4.8-7.2 9.8-14.1 16-20.2 6-5.9 12.7-10.9 19.1-16.2 13-10.8 21.7-25.1 33.9-36.7 3.1-2.9 6.3-5.7 9.5-8.4 1.6-1.4 3.2-3.2 5.1-4.2 3.1-1.7 5.1.4 7.5 2.3 5.7 4.5 11.4-.5 17.4-1.6 5-1 10.2-.4 14.9 1.6 3.4 1.4 6.6 3.8 10.3 4.1 4 .3 5.5-2.3 8.9-3.3 6-1.7 10 4.7 12.7 9 1.7 2.6 6 .1 4.3-2.6z" class="st3"/></g></g></g></g></svg>