<?xml version="1.0" encoding="UTF-8" standalone="no"?>
<svg
   xmlns:dc="http://purl.org/dc/elements/1.1/"
   xmlns:cc="http://creativecommons.org/ns#"
   xmlns:rdf="http://www.w3.org/1999/02/22-rdf-syntax-ns#"
   xmlns:svg="http://www.w3.org/2000/svg"
   xmlns="http://www.w3.org/2000/svg"
   xmlns:sodipodi="http://sodipodi.sourceforge.net/DTD/sodipodi-0.dtd"
   xmlns:inkscape="http://www.inkscape.org/namespaces/inkscape"
   id="Layer_1"
   x="0"
   y="0"
   version="1.1"
   viewBox="0 0 426.79279 325.08786"
   xml:space="preserve"
   sodipodi:docname="ch4.svg"
   width="426.79279"
   height="325.08786"
   inkscape:version="1.0.1 (3bc2e813f5, 2020-09-07)"><metadata
     id="metadata19"><rdf:RDF><cc:Work
         rdf:about=""><dc:format>image/svg+xml</dc:format><dc:type
           rdf:resource="http://purl.org/dc/dcmitype/StillImage" /></cc:Work></rdf:RDF></metadata><sodipodi:namedview
     pagecolor="#ffffff"
     bordercolor="#666666"
     borderopacity="1"
     objecttolerance="10"
     gridtolerance="10"
     guidetolerance="10"
     inkscape:pageopacity="0"
     inkscape:pageshadow="2"
     inkscape:window-width="1517"
     inkscape:window-height="1080"
     id="namedview17"
     showgrid="false"
     inkscape:zoom="1.766"
     inkscape:cx="223.97"
     inkscape:cy="152.25633"
     inkscape:window-x="1940"
     inkscape:window-y="36"
     inkscape:window-maximized="0"
     inkscape:current-layer="Layer_1" /><defs
     id="defs2" /><style
     id="style4">.st0{fill:#0c592e}</style><path
     d="m 58.630005,82.556329 c -2.71,-27.24 14.06,-52.98 40.85,-59.92 29.489995,-7.63 52.879995,11.12 72.849995,30.32 2.23,2.14 6.3,2.47 8.49,0 18.03,-20.46 42.4,-36.56 69.83,-40.39 24.97,-3.4899998 50.2,5.15 67.27,23.82 9.13,9.99 15.13,22.68 15.93,36.27 0.21,3.48 3.73,7.33 7.6,5.79 31.02,-12.43 60.21,11.85 69.45,40.570001 9.6,29.86 1.22,63.38 -21.68,84.84 -11.88,11.13 -26.74,18.36 -42.72,21.24 -4.23,0.76 -4.96,5.61 -3.59,8.81 6.08,14.2 -2.71,30.35 -12.5,40.48 -11.79,12.21 -27.65,20.37 -43.3,26.48 -17.2,6.71 -35.48,12.29 -54.11,12.22 -15.83,-0.06 -30.99,-4.87 -44.49,-13.04 -14.87,-9 -27.38,-21.62 -37.24,-35.87 -2.61,-3.77 -7.78,-3.94 -10.36,0 -9.24,14.09 -29.17,17.46 -44.759995,17.26 -18.03,-0.23 -35.96,-6.13 -50.42,-16.96 -25.19,-18.88 -39.7500004,-52.58 -31.44,-83.57 4.09,-15.26 13.69,-29.78 28.76,-35.94 3.8,-1.55 6.42,-6.75 2.65,-10.03 -8.43,-7.32 -15.03,-18.54 -12.67,-30.09 2.03,-9.920001 12.21,-18.630001 22.6,-16.320001 7.52,1.67 10.74,-9.9 3.19,-11.57 -15.9,-3.52 -31.57,6.87 -36.62,22.01 -5.38,16.100001 2.82,33.880001 15.01,44.470001 0.88,-3.34 1.77,-6.69 2.65,-10.03 -33.9500004,13.86 -46.0900004,54.91 -36.8900004,88.31 11.0200004,40.03 46.8800004,68.78 88.1700004,71.53 21.579995,1.44 47.499995,-3.75 60.129995,-23.01 h -10.36 c 20.2,29.16 50.94,52.72 87.43,54.71 21.21,1.15 42.38,-4.86 61.95,-12.51 18.01,-7.04 36.35,-16.27 49.65,-30.68 13.45,-14.58 21.51,-34.75 13.32,-53.9 -1.2,2.94 -2.39,5.88 -3.59,8.81 33.84,-6.1 62.58,-31.16 72.88,-64.01 10.41,-33.23 1.69,-73.960001 -26.45,-96.010001 -16.17,-12.68 -38.42,-17.55 -57.85,-9.77 2.53,1.93 5.06,3.86 7.6,5.79 -1.68,-28.32 -20.96,-52.52 -46.2,-64.4199998 -27.58,-12.99 -58.82,-9.77 -85.63,3.6299998 -15.87,7.93 -29.99,19.32 -41.69,32.6 h 8.49 c -11.68,-11.24 -24.04,-22.6 -38.98,-29.33 -14.84,-6.6899998 -31.34,-8.1499998 -47.049995,-3.67 -30.79,8.78 -51.33,39.23 -48.16,71.08 0.75,7.61 12.76,7.69 12,0 z"
     class="st0"
     id="path6" /><path
     d="m 163.87,133.33633 c 2,-13.12 -5.51,-28.23 -20.41,-28.08 -14.42,0.15 -27,11.94 -32.8,24.34 -7.11,15.23 -6.95,32.84 -4.37,49.14 2.32,14.65 9.59,29.62 24,35.59 18.27,7.58 35.93,-4.63 47.12,-18.33 4.85,-5.93 -3.59,-14.47 -8.49,-8.49 -8.47,10.37 -22.61,22.78 -36.64,14.48 -12.66,-7.5 -14.89,-24.49 -15.48,-37.81 -0.63,-14.22 1.43,-29.64 12.2,-39.95 4,-3.83 11.42,-8.67 17.25,-6.56 4.67,1.69 6.72,7.95 6.02,12.47 -1.12,7.57 10.44,10.82 11.6,3.2 z m 32.79,-30.35 c -4.35,31.1 -2.26,62.54 6.66,92.69 2.19,7.39 13.77,4.24 11.57,-3.19 -8.27,-27.94 -10.71,-57.41 -6.66,-86.31 0.45,-3.23 -0.79,-6.400001 -4.19,-7.380001 -2.8,-0.81 -6.94,0.98 -7.38,4.190001 z"
     class="st0"
     id="path8" /><path
     d="m 206.31,170.31633 c 18.06,-2.04 36.12,-4.08 54.18,-6.13 7.59,-0.86 7.67,-12.87 0,-12 -18.06,2.04 -36.12,4.08 -54.18,6.13 -7.59,0.86 -7.67,12.87 0,12 z"
     class="st0"
     id="path10" /><path
     d="m 267.38,100.10633 c 0.06,-0.860001 0.11,-1.710001 0.17,-2.570001 h -12 c 1.18,34.020001 0.75,68.060001 -1.28,102.040001 -0.46,7.71 11.54,7.69 12,0 2.03,-33.98 2.46,-68.02 1.28,-102.040001 -0.27,-7.77 -11.5,-7.68 -12,0 -0.06,0.86 -0.11,1.71 -0.17,2.570001 -0.5,7.71 11.51,7.68 12,0 z m 16.47,76.37 c -1.03,5.36 -2.23,10.73 -3.08,16.12 -0.67,4.21 -0.31,8.94 3.84,11.3 4.02,2.29 9.59,0.32 13.82,-0.35 6.15,-0.97 12.29,-1.95 18.44,-2.92 7.61,-1.2 4.38,-12.77 -3.19,-11.57 -3.56,0.56 -7.12,1.13 -10.67,1.69 -3.29,0.52 -7.58,0.49 -10.67,1.69 -0.65,0.1 -1.29,0.2 -1.94,0.31 1.26,3.13 1.97,3.8 2.15,1.99 0.67,-0.94 0.61,-3.12 0.84,-4.33 0.69,-3.58 1.37,-7.16 2.06,-10.74 1.41,-7.55 -10.15,-10.78 -11.6,-3.19 z"
     class="st0"
     id="path12" /><path
     d="m 307.96,168.03633 c -2.59,17.57 -4.15,35.23 -4.52,52.98 -0.16,7.73 11.84,7.72 12,0 0.35,-16.67 1.66,-33.3 4.09,-49.79 1.12,-7.55 -10.44,-10.81 -11.57,-3.19 z"
     class="st0"
     id="path14" /></svg>
