<svg id="svg" version="1.1" xmlns="http://www.w3.org/2000/svg" xmlns:xlink="http://www.w3.org/1999/xlink" width="400" height="300.1465559355154" viewBox="0, 0, 400,300.1465559355154"><g id="svgg"><path id="path0" d="M268.072 75.251 C 267.795 75.425,264.128 76.602,262.661 76.987 C 262.195 77.110,261.394 77.469,260.880 77.784 C 260.367 78.100,259.862 78.359,259.758 78.359 C 259.359 78.359,258.720 79.283,258.720 79.861 C 258.720 80.474,257.450 81.526,255.073 82.878 C 252.119 84.561,250.325 86.724,251.313 87.416 C 251.769 87.736,251.688 87.839,247.866 91.842 C 246.993 92.755,245.891 93.942,245.416 94.480 C 244.942 95.017,244.056 95.984,243.449 96.629 C 242.842 97.274,241.580 98.725,240.645 99.853 C 239.709 100.982,238.535 102.301,238.035 102.785 C 237.105 103.686,233.459 107.597,232.365 108.868 C 231.475 109.902,231.636 110.553,232.712 110.272 C 233.537 110.056,232.739 111.530,231.021 113.395 C 229.761 114.763,230.352 115.442,231.892 114.396 C 232.489 113.989,232.645 113.949,232.694 114.187 C 232.886 115.125,229.850 118.310,227.064 120.094 C 226.580 120.403,225.745 120.979,225.208 121.372 C 224.033 122.231,222.686 122.915,221.104 123.455 C 218.080 124.487,214.734 125.453,213.581 125.627 C 212.882 125.733,211.607 125.935,210.747 126.075 C 209.240 126.322,204.879 126.336,191.891 126.136 C 177.832 125.919,174.364 125.807,173.425 125.542 C 167.834 123.963,166.992 123.621,164.638 121.979 C 163.774 121.377,162.441 120.465,161.674 119.952 C 160.132 118.920,158.433 117.589,156.965 116.260 C 156.435 115.781,154.948 114.444,153.662 113.289 C 152.375 112.135,150.931 110.728,150.453 110.164 C 149.976 109.599,148.849 108.389,147.949 107.475 C 147.049 106.561,145.699 105.066,144.949 104.152 C 142.850 101.598,141.801 100.999,140.301 101.494 C 139.531 101.748,138.740 103.056,138.740 104.074 C 138.740 104.920,138.616 104.966,137.466 104.549 C 131.049 102.223,130.613 102.131,128.193 102.582 C 126.704 102.859,126.497 102.958,124.988 104.115 C 122.465 106.048,122.219 111.838,124.621 112.766 C 125.681 113.175,125.058 113.459,122.814 113.589 C 121.252 113.680,120.101 114.175,119.336 115.084 C 118.082 116.574,117.505 119.862,118.335 120.794 C 118.558 121.045,118.752 121.470,118.765 121.739 C 118.788 122.208,119.851 123.380,120.930 124.125 C 121.480 124.505,121.358 124.790,120.570 124.963 C 119.809 125.130,118.135 126.703,118.290 127.106 C 118.353 127.271,118.328 127.406,118.235 127.406 C 118.037 127.406,117.587 128.595,117.731 128.739 C 117.784 128.792,117.718 128.970,117.585 129.135 C 117.392 129.374,117.392 129.405,117.587 129.288 C 117.721 129.208,117.831 129.227,117.831 129.332 C 117.831 129.437,117.728 129.557,117.602 129.599 C 117.333 129.689,117.278 131.805,117.529 132.393 C 117.620 132.606,117.728 132.955,117.769 133.170 C 117.857 133.630,119.517 135.368,120.022 135.529 C 120.378 135.642,120.533 136.590,120.195 136.590 C 119.956 136.590,119.590 137.686,119.590 138.400 C 119.590 139.366,120.531 140.838,121.587 141.522 C 122.287 141.976,122.496 142.215,122.389 142.441 C 121.844 143.587,122.502 145.039,123.855 145.674 C 124.629 146.038,124.672 146.099,124.532 146.651 C 124.075 148.455,124.603 149.515,126.193 149.992 C 127.123 150.270,127.211 150.344,127.075 150.725 C 126.783 151.537,126.933 153.121,127.410 154.275 C 127.951 155.581,128.291 156.131,128.558 156.131 C 128.712 156.131,128.790 156.180,128.729 156.240 C 128.669 156.301,128.812 156.543,129.048 156.778 C 129.415 157.145,129.472 157.405,129.449 158.615 C 129.435 159.389,129.487 159.984,129.565 159.936 C 129.643 159.888,129.746 160.001,129.795 160.188 C 129.959 160.815,130.025 160.916,130.745 161.643 C 131.139 162.041,131.422 162.406,131.374 162.454 C 131.213 162.616,132.968 163.699,133.623 163.843 C 134.440 164.021,134.539 164.286,134.184 165.346 C 133.872 166.279,133.957 167.441,134.349 167.592 C 134.488 167.645,134.573 167.918,134.540 168.211 C 134.467 168.866,134.805 169.582,135.022 169.231 C 135.121 169.071,135.214 169.164,135.300 169.506 C 135.377 169.812,135.517 169.967,135.644 169.888 C 135.772 169.809,135.823 169.865,135.769 170.025 C 135.720 170.173,135.774 170.389,135.891 170.505 C 136.307 170.919,137.191 171.423,137.303 171.311 C 137.367 171.248,137.546 171.324,137.702 171.480 C 137.858 171.636,138.221 171.765,138.509 171.766 C 139.425 171.771,139.876 171.983,139.997 172.465 C 140.061 172.723,140.219 172.912,140.346 172.886 C 140.474 172.860,140.582 172.943,140.587 173.071 C 140.605 173.528,141.404 174.100,141.675 173.849 C 141.871 173.669,141.898 173.693,141.803 173.962 C 141.722 174.192,141.782 174.304,141.984 174.304 C 142.149 174.304,142.417 174.436,142.578 174.597 C 142.762 174.781,143.048 174.846,143.344 174.772 C 143.676 174.689,143.852 174.747,143.937 174.967 C 144.003 175.140,144.162 175.281,144.290 175.281 C 144.419 175.281,144.641 175.607,144.786 176.007 C 144.930 176.406,145.168 176.852,145.315 176.999 C 145.462 177.146,145.544 177.328,145.498 177.404 C 145.451 177.479,145.669 177.746,145.983 177.995 C 146.297 178.245,146.496 178.541,146.427 178.654 C 146.349 178.780,146.395 178.800,146.548 178.706 C 146.692 178.617,146.864 178.665,146.961 178.822 C 147.053 178.970,147.241 179.095,147.379 179.100 C 147.518 179.105,147.607 179.222,147.577 179.359 C 147.547 179.496,147.611 179.555,147.718 179.489 C 147.825 179.422,148.135 179.514,148.407 179.692 C 148.679 179.870,148.901 179.942,148.901 179.851 C 148.901 179.761,149.428 180.233,150.073 180.900 C 150.718 181.567,151.246 182.203,151.246 182.312 C 151.246 182.421,151.375 182.511,151.532 182.511 C 151.689 182.511,151.917 182.695,152.037 182.920 C 152.185 183.197,152.382 183.297,152.646 183.228 C 152.932 183.153,153.006 183.203,152.924 183.415 C 152.862 183.578,152.898 183.652,153.008 183.584 C 153.115 183.517,153.469 183.653,153.794 183.884 C 154.119 184.116,154.615 184.331,154.895 184.361 C 155.365 184.413,156.881 185.719,156.903 186.091 C 156.908 186.179,157.041 186.380,157.197 186.536 C 157.354 186.693,157.433 186.951,157.372 187.109 C 157.311 187.267,157.356 187.396,157.472 187.396 C 157.587 187.396,157.626 187.542,157.557 187.721 C 157.473 187.940,157.507 188.000,157.661 187.905 C 157.797 187.821,157.890 187.884,157.890 188.063 C 157.890 188.450,158.579 189.675,159.232 190.446 C 159.515 190.779,159.922 191.304,160.137 191.612 C 160.863 192.651,161.832 193.639,162.549 194.071 C 162.942 194.308,163.967 195.005,164.827 195.620 C 166.942 197.133,167.982 197.711,170.396 198.712 C 171.524 199.180,173.635 200.090,175.085 200.734 C 176.536 201.378,178.313 202.107,179.033 202.354 C 180.949 203.012,183.469 204.379,183.841 204.964 C 184.018 205.243,184.649 206.048,185.243 206.752 C 185.836 207.457,186.731 208.568,187.232 209.221 C 188.251 210.551,190.990 213.025,192.770 214.223 C 193.415 214.657,194.276 215.309,194.684 215.672 C 195.091 216.034,195.725 216.474,196.092 216.649 C 196.459 216.824,196.727 217.019,196.688 217.082 C 196.650 217.144,196.998 217.221,197.463 217.252 C 197.927 217.282,198.364 217.216,198.433 217.105 C 198.501 216.994,198.715 216.903,198.907 216.903 C 199.357 216.903,199.828 216.342,199.857 215.772 C 199.886 215.197,201.052 213.611,202.167 212.629 C 204.678 210.419,211.540 207.884,210.219 209.655 C 210.091 209.826,210.759 209.152,211.702 208.158 C 213.343 206.430,214.002 206.029,214.229 206.622 C 214.357 206.956,217.211 208.688,218.623 209.289 C 219.686 209.741,220.420 210.688,220.420 211.607 C 220.420 212.122,220.754 212.310,220.892 211.873 C 221.211 210.870,221.680 210.982,223.553 212.512 C 224.886 213.600,225.490 213.972,225.923 213.972 C 226.781 213.972,227.257 214.300,227.279 214.907 L 227.298 215.437 227.438 214.949 C 227.566 214.499,227.656 214.465,228.565 214.521 C 229.332 214.567,229.581 214.510,229.674 214.266 C 229.741 214.093,229.718 213.999,229.624 214.057 C 228.997 214.445,228.739 211.000,229.210 208.519 C 229.455 207.227,229.453 207.231,230.629 206.058 C 233.393 203.301,234.071 201.346,233.203 198.632 C 232.388 196.084,233.115 194.235,234.934 194.235 C 235.081 194.235,235.547 193.974,235.969 193.655 C 237.251 192.685,238.320 192.960,238.087 194.199 C 237.936 195.000,237.940 195.321,238.120 196.532 C 238.257 197.457,238.587 197.598,239.034 196.922 C 239.193 196.681,239.549 196.259,239.824 195.986 C 240.099 195.713,240.385 195.248,240.459 194.953 C 240.541 194.626,241.788 193.214,243.657 191.333 C 249.081 185.875,254.466 178.631,259.690 169.764 C 261.003 167.535,264.778 160.168,265.540 158.348 C 265.848 157.612,266.545 156.083,267.090 154.950 C 268.014 153.025,269.217 150.022,269.376 149.242 C 269.414 149.054,269.498 148.815,269.562 148.711 C 269.776 148.364,271.055 143.155,271.217 141.967 C 271.306 141.321,271.512 140.308,271.676 139.717 C 271.840 139.126,272.329 136.971,272.762 134.929 C 273.195 132.887,273.819 130.117,274.148 128.774 C 274.477 127.430,275.015 124.709,275.344 122.725 C 275.673 120.742,275.974 119.067,276.014 119.004 C 276.165 118.759,277.283 113.101,277.581 111.070 C 277.753 109.898,277.921 108.764,277.954 108.549 C 277.986 108.334,277.852 107.929,277.654 107.648 C 277.457 107.367,277.351 107.081,277.420 107.013 C 277.488 106.944,277.255 106.888,276.901 106.888 C 276.231 106.888,273.962 105.973,273.962 105.703 C 273.962 105.618,273.539 105.274,273.022 104.939 C 271.857 104.184,271.437 103.493,271.223 101.980 C 270.984 100.288,270.720 100.006,268.248 98.796 C 262.656 96.058,261.298 93.073,263.135 87.555 C 264.679 82.917,269.303 79.523,275.281 78.638 C 278.084 78.223,278.043 78.244,277.160 77.642 C 275.038 76.196,273.034 75.519,270.249 75.308 C 269.551 75.255,268.835 75.183,268.659 75.148 C 268.482 75.113,268.219 75.160,268.072 75.251 M292.634 88.141 C 293.058 88.632,293.445 89.002,293.493 88.965 C 293.542 88.928,293.195 88.526,292.722 88.073 L 291.863 87.250 292.634 88.141 M290.784 94.307 C 291.043 94.643,291.295 94.882,291.343 94.839 C 291.391 94.796,291.179 94.522,290.871 94.230 L 290.312 93.698 290.784 94.307 M295.848 94.284 C 295.716 94.631,295.505 94.781,295.120 94.799 C 294.643 94.823,294.632 94.836,295.028 94.912 C 295.547 95.011,295.957 94.732,296.101 94.180 C 296.245 93.632,296.068 93.704,295.848 94.284 M143.949 143.830 C 144.317 144.588,148.061 149.226,151.987 153.786 C 153.645 155.712,156.516 158.178,161.309 161.793 C 163.459 163.415,165.789 165.191,166.488 165.741 C 167.186 166.292,168.224 167.042,168.795 167.409 C 169.365 167.777,169.880 168.203,169.939 168.357 C 169.998 168.511,170.139 168.637,170.252 168.637 C 170.537 168.637,172.539 170.168,173.913 171.435 C 175.049 172.483,178.964 174.776,179.971 174.983 C 180.024 174.994,181.043 175.332,182.234 175.734 C 185.398 176.800,197.249 177.940,198.705 177.318 C 198.880 177.243,200.562 177.158,202.443 177.128 C 204.323 177.098,206.110 176.978,206.412 176.861 C 207.141 176.580,208.760 176.606,209.943 176.918 L 210.898 177.169 209.891 177.788 C 209.338 178.129,208.697 178.407,208.466 178.407 C 208.236 178.407,207.116 178.575,205.978 178.781 C 202.459 179.416,199.661 179.834,198.437 179.910 C 197.792 179.949,196.341 180.110,195.213 180.267 C 192.113 180.698,188.681 180.960,184.549 181.083 C 180.670 181.198,180.455 181.177,173.718 179.991 C 171.595 179.617,167.577 178.427,165.901 177.675 C 165.310 177.410,164.414 177.030,163.910 176.831 C 158.189 174.568,157.361 172.257,162.522 172.957 C 164.033 173.162,164.025 173.148,161.951 171.869 C 158.330 169.637,157.017 168.594,156.949 167.896 C 156.857 166.956,157.193 166.951,160.048 167.851 C 161.463 168.297,162.649 168.632,162.685 168.597 C 162.783 168.498,159.222 166.176,157.734 165.368 C 154.845 163.800,152.715 161.936,150.939 159.423 C 150.517 158.825,149.571 157.598,148.838 156.696 C 148.105 155.794,147.370 154.727,147.205 154.325 C 147.036 153.912,146.816 153.648,146.700 153.720 C 146.576 153.797,146.554 153.751,146.645 153.605 C 146.734 153.460,146.546 153.017,146.178 152.505 C 144.703 150.451,142.452 143.830,142.952 143.020 C 143.173 142.664,143.520 142.946,143.949 143.830 M233.219 212.056 C 233.434 212.178,233.675 212.373,233.754 212.489 C 233.853 212.635,233.898 212.628,233.900 212.464 C 233.902 212.334,233.733 212.136,233.525 212.024 C 233.011 211.749,232.730 211.778,233.219 212.056 M205.656 215.036 C 205.410 215.411,205.391 215.589,205.568 215.866 C 205.782 216.199,205.788 216.198,205.677 215.849 C 205.613 215.646,205.696 215.272,205.862 215.019 C 206.028 214.765,206.120 214.558,206.067 214.558 C 206.013 214.558,205.828 214.773,205.656 215.036 M204.637 224.328 C 204.637 224.704,204.678 224.858,204.727 224.670 C 204.776 224.482,204.776 224.174,204.727 223.986 C 204.678 223.798,204.637 223.952,204.637 224.328 M204.471 228.432 C 204.471 229.668,204.502 230.173,204.541 229.555 C 204.580 228.937,204.580 227.926,204.541 227.308 C 204.502 226.690,204.471 227.196,204.471 228.432 M198.588 232.926 C 198.588 233.410,198.626 233.608,198.672 233.366 C 198.719 233.124,198.719 232.728,198.672 232.487 C 198.626 232.245,198.588 232.443,198.588 232.926 M198.176 237.062 C 198.158 237.581,198.038 238.017,197.899 238.073 C 197.708 238.150,197.709 238.175,197.905 238.187 C 198.254 238.208,198.379 237.788,198.287 236.904 C 198.212 236.175,198.208 236.181,198.176 237.062 M230.826 237.751 C 231.014 237.800,231.321 237.800,231.510 237.751 C 231.698 237.702,231.544 237.661,231.168 237.661 C 230.791 237.661,230.638 237.702,230.826 237.751 M196.971 242.381 C 196.971 242.423,197.230 242.495,197.547 242.541 C 197.864 242.588,198.078 242.554,198.024 242.466 C 197.927 242.309,196.971 242.232,196.971 242.381 M193.473 243.781 C 193.450 244.256,193.802 244.656,194.226 244.637 C 194.438 244.627,194.413 244.578,194.142 244.472 C 193.930 244.389,193.697 244.110,193.624 243.851 C 193.510 243.443,193.490 243.433,193.473 243.781 M217.147 249.280 C 217.335 249.329,217.643 249.329,217.831 249.280 C 218.019 249.231,217.865 249.190,217.489 249.190 C 217.113 249.190,216.959 249.231,217.147 249.280 M232.558 251.643 C 232.545 251.909,232.358 252.160,232.096 252.266 C 231.798 252.385,231.759 252.446,231.974 252.455 C 232.405 252.471,232.784 251.979,232.672 251.548 C 232.601 251.276,232.576 251.297,232.558 251.643 " stroke="none" fill="#f3ebbc" fill-rule="evenodd"></path><path id="path1" d="M273.521 68.214 C 273.332 68.324,273.000 68.761,272.784 69.185 C 272.568 69.609,272.359 69.956,272.321 69.956 C 272.282 69.956,271.935 69.824,271.549 69.663 C 270.671 69.296,269.992 69.292,268.986 69.649 C 268.552 69.803,267.944 69.983,267.635 70.050 C 266.075 70.387,265.509 71.944,266.634 72.803 C 267.124 73.177,267.318 73.477,267.318 73.863 C 267.318 74.640,267.708 74.862,269.403 75.052 C 273.130 75.470,275.215 76.109,277.153 77.426 L 278.359 78.245 277.577 78.405 C 277.147 78.493,276.312 78.653,275.721 78.760 C 269.380 79.906,265.161 82.738,263.507 86.958 C 261.451 92.205,262.803 95.965,267.583 98.292 C 270.739 99.828,271.414 100.463,271.425 101.905 C 271.443 104.058,273.963 106.180,277.248 106.808 C 281.771 107.674,285.296 104.359,285.296 99.240 C 285.296 96.879,282.449 92.474,280.262 91.449 C 277.758 90.275,278.891 89.142,285.002 86.707 C 288.808 85.191,289.612 84.489,289.183 83.057 C 289.015 82.497,289.018 82.145,289.194 81.611 C 289.472 80.769,289.332 80.203,288.669 79.495 C 288.240 79.037,288.195 78.860,288.310 78.095 C 288.596 76.188,287.227 74.696,286.165 75.758 C 285.751 76.172,284.964 75.352,284.212 73.723 C 283.669 72.544,283.095 72.265,282.295 72.789 C 281.765 73.136,281.610 72.949,281.106 71.361 C 280.857 70.576,280.043 70.124,279.126 70.261 C 278.100 70.415,277.147 70.000,276.600 69.161 C 275.931 68.133,274.445 67.676,273.521 68.214 M278.738 83.465 C 279.469 84.040,279.692 84.708,279.424 85.521 C 279.018 86.749,277.215 87.011,276.132 85.999 C 274.585 84.553,277.060 82.146,278.738 83.465 " stroke="none" fill="#fb0806" fill-rule="evenodd"></path><path id="path2" d="M266.897 82.157 C 266.290 82.634,265.728 83.128,265.650 83.255 C 265.531 83.447,267.377 82.034,267.992 81.462 C 268.493 80.997,267.881 81.385,266.897 82.157 M262.287 91.744 C 262.289 92.174,262.329 92.327,262.376 92.084 C 262.422 91.841,262.421 91.489,262.372 91.302 C 262.323 91.115,262.285 91.314,262.287 91.744 M291.203 95.554 C 291.203 95.931,291.243 96.085,291.292 95.896 C 291.342 95.708,291.342 95.401,291.292 95.213 C 291.243 95.024,291.203 95.178,291.203 95.554 M142.952 143.020 C 142.452 143.830,144.703 150.451,146.178 152.505 C 146.546 153.017,146.734 153.460,146.645 153.605 C 146.554 153.751,146.576 153.797,146.700 153.720 C 146.816 153.648,147.036 153.912,147.205 154.325 C 147.370 154.727,148.105 155.794,148.838 156.696 C 149.571 157.598,150.517 158.825,150.939 159.423 C 152.715 161.936,154.845 163.800,157.734 165.368 C 159.222 166.176,162.783 168.498,162.685 168.597 C 162.649 168.632,161.463 168.297,160.048 167.851 C 157.193 166.951,156.857 166.956,156.949 167.896 C 157.017 168.594,158.330 169.637,161.951 171.869 C 164.025 173.148,164.033 173.162,162.522 172.957 C 157.361 172.257,158.189 174.568,163.910 176.831 C 164.414 177.030,165.310 177.410,165.901 177.675 C 167.577 178.427,171.595 179.617,173.718 179.991 C 180.455 181.177,180.670 181.198,184.549 181.083 C 188.681 180.960,192.113 180.698,195.213 180.267 C 196.341 180.110,197.792 179.949,198.437 179.910 C 199.661 179.834,202.459 179.416,205.978 178.781 C 207.116 178.575,208.236 178.407,208.466 178.407 C 208.697 178.407,209.338 178.129,209.891 177.788 L 210.898 177.169 209.943 176.918 C 208.760 176.606,207.141 176.580,206.412 176.861 C 206.110 176.978,204.323 177.098,202.443 177.128 C 200.562 177.158,198.880 177.243,198.705 177.318 C 197.249 177.940,185.398 176.800,182.234 175.734 C 181.043 175.332,180.024 174.994,179.971 174.983 C 178.964 174.776,175.049 172.483,173.913 171.435 C 172.539 170.168,170.537 168.637,170.252 168.637 C 170.139 168.637,169.998 168.511,169.939 168.357 C 169.880 168.203,169.365 167.777,168.795 167.409 C 168.224 167.042,167.186 166.292,166.488 165.741 C 165.789 165.191,163.459 163.415,161.309 161.793 C 156.516 158.178,153.645 155.712,151.987 153.786 C 148.061 149.226,144.317 144.588,143.949 143.830 C 143.520 142.946,143.173 142.664,142.952 143.020 M235.969 193.655 C 235.547 193.974,235.081 194.235,234.934 194.235 C 233.115 194.235,232.388 196.084,233.203 198.632 C 234.071 201.346,233.393 203.301,230.629 206.058 C 229.218 207.466,229.031 208.097,228.994 211.582 C 228.968 214.021,229.183 214.457,230.072 213.758 C 230.516 213.409,230.690 213.372,231.077 213.549 C 231.623 213.797,232.065 213.476,232.263 212.688 C 232.329 212.427,232.505 212.213,232.654 212.213 C 232.804 212.213,232.926 212.123,232.926 212.014 C 232.926 211.899,233.133 211.867,233.415 211.937 C 234.841 212.295,235.662 211.213,235.662 208.976 L 235.662 207.520 236.737 206.351 C 237.469 205.554,237.817 205.010,237.829 204.643 C 237.838 204.346,237.894 203.004,237.953 201.661 C 238.059 199.255,238.078 196.219,237.994 195.359 C 237.970 195.117,238.012 194.595,238.087 194.199 C 238.320 192.960,237.251 192.685,235.969 193.655 M207.426 209.753 C 203.649 211.027,199.853 214.076,199.853 215.835 C 199.853 216.096,199.733 216.410,199.585 216.532 C 199.437 216.655,199.316 216.842,199.316 216.948 C 199.316 217.055,199.470 216.953,199.658 216.722 C 200.011 216.289,201.316 216.119,202.180 216.393 C 202.439 216.475,202.689 216.388,202.917 216.137 C 203.198 215.826,203.346 215.794,203.717 215.963 C 204.243 216.203,205.639 216.002,205.460 215.712 C 205.268 215.402,205.921 214.555,206.254 214.683 C 207.023 214.978,207.455 214.583,208.261 212.848 C 208.700 211.903,209.367 210.741,209.744 210.265 C 210.859 208.856,210.390 208.752,207.426 209.753 M204.453 231.461 C 204.454 231.998,204.492 232.195,204.537 231.898 C 204.582 231.601,204.581 231.161,204.534 230.921 C 204.488 230.680,204.451 230.923,204.453 231.461 M205.060 235.173 C 205.178 235.550,205.340 235.857,205.422 235.857 C 205.611 235.857,205.609 235.836,205.355 235.105 C 205.060 234.261,204.794 234.323,205.060 235.173 " stroke="none" fill="#dcd4ad" fill-rule="evenodd"></path><path id="path3" d="M269.226 75.175 C 269.469 75.222,269.820 75.220,270.007 75.171 C 270.194 75.122,269.995 75.084,269.565 75.086 C 269.135 75.088,268.982 75.128,269.226 75.175 M287.640 85.511 C 287.157 85.788,285.970 86.328,285.002 86.711 C 279.982 88.700,278.517 89.734,279.199 90.808 C 279.344 91.037,280.740 91.703,280.857 91.600 C 281.042 91.437,283.468 94.454,283.955 95.453 C 284.605 96.787,284.705 96.828,286.501 96.495 C 287.313 96.344,287.867 96.352,288.578 96.522 C 291.927 97.325,292.283 94.663,289.008 93.307 C 286.856 92.416,284.463 90.865,285.240 90.865 C 285.551 90.865,288.155 91.739,289.844 92.410 C 290.680 92.742,291.517 93.014,291.705 93.014 C 291.892 93.014,292.378 93.288,292.784 93.622 C 295.866 96.163,296.924 94.202,294.405 90.617 C 293.963 89.986,293.495 89.279,293.367 89.044 C 292.854 88.108,289.288 84.999,288.735 85.005 C 288.617 85.006,288.124 85.234,287.640 85.511 M264.485 96.336 C 264.904 96.766,265.292 97.118,265.346 97.118 C 265.399 97.118,265.100 96.766,264.680 96.336 C 264.260 95.906,263.873 95.554,263.819 95.554 C 263.765 95.554,264.065 95.906,264.485 96.336 M271.279 101.808 C 271.279 102.291,271.318 102.489,271.364 102.247 C 271.411 102.005,271.411 101.610,271.364 101.368 C 271.318 101.126,271.279 101.324,271.279 101.808 M232.535 212.408 C 232.320 212.623,232.145 212.881,232.145 212.981 C 232.145 213.466,231.548 213.763,231.041 213.532 C 230.583 213.323,230.483 213.362,229.955 213.953 C 229.450 214.518,229.285 214.589,228.696 214.493 C 227.374 214.279,227.137 214.791,227.841 216.344 C 228.054 216.813,228.229 217.372,228.231 217.587 C 228.233 217.802,228.639 218.787,229.132 219.777 C 229.986 221.487,231.060 225.261,231.979 229.776 L 232.233 231.023 231.564 231.581 C 231.196 231.888,230.583 232.240,230.201 232.362 C 229.471 232.595,227.309 233.718,226.478 234.295 C 226.209 234.481,225.797 234.693,225.562 234.766 C 224.936 234.961,223.156 236.697,223.156 237.114 C 223.156 237.311,222.970 237.773,222.743 238.141 C 222.271 238.904,222.353 239.070,223.221 239.111 C 223.562 239.127,224.216 239.205,224.677 239.284 C 225.348 239.399,225.754 239.330,226.728 238.933 C 229.135 237.952,229.652 237.802,231.043 237.685 C 233.207 237.502,235.127 238.162,238.056 240.097 C 239.853 241.284,240.839 242.606,242.944 246.653 C 243.541 247.802,244.438 248.559,245.200 248.559 C 245.744 248.559,245.900 248.867,245.850 249.844 C 245.715 252.443,247.471 251.065,248.263 247.950 C 248.411 247.372,248.679 246.481,248.860 245.972 C 249.407 244.436,249.186 243.896,247.126 241.742 C 245.487 240.027,244.298 238.593,244.515 238.593 C 244.563 238.593,244.986 238.807,245.457 239.068 C 246.745 239.785,254.577 242.302,255.535 242.308 C 256.250 242.312,259.562 243.467,260.272 243.959 C 261.153 244.569,262.541 244.676,263.239 244.187 C 263.874 243.742,264.552 243.792,265.462 244.352 C 266.428 244.948,266.927 244.983,266.927 244.455 C 266.927 244.078,265.492 242.501,265.149 242.501 C 265.057 242.501,264.809 242.163,264.598 241.750 C 263.739 240.067,261.725 239.174,257.449 238.581 L 255.689 238.336 255.046 237.236 C 254.271 235.909,254.032 235.748,251.783 235.047 C 250.816 234.745,249.145 234.199,248.070 233.832 C 246.996 233.465,245.413 232.962,244.553 232.713 C 242.969 232.255,240.700 231.357,238.844 230.452 C 237.869 229.977,237.800 229.891,237.253 228.461 C 235.381 223.567,233.903 217.062,233.903 213.715 C 233.903 212.312,233.253 211.691,232.535 212.408 M202.923 216.130 C 202.690 216.387,202.440 216.476,202.180 216.393 C 201.348 216.129,200.011 216.289,199.682 216.692 C 199.508 216.906,199.310 217.027,199.244 216.961 C 199.177 216.894,198.821 217.003,198.451 217.202 C 197.902 217.497,197.689 217.523,197.288 217.340 C 196.686 217.066,196.412 217.592,196.790 218.297 C 197.005 218.699,197.349 220.604,198.074 225.403 C 198.620 229.019,198.736 232.014,198.481 235.955 C 198.418 236.922,198.361 237.817,198.353 237.942 C 198.345 238.068,198.057 238.233,197.712 238.309 C 196.023 238.680,192.813 243.720,193.856 244.364 C 194.310 244.645,194.988 244.257,195.207 243.592 C 195.509 242.676,195.782 242.500,196.975 242.448 L 198.003 242.404 198.258 243.633 C 198.648 245.513,199.446 246.929,200.981 248.470 L 202.352 249.846 204.889 250.409 C 207.562 251.002,208.542 251.388,209.669 252.290 C 211.064 253.406,213.895 254.097,214.959 253.579 C 215.168 253.478,215.525 253.676,216.115 254.220 C 218.005 255.965,218.039 254.141,216.195 249.955 L 215.733 248.908 216.172 249.013 C 216.413 249.070,217.533 249.177,218.661 249.249 C 220.387 249.361,220.946 249.485,222.179 250.031 C 224.501 251.059,226.149 251.436,226.921 251.116 C 227.268 250.973,228.052 250.723,228.661 250.563 L 229.770 250.271 230.420 251.009 C 230.777 251.415,231.166 251.879,231.284 252.039 C 231.596 252.463,232.535 252.190,232.535 251.674 C 232.535 251.254,231.442 249.022,231.147 248.839 C 231.051 248.780,230.972 248.571,230.972 248.375 C 230.972 247.854,229.527 246.633,228.260 246.083 C 227.656 245.820,226.786 245.435,226.326 245.226 C 225.866 245.017,225.251 244.843,224.958 244.839 C 224.665 244.836,223.723 244.703,222.863 244.544 C 222.003 244.385,219.786 243.990,217.937 243.666 C 210.179 242.304,207.747 240.967,206.048 237.123 C 205.777 236.512,205.427 235.883,205.269 235.725 C 205.112 235.568,204.976 235.291,204.968 235.111 C 204.960 234.930,204.920 234.651,204.880 234.489 C 204.139 231.521,204.424 222.035,205.351 218.857 C 205.540 218.207,205.653 217.013,205.596 216.265 C 205.573 215.978,205.445 215.941,204.814 216.042 C 204.397 216.109,203.882 216.069,203.666 215.953 C 203.351 215.785,203.204 215.820,202.923 216.130 " stroke="none" fill="#f3cc6d" fill-rule="evenodd"></path><path id="path4" d="M276.232 83.831 C 275.367 84.788,275.345 85.263,276.132 85.999 C 277.637 87.404,280.140 86.178,279.454 84.372 C 278.896 82.906,277.308 82.639,276.232 83.831 " stroke="none" fill="#090505" fill-rule="evenodd"></path></g></svg>