<?xml version="1.0" encoding="utf-8"?>
<!-- Generator: Adobe Illustrator 24.3.0, SVG Export Plug-In . SVG Version: 6.00 Build 0)  -->
<svg version="1.1" id="Layer_1" xmlns="http://www.w3.org/2000/svg" xmlns:xlink="http://www.w3.org/1999/xlink" x="0px" y="0px"
	 viewBox="0 0 500 500" style="enable-background:new 0 0 500 500;" xml:space="preserve">
<style type="text/css">
	.st0{fill:#09592D;}
</style>
<g>
	<g>
		<path class="st0" d="M73.32,200.64c-29.71,9.98-41.26,43.21-33.75,71.81c7.51,28.6,31.71,56.56,62.05,60.95
			c16.47,2.38,33.56-2.17,45.56-13.96c-3.14-0.4-6.28-0.81-9.42-1.21c14.91,27.53,42.65,47.03,73.75,51.09
			c16.53,2.16,33.67,0.14,49.18-6.01c13.44-5.33,32.25-14.96,31.36-32.03c-3.41,1.41-6.83,2.83-10.24,4.24
			c25.39,22.6,64.14,18.28,92.94,5.08c31.05-14.23,55.03-44.49,55.77-79.47c0.35-16.58-5.94-35.12-21.64-42.95
			c0,3.45,0,6.91,0,10.36c12.88-7.71,15.2-24.76,14.8-38.51c-0.44-14.98-4.87-29.88-12.66-42.68
			c-16.19-26.58-46.58-41.94-77.6-39.91c-14.98,0.98-37.76,5.41-42.54,22.18c3.86,0,7.71,0,11.57,0
			c-3.28-19.47-18.92-34.68-34.81-45.05c-15.79-10.31-34.14-16.33-52.86-18.14c-35.29-3.41-78.97,10.64-94.51,45.26
			c-8.46,18.84-6.54,41.9,7.72,57.39c2.42-3.14,4.85-6.28,7.27-9.42c-18.44-7.98-40.59-12.08-57.68,1.3
			c-13.83,10.83-17.51,33.03-3.5,45.43c5.76,5.1,14.28-3.35,8.49-8.49c-9.65-8.54-5.33-22.92,4.63-29.11
			c12.95-8.04,28.88-4.46,42.01,1.22c6.02,2.61,12.18-4.1,7.27-9.42c-10.4-11.28-11.63-28.39-6.07-42.26
			c5.98-14.94,19.6-25.63,33.87-32.14c28.84-13.17,64.11-10.25,91.46,5.19c15.73,8.88,32,22.73,35.14,41.42
			c1.03,6.1,10.06,5.31,11.57,0c2.09-7.32,12.35-9.84,18.81-11.45c7.53-1.88,15.27-2.43,23-1.9c15.58,1.07,31.15,7.23,42.83,17.67
			c11.6,10.37,19.48,24.29,22.89,39.44c1.66,7.39,2.12,15.03,1.41,22.58c-0.65,6.84-2.21,15.23-8.58,19.04
			c-3.66,2.19-4.14,8.3,0,10.36c11.22,5.6,15.52,18.4,15.7,30.28c0.22,14.6-4.72,28.85-12.77,40.92
			c-15.72,23.58-44.49,37.74-72.41,39.52c-15.24,0.97-31.33-1.78-43.06-12.23c-3.63-3.23-10.53-1.26-10.24,4.24
			c0.67,12.81-19.98,19.98-29.65,22.95c-13.58,4.18-28.27,5.22-42.25,2.48c-25.62-5.03-47.64-21.65-60.04-44.54
			c-1.86-3.44-6.74-3.85-9.42-1.21c-10.76,10.57-26.92,13.4-41.2,9.36c-15.11-4.28-27.61-15.49-36.08-28.42
			c-9.11-13.92-14.94-31.49-11.28-48.17c3.07-13.99,12.49-26.84,26.37-31.51C83.79,209.76,80.67,198.17,73.32,200.64L73.32,200.64z"
			/>
	</g>
</g>
<g>
	<g>
		<path class="st0" d="M206.17,198.49c3.81-12.99-6.82-25.15-19.76-25.66c-14.46-0.56-24.86,11.12-29.71,23.53
			c-5.39,13.81-5.82,29.73-1.97,43.98c3.32,12.3,10.53,25.53,23.28,29.98c15.58,5.44,27.46-7.34,35.72-18.68
			c4.55-6.25-5.85-12.24-10.36-6.06c-5.65,7.75-14.59,18.67-24.96,11.61c-9.55-6.5-13.25-20.28-14.03-31.14
			c-0.82-11.36,0.96-25.23,8.41-34.37c3.39-4.16,8.79-7.57,14.38-6.83c5.02,0.66,8.91,5.41,7.44,10.44
			C192.43,202.73,204,205.9,206.17,198.49L206.17,198.49z"/>
	</g>
</g>
<g>
	<g>
		<path class="st0" d="M289.45,195.68c3.92-8.01,1.48-17.13-5.87-22.25c-6.94-4.83-16.52-5.12-24.31-2.29
			c-17.45,6.34-26.45,23.81-27.46,41.54c-0.55,9.68,0.91,19.71,3.31,29.09c2.27,8.86,6.26,17.44,13.72,23.07
			c7.04,5.3,16.19,6.9,24.33,3.17c7.32-3.36,12.57-10.26,15.91-17.41c9.45-20.24,9.66-44.66,2.58-65.62
			c-2.46-7.28-14.05-4.16-11.57,3.19c5.88,17.41,6.16,36.56-0.36,53.86c-2.23,5.93-6.09,13.15-12.44,15.48
			c-7.82,2.87-14.66-4.13-17.74-10.54c-3.68-7.66-5.12-17.09-5.68-25.5c-0.55-8.44,0.07-17.38,4.06-25
			c3.23-6.17,8.51-11.65,15.19-14c3.5-1.23,7.57-1.67,11.13-0.43c2.95,1.03,6.55,4.08,4.83,7.58
			C275.7,196.53,286.05,202.62,289.45,195.68L289.45,195.68z"/>
	</g>
</g>
<g>
	<g>
		<path class="st0" d="M314.81,265.24c0.25-0.25,2.62-2.71,3.38-1.88c0.23,0.26-0.84,3.53-0.87,3.62c-0.84,2.57-2.31,4.94-3.85,7.14
			c-2.91,4.14-9.51,8.76-8.74,14.42c0.88,6.52,8.12,6.31,13.17,6.38c7.16,0.1,14.19-1.87,21.3-1.62c7.72,0.27,7.71-11.73,0-12
			c-8.62-0.3-18,3.52-26.6,1.31c1.2,0.92,2.39,1.84,3.59,2.76c-0.13-0.22-0.25-0.44-0.38-0.66c0.2,1.54,0.4,3.08,0.6,4.62
			c0.38-1.55,3.52-4.04,4.52-5.31c1.67-2.11,3.31-4.27,4.68-6.59c2.71-4.62,5.09-10.52,4.3-15.96c-0.72-4.97-4.33-8.65-9.16-9.82
			c-5.48-1.33-10.61,1.31-14.42,5.09C300.84,262.21,309.33,270.69,314.81,265.24L314.81,265.24z"/>
	</g>
</g>
</svg>
