<?xml version="1.0" encoding="UTF-8" standalone="no"?>
<svg
   xmlns:dc="http://purl.org/dc/elements/1.1/"
   xmlns:cc="http://creativecommons.org/ns#"
   xmlns:rdf="http://www.w3.org/1999/02/22-rdf-syntax-ns#"
   xmlns:svg="http://www.w3.org/2000/svg"
   xmlns="http://www.w3.org/2000/svg"
   xmlns:sodipodi="http://sodipodi.sourceforge.net/DTD/sodipodi-0.dtd"
   xmlns:inkscape="http://www.inkscape.org/namespaces/inkscape"
   id="Layer_1"
   x="0"
   y="0"
   version="1.1"
   viewBox="0 0 393.19003 304.22461"
   xml:space="preserve"
   sodipodi:docname="co2.svg"
   width="393.19003"
   height="304.22461"
   inkscape:version="1.0.1 (3bc2e813f5, 2020-09-07)"><metadata
     id="metadata32"><rdf:RDF><cc:Work
         rdf:about=""><dc:format>image/svg+xml</dc:format><dc:type
           rdf:resource="http://purl.org/dc/dcmitype/StillImage" /></cc:Work></rdf:RDF></metadata><sodipodi:namedview
     pagecolor="#ffffff"
     bordercolor="#666666"
     borderopacity="1"
     objecttolerance="10"
     gridtolerance="10"
     guidetolerance="10"
     inkscape:pageopacity="0"
     inkscape:pageshadow="2"
     inkscape:window-width="1517"
     inkscape:window-height="1080"
     id="namedview30"
     showgrid="false"
     inkscape:zoom="1.766"
     inkscape:cx="212.65624"
     inkscape:cy="184.06663"
     inkscape:window-x="1940"
     inkscape:window-y="36"
     inkscape:window-maximized="0"
     inkscape:current-layer="Layer_1"
     inkscape:document-rotation="0" /><defs
     id="defs21" /><style
     id="style23">.st0{fill:#0c592e}</style><path
     d="m 35.976242,134.70663 c -29.7100003,9.98 -41.2600003,43.21 -33.7500003,71.81 7.51,28.6 31.7100003,56.56 62.0500003,60.95 16.47,2.38 33.56,-2.17 45.559998,-13.96 -3.14,-0.4 -6.28,-0.81 -9.42,-1.21 14.91,27.53 42.65,47.03 73.75,51.09 16.53,2.16 33.67,0.14 49.18,-6.01 13.44,-5.33 32.25,-14.96 31.36,-32.03 -3.41,1.41 -6.83,2.83 -10.24,4.24 25.39,22.6 64.14,18.28 92.94,5.08 31.05,-14.23 55.03,-44.49 55.77,-79.47 0.35,-16.58 -5.94,-35.12 -21.64,-42.95 v 10.36 c 12.88,-7.71 15.2,-24.76 14.8,-38.51 -0.44,-14.98 -4.87,-29.88 -12.66,-42.68 -16.19,-26.58 -46.58,-41.94 -77.6,-39.91 -14.98,0.98 -37.76,5.41 -42.54,22.18 h 11.57 c -3.28,-19.47 -18.92,-34.68 -34.81,-45.05 -15.79,-10.31 -34.14,-16.33 -52.86,-18.14000006 C 142.14624,-2.91337 98.466242,11.13663 82.926242,45.75663 c -8.46,18.84 -6.54,41.9 7.72,57.39 2.42,-3.14 4.85,-6.28 7.27,-9.42 -18.44,-7.98 -40.59,-12.08 -57.68,1.3 -13.83,10.83 -17.51,33.03 -3.5,45.43 5.76,5.1 14.28,-3.35 8.49,-8.49 -9.65,-8.54 -5.33,-22.92 4.63,-29.11 12.95,-8.04 28.88,-4.46 42.01,1.22 6.02,2.61 12.179998,-4.1 7.27,-9.42 -10.4,-11.28 -11.63,-28.39 -6.07,-42.26 5.98,-14.94 19.599998,-25.63 33.869998,-32.14 28.84,-13.17 64.11,-10.25 91.46,5.19 15.73,8.88 32,22.73 35.14,41.42 1.03,6.1 10.06,5.31 11.57,0 2.09,-7.32 12.35,-9.84 18.81,-11.45 7.53,-1.88 15.27,-2.43 23,-1.9 15.58,1.07 31.15,7.23 42.83,17.67 11.6,10.37 19.48,24.29 22.89,39.44 1.66,7.39 2.12,15.03 1.41,22.58 -0.65,6.84 -2.21,15.23 -8.58,19.04 -3.66,2.19 -4.14,8.3 0,10.36 11.22,5.6 15.52,18.4 15.7,30.28 0.22,14.6 -4.72,28.85 -12.77,40.92 -15.72,23.58 -44.49,37.74 -72.41,39.52 -15.24,0.97 -31.33,-1.78 -43.06,-12.23 -3.63,-3.23 -10.53,-1.26 -10.24,4.24 0.67,12.81 -19.98,19.98 -29.65,22.95 -13.58,4.18 -28.27,5.22 -42.25,2.48 -25.62,-5.03 -47.64,-21.65 -60.04,-44.54 -1.86,-3.44 -6.74,-3.85 -9.42,-1.21 -10.759998,10.57 -26.919998,13.4 -41.199998,9.36 -15.11,-4.28 -27.61,-15.49 -36.08,-28.42 -9.11,-13.92 -14.9400003,-31.49 -11.28,-48.17 3.07,-13.99 12.49,-26.84 26.37,-31.51 7.31,-2.45 4.19,-14.04 -3.16,-11.57 z"
     class="st0"
     id="path25" /><path
     d="m 168.82624,132.55663 c 3.81,-12.99 -6.82,-25.15 -19.76,-25.66 -14.46,-0.56 -24.86,11.12 -29.71,23.53 -5.39,13.81 -5.82,29.73 -1.97,43.98 3.32,12.3 10.53,25.53 23.28,29.98 15.58,5.44 27.46,-7.34 35.72,-18.68 4.55,-6.25 -5.85,-12.24 -10.36,-6.06 -5.65,7.75 -14.59,18.67 -24.96,11.61 -9.55,-6.5 -13.25,-20.28 -14.03,-31.14 -0.82,-11.36 0.96,-25.23 8.41,-34.37 3.39,-4.16 8.79,-7.57 14.38,-6.83 5.02,0.66 8.91,5.41 7.44,10.44 -2.18,7.44 9.39,10.61 11.56,3.2 z m 83.28,-2.81 c 3.92,-8.01 1.48,-17.13 -5.87,-22.25 -6.94,-4.83 -16.52,-5.12 -24.31,-2.29 -17.45,6.34 -26.45,23.81 -27.46,41.54 -0.55,9.68 0.91,19.71 3.31,29.09 2.27,8.86 6.26,17.44 13.72,23.07 7.04,5.3 16.19,6.9 24.33,3.17 7.32,-3.36 12.57,-10.26 15.91,-17.41 9.45,-20.24 9.66,-44.66 2.58,-65.62 -2.46,-7.28 -14.05,-4.16 -11.57,3.19 5.88,17.41 6.16,36.56 -0.36,53.86 -2.23,5.93 -6.09,13.15 -12.44,15.48 -7.82,2.87 -14.66,-4.13 -17.74,-10.54 -3.68,-7.66 -5.12,-17.09 -5.68,-25.5 -0.55,-8.44 0.07,-17.38 4.06,-25 3.23,-6.17 8.51,-11.65 15.19,-14 3.5,-1.23 7.57,-1.67 11.13,-0.43 2.95,1.03 6.55,4.08 4.83,7.58 -3.38,6.91 6.97,13 10.37,6.06 z m 27.62,-24.22 c 0.25,-0.25 2.62,-2.71 3.38,-1.88 0.23,0.26 -0.84,3.53 -0.87,3.62 -0.84,2.57 -2.31,4.94 -3.85,7.14 -2.91,4.14 -9.51,8.76 -8.74,14.42 0.88,6.52 8.12,6.31 13.17,6.38 7.16,0.1 14.19,-1.87 21.3,-1.62 7.72,0.27 7.71,-11.73 0,-12 -8.62,-0.3 -18,3.52 -26.6,1.31 1.2,0.92 2.39,1.84 3.59,2.76 -0.13,-0.22 -0.25,-0.44 -0.38,-0.66 l 0.6,4.62 c 0.38,-1.55 3.52,-4.04 4.52,-5.31 1.67,-2.11 3.31,-4.27 4.68,-6.59 2.71,-4.62 5.09,-10.52 4.3,-15.96 -0.72,-4.97 -4.33,-8.65 -9.16,-9.82 -5.48,-1.33 -10.61,1.31 -14.42,5.09 -5.49,5.46 3,13.95 8.48,8.5 z"
     class="st0"
     id="path27" /></svg>
