<svg id="Layer_2" data-name="Layer 2" xmlns="http://www.w3.org/2000/svg" viewBox="0 0 373.7 215.78"><defs><style>.cls-1{fill:#d3c7be;}</style></defs><path class="cls-1" d="M421,256.1c-11.31-5.5-7.34-8.86-5.2-11.31,16.82-25.07,16.82-40,14.68-43.72-7.34-2.75-7,.61-12.54,3.67-21.4,12.84-28.12,13.76-32.1,13.15-8.56.3-12.84-14.07-15-18.35,2.75,0,4.59-3.06,8.56-7.34,16.21-16.5,8.56-19.56,4.59-20.79-12.23,2.76-29.66,4.29-33.94,3.37-8.56-1.53-5.2-8.87-4-12.23,3.05-11-3.06-10.09-5.81-8.26-15.59,8.87-24.46-3-24.46-3s-.61-2.14-4.89-1.84c-4.89-1.83-10.09,8.26-14.07,13.76-18,39.13,7.34,77.35,9.79,83.77,4.38,11.36,4,24.15,2.75,31.19-4.59,7.64,19.57,12.84,23.54,13.14,30,4.28,59-1.53,62.06-2.75,10.09-2.14,10.09-7.95,8.57-12.23-4-4.89-11.62-.92-19.57.61-23.85,6.42-33.33.92-36.38,0-5.51-7,3.66-7.95,6.72-8.25,11.62,2.75,14.07.91,17.73.3,17.74-6.42,30-.61,35.78,1.53,20.17,8.26,22.93.92,23.6-2.14C432.42,264.36,424.36,258.85,421,256.1ZM317.45,227.25c-1.84.92-7,4-7.65-5,1.53-2-1.53-4.13,4.59-5C314.39,217.17,322.34,217.17,317.45,227.25Zm11.92-16.81C326.31,212,319,212,312.55,204.63c-.61-4.89-1.15-5.72,0-10.09,0,0,1.53-15.29,14.68-7.64,1.53,3.06-.61,8.86,2.14,11.31C332.43,201.88,335.18,207.08,329.37,210.44ZM370,245c-5.2.61-7.5-3.06-14.75,0-4.2,1.83-9.1,5.34-15.82.07s-5.2-15.05-5.2-15.05-2.14-13.15,8.87-16.21c4.28-.91,18.95-5.19,29,16.21C375.23,235.2,381,240.1,370,245Zm26.91,13.14c-2.45-.61-13.46-4.65,0-8.13C396.94,250,408.25,256.3,396.94,258.13Z" transform="translate(-57.83 -149.18)"/><path class="cls-1" d="M254.39,205.09s12.15-2.81,18.34,15.91c1.38,5,5.73,18.25-9.17,52.42-1.15,2.52-5.5,8.48-9.17,8.71-1.38-1.6-4.36-2.52,0-11.69,1.37-6.42,6.88-39.21-.92-51.59C252.1,216.55,247.28,211.28,254.39,205.09Z" transform="translate(-57.83 -149.18)"/><path class="cls-1" d="M225.27,210.13s9-4.12,16.53,14.22c1.12,6.88,2.5,32.1,2.27,38.06-.92,6.42-2.06,8.49-10.32,28.44-2.29,5-3.9,14-12.38,11.23.92-2.52,4.13-7.33,8.48-28.2.46-7.34,3.44-42.88-6.19-54.8C223,216.55,221.83,213.8,225.27,210.13Z" transform="translate(-57.83 -149.18)"/><path class="cls-1" d="M203,218.16s3.43-4.82,11,1.38a67.46,67.46,0,0,1,3.21,48.38c-.46,3.44-.42,9.4-5.6,10.77-1.28-.45-5.4-2.75-1.74-14,.69-5,3.44-16.28-3.21-27.75C204.4,234.44,195.23,222.52,203,218.16Z" transform="translate(-57.83 -149.18)"/><path class="cls-1" d="M187.43,228.5s6.42-2.32,10.55,9.15c0,3-.66,6.39,2,10.19.33,3.11-.69,14.57-6.25,13.2-1.9-.92-4.42-1.41-4.88-13.2-.69-2.85-2.52-10.42-5.05-12.94C182.85,234.21,179.87,232.42,187.43,228.5Z" transform="translate(-57.83 -149.18)"/><path class="cls-1" d="M226.18,198s7.57-3.69,31.88-1.17c5.27-.45,18.57-5.12,18.57-12.07-.23-1.91-.69-4.89-3.21-6.27-2.52-.92-38.29-13.28-75.21,9.76-2.06,2.39-25,13.63-30,45.5,2.07,1.38,1.61,2.75,7.57,0,1.83-2.29,2.52-2.06,4.13-8.71C181.7,222.29,191.33,204.68,226.18,198Z" transform="translate(-57.83 -149.18)"/><path class="cls-1" d="M262.5,292.81s9.89-4,11.9-3.57,8.42,1.15,5.9,9.86c-.46,2.75-2.29,5.73,3.21,8.49,2.06,1.37,6,5.27-5.27,12.38-3.44,1.37-11.93,3-11,0a20.52,20.52,0,0,1-3.21-7.11c-1.84-1.38-6.88-2-9.17-7.43C254.16,302.77,250.66,294.09,262.5,292.81Z" transform="translate(-57.83 -149.18)"/><path class="cls-1" d="M281,325.47s12.38-7.79,13.53,2.07c.23,2.52.91,7.79-12.16,10.77-2.06.23-7.91,0-8-3.67C274.11,332.12,271.12,328.26,281,325.47Z" transform="translate(-57.83 -149.18)"/><path class="cls-1" d="M284.18,345.19s11,1.84,9.19,12.15c-2.75-.91-11.24-4.81-11.24-6.07C281.22,348.86,278.88,345.88,284.18,345.19Z" transform="translate(-57.83 -149.18)"/><path class="cls-1" d="M294.6,342s7.25-1.83,7.48,6.42a18.23,18.23,0,0,1-1.6,4.13C298,352.3,292.17,350.46,294.6,342Z" transform="translate(-57.83 -149.18)"/><path class="cls-1" d="M306.21,337.39s7.21,0,5.67,7.8c-1.08,2.06-3.15,3.73-5.67,2C305.52,345.42,301.39,338.08,306.21,337.39Z" transform="translate(-57.83 -149.18)"/><path class="cls-1" d="M158.54,235.34s2.52-3.8,6.65,8.2c2.52,4.2,9.86,10.51,11.7,12.63,1.83,2.58,6.65,13.12,10.31,18.4,3.44,2.75,5.51,2.06,9,5s8.71,15.59-3.9,20.41c-2.52.69-6.65,4.13-16.51-2.06-.23-1.84-3.21-6,0-13.53-.69-6.19-10.55-22.82-19-28.26-3.21-.41-7.34-.41-8.72-1.09C147.08,252.55,146.62,238.3,158.54,235.34Z" transform="translate(-57.83 -149.18)"/><path class="cls-1" d="M135.61,254.07s2.52-1.06,6.42,7.08c2.52,1.72,6.42,2.18,11,6.08,1.83,3.67,3.44,5.27,0,8.94-1.84.69-7.8,3.44-15.14-5.5C136.53,267.69,129,256,135.61,254.07Z" transform="translate(-57.83 -149.18)"/><path class="cls-1" d="M125.75,270.44s2.29-.23,10.32,8.25c3.9,2.3,11.92,6.65,13.76,6.65,0,4.36.77,7.11-2.25,8.49-2.11.23-1.18-1.12-3.59-1-2,1.48-3.47,6.75-6.16,4-1.53-.92-7.49-4.89-6.35-7.6-2.29-2.26-1.6-2.72-8.48-6.16a13.33,13.33,0,0,1,0-8.48l-.23-2.3S121.85,270.44,125.75,270.44Z" transform="translate(-57.83 -149.18)"/><path class="cls-1" d="M112.22,284a28.83,28.83,0,0,1,14,11.64,52.89,52.89,0,0,1,8.71,6.94c-.91,3.84-3.21,9.8-15.13,5.44-1.38-.91-.92-2.75-2.75-3.66-2.07-.69-3.67.73-4.82,1.05-3.67-1.28-10.54-6.17-6-16.22C108.1,286.49,107.87,284.29,112.22,284Z" transform="translate(-57.83 -149.18)"/><path class="cls-1" d="M93.65,283.05s7.8-1.6,6,21.1c.69,3.21.28,4.35.28,4.35a2.68,2.68,0,0,1-3.06,1.07c-.89-2.21-.89-1.25-2-4.14-1.61-2.89.68-3.64-4.59-3.84-1.6-1.8-5.5-5.47-1.38-11.2C89.75,286.26,89.52,282.82,93.65,283.05Z" transform="translate(-57.83 -149.18)"/><path class="cls-1" d="M83.56,285.57l-3,16c-3.21-.88-8-1.37-5.27-8-1.61-.44-7.34-2.5-1.84-8C75.76,284.43,78,282.39,83.56,285.57Z" transform="translate(-57.83 -149.18)"/><path class="cls-1" d="M58.57,277.11s2.75-4.38,9.17,3.42c1.15,3.44,2.75,3.21,0,7.79-1.61.46-3.21,4.08-9.17-5.29C58.57,281.22,56.9,278.24,58.57,277.11Z" transform="translate(-57.83 -149.18)"/><path class="cls-1" d="M170.69,307.13s2.76-.92,10.09,5.73c2.53.46,7.32-.46,10.43-1.15,3.56,2.75,7.23,8-2.4,12.39-2.06,2.29-16.28,15-16.74,23.07-1.15,2.15-5.73,5.87-11,0-2.06-2.44-6.88-3.81,0-13,2.3-5,6.65-10.54,7.11-15.82C167.25,314,166.11,307.36,170.69,307.13Z" transform="translate(-57.83 -149.18)"/><path class="cls-1" d="M182.41,347.9s3.42-2.76,6.4,2.43c2.06,5.41,2.52,4.49,0,7-2.29.69-3.39,2.3-6.4-3.21C181.24,351.38,179.6,348.57,182.41,347.9Z" transform="translate(-57.83 -149.18)"/><path class="cls-1" d="M172.3,355.28s4.13-2.06,6.19,2.06c.69,2.07,3.21,4.82-.92,5.74-1.83,1.14-4.58,1.31-6.19-4.16A19.88,19.88,0,0,0,172.3,355.28Z" transform="translate(-57.83 -149.18)"/><path class="cls-1" d="M158.54,355.74s3-1.84,6.19,4.58v4.59c-3.21.23-5.53-.1-7.24-5.67C157.17,356.89,156,355.58,158.54,355.74Z" transform="translate(-57.83 -149.18)"/></svg>