<svg id="Layer_2" data-name="Layer 2" xmlns="http://www.w3.org/2000/svg" viewBox="0 0 289.46 134.68"><defs><style>.cls-1{fill:#d3c7be;}</style></defs><path class="cls-1" d="M198.67,234.38c-2.52-1.38-5.28-10.09-6.19-12.08-1.84-4.52-3.21-9.71-4.13-12.46-2.75-11-5-9.4-7.34-10.32-11.23-1.14-23.39,9.86-25.22,11.93a178.88,178.88,0,0,1-14.45,14,97.28,97.28,0,0,0-19.49,19.72,2.5,2.5,0,0,0,.11,2.94c2.75,4.75,15.16,11.51,19.61,15.41,0,0-10.77-3.67-14.9-5.05-4.82-1.37-3.9,1.61-3,2.75,19.72,24.31,44,35.09,46.32,35.55,11-2.07,21.78-14.45,22.93-16.28,8.48-11.24,4.81-25,4.35-27.52C201,244,199.82,236.9,198.67,234.38Zm-33.42,7a10.84,10.84,0,1,1,10.83-10.83A10.83,10.83,0,0,1,165.25,241.37Z" transform="translate(-121.42 -196.99)"/><path class="cls-1" d="M199.79,252.55s.29,2.3,3.62,1.53c.88-.65,2.25-2.48,3.59-2.63.88.23,2.22,3.74,5.62,4.43,1.18,0,3.06-2.6,6.38-2.75.73.11,2.6,3.32,4.82,4.47,1.14-.15,3.51-3.67,5.65-3.59.77,0,1.68-.08,4.13,3.13,1.3,1.45,1.3,2.29,2.83,2.14,1.45-.76,4-3.44,6.11-3.13a7.31,7.31,0,0,1,3.36,2.37c1,1.3,1.69,1.91,2.3,1.6,1.14-.38,3.44-2.9,5.65-2.37a16.42,16.42,0,0,1,4.21,3.59c.84.46,2.21,1,4.12-.76,1.3-.46,2.37-1.76,3.67-1.07s1.53,1.15,4.44,3.9c.84.15,3-.61,4.58-2.3.54-.15,1.68-1.26,4.36,2.32.92,1,1.22,2,3.52,1.2,1.14-.46,2.75-2.14,5.12-2.22a5.72,5.72,0,0,1,3.89,3c1,.62,1.23.39,2.53,0,1.68-.68,4.2-2.9,5.5-2.52,1.45.61,2.22,4.28,4.74,3.9,1-.38,3.67-2,4.51-1.83s.76-.62,3,2.67c1,.23,2.22,1.07,5.12-1.15.61.16,1.15-.38,3.52,2.68a2.38,2.38,0,0,0,3-.38c.46,0,.68-.69,2.67,1.22,1.23.54.84.54,3.29,0,.84.23,1.68,1.15,3.67,1.61,1.45-.16,4.81-.92,5.65.38l.31,2.9a8.67,8.67,0,0,1-5.12-.38c-.61-.23-3-1.83-4.59.15-.46.31-.91.84-2.9-.61-.61-.84-2-2.06-3.9.08-.61.23-1-1.3-2.6-1.22-1.3.22-1,.53-3.44,1.83A6.25,6.25,0,0,1,312.1,272c-.69,0-1.3,1.92-4.13,1.84a25.16,25.16,0,0,1-3.9-3.52c-.69.46.54-1.3-5.73,2.91-.77.07-2.14,1.07-6.35-4.36a6.6,6.6,0,0,0-5,2.14c-.92-.08-2.07.23-5.89-2.83-.69-.46-2.29-1.37-5.81,1.3-.69.08-2.49,1.12-4.58-3.28-.46-.23-2.37-1.07-4.44,2-.84.23-1.91,1.3-6-2.9-.31-.46-1.83-2.6-3.13-1.07a11.17,11.17,0,0,1-4.9,2.67c-1-.46-2,.77-5.27-3.21-.92-.15-1.53-1.3-5,2.14-.69.23-1.46,1.69-5.66-3.13-.61-.61-2.75-2.52-4.43-.69-.61,1.07-2.3,2.83-3.21,2.6-1.07-.31-2.37.48-5.05-4.51-.69-.3-1.53-2.6-4.66,2.22-.84.46-1.91,2.14-4.74-1.91-.69-1.15-2.29-4-4.89-2.22-.92,1.76-1.91,2.75-3.36,3.06a23.43,23.43,0,0,1-4.36-4.21,12,12,0,0,0-1.86.31S198.31,254.69,199.79,252.55Z" transform="translate(-121.42 -196.99)"/><path class="cls-1" d="M205.24,197s-3.36,6-1.37,53c1.07-.89,2.9-3.39,3.36-1.91C207.23,244.38,203.87,204.17,205.24,197Z" transform="translate(-121.42 -196.99)"/><path class="cls-1" d="M205.23,262.57s-.75,1.09,2,.7c0,3,2.9,21.16,5.35,29.26C210,287.33,206,278.16,205.23,262.57Z" transform="translate(-121.42 -196.99)"/><path class="cls-1" d="M209.83,251.45a4.64,4.64,0,0,0,2.75,2.86c-.31-2.29,6-51.06,8.41-56.25C218.24,204.78,213.19,219.23,209.83,251.45Z" transform="translate(-121.42 -196.99)"/><path class="cls-1" d="M216.55,263.94a1.79,1.79,0,0,0,2.76,0c.45,4.74,2.75,19.26,1.68,27.37C220.38,285.5,217.77,266.09,216.55,263.94Z" transform="translate(-121.42 -196.99)"/><path class="cls-1" d="M219.92,251.45s1.28.4,2,2.86c.46-3.67,9-38.06,14.83-51.51C234.59,206.31,228.63,210.82,219.92,251.45Z" transform="translate(-121.42 -196.99)"/><path class="cls-1" d="M226.8,265.32s.86,2.21,2.59,0c.46,3.21,1.69,16.05,0,22.32C229.39,282.29,227.59,267.12,226.8,265.32Z" transform="translate(-121.42 -196.99)"/><path class="cls-1" d="M230.25,252s2.58,1,3,3.06c.46-4.13,8.71-40.82,13.3-48.46C242.39,213.65,238.61,215.64,230.25,252Z" transform="translate(-121.42 -196.99)"/><path class="cls-1" d="M233.06,263.27s.92-1,2.45.67c.61,2,1.83,11.77,0,14.83C235.51,275.71,234.59,265.35,233.06,263.27Z" transform="translate(-121.42 -196.99)"/><path class="cls-1" d="M241,253.55a2.11,2.11,0,0,1,3.37.76c.3-3.21,9.78-37.3,12.53-43.11C254.31,215.33,249.57,219.76,241,253.55Z" transform="translate(-121.42 -196.99)"/><path class="cls-1" d="M240.4,267.46s2.58,1.27,2.75-.77c1.23,2.91,8.72,16.21,10.86,46.48C253.24,308.27,244.83,277.24,240.4,267.46Z" transform="translate(-121.42 -196.99)"/><path class="cls-1" d="M252.1,255.82s1.77-1.55,3.21,1c.45-3.21,8.48-36,12-40.45C263.18,223.13,261.5,220.8,252.1,255.82Z" transform="translate(-121.42 -196.99)"/><path class="cls-1" d="M251.41,268.83s2.44.92,3.36-.61c.92,3.21,8.26,22.47,7,43.72C260.89,305.83,254.46,275,251.41,268.83Z" transform="translate(-121.42 -196.99)"/><path class="cls-1" d="M263.45,257.66a2,2,0,0,1,3.61.51c.17-2.35,6.36-32.1,9.57-35.88C273,228.36,271.36,227.33,263.45,257.66Z" transform="translate(-121.42 -196.99)"/><path class="cls-1" d="M263.45,269.75s2.79,1.84,3.86,0c.84,2.52,5.31,14.33,5.77,41.05C272.16,302.54,266.54,274.18,263.45,269.75Z" transform="translate(-121.42 -196.99)"/><path class="cls-1" d="M275.79,259.13s1.77-1.76,2.83,1.53c.38-2.91,6.65-22.93,10.7-30.58C286.64,234.29,281.86,240,275.79,259.13Z" transform="translate(-121.42 -196.99)"/><path class="cls-1" d="M274.26,271.36s3.75-2.75,4.2-.92,2.83,1.76,1.46,37.6C279.69,301.85,278,278.08,274.26,271.36Z" transform="translate(-121.42 -196.99)"/><path class="cls-1" d="M288.17,261s2.74.09,2.68,1.53c.38-2.37,4.81-20.11,9.32-25.61C297.88,239.56,293.6,242.62,288.17,261Z" transform="translate(-121.42 -196.99)"/><path class="cls-1" d="M286.34,272.35a2.49,2.49,0,0,0,3.44-.38c.61,1.68,4,12.3,1.83,31.57C291.15,298.18,288.71,277.17,286.34,272.35Z" transform="translate(-121.42 -196.99)"/><path class="cls-1" d="M298.41,261.88a2.36,2.36,0,0,1,3.44,1.09c.08-2.24,4.44-16.3,7-19.66C306.44,246.13,300,253.55,298.41,261.88Z" transform="translate(-121.42 -196.99)"/><path class="cls-1" d="M297.88,274.57s2.22.91,2.75-.84c.84,1.91,5.89,4.58,2.68,25.91C303.08,295.66,300.59,276.8,297.88,274.57Z" transform="translate(-121.42 -196.99)"/><path class="cls-1" d="M307.89,263.94s2.22-.61,3.21.77a154.79,154.79,0,0,1,6.65-17.51C315.76,250,308.58,258.52,307.89,263.94Z" transform="translate(-121.42 -196.99)"/><path class="cls-1" d="M306.75,274.34a3.37,3.37,0,0,0,2.9.75c.84,1.77,4.05,5.74,1.76,21.64C311.33,292.45,309.42,277.47,306.75,274.34Z" transform="translate(-121.42 -196.99)"/><path class="cls-1" d="M317.29,265.78s2.07-1.84,3.29,1.6c.23-2.29,1.76-11.46,4.2-13.3C322.18,256.53,319.13,259.05,317.29,265.78Z" transform="translate(-121.42 -196.99)"/><path class="cls-1" d="M316.38,275.79s1.91.66,2.59-.7c1.07,1.54,4.06,5.82,1.69,16.52C320.35,288.71,319,277.87,316.38,275.79Z" transform="translate(-121.42 -196.99)"/><path class="cls-1" d="M325.55,268.22a2.09,2.09,0,0,0,1.91,1.59,21,21,0,0,1,3.21-6.54,9.76,9.76,0,0,0,1.07-4.45,32.38,32.38,0,0,1-2.37,4.45A28,28,0,0,0,325.55,268.22Z" transform="translate(-121.42 -196.99)"/><path class="cls-1" d="M323.48,275.09s.47.46,1.3-.75c1.61,1.53,5.35,6.34,2.76,15.13C327.46,286.64,327.38,280.12,323.48,275.09Z" transform="translate(-121.42 -196.99)"/><path class="cls-1" d="M332.58,270.21s1.68-5.27,4.28-5.5c-.84,1.14-2.13,4.43-1.68,5.5C334.49,270.44,333.27,270.75,332.58,270.21Z" transform="translate(-121.42 -196.99)"/><path class="cls-1" d="M329.9,275.48a1.66,1.66,0,0,1,2.68,0,21.46,21.46,0,0,1,0,10.06C332.66,282.59,331.51,277.39,329.9,275.48Z" transform="translate(-121.42 -196.99)"/><path class="cls-1" d="M335.41,275.71a3.09,3.09,0,0,0,1.45,0c.76,1.23.69,8.64.61,6.19S337.32,278.46,335.41,275.71Z" transform="translate(-121.42 -196.99)"/><path class="cls-1" d="M183.08,293a14.89,14.89,0,0,1-7.19,4.51c1.68,2,21.1,22.54,47.62,25.22,2.6.23,18.8,2,23.08.38-2.83-.53-26.06-1.3-37.37-6.8,2.67.15,6.8-.46,7.33-1.22C213.27,314.77,187.43,300.78,183.08,293Z" transform="translate(-121.42 -196.99)"/><path class="cls-1" d="M340,272s8.49-20,45.17-31.74c2.3-.86,20.41-7,25.69-5-4.36,2.07-10.44,3.67-14.79,6.65,2.75-.46,5.61-1.37,8.36-1.14-5.38,1.94-14.21,4.58-18,7.68,4.25-.23,7.92-2.07,12.62-2-1.15,1.37-1.95,2.52-14,6.07-2.64,1.15-4.24,1.84-4.24,2.76,2.29-.69,8.37-3.33,13.76-3.33-3,1.49-14.68,6.54-24.43,10.09,3.1-.57,13.76-2.06,19.38-4.7-2.29,1.95-12.15,7.52-22.7,10.24,5.39-.72,15-1.3,17.43-2.9-4.7,2.52-18,7.53-21.9,7.26a54.51,54.51,0,0,1,9.4,1.76A51.29,51.29,0,0,1,356.54,277c1.26,1.61,7.68,8.41,10,9.71-2.41-.3-7.91-.88-8.26-1.68,2.18,2.18,10.32,10.28,12,11.73-2.75-.84-8.48-2.79-11.24-4.51,2.41,2.3,13.53,11.93,13.88,11.93-2.87-1.49-12.5-6.65-15.48-9.18,3.09,3.1,17.08,19.95,19.6,24.08-2.63-1.95-15-13.07-20.86-20.29,1.49,3.44,22.58,32.44,23,32.9-4.81-3.09-28.43-19.72-35.31-42.19C342.44,286.83,339.46,275.56,340,272Z" transform="translate(-121.42 -196.99)"/></svg>