<?xml version="1.0" encoding="utf-8"?>
<!-- Generator: Adobe Illustrator 19.0.0, SVG Export Plug-In . SVG Version: 6.00 Build 0)  -->
<svg version="1.1" id="Layer_1" xmlns="http://www.w3.org/2000/svg" xmlns:xlink="http://www.w3.org/1999/xlink" x="0px" y="0px"
	 viewBox="0 0 612 792" style="enable-background:new 0 0 612 792;" xml:space="preserve">
<style type="text/css">
	.st0{fill:#83A656;}
	.st1{fill:#4892BD;}
	.st2{fill:#8DC63F;}
	.st3{fill:#BF9097;}
	.st4{fill:#B4AB8D;}
	.st5{fill:#F09EAA;}
	.st6{fill:#DECE9A;}
	.st7{fill:#F1F2F2;}
</style>
<g id="XMLID_1053_">
	<path id="XMLID_1075_" class="st0" d="M492.1,238c10.8,2.3,21.7,4.7,31.7,9.4s19.2,11.9,24.3,21.7c-8.5,1.3-12.2,11.3-18.8,16.8
		c-4.6,3.8-10.5,5.4-16.3,6.7c-27,6.3-54.7,9.5-82.5,9.4c-33.1-0.1-66.4-4.7-99.3-1.4c-19,1.9-37.6,6.5-56.5,9.4
		c-16.8,2.6-33.8,4-50.8,5.4c-10.6,0.9-21.5,1.7-31.6-1.7c-9.4-3.1-17.2-9.6-24.5-16.2c-5.9-5.3-11.9-11.4-12.6-19.3
		c-0.2-2.2,0.1-4.6,1.4-6.5c1.5-2.2,3.9-3.4,6.4-4.4c15.7-6.6,32.7-9.1,49.5-11.6c18.3-2.7,36.7-5.4,55.2-7
		c23.2-1.9,46.5-2,69.7-3.6c34.7-2.4,69.3-8.1,104.1-6c17,1,34.7,3.9,50.7-2"/>
	<g id="XMLID_1068_">
		<path id="XMLID_1074_" class="st0" d="M492,238.6c13.1,2.9,26.7,5.8,38.3,12.9c4.7,2.9,9,6.4,12.5,10.6c0.8,0.9,4.7,5.1,4,6.7
			c-0.3,0.6-3.8,1.7-4.6,2.3c-3.7,2.7-6.2,6.7-9.1,10.1c-4.6,5.5-10.1,8.2-16.9,10c-13.4,3.5-27.3,5.8-41.1,7.5
			c-27.8,3.4-55.5,2.7-83.4,1.2c-27.4-1.4-54.2-1.7-81.3,3c-13.2,2.3-26.3,5.1-39.6,7.1c-14.9,2.2-29.9,3.4-44.8,4.7
			c-13.3,1.1-27,2.2-39.3-4c-5.6-2.8-10.6-6.8-15.3-10.8c-4.9-4.2-10.3-8.8-13.3-14.6c-1.7-3.2-3-7.3-1.9-10.9
			c1.3-4.6,6.4-6.2,10.4-7.7c6.2-2.4,12.7-4.1,19.1-5.6c12.9-2.9,26.2-4.6,39.3-6.5c28.1-4.1,56-6.2,84.3-7.4
			c31.4-1.2,62.5-5.2,93.9-7.1c15.6-1,31-0.9,46.5,0.3c14.3,1.1,28.8,2.2,42.6-2.6c0.8-0.3,0.4-1.5-0.3-1.2
			c-12.8,4.5-26.2,3.8-39.5,2.8c-13.5-1-26.9-1.5-40.5-1c-27.5,1.1-54.8,5.1-82.3,6.6c-26.7,1.5-53.5,1.8-80.1,5
			c-12.4,1.5-24.8,3.3-37.2,5.2c-12.6,1.9-25.2,3.8-37.5,7.4c-7.4,2.2-20,4.6-20.2,14.3c-0.2,9.8,8.6,17.4,15.3,23.3
			c8,7,16.8,13.4,27.4,15.5c11.9,2.4,24.5,0.5,36.5-0.5c12.8-1.1,25.6-2.3,38.3-4.2c12.9-1.9,25.7-4.7,38.6-6.9
			c27.6-4.8,55-4.3,82.9-2.9c29.9,1.6,59.5,1.9,89.3-2.4c13.1-1.9,27.6-3.5,39.9-8.5c5.3-2.1,8.9-5.5,12.4-9.9
			c3.7-4.6,7.1-9.5,13.2-10.8c0.4-0.1,0.6-0.6,0.4-0.9c-11.1-20.8-35.1-26.8-56.4-31.4C491.5,237.3,491.2,238.5,492,238.6L492,238.6
			z"/>
	</g>
</g>
<polygon id="XMLID_602_" class="st1" points="550.7,270.7 168.3,299.9 208.3,448.4 519.2,409.2 "/>
<polyline id="XMLID_598_" class="st1" points="208.3,448.4 175.4,430.8 148.8,263.6 175.4,282.9 "/>
<g id="XMLID_597_">
	<path id="XMLID_1067_" class="st2" d="M300.4,263.3c2.5-8.6,3.9-17.5,4.4-26.4c-1.7,3.3-4.5,6-6.9,8.9c-2.4,2.9-4.5,6.3-4.7,10
		c-0.1,3.7,2.4,7.8,6.1,8.1"/>
	<g id="XMLID_1060_">
		<path id="XMLID_1066_" class="st2" d="M301,263.5c2.4-8.7,3.9-17.5,4.4-26.6c0-0.6-0.9-0.8-1.2-0.3c-3.4,5.9-10.3,10.5-11.4,17.6
			c-0.8,4.7,1.6,9.3,6.4,10.3c0.8,0.2,1.1-1,0.3-1.2c-9.2-1.9-5-12.4-1.2-17.1c2.4-3,5-5.6,7-9c-0.4-0.1-0.8-0.2-1.2-0.3
			c-0.5,8.9-2,17.6-4.4,26.2C299.6,263.9,300.8,264.3,301,263.5L301,263.5z"/>
	</g>
</g>
<g id="XMLID_596_">
	<path id="XMLID_1059_" class="st2" d="M343.8,278.1c4.6-7.4,6.6-16.4,5.7-25c-4.7,2.3-8.4,6.8-9.7,11.9c-1.3,5.1-0.2,10.8,2.9,15"
		/>
	<g id="XMLID_1051_">
		<path id="XMLID_1058_" class="st2" d="M344.4,278.4c4.6-7.8,6.6-16.3,5.8-25.3c0-0.5-0.5-0.8-0.9-0.5c-10.3,5.5-13.4,18-6.9,27.7
			c0.4,0.7,1.5,0,1.1-0.6c-2.9-4.3-4.1-9.4-2.9-14.5c0.6-2.3,1.6-4.3,3-6.2c0.7-0.9,4.2-5.2,5.1-4.6c2,1.3,0,10.1-0.4,11.6
			c-1,4.2-2.7,8.2-4.9,11.9C342.9,278.5,344,279.1,344.4,278.4L344.4,278.4z"/>
	</g>
</g>
<g id="XMLID_595_">
	<path id="XMLID_1050_" class="st2" d="M407.8,258.3c3.3-7.2,5.9-14.7,7.7-22.4c0.1-0.6,0.3-1.3-0.1-1.8c-0.3-0.3-0.7-0.5-1.1-0.5
		c-2.7-0.4-4.7,2.4-5.8,5c-1.6,3.8-2.7,7.8-3.3,11.9c-0.5,3.2-0.4,6.9,1.8,9.2"/>
	<g id="XMLID_1043_">
		<path id="XMLID_1048_" class="st2" d="M408.3,258.6c3-6.7,5.6-13.6,7.3-20.8c0.6-2.6,1-5.6-2.8-4.8c-4.5,0.8-6.3,8.6-7.2,12
			c-1.3,4.9-2.5,10.6,0.8,14.9c0.5,0.6,1.6,0,1.1-0.6c-2.8-3.6-2-8.1-1.1-12.2c0.7-3.4,2.4-12.4,6.6-11.5c2-0.4,2.4,0.2,1.4,2
			c-0.2,0.9-0.4,1.8-0.7,2.7c-0.5,1.8-1,3.5-1.6,5.2c-1.4,4.3-3.1,8.5-4.9,12.6C406.9,258.7,408,259.4,408.3,258.6L408.3,258.6z"/>
	</g>
</g>
<g id="XMLID_594_">
	<path id="XMLID_1041_" class="st2" d="M466.5,239.2c2.8-3.4,5.7-6.9,7.7-10.9c2-4,3.1-8.6,2.2-13c-1.7,1.3-3.4,2.6-5.2,3.9
		c-1.5,1.1-2.9,2.3-3.9,3.8c-1.2,1.9-1.6,4.3-1.7,6.6c-0.2,2.9,0,5.8,0.4,8.7c0.1,0.5,0.8,1,0.8,0.5"/>
	<g id="XMLID_1034_">
		<path id="XMLID_1040_" class="st2" d="M466.9,239.7c5.9-7.1,11.6-14.8,10.1-24.5c-0.1-0.4-0.6-0.6-0.9-0.4
			c-3.6,2.8-8.6,5.5-10.3,10c-1.3,3.5-2.2,11.5,0,14.5c0.2,0.2,0.4,0.4,0.7,0.3c0.1,0,0.3-0.1,0.4-0.1c0.8-0.2,0.4-1.4-0.3-1.2
			c-0.3,0.1-0.3-10.5-0.1-11.2c0.5-2.3,1.4-4,3-5.6c1.1-1.1,3.7-3.9,5.2-4.1c0.8-1,1.3-0.5,1.3,1.3c0,1.4-0.2,2.7-0.5,4
			c-0.5,2.1-1.3,4.2-2.3,6.1c-1.9,3.7-4.6,6.9-7.2,10.1C465.5,239.4,466.4,240.3,466.9,239.7L466.9,239.7z"/>
	</g>
</g>
<g id="XMLID_593_">
	<path id="XMLID_1033_" class="st2" d="M500.8,239.6c5.3-2.8,9.6-7.5,11.9-13.1c0.5-1.2,0.8-3-0.4-3.6c-1.2-0.7-2.5,0.4-3.4,1.5
		c-2.1,2.4-4.1,4.8-5.6,7.6c-1.5,2.8-2.4,6-1.9,9.1"/>
	<g id="XMLID_1026_">
		<path id="XMLID_1032_" class="st2" d="M501.2,240.2c4.1-2.3,7.5-5.4,10-9.3c1.1-1.6,4.4-6.7,1.6-8.4c-2.8-1.7-6,3.6-7.2,5.2
			c-3,4-5.2,8.3-4.7,13.4c0.1,0.8,1.3,0.8,1.3,0c-0.3-3.5,0.6-6.8,2.4-9.8c0.9-1.5,1.9-2.8,3-4.2c0.4-0.5,0.8-0.9,1.1-1.4
			c0.8-1.5,2-1.5,3.7-0.1c0.4,2-3.9,6.9-4.9,8.1c-2,2.2-4.4,4-6.9,5.4C499.8,239.5,500.5,240.6,501.2,240.2L501.2,240.2z"/>
	</g>
</g>
<g id="XMLID_592_">
	<path id="XMLID_1025_" class="st2" d="M526.5,257.4c4.3-0.7,8.2-3.7,10-7.8s1.2-9-1.3-12.6c-0.5,1.6-1.4,3.1-2.6,4.3
		c-1.2,1.2-2.7,2.1-3.6,3.4c-1.2,1.7-1.5,3.9-1.8,6c-0.4,3.6-0.9,7.2-1.3,10.8"/>
	<g id="XMLID_1018_">
		<path id="XMLID_1024_" class="st2" d="M526.7,258c9.9-2.1,14.3-12.7,9-21.2c-0.3-0.5-1-0.3-1.1,0.1c-1.5,4.1-5.8,5.8-7.3,9.9
			c-1.6,4.6-1.5,10.1-2.1,14.8c-0.1,0.8,1.2,0.8,1.3,0c0.7-5.5,0.3-13.5,4.2-17.7c2.1-2.3,4-3.6,5.1-6.7c-0.4,0-0.8,0.1-1.1,0.1
			c4.9,7.9,0.8,17.5-8.2,19.4C525.6,257,525.9,258.2,526.7,258L526.7,258z"/>
	</g>
</g>
<g id="XMLID_591_">
	<path id="XMLID_1017_" class="st2" d="M514.5,254.6c3.1-2.5,5.9-5.3,7.6-8.9s2-7.9,0.1-11.4c-0.4,2.8-1.7,5.4-3.7,7.3
		c-1.2,1.1-2.7,2-3.8,3.3c-3.2,3.5-2.9,9.1-0.8,13.4"/>
	<g id="XMLID_1010_">
		<path id="XMLID_1016_" class="st2" d="M515,255.1c6.3-5.2,11.7-12.7,7.9-21c-0.2-0.5-1-0.4-1.1,0.1c-0.8,4.2-3.2,6.4-6.1,9.2
			c-1.3,1.2-2.3,2.4-3,4.1c-1.4,3.7-0.7,7.6,0.9,11.2c0.3,0.7,1.4,0.1,1.1-0.6c-2.9-6.4-1.1-10.9,3.8-15.3c2.5-2.2,3.9-4.9,4.5-8.2
			c-0.4,0-0.8,0.1-1.1,0.1c3.6,7.9-1.9,14.7-7.7,19.5C513.5,254.7,514.4,255.6,515,255.1L515,255.1z"/>
	</g>
</g>
<g id="XMLID_590_">
	<path id="XMLID_1009_" class="st2" d="M515.8,268.6c3.7,4.2,5.3,10.3,4.1,15.8c-0.4,2-1.8,4.3-3.8,3.9c-2.8-5.8-3-12.8-0.6-18.7"/>
	<g id="XMLID_1002_">
		<path id="XMLID_1008_" class="st2" d="M515.4,269c2,2.4,3.4,5.2,4,8.3c0.3,1.3,0.4,2.7,0.3,4c0,0.9-0.1,1.9-0.3,2.8
			c0,1.8-0.7,2.3-2.1,1.7c-2-0.2-1.8-0.9-2.2-2.6c-0.3-1.6-0.5-3.3-0.5-4.9c0-3,0.6-5.8,1.7-8.6c0.3-0.8-0.9-1.1-1.2-0.3
			c-2.4,6.4-2.1,13,0.6,19.2c0.1,0.2,0.3,0.3,0.5,0.3c3.9-0.1,4.7-4.4,4.8-7.6c0.2-4.9-1.6-9.4-4.7-13.2
			C515.8,267.5,514.9,268.4,515.4,269L515.4,269z"/>
	</g>
</g>
<g id="XMLID_589_">
	<path id="XMLID_1001_" class="st2" d="M442.3,263.6c4.3-7,4.6-16.2,0.9-23.5c-0.3-0.6-0.9-1.3-1.5-1c-0.2,0.1-0.4,0.3-0.5,0.5
		c-3.1,3.8-5,8.7-4.9,13.6c0.1,4.9,2.4,9.8,6.3,12.9"/>
	<g id="XMLID_994_">
		<path id="XMLID_999_" class="st2" d="M442.8,263.9c2.9-5.1,4.2-10.9,3.3-16.7c-0.3-2-1.3-9.4-4.6-8.7c-1.4,0.3-2.9,3.7-3.5,4.8
			c-1.3,2.5-2.1,5.3-2.2,8.2c-0.4,5.8,2.1,11.2,6.4,14.9c0.6,0.5,1.5-0.4,0.9-0.9c-3.4-2.9-5.4-6.6-5.9-11
			c-0.4-3.5,0.4-10.9,3.6-13.4c2.6-2,3,1.5,3.5,3.4c0.6,1.9,0.8,3.9,0.9,5.9c0.1,4.6-1.1,8.9-3.4,12.9
			C441.4,264,442.4,264.6,442.8,263.9L442.8,263.9z"/>
	</g>
</g>
<g id="XMLID_588_">
	<path id="XMLID_992_" class="st2" d="M403.5,212.6c1.4-2.8,2.9-5.6,3.7-8.7s0.9-6.4-0.3-9.3c-0.3-0.7-1-1.6-1.7-1.2
		c-0.3,0.1-0.4,0.4-0.6,0.7c-1.1,1.9-2.1,3.8-3.2,5.7c-0.9,1.5-1.7,3.1-2,4.8c-0.3,2.2,0.3,4.4,0.9,6.5c0.7,2.5,1.6,5.1,3.8,6.6"/>
	<g id="XMLID_985_">
		<path id="XMLID_991_" class="st2" d="M404,212.9c2.1-4.1,4.2-8.3,4.3-12.9c0.1-2.6,0-6.6-3.1-7.2c-0.2,0-0.5,0-0.6,0.2
			c-5.8,6.8-9.1,18.5-1.1,25.2c0.6,0.5,1.5-0.4,0.9-0.9c-5.6-4.7-5.5-14.7-1-20c0.8-0.9,1.8-2.4,3.3-1c0.9,0.9,0.3,4.7,0.1,6
			c-0.6,3.6-2.2,6.8-3.9,10C402.6,213,403.6,213.6,404,212.9L404,212.9z"/>
	</g>
</g>
<g id="XMLID_587_">
	<path id="XMLID_984_" class="st2" d="M242.7,267.3c2.8-7.8,1.3-16.9-3.9-23.3c-3.1,4.1-4.3,9.6-3.3,14.7s4.1,9.7,8.5,12.4"/>
	<g id="XMLID_977_">
		<path id="XMLID_983_" class="st2" d="M243.3,267.5c2.7-8.3,1.3-16.9-4-23.8c-0.3-0.4-0.8-0.4-1.1,0c-6.4,9.5-4.1,21.5,5.4,27.9
			c0.7,0.5,1.3-0.6,0.6-1.1c-3.8-2.6-6.7-6.2-7.9-10.7c-0.5-1.9-0.7-3.9-0.6-5.8c0.1-1.5,0.8-6.9,2.3-7.8c1.6-0.9,1.7-0.1,2.7,1.9
			c0.9,1.8,1.6,3.7,2.1,5.6c1,4.5,0.7,9-0.7,13.4C241.9,267.9,243.1,268.3,243.3,267.5L243.3,267.5z"/>
	</g>
</g>
<g id="XMLID_586_">
	<path id="XMLID_976_" class="st2" d="M192.9,289.2c3.8-7.8,4-17.3,0.5-25.2c-0.3-0.6-0.6-1.3-1.2-1.7s-1.6-0.2-1.8,0.5
		c-0.1,0.3,0,0.6,0,0.9c0.5,5.3-4,10-4.2,15.3c-0.2,3.7,2,7.5,5.3,9.2"/>
	<g id="XMLID_969_">
		<path id="XMLID_975_" class="st2" d="M193.4,289.5c2.8-6.2,3.8-12.8,2.5-19.5c-0.3-1.7-1.7-9.9-5.1-8.4c-1.6,0.7-0.9,2-1.1,3.5
			c-0.3,3.9-2.7,7.1-3.7,10.9c-1.4,5.2,0.5,9.9,5.1,12.8c0.7,0.4,1.3-0.7,0.6-1.1c-6.1-3.8-5.4-9.6-3-15.3c0.9-2.2,1.2-5.3,2.2-7.2
			c-0.4-2.3,0.4-2.1,2.4,0.6c0.2,0.5,0.3,1,0.5,1.5c1,2.3,1.2,5.3,1.3,7.8c0.2,4.8-0.9,9.5-2.9,13.9
			C192,289.6,193.1,290.2,193.4,289.5L193.4,289.5z"/>
	</g>
</g>
<g id="XMLID_585_">
	<path id="XMLID_968_" class="st2" d="M235.1,292.9c2.8-5.7,3.6-12.3,2.2-18.5c-0.8-3.8-3-7.8-6.8-8.5c-0.3-0.1-0.7-0.1-1,0
		c-0.5,0.2-0.7,0.9-0.8,1.5c-0.9,4.7-1.4,9.6-0.3,14.2c1,4.7,3.7,9.1,7.8,11.6c0.2-0.3,0.3-0.7,0.5-1"/>
	<g id="XMLID_961_">
		<path id="XMLID_967_" class="st2" d="M235.6,293.3c2.9-6.3,4-13.6,2-20.3c-0.8-2.6-4.3-9.4-8.1-7.7c-3.3,1.4-2.4,12-2,14.5
			c0.8,5.7,3.6,10.6,8.4,13.9c0.3,0.2,0.7,0.1,0.9-0.2c0.2-0.3,0.3-0.7,0.5-1c0.4-0.7-0.7-1.4-1.1-0.6c-0.6,1.3-4.9-4.6-4.9-4.5
			c-1-1.6-1.7-3.3-2.1-5.2c-0.7-2.5-0.8-5.1-0.7-7.6c0.1-1.6-0.2-6.2,0.9-7c5.3-3.4,7.7,7.6,7.9,10.3c0.5,5.1-0.6,10.1-2.7,14.8
			C234.2,293.4,235.3,294,235.6,293.3L235.6,293.3z"/>
	</g>
</g>
<g id="XMLID_584_">
	<path id="XMLID_960_" class="st2" d="M329.7,284.5c7,3.5,11.6,11.3,11.4,19.1c-4.6-1.6-8.8-4.3-12.2-7.8c-1.4-1.4-2.7-3.1-3-5.1
		s0.5-4.3,2.3-5"/>
	<g id="XMLID_953_">
		<path id="XMLID_959_" class="st2" d="M329.4,285c6.9,3.7,11.1,10.7,11.1,18.6c0.3-0.2,0.5-0.4,0.8-0.6
			c-3.8-1.4-21.6-11.5-12.8-16.8c0.7-0.4,0.1-1.5-0.6-1.1c-10.2,6.1,8.2,17.2,13.1,19c0.4,0.1,0.8-0.2,0.8-0.6
			c0-8.3-4.4-15.7-11.7-19.7C329.4,283.6,328.7,284.6,329.4,285L329.4,285z"/>
	</g>
</g>
<g id="XMLID_583_">
	<path id="XMLID_952_" class="st2" d="M386.7,271.9c5.9-5.3,8.2-14.3,5.6-21.8c-1,2.8-4.2,4-6.3,6.1c-1.6,1.7-2.6,3.9-2.9,6.3
		c-0.5,3.6,0.2,7.3,2.1,10.3"/>
	<g id="XMLID_945_">
		<path id="XMLID_950_" class="st2" d="M387.2,272.4c6.1-5.9,8.2-14.3,5.8-22.4c-0.1-0.5-0.9-0.7-1.1-0.1c-2,4.1-6.8,5.3-8.5,9.8
			c-1.7,4.5-0.8,9.4,1.5,13.5c0.4,0.7,1.5,0.1,1.1-0.6c-2.9-5.3-3.4-12.3,1.5-16.6c2.1-1.9,4.3-2.9,5.5-5.5c-0.4,0-0.8-0.1-1.1-0.1
			c2.4,7.6,0.3,15.6-5.4,21.1C385.7,272,386.6,272.9,387.2,272.4L387.2,272.4z"/>
	</g>
</g>
<g id="XMLID_582_">
	<path id="XMLID_943_" class="st2" d="M175.4,285c-5.3-4.6-10.6-9.2-15.9-13.8c0.8-0.2,1.3,0.9,1.4,1.8c0.3,4.3-1.1,9.3,1.7,12.6
		c1.7,2,4.4,2.7,7,3.3c1.6,0.4,3.2,0.7,4.7,0.3c1.5-0.4,2.9-2,2.5-3.6"/>
	<g id="XMLID_935_">
		<path id="XMLID_942_" class="st2" d="M175.8,284.6c-5.3-4.6-10.6-9.2-15.9-13.8c-0.2,0.3-0.4,0.7-0.6,1c1.9,0.5,0.8,9.5,1.3,11.2
			c0.7,2.6,2.5,4.3,4.9,5.3c3.5,1.5,12.1,3.5,11.9-2.8c0-0.8-1.3-0.8-1.3,0c0.1,5-9,2.4-11,1.3c-3.5-1.9-3.8-5.2-3.7-8.8
			c0.1-2.2,1.1-6.7-1.8-7.4c-0.6-0.1-1.1,0.6-0.6,1c5.3,4.6,10.6,9.2,15.9,13.8C175.5,286,176.4,285.1,175.8,284.6L175.8,284.6z"/>
	</g>
</g>
<g id="XMLID_581_">
	<path id="XMLID_934_" class="st2" d="M163.7,256.2c1.6-7.5,1-15.5-1.6-22.7c-2.3,3.8-4.1,7.9-4.2,12.3c0,4.4,2,9,6,11"/>
	<g id="XMLID_927_">
		<path id="XMLID_933_" class="st2" d="M164.3,256.4c1.5-7.8,1-15.5-1.6-23.1c-0.2-0.5-0.9-0.6-1.1-0.1c-4.5,7.7-7.1,18.7,2,24.2
			c0.7,0.4,1.3-0.7,0.6-1.1c-8.5-5.1-5.6-15.5-1.6-22.5c-0.4,0-0.8-0.1-1.1-0.1c2.5,7.3,3.1,14.8,1.6,22.4
			C162.9,256.9,164.1,257.2,164.3,256.4L164.3,256.4z"/>
	</g>
</g>
<g id="XMLID_580_">
	<path id="XMLID_926_" class="st2" d="M219.8,238.1c2.7-6.4,4.2-13.3,4.5-20.2c-1.3,0.1-2.5,0.9-3.6,1.8c-2.1,1.6-4.3,3.3-5.4,5.8
		c-1.4,3.2-0.6,7,0.6,10.2c0.7,1.9,1.9,4,3.9,4.2"/>
	<g id="XMLID_919_">
		<path id="XMLID_925_" class="st2" d="M220.4,238.3c2.7-6.6,4.1-13.3,4.5-20.4c0-0.4-0.4-0.7-0.8-0.6c-4.7,1.1-9.7,6-10.2,10.9
			c-0.4,4.2,1.2,10.9,5.7,12.3c0.8,0.2,1.1-1,0.3-1.2c-4.7-1.4-5.6-9.9-4.1-13.5c0.7-1.6,5.2-7.8,7.6-6.3c0.8,0.5-1.1,8-1.4,9.3
			c-0.7,3.1-1.8,6.1-3,9.1C218.8,238.7,220.1,239,220.4,238.3L220.4,238.3z"/>
	</g>
</g>
<g id="XMLID_579_">
	<path id="XMLID_918_" class="st2" d="M333.1,230.2c3.4-4.6,5.2-10.3,5.1-16c-4.9-0.6-9.9,2.8-11.5,7.6c-1.6,4.7,0.2,10.2,3.9,13.5
		c0.1,0.1,0.3,0.2,0.4,0.2c0.2,0,0.4-0.2,0.5-0.4c2.5-4.2,4.3-8.7,5.4-13.5"/>
	<g id="XMLID_911_">
		<path id="XMLID_917_" class="st2" d="M333.6,230.6c3.4-4.9,5.2-10.3,5.2-16.3c0-0.4-0.3-0.6-0.6-0.6c-5.3-0.3-10.4,2.9-12.1,8
			c-1.5,4.5,0,12.1,4.6,14.4c0.3,0.1,0.5,0.1,0.8-0.1c3.4-2.8,5-10.1,6-14.2c0.2-0.8-1-1.1-1.2-0.3c-0.5,1.9-1,3.8-1.6,5.6
			c-0.6,1.5-1.5,5.5-2.9,6.5c-2.3,1.6-4-2.9-4.4-4.6c-0.7-2.6-0.7-5.5,0.5-7.9c1.1-2.2,9.2-9.5,9.8-4.6c0.5,4.5-2.4,10-4.9,13.5
			C332.1,230.6,333.2,231.2,333.6,230.6L333.6,230.6z"/>
	</g>
</g>
<g id="XMLID_578_">
	<path id="XMLID_910_" class="st2" d="M271.1,275.6c1-7.9-3-16.2-9.8-20.3c-0.2,2.7-0.4,5.4-0.6,8.1c-0.2,3.4-0.3,7.1,2,9.6
		c2.3,2.5,6.1,2.6,9.4,2.7"/>
	<g id="XMLID_901_">
		<path id="XMLID_908_" class="st2" d="M271.7,275.6c0.8-8.4-3-16.3-10.1-20.8c-0.4-0.3-0.9,0.1-0.9,0.5c-0.3,4.9-2,12,0.6,16.7
			c2.2,4,6.8,4.3,10.9,4.3c0.8,0,0.8-1.2,0-1.3c-5.2,0-10.1-1.1-10.8-7.2c-0.4-4.1,0.3-8.5,0.6-12.6c-0.3,0.2-0.6,0.4-0.9,0.5
			c6.7,4.4,10.2,11.8,9.4,19.8C270.4,276.4,271.6,276.4,271.7,275.6L271.7,275.6z"/>
	</g>
</g>
<g id="XMLID_577_">
	<path id="XMLID_900_" class="st2" d="M428.4,264.5c5.2-5.8,9.8-12.2,13.7-19c-0.1,4.6,0.2,9.3-1,13.7c-1.2,4.4-4.4,8.7-8.8,9.6
		c-1.8,0.4-3.8,0.2-5.3-0.8"/>
	<g id="XMLID_893_">
		<path id="XMLID_899_" class="st2" d="M428.9,265c5.2-5.9,9.8-12.3,13.8-19.1c-0.4-0.1-0.8-0.2-1.2-0.3c-0.1,4.7,0.3,9.6-1.2,14.1
			c-1.7,5.4-6.9,10.8-13.1,7.8c-0.7-0.3-1.4,0.7-0.6,1.1c4.5,2.2,9.2,0.5,12.2-3.3c4.4-5.5,3.8-13,3.9-19.7c0-0.6-0.9-0.8-1.2-0.3
			c-3.9,6.7-8.5,13-13.6,18.9C427.4,264.7,428.3,265.6,428.9,265L428.9,265z"/>
	</g>
</g>
<g id="XMLID_576_">
	<path id="XMLID_892_" class="st2" d="M474.1,269.9c4.2-2.5,8.2-5.4,11.4-9.1s5.6-8.2,6.2-13.1c-2.1,1.8-4.5,3.3-7,4.4
		c-2.2,1-4.5,1.8-6.4,3.3c-3.6,2.8-5,7.8-5.1,12.4"/>
	<g id="XMLID_885_">
		<path id="XMLID_891_" class="st2" d="M474.5,270.4c8.6-5.2,16.3-12.1,17.9-22.5c0.1-0.6-0.5-1-1-0.6c-4.5,3.6-11,4.8-14.8,9
			c-2.9,3.1-3.7,7.4-4,11.5c0,0.8,1.2,0.8,1.3,0c0.3-5.9,2.3-10.9,7.9-13.6c3.7-1.8,7.2-3.4,10.5-6c-0.3-0.2-0.7-0.4-1-0.6
			c-1.5,10.1-9,16.7-17.3,21.8C473.1,269.8,473.8,270.8,474.5,270.4L474.5,270.4z"/>
	</g>
</g>
<g id="XMLID_575_">
	<path id="XMLID_884_" class="st2" d="M503.5,271.5c1.2-5.7,3-11.2,5.4-16.5c-1.7,1.2-3.5,2.4-5.2,3.6c-2.6,1.8-5.4,3.9-6.1,7
		c-0.5,2,0.1,4.2,1.5,5.8c1.4,1.5,3.5,2.3,5.6,2.1"/>
	<g id="XMLID_877_">
		<path id="XMLID_883_" class="st2" d="M504.1,271.7c1.2-5.7,3-11.1,5.3-16.4c0.2-0.5-0.3-1.3-0.9-0.9c-4.1,2.9-11.3,6.3-11.7,12
			c-0.4,4.6,3.5,7.8,7.9,7.6c0.8,0,0.8-1.3,0-1.3c-7,0.3-8.1-7-3.9-11.1c2.4-2.4,5.7-4.2,8.5-6.2c-0.3-0.3-0.6-0.6-0.9-0.9
			c-2.4,5.4-4.2,10.9-5.4,16.7C502.7,272.1,503.9,272.5,504.1,271.7L504.1,271.7z"/>
	</g>
</g>
<g id="XMLID_574_">
	<path id="XMLID_876_" class="st2" d="M493.4,244.7c6.3-11.2,6.3-25.6,0.1-36.8c-2.9,5.5-5.1,11.4-6.4,17.5
		c-0.4,1.9-0.7,3.9-0.4,5.8c0.4,2.1,1.6,4,2.7,5.8c1.3,2.1,2.6,4.1,3.9,6.2"/>
	<g id="XMLID_869_">
		<path id="XMLID_875_" class="st2" d="M493.9,245c6.3-11.8,6.3-25.6,0.1-37.5c-0.2-0.4-0.9-0.4-1.1,0c-3.1,5.9-5.8,12.5-6.7,19.2
			c-1,6.6,3.2,11.4,6.6,16.8c0.4,0.7,1.5,0.1,1.1-0.6c-3.7-6-7.6-10.8-6-18.2c0.5-2.5,3.3-15,5.8-15.1c0.9,0,2.7,7.2,2.9,8.1
			c0.6,2.8,1,5.7,1,8.6c0,6.4-1.7,12.5-4.7,18.1C492.5,245.1,493.6,245.7,493.9,245L493.9,245z"/>
	</g>
</g>
<g id="XMLID_573_">
	<path id="XMLID_868_" class="st2" d="M318.7,267.8c2.4-3.2,4.8-6.6,5.6-10.5c0.8-3.9-0.4-8.6-3.9-10.6c-0.7-0.4-1.8-0.7-2.4-0.1
		c-0.7,0.6-0.5,1.7-0.6,2.5c-0.3,1.7-2,2.9-2.7,4.5c-0.7,1.6-0.3,3.5,0.1,5.2c0.7,2.9,1.4,5.8,2.1,8.6c0.2,1,0.8,2.3,1.9,2.1"/>
	<g id="XMLID_861_">
		<path id="XMLID_866_" class="st2" d="M319.2,268.1c3.4-4.5,7-9.9,5.7-15.9c-0.5-2.2-3.9-8.7-7.1-6.3c-1.1,0.8-2,4.7-2.4,5.4
			c-1,1.7-1.7,2.7-1.7,4.8c0.1,3.1,1.4,6.7,2.1,9.7c0.5,2,0.6,3.7,2.7,4.3c0.8,0.2,1.1-1,0.3-1.2c-2.1-0.6-3.4-9-3.6-11
			c-0.4-3.1,0.4-4.4,1.8-6.7c0.1-0.2,1-2,1-2c0.1-0.8,0.8-0.8,2.2,0c1.9-0.5,2.9,0.2,3.2,2.2c0.6,1.8,0.7,3.8,0.3,5.7
			c-0.7,3.9-3.3,7.3-5.6,10.4C317.7,268.1,318.8,268.7,319.2,268.1L319.2,268.1z"/>
	</g>
</g>
<g id="XMLID_572_">
	<path id="XMLID_859_" class="st2" d="M293.1,272.4c-3-2.7-6.7-4.6-10.6-5.5c0.4,1.3,0.2,2.7,0.3,4.1s0.5,2.9,1.7,3.6
		c0.8,0.4,1.7,0.4,2.6,0.4c5.3-0.1,10.6-0.5,15.9-1.2"/>
	<g id="XMLID_852_">
		<path id="XMLID_858_" class="st2" d="M293.6,271.9c-3.2-2.8-6.8-4.6-10.9-5.7c-0.5-0.1-0.9,0.3-0.8,0.8c0.6,3.2-0.4,7.6,3.7,8.5
			c2.3,0.5,5.5-0.1,7.9-0.2c3.2-0.2,6.4-0.5,9.5-0.9c0.8-0.1,0.8-1.4,0-1.3c-4,0.5-7.9,0.9-11.9,1.1c-3,0.1-6.3,1-7.7-3.2
			c-0.4-1.2-0.1-3-0.3-4.3c-0.3,0.3-0.5,0.5-0.8,0.8c3.9,1,7.3,2.7,10.4,5.3C293.3,273.3,294.2,272.5,293.6,271.9L293.6,271.9z"/>
	</g>
</g>
<g id="XMLID_571_">
	<path id="XMLID_851_" class="st2" d="M424.7,280c2.6,0.7,4.8,2.8,5.9,5.4c1.1,2.5,1.2,5.4,0.6,8.1c-0.2,1-0.7,2.1-1.7,2.2
		c-1,0.1-1.7-1.1-1.9-2.1c-0.7-2.6-1-5.3-1.8-7.9c-0.8-2.6-2.2-5.1-4.5-6.5"/>
	<g id="XMLID_844_">
		<path id="XMLID_850_" class="st2" d="M424.5,280.6c3.3,1.1,5.5,3.8,6.2,7.2c0.2,1.1,1.1,8.5-2.5,5.5c-0.6-0.5-0.7-3.2-0.9-4
			c-0.9-4.3-2-8.3-5.7-10.8c-0.7-0.5-1.3,0.6-0.6,1.1c5.4,3.7,3.9,9.7,6.3,14.8c0.8,1.7,2.5,2.5,3.9,0.9c2-2.3,1.2-7.6,0.1-10.1
			c-1.2-2.8-3.4-4.8-6.3-5.8C424.1,279.1,423.8,280.3,424.5,280.6L424.5,280.6z"/>
	</g>
</g>
<g id="XMLID_570_">
	<path id="XMLID_843_" class="st2" d="M445.2,229c4.8-3.5,7.3-9.8,6.3-15.7c-0.2-1-0.9-2.2-1.8-1.8c-0.8,0.3-0.7,1.5-0.8,2.4
		c-0.2,2-2.1,3.2-3.4,4.8c-2.8,3.4-2.4,8.4-1.8,12.8"/>
	<g id="XMLID_836_">
		<path id="XMLID_842_" class="st2" d="M445.7,229.4c3.5-2.8,5.9-6.7,6.5-11.2c0.2-1.6,0.8-7.2-2.1-7.3c-0.8,0-1.1,0.3-1.6,1
			c-0.1,0.3-0.1,0.6-0.2,1c-0.1,1.1-0.5,2.2-1.2,3.1c-0.6,0.8-1.5,1.5-2.2,2.3c-2.9,3.8-2.5,8.7-1.9,13.2c0.1,0.8,1.4,0.8,1.3,0
			c-0.4-3.1-0.9-6.5,0.1-9.5c0.7-2.2,3.1-5.2,4.8-6.9c0.5-0.5-0.2-2.9,1.7-0.6c0.7,0.9-0.2,4.3-0.4,5.1c-0.9,3.6-3,6.6-5.9,8.9
			C444.1,229,445,229.9,445.7,229.4L445.7,229.4z"/>
	</g>
</g>
<g id="XMLID_569_">
	<path id="XMLID_835_" class="st2" d="M316.6,220c-1.3-2.9-3-5.7-5.2-8c-0.9-0.9-2.1-1.9-3.3-1.4c0.9,2.7,2.1,5.5,3.9,7.7
		s4.5,4,7.4,4.1c-0.3-0.3-0.7-0.6-1-0.8"/>
	<g id="XMLID_828_">
		<path id="XMLID_834_" class="st2" d="M317.2,219.7c-1.2-2.6-2.6-5-4.5-7.2c-1.3-1.5-2.6-2.9-4.7-2.5c-0.3,0.1-0.5,0.5-0.4,0.8
			c2,5.7,5.2,11.6,11.9,12.3c0.5,0.1,0.8-0.7,0.4-1.1c-0.3-0.3-0.7-0.6-1-0.8c-0.6-0.5-1.5,0.4-0.9,0.9c0.3,0.3,0.7,0.6,1,0.8
			c0.1-0.4,0.3-0.7,0.4-1.1c-6-0.6-8.9-6.3-10.7-11.4c-0.1,0.3-0.3,0.5-0.4,0.8c2.2-0.4,4.4,3.2,5.4,4.6c1,1.4,1.8,3,2.5,4.6
			C316.4,221,317.5,220.4,317.2,219.7L317.2,219.7z"/>
	</g>
</g>
<g id="XMLID_568_">
	<path id="XMLID_827_" class="st2" d="M230.7,226.9c1.8-6,4.7-11.7,8.5-16.8c0.9,3.8,1.7,8-0.4,11.3c-2,3-5.9,4.2-7.7,7.3"/>
	<g id="XMLID_820_">
		<path id="XMLID_826_" class="st2" d="M231.3,227.1c1.9-6,4.7-11.5,8.4-16.6c-0.4,0-0.8-0.1-1.1-0.1c1.1,4.7,1.7,9.3-2.2,12.8
			c-2,1.8-4.3,3-5.9,5.3c-0.5,0.7,0.6,1.3,1.1,0.6c2.3-3.3,6.5-4.6,8.3-8.3c1.6-3.4,0.7-7.3-0.1-10.8c-0.1-0.6-0.8-0.5-1.1-0.1
			c-3.8,5.2-6.6,10.8-8.5,16.9C229.9,227.5,231.1,227.9,231.3,227.1L231.3,227.1z"/>
	</g>
</g>
<g id="XMLID_567_">
	<path id="XMLID_819_" class="st2" d="M149.7,241c-2.6-3-5.9-5.5-9.5-7.3c-0.4-0.2-1-0.4-1.3-0.1c-0.2,0.1-0.2,0.4-0.3,0.6
		c-0.7,2.4,0.8,5.1,3,6.3c2.2,1.3,4.8,1.4,7.3,0.9"/>
	<g id="XMLID_812_">
		<path id="XMLID_817_" class="st2" d="M150.2,240.6c-1.5-1.6-11.4-11.5-12.3-5.8c-0.4,2.3,1,4.7,2.9,6c2.4,1.7,5.5,1.8,8.3,1.3
			c0.8-0.1,0.5-1.3-0.3-1.2c-2.3,0.4-4.8,0.4-6.8-0.9c-0.8-0.5-1.5-1.2-2-2c-0.3-0.6-1.6-3.6-0.2-3.9c0.6-0.1,2.4,1.3,2.9,1.6
			c0.6,0.4,1.3,0.8,1.9,1.3c1.8,1.3,3.4,2.8,4.8,4.4C149.8,242,150.7,241.1,150.2,240.6L150.2,240.6z"/>
	</g>
</g>
<g id="XMLID_566_">
	<path id="XMLID_810_" class="st2" d="M402.2,261.6c-2.2,8.7-3.5,17.6-3.7,26.5c1.7-3.4,4.3-6.1,6.6-9c2.3-2.9,4.4-6.4,4.4-10.1
		c0-3.7-2.6-7.7-6.3-8"/>
	<g id="XMLID_803_">
		<path id="XMLID_809_" class="st2" d="M401.6,261.4c-2.2,8.8-3.4,17.6-3.7,26.7c0,0.6,0.9,0.9,1.2,0.3c3.3-6,10-10.8,11-17.9
			c0.6-4.7-1.8-9.3-6.7-10.2c-0.8-0.1-1.1,1.1-0.3,1.2c8.5,1.5,5.9,11.1,2.5,15.9c-2.5,3.5-5.5,6.5-7.6,10.3
			c0.4,0.1,0.8,0.2,1.2,0.3c0.3-8.9,1.5-17.7,3.7-26.3C403,261,401.8,260.6,401.6,261.4L401.6,261.4z"/>
	</g>
</g>
<g id="XMLID_565_">
	<path id="XMLID_802_" class="st2" d="M358.4,248c-4.4,7.5-6.2,16.5-5,25.2c4.7-2.4,8.2-7,9.3-12.1c1.1-5.1-0.1-10.8-3.3-14.9"/>
	<g id="XMLID_795_">
		<path id="XMLID_801_" class="st2" d="M357.8,247.6c-4.4,7.9-6.1,16.5-5.1,25.5c0.1,0.5,0.5,0.8,0.9,0.5c10.2-5.8,13-18.3,6.2-27.9
			c-0.5-0.7-1.5,0-1.1,0.6c3,4.2,4.4,9.3,3.3,14.4c-0.5,2.1-1.3,4-2.5,5.8c-0.4,0.6-4.2,5.7-5.3,5.3c-2-0.8-0.2-10.5,0.1-11.6
			c0.8-4.3,2.4-8.2,4.6-12C359.3,247.6,358.2,246.9,357.8,247.6L357.8,247.6z"/>
	</g>
</g>
<g id="XMLID_564_">
	<path id="XMLID_794_" class="st2" d="M295,269.4c-3.1,7.3-5.5,14.9-7.1,22.6c-0.1,0.6-0.2,1.4,0.2,1.8c0.3,0.3,0.7,0.4,1.1,0.5
		c2.7,0.3,4.7-2.6,5.7-5.1c1.5-3.8,2.5-7.9,3-12c0.4-3.2,0.3-6.9-2-9.2"/>
	<g id="XMLID_787_">
		<path id="XMLID_793_" class="st2" d="M294.4,269.2c-2.8,6.7-6.7,15.2-7.1,22.6c-0.1,2.4,0.9,3.6,3.5,2.9c4.9-1.2,6.4-10,7.1-13.9
			c0.9-4.6,1.5-9.4-1.7-13.3c-0.5-0.6-1.4,0.3-0.9,0.9c3.1,3.9,2,9.3,1,13.8c-0.4,1.7-0.9,3.4-1.5,5.1c-0.5,1.3-3.4,9.5-6,3
			c-0.8-1.9,2.2-8.5,2.9-10.6c1.1-3.5,2.4-6.9,3.8-10.3C295.9,268.8,294.7,268.5,294.4,269.2L294.4,269.2z"/>
	</g>
</g>
<g id="XMLID_563_">
	<path id="XMLID_786_" class="st2" d="M241.3,280.3c-2.8,3.5-5.5,7.1-7.4,11.1c-1.9,4-2.9,8.7-1.8,13c1.7-1.4,3.4-2.7,5.1-4.1
		c1.4-1.1,2.9-2.3,3.8-3.9c1.2-2,1.5-4.3,1.5-6.6c0.1-2.9-0.1-5.8-0.6-8.7c-0.1-0.5-0.8-0.9-0.8-0.5"/>
	<g id="XMLID_779_">
		<path id="XMLID_785_" class="st2" d="M240.9,279.9c-5.7,7.3-11.2,15.1-9.4,24.8c0.1,0.5,0.7,0.5,1,0.3c3.8-3,8.7-5.9,10.1-10.8
			c0.9-3.4,1.6-10.9-0.6-13.9c-0.2-0.2-0.4-0.4-0.7-0.3c-0.1,0-0.3,0.1-0.4,0.1c-0.8,0.2-0.4,1.5,0.3,1.2c0.6-0.2,0.4,11.5,0.2,12.5
			c-0.6,2.3-2,3.7-3.6,5.3c-0.9,0.8-3.1,3.2-4.2,3.4c-0.8,1-1.3,0.6-1.2-1.3c0-1.1,0.1-2.2,0.3-3.2c0.4-2.5,1.1-4.7,2.3-6.9
			c1.8-3.7,4.4-7,7-10.3C242.3,280.2,241.4,279.3,240.9,279.9L240.9,279.9z"/>
	</g>
</g>
<g id="XMLID_562_">
	<path id="XMLID_778_" class="st2" d="M202.4,290.5c-5.2,3-9.4,7.8-11.6,13.4c-0.5,1.2-0.7,3,0.5,3.6c1.2,0.6,2.5-0.5,3.3-1.5
		c2-2.4,4-4.9,5.4-7.7c1.4-2.8,2.2-6,1.7-9.1"/>
	<g id="XMLID_771_">
		<path id="XMLID_777_" class="st2" d="M202.1,290c-4,2.4-7.4,5.6-9.8,9.6c-1,1.7-4.2,6.8-1.4,8.4c2.8,1.6,5.6-3.4,6.8-5
			c3.1-4.1,5.3-8.6,4.6-13.9c-0.1-0.8-1.3-0.8-1.3,0c0.4,3.5-0.4,6.8-2.2,9.8c-0.7,1.2-5.8,9.8-7.8,5.9c-0.7-1.5,3.9-7.3,4.7-8.2
			c1.9-2.3,4.2-4.1,6.8-5.6C203.4,290.6,202.8,289.5,202.1,290L202.1,290z"/>
	</g>
</g>
<g id="XMLID_561_">
	<path id="XMLID_770_" class="st2" d="M188.4,275.9c-3,2.5-5.8,5.5-7.4,9.1c-1.6,3.6-1.8,8,0.2,11.4c0.3-2.8,1.6-5.5,3.6-7.4
		c1.2-1.2,2.6-2.1,3.7-3.4c3.1-3.6,2.7-9.2,0.4-13.4"/>
	<g id="XMLID_764_">
		<path id="XMLID_769_" class="st2" d="M187.9,275.4c-6.2,5.4-11.4,13-7.3,21.2c0.2,0.5,1.1,0.4,1.1-0.1c0.6-3.8,2.5-6.3,5.3-8.8
			c1.4-1.3,2.6-2.5,3.4-4.4c1.6-3.8,0.6-7.9-1.1-11.5c-0.3-0.7-1.4-0.1-1.1,0.6c1.4,2.9,2.2,6,1.4,9.2c-0.8,3.2-3.3,4.5-5.4,6.8
			c-2.1,2.2-3.2,4.7-3.7,7.7c0.4,0,0.8-0.1,1.1-0.1c-3.8-7.8,1.5-14.8,7.1-19.7C189.4,275.8,188.5,274.9,187.9,275.4L187.9,275.4z"
			/>
	</g>
</g>
<g id="XMLID_560_">
	<path id="XMLID_763_" class="st2" d="M186.7,262c-3.8-4.1-5.5-10.1-4.5-15.7c0.4-2,1.7-4.4,3.7-4c2.9,5.7,3.3,12.7,1,18.7"/>
	<g id="XMLID_757_">
		<path id="XMLID_762_" class="st2" d="M187.1,261.5c-2-2.4-3.5-5.1-4.2-8.2c-0.3-1.3-0.4-2.7-0.4-4c0-2.5-0.3-3.7,2.2-4.2
			c2.3-0.5,2,0.3,2.4,2.1c0.4,1.6,0.6,3.3,0.7,4.9c0.1,3-0.5,5.9-1.4,8.7c-0.3,0.8,0.9,1.1,1.2,0.3c2.2-6.4,1.8-13-1.1-19.2
			c-0.1-0.2-0.3-0.3-0.5-0.3c-3.9,0.2-4.6,4.5-4.6,7.7c0,4.9,1.8,9.4,5,13.1C186.8,263,187.7,262.1,187.1,261.5L187.1,261.5z"/>
	</g>
</g>
<g id="XMLID_559_">
	<path id="XMLID_756_" class="st2" d="M260.3,265c-4.1,7.1-4.2,16.3-0.3,23.6c0.3,0.6,0.9,1.2,1.5,1c0.2-0.1,0.4-0.3,0.5-0.5
		c3-3.9,4.8-8.8,4.5-13.7c-0.3-4.9-2.6-9.8-6.6-12.7"/>
	<g id="XMLID_750_">
		<path id="XMLID_755_" class="st2" d="M259.8,264.7c-2.8,5.2-3.9,11-2.8,16.8c0.3,2,1.6,9.2,4.8,8.6c1.4-0.3,2.9-3.8,3.4-4.9
			c1.2-2.6,1.9-5.4,2-8.2c0.2-5.8-2.4-11.1-6.8-14.8c-0.6-0.5-1.5,0.4-0.9,0.9c3,2.5,5.2,5.6,6,9.5c0.8,3.7,0.6,11.5-2.6,14.1
			c-4,3.4-5.1-7.5-5.1-9.2c-0.1-4.4,1-8.4,3.1-12.2C261.3,264.6,260.2,264,259.8,264.7L259.8,264.7z"/>
	</g>
</g>
<g id="XMLID_558_">
	<path id="XMLID_749_" class="st2" d="M459.7,256.1c-2.6,7.8-0.8,17,4.5,23.2c3-4.2,4.1-9.7,3-14.7s-4.4-9.6-8.8-12.2"/>
	<g id="XMLID_742_">
		<path id="XMLID_748_" class="st2" d="M459.1,255.9c-2.5,8.4-0.8,17,4.7,23.8c0.3,0.3,0.8,0.2,1-0.1c6.1-9.6,3.5-21.6-6.1-27.8
			c-0.7-0.4-1.3,0.6-0.6,1.1c3.5,2.3,6.2,5.3,7.7,9.2c1.4,3.6,2.3,10.8-0.5,14.2c-0.2,1.5-0.7,1.8-1.5,0.8c-0.8-0.4-1.3-1.1-1.6-1.9
			c-1.1-1.6-1.7-3.7-2.2-5.6c-1.2-4.5-0.9-9,0.4-13.4C460.6,255.5,459.4,255.1,459.1,255.9L459.1,255.9z"/>
	</g>
</g>
<g id="XMLID_557_">
	<path id="XMLID_741_" class="st2" d="M509,232.9c-3.6,7.9-3.5,17.4,0.1,25.2c0.3,0.6,0.7,1.3,1.3,1.6c0.6,0.3,1.6,0.2,1.8-0.5
		c0.1-0.3,0-0.6,0-0.9c-0.7-5.3,3.7-10.1,3.8-15.4c0.1-3.7-2.2-7.4-5.6-9.1"/>
	<g id="XMLID_735_">
		<path id="XMLID_740_" class="st2" d="M508.4,232.8c-2.6,6.2-3.4,12.8-1.9,19.4c0.3,1.4,2,10,5.4,8.2c1.7-0.9,0.9-3.2,1.1-4.7
			c0.5-3.6,2.6-6.8,3.4-10.4c1-5-1.2-9.4-5.6-11.9c-0.7-0.4-1.3,0.7-0.6,1.1c5.5,3.2,5.9,8.5,3.9,14c-0.7,1.8-1.6,3.6-2.1,5.5
			c-0.2,0.8-0.1,3.1-0.4,3.7c-1.5,2.6-3-2.7-3.5-4.3c-0.6-2.3-1-4.7-1.1-7c-0.1-4.6,0.8-9,2.6-13.3
			C509.9,232.4,508.7,232,508.4,232.8L508.4,232.8z"/>
	</g>
</g>
<g id="XMLID_556_">
	<path id="XMLID_734_" class="st2" d="M466.7,230.3c-2.7,5.8-3.3,12.4-1.8,18.6c0.9,3.7,3.2,7.7,7,8.4c0.3,0.1,0.7,0.1,1-0.1
		c0.5-0.3,0.7-0.9,0.8-1.5c0.8-4.7,1.1-9.6,0-14.2s-3.9-9-8.1-11.3c-0.2,0.4-0.3,0.7-0.5,1.1"/>
	<g id="XMLID_728_">
		<path id="XMLID_733_" class="st2" d="M466.2,229.9c-2.7,6.3-3.7,13.7-1.5,20.3c0.8,2.5,4.5,9.2,8.3,7.5c3-1.4,2.1-10.7,1.9-13
			c-0.7-6.3-3.6-11.8-9-15.2c-0.3-0.2-0.7-0.1-0.9,0.2c-0.2,0.4-0.3,0.7-0.5,1.1c-0.3,0.7,0.7,1.4,1.1,0.6c0.6-1.3,5,4.4,5,4.4
			c1,1.6,1.7,3.3,2.3,5.1c0.7,2.5,1,5,0.9,7.6c0,1.5,0.1,6.2-0.7,7c-4.2,3.8-7.5-6.1-7.9-8.5c-1-5.6-0.1-11.2,2.1-16.4
			C467.6,229.8,466.5,229.2,466.2,229.9L466.2,229.9z"/>
	</g>
</g>
<g id="XMLID_555_">
	<path id="XMLID_727_" class="st2" d="M374.7,246c-7.1-3.3-11.9-11-11.9-18.8c4.6,1.5,8.9,4.1,12.4,7.5c1.4,1.4,2.8,3,3.2,5
		c0.4,2-0.4,4.3-2.2,5.1"/>
	<g id="XMLID_721_">
		<path id="XMLID_726_" class="st2" d="M375,245.4c-7-3.5-11.4-10.4-11.6-18.3c-0.3,0.2-0.5,0.4-0.8,0.6c3.9,1.3,21.9,11,13.2,16.4
			c-0.7,0.4-0.1,1.5,0.6,1.1c10.1-6.4-8.6-17-13.5-18.7c-0.4-0.1-0.8,0.2-0.8,0.6c0.2,8.3,4.8,15.6,12.2,19.4
			C375.1,246.9,375.7,245.8,375,245.4L375,245.4z"/>
	</g>
</g>
<g id="XMLID_554_">
	<path id="XMLID_720_" class="st2" d="M315.7,255.2c-5.8,5.5-7.8,14.5-5,21.9c0.9-2.8,4.1-4.1,6.1-6.3c1.6-1.7,2.5-4,2.7-6.3
		c0.4-3.6-0.4-7.3-2.4-10.3"/>
	<g id="XMLID_714_">
		<path id="XMLID_719_" class="st2" d="M315.2,254.8c-5.9,6-7.9,14.5-5.2,22.5c0.2,0.5,0.9,0.7,1.1,0.1c2-4.4,7-5.7,8.5-10.7
			c1.3-4.4,0.3-8.9-2-12.8c-0.4-0.7-1.5-0.1-1.1,0.6c3,5.1,3.7,11.7-0.7,16.3c-2,2.2-4.4,3.2-5.7,6c0.4,0,0.8,0.1,1.1,0.1
			c-2.6-7.6-0.8-15.6,4.9-21.3C316.7,255.1,315.8,254.2,315.2,254.8L315.2,254.8z"/>
	</g>
</g>
<g id="XMLID_553_">
	<path id="XMLID_713_" class="st2" d="M539,265.1c-1.4,7.6-0.6,15.5,2.2,22.7c2.2-3.8,3.9-8,3.9-12.4c-0.1-4.4-2.3-9-6.2-10.9"/>
	<g id="XMLID_707_">
		<path id="XMLID_712_" class="st2" d="M538.4,264.9c-1.3,7.9-0.6,15.5,2.2,23c0.2,0.5,0.9,0.7,1.1,0.1c4.3-7.8,6.6-18.9-2.6-24.2
			c-0.7-0.4-1.3,0.7-0.6,1.1c8.7,4.9,6.1,15.3,2.2,22.4c0.4,0,0.8,0.1,1.1,0.1c-2.7-7.2-3.5-14.7-2.2-22.4
			C539.8,264.5,538.6,264.1,538.4,264.9L538.4,264.9z"/>
	</g>
</g>
<g id="XMLID_552_">
	<path id="XMLID_706_" class="st2" d="M483.5,284.7c-2.5,6.5-3.9,13.4-4,20.3c1.3-0.1,2.5-1,3.5-1.8c2.1-1.7,4.2-3.4,5.3-5.9
		c1.4-3.2,0.4-7-0.9-10.2c-0.8-1.9-2-3.9-4-4.1"/>
	<g id="XMLID_700_">
		<path id="XMLID_705_" class="st2" d="M482.9,284.5c-2.5,6.6-3.8,13.4-4,20.5c0,0.4,0.4,0.7,0.8,0.6c4.7-1.3,9.5-6.2,9.9-11.1
			c0.3-4.2-1.5-10.9-6-12.1c-0.8-0.2-1.1,1-0.3,1.2c4.7,1.3,5.9,9.8,4.4,13.4c-0.5,1.3-5.3,8.1-7.5,6.5c-1-0.7,0.9-8.1,1.2-9.4
			c0.7-3.1,1.6-6.2,2.7-9.2C484.4,284.1,483.1,283.8,482.9,284.5L482.9,284.5z"/>
	</g>
</g>
<g id="XMLID_551_">
	<path id="XMLID_699_" class="st2" d="M370.4,295.5c-3.3,4.6-5,10.4-4.7,16.1c4.9,0.5,9.8-3.1,11.3-7.9s-0.4-10.2-4.2-13.4
		c-0.1-0.1-0.3-0.2-0.4-0.2c-0.2,0-0.4,0.2-0.5,0.4c-2.4,4.2-4.1,8.8-5,13.6"/>
	<g id="XMLID_693_">
		<path id="XMLID_698_" class="st2" d="M369.8,295.2c-3.3,5-4.9,10.4-4.7,16.4c0,0.3,0.3,0.6,0.6,0.6c5.6,0.2,10.7-3.4,12-8.9
			c1.1-4.4-0.6-11.6-5.1-13.7c-0.3-0.1-0.5-0.1-0.8,0.1c-3.3,2.9-4.8,10.2-5.7,14.3c-0.2,0.8,1,1.1,1.2,0.3c0.4-1.9,0.9-3.8,1.5-5.6
			c0.5-1.5,1.4-5.6,2.8-6.6c4.2-2.8,5.5,9,4.7,11.4c-0.9,3-9.5,11.4-10,5.2c-0.3-4.4,2.2-9.4,4.6-13
			C371.4,295.2,370.3,294.5,369.8,295.2L369.8,295.2z"/>
	</g>
</g>
<g id="XMLID_550_">
	<path id="XMLID_692_" class="st2" d="M431.2,248.6c-0.8,7.9,3.4,16.1,10.3,20c0.1-2.7,0.2-5.4,0.3-8.1c0.1-3.4,0.1-7.2-2.2-9.6
		c-2.4-2.4-6.1-2.5-9.5-2.4"/>
	<g id="XMLID_686_">
		<path id="XMLID_691_" class="st2" d="M430.6,248.6c-0.6,8.4,3.4,16.2,10.6,20.6c0.4,0.3,0.9-0.1,0.9-0.5
			c0.2-4.9,1.6-11.5-0.7-16.2c-2.2-4.3-7-4.6-11.3-4.5c-0.8,0-0.8,1.3,0,1.3c5.7-0.1,10.6,1.3,11.1,7.9c0.3,3.8-0.2,7.7-0.4,11.5
			c0.3-0.2,0.6-0.4,0.9-0.5c-6.8-4.1-10.6-11.6-10-19.5C431.9,247.7,430.6,247.8,430.6,248.6L430.6,248.6z"/>
	</g>
</g>
<g id="XMLID_549_">
	<path id="XMLID_685_" class="st2" d="M274.2,263.7c-5.1,6-9.5,12.5-13.2,19.4c0-4.6-0.5-9.3,0.6-13.7c1.1-4.5,4.1-8.8,8.6-9.9
		c1.8-0.4,3.8-0.3,5.4,0.7"/>
	<g id="XMLID_679_">
		<path id="XMLID_684_" class="st2" d="M273.7,263.3c-5.1,6.1-9.5,12.5-13.3,19.5c0.4,0.1,0.8,0.2,1.2,0.3
			c-0.1-4.7-0.6-9.6,0.8-14.1c1.6-5.4,6.5-11.1,12.9-8.2c0.7,0.3,1.4-0.8,0.6-1.1c-4.6-2-9.2-0.3-12.1,3.6
			c-4.3,5.7-3.5,13.1-3.4,19.8c0,0.6,0.9,0.9,1.2,0.3c3.8-6.8,8.1-13.2,13.1-19.2C275.1,263.5,274.3,262.6,273.7,263.3L273.7,263.3z
			"/>
	</g>
</g>
<g id="XMLID_548_">
	<path id="XMLID_678_" class="st2" d="M228.3,259.6c-4.1,2.6-8.1,5.6-11.2,9.4c-3.1,3.8-5.4,8.4-5.8,13.2c2.1-1.8,4.4-3.4,6.9-4.6
		c2.2-1.1,4.5-1.9,6.3-3.4c3.5-2.9,4.8-7.9,4.8-12.5"/>
	<g id="XMLID_672_">
		<path id="XMLID_677_" class="st2" d="M228,259c-8.5,5.5-16,12.6-17.3,23.2c-0.1,0.6,0.7,0.7,1.1,0.4c4.4-3.7,10.8-5.1,14.5-9.4
			c2.8-3.2,3.5-7.5,3.7-11.6c0-0.8-1.2-0.8-1.3,0c-0.2,5.9-2,11-7.5,13.8c-3.7,1.9-7.1,3.6-10.3,6.3c0.4,0.1,0.7,0.3,1.1,0.4
			c1.3-10,8.6-16.9,16.7-22.1C229.3,259.7,228.7,258.6,228,259L228,259z"/>
	</g>
</g>
<g id="XMLID_547_">
	<path id="XMLID_671_" class="st2" d="M199,258.7c-1,5.7-2.7,11.3-4.9,16.7c1.7-1.3,3.4-2.5,5.1-3.8c2.5-1.9,5.3-4,5.9-7.1
		c0.4-2-0.2-4.2-1.7-5.7c-1.4-1.5-3.6-2.2-5.7-1.9"/>
	<g id="XMLID_665_">
		<path id="XMLID_670_" class="st2" d="M198.4,258.5c-1.1,5.7-2.7,11.3-4.9,16.7c-0.2,0.5,0.5,1,0.9,0.7c3.9-2.9,10.4-6.2,11.3-11.5
			c0.9-4.9-3.2-8.6-7.9-8.3c-0.8,0.1-0.8,1.3,0,1.3c6.8-0.5,8.4,6.7,4.3,11c-2.4,2.5-5.5,4.4-8.3,6.4c0.3,0.2,0.6,0.5,0.9,0.7
			c2.2-5.4,3.9-10.9,4.9-16.7C199.7,258.1,198.5,257.7,198.4,258.5L198.4,258.5z"/>
	</g>
</g>
<g id="XMLID_540_">
	<path id="XMLID_663_" class="st2" d="M209.7,285.3c-6,11.3-5.7,25.8,0.9,36.8c2.8-5.6,4.8-11.5,5.9-17.6c0.4-1.9,0.6-3.9,0.2-5.8
		c-0.4-2.1-1.7-4-2.9-5.8c-1.3-2-2.7-4.1-4-6.1"/>
	<g id="XMLID_657_">
		<path id="XMLID_662_" class="st2" d="M209.2,285c-6,12-5.7,25.8,0.9,37.5c0.2,0.4,0.9,0.4,1.1,0c2.9-6,5.4-12.6,6.2-19.3
			c0.8-6.7-3.5-11.3-7-16.6c-0.4-0.7-1.5,0-1.1,0.6c3.9,5.9,7.9,10.6,6.4,18c-0.4,2.3-3,15-5.4,15.3c-0.9,0.1-2.8-6.9-3.1-8
			c-0.7-2.8-1.1-5.7-1.2-8.5c-0.2-6.4,1.3-12.5,4.2-18.2C210.6,284.9,209.6,284.2,209.2,285L209.2,285z"/>
	</g>
</g>
<g id="XMLID_534_">
	<path id="XMLID_656_" class="st2" d="M383.8,257.6c-2.3,3.3-4.7,6.7-5.4,10.7c-0.7,4,0.6,8.6,4.2,10.5c0.8,0.4,1.8,0.7,2.4,0.1
		c0.7-0.6,0.4-1.7,0.6-2.6c0.3-1.8,2-2.9,2.6-4.6c0.6-1.6,0.2-3.5-0.2-5.2c-0.8-2.9-1.5-5.7-2.3-8.6c-0.3-1-0.9-2.3-1.9-2.1"/>
	<g id="XMLID_649_">
		<path id="XMLID_655_" class="st2" d="M383.3,257.3c-3.3,4.6-6.8,10.1-5.3,16c0.6,2.3,4,8.4,7.2,6.2c0.9-0.6,0.6-1.3,1-2.2
			c1.1-2.8,3.1-5,3-8.1c-0.1-3.2-1.5-6.6-2.4-9.6c-0.6-2-0.7-3.7-2.8-4.2c-0.8-0.2-1.1,1-0.3,1.2c2.1,0.6,3.6,8.9,3.9,10.9
			c0.6,3.7-0.8,4.7-2,7.4c-0.2,0.5-0.2,1.2-0.5,1.5c0.2,1.3-0.4,1.5-1.9,0.8c-1.6,0.3-2.7-0.3-3.1-2c-0.9-1.7-1.2-3.7-1-5.6
			c0.3-4.4,3-8.1,5.4-11.6C384.8,257.3,383.7,256.6,383.3,257.3L383.3,257.3z"/>
	</g>
</g>
<g id="XMLID_528_">
	<path id="XMLID_648_" class="st2" d="M409.2,252.3c3.1,2.6,6.8,4.4,10.8,5.2c-0.4-1.3-0.3-2.7-0.4-4.1c-0.1-1.4-0.6-2.9-1.8-3.5
		c-0.8-0.4-1.7-0.4-2.6-0.4c-5.3,0.3-10.6,0.8-15.8,1.6"/>
	<g id="XMLID_642_">
		<path id="XMLID_647_" class="st2" d="M408.8,252.8c3.3,2.7,6.9,4.4,11,5.4c0.5,0.1,0.9-0.3,0.8-0.8c-0.7-3.3,0.2-7.7-4-8.4
			c-2.6-0.5-6,0.3-8.6,0.5c-3,0.3-5.9,0.7-8.9,1.1c-0.8,0.1-0.5,1.3,0.3,1.2c4.1-0.6,8.3-1.1,12.5-1.4c2.3-0.2,5.6-0.9,6.9,2.2
			c0.5,1.3,0.3,3.6,0.6,5.2c0.3-0.3,0.5-0.5,0.8-0.8c-3.9-0.9-7.3-2.5-10.5-5.1C409.1,251.4,408.2,252.3,408.8,252.8L408.8,252.8z"
			/>
	</g>
</g>
<g id="XMLID_527_">
	<path id="XMLID_641_" class="st2" d="M431.1,233.2c-0.2-2.7-0.4-5.6,0.9-7.9s4.6-3.8,6.8-2.2c0.2,0.1,0.3,0.3,0.4,0.5
		c0.1,0.4-0.1,0.8-0.3,1.1c-2.8,4-5.7,8-8.5,12c-0.4,0.6-0.9,1.2-0.9,1.9s0.3,1.6,1,1.7"/>
	<g id="XMLID_635_">
		<path id="XMLID_640_" class="st2" d="M431.8,233.2c-0.1-1.8-0.3-3.8,0.1-5.6c0.2-1.3,0.8-2.4,1.7-3.3c1.5-1.6,3.1-1.5,4.7,0
			c0,0.4-2.1,2.9-2.3,3.3c-1,1.5-2.1,2.9-3.1,4.4c-1.4,2-6.3,6.7-2.8,8.9c0.7,0.4,1.3-0.7,0.6-1.1c-2-1.3,6.9-12.3,7.9-13.8
			c1.1-1.6,2-3-0.3-4c-2-0.9-4.5,0.1-5.9,1.7c-2.4,2.5-2.1,6.3-1.9,9.5C430.6,234,431.8,234,431.8,233.2L431.8,233.2z"/>
	</g>
</g>
<g id="XMLID_489_">
	<path id="XMLID_634_" class="st2" d="M277.5,248.2c-2.7-0.7-4.9-2.7-6-5.2c-1.2-2.5-1.3-5.4-0.9-8.1c0.2-1,0.7-2.1,1.6-2.2
		c1-0.1,1.7,1.1,2,2.1c0.8,2.6,1.1,5.3,2,7.9s2.3,5.1,4.7,6.4"/>
	<g id="XMLID_627_">
		<path id="XMLID_633_" class="st2" d="M277.7,247.6c-3.6-1.1-5.9-4.1-6.5-7.7c-0.1-0.7-0.5-4.2,0.1-4.8c2.5-2.9,3.1,2.4,3.3,3.2
			c1,4.4,2.1,8.6,6.1,11.2c0.7,0.4,1.3-0.6,0.6-1.1c-3-1.9-4.2-4.9-5-8.2c-0.5-2.1-0.7-4.5-1.7-6.4c-0.9-1.7-2.6-2.5-3.9-0.8
			c-1.8,2.3-0.9,7.2,0,9.6c1.2,3,3.6,5.2,6.7,6.1C278.1,249,278.4,247.8,277.7,247.6L277.7,247.6z"/>
	</g>
</g>
<g id="XMLID_488_">
	<path id="XMLID_626_" class="st2" d="M258.3,299.7c-4.7,3.6-7.1,10-5.9,15.8c0.2,1,0.9,2.1,1.8,1.8c0.8-0.3,0.6-1.5,0.7-2.4
		c0.1-2,2-3.3,3.3-4.9c2.7-3.5,2.2-8.5,1.4-12.8"/>
	<g id="XMLID_620_">
		<path id="XMLID_625_" class="st2" d="M257.9,299.2c-3.5,2.9-5.8,7-6.3,11.6c-0.1,1.4-0.5,7.9,2.7,7.1c0.8-0.2,0.9-0.9,1.2-1.5
			c0.8-1.6,0.5-2.9,1.8-4.5c0.5-0.6,1-1.1,1.5-1.6c2.8-3.9,2.2-8.8,1.5-13.3c-0.1-0.8-1.3-0.5-1.2,0.3c0.6,3.6,1.3,8-0.7,11.4
			c-1,1.8-2.7,3.3-3.8,5.1c-0.2,0.3-0.4,2.3-1.5,1.6c-1-0.6,0-5.9,0.2-6.7c0.9-3.4,2.8-6.3,5.5-8.5
			C259.4,299.6,258.5,298.7,257.9,299.2L257.9,299.2z"/>
	</g>
</g>
<g id="XMLID_487_">
	<path id="XMLID_619_" class="st2" d="M387.1,305.3c1.3,2.9,3.2,5.6,5.4,7.9c0.9,0.9,2.2,1.8,3.4,1.4c-1-2.7-2.2-5.4-4.1-7.6
		s-4.6-3.8-7.5-3.9c0.3,0.3,0.7,0.5,1,0.8"/>
	<g id="XMLID_613_">
		<path id="XMLID_618_" class="st2" d="M386.6,305.6c1.2,2.6,2.8,5,4.7,7.1c1.3,1.5,2.7,2.9,4.8,2.4c0.3-0.1,0.6-0.5,0.4-0.8
			c-2.1-5.6-5.5-11.5-12.2-12c-0.5,0-0.9,0.7-0.4,1.1c0.3,0.3,0.7,0.5,1,0.8c0.6,0.5,1.5-0.4,0.9-0.9c-0.3-0.3-0.7-0.5-1-0.8
			c-0.1,0.4-0.3,0.7-0.4,1.1c6,0.4,9.1,6,11,11.1c0.1-0.3,0.3-0.5,0.4-0.8c-2.2,0.5-4.5-3.1-5.5-4.4c-1-1.4-1.8-2.9-2.6-4.5
			C387.3,304.3,386.2,304.9,386.6,305.6L386.6,305.6z"/>
	</g>
</g>
<g id="XMLID_486_">
	<path id="XMLID_612_" class="st2" d="M475.2,291.4c-1.7,6.1-4.4,11.9-8,17c-1-3.8-1.9-8,0.1-11.3c1.9-3,5.8-4.4,7.6-7.5"/>
	<g id="XMLID_605_">
		<path id="XMLID_611_" class="st2" d="M474.6,291.2c-1.7,6.1-4.4,11.7-8,16.8c0.4,0,0.8,0.1,1.1,0.1c-1.1-4.5-2-9.1,1.7-12.7
			c2-1.9,4.3-3.2,5.9-5.6c0.4-0.7-0.6-1.3-1.1-0.6c-2.2,3.3-6.5,4.8-8.1,8.6c-1.4,3.4-0.5,7.3,0.4,10.7c0.1,0.6,0.8,0.6,1.1,0.1
			c3.7-5.3,6.3-11,8.1-17.1C476,290.8,474.8,290.4,474.6,291.2L474.6,291.2z"/>
	</g>
</g>
<g id="XMLID_485_">
	<path id="XMLID_604_" class="st2" d="M553.4,280c2.7,2.9,6,5.3,9.6,7c0.4,0.2,1,0.4,1.3,0.1c0.2-0.1,0.2-0.4,0.3-0.6
		c0.6-2.4-0.9-5.1-3.1-6.3c-2.2-1.2-4.9-1.3-7.3-0.7"/>
	<g id="XMLID_543_">
		<path id="XMLID_603_" class="st2" d="M553,280.4c1.6,1.6,11.5,11,12.4,5.6c0.3-2.1-0.9-4.3-2.5-5.6c-2.5-2.1-5.8-2.1-8.8-1.5
			c-0.8,0.1-0.5,1.4,0.3,1.2c2.3-0.4,4.8-0.5,6.8,0.7c1,0.6,5.3,5.4,1.5,5.4c-1.2,0-3.6-2-4.5-2.7c-1.6-1.1-3-2.5-4.4-3.9
			C553.3,278.9,552.4,279.8,553,280.4L553,280.4z"/>
	</g>
</g>
<g id="XMLID_484_">
	<path id="XMLID_542_" class="st2" d="M336.7,308.8c-5.4,4.8-9.4,11.3-11.3,18.4c1.2,1.1,3.1-0.2,4.1-1.5c2.3-2.9,4.7-5.7,7-8.6
		c0.9-1.1,1.8-2.2,2.2-3.6c0.5-1.4,0.4-2.9,0.3-4.4"/>
	<g id="XMLID_532_">
		<path id="XMLID_541_" class="st2" d="M336.2,308.3c-5.5,5.1-9.4,11.4-11.4,18.6c-0.1,0.3,0,0.6,0.3,0.7c3.8,1.9,6.9-4.1,8.8-6.4
			c3.3-4.1,6.1-6.7,5.8-12.2c0-0.8-1.3-0.8-1.3,0c0.3,4.8-2.1,7.3-5,10.8c-1.2,1.4-2.3,2.9-3.5,4.3c-0.6,0.7-3.2,3.9-3.5,1.6
			c-0.1-1.1,1.4-3.8,1.8-4.7c0.7-1.4,1.4-2.7,2.2-4c1.8-2.9,4.1-5.4,6.6-7.7C337.7,308.6,336.8,307.8,336.2,308.3L336.2,308.3z"/>
	</g>
</g>
<g id="XMLID_483_">
	<g id="XMLID_531_">
		<path id="XMLID_1037_" d="M468.5,324.8c-4.5,3.6-2.2,11.1,3.1,12.6c5.8,1.6,11.7-4,12.7-9.4c1-5.8-3.5-10.2-9.1-10.7
			c-5.7-0.4-11.4,2.8-14.4,7.7c-6.3,10.4,4.5,22,15.3,16.1c11.7-6.4,3.8-23.8-8.5-22.2c-2.8,0.4-6.2,3-4.8,6.3
			c2.2,5.4,7.9,9.2,13.6,5.9c4.4-2.6,5.9-8.7,3.8-13.2c-5.9-12.2-23.5-2-19.7,9.9c1.8,5.5,7.4,9.6,13.3,9.3
			c5.3-0.3,10.8-4.1,11.3-9.7c1.2-12.4-18.6-14.4-23-4.3c-2.5,5.7,2.9,11.6,8.1,13.2c5.7,1.8,11.7-0.6,14.5-5.9
			c6-11.3-8.2-23.5-18.1-15.1c-4.2,3.6-5.1,9.9-2.4,14.7c3.2,5.7,10.1,7,16,4.9c5.5-2,9.8-7.6,8.1-13.6c-1.5-5.4-7.3-8.8-12.7-8.8
			c-12.6,0-21.1,17.7-8.5,24.6c11,6.1,27.6-7.7,16.6-18c-9.6-9.1-23.9,0.8-23.7,12.5c0.1,5.8,4.3,11.4,10.2,12.2
			c6.9,0.9,12.6-4.9,14.3-11.2c3.4-12.7-11.1-26.3-22.2-16.2c-10.5,9.5-2.2,25.3,10.5,26.6c6.5,0.6,14-2.2,18-7.4
			c4.3-5.6,1.8-12.1-2.9-16.4c-4.4-4-10.4-8.2-16.6-6.1c-5.1,1.7-8.3,7.2-8.1,12.3c0.5,12.1,17.5,13.5,22.2,3.4
			c2.6-5.6-0.3-12.4-6.5-13.8c-6.4-1.4-12.8,2.8-15.9,8.1c-7.2,12.1-1.1,28.7,3.5,40.6c4.8,12.4,11.5,26.3,7.7,39.8
			c-0.9,3.3-2.5,6.4-4.5,9.1c-0.9,1.3-2.1,2.5-3.2,3.6c0.1-0.1-2,1.4-2,1.5c-0.7,1.4-1.4-2,0.4,0.9c-1,2.4-2,4.9-3,7.3
			c17-3.3,22.2-22.6,19.9-37.5c-2.5-15.8-16.1-38.7-2-52.6c4.6-4.5-2.5-11.6-7.1-7.1c-12.4,12.2-9.5,30.3-5,45.3
			c2.5,8.4,5.9,17.5,4.5,26.4c-1.2,7.3-5.3,14.3-13,15.7c-3.2,0.6-4.6,4.8-3,7.3c4.2,6.9,12.5,4.2,17.4-0.4c6.4-6,10.4-14.3,11.4-23
			c2.2-17.9-7.8-33.8-12.6-50.3c-1.2-4-2.1-8-2.3-12.2c-0.1-2.4-0.1-4.8,0.6-7.1c0.3-1.2,3.5-7.4,5.7-6c-0.1-0.1-2.5,2.1-3.1,0.1
			c-0.3-0.9,0.8-2.2,1.6-2.4c1.7-0.4,5.6,3.1,6.6,4.3c2,2.4,1.2,3.6-1.4,5c-2,1.1-4.5,1.7-6.7,1.3c-3.7-0.7-8.4-5.7-4.4-9.1
			c4.5-3.9,7.5,4.4,5.2,7.9c-1.6,2.4-4,2.7-4.1-0.7c-0.1-1.6,1-3.5,2.3-4.5c0.7-0.6,5.3-1.9,5,0.3c-0.2,1.7-5.2,1.8-6,0.9
			c-3.2-3.7,6.2-7.5,7.2-4c0.5,1.7-4.5,2.9-5.4,1.8c-1.1-1.3-0.3-2.9,1.3-2.8c4.8,0.3-2,8.5-3.2,1.6c-0.2,1.3-0.3,2.6-0.5,3.9
			c0.7-1.4,2.9-1.5,4.2-1.4c0.9,0.1-1.7,0.4-2.2,0.3c-5.5-0.9-1-6.4-0.2-4.6c-1.6,2.1-3.2,4.2-4.8,6.3c1.3-0.2,5.2,0.5,4.3,2.8
			c-0.3,0.8-2.4,1.3-3,0.7c-1.2-1.2,1.5-3.7,2.3-4.2c0.9-0.6,1.9-0.6,2.7-1c0.3,0,0.7,0.1,1,0.1c-1.8-2.2-1.6-0.6,0.6,4.5
			C480.7,327.9,473.6,320.9,468.5,324.8L468.5,324.8z"/>
	</g>
</g>
<g id="XMLID_482_">
	<g id="XMLID_521_">
		<path id="XMLID_529_" d="M279.8,348.7c-4.5,3.6-2.2,11.1,3.1,12.6c5.8,1.6,11.7-4,12.7-9.4c1-5.8-3.5-10.2-9.1-10.7
			c-5.7-0.4-11.4,2.8-14.4,7.7c-6.3,10.4,4.5,22,15.3,16.1c11.7-6.4,3.8-23.8-8.5-22.2c-2.8,0.4-6.2,3-4.8,6.3
			c2.2,5.4,7.9,9.2,13.6,5.9c4.4-2.6,5.9-8.7,3.8-13.2c-5.9-12.2-23.5-2-19.7,9.9c1.8,5.5,7.4,9.6,13.3,9.3
			c5.3-0.3,10.8-4.1,11.3-9.7c1.2-12.4-18.6-14.4-23-4.3c-2.5,5.7,2.9,11.6,8.1,13.2c5.7,1.8,11.7-0.6,14.5-5.9
			c6-11.3-8.2-23.5-18.1-15.1c-4.2,3.6-5.1,9.9-2.4,14.7c3.2,5.7,10.1,7,16,4.9c5.5-2,9.8-7.6,8.1-13.6c-1.5-5.4-7.3-8.8-12.7-8.8
			c-12.6,0-21.1,17.7-8.5,24.6c11,6.1,27.6-7.7,16.6-18c-9.6-9.1-23.9,0.8-23.7,12.5c0.1,5.8,4.3,11.4,10.2,12.2
			c6.9,0.9,12.6-4.9,14.3-11.2c3.4-12.7-11.1-26.3-22.2-16.2c-10.5,9.5-2.2,25.3,10.5,26.6c6.5,0.6,14-2.2,18-7.4
			c4.3-5.6,1.8-12.1-2.9-16.4c-4.4-4-10.4-8.2-16.6-6.1c-5.1,1.7-8.3,7.2-8.1,12.3c0.5,12.1,17.5,13.5,22.2,3.4
			c2.6-5.6-0.3-12.4-6.5-13.8c-6.4-1.4-12.8,2.8-15.9,8.1c-7.2,12.1-1.1,28.7,3.5,40.6c4.8,12.4,11.5,26.3,7.7,39.8
			c-0.9,3.3-2.5,6.4-4.5,9.1c-0.9,1.3-2.1,2.5-3.2,3.6c0.1-0.1-2,1.4-2,1.5c-0.7,1.4-1.4-2,0.4,0.9c-1,2.4-2,4.9-3,7.3
			c17-3.3,22.2-22.6,19.9-37.5c-2.5-15.8-16.1-38.7-2-52.6c4.6-4.5-2.5-11.6-7.1-7.1c-12.4,12.2-9.5,30.3-5,45.3
			c2.5,8.4,5.9,17.5,4.5,26.4c-1.2,7.3-5.3,14.3-13,15.7c-3.2,0.6-4.6,4.8-3,7.3c4.2,6.9,12.5,4.2,17.4-0.4c6.4-6,10.4-14.3,11.4-23
			c2.2-17.9-7.8-33.8-12.6-50.3c-1.2-4-2.1-8-2.3-12.2c-0.1-2.4-0.1-4.8,0.6-7.1c0.3-1.2,3.5-7.4,5.7-6c-0.1-0.1-2.5,2.1-3.1,0.1
			c-0.3-0.9,0.8-2.2,1.6-2.4c1.7-0.4,5.6,3.1,6.6,4.3c2,2.4,1.2,3.6-1.4,5c-2,1.1-4.5,1.7-6.7,1.3c-3.7-0.7-8.4-5.7-4.4-9.1
			c4.5-3.9,7.5,4.4,5.2,7.9c-1.6,2.4-4,2.7-4.1-0.7c-0.1-1.6,1-3.5,2.3-4.5c0.7-0.6,5.3-1.9,5,0.3c-0.2,1.7-5.2,1.8-6,0.9
			c-3.2-3.7,6.2-7.5,7.2-4c0.5,1.7-4.5,2.9-5.4,1.8c-1.1-1.3-0.3-2.9,1.3-2.8c4.8,0.3-2,8.5-3.2,1.6c-0.2,1.3-0.3,2.6-0.5,3.9
			c0.7-1.4,2.9-1.5,4.2-1.4c0.9,0.1-1.7,0.4-2.2,0.3c-5.5-0.9-1-6.4-0.2-4.6c-1.6,2.1-3.2,4.2-4.8,6.3c1.3-0.2,5.2,0.5,4.3,2.8
			c-0.3,0.8-2.4,1.3-3,0.7c-1.2-1.2,1.5-3.7,2.3-4.2c0.9-0.6,1.9-0.6,2.7-1c0.3,0,0.7,0.1,1,0.1c-1.8-2.2-1.6-0.6,0.6,4.5
			C292,351.8,284.8,344.8,279.8,348.7L279.8,348.7z"/>
	</g>
</g>
<g id="XMLID_481_">
	<g id="XMLID_511_">
		<path id="XMLID_515_" class="st1" d="M197.8,273.6c0.8,0,0.8-1.3,0-1.3C197,272.3,197,273.6,197.8,273.6L197.8,273.6z"/>
	</g>
</g>
<g id="XMLID_480_">
	<path id="XMLID_520_" class="st3" d="M473.8,250.2c2.5-2,3.3-5.8,1.8-8.7c-0.9-1.8-2.6-3.1-3.7-4.8c-2-3.2-1.7-7.3-1.3-11.1
		c-2.1,3.6-4.2,7.2-6.3,10.9c-1,1.6-1.9,3.4-1.9,5.3c0.1,3.1,3.1,5.3,5.7,7.1c0.7,0.4,1.4,0.9,2.2,0.7c0.9-0.3,1.3-1.3,1.6-2.1
		c3-7.9,11.5-13.2,19.9-12.5c-2.3,2.8-3.7,6.2-4.1,9.7c-0.2,1.3-0.2,2.8-1.1,3.8c-0.9,1-2.5,1.2-3.9,1.3c-3.1,0.2-6.1,0.5-9.2,0.7
		c2.8-2,6.8,0.2,8.9,2.9c2.1,2.7,3.6,6.2,6.6,7.8c0.2,0.1,0.5,0.3,0.6,0.5c0.7,1-1.1,1.8-2.3,1.6c-3.6-0.4-7.3-0.8-10.5-2.5
		s-5.8-4.9-5.7-8.5c-1.7,1.7-2.6,4.1-2.5,6.5c0.1,1.3,0.4,2.7-0.3,3.8c-0.8,1.2-2.5,1.4-3.9,1.2s-2.9-0.7-4.3-0.4
		c-0.7-6,2.6-12.2,8-14.9c-5.6,4.6-13.3,6.7-20.5,5.4c-0.6-0.1-1.2-0.3-1.5-0.8c-0.2-0.5,0-1,0.1-1.5c0.8-2.1,1.7-4.4,3.6-5.7
		c1.4-1,3.2-1.2,4.9-1.3c5-0.3,10,0.4,14.7,2.1"/>
	<g id="XMLID_375_">
		<path id="XMLID_519_" class="st3" d="M474.2,250.6c2.3-2.3,3.4-5.4,2.2-8.7c-0.7-1.8-2-2.9-3.1-4.5c-2.6-3.8-2.6-7.5-2.1-11.9
			c0.1-0.6-0.9-0.8-1.2-0.3c-2.3,4-5,8-7,12.1c-0.9,2-1.6,3.8-0.9,6c0.8,2.5,5.7,7.9,8.7,6.6c1.4-0.6,1.6-2.3,2.2-3.5
			c1-2,2.3-3.9,4-5.5c2.7-2.6,8.1-6.2,12-5.5c2.4,0.4,0.8,0.8-0.2,3c-0.7,1.5-1,3-1.5,4.5c-1.1,3.3-2.8,5.5-6.5,6.4
			c-2.3,0.5-5,0.4-7.4,0.6c0.1,0.4,0.2,0.8,0.3,1.2c5.2-2.6,8.3,3.2,10.6,6.4c0.8,1.2,3.3,2.8,3.7,3.9c0.5,1.3-0.7,1.2-2.3,1.2
			c-1.7,0-3.6-0.5-5.2-1c-4.5-1.3-8.5-4.1-8.9-9.3c0-0.5-0.7-0.9-1.1-0.4c-1.2,1.4-2,2.8-2.4,4.6c-0.7,3.2-0.3,7.4-5.1,6.4
			c-7.1-1.5,1.9-12,5.3-13.9c-0.2-0.4-0.4-0.7-0.6-1.1c-2.9,2.2-6,3.9-9.5,4.9c-2.1,0.6-9.7,2.1-11-0.2c-0.8-1.5,0.8-4.1,2-5.3
			c2-1.9,4.8-2,7.3-2.1c4.3-0.1,8.5,0.8,12.6,2.1c0.8,0.3,1.1-1,0.3-1.2c-5.4-1.8-12.5-3.4-18.2-1.6c-2.6,0.9-6.3,4.7-6,7.8
			c0.3,3,4.6,2.6,6.9,2.5c6-0.1,11.5-2.3,16.2-5.9c0.6-0.5,0.1-1.5-0.6-1.1c-5.6,3.3-8.7,9-8.3,15.5c0,0.3,0.3,0.7,0.6,0.6
			c2.4-0.2,5.8,1.3,7.9-0.3c0.8-0.6,1.1-1.3,1.3-2.2c0.8-3.6-0.8-5.2,2.2-8.8c-0.4-0.1-0.7-0.3-1.1-0.4c0.3,4.7,3.3,8,7.6,9.8
			c2,0.8,10.8,3.9,12.2,0.7c0.2-0.5,0-1-0.1-1.5c-0.2-0.9-3.9-3.5-4.7-4.5c-0.9-1.2-1.6-2.6-2.5-3.7c-2.5-3-6-5-9.8-3.1
			c-0.5,0.3-0.3,1.2,0.3,1.2c3.6-0.3,10.8,0.7,13.6-2.3c0.8-0.9,0.9-1.8,1.1-2.9c1-4.1,1.5-7.2,4.2-10.8c0.3-0.4-0.1-0.9-0.5-0.9
			c-6.8-0.3-13.4,2.5-17.6,7.9c-1,1.3-1.5,3-2.5,4.3c-1.3,1.6-2.6,1.9-4.4,1.1c-1.1-0.5-3.2-2.4-3.6-3.6c-1.2-3.6,1.2-7.3,2.9-10.3
			c1.5-2.6,3-5.2,4.5-7.8c-0.4-0.1-0.8-0.2-1.2-0.3c-0.3,3.3-0.7,6.8,0.6,9.9c2.1,5,8.4,8.6,2.7,14.2
			C472.8,250.3,473.7,251.2,474.2,250.6L474.2,250.6z"/>
	</g>
</g>
<g id="XMLID_479_">
	<path id="XMLID_507_" class="st3" d="M320.6,260.6c4.2-3.9,5.4-10.7,2.6-15.8c-2.9,3.5-5.8,7-8.6,10.5c-0.4,0.4-0.8,1-0.6,1.5
		c0.1,0.4,0.5,0.7,0.8,0.9c1.3,0.9,2.6,1.8,3.9,2.7c-2.2-1.5-4.4-2.9-6.6-4.4c-0.9-0.6-1.8-1.2-2.8-1.3c-3.1-0.5-5.2,2.9-6.4,5.8
		c5.4,1.5,11.3,1.5,16.7,0.1c-2.2,3-4.1,6.3-5.6,9.8c-0.5,1.1-0.9,2.4-0.5,3.5c0.7,1.8,3.4,2.1,5,0.8c1.5-1.2,2-3.3,2-5.3
		s-0.3-3.9-0.1-5.8c0.1-0.8,0.6-1.8,1.4-1.8c0.6,0,1.1,0.6,1.5,1.1c3.3,4.4,9.8,6,14.8,3.8c-0.2-2.8-3.4-4.4-6.1-5.1
		c-3.3-0.8-6.8-1.3-10.2-1.4c4.8,0,10.4-0.5,12.9-4.5c0.3-0.5,0.6-1.2,0.6-1.8c-0.1-2.1-3.2-2.5-5.2-1.9c-3,0.9-5.7,2.7-7.8,5"/>
</g>
<g id="XMLID_478_">
	<path id="XMLID_505_" class="st3" d="M199.3,266.9c0.4-2.6,0.7-5.3-0.5-7.6c-1.2-2.3-4.7-3.4-6.4-1.5c-1.3,1.4-0.9,3.6-0.3,5.4
		c1.2,3.4,3.4,6.4,6.1,8.7c-2.9-0.7-5.9-0.9-8.9-0.5c-0.5,0.1-1.1,0.2-1.5,0.6c-0.4,0.5-0.4,1.2-0.3,1.8c0.5,3.3,3.8,5.9,7.2,5.6
		s6.2-3.3,6.2-6.7c2.2,1.6,4.6,3.3,7.3,3.3c2.7,0,5.5-2.7,4.6-5.2c-0.9-2.5-4.1-2.9-6.7-2.8c-1.1,0.1-2.3,0.2-3.2,0.7
		c-1,0.6-1.7,1.7-1.3,2.8c3.9-2,7.2-5.3,9.2-9.2c0.4-0.7,0.7-1.6,0.5-2.4c-0.3-0.9-1.1-1.5-2-1.7c-2.9-1-6.3,0.5-8.1,3
		c-1.8,2.5-2.2,5.8-1.6,8.8"/>
</g>
<g id="XMLID_477_">
	<path id="XMLID_455_" class="st3" d="M402.6,248.8c0.7-4,1.1-8,1.2-12.1c0-1.2,0-2.5-0.6-3.5c-1.2-2-4.4-2-6.2-0.5
		c-1.8,1.5-2.5,3.9-2.7,6.3c-0.2,2.4,0,4.9,1.2,7c1.2,2.1,3.4,3.7,5.8,3.5c-4.4-3.3-9.8-5.1-15.3-4.9c-1.3,0-2.6,0.2-3.5,1.2
		c-0.5,0.6-0.7,1.4-0.7,2.1c-0.3,4.3,4.2,7.7,8.5,7.8c4.3,0.1,8.3-2.2,11.8-4.7c-3.4,2.1-3.7,7.8-0.4,10.2s8.7,0.3,9.5-3.6
		c0.9-3.9-3.2-8.1-7.1-7.2c-0.6,1.2,0.4,2.7,1.7,3s2.6-0.3,3.8-1c3.4-2,6.3-4.8,8.4-8.2c0.3-0.5,0.6-1.1,0.6-1.7
		c0-1.8-2.2-2.7-3.9-2.5c-4.9,0.3-9.1,5-8.8,9.8c3.9-2.1,5.6-7.4,3.7-11.4c-0.4-0.8-0.9-1.6-1.8-1.7c-1.3-0.3-2.3,1.1-3,2.3
		c-2.3,4.4-3.7,9.3-4.1,14.2"/>
</g>
<g id="XMLID_476_">
	<path id="XMLID_453_" class="st3" d="M277.3,236.1c1.3-2,2.5-4,2.7-6.3c0.1-2.3-1.4-4.9-3.7-5.1c-2.7-0.2-4.6,2.7-5,5.4
		c-0.6,4.2,1.1,8.7,4.4,11.4c1,0.8,2.9,1.3,3.3,0.1c0.3-0.8-0.3-1.6-1-2.1c-4.6-4.1-11.6-5.3-17.3-3c-1,0.4-2.1,1.2-2,2.3
		c0.1,0.5,0.4,0.9,0.7,1.3c3.1,3.8,7.9,6.1,12.7,6c-2.3,0.5-4.8,1.4-6.1,3.4s-1,5.2,1.2,6.2c1.1,0.5,2.4,0.3,3.5-0.1
		c4.1-1.4,6.7-5.4,9.1-9.1c0,2.7,2.7,5.1,5.4,4.8s4.8-3,4.6-5.7s-2.7-5-5.4-5.2c-1.9-0.1-4.1,1.3-3.7,3.1c0.4,1.5,2.3,2,3.8,1.9
		c5-0.3,9.6-4.5,10.4-9.5c0.2-1,0.2-2.1-0.3-3.1c-1.2-2.5-4.9-2.4-7.6-1.8c-1.4,0.4-2.9,0.8-3.7,2c-0.5,0.8-0.6,1.8-1,2.6
		c-0.7,1.8-2.4,3.2-4.3,3.5"/>
</g>
<g id="XMLID_475_">
	<path id="XMLID_452_" class="st3" d="M239.1,284.2c1.4-1.5,2.8-3.1,3.5-5s0.7-4.2-0.6-5.8c-2.2-2.6-6.9-1.3-8.3,1.8
		s0.1,6.9,2.6,9.1c0.7,0.6,2.1,0.9,2.3,0c-3.2-2.3-7.5-3-11.3-1.9c-1,0.3-2.1,1-2.1,2c0,0.4,0.2,0.8,0.5,1.2c2,3,6.4,3.9,9.5,2.1
		c-2.4,0.9-4.1,3.4-4,5.9c0,0.3,0.1,0.6,0.2,0.9c0.5,0.7,1.5,0.4,2.3,0.1c3.3-1.7,6.1-4.4,7.9-7.7c1.1,1.7,1.4,4.1,3.1,5.2
		c1.9,1.3,4.8,0.1,5.6-2.1c0.8-2.2-0.5-4.7-2.5-5.8c-1-0.5-2.2-0.7-3.1,0c-1.2,0.9-1,3,0.3,3.9s2.9,0.9,4.4,0.4
		c3.2-1.1,5.5-4.1,6.8-7.3c0.6-1.4,1-3.1,0.3-4.5c-0.9-1.7-3.2-2.2-4.9-1.5c-1.8,0.7-3.1,2.2-4.1,3.7c-1.6,2.4-2.9,5-3.7,7.8"/>
</g>
<g id="XMLID_474_">
	<path id="XMLID_451_" class="st4" d="M287.5,283c1.5-1.5,2.6-3.3,3.4-5.3c0.2-0.6,0.4-1.3,0.2-1.9c-0.4-1.2-1.9-1.5-3.2-1.3
		c-2.9,0.5-5.3,3.1-5.5,6c-0.3,2.9,1.6,5.9,4.4,6.9c0.6-1.8-1.8-3-3.6-3.1c-2.4-0.1-4.9,0.6-6.5,2.4c-1.5,1.8-1.5,5,0.4,6.4
		c2.3,1.7,5.6,0.1,7.9-1.7c-1.6,1.4-3.3,2.9-4.1,4.9c-0.7,2-0.1,4.7,2,5.5c1.1,0.4,2.2,0.2,3.3-0.1c3.9-1.2,7.2-4.3,8.7-8.1
		c0.3-0.7,0.5-1.5,0.1-2.2c-0.5-0.9-2-0.9-2.7-0.1s-0.6,2.1-0.1,3c1.3,2.5,4.9,2.9,7.5,1.9c3.2-1.2,5.9-4.3,5.9-7.7
		s-3.4-6.7-6.8-5.9c0.5,1.2,2.6,0.7,2.8-0.6c0.2-1.3-1-2.4-2.3-2.6c-1.3-0.2-2.6,0.3-3.7,0.9c-3.8,1.8-7.3,4.2-10.4,7"/>
</g>
<g id="XMLID_418_">
	<path id="XMLID_449_" class="st4" d="M369.6,254.7c-0.1-1.7-0.4-3.3-0.9-4.9c-0.2-0.5-0.4-1-0.7-1.3c-1.3-1.1-3.2,0.5-3.6,2.1
		c-1.2,4.3,2.1,9.2,6.5,9.7c-2.4-1-4.9-1.6-7.5-1.6c-2.6,0-5.6,0.8-6.6,3.2c-1,2.5,1,5.4,3.5,6.4c2.5,1,5.3,0.6,8,0.1
		c-1-0.8-2.7,0.1-2.9,1.3c-0.2,1.2,0.7,2.5,1.9,3c1.2,0.5,2.5,0.4,3.7,0c3.3-0.9,6.2-3.3,7.6-6.4c0.5-1,0.8-2.3,0.4-3.3
		c-0.5-1.1-2-1.6-2.8-0.8c0.2,1.8,2.3,2.9,4.1,2.6c1.8-0.3,3.3-1.5,4.6-2.7c0.7-0.6,1.3-1.2,1.7-2c0.7-1.6-0.4-3.6-2.1-3.9
		c-1.7-0.3-3.4,1.2-3.4,2.9c2.2,0.3,4.7-0.8,5.7-2.8s0.5-4.8-1.5-5.9c-1.9-1.2-4.4-0.5-6.4,0.5c-2.8,1.4-5.1,3.6-6.8,6.2"/>
</g>
<g id="XMLID_411_">
	<path id="XMLID_447_" class="st4" d="M438.3,252.9c-0.1-1.8-0.2-3.7-0.9-5.4c-0.7-1.7-2.1-3.2-3.9-3.5c-1.5-0.3-3,0.3-4.2,1.2
		c-2.6,2-3.6,5.8-2.4,8.8c1.2,3,4.6,5.1,7.8,4.8c-1.5-1.3-4.2,0.4-4,2.4c0.2,2,2.4,3.3,4.4,3.1c2-0.2,3.7-1.5,5.1-2.9
		c4.1-4.2,6.4-9.8,9.4-14.8c1-1.8,3.1-3.7,4.8-2.6c1.4,0.9,1.1,3.1,0.3,4.5c-1.6,2.9-4.7,5-8,5.3c2.6,0.3,5.5,0.6,7.4,2.4
		c2,1.8,2.4,5.5,0.1,6.8c-2.3,1.4-5.2-0.6-7.9-0.9c1.6,0.8,3.2,1.7,4.3,3.2s1.2,3.7-0.1,4.9c-0.7,0.7-1.7,0.9-2.6,1.1
		c-2.6,0.5-5.3,0.5-7.9,0.1c-0.5,0.8-1,1.7-1.5,2.5c-1.5-0.2-2.7-1.6-3-3.2c-0.3-1.5,0.2-3.1,0.7-4.5c1.5-3.9,3.8-7.4,6.7-10.3
		c1.8-1.8,3.9-3.5,4.8-5.8s-0.3-5.8-2.8-6c-1.2-0.1-2.3,0.5-3.2,1.3c-2.9,2.6-3.7,7.3-1.7,10.7c-0.4-0.5-1.1-0.7-1.8-0.6
		c-2.1,1.9,0.3,5.5-0.4,8.3c-0.2,1-0.9,1.9-1.6,2.7c-2.1,2.5-4.5,4.8-7.2,6.8c-2.7-1.5-3.4-5.7-1.4-8.1c2.4-2.7,6.9-2.3,9.7-4.5"/>
</g>
<g id="XMLID_404_">
	<path id="XMLID_445_" class="st4" d="M504.8,256.4c-0.4-2.5-0.8-5-1.1-7.5c-2.9,3.6-2.9,9.1,0,12.7c0.9-1.9-0.4-4.3-2.2-5.4
		c-1.9-1-4.1-1-6.2-1c-0.5,0-1,0-1.4,0.3c-0.7,0.6-0.4,1.7,0,2.5c2.6,4.9,8,8.1,13.5,8.1c-0.8-1.7-3.8-1.3-4.5,0.5
		c-0.7,1.8,0.7,3.9,2.6,4.4s3.8-0.1,5.4-1.3c2.1-1.6,3.6-4.1,3.9-6.8c0.1-1.3,0-2.7-1-3.5c-1-0.8-2.8-0.5-3,0.7
		c-0.1,0.4,0,0.9,0.3,1.2c0.8,1.3,2.8,1.5,4.2,0.8c1.4-0.7,2.3-2.1,3.2-3.4c0.8-1.2,1.7-2.5,1.9-4s-0.4-3.2-1.8-3.7
		c-2.2-0.9-4.3,1.5-5.4,3.6c1.7,0.4,3.4-1.5,3.1-3.3c-0.2-1.8-1.9-3.1-3.7-3.3c-1.8-0.2-3.5,0.4-5,1.3c-4,2.5-6.5,7.8-4.7,12.2"/>
</g>
<g id="XMLID_397_">
	<path id="XMLID_443_" class="st4" d="M235.3,243.3c0.9-2.7,1.7-5.7,0.7-8.3c-1-2.7-4.8-4.3-6.8-2.3c-1.8,1.8-0.8,4.8,0.3,7.1
		c1,2,2.3,4.2,4.5,4.3c-1.9-0.6-3.8-1.2-5.8-1s-4,1.6-4.3,3.5c-0.3,1.9,1.1,3.8,2.8,4.6c1.7,0.9,3.7,1,5.6,1.1c-1.6,0-2.7,2.1-2,3.6
		s2.6,2.1,4.2,1.8c1.6-0.3,3.1-1.2,4.4-2.2c0.9-0.7,1.8-1.4,2.3-2.4c0.5-1,0.4-2.3-0.4-3.1c-0.7-0.2-0.5,1.1,0.1,1.5
		c2.4,1.6,5.9,0.5,7.8-1.8c1.2-1.5,1.9-3.6,1.3-5.5c-0.6-1.8-2.9-3.1-4.7-2.2c-1.8,0.9-1.8,4,0,4.6c0.9,0.3,1.9,0,2.6-0.6
		c2.2-1.6,2.2-5.4,0-7s-5.8-0.5-6.7,2c1.5,0.6,3.3-0.3,4.1-1.7c0.8-1.4,0.9-3.1,0.9-4.7c0-0.6,0-1.2-0.3-1.7c-1-1.7-3.5-0.6-4.9,0.7
		c-2.9,2.8-5,6.4-6,10.3"/>
</g>
<g id="XMLID_363_">
	<path id="XMLID_441_" class="st4" d="M198.7,284.6c0.2-1.8,0.5-3.7-0.3-5.3c-0.7-1.7-2.8-2.8-4.4-2c-0.7,0.4-1.2,1.1-1.5,1.8
		c-1.5,3.7,1.7,8.3,5.7,8.2c-2.1-0.2-4.3,0.5-5.9,1.8c-1.3,1-2.3,2.5-2.1,4.1c0.2,3.1,4.4,4.5,7.2,3.2c2.8-1.3,4.4-4.3,5.6-7.1
		c-1.4,1.4-1.2,3.9,0.2,5.3c1.4,1.4,3.6,1.8,5.5,1.2c4-1.2,6.1-6.4,4.2-10c-0.7-1.4-2.8-2.4-3.7-1.1c0.5,1.6,2.7,2,4.2,1.2
		c1.4-0.9,2.1-2.6,2.6-4.2c0.4-1.5,0.6-3.3-0.2-4.6c-1-1.6-3.3-2.1-5.1-1.5c-1.8,0.6-3.3,2-4.5,3.4c-1.9,2.1-3.6,4.5-5.1,6.9"/>
</g>
<g id="XMLID_362_">
	<path id="XMLID_439_" class="st4" d="M358.7,239.5c-2.3,2.4-3.9,5.4-4.4,8.7l-0.7,1.2c1.4-4.6,1.7-9.6,0.8-14.4
		c-0.2-0.9-0.5-2-1.4-2.3c-0.9-0.3-1.9,0.3-2.5,1c-3,3.1-3.5,8.1-1.8,12c-1.1-0.3-2.3-0.2-3.3,0.4c-2.6,1.7-2.8,5.9-0.6,8.2
		c1.5,1.6,3.8,2.2,6,1.9c-0.4,0.6-0.6,1.3-0.3,2c0.6,1.7,2.7,2.5,4.5,2.5c2.5,0,5-0.9,6.8-2.6c1.3-1.2,2.4-3,2.1-4.7
		c0-0.1-0.1-0.2-0.1-0.3c2.1,0.2,4.4-0.5,5.6-2.3c1-1.4,1.2-3.3,0.8-5C365.7,245.7,361,243.5,358.7,239.5z"/>
</g>
<g id="XMLID_361_">
	<path id="XMLID_424_" class="st4" d="M409.8,274.8c0.5-2.4,0.2-5-1.2-7c-1.5-2-4.2-3-6.5-2.1c-2.3,0.9-3.5,4-2.2,6
		c1.4,2.1,4.5,2.2,7,1.7c-2-0.4-4,1.5-4.1,3.6c-0.1,2,1.3,3.9,3,5c1.6,0.9,3.6,1.3,5.2,0.4c1.6-0.9,2.2-3.4,0.8-4.6
		c-1.8,1.6-0.2,5.1,2.3,5.4s4.7-1.4,6-3.5c0.9-1.4,1.5-3,1.2-4.6s-1.9-3-3.5-2.6c0.2,0.9,1.2,1.4,2.1,1.2s1.6-0.8,2.2-1.5
		c1.5-1.8,2.3-4.3,2-6.7c-0.2-1.9-1.6-4-3.4-3.6c-0.6,0.1-1,0.5-1.5,0.8c-1.6,1.3-2.9,3.1-3.7,5c0.6-0.2,1.1-0.5,1.6-0.8
		c2-1.7,0.7-5.4-1.8-6.1s-5.2,0.9-6.7,3.1c-1.4,2.2-1.9,4.8-1.8,7.4"/>
</g>
<g id="XMLID_354_">
	<path id="XMLID_390_" class="st4" d="M432.2,238.2c1.6-4.7,2.3-9.7,2-14.6c-0.1-2.1-0.7-4.6-2.7-5.4c-2.6-1-5.2,1.9-6,4.6
		c-1.1,3.7-0.6,8.3,2.6,10.4c-0.3-3.3-4.7-5.2-7.5-3.4c-2.8,1.8-3.1,6.2-0.9,8.6s6.2,2.8,9,1.2c-0.7-1.2-2.9-0.1-2.8,1.3
		s1.7,2.3,3.1,2.5c3.5,0.5,6.8-1.9,8.9-4.8c2.1-2.8,3.4-6.2,5.5-9c1.3-1.8,3.5-3.5,5.6-2.7c0.8,0.3,1.4,0.9,1.9,1.6
		c1.7,2.6,1.2,6.3-1,8.4c-2.2,2.1-6,2.2-8.4,0.3c1.6,0.1,3.3,0.1,4.7,1c1.4,0.9,2.2,2.8,1.4,4.2c-0.6,1-1.8,1.4-2.9,1.8
		c-2.1,0.9-4,2.4-5.4,4.3c-0.4,0.6-0.8,1.2-1.5,1.4c-0.6,0.1-1.3-0.2-1.8-0.5c-1.6-1-3-2.1-4.4-3.3c-1.5-1.3-3-3-3-5s2.4-3.9,4-2.8
		c-0.3,0.5-0.6,1.1-0.9,1.6"/>
</g>
<g id="XMLID_348_">
	<path id="XMLID_376_" class="st4" d="M261.9,264.4c0.5-1.1,1-2.3,0.8-3.5c-0.2-1.2-1.7-2.2-2.7-1.6c-0.4,0.2-0.7,0.7-0.9,1.1
		c-1.4,3-0.2,6.9,2.7,8.7c-0.9-2.4-4.4-3.4-6.4-1.8c-2.5,2.1-1.3,6.8,1.8,7.9c3.1,1.1,6.7-1.1,7.7-4.2c-1.2,0.1-1.7,1.8-1,2.8
		c0.6,1,1.9,1.4,3.1,1.4c4.1,0.1,8-3.3,8.4-7.4c0.3-2.6-1.7-5.7-4.2-5.1c-0.3,1.5,0.9,3.1,2.4,3.4c1.5,0.4,3.1-0.2,4.3-1.2
		c1.6-1.2,2.8-3.4,2.2-5.3c-0.7-2.6-4.1-3.7-6.6-2.7s-4.1,3.4-5.1,5.9c1.9-2.2,1.8-5.8-0.2-7.9c-0.4-0.4-0.8-0.8-1.4-0.8
		c-0.7-0.1-1.4,0.5-1.9,1c-3.7,4.1-4.7,10.4-2.4,15.5"/>
</g>
<g id="XMLID_342_">
	<path id="XMLID_364_" class="st4" d="M176.5,249.9c1.4-2.7,1.8-5.8,1.3-8.8c-0.4-2-1.7-4.3-3.8-4.1c-1.3,0.1-2.3,1.2-2.9,2.4
		c-2,3.9-1.2,9.1,2.1,12.2c0.5,0.4,1.1,0.9,1.7,0.7c0.8-0.2,1.1-1.2,0.7-1.9s-1-1.1-1.8-1.4c-3.1-1.1-7.1,1-7.6,4.3
		c-0.5,3.3,3.5,6.4,6.4,4.8c-1.7-0.9-3.8,1.3-3.2,3.2s2.9,2.7,4.8,2.2s3.4-1.8,4.8-3.1c2.4-2.4,4.8-6.3,2.8-9.1
		c2.2,3.4,8,3.4,10.2,0.1c2.3-3.3,0.1-8.7-3.9-9.5c-0.5-0.1-1.1-0.1-1.6,0.2c-0.9,0.5-0.7,2,0.1,2.6c0.8,0.7,1.9,0.8,2.9,0.7
		c2.7-0.1,5.9-1.5,5.8-4.1c0-1.1-0.7-2.1-1.5-2.8c-3-2.6-7.9-1.7-10.6,1.1c-2.7,2.8-3.7,7-3.8,10.9"/>
</g>
<g id="XMLID_336_">
	<g id="XMLID_432_">
		<path id="XMLID_437_" class="st5" d="M252.3,247.5c0.8,0,0.8-1.3,0-1.3C251.5,246.2,251.5,247.5,252.3,247.5L252.3,247.5z"/>
	</g>
</g>
<g id="XMLID_6_">
	<path id="XMLID_504_" class="st5" d="M341.3,238.6c3.8-1.4,5.9-6.2,4.4-9.9c-1.5-3.7-6.3-5.7-10-4.1s-5.5,6.5-3.8,10.1
		c-1.7-2.1-4.8-2.6-7.6-2.3c-1.9,0.2-3.8,0.7-5.3,1.9c-1.5,1.1-2.6,3-2.4,4.9c0.2,2.6,2.6,4.5,4.9,5.4c2.4,1,5,1.4,7.3,2.6
		c-4.7-0.9-9.8,2.1-11.3,6.7c-0.6,2-0.5,4.5,1,5.9c0.8,0.7,1.9,1.1,3,1.3c4.8,0.8,10-2.2,11.8-6.8c1.1,3.7,4,6.7,7.6,7.9
		c2,0.7,4.5,0.7,6.1-0.7c1.4-1.3,1.7-3.4,1.8-5.3c0.1-3.2-0.8-7.1-3.9-8.1c1.2,1.3,3.3,1.6,4.9,0.9c1.7-0.7,2.9-2,3.9-3.6
		c0.8-1.3,1.4-2.8,1.3-4.3c-0.2-3.1-3.4-5.5-6.5-5.5c-3.1,0-6,1.7-8.2,3.9"/>
	<g id="XMLID_499_">
		<path id="XMLID_503_" class="st5" d="M341.6,239.1c6.3-3,7.1-12.2,0.1-15.1c-7-2.8-12.9,4.2-10.5,10.8c0.3-0.2,0.7-0.4,1-0.6
			c-4-3.9-13-3.5-15.8,1.9c-3.9,7.6,7.5,9.6,11.8,11.7c0.1-0.4,0.2-0.8,0.3-1.2c-5.8-0.7-15.7,5.5-11.6,12.5
			c4.1,6.9,14.3,0.6,16.6-4.4c-0.4,0-0.8-0.1-1.1-0.1c1.8,5,9,12.2,14.6,7.6c4.1-3.4,2.5-12.3-2.1-14.4c-0.6-0.3-1.4,0.5-0.8,1
			c4.9,3.8,11.7-1.8,11.2-7.5c-0.3-2.9-2.8-5.2-5.6-5.8c-3.9-0.9-7.4,1.5-10.2,3.9c-0.6,0.5,0.3,1.4,0.9,0.9c3-2.7,6-4.5,10-2.8
			c7.4,3.1,0.4,14.9-5.4,10.4c-0.3,0.3-0.5,0.7-0.8,1c2.6,1.2,3.4,3.7,3.6,6.3c0.2,2.8-0.2,3.8-2.5,5.5c-2.6,1.9-4.1,1.8-7-0.1
			c-2.3-1.5-3.8-3.8-4.8-6.3c-0.2-0.5-0.9-0.7-1.1-0.1c-1.1,2.4-2.7,4.3-5.1,5.5c-2.8,1.4-8.3,2.2-9.7-1.9
			c-2.1-6.2,6.2-10.2,10.9-9.7c0.6,0.1,0.9-0.9,0.3-1.2c-2.7-1.3-5.8-1.7-8.4-3.2c-4.2-2.4-2.1-9,2.5-10.3c2.9-0.8,6.2-0.2,8.4,1.9
			c0.4,0.4,1.3,0,1-0.6c-2-5.6,2.6-11.8,8.8-9.3c6.2,2.5,5.2,10.2-0.2,12.8C340.3,238.4,340.9,239.4,341.6,239.1L341.6,239.1z"/>
	</g>
</g>
<g id="XMLID_5_">
	<path id="XMLID_497_" class="st5" d="M454.8,233.8c1.3-1.6,2.5-3.1,3.3-5s0.9-4.1-0.2-5.8c-1-1.7-3-2.7-5-3.1
		c-4.4-0.8-9.7,1.2-11.2,5.5c-0.7,1.9-0.5,4.2,1,5.6c-0.7-1.8-3.1-2.1-5-2c-2.5,0.2-5.2,0.8-7.2,2.3c-2,1.6-3.2,4.3-2.4,6.8
		c0.6,1.8,2.3,3.1,4.1,3.8s3.7,0.8,5.6,0.9c-1.6,1.6-2.9,3.4-4,5.4c-1,1.8-1.8,3.9-0.8,5.7c0.8,1.4,2.4,2.2,4,2.3
		c5.2,0.6,10.4-3.9,10.6-9.1c0.5,3,2.8,5.6,5.6,6.5c2.9,1,6.2,0.3,8.5-1.8c2.5-2.3,3.4-6.2,1.9-9.2c-0.8-1.6-2.4-2.9-4.2-2.9
		c1.1,0.9,2.8,0.7,4,0.1c1.2-0.7,2.2-1.8,3-3c1.4-2,2.6-4.7,1.4-6.9c-1.3-2.4-4.8-2.7-7.1-1.4c-2.3,1.3-3.8,3.8-5.1,6.1"/>
	<g id="XMLID_492_">
		<path id="XMLID_496_" class="st5" d="M455.2,234.3c2.4-3,5.2-6.7,3.5-10.7c-1.3-3.3-5.1-4.5-8.4-4.4c-6,0.2-12.8,6.4-8.2,12.3
			c0.4,0.6,1.4-0.2,1-0.8c-3.2-4.7-12.4-2-15,2.2c-4.2,6.9,4.1,10.1,9.5,10.5c-0.1-0.4-0.3-0.7-0.4-1.1c-3.3,3.6-9.4,12.5-1.1,14.4
			c6.1,1.3,11.4-3.8,12-9.6c-0.4,0.1-0.8,0.1-1.2,0.2c1.7,6.6,9.6,10,15.1,5.1c4.2-3.8,3.9-12.2-2.5-13.2c-0.6-0.1-1.2,0.8-0.5,1.1
			c5.3,2.3,12-5.6,9.3-10.7c-3.7-7-11.2,1.1-13.3,4.7c-0.4,0.7,0.7,1.3,1.1,0.6c1.2-2.1,2.6-4.7,4.9-5.9c9.3-4.7,6.6,13.6-1.3,10.1
			c-0.2,0.4-0.3,0.8-0.5,1.1c2.2,0.3,4.6,3.7,4.5,5.9c-0.2,3.3-2.5,5.6-5.5,6.6c-4.7,1.4-8.8-1.3-10-5.9c-0.2-0.7-1.2-0.5-1.2,0.2
			c-0.5,4.4-4.1,8.4-8.7,8.5c-0.8-0.1-1.6-0.2-2.3-0.3c-0.5-2.3-1.1-4.6-1.6-6.9c0.3-1.7,2.8-4,3.9-5.2c0.4-0.4,0.1-1-0.4-1.1
			c-4.5-0.3-13.6-3.6-7.1-9.9c2.2-2.2,9.1-4.6,11.5-1c0.3-0.3,0.7-0.5,1-0.8c-3.8-4.9,2.6-10,7.3-10.2c3.1-0.1,7.8,1.2,7.6,5.5
			c-0.1,2.9-2,5.4-3.7,7.5C453.8,234,454.7,234.9,455.2,234.3L455.2,234.3z"/>
	</g>
</g>
<g id="XMLID_4_">
	<path id="XMLID_490_" class="st5" d="M252.8,245.7c-1.1-2.6-4.3-4.1-7-3.4c-2.7,0.8-4.7,3.6-4.5,6.4c0.1,2.8,2.3,5.4,5,6.2
		c-4.7-0.8-9,3.9-9,8.6c0,1.1,0.2,2.2,0.8,3.2c1.2,2,3.6,2.8,5.9,3c4.7,0.3,9.5-1.4,12.9-4.7c-0.2,3.5,0.1,7.6,3.2,9.3
		c3.3,1.8,7.4-0.8,9.1-4.1c1.3-2.5,1.8-5.4,1.1-8.1c-0.7-2.7-2.6-5.1-5.3-6c0.2,1,1.2,1.6,2.2,1.7c1,0.1,1.9-0.4,2.8-0.9
		c2.2-1.3,4.2-3.3,4.9-5.8c0.7-2.5-0.2-5.5-2.4-6.9c-2.2-1.3-5.7-0.4-6.4,2.1c2.3-2.3,2.2-6.4-0.1-8.7c-2.3-2.3-6.2-2.6-8.9-0.8
		c-2.7,1.7-4.1,5.2-3.6,8.4"/>
	<g id="XMLID_469_">
		<path id="XMLID_473_" class="st5" d="M253.3,245.4c-2.4-4.3-8.2-5.3-11.3-1.1c-3.2,4.3-0.4,9.4,4.1,11.2c0.1-0.4,0.1-0.8,0.2-1.2
			c-6-0.3-12.4,6.9-8.7,12.8c4.2,6.8,15.4,2.2,19.8-1.7c-0.4-0.1-0.7-0.3-1.1-0.4c-0.2,6.1,3.3,14.1,10.5,8.9
			c6.4-4.6,5.8-15-1.4-18.3c-0.6-0.3-1.1,0.3-0.9,0.9c3,6.1,11-2.5,11.2-6.6c0.3-5.9-7.2-9.7-10.2-3.8c-0.3,0.6,0.5,1.3,1,0.8
			c3.2-4,1.9-10-3.3-11.4c-6.3-1.8-10.8,4-10.4,9.9c0.1,0.8,1.3,0.8,1.3,0c-0.3-4,1-6.6,4.7-8c5.5-2.2,11.3,3.3,6.9,8.7
			c0.3,0.3,0.7,0.5,1,0.8c5.2-2.6,7.7-1.9,7.4,2c0.6,1.6,0.4,3.1-0.7,4.5c-1,1.5-5.9,6.3-7.7,2.7c-0.3,0.3-0.6,0.6-0.9,0.9
			c5.3,2.5,6.9,9.7,3.1,14.3c-2.5,3-7.3,5.9-10-0.8c-0.6-1.5-0.4-3.6-0.4-5.1c0-0.6-0.7-0.8-1.1-0.4c-3.4,3-7.8,5-12.4,4.5
			c-9.4-0.9-6.2-14,2.3-13.5c0.8,0,0.8-1,0.2-1.2c-10.2-4.1,0.9-17.1,5.8-8.3C252.6,246.7,253.7,246.1,253.3,245.4L253.3,245.4z"/>
	</g>
</g>
<g id="XMLID_3_">
	<path id="XMLID_467_" class="st5" d="M414,220.1c1.5-2.1,0.9-5.2-0.9-7c-1.9-1.7-4.8-2.1-7.2-1.1c-3.4,1.4-5.4,5.7-4.3,9.2
		c-1.8-3.3-4.5-6.2-7.9-7.5c-3.5-1.3-7.8-0.8-10.3,2c-1.8,1.9-2.4,4.8-1.7,7.3s2.8,4.6,5.3,5.3c-2.7,1.5-5.3,3.6-6.8,6.3
		c-1.5,2.7-1.9,6.3-0.3,9s5.3,4.2,8.1,2.8c2.6-1.3,3.9-4.4,6.5-5.5c1.1,3.6,4.2,6.6,7.9,7.1c3.7,0.5,7.7-1.7,8.9-5.2
		c1.2-3.5-0.9-7.9-4.4-9c3.4,1.8,8.1,0.3,9.9-3.2c1.8-3.4,0.3-8.1-3.1-10"/>
	<g id="XMLID_461_">
		<path id="XMLID_466_" class="st5" d="M414.5,220.4c2.3-4.6-0.8-9.7-6.1-9.6c-5.4,0.2-8.4,5.6-7.4,10.5c0.4-0.2,0.8-0.3,1.1-0.5
			c-3.5-5.9-11.4-11.9-18.2-6.7c-5.6,4.4-3.3,12.3,2.8,14.6c0-0.4-0.1-0.8-0.1-1.1c-5.5,3.3-12.1,11.1-6.5,17.4c1.8,2,4.7,3,7.3,2.1
			c2.7-0.9,5.1-5.8,7.3-4.1c1.3,1,1.9,2.7,3.3,3.8c1.2,0.9,2.6,1.5,4.1,1.7c2.7,0.4,5.5-0.5,7.5-2.3c4.4-4.1,2.6-10.9-2.7-13
			c-0.1,0.4-0.2,0.8-0.3,1.2c9.5,3.7,15.7-8.6,7.3-14.3c-0.7-0.4-1.3,0.6-0.6,1.1c7.2,4.8,1.5,15.1-6.4,12c-0.8-0.3-1.1,0.9-0.3,1.2
			c6.2,2.5,5.1,10.7-0.8,12.6c-4.8,1.5-9.2-2-10.8-6.3c-0.1-0.4-0.5-0.6-0.9-0.4c-3.2,1.8-5.5,6.7-9.9,5.8
			c-5.2-1.1-5.4-7.7-3.5-11.3c1.5-2.7,4-4.6,6.6-6.1c0.5-0.3,0.3-1-0.1-1.1c-8.7-3.3-5.1-14.7,3.7-13.9c4.7,0.5,7.9,3.9,10.2,7.8
			c0.4,0.6,1.3,0.2,1.1-0.5c-0.5-2.3,0-5.7,2.1-7.3c1.4-0.6,2.7-1.1,4.1-1.7c4.3,0,5.9,2.5,5.1,7.7
			C413.1,220.5,414.2,221.1,414.5,220.4L414.5,220.4z"/>
	</g>
</g>
<g id="XMLID_2_">
	<path id="XMLID_1092_" class="st5" d="M517.9,254.3c2.1-2.4,4.3-5.4,3.3-8.3c-0.7-1.9-2.6-3.2-4.6-3.8c-3.3-0.9-7.1,0.1-9.3,2.7
		s-2.4,6.8-0.2,9.5c-2.5-2.1-6-2.8-9.1-1.9c-3.1,0.9-5.7,3.3-6.7,6.4c-0.7,2.1-0.5,4.7,1.2,5.9c1.2,0.8,2.7,0.9,4.1,0.9
		c3.2,0,6.4,0,9.6,0c-0.3,2.3-0.5,4.7,0,6.9s1.9,4.5,4.1,5.3c2.5,1,5.5-0.2,7.2-2.3c1.7-2.1,2.2-4.9,2-7.6c1.9,3.2,6.2,4.8,9.7,3.4
		c3.5-1.4,5.7-5.4,4.9-9.1c-0.3-1.5-1.2-3-2.6-3.8c-1.4-0.8-3.3-0.7-4.4,0.5c3.5,0,6.4-3.8,5.6-7.2s-4.5-5.7-8-5.2
		c-3.5,0.5-6.3,3.6-6.9,7"/>
	<g id="XMLID_458_">
		<path id="XMLID_1090_" class="st5" d="M518.3,254.7c2.1-2.5,4.7-5.7,3.4-9.1c-1-2.9-4.4-4.3-7.3-4.4c-7.2-0.2-12.1,7.2-7.9,13.4
			c0.3-0.3,0.6-0.6,0.9-0.9c-4.9-3.5-11.8-3-15.4,2.2c-3.5,5.1-1.3,9.9,4.7,10.2c1.7,0.1,6.2-0.9,7.7,0c1.8,1.1,0.9,3.8,1.2,5.6
			c0.4,2.7,1.9,5.5,4.6,6.6c6.7,2.5,10.1-5.3,10-10.5c-0.4,0.1-0.8,0.2-1.2,0.3c3.8,5.4,12.2,5.7,15.1-0.8c2.1-4.7-1.5-13.2-7.3-9
			c-0.4,0.3-0.4,1.2,0.3,1.2c5.7-0.7,8.6-7.5,4.1-11.6c-5.3-4.9-12.3-0.6-14,5.4c-0.2,0.8,1,1.1,1.2,0.3c1-3.6,2.8-5.6,6.5-6.1
			c1.6-0.6,3.1-0.4,4.5,0.6c4.3,4.6,3.5,7.9-2.3,10.2c0.1,0.4,0.2,0.8,0.3,1.2c5.1,0.6,7,2.7,5.9,6.3c-0.5,1.9-1.7,3.4-3.3,4.5
			c-3.6,2.1-7.7,0.5-10-2.6c-0.3-0.5-1.2-0.3-1.2,0.3c0,4.3-4.9,15.8-11.1,6.9c-1.8-2.6-1.2-6.3-0.9-9.2c0-0.3-0.3-0.6-0.6-0.6
			c-4.7,0-17.5,1.2-13.4-7.6c2.6-5.5,9.5-5.6,13.9-2.5c0.5,0.4,1.2-0.4,0.9-0.9c-3.4-5,0.2-11.2,6.1-11.5c1.7-0.1,4.5,0.5,5.7,1.9
			c3,3.4,0.1,7-2,9.5C516.9,254.4,517.8,255.3,518.3,254.7L518.3,254.7z"/>
	</g>
</g>
<g id="XMLID_394_">
	<path id="XMLID_1100_" class="st5" d="M301.7,281.9c-0.4-1.7-0.8-3.4-1.7-4.8c-1-1.4-2.6-2.5-4.3-2.3c-0.8,0.1-1.6,0.5-2.3,1
		c-1.4,1-2.6,2.5-2.9,4.2s0.3,3.7,1.8,4.6c-3.6,0.9-7.2,3.1-8.6,6.6c-1.4,3.5,0.3,8.2,3.9,9.2c3.4,0.9,6.7-1.5,9.3-3.8
		c0.4-0.3,0.9-0.7,1.4-0.5c0.4,0.1,0.6,0.6,0.7,0.9c1.2,2.8,3.2,5.4,5.7,7.3c0.6,0.5,1.4,1,2.2,1c1.2,0.1,2.2-0.6,3.1-1.3
		c2.3-1.8,4.4-4.2,4.8-7c0.4-2.9-1.8-6.2-4.7-6c4.7,1,9.9-2.7,10.6-7.5c0.1-1,0.1-2.1-0.3-3c-0.8-1.6-2.9-2.4-4.7-2
		c-1.8,0.4-3.3,1.8-4.1,3.4c1.6-3.3,0-7.7-3.4-9.2c-1.8-0.8-4-0.8-5.6,0.4c-1.9,1.5-2.4,4.1-2.6,6.5c0,0.3,0,0.7,0.3,0.9
		c0.3,0.2,0.7-0.4,0.4-0.5"/>
	<g id="XMLID_1094_">
		<path id="XMLID_1099_" class="st5" d="M302.3,281.8c-0.9-3.8-3.1-9-8-7.2c-4,1.5-4.1,4.8-4.2,8.3c0,0.3,0.9,1.2,0.8,1.4
			c-0.2,0.5-1.6,0.8-2.2,1.1c-1.9,1-3.8,2.4-4.9,4.3c-1.8,3.1-1.6,7.6,1.3,10.1c1.5,1.3,3.4,1.6,5.4,1.3c2.2-0.4,3.9-2.7,5.7-3
			c4.9-0.8,6.2,8.9,11.8,7.8c6.9-1.3,11.2-14.5,2.1-15.5c-0.8-0.1-0.8,1.2,0,1.3c5.3,0.6,12.3-3.6,11.2-9.8c-1-6.1-7.9-4-10.4-0.2
			c0.4,0.2,0.8,0.3,1.1,0.5c1.7-4.5-0.8-10.2-6.1-10.5c-3.9-0.2-8.8,5.5-6.3,9.3c0.1,0.2,0.4,0.4,0.7,0.3c0.1,0,0.3-0.1,0.4-0.1
			c0.2-0.1,0.5-0.3,0.5-0.6c0-0.1,0-0.2,0-0.3c-0.1-0.8-1.4-0.8-1.3,0c0.7-0.3,1-0.9,0.8-1.8c0.2-3.8,3.1-5,8.9-3.7
			c2,1.7,2,5,1.2,7.2c-0.3,0.7,0.8,1,1.1,0.5c4.7-4.9,7.3-4.1,7.8,2.4c-0.5,1.6-1.4,2.9-2.8,3.8c-2.1,1.7-4.3,2.2-6.9,1.9
			c0,0.4,0,0.8,0,1.3c6.6,0.7,3.6,8.3,0.6,11.1c-3.7,3.4-7.5,0.1-9.7-3.2c-0.6-0.9-1.5-3.7-2.7-4c-1.9-0.4-4,2.6-5.5,3.3
			c-5.9,2.9-11.2-2.9-8-8.5c1.6-2.8,4.7-4.2,7.6-5.1c0.4-0.1,0.6-0.7,0.3-1c-2.1-7.1-0.8-8.9,4-5.5c2.8-0.1,4.3,1,4.3,3.3
			C301.3,282.9,302.5,282.5,302.3,281.8L302.3,281.8z"/>
	</g>
</g>
<g id="XMLID_465_">
	<path id="XMLID_1108_" class="st5" d="M174.9,262.4c1.5-2.9,2-6.2,1.4-9.4c-0.6-3.2-2.7-6.5-5.9-6.7c-1.1-0.1-2.2,0.2-3.1,0.7
		c-2.2,1.1-3.9,3.4-4.1,5.9c-0.2,2.5,1.2,5.1,3.5,6.1c-2.1-1.8-5.2-2.5-7.9-1.7c-2.7,0.8-4.9,3-5.7,5.7c-0.4,1.2-0.4,2.5,0.1,3.7
		c1.3,3,5.6,3.1,8.8,2.6c-2.9,0.9-4.9,4.1-4.5,7.1c0.4,3,3,5.6,6,5.8c2.5,0.2,5-1.1,6.8-2.8c1.8-1.8,3-4,4.2-6.2
		c0.2,2,2.1,3.5,4,3.7c2,0.2,3.9-0.7,5.4-2c1.9-1.7,3.3-4.3,2.7-6.8s-3.4-4.5-5.7-3.5c0.3,1.1,1.6,1.7,2.7,1.6
		c1.1-0.2,2.1-0.9,2.8-1.8c1.4-1.7,2.1-4.1,1.4-6.3c-0.7-2.1-2.8-3.8-5-3.6c-1.5,0.1-2.8,1-3.8,2.2c-1.3,1.6-1.9,3.7-1.7,5.8"/>
	<g id="XMLID_1102_">
		<path id="XMLID_1107_" class="st5" d="M175.4,262.7c2.4-5.3,2.6-18.8-6.7-16.9c-6.7,1.4-8.2,10.3-2.4,13.7
			c0.7,0.4,1.3-0.6,0.6-1.1c-4.9-3.5-12-2.3-14.3,3.7c-2.6,6.6,4.1,8.3,9.2,7.7c-0.1-0.4-0.2-0.8-0.3-1.2c-5,2.3-6.7,8.9-2,12.5
			c6.5,5.1,12.6-2.7,15.4-7.8c-0.4,0-0.8-0.1-1.1-0.1c1.6,5.8,8.5,4.8,11.7,0.8c3.3-4.3,1.5-11.4-4.8-10.1c-0.4,0.1-0.6,0.6-0.4,0.9
			c3.6,5.7,9.5-2.6,8-7c-0.9-2.7-3.7-4.4-6.5-3.8c-3.8,0.9-5.3,4.9-5.2,8.4c0,0.8,1.3,0.8,1.3,0c0.1-1,0.2-1.9,0.2-2.9
			c7.5-0.2,10.1,2.5,7.8,8c0.5,2.7-0.2,4.7-2.1,6.1c-2.1,3.1-5,2.8-8.8-0.7c-0.1-0.5-0.9-0.6-1.1-0.1c-1.5,2.7-3.4,6.6-6.4,7.8
			c-3.2,1.3-6.6,0.7-8.7-2.2c-2.4-3.2,0.7-7.4,3.5-8.7c0.5-0.2,0.3-1.2-0.3-1.2c-4.1,0.5-10.4-1.6-7.3-7.1c2.5-4.4,7.8-4.8,11.7-2
			c0.2-0.4,0.4-0.7,0.6-1.1c-8.1-4.7,2.3-16.3,7.4-8.3c2.3,3.6,1.6,8.2-0.1,12C174,262.8,175.1,263.5,175.4,262.7L175.4,262.7z"/>
	</g>
</g>
<g id="XMLID_545_">
	<path id="XMLID_430_" class="st6" d="M370.8,269.3c1-1.4,1-3.5,0-4.8c-1-1.4-3-2-4.6-1.5c-2.2,0.7-3.4,3.1-4,5.4
		c-0.3,1.2-0.4,2.7,0.6,3.4c-2.6-0.9-5.5-1.7-8.1-1c-2.7,0.7-5,3.6-4,6.2c1,2.6,4.5,3.2,7.3,3.3c-1.6,1.8-3.1,4.1-2.6,6.4
		c0.6,2.7,4.1,4,6.7,3.1c2.6-0.9,4.4-3.4,5.4-6c0.6,2.6,2.4,4.9,4.9,5.7c2.5,0.8,5.6-0.2,6.8-2.5c1.2-2.3,0.2-5.7-2.3-6.5
		c3.9-0.4,6.2-5,5.7-8.9c-0.2-1.6-0.9-3.3-2.4-3.9c-0.9-0.4-1.9-0.3-2.8-0.2c-2.6,0.2-5.5,0.7-6.8,2.9"/>
	<g id="XMLID_425_">
		<path id="XMLID_429_" class="st6" d="M371.3,269.6c1.6-3.3,0.2-7.6-4.1-7.4c-4.2,0.2-7.4,6.5-5,9.9c0.2-0.3,0.5-0.6,0.7-0.9
			c-4.3-1.3-12-2.7-13,3.6c-0.8,4.7,4.5,5.8,8,6c-0.1-0.4-0.3-0.7-0.4-1.1c-2.6,3.2-4.7,8,0.2,10.2c4.8,2.2,8.6-2.1,10.4-6
			c-0.4,0-0.8-0.1-1.1-0.1c1.4,4.5,6.2,8.4,10.9,5.4c3.7-2.4,3.1-7.5-0.6-9.5c0,0.4-0.1,0.8-0.1,1.1c4.7-1,7.4-6.4,5.8-11
			c-1.9-5.3-9.9-3.6-12.8-0.1c-0.5,0.6,0.4,1.5,0.9,0.9c2.5-3.1,9.3-4.3,10.7,0.3c1.1,3.7-1.1,7.9-4.9,8.7c-0.5,0.1-0.6,0.9-0.1,1.1
			c4.6,4.2,2.9,6.7-5,7.5c-1.8-1.1-3-2.7-3.4-4.8c-0.1-0.5-0.9-0.7-1.1-0.1c-0.8,1.8-2.1,4.5-4,5.2c-1.7,0.1-3.5,0.1-5.2,0.2
			c-2-3.2-1.8-5.9,0.6-8.1c0.3-0.4,0.1-1-0.4-1.1c-0.8,0-1.6-0.1-2.4-0.3c-3.3-0.2-3.6-2.8-0.7-8c2.4-0.6,5.5,0.3,7.8,1
			c0.5,0.2,1-0.5,0.7-0.9c-0.8-1.4-0.8-2.8,0-4.1c0.8-3.3,3.1-2.7,7,1.7C369.9,269.7,371,270.3,371.3,269.6L371.3,269.6z"/>
	</g>
</g>
<g id="XMLID_599_">
	<path id="XMLID_423_" class="st6" d="M426.3,242.9c0.3-2.6,0.4-5.8-1.8-7.2c-2.2-1.4-5.3,0.3-6.3,2.6c-1.1,2.4-0.7,5.1-0.2,7.7
		c-1.6-0.5-2.3-2.5-3.7-3.3c-2.1-1.3-4.9,0.4-6.5,2.4c-0.9,1.1-1.7,2.4-1.8,3.9c-0.1,2,1.4,3.8,3.3,4.5c1.9,0.7,4,0.5,5.9,0
		c-0.6,1.4-1.2,2.8-1.3,4.3c-0.1,1.5,0.2,3.1,1.4,4.2c1.9,1.8,5.1,1,7.3-0.6c1.8-1.4,3.4-3.6,2.7-5.8c2.2,1.2,4.7,2.1,7.1,1.6
		c2.4-0.5,4.7-2.7,4.5-5.2s-3.2-4.5-5.3-3.1c2.2-0.7,3.8-3.1,3.5-5.4c-0.3-2.3-2.4-4.3-4.7-4.2c-2.3,0-4.4,2.2-4.3,4.5"/>
	<g id="XMLID_417_">
		<path id="XMLID_422_" class="st6" d="M427,242.9c0.3-3.5-0.2-8.9-5-8.2c-5.5,0.7-5.3,7.5-4.6,11.5c0.3-0.2,0.6-0.5,0.9-0.7
			c-3.5-1.9-4.5-5.6-8.9-2.7c-2.4,1.6-4.7,4.7-3.8,7.7c0.5,1.7,1.8,2.9,3.4,3.6c0.6,0.3,5,0.6,4.9,0.4c0.3,0.4-0.8,4.1-0.6,5.1
			c0.3,1.6,1.2,3.1,2.7,3.7c3.1,1.4,7.2-0.8,8.9-3.4c0.4-0.6,0.8-2.7,1.4-2.9c0.9-0.3,4.7,1.3,6.1,0.9c6.9-1.6,5.8-12.1-1-9.5
			c0.2,0.4,0.3,0.8,0.5,1.1c3.8-1.9,5.6-7,1.5-9.8c-3.5-2.4-7.4,0.1-8,4c-0.1,0.8,1.1,1.1,1.2,0.3c1.5,1.5,3.1,3,4.6,4.4
			c-0.6,0.3-0.2,1.4,0.5,1.1c1.8,5.7,1,8-2.3,7c-1.4-0.1-2.8-0.6-4-1.4c-0.4-0.2-1,0-0.9,0.5c-0.5,1.5-1,2.9-1.5,4.4
			c-1.8,2.4-3.5,2-5.2-1c-3.6-2.9-3.4-2.1-2.1-5.4c0.2-0.5-0.4-0.9-0.8-0.8c-0.9,0.2-1.9,0.3-2.8,0.5c-1.7-0.8-3.4-1.6-5.1-2.5
			c0.1-1.4,0.2-2.9,0.3-4.3c0.8-2,2.3-2.7,4.5-2.3c3.7-0.4,3,0.8,5.7,2.3c0.5,0.3,1-0.2,0.9-0.7c-0.1-1-0.3-2-0.4-2.9
			c-0.6-2.3,0.7-3,3.8-2.1c4.6-0.7,4-1.2,3.7,2.1C425.6,243.7,426.9,243.7,427,242.9L427,242.9z"/>
	</g>
</g>
<g id="XMLID_607_">
	<path id="XMLID_414_" class="st6" d="M217.5,250.2c0.7-3-1.7-6.1-4.7-6.6s-6.1,1.7-6.9,4.6s0.6,6.2,3.1,7.9
		c-3.6-0.4-7.1,3.3-6.5,6.9c0.2,1.3,1.1,2.7,2.4,3c0.6,0.2,1.3,0.1,2-0.1c3.1-0.6,6-2.2,8.3-4.5c0.4,1.2,0.7,2.4,1.4,3.4
		c2.2,3.1,7.6,3,9.9,0c2.3-3,1.3-8-1.8-10.1c0.4,0.9,1.5,1.3,2.4,1.2c1-0.1,1.8-0.6,2.6-1.3c1.4-1.2,2.7-2.7,3.1-4.5
		c0.4-1.8-0.1-3.9-1.6-5s-3.9-1-5,0.5c0.4-1.8,0.8-3.9-0.3-5.5c-1.6-2.3-5.5-1.6-7.2,0.6c-1.7,2.2-1.9,5.2-2,8"/>
	<g id="XMLID_408_">
		<path id="XMLID_413_" class="st6" d="M218.1,250.2c0.4-5.1-4.5-9-9.3-6.5c-5.2,2.8-4.4,9.5-0.2,12.7c0.1-0.4,0.3-0.7,0.4-1.1
			c-4.3,0.2-9.1,4.6-6.6,9.2c0.9,1.7,2.3,2.2,4.1,2c2.4-0.2,7.5-4,8.6-3.2c0.5,0.4,0.8,1.8,1.4,2.3c0.7,0.8,1.6,1.3,2.6,1.7
			c2.1,0.7,4.6,0.4,6.5-0.9c4.4-3,3.1-9.2-0.5-12.3c-0.6-0.5-1.4,0.3-0.9,0.9c3.1,4,8.5-1.5,9.1-5c0.9-4.6-3.9-8.5-7.6-4.9
			c0.3,0.2,0.7,0.4,1,0.6c0.8-3.8,0-8.5-5-7.5c-4.9,1-5.5,6.5-5.6,10.5c0,0.8,1.2,0.8,1.3,0c0.1-1.6-0.1-4,0.7-5.4
			c1.6-1.3,3.2-2.7,4.9-4c2.9,1.4,3.7,3.4,2.7,6.1c-0.1,0.6,0.6,1.1,1,0.6c5.8,5.9,5.3,8.6-1.5,8.2c-0.3,0.3-0.6,0.6-0.9,0.9
			c3.1,2.6,4.6,8,0.3,10.6c-4.1,2.5-7.5-0.6-8.7-4.5c-0.1-0.5-0.7-0.6-1-0.3c-1.6,1.5-4.2,3.5-6.4,3.9c-4.7,0.8-7.1-8,0.8-8.3
			c0.5,0,0.9-0.7,0.4-1.1c-1.9-1.5-4.1-4.7-3-7.3c1.3-1.3,2.6-2.6,3.9-4c4.6,0,6.8,1.9,6.4,5.8C216.8,251,218,251,218.1,250.2
			L218.1,250.2z"/>
	</g>
</g>
<g id="XMLID_1_">
	<path id="XMLID_406_" class="st6" d="M210.9,285c-0.8-2.9-3.4-5.3-6.4-5.6c-3-0.2-6.1,2.1-6.2,5.1c-0.2,3.3,2.8,5.9,5.7,7.4
		c-4,0.2-7.1,4.6-6.1,8.5c0.2,0.8,0.6,1.6,1.2,2.2c1.6,1.6,4.3,1.6,6.3,0.4c1.9-1.2,3.2-3.2,4-5.3c1.4,3.8,4.8,6.7,8.8,7.4
		c1.7,0.3,3.6,0.2,4.9-0.9c1.6-1.3,1.9-3.6,1.3-5.6c-0.6-1.9-2-3.5-3.5-4.9c3.5,0.9,7.5-1.1,8.8-4.4c0.5-1.3,0.6-2.8-0.1-4
		c-1.4-2.3-5.2-1.9-6.9,0.2c2.2-1.2,2.5-4.5,1.3-6.7c-1.7-3.2-6-4.6-9.3-3.2c-3.3,1.5-5.1,5.6-3.9,9"/>
	<g id="XMLID_400_">
		<path id="XMLID_405_" class="st6" d="M211.5,284.8c-1.7-4.5-6.5-7.9-11.1-4.9c-5.9,4-1.1,10,3.3,12.6c0-0.4,0.1-0.8,0.1-1.1
			c-4.8,0.8-8.9,6.5-5.6,11.1c1.1,1.5,2.9,2.2,4.8,2c1.4-0.1,2.8-0.8,3.9-1.7c0.4-0.4,2.6-3.5,2.5-3.5c0.1,0,1.3,2,1.6,2.3
			c1,1.2,2.3,2.2,3.8,3c2.2,1.1,5.1,1.9,7.5,0.9c5.8-2.5,2.2-9.2-0.8-12.2c-0.2,0.3-0.4,0.7-0.6,1c4.5,0.7,10.9-2.3,10-7.8
			c-0.7-4.5-5.8-4-8.5-1.6c-0.6,0.6,0.3,1.4,0.9,0.9c4.8-3.8,1-10.4-4.2-11.3c-6.1-1.1-10.1,4.7-8.7,10.2c0.2,0.8,1.4,0.5,1.2-0.3
			c-1.1-4.5,1.5-8.6,6.2-8.6c4.1,0,9.7,5.1,4.6,9.2c0.3,0.3,0.6,0.6,0.9,0.9c5.5,2.7,6.6,4.8,3.1,6.2c-1.5,1.3-3.2,1.6-5.2,1.1
			c-0.6-0.1-1.1,0.6-0.6,1c0.8,0.8,2.6,2.3,2.8,3.4c-1.3,2.4-2.6,4.7-3.8,7.1c-1.3,0-2.5-0.4-3.6-1c-2.8-1.3-4.7-3.5-6-6.3
			c-0.2-0.4-0.9-0.4-1.1,0c-0.3,0.9-0.7,1.7-1.2,2.4c-1.3,3-3.3,3.5-5.8,1.6c-3.8-0.1-4.7-2-2.6-5.7c1.2-2,2.9-3,4.9-3.1
			c0.5-0.1,0.6-0.9,0.1-1.1c-2.3-1.3-9.5-6.2-4-9.8c4.1-2.7,8.3-0.8,10,3.5C210.6,285.9,211.8,285.6,211.5,284.8L211.5,284.8z"/>
	</g>
</g>
<g id="XMLID_628_">
	<path id="XMLID_398_" class="st6" d="M503.8,228.3c2.5-0.8,4-3.7,3.2-6.2c-0.8-2.5-3.7-4-6.2-3.2c-2.1,0.7-3.4,2.6-4.4,4.6
		c-0.8,1.7-1.2,4.1,0.4,5c-1.3-3.4-6-5.1-9.1-3.2c-3.2,1.9-3.9,6.8-1.5,9.5c1.8,2,4.6,2.7,7.3,3.3c-2.4,1.6-2.7,5.4-1,7.7
		c1.7,2.3,4.9,3.3,7.7,2.7c1.9-0.3,3.8-1.3,4.9-2.9c1.2-1.6,1.6-3.7,0.8-5.5c0.3,2.9,3.6,5,6.5,4.4c2.9-0.5,5.1-3.1,5.8-6
		c0.5-1.8,0.4-3.8-0.6-5.4c-1-1.6-3.2-2.4-4.9-1.6c-0.2,0.7,1,0.7,1.5,0.3c1.9-1.5,2.4-4.5,1.2-6.7c-1.2-2.2-3.7-3.4-6.2-3.3
		c-2.5,0.1-4.8,1.5-6.3,3.4"/>
	<g id="XMLID_391_">
		<path id="XMLID_396_" class="st6" d="M504.2,228.9c5-2.4,4.8-10.1-1.4-10.7c-4.7-0.4-10.1,7-6.3,10.8c0.5,0.5,1.3-0.1,1-0.8
			c-2.2-4.4-8.7-6.2-11.9-1.6c-1.5,2.1-1.8,5.1-0.6,7.5c0.5,0.9,1.1,1.6,1.9,2.2c1.2,1,3.4,1.1,4.5,2c1.4,1.2,0.3-1.1,0,1.5
			c-0.2,1.4-0.7,2.4-0.4,3.9c0.5,2.6,2.4,4.4,4.8,5.2c5.9,2,12.5-2.5,10.8-8.9c-0.2-0.8-1.4-0.4-1.2,0.3c1.4,5.7,8.3,6.3,11.8,2
			c3.4-4.3,2.4-12.8-4.5-11.3c-0.3,0.1-0.6,0.5-0.4,0.8c0.1,0.2,0.1,0.3,0.2,0.5c0.1,0.2,0.2,0.4,0.4,0.4c4.2,0.6,4.6-5.8,2.9-8.3
			c-3.3-4.9-9.7-3.2-13.2,0.5c-0.6,0.6,0.3,1.5,0.9,0.9c1.2-1.3,2.9-2.5,4.6-3c6.2-1.8,7.7,5.5,8.5,9.7c0.9,4.4,2.2,6.4-0.9,9.4
			c-2.6,2.5-7.7,3.3-9-1.9c-0.4,0.1-0.8,0.2-1.2,0.3c-0.9,2.2-1.8,4.5-2.7,6.7c-1.9,1.2-3.9,1.4-5.8,0.6c-1.9,0-3-0.9-3.4-2.9
			c-2.1-2-2-4,0.4-6.2c0.3-0.3,0.2-0.9-0.3-1c-3.5-0.8-8.1-2-8-6.6c0.2-6.2,7.9-7.5,10.7-2.1c0.3-0.3,0.7-0.5,1-0.8
			c-1.1-1.9-1-3.7,0.3-5.4c2.3-4.2,4.2-2.5,5.9,5.1C502.8,228.1,503.4,229.2,504.2,228.9L504.2,228.9z"/>
	</g>
</g>
<g id="XMLID_651_">
	<path id="XMLID_389_" class="st6" d="M306.2,247.2c1.6-2.5,0.9-6.2-1.4-8s-6-1.8-8.1,0.3c-2.2,2-2.5,5.7-0.8,8.1
		c-2.3,0.4-4.6,1.7-5.9,3.7c-1.3,2-1.3,4.9,0.2,6.6c1.2,1.4,3.2,2,5.1,1.9s3.7-0.7,5.4-1.3c-0.7,3-0.2,6.8,2.6,8.2
		c2.5,1.3,5.8-0.1,7.3-2.6c1.5-2.4,1.5-5.5,0.9-8.3c2.1,1.6,4.7,2.6,7.3,2.1s4.8-2.9,4.6-5.5c-0.2-2.6-3.4-4.6-5.6-3.3
		c0.8-1.7,1.4-3.6,1.4-5.5c-0.1-1.9-1.1-3.9-2.9-4.5c-1.5-0.5-3.2,0-4.5,0.9s-2.3,2.3-3.2,3.6c-1.3,1.8-2.5,3.6-3.8,5.4"/>
	<g id="XMLID_384_">
		<path id="XMLID_388_" class="st6" d="M306.8,247.6c3.1-6.6-4.5-14-10.5-8.5c-1,1-1.7,2.3-2,3.7c-0.3,1.5,0.8,3.4,0,4.6
			c-0.1,0.2-2.3,1.1-2.7,1.3c-0.8,0.6-1.5,1.3-2.1,2.1c-0.9,1.3-1.3,3-1.1,4.6c0.7,4.3,4.9,5.4,8.7,4.7c3.6-0.7,2.4-1.4,2.8,1.8
			c0.2,1.3,0.5,2.6,1.3,3.7c2,2.6,5.5,2.7,8.1,0.8c3.4-2.5,3.5-7,2.8-10.8c-0.3,0.2-0.6,0.5-0.9,0.7c3.7,2.5,9.7,3.8,12.2-1.1
			c0.9-1.7,0.9-3.6-0.3-5.1c-1-1.3-3.2-1.2-3.8-2c-1-1.1-0.2,2.1,0.1-1.5c0.1-1.3,0.5-1.8,0.4-3.1c-0.2-2.1-1.2-4.1-3.3-4.9
			c-5.6-2.2-9.9,6.8-12.3,10.2c-0.5,0.7,0.6,1.3,1.1,0.6c1.3-1.8,2.5-3.6,3.8-5.4c2.2-4.4,5.2-3.7,9.1,2.3c-0.3,0.9-0.6,1.8-1,2.7
			c-0.2,0.4,0.3,0.9,0.8,0.8c1.9,6.6,1,8.9-2.7,7c-1.3-0.2-2.4-0.7-3.4-1.5c-0.5-0.3-1,0.2-0.9,0.7c0.6,3.7,0.6,6.8-2.5,9.1
			c-4.7,3.5-7.7-2.3-7-6.5c0.1-0.4-0.3-0.9-0.8-0.8c-0.6,0.2-1.2,0.4-1.8,0.6c-3.4,1.9-5.2,0.7-5.5-3.6c-3-2.6-3.1-4.4-0.3-5.3
			c0.9-0.8,1.9-1.2,3.1-1.4c0.4-0.1,0.6-0.6,0.4-0.9c-2-3.5-0.4-7.7,3.8-8.3c4.1-0.5,7.4,3.8,5.4,7.9
			C305.4,247.7,306.4,248.3,306.8,247.6L306.8,247.6z"/>
	</g>
</g>
<g id="XMLID_664_">
	<path id="XMLID_382_" class="st6" d="M467.2,256.3c0.6-1.9-0.5-4.2-2.4-4.9c-1.9-0.7-4.2,0.1-5.3,1.7c-1.1,1.7-0.9,4.1,0.3,5.6
		c-1.9-1.2-4.5-0.6-6.5,0.4c-1.7,0.8-3.4,2.1-3.5,4c-0.1,1.8,1.4,3.4,3,4c1.7,0.6,3.5,0.4,5.3,0.2c-1.1,2.1-2.2,4.8-0.6,6.5
		c1,1.1,2.9,1.3,4.3,0.7c1.4-0.6,2.6-1.7,3.6-2.8c0.3-0.3,0.6-0.6,1-0.5c0.4,0,0.6,0.4,0.8,0.7c2,2.7,6.8,2.5,8.6-0.4
		c1.7-2.9-0.4-7.3-3.7-7.7c2.4,1,5.4-0.7,6-3.2c0.5-2.5-1.5-5.2-4.1-5.6c-2.6-0.4-5.2,1.6-5.8,4.1"/>
	<g id="XMLID_377_">
		<path id="XMLID_381_" class="st6" d="M467.9,256.3c1.2-9-13.7-5.9-8.5,2.8c0.2-0.3,0.5-0.6,0.7-0.9c-4.2-1.7-14.3,2.3-9.8,7.8
			c1.1,1.3,2.6,1.7,4.2,2.1c3,0.6,2.3-0.6,1.9,2.5c-0.3,2.3,0.6,4.4,3.1,4.9c3.2,0.6,5.1-3.5,7.4-3.1c1,0.2,2.2,1.8,3.6,2
			c1,0.2,2.1,0.1,3.1-0.3c5.7-2.1,3.8-9.5-1.3-10.9c-0.1,0.4-0.2,0.8-0.3,1.2c4.6,1.1,8.8-3.5,5.8-7.8c-3.1-4.3-8.5-1.9-10.1,2.2
			c-0.3,0.8,0.9,1.1,1.2,0.3c1.2,1.3,2.3,2.7,3.5,4c-0.8-0.2-1.1,1-0.3,1.2c3.6,1.2,4.6,3.7,2.8,7.6c-2.7,1.9-5,1.7-7-0.4
			c-0.1-0.1-0.8-0.9-1.3-0.9c-0.4,0-0.6,0.2-1,0.3c-0.5,0.5-1.1,1-1.5,1.5c-5.9,0.3-7.7-1.3-5.2-4.7c0.2-0.4,0-1-0.5-0.9
			c-3.7,0.9-4.8-1.6-3.4-7.5c1.7-0.7,3.3-0.7,4.9,0.1c0.5,0.2,1-0.5,0.7-0.9c2.1-0.7,4.1-1.4,6.2-2.1
			C466.5,257.1,467.8,257.1,467.9,256.3L467.9,256.3z"/>
	</g>
</g>
<g id="XMLID_97_">
	<g id="XMLID_357_">
		<path id="XMLID_366_" class="st7" d="M258.8,255.7c1.6,0,1.6-2.5,0-2.5C257.2,253.2,257.2,255.7,258.8,255.7L258.8,255.7z"/>
	</g>
</g>
<g id="XMLID_101_">
	<g id="XMLID_349_">
		<path id="XMLID_355_" class="st7" d="M262,255.4c1.6,0,1.6-2.5,0-2.5C260.4,252.9,260.4,255.4,262,255.4L262,255.4z"/>
	</g>
</g>
<g id="XMLID_102_">
	<g id="XMLID_340_">
		<path id="XMLID_345_" class="st7" d="M261.1,251.6c1.6,0,1.6-2.5,0-2.5C259.5,249.1,259.5,251.6,261.1,251.6L261.1,251.6z"/>
	</g>
</g>
<g id="XMLID_112_">
	<g id="XMLID_331_">
		<path id="XMLID_337_" class="st7" d="M257,253.1c1.6,0,1.6-2.5,0-2.5C255.4,250.6,255.4,253.1,257,253.1L257,253.1z"/>
	</g>
</g>
<g id="XMLID_117_">
	<g id="XMLID_324_">
		<path id="XMLID_329_" class="st7" d="M256.1,256.8c1.6,0,1.6-2.5,0-2.5C254.5,254.3,254.5,256.8,256.1,256.8L256.1,256.8z"/>
	</g>
</g>
<g id="XMLID_119_">
	<g id="XMLID_317_">
		<path id="XMLID_322_" class="st7" d="M219,255.3c1.6,0,1.6-2.5,0-2.5C217.4,252.8,217.4,255.3,219,255.3L219,255.3z"/>
	</g>
</g>
<g id="XMLID_192_">
	<g id="XMLID_310_">
		<path id="XMLID_315_" class="st7" d="M221.1,253.1c1.6,0,1.6-2.5,0-2.5C219.5,250.6,219.4,253.1,221.1,253.1L221.1,253.1z"/>
	</g>
</g>
<g id="XMLID_360_">
	<g id="XMLID_303_">
		<path id="XMLID_307_" class="st7" d="M218.4,251.4c1.6,0,1.6-2.5,0-2.5C216.8,248.9,216.8,251.4,218.4,251.4L218.4,251.4z"/>
	</g>
</g>
<g id="XMLID_745_">
	<g id="XMLID_294_">
		<path id="XMLID_299_" class="st7" d="M215.1,254.5c1.6,0,1.6-2.5,0-2.5C213.5,252,213.5,254.5,215.1,254.5L215.1,254.5z"/>
	</g>
</g>
<g id="XMLID_776_">
	<g id="XMLID_287_">
		<path id="XMLID_292_" class="st7" d="M215.9,290.4c1.6,0,1.6-2.5,0-2.5C214.3,287.9,214.3,290.4,215.9,290.4L215.9,290.4z"/>
	</g>
</g>
<g id="XMLID_783_">
	<g id="XMLID_280_">
		<path id="XMLID_285_" class="st7" d="M214.5,286.9c1.6,0,1.6-2.5,0-2.5C212.9,284.4,212.9,286.9,214.5,286.9L214.5,286.9z"/>
	</g>
</g>
<g id="XMLID_790_">
	<g id="XMLID_272_">
		<path id="XMLID_278_" class="st7" d="M209.4,291.2c1.6,0,1.6-2.5,0-2.5C207.7,288.7,207.7,291.2,209.4,291.2L209.4,291.2z"/>
	</g>
</g>
<g id="XMLID_797_">
	<g id="XMLID_265_">
		<path id="XMLID_269_" class="st7" d="M212.6,294.1c1.6,0,1.6-2.5,0-2.5C211,291.6,211,294.1,212.6,294.1L212.6,294.1z"/>
	</g>
</g>
<g id="XMLID_804_">
	<g id="XMLID_234_">
		<path id="XMLID_258_" class="st7" d="M212.4,290.8c1.6,0,1.6-2.5,0-2.5C210.8,288.3,210.8,290.8,212.4,290.8L212.4,290.8z"/>
	</g>
</g>
<g id="XMLID_811_">
	<g id="XMLID_198_">
		<path id="XMLID_222_" class="st7" d="M170.3,268.9c1.6,0,1.6-2.5,0-2.5C168.7,266.4,168.7,268.9,170.3,268.9L170.3,268.9z"/>
	</g>
</g>
<g id="XMLID_818_">
	<g id="XMLID_40_">
		<path id="XMLID_185_" class="st7" d="M168.7,264.6c1.6,0,1.6-2.5,0-2.5C167.1,262.1,167.1,264.6,168.7,264.6L168.7,264.6z"/>
	</g>
</g>
<g id="XMLID_825_">
	<g id="XMLID_33_">
		<path id="XMLID_38_" class="st7" d="M172.6,265.8c1.6,0,1.6-2.5,0-2.5C171,263.3,171,265.8,172.6,265.8L172.6,265.8z"/>
	</g>
</g>
<g id="XMLID_832_">
	<g id="XMLID_263_">
		<path id="XMLID_356_" class="st7" d="M303.2,289c1.6,0,1.6-2.5,0-2.5C301.6,286.5,301.6,289,303.2,289L303.2,289z"/>
	</g>
</g>
<g id="XMLID_839_">
	<g id="XMLID_256_">
		<path id="XMLID_261_" class="st7" d="M301.1,285.3c1.6,0,1.6-2.5,0-2.5C299.5,282.8,299.5,285.3,301.1,285.3L301.1,285.3z"/>
	</g>
</g>
<g id="XMLID_846_">
	<g id="XMLID_249_">
		<path id="XMLID_254_" class="st7" d="M305.7,286.5c1.6,0,1.6-2.5,0-2.5C304.1,284,304,286.5,305.7,286.5L305.7,286.5z"/>
	</g>
</g>
<g id="XMLID_853_">
	<g id="XMLID_242_">
		<path id="XMLID_247_" class="st7" d="M298.5,289.8c1.6,0,1.6-2.5,0-2.5C296.9,287.3,296.9,289.8,298.5,289.8L298.5,289.8z"/>
	</g>
</g>
<g id="XMLID_860_">
	<g id="XMLID_235_">
		<path id="XMLID_239_" class="st7" d="M303.4,293.5c1.6,0,1.6-2.5,0-2.5C301.8,291,301.8,293.5,303.4,293.5L303.4,293.5z"/>
	</g>
</g>
<g id="XMLID_867_">
	<g id="XMLID_227_">
		<path id="XMLID_232_" class="st7" d="M334.6,245.5c1.6,0,1.6-2.5,0-2.5C333,243,333,245.5,334.6,245.5L334.6,245.5z"/>
	</g>
</g>
<g id="XMLID_874_">
	<g id="XMLID_220_">
		<path id="XMLID_225_" class="st7" d="M338.9,248.3c1.6,0,1.6-2.5,0-2.5C337.3,245.8,337.3,248.3,338.9,248.3L338.9,248.3z"/>
	</g>
</g>
<g id="XMLID_881_">
	<g id="XMLID_213_">
		<path id="XMLID_218_" class="st7" d="M338.5,243.8c1.6,0,1.6-2.5,0-2.5C336.9,241.3,336.9,243.8,338.5,243.8L338.5,243.8z"/>
	</g>
</g>
<g id="XMLID_888_">
	<g id="XMLID_206_">
		<path id="XMLID_211_" class="st7" d="M335.8,247.9c1.6,0,1.6-2.5,0-2.5C334.2,245.4,334.2,247.9,335.8,247.9L335.8,247.9z"/>
	</g>
</g>
<g id="XMLID_895_">
	<g id="XMLID_199_">
		<path id="XMLID_203_" class="st7" d="M306.5,253.7c1.6,0,1.6-2.5,0-2.5C304.9,251.2,304.9,253.7,306.5,253.7L306.5,253.7z"/>
	</g>
</g>
<g id="XMLID_902_">
	<g id="XMLID_190_">
		<path id="XMLID_196_" class="st7" d="M304.2,249.4c1.6,0,1.6-2.5,0-2.5C302.6,246.9,302.6,249.4,304.2,249.4L304.2,249.4z"/>
	</g>
</g>
<g id="XMLID_909_">
	<g id="XMLID_183_">
		<path id="XMLID_188_" class="st7" d="M309.6,252.2c1.6,0,1.6-2.5,0-2.5C308,249.7,308,252.2,309.6,252.2L309.6,252.2z"/>
	</g>
</g>
<g id="XMLID_916_">
	<g id="XMLID_176_">
		<path id="XMLID_181_" class="st7" d="M304.4,253.1c1.6,0,1.6-2.5,0-2.5C302.8,250.6,302.8,253.1,304.4,253.1L304.4,253.1z"/>
	</g>
</g>
<g id="XMLID_923_">
	<g id="XMLID_169_">
		<path id="XMLID_174_" class="st7" d="M366.9,278.1c1.6,0,1.6-2.5,0-2.5C365.3,275.6,365.3,278.1,366.9,278.1L366.9,278.1z"/>
	</g>
</g>
<g id="XMLID_930_">
	<g id="XMLID_162_">
		<path id="XMLID_166_" class="st7" d="M371,280.5c1.6,0,1.6-2.5,0-2.5C369.4,278,369.4,280.5,371,280.5L371,280.5z"/>
	</g>
</g>
<g id="XMLID_937_">
	<g id="XMLID_156_">
		<path id="XMLID_160_" class="st7" d="M370.4,277.4c1.6,0,1.6-2.5,0-2.5C368.8,274.9,368.8,277.4,370.4,277.4L370.4,277.4z"/>
	</g>
</g>
<g id="XMLID_944_">
	<g id="XMLID_150_">
		<path id="XMLID_154_" class="st7" d="M397.5,228.4c1.6,0,1.6-2.5,0-2.5C395.9,225.9,395.9,228.4,397.5,228.4L397.5,228.4z"/>
	</g>
</g>
<g id="XMLID_951_">
	<g id="XMLID_144_">
		<path id="XMLID_148_" class="st7" d="M402.5,231.3c1.6,0,1.6-2.5,0-2.5C400.9,228.8,400.9,231.3,402.5,231.3L402.5,231.3z"/>
	</g>
</g>
<g id="XMLID_958_">
	<g id="XMLID_138_">
		<path id="XMLID_142_" class="st7" d="M395.8,231.7c1.6,0,1.6-2.5,0-2.5C394.2,229.2,394.2,231.7,395.8,231.7L395.8,231.7z"/>
	</g>
</g>
<g id="XMLID_965_">
	<g id="XMLID_132_">
		<path id="XMLID_136_" class="st7" d="M422.2,249.7c1.6,0,1.6-2.5,0-2.5C420.6,247.2,420.6,249.7,422.2,249.7L422.2,249.7z"/>
	</g>
</g>
<g id="XMLID_972_">
	<g id="XMLID_95_">
		<path id="XMLID_125_" class="st7" d="M420.5,250c-0.1,0.1-0.3,0.3-0.4,0.4c-1.1,1.1,0.6,2.9,1.8,1.8c0.1-0.1,0.3-0.3,0.4-0.4
			C423.4,250.6,421.6,248.8,420.5,250L420.5,250z"/>
	</g>
</g>
<g id="XMLID_979_">
	<g id="XMLID_59_">
		<path id="XMLID_83_" class="st7" d="M424.9,253.4c1.6,0,1.6-2.5,0-2.5C423.3,250.9,423.2,253.4,424.9,253.4L424.9,253.4z"/>
	</g>
</g>
<g id="XMLID_986_">
	<g id="XMLID_130_">
		<path id="XMLID_262_" class="st7" d="M448.1,240.2c1.6,0,1.6-2.5,0-2.5C446.4,237.7,446.4,240.2,448.1,240.2L448.1,240.2z"/>
	</g>
</g>
<g id="XMLID_993_">
	<g id="XMLID_123_">
		<path id="XMLID_128_" class="st7" d="M450.2,243.3c1.6,0,1.6-2.5,0-2.5C448.6,240.8,448.6,243.3,450.2,243.3L450.2,243.3z"/>
	</g>
</g>
<g id="XMLID_1000_">
	<g id="XMLID_114_">
		<path id="XMLID_121_" class="st7" d="M445.2,243.3c1.6,0,1.6-2.5,0-2.5C443.6,240.8,443.6,243.3,445.2,243.3L445.2,243.3z"/>
	</g>
</g>
<g id="XMLID_1007_">
	<g id="XMLID_106_">
		<path id="XMLID_111_" class="st7" d="M464,264.5c1.6,0,1.6-2.5,0-2.5C462.4,262,462.4,264.5,464,264.5L464,264.5z"/>
	</g>
</g>
<g id="XMLID_1014_">
	<g id="XMLID_96_">
		<path id="XMLID_103_" class="st7" d="M467.5,263.2c1.6,0,1.6-2.5,0-2.5C465.9,260.7,465.9,263.2,467.5,263.2L467.5,263.2z"/>
	</g>
</g>
<g id="XMLID_1021_">
	<g id="XMLID_88_">
		<path id="XMLID_93_" class="st7" d="M503.6,235.7c1.6,0,1.6-2.5,0-2.5C502,233.2,502,235.7,503.6,235.7L503.6,235.7z"/>
	</g>
</g>
<g id="XMLID_1028_">
	<g id="XMLID_81_">
		<path id="XMLID_86_" class="st7" d="M500.3,233.9c1.6,0,1.6-2.5,0-2.5C498.7,231.4,498.7,233.9,500.3,233.9L500.3,233.9z"/>
	</g>
</g>
<g id="XMLID_1035_">
	<g id="XMLID_74_">
		<path id="XMLID_79_" class="st7" d="M503.6,231.3c1.6,0,1.6-2.5,0-2.5C502,228.8,502,231.3,503.6,231.3L503.6,231.3z"/>
	</g>
</g>
<g id="XMLID_1042_">
	<g id="XMLID_67_">
		<path id="XMLID_72_" class="st7" d="M497.5,234.8c1.6,0,1.6-2.5,0-2.5C495.9,232.3,495.9,234.8,497.5,234.8L497.5,234.8z"/>
	</g>
</g>
<g id="XMLID_1049_">
	<g id="XMLID_60_">
		<path id="XMLID_64_" class="st7" d="M516.5,261.5c1.6,0,1.6-2.5,0-2.5C514.9,259,514.9,261.5,516.5,261.5L516.5,261.5z"/>
	</g>
</g>
<g id="XMLID_1056_">
	<g id="XMLID_52_">
		<path id="XMLID_57_" class="st7" d="M511.7,260.4c1.6,0,1.6-2.5,0-2.5C510.1,257.9,510.1,260.4,511.7,260.4L511.7,260.4z"/>
	</g>
</g>
<g id="XMLID_1063_">
	<g id="XMLID_45_">
		<path id="XMLID_50_" class="st7" d="M515.9,258c1.6,0,1.6-2.5,0-2.5C514.3,255.5,514.3,258,515.9,258L515.9,258z"/>
	</g>
</g>
<g id="XMLID_1070_">
	<g id="XMLID_28_">
		<path id="XMLID_43_" class="st7" d="M520.3,260.2c1.6,0,1.6-2.5,0-2.5C518.6,257.7,518.6,260.2,520.3,260.2L520.3,260.2z"/>
	</g>
</g>
<g id="XMLID_1077_">
	<g id="XMLID_22_">
		<path id="XMLID_26_" class="st7" d="M520,256.4c1.6,0,1.6-2.5,0-2.5C518.4,253.9,518.4,256.4,520,256.4L520,256.4z"/>
	</g>
</g>
</svg>
