<?xml version="1.0" encoding="UTF-8" standalone="no"?>
<svg
   xmlns:dc="http://purl.org/dc/elements/1.1/"
   xmlns:cc="http://creativecommons.org/ns#"
   xmlns:rdf="http://www.w3.org/1999/02/22-rdf-syntax-ns#"
   xmlns:svg="http://www.w3.org/2000/svg"
   xmlns="http://www.w3.org/2000/svg"
   xmlns:sodipodi="http://sodipodi.sourceforge.net/DTD/sodipodi-0.dtd"
   xmlns:inkscape="http://www.inkscape.org/namespaces/inkscape"
   viewBox="0 0 274.00647 550.05865"
   version="1.1"
   id="svg209"
   sodipodi:docname="flower.svg"
   width="274.00647"
   height="550.05865"
   inkscape:version="1.0.1 (3bc2e813f5, 2020-09-07)">
  <metadata
     id="metadata213">
    <rdf:RDF>
      <cc:Work
         rdf:about="">
        <dc:format>image/svg+xml</dc:format>
        <dc:type
           rdf:resource="http://purl.org/dc/dcmitype/StillImage" />
      </cc:Work>
    </rdf:RDF>
  </metadata>
  <sodipodi:namedview
     pagecolor="#ffffff"
     bordercolor="#666666"
     borderopacity="1"
     objecttolerance="10"
     gridtolerance="10"
     guidetolerance="10"
     inkscape:pageopacity="0"
     inkscape:pageshadow="2"
     inkscape:window-width="1517"
     inkscape:window-height="1080"
     id="namedview211"
     showgrid="false"
     inkscape:zoom="1.114899"
     inkscape:cx="123.83952"
     inkscape:cy="285.01875"
     inkscape:window-x="1940"
     inkscape:window-y="36"
     inkscape:window-maximized="0"
     inkscape:current-layer="svg209" />
  <defs
     id="defs99" />
  <style
     id="style101">.st1{fill:#ec008c}.st2{fill:#da1c5c}.st3{fill:#f9ed32}</style>
  <g
     id="Layer_2"
     transform="translate(-182.16048,-110.98125)">
    <g
       id="XMLID_6_">
      <path
         id="XMLID_121_"
         d="M 322.8,212.9 C 318,197 311,180 295,172 c -9,-4 -21,-7 -30,-2 -8,5 -16,11 -25,10 -5,-1 -11,-4 -16,-4 -4,0 -6,5 -5,8 2,13 6,24 1,37 -1,3 -1,6 1,9 4,4 8,6 13,9 4,4 3,11 6,14 5,5 13,4 19,6 10,4 18,8 27,14 3,1 7,3 10.9,2.1 l 0.3,0.4 C 283,281 269,281 255,286 c -10,5 -13,16 -17,25 -4,7 -10,12 -16.1,17.2 9,5.9 5.8,-3.6 0,0 C 233,336 246,343 255,354 c 3,2 9,2 13,2 7,-1 11,8 19,5 6,-8 15,-3 23,-6 10,-5 17,-13 26,-20 4,-4 10,-8 11.5,-14.1 l 2.4,-2.8 c -4.1,3.8 -4.5,10.1 -4,15.6 0.5,5.6 1.5,11.4 -0.5,16.5 -1,2.6 -2.8,4.9 -3.8,7.5 -1.4,3.5 -1.2,7.7 1,10.8 2.2,3.1 6.4,4.8 9.9,3.5 4.2,-1.6 6.4,-6.6 10.6,-8.2 3.5,-1.3 7.3,0 11,0.6 3.7,0.6 8.3,-0.3 9.5,-3.8 0.7,-2 0,-4.1 -0.5,-6.1 -1.3,-5.3 -1.2,-11.6 2.9,-15.2 2.1,-1.9 4.9,-2.6 7.4,-3.9 2.5,-1.3 4.9,-3.6 4.8,-6.4 -0.1,-2.7 -2.3,-5 -1.9,-7.7 0.6,-3.8 5.8,-4.4 8.8,-6.8 4.1,-3.3 3.5,-9.8 1.4,-14.6 -2.1,-4.8 -5.5,-9.2 -6.1,-14.4 l 0.8,-1.1 c 4.6,-0.1 9.2,-0.2 13.7,-1.4 4.4,-1.2 8.7,-3.6 11.2,-7.5 1.7,-2.7 2.5,-5.8 3.2,-8.9 1,-4.4 2,-8.7 3,-13.1 0.5,-2.2 1.1,-4.5 2.3,-6.3 1.3,-1.9 3.3,-3.3 5.3,-4.4 4.5,-2.5 9.5,-4.3 14.7,-5.1 -4.4,-3.3 -10.1,-4.5 -14.6,-7.7 -2.5,-1.8 -4.5,-4.1 -6.2,-6.6 -2.5,-3.9 -4.1,-8.3 -4.7,-12.9 -0.3,-2.5 -1,-5.8 -3.5,-5.9 -1.2,-0.1 -2.4,0.7 -3.5,0.3 -0.6,-0.2 -1.1,-0.7 -1.5,-1.2 -2,-2.2 -4.3,-4.2 -6.9,-5.8 -0.6,-0.4 -1.2,-0.7 -1.9,-0.8 -1.6,-0.1 -2.8,1.7 -3.1,3.3 -0.4,1.6 -0.4,3.4 -1.4,4.7 -0.7,0.9 -1.8,1.4 -2.9,1.9 -4.4,2.2 -8.4,5.3 -11.7,9 l -2.3,0.8 c 5.4,-12 9.5,-24.5 12.2,-37.3 0.9,-4.3 1.6,-9.2 -0.7,-13 -1.3,-2.1 -3.4,-3.6 -5.4,-5.1 -5.3,-3.7 -10.5,-7.5 -15.8,-11.2 -4.2,-3 -8.4,-6 -12.2,-9.5 -8.2,-7.6 -14.2,-17.7 -17,-28.5 l -1,0.2 c -7.9,6.3 -17.7,10.2 -27.8,10.8 -2.9,0.2 -5.9,0.2 -8.3,1.7 -3.4,2.2 -4.3,6.7 -4.5,10.7 -0.2,4 0,8.3 -2.1,11.7 -1.5,2.4 -4,4 -5.2,6.6 -3.5,7.5 6,17.3 1.1,23.9"
         class="st1" />
      <g
         id="XMLID_110_">
        <path
           id="XMLID_120_"
           d="M 324.1,212.6 C 319,196 311.3,177.8 294.3,170.4 c -7.9,-3.5 -17.6,-5.8 -26.1,-3 -10.7,3.5 -18.1,14.1 -30.7,10.8 -5.8,-1.5 -16.2,-7.1 -19.4,1.2 -1.2,3.1 -0.1,6.5 0.5,9.6 1.2,6.5 2.7,13 2.6,19.6 -0.1,5.4 -2.8,10.2 -3,15.5 -0.3,4.7 2.2,7.4 5.7,10.1 4.4,3.3 10.1,5 11.8,10.8 1,3.1 1.1,6.5 3.4,9 2.9,3.2 7.7,4.1 11.7,4.8 6.1,1 11.3,2.8 17,5.5 5.9,2.8 11.2,6.3 16.8,9.4 2.1,1.2 4.6,2.1 7,2.6 0.6,0.1 4.9,0.5 4.5,-0.1 0.2,-0.6 0.5,-1.2 0.7,-1.8 -9.5,3.6 -19.5,5 -29.4,7 -7.3,1.5 -14.6,3 -19.9,8.8 -4.1,4.5 -6.4,10.2 -8.7,15.7 -3.8,9.1 -10.4,15.1 -17.8,21.4 -0.6,0.5 -0.4,1.6 0.3,2 1.5,0.9 7.9,4.2 7.4,-0.2 -0.3,-3.6 -5.3,-3.1 -7.4,-1.9 -0.9,0.5 -0.7,1.7 0,2.2 6.6,4.6 13.5,8.8 20,13.7 3.8,2.9 7.5,6 10.7,9.5 2,2.2 3.1,3.4 6.1,4.1 2.8,0.7 5.8,0.7 8.7,0.7 3.8,0 6.1,0.9 9.3,2.8 3.5,2.1 7.7,4 11.7,1.9 1.8,-0.9 2.7,-3 4.9,-3.8 1.8,-0.7 3.8,-0.8 5.8,-0.8 2.7,-0.1 5.4,0.1 8.1,-0.2 6.8,-0.9 12.7,-6.2 17.8,-10.5 6,-5.1 12.1,-10.1 17.8,-15.5 3.8,-3.7 5.4,-8.3 8.8,-12.1 1,-1.2 -0.7,-2.9 -1.8,-1.8 -6.6,7 -3.8,16.3 -3.7,24.9 0.1,6.1 -3,9.9 -4.9,15.3 -1.2,3.4 -1.3,7.3 0.4,10.6 3.7,7.2 11.8,6.8 16.9,1.8 2.6,-2.5 4.4,-5 8.4,-5.3 2.6,-0.2 5.1,0.8 7.6,1.1 3.1,0.4 6.9,0.3 9.4,-2.1 2.3,-2.2 2.2,-5 1.6,-7.8 -1.2,-6.4 -2.2,-12.9 4.3,-16.9 3.2,-2 7.1,-2.6 9.3,-6 0.8,-1.1 1.2,-2.4 1.2,-3.8 0,-3.2 -2,-4.4 -0.8,-7.7 1.5,-4 5.9,-3.9 8.5,-7.1 2.2,-2.6 2.6,-6.2 2.1,-9.5 -0.6,-4.3 -2.9,-8 -4.9,-11.8 -0.7,-1.3 -3.5,-5.7 -2.6,-7.1 0.5,-0.9 6.8,-0.5 8.1,-0.6 10,-1.1 17.4,-6 20.1,-16 1.7,-6.6 2.2,-14.5 5.5,-20.5 3.5,-6.3 12.9,-8.7 19.6,-9.8 1.1,-0.2 1.1,-1.7 0.3,-2.3 -4.2,-2.8 -9,-4.2 -13.2,-6.8 -5.3,-3.2 -8.8,-8.7 -10.6,-14.6 -1,-3.2 -0.6,-7.9 -2.9,-10.5 -2.1,-2.3 -5.1,-0.8 -7.5,-2.5 -3.3,-2.4 -9.6,-10.5 -13,-3.6 -1.2,2.4 -0.8,4.8 -3.1,6.7 -1.7,1.4 -4.1,2.2 -6,3.5 -3,2.1 -5.4,5.5 -8.7,6.6 0.5,0.6 0.9,1.2 1.4,1.8 4.7,-10.7 8.6,-21.7 11.3,-33.1 1.9,-8 3.9,-16.3 -3.3,-22.2 -9.2,-7.6 -19.9,-13.2 -28.9,-21.1 -8.8,-7.8 -14.9,-17.9 -18,-29.1 -0.2,-0.7 -0.9,-1 -1.5,-0.9 -3.5,0.8 -6.5,4.2 -9.8,5.8 -5.3,2.7 -11.1,4.4 -17,5 -7.6,0.8 -13.7,1.4 -15.3,10.1 -0.8,4.5 0.2,9.4 -1.8,13.6 -1.7,3.6 -5.5,5.7 -6.4,9.7 -1.8,7.3 6,15.3 1.8,22 -0.9,1.4 1.3,2.6 2.2,1.3 3.4,-5.5 0.1,-11.2 -1.2,-16.8 -1.3,-5.7 1.1,-8.1 4.4,-12.4 2.1,-2.7 2.8,-5.7 3.1,-9 0.3,-4.4 -0.4,-10.4 3.3,-13.6 3.5,-3 10.2,-2.1 14.6,-3 4.2,-0.8 8.4,-2.2 12.3,-4 2.3,-1.1 4.5,-2.3 6.6,-3.7 1.2,-0.8 2.7,-2.3 4.1,-2.6 l -1.5,-0.9 c 2.3,8.5 6.3,16.4 11.9,23.2 6.3,7.7 14.7,13.2 22.7,18.9 4.4,3.1 9.2,6 13.3,9.6 5.6,4.8 4.2,11.2 2.7,17.6 -2.7,11.8 -6.6,23.3 -11.5,34.3 -0.4,0.9 0.3,2.2 1.4,1.8 2.7,-0.9 3.6,-2.1 5.7,-4 3.3,-2.9 7.6,-4.4 10.8,-7.2 2.5,-2.2 2.1,-8.6 6.4,-7.3 3.4,1 4.9,5.4 8.1,6.7 1.4,0.6 3.9,-0.4 5.1,0.8 1.1,1.1 1,4.3 1.3,5.7 0.8,4.3 2.5,8.5 5,12.1 5.3,7.6 13.5,9.2 20.8,14.1 0.1,-0.8 0.2,-1.5 0.3,-2.3 -6.9,1.2 -16.6,3.8 -20.7,10 -5.8,8.6 -2.8,21.2 -9.4,29.4 -3.5,4.4 -9.1,6.1 -14.5,6.7 -2.4,0.3 -7.8,-0.7 -9.6,1.2 -3.7,4 5.1,14.9 6.2,18.9 1.6,5.4 0.3,9.8 -4.8,12.5 -2.2,1.1 -5,2.2 -6,4.7 -1.2,3 1,5.2 1.4,8.1 0.9,6.3 -8.4,7.4 -11.7,10.4 -5.6,5.2 -3.2,11.5 -2.9,18 0.5,9.4 -7.4,6.6 -13,5.9 -3.5,-0.5 -6.6,-0.2 -9.4,2 -1.8,1.4 -3.2,3.2 -4.9,4.7 -4.3,3.7 -10.5,2.2 -12.4,-3.2 -2.1,-5.8 2.2,-10.2 4.1,-15.2 3.8,-10.1 -3.9,-23 4.2,-31.6 l -1.8,-1.8 c -3.4,3.9 -4.9,8.5 -8.8,12.1 -4.9,4.7 -10.2,8.9 -15.3,13.4 -6.1,5.3 -12.9,11.7 -21.4,12.1 -5.1,0.2 -10.3,-0.5 -14.7,2.6 -1.2,0.8 -2.1,2.2 -3.5,2.8 -1.6,0.6 -3.9,-0.1 -5.4,-0.7 -2.3,-1 -4.2,-2.6 -6.4,-3.6 -4.9,-2.2 -10.5,0 -15.6,-1.9 -3.6,-1.3 -6.2,-5.3 -9,-7.9 -2.5,-2.2 -5.2,-4.3 -7.9,-6.3 -6.1,-4.4 -12.5,-8.4 -18.6,-12.7 v 2.2 c -0.3,0.2 4.3,-1.1 3.6,-0.1 0.1,-0.2 -3.2,-1.9 -3.6,-2.1 0.1,0.7 0.2,1.3 0.3,2 5.9,-5 12.6,-10.4 16.3,-17.4 2.9,-5.5 4.4,-11.6 8,-16.9 5.4,-7.9 14,-9.6 22.9,-11.4 9.3,-1.9 18.6,-3.3 27.5,-6.7 0.7,-0.3 1.3,-1.1 0.7,-1.8 -0.1,-0.1 -0.2,-0.3 -0.3,-0.4 -0.4,-0.5 -0.8,-0.7 -1.4,-0.6 -6,0.8 -10.9,-2.8 -15.8,-5.7 -3.8,-2.3 -7.7,-4.3 -11.7,-6.2 -3.5,-1.7 -7.2,-3.5 -11,-4.6 -3.7,-1 -7.6,-1.1 -11.3,-2.1 -4.8,-1.4 -6.9,-4 -8.1,-8.7 -0.7,-2.8 -1.4,-5.9 -3.4,-8 -2.6,-2.7 -6.9,-4.2 -9.9,-6.5 -3.1,-2.3 -5.3,-5.2 -4.6,-9.3 0.5,-3 1.9,-5.7 2.4,-8.7 1.4,-8.4 -0.5,-16.7 -2,-25 -1,-5.4 -2.4,-13.1 6.1,-11.5 4.2,0.8 8.2,3 12.5,3.6 7.3,1.1 14.3,-2.8 20.3,-6.5 4.4,-2.8 8.4,-5.5 13.8,-5.9 4.9,-0.4 9.8,0.5 14.5,2 19.4,6.2 27.9,24.4 33.4,42.5 -0.3,1.5 2.1,0.8 1.7,-0.7 z"
           class="st1" />
      </g>
    </g>
    <g
       id="XMLID_36_">
      <path
         id="XMLID_178_"
         d="m 375.7,547 c 4.7,3.4 9.2,7.2 13.4,11.2 6.9,6.6 13.6,15.3 12.3,24.9 -1.1,7.8 -7.1,13.7 -12.4,19.4 -10.5,11.2 -20.1,25 -19.6,40.4 0.1,2.8 0.5,5.7 -0.9,8.1 -1.1,1.9 -3.1,3.1 -5,4.1 -5.3,3 -11.3,6 -17.1,4.4 -1.3,-0.4 -2.5,-1 -3.4,-1.9 -0.8,-0.9 -1.3,-2 -1.7,-3.2 -1.2,-4.7 0.8,-9.7 -0.4,-14.4 -1.3,-5 -5.8,-8.4 -8.6,-12.8 -3.8,-6.1 -3.8,-13.8 -3.5,-21 0.3,-9.4 0.8,-18.8 1.4,-28.2 l -1,1.5 c -1.4,4.4 -2.9,8.7 -4.3,13.1 -1,3 -2.1,6.2 -4.6,8.2 -2,1.7 -4.7,2.3 -7.1,3.3 -16.2,6.7 -19.6,29.9 -35.2,37.9 -7.1,3.6 -15.6,3.4 -23.4,2 -7.8,-1.4 -15.5,-4 -23.4,-4.8 -7.2,-0.7 -15.8,-0.5 -20.1,-6.4 -0.4,-0.5 -0.7,-1.2 -0.9,-1.8 -0.2,-1.4 0.7,-2.8 1.5,-4 4.5,-6.8 7,-15 6.9,-23.1 -0.1,-8 -2.4,-16.5 1.1,-23.7 1.4,-2.8 3.5,-5.1 5.8,-7.3 16.5,-15.6 39.4,-22.8 56.9,-37.3 l 3.9,-2 c -8.4,1.8 -17.3,0.1 -25.3,-3.1 -8,-3.2 -15.4,-7.8 -22.9,-12 -3.6,-2.1 -7.4,-4.1 -11.5,-4.7 -4.6,-0.7 -9.2,0.2 -13.8,-0.2 -4.6,-0.5 -9.6,-3 -10.4,-7.5 -0.4,-2 0.1,-4.1 0.3,-6.2 0.3,-4.4 -1.2,-8.6 -3,-12.7 -4,-9.2 -9.4,-17.8 -15.9,-25.3 11.2,4.2 23.3,-1.4 34.8,-4.8 26.8,-8 57.1,-3.3 80.2,12.4 l 1.5,1.5 c 1.4,-8.3 -2.4,-16.6 -6,-24.2 -3.6,-7.7 -7.1,-16.2 -4.9,-24.3 0.3,-1.1 0.7,-2.3 1.6,-3 3,-2.7 7.7,1.1 11.8,0.5 -0.9,-4.3 -5.7,-8 -4.3,-12.2 1,-3.1 4.7,-4.3 7.9,-4.9 3.4,-0.7 6.8,-1.4 10.2,-2.2 3.2,-0.7 6.4,-1.4 9.4,-2.6 6.2,-2.6 11.1,-7.4 15.8,-12.2 5,7.1 10.1,14.4 17,19.7 8.7,6.7 19.5,10 28.9,15.7 4.5,2.7 8.9,6.4 10.1,11.6 0.5,2.2 0.4,4.4 0.2,6.6 -1.6,15.4 -8.4,30.2 -19.1,41.4 l 0.9,-1 c 2.9,-3 6.7,-6.3 10.7,-5.1 1.5,0.4 2.7,1.4 3.8,2.4 9.7,8.7 15.1,21.3 24.9,29.8 7.8,6.7 17.9,10.4 25.1,17.7 0.9,0.9 1.8,1.9 2,3.2 0.4,2.2 -1.4,4.2 -2.7,6 -5.4,7.9 -2,18.5 -2.3,28.1 -0.1,1.7 -0.3,3.5 -1.7,4.5 -4.1,3.1 -10.1,-5.8 -14.2,-2.6 -2.3,1.8 -1.2,6 -3.4,7.9 -1.6,1.4 -4,0.8 -5.9,-0.1 -7.8,-4.1 -10.7,-14.1 -18.1,-18.9 -7.9,-5 -19,-3 -26.4,-8.7"
         class="st1" />
      <g
         id="XMLID_105_">
        <path
           id="XMLID_177_"
           d="m 375.1,548.1 c 11.2,8.3 30.3,22.7 23.9,39 -2.7,6.8 -8.4,11.7 -13.2,17 -4.3,4.8 -8.3,10 -11.5,15.7 -2.9,5.2 -5,10.7 -5.9,16.6 -0.6,4 0.1,8 -0.7,11.9 -0.9,4.3 -5.7,6.4 -9.4,8.1 -4.4,2.1 -11.4,4.2 -15.1,-0.4 -2.4,-2.9 -0.8,-8.6 -0.8,-12 0,-5.4 -2.5,-9.1 -5.8,-13.1 -6.3,-7.7 -6.9,-16 -6.6,-25.6 0.3,-9.1 0.8,-18.2 1.4,-27.3 0.1,-1.3 -1.7,-1.6 -2.3,-0.6 -2.3,3.2 -3,7.4 -4.2,11.1 -0.7,2.1 -1.3,4.3 -2.1,6.3 -1.7,4.2 -4.3,5.7 -8.4,7.4 -6.2,2.6 -10.8,6.5 -14.8,11.9 -4.7,6.2 -8.1,13.3 -13.2,19.3 -6.9,8.1 -16.1,11 -26.6,10 -10.6,-1 -20.7,-4.8 -31.3,-5.7 -4.2,-0.4 -8.9,-0.5 -12.7,-2.6 -3.4,-1.9 -4.4,-4.9 -2.4,-8.1 1.3,-2.1 2.5,-4.3 3.4,-6.7 3.8,-9.2 2.9,-18 2.4,-27.7 -0.3,-6.3 0.7,-11.8 5.1,-16.6 3.7,-4.1 8.2,-7.5 12.7,-10.6 8.9,-6.2 18.7,-11 28,-16.5 7.6,-4.4 14.3,-10.3 22,-14.2 1.3,-0.7 0.4,-2.5 -1,-2.3 -13.5,2.5 -26.1,-3.1 -37.6,-9.5 -5.3,-3 -10.4,-6.4 -16.1,-8.7 -4.7,-2 -9.3,-1.9 -14.4,-1.8 -6.7,0.2 -14.6,-1 -14.4,-9.4 0.1,-5.1 0.1,-8.9 -1.7,-13.8 -4,-10.3 -10,-19.8 -17.2,-28.2 l -1.2,2.1 c 9.5,3.1 18.9,0.5 28,-2.5 10.4,-3.4 20.7,-5.9 31.7,-6.1 10.4,-0.2 20.8,1.3 30.7,4.3 8.6,2.7 19,6.6 25.6,12.9 0.9,0.8 2,0.1 2.1,-0.9 1.3,-10 -3.4,-18.5 -7.3,-27.3 -2.4,-5.5 -4.7,-11.5 -4.2,-17.7 0.2,-2.3 1.4,-5.6 4,-6.3 0.9,-0.2 2.4,0.5 3.3,0.7 1.9,0.4 3.4,0.8 5.3,0.7 0.8,0 1.5,-0.8 1.2,-1.6 -1.4,-4.7 -7.8,-11.5 -0.8,-14.6 4.7,-2 10.4,-2.4 15.3,-3.5 10.1,-2.3 17,-7.6 24.2,-14.8 -0.7,-0.1 -1.3,-0.2 -2,-0.3 5.6,8 11.4,16 19.5,21.6 8.4,5.9 18.2,9 26.9,14.3 5.1,3.2 9.7,7.3 9.9,13.8 0.1,5.1 -1.2,10.6 -2.6,15.5 -3.1,10.6 -8.8,20.2 -16.3,28.3 l 1.8,1.8 c 2.5,-2.8 4.6,-4.9 8.5,-5.2 3.7,-0.3 4.9,1.1 7.4,3.6 1.3,1.3 2.5,2.7 3.6,4.1 4.6,5.6 8.5,11.9 13.1,17.5 4.4,5.3 9.6,9.2 15.5,12.8 5.6,3.4 20.5,10 15.1,18.1 -3.7,5.4 -3.9,11.5 -3.5,17.9 0.2,3.3 1.1,7.3 0.6,10.6 -1.2,7.8 -5.5,3.4 -9.1,1.7 -2.8,-1.3 -5.8,-1.4 -7.5,1.6 -0.4,0.7 -0.4,1.7 -0.8,2.4 -1.2,2.4 1.3,1.1 -3.1,2.7 -3.5,1.3 -1.9,1.2 -3.9,0.3 -3.1,-1.4 -5.7,-5.5 -7.6,-8.1 -3.4,-4.6 -6.8,-9.2 -12.3,-11.6 -7.6,-3.3 -16.5,-2.3 -23.5,-7.2 -1.3,-0.9 -2.6,1.2 -1.3,2.2 6.8,4.8 15.2,4.1 22.7,7 8.3,3.1 11.3,11.6 17.4,17.4 3.1,2.9 9.4,7 12.7,2.1 0.7,-1 0.6,-2.3 1.1,-3.5 1.1,-2.7 2.9,-4 5.6,-2.6 2.1,1.1 4.3,2.8 6.7,2.9 6.5,0.2 5.3,-8.9 5,-12.9 -0.3,-4.3 -0.9,-8.6 -0.4,-12.9 0.3,-2.9 1.2,-5.6 2.8,-8 1,-1.6 2.5,-3.1 2.8,-5 0.9,-5.9 -8.1,-10.7 -12.1,-13.3 -8.2,-5.2 -16,-9.8 -22.2,-17.4 -6.1,-7.6 -10.9,-16.7 -18.6,-23 -6.2,-5.1 -12,-0.8 -16.6,4.2 -1.1,1.2 0.7,3 1.8,1.8 7.1,-7.6 12.6,-16.5 16,-26.4 2.9,-8.3 6.5,-20.4 0.7,-28.2 -5.8,-7.9 -16.7,-11.3 -25.1,-15.5 -12.5,-6.2 -20.6,-15.2 -28.5,-26.5 -0.5,-0.6 -1.4,-0.9 -2,-0.3 -5.2,5.2 -10.5,10.3 -17.6,12.7 -6,2 -12.4,2.6 -18.6,4.2 -3.1,0.8 -6.5,2.2 -7.6,5.5 -1.5,4.7 3.1,8.7 4.3,12.9 0.4,-0.5 0.8,-1.1 1.2,-1.6 -3.9,0.2 -8.8,-3.2 -12.4,-0.3 -3.2,2.5 -3,8.5 -2.7,12.1 1.5,14.3 13.3,25.8 11.4,40.6 l 2.1,-0.9 c -5.9,-5.7 -14.5,-9.2 -22.1,-12 -9.4,-3.5 -19.4,-5.4 -29.5,-5.9 -10,-0.5 -20.2,0.6 -29.8,3.3 -11.6,3.2 -23.5,9.3 -35.7,5.3 -1.3,-0.4 -2,1.2 -1.2,2.1 4.5,5.3 8.5,11 11.9,17.1 3.3,6 6.9,12.9 6.7,20 -0.2,4.3 -1,7.9 2.4,11.2 2.8,2.7 6.9,3.7 10.7,3.9 2.9,0.1 5.8,-0.3 8.6,-0.2 4.7,0.2 8.7,1.8 12.8,4 6,3.2 11.7,6.8 17.7,9.9 10.3,5.1 21.5,8.4 33,6.3 -0.3,-0.8 -0.6,-1.5 -1,-2.3 -8,4.1 -14.9,10.1 -22.7,14.6 -9.4,5.4 -19.1,10.3 -28,16.5 -8,5.6 -17,12.3 -18.2,22.6 -0.6,5.3 0.4,10.6 0.6,15.9 0.3,6.7 -1,13.2 -3.8,19.2 -1.3,2.8 -5,6.5 -4.4,9.9 0.6,3.2 4.1,5.5 6.8,6.6 3.9,1.7 8.3,1.9 12.5,2.2 6.7,0.6 13.1,2.1 19.6,3.6 10,2.3 21.1,4.1 30.7,-0.8 7,-3.6 11.7,-10.2 15.8,-16.7 5.8,-9 10.9,-17.9 21.3,-22 4.2,-1.6 7,-3.5 8.9,-7.6 2.6,-5.7 3.1,-13 6.7,-18.1 -0.8,-0.2 -1.6,-0.4 -2.3,-0.6 -0.6,10 -1.2,19.9 -1.4,29.9 -0.2,7.6 0.3,15.4 4.9,21.7 2.1,2.8 4.8,5.3 6.4,8.4 2.4,4.8 0.2,9.9 0.9,14.9 0.8,6 5.6,8.6 11.4,8.2 5.5,-0.4 14.1,-4 17.6,-8.5 2.1,-2.7 2,-5.7 1.9,-9 -0.1,-4.8 0.5,-9.4 2,-14 3.1,-9.2 9,-17.3 15.5,-24.5 4.8,-5.4 10.6,-10.5 13.3,-17.4 6.8,-17.7 -12.9,-32.9 -25.1,-42 -1.2,-0.6 -2.4,1.5 -1.1,2.5 z"
           class="st1" />
      </g>
    </g>
  </g>
  <g
     id="Layer_3"
     transform="translate(-182.16048,-110.98125)">
    <g
       id="XMLID_1_">
      <path
         id="XMLID_51_"
         d="m 355.9,227.9 c 6.2,-16 7.9,-33.7 4.7,-50.6 1.1,17.7 -1.9,35.6 -8.5,51.9 0.7,-7.8 -0.7,-15.7 -4,-22.7 -1.2,3.4 -1.8,6.9 -1.9,10.5 -2.5,-0.7 -3,-3.8 -3,-6.4 -0.2,-18.3 2.1,-36.7 6.8,-54.4 -13,22.8 -17.9,50.1 -13.6,76 -3.7,-6.5 -9.1,-11.9 -15.5,-15.7 2.7,4.5 5.4,9.1 8.1,13.6 -3.8,-2.8 -8.2,-4.7 -12.9,-5.7 l 6.3,10.2 c -5.2,-5 -12.2,-7.4 -19,-9.8 -13,-4.4 -26,-8.9 -39.5,-11.4 18,8 36.4,16.3 50.8,29.8 -6.2,-0.9 -12.4,-1.6 -18.7,-2.1 -5.7,-0.4 -12.3,-0.3 -15.9,4.1 9.6,1.6 19.3,3.1 28.9,4.7 -1.9,1.6 -4.5,2.3 -6.9,1.8 4,0.6 8,1.4 11.8,2.6 1.7,0.5 3.7,1.6 3.6,3.3 -0.1,0.9 -0.7,1.6 -1.3,2.2 -2.6,2.4 -5.9,4 -9.4,4.6 6.1,-0.7 12.2,-1 18.3,-0.7 -4.2,11.5 -10.5,22.2 -18.5,31.4 -7,8 -15.2,14.8 -23.4,21.6 10.2,-3.6 18.5,-11.2 25.5,-19.5 7,-8.3 13.1,-17.3 20.7,-25 0.4,5.2 0.5,10.4 0.1,15.6 2.9,-4 5.8,-8.1 8.8,-12.1 1.7,3.6 2.9,7.3 3.8,11.1 1.5,-4.5 3.6,-8.7 6.4,-12.5 6.7,6.6 7.3,17 7.6,26.4 5.5,-8.2 7.9,-18.5 6.7,-28.3 7.2,15.6 2.6,33.8 -2.1,50.3 4.5,-9.4 7,-19.5 9.5,-29.6 1.2,-5 2.5,-10.1 2.4,-15.3 -0.1,-5.2 -1.7,-10.5 -5.5,-14.1 2.3,0.6 4.9,0.2 7,-1 -4.1,-1.2 -8.2,-2.3 -12.2,-3.5 3.9,-5 13.9,-0.6 17.2,-6 -1.9,0.7 -3.7,1.4 -5.6,2.1 7.3,-3.7 13.7,-9.3 18.3,-16.1 -9.2,4.6 -18.9,8 -29,10.2 2.4,-5.6 4.8,-11.1 7.2,-16.7 -2.6,2.4 -4.9,4.9 -7.1,7.7 1.9,-8.2 4.6,-16.2 7.9,-23.9 -3.7,6.5 -9.9,11.6 -17.1,13.9 -0.8,-0.3 -0.9,-1.6 -0.2,-1.9"
         class="st2" />
      <g
         id="XMLID_30_">
        <path
           id="XMLID_50_"
           d="m 357.1,228.2 c 6.2,-16.5 7.8,-34 4.7,-51.3 -0.2,-1.4 -2.5,-1.1 -2.5,0.3 0.9,17.7 -1.9,35.1 -8.5,51.6 0.8,0.1 1.6,0.2 2.5,0.3 0.6,-8.2 -0.8,-15.9 -4.2,-23.4 -0.5,-1 -2,-0.6 -2.3,0.3 -1.1,3.6 -1.8,7.1 -2,10.9 0.6,-0.4 1.3,-0.7 1.9,-1.1 -4.1,-1.9 -2.4,-11.3 -2.3,-14.8 0.2,-4.7 0.5,-9.5 1,-14.2 1.1,-10.3 3,-20.4 5.7,-30.4 0.4,-1.4 -1.6,-2.2 -2.3,-1 -13.1,23.4 -17.9,50.5 -13.7,77 0.8,-0.3 1.5,-0.6 2.3,-1 -4,-6.7 -9.3,-12.1 -16,-16.2 -1.1,-0.7 -2.3,0.6 -1.7,1.7 2.7,4.5 5.4,9.1 8.1,13.6 l 1.7,-1.7 c -4.1,-2.8 -8.3,-4.7 -13.2,-5.8 -1,-0.2 -2,0.9 -1.4,1.8 l 6.3,10.2 c 0.7,-0.5 1.3,-1 2,-1.5 -7.2,-6.5 -16.7,-9.2 -25.8,-12.2 -10.9,-3.7 -21.9,-7.1 -33.3,-9.3 -1.3,-0.2 -2.3,1.7 -1,2.3 17.9,8 36,16.2 50.5,29.6 l 1.2,-2.1 c -7.2,-1.1 -14.6,-2.2 -21.9,-2.3 -5.2,-0.1 -10.2,0.7 -13.9,4.6 -0.6,0.6 -0.4,1.9 0.6,2.1 9.6,1.6 19.3,3.1 28.9,4.7 -0.1,-0.8 -0.2,-1.5 -0.3,-2.3 -1.9,1.3 -4.1,1.9 -6.3,1.7 -1.4,-0.1 -1.7,2.2 -0.3,2.5 3.3,0.5 8,0.8 11,2.4 7.1,3.8 -3.2,7.3 -6.3,8 -1.4,0.3 -1.1,2.6 0.3,2.5 6.1,-0.7 12.2,-0.9 18.3,-0.7 -0.4,-0.5 -0.8,-1.1 -1.2,-1.6 -8.2,22.2 -23.7,37.7 -41.5,52.5 -0.9,0.8 0.1,2.5 1.2,2.1 21.4,-7.9 31.7,-29.2 46.8,-44.8 l -2.1,-0.9 c 0.4,5.2 0.4,10.4 0.1,15.6 -0.1,1.4 1.7,1.5 2.3,0.6 2.9,-4 5.8,-8.1 8.8,-12.1 h -2.2 c 1.6,3.5 2.8,7.1 3.7,10.8 0.3,1.3 2,1.1 2.4,0 1.5,-4.4 3.6,-8.3 6.3,-12.2 -0.7,0.1 -1.3,0.2 -2,0.3 6.5,6.9 6.9,16.5 7.2,25.5 0,1.3 1.7,1.7 2.3,0.6 5.6,-8.7 8,-18.7 6.9,-28.9 -0.8,0.2 -1.6,0.4 -2.3,0.6 6.9,15.9 2.3,33.4 -2.2,49.3 -0.4,1.3 1.7,2.3 2.3,1 5,-10.7 8,-22.2 10.5,-33.7 2.1,-9.3 2.7,-19.4 -4.3,-26.7 l -1.2,2.1 c 2.9,0.5 5.3,0.2 7.9,-1.1 1,-0.5 0.7,-2 -0.3,-2.3 -4.1,-1.2 -8.2,-2.3 -12.2,-3.5 l 0.6,2.1 c 4.6,-4.9 13,-0.3 17.4,-6.2 0.6,-0.9 -0.4,-2.2 -1.4,-1.8 -1.9,0.7 -3.7,1.4 -5.6,2.1 0.3,0.8 0.6,1.5 1,2.3 7.6,-4 13.8,-9.6 18.7,-16.6 0.8,-1.1 -0.7,-2.2 -1.7,-1.7 -9.2,4.5 -18.7,7.8 -28.7,10 0.5,0.6 0.9,1.2 1.4,1.8 2.4,-5.6 4.8,-11.1 7.2,-16.7 0.5,-1.2 -0.9,-2.6 -2,-1.5 -2.6,2.4 -4.9,4.9 -7.1,7.7 l 2.1,1.2 c 2,-8.2 4.6,-16.1 7.9,-23.9 0.6,-1.3 -1.6,-2.1 -2.3,-1 -1.8,2.9 -3.9,5.6 -6.5,7.8 -2.2,1.9 -7,3.4 -8.6,5.5 1,-1.3 -1.2,-2.5 -2.2,-1.3 -0.9,1.3 -0.8,2.4 0.4,3.4 0.3,0.3 0.8,0.5 1.2,0.3 7.6,-2.7 13.7,-7.6 17.8,-14.5 -0.8,-0.3 -1.5,-0.6 -2.3,-1 -3.3,7.8 -5.9,15.7 -7.9,23.9 -0.3,1.1 1.3,2.3 2.1,1.2 2.2,-2.7 4.5,-5.3 7.1,-7.7 -0.7,-0.5 -1.3,-1 -2,-1.5 -2.4,5.6 -4.8,11.1 -7.2,16.7 -0.4,1 0.3,2.1 1.4,1.8 10.2,-2.3 19.9,-5.7 29.3,-10.3 l -1.7,-1.7 c -4.7,6.6 -10.7,11.9 -17.8,15.7 -1.2,0.7 -0.4,2.8 1,2.3 1.9,-0.7 3.7,-1.4 5.6,-2.1 -0.5,-0.6 -0.9,-1.2 -1.4,-1.8 -3.7,5 -12.5,0.9 -17,5.7 -0.6,0.7 -0.4,1.8 0.6,2.1 4.1,1.2 8.2,2.3 12.2,3.5 -0.1,-0.8 -0.2,-1.5 -0.3,-2.3 -1.9,1.1 -3.9,1.4 -6,0.9 -1.2,-0.2 -2.1,1.1 -1.2,2.1 7.9,8.3 4.8,20 2.3,29.9 -2.3,9.4 -4.8,18.7 -8.9,27.5 0.8,0.3 1.5,0.6 2.3,1 4.7,-16.7 9.2,-34.6 2,-51.3 -0.5,-1.1 -2.5,-0.6 -2.3,0.6 1,9.9 -1.2,19.3 -6.5,27.7 0.8,0.2 1.6,0.4 2.3,0.6 -0.3,-9.7 -1,-19.8 -7.9,-27.3 -0.6,-0.6 -1.5,-0.4 -2,0.3 -2.8,4 -4.9,8.2 -6.5,12.7 h 2.4 c -1,-3.9 -2.3,-7.7 -3.9,-11.4 -0.4,-0.9 -1.7,-0.7 -2.2,0 -2.9,4 -5.8,8.1 -8.8,12.1 0.8,0.2 1.6,0.4 2.3,0.6 0.4,-5.2 0.3,-10.4 -0.1,-15.6 -0.1,-1 -1.3,-1.7 -2.1,-0.9 -14.6,15.1 -24.9,36.4 -45.7,44.2 l 1.2,2.1 c 9.4,-7.9 18.9,-15.8 26.6,-25.5 6.7,-8.5 11.9,-18 15.6,-28.1 0.3,-0.8 -0.5,-1.6 -1.2,-1.6 -6.1,-0.2 -12.2,0.1 -18.3,0.7 0.1,0.8 0.2,1.6 0.3,2.5 3.6,-0.7 12.5,-3.7 11.5,-8.8 -1,-5.3 -12.3,-5.7 -16.2,-6.3 -0.1,0.8 -0.2,1.6 -0.3,2.5 2.9,0.2 5.1,-0.3 7.6,-2 0.8,-0.5 0.9,-2.1 -0.3,-2.3 -9.6,-1.6 -19.3,-3.1 -28.9,-4.7 l 0.6,2.1 c 4,-4.1 9.7,-4.1 15.1,-3.7 6.1,0.4 12.3,1.2 18.3,2.1 1.1,0.2 2.2,-1.2 1.2,-2.1 -14.7,-13.6 -32.9,-22 -51,-30 -0.3,0.8 -0.6,1.5 -1,2.3 10.1,2 20,4.9 29.7,8.1 9.6,3.2 20.5,5.8 28.2,12.7 1,0.9 2.7,-0.3 2,-1.5 l -6.3,-10.2 c -0.5,0.6 -0.9,1.2 -1.4,1.8 4.6,1 8.7,2.9 12.6,5.5 1.1,0.7 2.3,-0.7 1.7,-1.7 -2.7,-4.5 -5.4,-9.1 -8.1,-13.6 l -1.7,1.7 c 6.3,3.9 11.3,8.9 15.1,15.3 0.8,1.3 2.5,0.4 2.3,-1 -4.1,-25.8 0.7,-52.3 13.5,-75.1 -0.8,-0.3 -1.5,-0.6 -2.3,-1 -3.2,12 -5.3,24.3 -6.3,36.8 -0.5,6.1 -0.9,12.4 -0.6,18.6 0.2,2.9 0.8,5.6 3.6,6.9 0.9,0.4 1.8,-0.1 1.9,-1.1 0.2,-3.5 0.8,-6.8 1.9,-10.2 -0.8,0.1 -1.5,0.2 -2.3,0.3 3.2,7 4.4,14.4 3.9,22.1 -0.1,1.5 2,1.5 2.5,0.3 6.6,-16.7 9.5,-34.4 8.6,-52.3 -0.8,0.1 -1.6,0.2 -2.5,0.3 3,16.9 1.3,33.9 -4.7,49.9 -0.9,1.9 1.5,2.5 2.1,1 z"
           class="st2" />
      </g>
    </g>
    <g
       id="XMLID_9_">
      <path
         id="XMLID_104_"
         d="m 339.4,499 c 22,1.9 43.1,12.3 58.1,28.4 -11.1,-10.9 -26.7,-17.1 -42.2,-16.9 8.4,2.9 16.1,7.6 22.5,13.7 -12.9,-6.4 -27.1,-10.5 -41.4,-11.8 7.3,2.5 10.6,10.8 12.9,18.2 4.1,12.8 8.2,26.2 6.8,39.6 -1.2,-11.1 -2.7,-23.1 -10.3,-31.3 -0.2,8.5 -0.8,17.1 -1.8,25.5 -2,-8.8 -4,-17.7 -6,-26.5 -0.1,-0.5 -0.3,-1.1 -0.8,-1.4 -0.8,-0.4 -1.6,0.4 -2.1,1.1 -3,3.8 -7.4,6.3 -11.4,9 -14.6,9.8 -26.7,23.3 -34.8,38.8 5.3,-19 17.4,-36.1 33.6,-47.5 -7.9,1.2 -14.9,5.5 -21.7,9.8 1,-5.6 3.5,-10.8 7.1,-15.2 -6.3,0.8 -12.2,4.3 -16,9.4 2.7,-9.2 8.6,-17.4 16.4,-23 -11.7,-12.6 -29,-18.2 -45.7,-22 14.3,-1.7 29.3,2.6 40.5,11.8 -5,-7.8 -12.2,-14.3 -20.5,-18.4 6.2,1.8 12.2,4.2 18,7.1 -2.4,-4.7 -4.9,-9.4 -7.6,-14 7.4,1.3 13.8,6.7 16.4,13.7 2,-5 3.1,-10.4 3.4,-15.8 1.9,2.8 3.9,6.3 2.5,9.3 9.6,-14.7 11.5,-34.1 4.8,-50.4 1.9,0.5 3.1,2.4 3.9,4.2 6.2,13.5 3.8,29.2 1.2,43.8 4.8,-9.5 10.2,-18.6 16.2,-27.4 -0.8,4.5 -3.1,8.5 -4.6,12.8 -1.5,4.3 -2.2,9.3 0.2,13.1 7.7,-10.4 13.8,-22 18.1,-34.1 -0.5,13.8 -4.9,27.3 -11.3,39.5 6.7,-1 13.6,0.3 19.5,3.6 -8.2,-2.8 -17.1,0.8 -25.1,4.3"
         class="st2" />
      <g
         id="XMLID_72_">
        <path
           id="XMLID_94_"
           d="m 339.4,500.3 c 21.8,2.1 42.1,12.1 57.2,28.1 l 1.8,-1.8 c -11.7,-11.1 -27,-17.3 -43.1,-17.3 -1.5,0 -1.6,2 -0.3,2.5 8.2,3 15.5,7.4 21.9,13.4 0.5,-0.7 1,-1.3 1.5,-2 -13.3,-6.5 -27.4,-10.5 -42.1,-12 -1.5,-0.2 -1.5,2 -0.3,2.5 9.3,3.7 11.7,15.8 14.2,24.3 3.2,10.5 5.5,21.2 4.5,32.2 h 2.5 C 356,558.7 354.3,547 346.5,538 c -0.7,-0.9 -2.1,-0.1 -2.1,0.9 -0.2,8.5 -0.8,17 -1.8,25.5 0.8,-0.1 1.6,-0.2 2.5,-0.3 -1.2,-5.4 -2.4,-10.7 -3.7,-16.1 -0.6,-2.8 -1.3,-5.7 -1.9,-8.5 -0.2,-1 -0.3,-2.5 -1,-3.2 -1.3,-1.4 -2.6,-1 -3.9,0.1 -2.2,1.6 -3.9,4 -6.2,5.7 -2,1.4 -4.1,2.7 -6.1,4.1 -14.6,9.9 -26.4,23.3 -34.6,38.8 0.8,0.3 1.5,0.6 2.3,1 5.5,-18.9 17.1,-35.3 33.1,-46.8 1.2,-0.8 0.5,-2.5 -1,-2.3 -8.1,1.5 -15.1,5.6 -22,9.9 0.6,0.5 1.2,0.9 1.8,1.4 1.2,-5.4 3.3,-10.3 6.8,-14.6 0.8,-1 0.1,-2.3 -1.2,-2.1 -6.7,1.1 -12.4,4.4 -16.5,9.7 l 2.1,1.2 c 2.8,-9 8.2,-16.6 15.9,-22.2 0.7,-0.5 0.9,-1.3 0.3,-2 -12.3,-12.9 -29.4,-18.4 -46.3,-22.3 -0.1,0.8 -0.2,1.6 -0.3,2.5 14.3,-1.5 28.4,2.5 39.6,11.4 1,0.8 2.8,-0.2 2,-1.5 -5.3,-8.1 -12.4,-14.4 -21,-18.8 -0.3,0.8 -0.6,1.5 -1,2.3 6.1,1.9 12,4.2 17.7,7 1.1,0.6 2.3,-0.6 1.7,-1.7 -2.4,-4.7 -5,-9.4 -7.6,-14 -0.5,0.6 -0.9,1.2 -1.4,1.8 7.1,1.5 12.8,6.1 15.5,12.8 0.5,1.2 2,1.2 2.4,0 1.9,-5.2 3.1,-10.6 3.5,-16.1 -0.8,0.2 -1.6,0.4 -2.3,0.6 1.7,2.6 3.4,5.1 2.4,8.4 -0.4,1.4 1.5,2.1 2.3,1 9.7,-15.3 11.5,-34.4 4.9,-51.3 l -1.5,1.5 c 3.5,1.5 4.7,7.2 5.5,10.5 1,4 1.4,8.1 1.4,12.2 0,8 -1.3,15.9 -2.7,23.7 -0.2,1.3 1.6,2.3 2.3,1 4.8,-9.5 10.2,-18.6 16.2,-27.4 -0.8,-0.3 -1.5,-0.6 -2.3,-1 -1.9,9 -9,17.6 -4.2,26.8 0.5,0.9 1.6,0.7 2.2,0 7.7,-10.6 13.8,-22.1 18.2,-34.4 -0.8,-0.1 -1.6,-0.2 -2.5,-0.3 -0.7,13.7 -4.9,26.7 -11.1,38.9 -0.4,0.8 0.1,2 1.1,1.9 6.6,-0.8 12.9,0.3 18.9,3.4 0.3,-0.8 0.6,-1.5 1,-2.3 -9.1,-2.7 -17.8,0.8 -26.1,4.4 -1.5,0.6 -0.2,2.8 1.3,2.2 7.7,-3.4 15.7,-6.6 24.1,-4.2 1.3,0.4 2.2,-1.6 1,-2.3 -6.3,-3.3 -13,-4.6 -20.1,-3.7 0.4,0.6 0.7,1.3 1.1,1.9 6.5,-12.6 10.8,-26 11.5,-40.1 0.1,-1.5 -2,-1.6 -2.5,-0.3 -4.4,12.1 -10.4,23.4 -18,33.8 h 2.2 c -4.3,-8.3 2.8,-16.9 4.5,-24.9 0.3,-1.4 -1.5,-2.1 -2.3,-1 -6,8.8 -11.4,17.9 -16.2,27.4 0.8,0.3 1.5,0.6 2.3,1 1.8,-10 3.5,-20.2 2.5,-30.3 -0.6,-6.1 -2,-16.4 -8.4,-19.2 -0.8,-0.4 -1.9,0.7 -1.5,1.5 6.4,16.3 4.7,34.6 -4.7,49.4 0.8,0.3 1.5,0.6 2.3,1 1.2,-3.9 -0.5,-7.1 -2.6,-10.3 -0.7,-1.1 -2.2,-0.6 -2.3,0.6 -0.4,5.4 -1.5,10.4 -3.4,15.5 h 2.4 c -3,-7.6 -9.2,-12.9 -17.2,-14.6 -1,-0.2 -2,0.9 -1.4,1.8 2.7,4.6 5.2,9.3 7.6,14 l 1.7,-1.7 c -5.9,-2.9 -12,-5.3 -18.3,-7.2 -1.3,-0.4 -2.2,1.6 -1,2.3 8.2,4.2 15,10.2 20.1,17.9 0.7,-0.5 1.3,-1 2,-1.5 -11.8,-9.3 -26.4,-13.7 -41.4,-12.1 -1.3,0.1 -1.8,2.1 -0.3,2.5 16.5,3.8 33.2,9.1 45.2,21.7 0.1,-0.7 0.2,-1.3 0.3,-2 -8.2,6 -14,14 -17,23.7 -0.4,1.1 1.3,2.2 2.1,1.2 3.9,-5.1 9.1,-8.1 15.4,-9.1 l -1.2,-2.1 c -3.7,4.7 -6.2,9.8 -7.4,15.7 -0.2,1 0.9,2 1.8,1.4 6.7,-4.2 13.5,-8.2 21.4,-9.7 -0.3,-0.8 -0.6,-1.5 -1,-2.3 -16.5,11.8 -28.5,28.7 -34.2,48.3 -0.4,1.3 1.6,2.2 2.3,1 7.4,-14 17.7,-26.2 30.4,-35.6 3,-2.2 6.3,-4.2 9.4,-6.4 1.5,-1 6,-6.2 7.1,-5.9 1.1,0.3 2.7,12 3,13.3 1,4.4 2,8.8 3,13.3 0.3,1.5 2.3,1 2.5,-0.3 1,-8.5 1.6,-17 1.8,-25.5 l -2.1,0.9 c 7.3,8.5 8.8,19.7 9.9,30.4 0.2,1.6 2.4,1.6 2.5,0 1.2,-13.1 -2.3,-25.7 -6.3,-38.1 -2.6,-8.3 -5.6,-17.3 -14.3,-20.8 -0.1,0.8 -0.2,1.6 -0.3,2.5 14.2,1.5 27.9,5.4 40.8,11.6 1.2,0.6 2.6,-0.9 1.5,-2 -6.7,-6.2 -14.4,-10.9 -23,-14 -0.1,0.8 -0.2,1.6 -0.3,2.5 15.5,0 30.1,5.9 41.4,16.5 1.2,1.1 2.9,-0.6 1.8,-1.8 -15.5,-16.5 -36.4,-26.6 -59,-28.8 -2.5,-0.6 -2.5,1.9 -0.9,2.1 z"
           class="st2" />
      </g>
    </g>
  </g>
  <g
     id="Layer_4"
     transform="translate(-182.16048,-110.98125)">
    <g
       id="XMLID_2_">
      <g
         id="XMLID_34_">
        <path
           id="XMLID_40_"
           d="m 335.2,249.3 c -6,7.1 -14.2,11.4 -22.6,15.2 -10,4.5 -20.2,8.4 -30.8,11.3 -10.2,2.8 -20.6,4.7 -31.2,5.1 -4.9,0.2 -9.7,0.1 -14.6,-0.3 -1,-0.1 -16.5,-0.5 -16.5,-0.7 l -0.9,1.5 c 1.8,-0.5 3.4,-0.3 5,0.5 1.5,0.6 2.2,-1.9 0.7,-2.4 -2.2,-0.8 -4,-0.9 -6.3,-0.5 -0.7,0.1 -1,0.9 -0.9,1.5 0.5,2.6 2.6,3.1 5,2.8 3.6,-0.5 6.7,-0.9 10.3,-0.6 3,0.3 6.1,0.6 9.1,0.7 12,0.5 24,-1 35.6,-3.8 11.5,-2.7 22.6,-6.7 33.4,-11.5 9.7,-4.2 19.5,-8.8 26.5,-17.1 1,-1.1 -0.7,-2.9 -1.8,-1.7 z"
           class="st3" />
      </g>
    </g>
    <g
       id="XMLID_3_">
      <g
         id="XMLID_43_">
        <path
           id="XMLID_47_"
           d="m 339,253.5 c -18.4,9.5 -39.4,9.7 -59.7,9.6 -10.9,-0.1 -21.3,-0.7 -31.7,-4.5 -5.2,-1.9 -10.2,-4.1 -15.3,-6.3 -2,-0.9 -5.5,-1.6 -6.7,-3.6 -0.7,-1.2 -0.8,-3 -1.6,-4.3 -0.5,-0.8 -1.6,-0.8 -2.2,0 -1.4,2.2 -1.4,4.4 0.1,6.5 0.6,0.8 1.6,0.8 2.2,0 1.3,-1.7 1.3,-3.4 0.1,-5.1 -0.9,-1.3 -3.1,-0.1 -2.2,1.3 0,0.9 0,1.7 -0.1,2.6 h 2.2 c 0,-1.3 -0.1,-2.7 -0.1,-4 h -2.2 c 1,1.4 1.4,2.9 1.2,4.6 0,0.4 0.2,0.9 0.6,1.1 9.6,4.1 19.2,8.8 29.2,11.6 10,2.8 20.4,2.6 30.7,2.6 19.3,0 39.1,-0.9 56.6,-9.9 1.6,-0.8 0.4,-2.9 -1.1,-2.2 z"
           class="st3" />
      </g>
    </g>
    <g
       id="XMLID_12_">
      <g
         id="XMLID_29_">
        <path
           id="XMLID_60_"
           d="m 340.1,250.1 c -5.2,8.8 -14.7,18.3 -25.1,10 -6.4,-5.1 -7.3,-14.6 -8.8,-22.1 -0.3,-1.6 -2.7,-0.9 -2.4,0.7 1.8,9.2 3.3,21.1 12.9,25.5 11.5,5.3 20,-3.5 25.5,-12.8 0.9,-1.4 -1.2,-2.7 -2.1,-1.3 z"
           class="st3" />
      </g>
    </g>
    <g
       id="XMLID_15_">
      <g
         id="XMLID_64_">
        <path
           id="XMLID_74_"
           d="m 338.7,249.3 c -16.1,10.3 -47.7,11.4 -56.4,-9.3 -0.6,-1.5 -3,-0.8 -2.4,0.7 9.4,22.2 42.4,22.1 60.1,10.8 1.3,-0.9 0.1,-3.1 -1.3,-2.2 z"
           class="st3" />
      </g>
    </g>
    <g
       id="XMLID_10_">
      <g
         id="XMLID_82_">
        <path
           id="XMLID_87_"
           d="m 336.8,251 c -5.3,14.1 -13.2,27.7 -26.6,35.3 -1,0.5 -0.7,2 0.3,2.3 -0.7,0.8 -1.3,1.5 -2,2.3 l 1.5,1.5 c 0.4,-1.9 0.8,-3.5 1.5,-5.3 0.6,-1.5 -1.8,-2.2 -2.4,-0.7 -0.7,1.8 -1.1,3.4 -1.5,5.3 -0.2,0.9 0.6,1.8 1.5,1.5 2.8,-0.9 4.1,-2.6 4.4,-5.4 0.1,-0.5 -0.4,-1.1 -0.9,-1.2 -0.5,-0.1 -1,-0.3 -1.5,-0.4 0.1,0.8 0.2,1.5 0.3,2.3 14,-8 22.2,-22.1 27.7,-36.8 0.7,-1.5 -1.7,-2.2 -2.3,-0.7 z"
           class="st3" />
      </g>
    </g>
    <g
       id="XMLID_13_">
      <g
         id="XMLID_96_">
        <path
           id="XMLID_100_"
           d="m 338.5,251.4 c -2.3,14.7 -5,30.2 -16.5,40.7 -0.9,0.8 0,2.5 1.2,2.1 1.6,-0.6 2.3,-1.3 2.8,-2.9 0.3,-0.7 -0.4,-1.6 -1.2,-1.6 -2.5,0.2 -3.8,1.5 -4,4.1 -0.1,1.1 1.1,1.4 1.9,1.1 2,-0.8 2.6,-2.4 2.2,-4.4 -0.2,-1 -1.4,-1.1 -2.1,-0.6 -1,0.9 -1.6,1.7 -2.2,2.9 -0.7,1.5 1.5,2.7 2.2,1.3 0.3,-1 0.9,-1.8 1.8,-2.4 l -2.1,-0.6 c -0.4,0.5 -0.7,1.1 -1.1,1.6 0.6,0.4 1.3,0.7 1.9,1.1 0.5,-0.5 1,-1 1.5,-1.6 -0.4,-0.5 -0.8,-1.1 -1.2,-1.6 -0.4,0.4 -0.7,0.8 -1.1,1.1 l 1.2,2.1 c 11.9,-10.8 14.8,-26.6 17.2,-41.8 0.3,-1.5 -2.1,-2.2 -2.4,-0.6 z"
           class="st3" />
      </g>
    </g>
    <g
       id="XMLID_8_">
      <g
         id="XMLID_103_">
        <path
           id="XMLID_116_"
           d="m 282.8,238.8 c 0.5,-1.6 0.5,-3.5 -1.2,-4.4 -0.8,-0.4 -1.8,-0.2 -2.3,0.6 -0.5,0.8 -0.4,1.7 -0.4,2.6 0,0.8 -0.2,1.8 0.2,2.6 0.4,0.7 1.3,1.1 2,0.8 1.8,-0.6 1.4,-3.5 1.1,-4.9 -0.2,-0.9 -1.2,-1.1 -1.8,-0.7 -1.7,0.8 -0.9,3.7 -0.2,5 0.8,1.4 2.9,0.1 2.2,-1.3 -0.2,-0.3 -0.3,-0.7 -0.4,-1.1 0,-0.2 0,-0.3 -0.1,-0.5 -0.1,-0.5 0.2,-0.2 -0.3,0.1 -0.6,-0.2 -1.2,-0.5 -1.8,-0.7 0.1,0.4 0.1,0.8 0.1,1.2 v 0.6 c -0.2,0.4 0,0.4 0.3,0 h 0.7 c 0.1,0.1 0.2,0.3 0.4,0.4 v -0.3 c 0.1,-0.2 0,-0.5 0,-0.7 0,-0.5 0.2,-1.1 0.1,-1.5 -0.1,-0.4 0.3,-0.4 -0.4,-0.1 -1,0.4 -0.3,0 -0.4,0.4 -0.1,0.4 -0.1,0.8 -0.2,1.3 -0.4,1.5 2,2.1 2.4,0.6 z"
           class="st3" />
      </g>
    </g>
    <g
       id="XMLID_5_">
      <g
         id="XMLID_81_">
        <path
           id="XMLID_102_"
           d="m 306.6,238.7 c -0.1,-1.4 -0.9,-4 0,-5.2 -0.8,-0.2 -1.6,-0.4 -2.3,-0.6 0,0.9 -0.2,1.7 0,2.6 0.1,0.4 0.5,0.8 0.9,0.9 2.5,0.8 3.5,-4.7 2,-5.9 -1,-0.9 -2.2,-0.1 -2.7,0.9 -0.6,1.1 -1,2.9 -0.7,4.2 0.3,1.1 1.3,1.7 2.3,1.1 1.1,-0.7 1.7,-2.4 1.9,-3.6 0.1,-1.3 -0.3,-2.8 -1.7,-3 -1.6,-0.2 -1.9,1.2 -2.6,2.3 -0.8,1.4 1.3,2.6 2.2,1.3 0.1,-0.2 1,-1.8 -0.3,-1 0,0.3 -0.1,0.7 -0.2,1 -0.1,0.4 -0.3,0.7 -0.6,1 0.3,0 0.6,-0.1 1,-0.1 -0.1,0 -0.1,-0.1 -0.2,-0.1 0.2,0.2 0.5,0.4 0.7,0.6 -0.3,-0.6 0.3,-2.3 0.7,-2.7 -0.3,0.1 -0.6,0.2 -0.9,0.4 h 0.3 c -0.3,-0.1 -0.6,-0.2 -0.9,-0.4 0,0 -0.3,1.9 -0.4,1.9 0.3,0 0.6,-0.1 1,-0.1 -0.1,0 -0.1,0 -0.2,-0.1 l 0.9,0.9 c -0.1,-0.6 0.1,-1.3 0.1,-1.9 0.1,-1.4 -1.7,-1.5 -2.3,-0.6 -1.3,1.8 -0.6,4.5 -0.4,6.5 0,1.3 2.5,1.3 2.4,-0.3 z"
           class="st3" />
      </g>
    </g>
    <g
       id="XMLID_4_">
      <g
         id="XMLID_119_">
        <path
           id="XMLID_125_"
           d="m 333.2,262 c 1.6,0 1.6,-2.5 0,-2.5 -1.6,0 -1.7,2.5 0,2.5 z"
           class="st3" />
      </g>
    </g>
    <g
       id="XMLID_14_">
      <g
         id="XMLID_128_">
        <path
           id="XMLID_133_"
           d="m 306.9,242.6 c 1.6,0 1.6,-2.5 0,-2.5 -1.7,0 -1.7,2.5 0,2.5 z"
           class="st3" />
      </g>
    </g>
    <g
       id="XMLID_17_">
      <g
         id="XMLID_136_">
        <path
           id="XMLID_140_"
           d="m 339.5,256.1 c 0.9,0.4 1.8,0.9 2.7,1.3 1.2,0.6 2.7,-1 1.5,-2 -1,-0.9 -2.1,-1.8 -3.1,-2.7 l -0.6,2.1 c 1.7,-0.3 3.2,-0.8 4.8,-1.5 -0.4,-0.7 -0.8,-1.4 -1.3,-2.2 h -0.9 c 0.1,0.7 0.2,1.3 0.3,2 2.2,-2.7 4.1,-5.5 5.8,-8.5 0.6,-1 -0.4,-2 -1.4,-1.8 -3.2,0.6 -6,6.1 -7.8,8.6 0.8,0.3 1.5,0.6 2.3,1 0.6,-1.9 2.1,-4.2 0.7,-6 -0.3,-0.3 -0.8,-0.4 -1.2,-0.3 -1.7,0.5 -2.6,2.7 -3.4,4.1 0.8,0.1 1.5,0.2 2.3,0.3 -0.2,-1.2 -0.5,-2.3 -1,-3.5 -0.4,-1.1 -2,-1.2 -2.4,0 -0.3,0.8 -0.5,1.5 -0.6,2.3 0.8,-0.1 1.5,-0.2 2.3,-0.3 -1.1,-1.8 -2.3,-3.1 -4.2,-4 -0.9,-0.5 -2.2,0.3 -1.8,1.4 0.7,2.1 1.8,3.3 3.4,4.8 0.5,-0.7 1,-1.3 1.5,-2 -2.3,-1.4 -4.6,-2 -7.2,-2.1 -1.1,0 -1.6,1.4 -0.9,2.1 2.4,2.5 4.8,2.5 7.9,3.5 -0.1,-0.8 -0.2,-1.5 -0.3,-2.3 -0.4,0 -0.8,0.1 -1.2,0.1 0.1,0.8 0.2,1.6 0.3,2.5 0.8,-0.3 1.6,-0.4 2.4,-0.5 -0.2,-0.8 -0.4,-1.6 -0.7,-2.4 -1,0.5 -2.1,0.7 -3.2,0.8 0.2,0.8 0.4,1.6 0.6,2.3 0.5,-0.3 0.7,-0.4 1.1,-0.9 1.1,-1.2 -0.7,-3 -1.8,-1.8 -0.2,0.2 -0.4,0.3 -0.6,0.5 -1,0.6 -0.6,2.5 0.6,2.3 1.4,-0.1 2.6,-0.4 3.9,-0.9 1.5,-0.6 0.9,-2.6 -0.7,-2.4 -0.8,0.1 -1.6,0.2 -2.4,0.5 -1.4,0.4 -1,2.3 0.3,2.5 1.2,0.1 1.4,0 2.4,-0.5 1.1,-0.5 0.6,-2 -0.3,-2.3 -2.6,-0.8 -4.7,-0.8 -6.8,-2.9 l -0.9,2.1 c 2.2,0.1 4.1,0.6 6,1.7 1.2,0.7 2.6,-1 1.5,-2 -1.2,-1.1 -2.2,-2 -2.8,-3.7 -0.6,0.5 -1.2,0.9 -1.8,1.4 1.5,0.8 2.5,1.6 3.3,3.1 0.5,0.9 2.1,0.8 2.3,-0.3 0.1,-0.8 0.3,-1.6 0.6,-2.3 h -2.4 c 0.5,1.2 0.7,2.2 1,3.5 0.2,1.1 1.8,1.2 2.3,0.3 0.3,-0.6 2,-2.2 0.8,-2.1 -1,0.1 -1.1,1.6 -1.4,2.5 -0.5,1.4 1.5,2.1 2.3,1 1.2,-1.6 4.1,-7 6.3,-7.5 -0.5,-0.6 -0.9,-1.2 -1.4,-1.8 -1.6,2.8 -3.3,5.5 -5.4,8 -0.5,0.6 -0.6,1.6 0.3,2 1.3,0.6 2.2,0.6 3.5,0 1.5,-0.7 0.2,-2.8 -1.3,-2.2 -1.5,0.7 -2.7,1 -4.2,1.3 -0.9,0.1 -1.2,1.5 -0.6,2.1 1,0.9 2.1,1.8 3.1,2.7 0.5,-0.7 1,-1.3 1.5,-2 -0.9,-0.4 -1.8,-0.9 -2.7,-1.3 -1.4,-0.6 -2.6,1.6 -1.2,2.3 z"
           class="st3" />
      </g>
    </g>
    <g
       id="XMLID_18_">
      <g
         id="XMLID_143_">
        <path
           id="XMLID_151_"
           d="m 339.6,246.9 c 0.1,-1.3 0.8,-3.6 -0.2,-4.6 -0.3,-0.3 -0.8,-0.5 -1.2,-0.3 -1.2,0.4 -1.4,1.6 -1.6,2.8 -0.2,1.5 -0.3,3.1 -0.4,4.6 0,1.6 2.5,1.6 2.5,0 0,-1 0.1,-1.9 0.2,-2.9 0.1,-0.5 0.1,-1.1 0.2,-1.6 0,-0.2 0,-0.3 0.1,-0.5 0.2,-0.4 0.1,-0.5 -0.3,-0.1 l -1.2,-0.3 0.1,0.1 c -0.1,-0.3 -0.2,-0.6 -0.4,-0.9 0.1,1.2 -0.2,2.5 -0.3,3.6 -0.2,1.7 2.3,1.7 2.5,0.1 z"
           class="st3" />
      </g>
    </g>
    <g
       id="XMLID_7_">
      <g
         id="XMLID_117_">
        <path
           id="XMLID_135_"
           d="m 320.2,511.4 c -1.4,20.1 -7.8,39.5 -18.5,56.5 -5.3,8.4 -11.5,16.1 -18.7,23 -3.6,3.5 -7.5,6.7 -11.5,9.7 -1.8,1.3 -3.8,2.4 -5.4,4 -1.8,1.7 -3.2,6.1 -6,6.1 0.4,0.5 0.8,1.1 1.2,1.6 0.5,-2 1.3,-3.5 2.8,-4.9 1.2,-1.1 -0.6,-2.9 -1.8,-1.8 -1.8,1.8 -2.8,3.6 -3.4,6 -0.2,0.8 0.4,1.6 1.2,1.6 5,-0.1 6.5,-6 10.1,-8.7 4,-3 8,-5.9 11.7,-9.3 7.9,-7.1 14.8,-15.3 20.7,-24.1 11.7,-17.8 18.6,-38.5 20.1,-59.7 0.1,-1.6 -2.4,-1.6 -2.5,0 z"
           class="st3" />
      </g>
    </g>
    <g
       id="XMLID_11_">
      <g
         id="XMLID_144_">
        <path
           id="XMLID_152_"
           d="m 318.3,515.5 c -8.6,26.2 -25.3,49 -47.7,65.2 -1.3,0.9 0,3.1 1.3,2.2 22.9,-16.5 40,-39.9 48.8,-66.7 0.5,-1.5 -1.9,-2.2 -2.4,-0.7 z"
           class="st3" />
      </g>
    </g>
    <g
       id="XMLID_19_">
      <g
         id="XMLID_155_">
        <path
           id="XMLID_159_"
           d="m 318.4,514.2 c -3,8.1 -8.5,16.2 -17.7,17.5 -9.2,1.3 -15.6,-6 -17.8,-14.2 -0.4,-1.6 -2.8,-0.9 -2.4,0.7 2.4,9 9.6,17.1 19.7,16.2 10.7,-1 17.3,-10.2 20.7,-19.5 0.5,-1.5 -1.9,-2.2 -2.5,-0.7 z"
           class="st3" />
      </g>
    </g>
    <g
       id="XMLID_20_">
      <g
         id="XMLID_162_">
        <path
           id="XMLID_166_"
           d="m 318.6,513.4 c -0.7,15.2 -2.2,38.9 17.2,43.2 1.6,0.4 2.2,-2.1 0.7,-2.4 -18.1,-4.1 -15.9,-26.8 -15.3,-40.8 0,-1.6 -2.5,-1.6 -2.6,0 z"
           class="st3" />
      </g>
    </g>
    <g
       id="XMLID_22_">
      <g
         id="XMLID_169_">
        <path
           id="XMLID_173_"
           d="m 317.1,533.9 c 0.2,8.6 1.3,17.8 -0.2,26.3 -1.5,8.4 -5.7,15.9 -10,23.1 -0.8,1.4 1.3,2.6 2.2,1.3 4.4,-7.4 8.6,-15.1 10.2,-23.7 1.6,-8.8 0.5,-18.1 0.3,-26.9 0,-1.7 -2.5,-1.7 -2.5,-0.1 z"
           class="st3" />
      </g>
    </g>
    <g
       id="XMLID_27_">
      <g
         id="XMLID_141_">
        <path
           id="XMLID_174_"
           d="m 318.8,513.1 c -4.2,7.3 -8.7,14.4 -13.7,21.1 -2.9,3.8 -6,7.6 -10,10.3 -2.1,1.4 -11.1,6.5 -13.1,3.3 -0.9,-1.4 -3,-0.1 -2.2,1.3 1.7,2.6 5.1,2 7.8,1.4 4.9,-1 9.2,-3.8 12.8,-7.2 8.5,-8 14.8,-18.9 20.5,-29 0.9,-1.3 -1.3,-2.6 -2.1,-1.2 z"
           class="st3" />
      </g>
    </g>
    <g
       id="XMLID_55_">
      <g
         id="XMLID_183_">
        <path
           id="XMLID_187_"
           d="m 305.2,585.4 c -0.3,0.7 -0.7,1.3 -1,2 -0.6,1.2 1,2.6 2,1.5 1.2,-1.3 2,-2.7 2.4,-4.4 0.3,-1.1 -0.9,-1.8 -1.8,-1.4 -1.8,0.8 -2.9,2.6 -3,4.6 0,1 1.1,1.5 1.9,1.1 1.8,-0.9 2.9,-2.9 2.8,-4.9 0,-0.7 -0.8,-1.5 -1.6,-1.2 -0.6,0.2 -1,0.5 -1.3,1.1 -0.7,1.4 1.5,2.7 2.2,1.3 -0.1,0 -0.1,0.1 -0.2,0.1 -0.5,-0.4 -1.1,-0.8 -1.6,-1.2 0.1,1.2 -0.5,2.2 -1.6,2.8 0.6,0.4 1.3,0.7 1.9,1.1 0.1,-1.1 0.8,-2 1.8,-2.4 -0.6,-0.5 -1.2,-0.9 -1.8,-1.4 -0.3,1.2 -0.9,2.3 -1.7,3.3 0.7,0.5 1.3,1 2,1.5 0.3,-0.7 0.7,-1.3 1,-2 0.5,-1.7 -1.7,-2.9 -2.4,-1.5 z"
           class="st3" />
      </g>
    </g>
    <g
       id="XMLID_56_">
      <g
         id="XMLID_190_">
        <path
           id="XMLID_194_"
           d="m 338.8,553.8 c -1.2,0.1 -2.4,0.3 -3.1,1.3 -0.6,0.8 -0.7,2.1 0,2.9 1.6,1.8 4.5,0 5.6,-1.5 0.5,-0.6 0,-1.7 -0.7,-1.8 -1.4,-0.3 -2.9,-0.2 -4.3,0.3 -1,0.4 -1.2,1.7 -0.3,2.3 1.2,0.8 3,0.9 4.3,0.1 0.7,-0.4 1.3,-1.1 1.1,-2 -0.2,-0.8 -1.1,-1.4 -1.9,-1.1 -0.6,0.2 -1.1,0.8 -0.9,1.5 0.2,0.6 0.9,1.1 1.5,0.9 h 0.1 -0.7 0.1 l -0.6,-0.3 0.1,0.1 -0.3,-0.6 v -0.6 c 0.1,-0.3 0,-0.1 -0.2,0 -0.2,0.1 -0.3,0.1 -0.5,0.1 -0.4,0 -0.7,-0.1 -1,-0.3 -0.1,0.8 -0.2,1.5 -0.3,2.3 1,-0.4 1.9,-0.5 2.9,-0.3 -0.2,-0.6 -0.5,-1.2 -0.7,-1.8 -0.2,0.3 -0.5,0.5 -0.8,0.7 -0.1,0.1 -1,0.3 -1,0.3 0,-0.1 0.4,0.5 0.3,0.4 -0.1,-0.1 0.2,-0.2 0,-0.1 0.4,-0.1 0.7,-0.2 1.1,-0.3 1.8,-0.1 1.8,-2.6 0.2,-2.5 z"
           class="st3" />
      </g>
    </g>
    <g
       id="XMLID_57_">
      <g
         id="XMLID_197_">
        <path
           id="XMLID_201_"
           d="m 270.7,582.8 c -1.9,-0.9 -3.6,1.3 -2.3,2.9 0.3,0.4 1.1,0.5 1.5,0.2 1.6,-1.1 2.8,-2.7 3.3,-4.7 0.3,-1.2 -0.9,-1.8 -1.8,-1.4 -2,0.9 -3.6,2.7 -4.1,4.8 -0.2,0.9 0.6,1.8 1.5,1.5 1.3,-0.4 2.4,-1.2 3.2,-2.3 0.9,-1.3 -1.3,-2.6 -2.2,-1.3 -0.4,0.6 -1,1 -1.7,1.2 l 1.5,1.5 c 0.4,-1.6 1.5,-2.7 3,-3.3 -0.6,-0.5 -1.2,-0.9 -1.8,-1.4 -0.3,1.3 -1.1,2.4 -2.2,3.2 0.5,0.1 1,0.1 1.5,0.2 l -0.1,-0.1 0.3,0.6 c 0,0.4 -0.1,0.6 -0.5,0.7 -0.2,-0.1 -0.4,-0.1 -0.6,-0.2 0,0 0.1,0 0.1,0.1 1.5,0.6 2.8,-1.5 1.4,-2.2 z"
           class="st3" />
      </g>
    </g>
    <g
       id="XMLID_78_">
      <g
         id="XMLID_204_">
        <path
           id="XMLID_208_"
           d="m 264,610.2 c 0.8,-0.7 1.5,-1.6 2.1,-2.5 0.6,-1 -0.4,-2 -1.4,-1.8 -0.9,0.1 -1.7,0.5 -2.4,1 -0.5,0.4 -0.8,0.9 -0.5,1.6 0.2,0.5 0.9,1 1.5,0.7 1.4,-0.6 2.6,-1.3 3.7,-2.2 1.1,-0.9 -0.3,-2.6 -1.5,-2 -0.8,0.4 -1.6,0.9 -2.4,1.3 -1.4,0.8 -0.2,2.9 1.3,2.2 0.8,-0.4 1.6,-0.9 2.4,-1.3 -0.5,-0.7 -1,-1.3 -1.5,-2 -0.8,0.7 -1.7,1.2 -2.6,1.6 0.3,0.8 0.6,1.5 1,2.3 0.6,-0.4 1.1,-0.6 1.8,-0.7 -0.5,-0.6 -0.9,-1.2 -1.4,-1.8 -0.5,0.8 -1,1.4 -1.7,2 -0.5,0.4 -0.5,1.3 0,1.8 0.3,0.3 1,0.2 1.6,-0.2 z"
           class="st3" />
      </g>
    </g>
    <g
       id="XMLID_79_">
      <g
         id="XMLID_211_">
        <path
           id="XMLID_215_"
           d="m 280,544.2 c -0.8,-1.6 -2.7,-3.2 -4.4,-1.7 -1.6,1.4 -0.4,4 0.8,5.3 1.3,1.4 3.5,2 4.5,-0.1 0.8,-1.6 -0.4,-4.5 -2.2,-4.9 -0.9,-0.2 -1.5,0.4 -1.6,1.2 -0.2,1.8 -0.1,4 1.7,5 1.6,0.8 3.6,0.1 3.9,-1.7 0.3,-1.7 -1.2,-3.8 -3.1,-3.3 -1.6,0.5 -2.1,2.9 -0.5,3.8 1.4,0.8 2.7,-1.4 1.3,-2.2 0.1,0.2 0.2,0.4 0.2,0.6 -0.2,0.1 -0.3,0.2 -0.5,0.3 0,0 0.1,0.5 0.1,0.4 0,0 -0.4,-0.1 -0.5,-0.2 -0.6,-0.5 -0.3,-2 -0.2,-2.6 -0.5,0.4 -1.1,0.8 -1.6,1.2 0.6,0.1 0.4,1.1 0.6,1.5 0.1,0 0.2,-0.1 0.3,-0.1 -0.1,-0.1 -0.2,-0.1 -0.3,-0.2 -0.2,-0.2 -0.5,-0.4 -0.7,-0.7 -0.4,-0.5 -0.3,-1 -0.6,-1.6 l -0.2,0.2 c 0.1,0 0.2,0.1 0.3,0.2 0.1,0.3 0.3,0.5 0.5,0.8 0.8,1.5 2.9,0.2 2.2,-1.2 z"
           class="st3" />
      </g>
    </g>
    <g
       id="XMLID_80_">
      <g
         id="XMLID_218_">
        <path
           id="XMLID_222_"
           d="m 282.1,513.9 c -0.2,-0.3 -0.4,-0.7 -0.6,-1 -0.4,-0.6 -1.4,-0.9 -2,-0.3 -0.7,0.9 -1.1,1.9 -0.9,3 0.2,1 0.8,2 1.9,1.9 2.2,-0.1 3.3,-3.6 2.9,-5.3 -0.5,-2 -2.8,-3.1 -4.2,-1.3 -1.4,1.8 -0.7,4.7 0.3,6.6 0.3,0.6 1.2,0.8 1.7,0.4 2.1,-1.5 2.5,-4.6 0.6,-6.5 -0.5,-0.5 -1.6,-0.5 -2,0.3 -0.7,1.7 -0.9,3.4 -0.3,5.2 0.5,1.5 2.9,0.9 2.4,-0.7 -0.4,-1.1 -0.4,-2.2 0,-3.3 -0.7,0.1 -1.3,0.2 -2,0.3 0.7,0.7 0.7,2 -0.1,2.5 0.6,0.1 1.1,0.3 1.7,0.4 -0.3,-0.7 -0.6,-1.4 -0.6,-2.1 v -0.9 c 0,-0.2 0.3,-0.8 0,-0.8 -0.3,0 0,0 0,0.3 0,0.3 0.1,0.5 0,0.8 -0.1,0.4 -0.2,0.7 -0.4,1 -0.1,0.1 -0.1,0.2 -0.2,0.3 -0.3,0.3 -0.3,0.3 0,0.1 0.3,0.1 0.6,0.2 0.9,0.4 -0.2,-0.2 0,-0.8 0.1,-1 -0.7,-0.1 -1.3,-0.2 -2,-0.3 0.2,0.3 0.4,0.7 0.6,1 0.9,1.6 3.1,0.3 2.2,-1 z"
           class="st3" />
      </g>
    </g>
    <g
       id="XMLID_86_">
      <g
         id="XMLID_225_">
        <path
           id="XMLID_229_"
           d="m 317.4,515.9 c -3.1,16 -6.7,34 -20.9,44.1 -6.9,4.9 -15.1,9.1 -23.8,7.3 -1.7,-0.4 -4.3,-0.7 -5.8,-1.6 -1.5,-0.9 -1.2,-2.3 -2.2,-3.5 -0.8,-1 -1.2,-1.5 -2.6,-1.4 -0.6,0 -1,0.4 -1.2,0.9 -0.5,1.5 -0.4,2.5 0.4,3.8 0.5,0.8 1.7,0.8 2.2,0 1.2,-2.2 1.2,-4.1 -0.3,-6.2 -0.5,-0.8 -1.7,-0.9 -2.2,0 -1,1.7 -1.1,2.8 -0.6,4.6 0.4,1.6 2.8,0.9 2.4,-0.7 0.1,-0.9 0.3,-1.8 0.4,-2.7 H 261 c 0.1,1.2 0.2,2.5 0.3,3.7 h 2.2 c -0.2,-0.4 -0.8,1.5 -0.2,2.3 0.3,0.5 0.9,0.8 1.4,1 2.9,1.8 7.7,2.4 11.1,2.7 8.1,0.7 16.4,-4 22.7,-8.6 14.3,-10.6 18.2,-28.7 21.4,-45.1 0.2,-1.5 -2.2,-2.2 -2.5,-0.6 z"
           class="st3" />
      </g>
    </g>
    <g
       id="XMLID_90_">
      <g
         id="XMLID_239_">
        <path
           id="XMLID_243_"
           d="m 322.8,511.1 c 1.6,-1.8 2.6,-3.7 3.1,-6 0.2,-1.1 -1.2,-2.2 -2.1,-1.2 -2.1,2.3 -3.5,4.9 -4.2,8 l 2.1,-0.6 v 0.9 c -0.7,-0.1 -1.3,-0.2 -2,-0.3 0,0.1 0.1,0.3 0.1,0.4 0.1,0.8 0.7,1.4 1.6,1.2 1.7,-0.4 3.4,-0.7 5.1,-0.8 0.5,0 1,-0.1 1.6,-0.1 -0.2,-0.3 -0.5,-0.7 -0.7,-1 -0.4,-0.1 -2.1,0.3 -2.7,0.3 -2.1,0.2 -4,1.1 -4.6,3.2 -0.5,1.5 2,2.2 2.4,0.7 0.7,-2.5 8.6,-0.5 7.6,-4.4 -0.7,-2.9 -7.5,-0.8 -9.3,-0.3 0.5,0.4 1.1,0.8 1.6,1.2 -0.1,-0.7 -0.2,-1.1 -0.5,-1.7 -0.3,-0.8 -1.4,-0.8 -2,-0.3 -0.8,0.8 -0.8,1.8 0,2.6 0.6,0.7 1.9,0.3 2.1,-0.6 0.6,-2.6 1.7,-4.9 3.5,-6.9 l -2.1,-1.2 c -0.4,1.9 -1.2,3.5 -2.4,4.9 -1,1.4 0.7,3.2 1.8,2 z"
           class="st3" />
      </g>
    </g>
    <g
       id="XMLID_91_">
      <g
         id="XMLID_246_">
        <path
           id="XMLID_250_"
           d="m 323,516.7 c 1.2,0.6 2.2,1.5 3,2.6 l 1.7,-1.7 c -1.7,-0.9 -3.4,-1.6 -5.3,-2 -1.6,-0.4 -2.1,1.8 -0.7,2.4 0.9,0.4 1.7,0.9 2.5,1.6 1.2,1.1 2.9,-0.7 1.8,-1.8 -1.1,-1 -2.2,-1.7 -3.6,-2.3 -0.2,0.8 -0.4,1.6 -0.7,2.4 1.7,0.4 3.2,1 4.7,1.8 1,0.6 2.5,-0.6 1.7,-1.7 -1,-1.4 -2.3,-2.6 -3.9,-3.5 -1.3,-0.7 -2.6,1.5 -1.2,2.2 z"
           class="st3" />
      </g>
    </g>
    <g
       id="XMLID_92_">
      <g
         id="XMLID_253_">
        <path
           id="XMLID_257_"
           d="m 319.1,512.5 c -1.3,-1.9 -2.8,-3.1 -4.9,-3.9 -1.4,-0.5 -2.1,1.6 -1,2.3 2.4,1.5 4.4,3.4 5.9,5.9 l 1.7,-1.7 c -1,-0.6 -2,-1.2 -3.1,-0.8 -0.4,0.1 -0.8,0.4 -0.9,0.9 -0.5,2.7 2.8,3.8 4.9,3.7 l -1.3,-1.3 c -0.1,1.8 0,3.6 0.2,5.5 0.2,1.6 2.5,1.7 2.5,0 0,-3.2 -1.3,-9 -5.7,-8 0.5,0.4 1.1,0.8 1.6,1.2 0,-0.4 -0.1,-0.8 -0.1,-1.1 -0.1,-0.6 -0.5,-1.3 -1.3,-1.3 -1.7,0.2 -3.3,0.3 -5,0.5 0.4,0.6 0.7,1.3 1.1,1.9 0.3,0 0.6,0.1 0.9,0.1 0.1,-0.6 0.3,-1.1 0.4,-1.7 -0.3,0.2 -0.5,0.4 -0.8,0.5 -1.3,0.9 -0.1,3.1 1.3,2.2 0.3,-0.2 0.5,-0.4 0.8,-0.5 0.5,-0.4 0.8,-1.1 0.4,-1.7 -1.3,-2.1 -3.8,-2 -5.2,-0.1 -0.6,0.7 0.2,2 1.1,1.9 1.7,-0.2 3.3,-0.3 5,-0.5 l -1.3,-1.3 c 0,0.4 0.1,0.8 0.1,1.1 0.1,0.8 0.7,1.4 1.6,1.2 1.1,-0.2 2.1,2.3 2.2,2.9 0.2,0.9 0.3,1.8 0.3,2.7 h 2.5 c -0.2,-1.8 -0.3,-3.6 -0.2,-5.5 0,-0.7 -0.6,-1.3 -1.3,-1.3 -0.9,0.1 -1.7,-0.1 -2.5,-0.5 l -0.9,0.9 c 0.4,0.1 0.8,0.3 1.2,0.6 1.1,0.6 2.4,-0.6 1.7,-1.7 -1.7,-2.8 -4,-5.1 -6.8,-6.8 -0.3,0.8 -0.6,1.5 -1,2.3 1.5,0.6 2.6,1.4 3.5,2.7 1.1,1.3 3.3,0 2.4,-1.3 z"
           class="st3" />
      </g>
    </g>
    <g
       id="XMLID_93_">
      <g
         id="XMLID_260_">
        <path
           id="XMLID_264_"
           d="m 320.4,513 c -0.1,-0.7 -0.4,-1.3 -0.7,-1.9 -0.6,-0.9 -2,-0.8 -2.3,0.3 -0.2,0.7 -0.4,1.4 -0.5,2.1 -0.4,1.6 2,2.2 2.4,0.7 0.2,-0.7 0.4,-1.4 0.5,-2.1 -0.8,0.1 -1.5,0.2 -2.3,0.3 0.3,0.4 0.4,0.8 0.5,1.3 0.1,0.7 0.9,1 1.5,0.9 0.7,-0.2 1,-0.9 0.9,-1.6 z"
           class="st3" />
      </g>
    </g>
  </g>
</svg>
