<?xml version="1.0" encoding="UTF-8" standalone="no"?>
<svg
   xmlns:dc="http://purl.org/dc/elements/1.1/"
   xmlns:cc="http://creativecommons.org/ns#"
   xmlns:rdf="http://www.w3.org/1999/02/22-rdf-syntax-ns#"
   xmlns:svg="http://www.w3.org/2000/svg"
   xmlns="http://www.w3.org/2000/svg"
   xmlns:sodipodi="http://sodipodi.sourceforge.net/DTD/sodipodi-0.dtd"
   xmlns:inkscape="http://www.inkscape.org/namespaces/inkscape"
   viewBox="0 0 351.2395 307.88757"
   version="1.1"
   id="svg252"
   sodipodi:docname="lightning.svg"
   width="351.2395"
   height="307.88757"
   inkscape:version="1.0.1 (3bc2e813f5, 2020-09-07)">
  <metadata
     id="metadata256">
    <rdf:RDF>
      <cc:Work
         rdf:about="">
        <dc:format>image/svg+xml</dc:format>
        <dc:type
           rdf:resource="http://purl.org/dc/dcmitype/StillImage" />
      </cc:Work>
    </rdf:RDF>
  </metadata>
  <sodipodi:namedview
     pagecolor="#ffffff"
     bordercolor="#666666"
     borderopacity="1"
     objecttolerance="10"
     gridtolerance="10"
     guidetolerance="10"
     inkscape:pageopacity="0"
     inkscape:pageshadow="2"
     inkscape:window-width="1517"
     inkscape:window-height="1080"
     id="namedview254"
     showgrid="false"
     inkscape:zoom="1.766"
     inkscape:cx="123.62252"
     inkscape:cy="151.96556"
     inkscape:window-x="1940"
     inkscape:window-y="36"
     inkscape:window-maximized="0"
     inkscape:current-layer="svg252" />
  <defs
     id="defs215" />
  <style
     id="style217">.st0{fill:#e3be22}.st1{fill:#fff}.st2{fill:#e4ca1f}.st3{fill:#77787b}.st4{fill:#f0e927}.st5{fill:#b1b3b6}</style>
  <g
     id="white_cloud"
     transform="translate(-126.37748,-98.034445)">
    <path
       d="m 166.95,244.82 c -5.43,10.16 -9.52,21.03 -12.12,32.25 -0.2,0.85 -0.37,1.82 0.13,2.54 0.66,0.96 2.06,0.93 3.22,0.83 4.59,-0.38 9.23,-0.06 13.72,0.94 1.04,0.23 2.15,0.54 2.84,1.36 1.04,1.22 0.77,3.04 0.45,4.6 -2.01,9.69 -4.01,19.38 -6.02,29.08 5.86,2.4 14.31,-1.51 18,3.64 1.15,1.6 1.38,3.66 1.53,5.63 0.77,9.82 0.55,20.04 4.58,29.03 l 5.55,-44.43 c 0.16,-1.26 0.23,-2.74 -0.73,-3.56 -0.77,-0.66 -1.89,-0.61 -2.89,-0.53 -4.6,0.36 -9.2,0.72 -13.79,1.08 1.75,-10.84 4.46,-21.52 8.09,-31.88 L 171,272.25 c 3.76,-5.92 7.51,-11.85 11.27,-17.77 0.57,-0.9 1.16,-1.93 0.88,-2.96 -0.25,-0.91 -1.12,-1.5 -1.93,-1.99 -4.26,-2.61 -8.62,-5.07 -13.06,-7.38"
       class="st0"
       id="path219" />
    <path
       d="m 165.56,244.63 c -2.89,5.42 -5.41,11.04 -7.52,16.81 -1.06,2.88 -2.01,5.81 -2.86,8.76 -0.41,1.42 -0.8,2.86 -1.16,4.29 -0.34,1.33 -0.88,2.8 -0.85,4.19 0.06,2.68 2.79,3.03 4.9,2.88 3.22,-0.22 6.4,-0.19 9.6,0.25 1.43,0.2 2.9,0.4 4.28,0.81 1.49,0.44 2.13,1.4 2.05,2.94 -0.07,1.36 -0.45,2.72 -0.73,4.05 -0.35,1.7 -0.7,3.39 -1.05,5.09 -1.5,7.27 -3.01,14.54 -4.51,21.81 -0.09,0.42 0.3,0.79 0.65,0.92 2.82,1.1 5.88,1.01 8.85,0.92 2.57,-0.07 5.75,-0.35 7.84,1.45 2.68,2.32 2.28,7.03 2.48,10.22 0.24,4 0.44,8 0.94,11.97 0.56,4.5 1.55,8.93 3.38,13.09 0.53,1.2 2.76,0.82 2.92,-0.48 1.14,-9.13 2.28,-18.27 3.42,-27.4 0.58,-4.61 1.15,-9.22 1.73,-13.82 0.23,-1.83 0.8,-3.95 0.37,-5.78 -0.4,-1.73 -1.94,-2.51 -3.61,-2.58 -2.39,-0.1 -4.87,0.31 -7.25,0.49 -2.63,0.21 -5.25,0.41 -7.88,0.62 0.45,0.34 0.91,0.68 1.36,1.02 1.75,-10.74 4.43,-21.31 8.01,-31.59 0.24,-0.69 -0.23,-1.18 -0.91,-1.3 l -18.51,-3.15 c 0.25,0.52 0.49,1.05 0.74,1.57 2.1,-3.31 4.19,-6.61 6.29,-9.92 1.05,-1.65 2.1,-3.31 3.15,-4.96 0.93,-1.46 2.15,-2.96 2.76,-4.6 1.31,-3.51 -3.04,-5.17 -5.41,-6.57 -3.29,-1.93 -6.64,-3.77 -10.02,-5.54 -1.25,-0.65 -3.3,1.18 -1.65,2.04 3.05,1.59 6.06,3.25 9.04,4.99 1.4,0.82 2.84,1.62 4.19,2.53 0.55,0.37 1.08,0.76 1.15,1.46 0.09,0.82 -0.52,1.62 -0.93,2.28 -3.63,5.81 -7.34,11.57 -11.01,17.36 -0.47,0.74 -0.14,1.42 0.74,1.57 l 18.51,3.15 c -0.3,-0.43 -0.6,-0.87 -0.91,-1.3 -3.64,10.47 -6.38,21.23 -8.17,32.17 -0.12,0.73 0.8,1.07 1.36,1.02 4.19,-0.33 8.37,-0.65 12.56,-0.98 0.79,-0.06 1.81,-0.3 2.59,-0.08 0.89,0.26 1.01,1.18 1,1.99 -0.03,1.99 -0.46,4.02 -0.71,6 -1.05,8.39 -2.1,16.79 -3.14,25.18 -0.6,4.77 -1.19,9.55 -1.79,14.32 0.97,-0.16 1.95,-0.32 2.92,-0.48 -3.43,-7.78 -3.78,-16.34 -4.29,-24.7 -0.21,-3.45 0.09,-7.93 -2.34,-10.71 -1.96,-2.23 -4.87,-2.74 -7.7,-2.82 -3.44,-0.09 -7.11,0.59 -10.41,-0.7 0.22,0.31 0.43,0.62 0.65,0.92 1.34,-6.46 2.67,-12.92 4.01,-19.38 0.65,-3.15 1.31,-6.3 1.96,-9.45 0.47,-2.28 0.69,-4.88 -1.58,-6.28 -1.07,-0.66 -2.37,-0.89 -3.58,-1.13 -1.56,-0.31 -3.13,-0.54 -4.71,-0.69 -3.07,-0.29 -6.05,-0.06 -9.11,-0.02 -1.4,0.02 -1.66,-0.69 -1.42,-2.01 0.28,-1.55 0.73,-3.1 1.14,-4.62 0.79,-2.94 1.69,-5.86 2.69,-8.74 2.26,-6.53 5.05,-12.87 8.3,-18.98 0.76,-1.46 -2.17,-1.57 -2.81,-0.37 z"
       class="st0"
       id="path221" />
    <g
       id="g227">
      <path
         d="m 184.79,155.51 c 6.31,-5.96 16.86,-6.76 23.99,-1.82 1.59,1.1 3.18,2.5 5.11,2.51 1.62,0.01 3.04,-0.98 4.41,-1.83 12.95,-8.06 31.22,-6.29 42.38,4.11 11.66,-9.61 24.8,-19.69 39.91,-19.27 14.14,0.39 27.3,11.34 30.25,25.17 2.94,-3.53 8.59,-1.9 12.77,0.03 4,1.84 8.2,3.85 10.65,7.51 2.45,3.66 2.24,9.48 -1.59,11.66 13.16,0.13 25.88,8.6 31.07,20.7 1.51,3.51 2.42,7.35 2.02,11.15 -0.79,7.36 -6.58,13.51 -13.39,16.43 -6.81,2.92 -20.66,6.88 -28.04,6.2 0.16,4.04 2.04,2.64 -0.04,6.11 -7.31,12.19 -13.02,16.91 -27.65,22.92 -7.49,3.08 -28.54,7.04 -36.47,5.38 -11.45,-2.4 -19.28,-12.72 -25.76,-22.46 -5.42,9.12 -17.11,11.89 -27.54,13.83 -4.52,0.84 -9.27,1.67 -13.64,0.24 -7.11,-2.32 -11.04,-9.71 -14.26,-16.46 -2.45,3.82 -6.38,6.46 -10.38,8.6 -8.45,4.51 -18.02,7.35 -27.57,6.64 -9.55,-0.71 -19.05,-5.3 -24.42,-13.23 -5.37,-7.93 -5.88,-19.27 -0.15,-26.94 5.96,-7.97 16.73,-10.51 26.66,-11.15 -3.36,-4.1 -6.47,-8.53 -8.05,-13.59 -1.58,-5.06 -1.44,-10.86 1.38,-15.34 2.83,-4.49 8.02,-7.11 13.27,-7.92 5.25,-0.81 10.61,-0.02 15.82,1.03 -4.51,-2.73 -6.85,-8.61 -5.45,-13.69 1.4,-5.08 6.43,-8.93 11.71,-8.95"
         class="st1"
         id="path223" />
      <path
         d="m 189.04,159.75 c 4.28,-3.73 10.62,-4.33 15.57,-1.61 2.88,1.58 4.99,3.74 8.49,3.95 3.74,0.23 6.35,-1.55 9.47,-3.27 10.71,-5.9 24.78,-4.21 33.88,3.9 2.6,2.32 5.85,2.16 8.49,0 10,-8.22 21.94,-18 35.66,-17.51 11.82,0.42 21.77,9.52 24.46,20.77 1.07,4.49 6.88,5.69 10.03,2.65 3.05,-2.95 17.77,7.49 14.56,9.77 -4.75,3.38 -3.22,10.97 3.03,11.18 7.26,0.24 14.17,3.15 19.39,8.23 4.9,4.76 9.88,13.01 6.96,20.02 -2.61,6.27 -9.13,8.84 -15.12,10.75 -6.26,1.99 -12.96,3.89 -19.58,3.48 -2.99,-0.18 -6.34,2.91 -6,6 0.15,1.35 0.26,2.67 0.64,3.97 0.98,3.33 0.42,-0.86 0.14,-0.89 -0.42,-0.04 -3.58,5.56 -4.06,6.18 -2.26,3 -4.96,5.7 -8.07,7.82 -6.74,4.59 -14.44,7.4 -22.35,9.16 -7.07,1.58 -15.66,3.58 -22.86,2.38 -10.1,-1.68 -16.92,-11.86 -22.18,-19.71 -2.55,-3.8 -7.84,-3.92 -10.36,0 -4.88,7.59 -15.04,9.39 -23.27,10.94 -4.92,0.93 -10.16,1.95 -14.29,-1.57 -3.51,-3 -5.55,-7.7 -7.51,-11.76 -2.12,-4.4 -7.99,-3.35 -10.36,0 -5.17,7.32 -17.14,11.19 -25.62,12.16 -9.01,1.03 -18.83,-1.45 -25,-8.42 -5.17,-5.84 -6.78,-15.41 -1.98,-21.97 4.87,-6.66 14.23,-8.26 21.91,-8.83 5.47,-0.4 7.55,-6.14 4.24,-10.24 -4.45,-5.51 -10.43,-14.53 -5.73,-21.66 4.66,-7.07 15.38,-5.47 22.32,-4.13 6.73,1.31 10.32,-7.04 4.62,-10.97 -5.03,-3.46 -2.83,-11.04 3.23,-11.46 7.66,-0.53 7.72,-12.53 0,-12 -8.19,0.56 -15.7,5.67 -17.63,13.99 -1.83,7.86 1.91,15.39 8.34,19.82 1.54,-3.66 3.08,-7.31 4.62,-10.97 -12.47,-2.42 -28.32,-2.8 -35.87,9.64 -7.58,12.49 -0.49,26.17 7.61,36.2 1.41,-3.41 2.83,-6.83 4.24,-10.24 -11.82,0.87 -24.58,3.89 -31.84,14.12 -7.34,10.35 -6.05,24.98 1.5,34.83 8,10.43 21.61,15.35 34.51,14.34 13.39,-1.05 28.89,-6.87 36.88,-18.17 h -10.36 c 2.88,5.98 6.18,12.01 11.64,16.01 6.14,4.51 13.22,4.57 20.47,3.41 12.74,-2.04 26.29,-5.55 33.69,-17.04 h -10.36 c 6.94,10.35 15.29,21.47 27.94,24.88 9.68,2.61 21.12,0.09 30.66,-2.04 10.07,-2.24 20.13,-6.25 28.3,-12.64 4.11,-3.21 7.43,-7.11 10.38,-11.4 1.55,-2.25 3.35,-4.67 4.23,-7.29 0.89,-2.65 -0.16,-4.2 -0.41,-6.48 l -6,6 c 9.18,0.57 19.13,-2.32 27.61,-5.6 9.06,-3.5 17.28,-10.11 19.39,-20.07 4.67,-22.06 -18.86,-40.14 -38.66,-40.81 1.01,3.73 2.02,7.45 3.03,11.18 9.29,-6.61 7.01,-18.86 -1.37,-25.18 -7.43,-5.6 -19.92,-11 -27.73,-3.44 3.34,0.88 6.69,1.77 10.03,2.65 -3.72,-15.55 -17.33,-27.6 -33.22,-29.36 -18.19,-2.02 -33.75,9.96 -46.96,20.81 h 8.49 c -11.84,-10.54 -29.04,-13.95 -43.85,-7.91 -1.79,0.73 -3.51,1.54 -5.18,2.5 -2.32,1.34 -1.28,1.59 -3.48,0.11 -3.17,-2.12 -6.58,-3.55 -10.37,-4.12 -7.94,-1.2 -15.49,1.21 -21.49,6.45 -5.85,5.11 2.67,13.57 8.47,8.51 z"
         class="st1"
         id="path225" />
    </g>
  </g>
  <g
     id="dark_cloud"
     transform="translate(-126.37748,-98.034445)">
    <path
       d="m 337.97,235.7 c -3.91,18.85 -4.71,38.33 -2.36,57.44 -7.5,1.69 -15.35,1.81 -22.9,0.34 4.28,13.93 9.4,27.6 15.32,40.92 -9.11,0.62 -18.22,1.23 -27.34,1.85 6.05,23.02 12.11,46.04 18.16,69.06 0.25,-19.33 0.49,-38.65 0.74,-57.98 9.66,-1.41 19.56,-1.2 29.15,0.63 -3.58,-13.3 -7.15,-26.6 -10.73,-39.91 4.67,0.34 9.34,0.67 14.01,1.01 1.04,0.07 2.17,0.13 3.03,-0.46 1.27,-0.87 1.35,-2.67 1.33,-4.21 -0.34,-23.5 3.41,-47.05 11.01,-69.29 -7.19,-2.46 -15.42,5.27 -22.19,1.81 -1.57,-0.8 -2.82,-2.14 -4.41,-2.9 -1.59,-0.76 -3.83,-0.73 -4.75,0.78"
       class="st2"
       id="path230" />
    <path
       d="m 336.54,235.96 c -3.9,18.92 -4.71,38.39 -2.38,57.57 0.57,-0.3 1.15,-0.6 1.72,-0.91 -7.25,1.6 -14.69,1.69 -21.98,0.3 -0.39,-0.07 -2.85,0.25 -2.64,0.94 4.29,13.93 9.41,27.59 15.32,40.92 0.69,-0.32 1.39,-0.64 2.08,-0.96 -9.11,0.62 -18.22,1.23 -27.34,1.85 -0.32,0.02 -2.24,0.37 -2.08,0.96 l 14.16,53.85 c 1.33,5.07 2.67,10.14 4,15.21 0.16,0.61 2.89,-0.1 2.9,-0.78 0.25,-19.33 0.49,-38.65 0.74,-57.98 -0.57,0.3 -1.15,0.6 -1.72,0.91 9.38,-1.35 18.93,-1.08 28.23,0.67 0.4,0.08 2.83,-0.23 2.64,-0.94 -3.58,-13.3 -7.15,-26.6 -10.73,-39.91 -0.8,0.32 -1.59,0.64 -2.39,0.97 3.3,0.24 6.6,0.48 9.91,0.71 2.78,0.2 5.95,0.87 8.58,-0.38 2.22,-1.06 2.3,-3.26 2.28,-5.44 -0.03,-3.15 0,-6.31 0.11,-9.46 0.44,-12.88 2.11,-25.72 4.96,-38.3 1.6,-7.08 3.59,-14.06 5.93,-20.93 0.06,-0.19 -0.08,-0.24 -0.23,-0.29 -6.11,-1.96 -11.67,2.06 -17.6,2.64 -1.52,0.15 -3.05,-0.07 -4.41,-0.77 -1.57,-0.8 -2.8,-2.15 -4.41,-2.9 -2.33,-1.08 -5.99,-0.7 -7.54,1.53 -0.29,0.42 1.05,0.28 1.15,0.26 0.55,-0.09 1.36,-0.29 1.7,-0.78 0.34,-0.5 0.07,-0.35 0.54,-0.42 0.29,-0.04 0.74,0.13 1.01,0.22 0.65,0.22 1.24,0.62 1.8,1.01 1.18,0.82 2.27,1.78 3.62,2.34 2.2,0.91 4.63,0.83 6.94,0.42 4.81,-0.87 9.87,-4.03 14.82,-2.44 -0.08,-0.1 -0.16,-0.19 -0.23,-0.29 -3.78,11.09 -6.61,22.49 -8.47,34.07 -1.88,11.77 -2.6,23.61 -2.56,35.52 0,0.9 0.07,3.07 -0.94,3.57 -0.47,0.23 -1.5,-0.07 -2,-0.1 -0.89,-0.06 -1.77,-0.13 -2.66,-0.19 -3.46,-0.25 -6.93,-0.5 -10.39,-0.75 -0.37,-0.03 -2.56,0.33 -2.39,0.97 3.58,13.3 7.15,26.6 10.73,39.91 0.88,-0.31 1.76,-0.63 2.64,-0.94 -9.93,-1.87 -20.07,-2.03 -30.07,-0.6 -0.36,0.05 -1.72,0.35 -1.72,0.91 -0.25,19.33 -0.49,38.65 -0.74,57.98 0.97,-0.26 1.93,-0.52 2.9,-0.78 l -14.16,-53.85 c -1.33,-5.07 -2.67,-10.14 -4,-15.21 -0.69,0.32 -1.39,0.64 -2.08,0.96 9.11,-0.62 18.22,-1.23 27.34,-1.85 0.25,-0.02 2.31,-0.43 2.08,-0.96 -5.91,-13.32 -11.03,-26.99 -15.32,-40.92 -0.88,0.31 -1.76,0.63 -2.64,0.94 7.88,1.5 15.99,1.36 23.82,-0.37 0.29,-0.06 1.79,-0.36 1.72,-0.91 -2.33,-19.08 -1.55,-38.48 2.33,-57.31 0.1,-0.62 -2.73,-0.2 -2.88,0.51 z"
       class="st2"
       id="path232" />
    <g
       id="g238">
      <path
         d="m 254.88,209.42 c -1.07,5.59 0.7,11.65 4.6,15.79 4.34,4.6 10.81,6.61 17.11,7.13 9.17,0.76 18.56,-1.33 26.54,-5.9 1.7,9.17 6.49,18.18 14.54,22.88 8.05,4.7 19.58,3.85 25.46,-3.39 4.81,7.3 10.12,15.02 18.25,18.2 6.73,2.63 14.26,1.69 21.42,0.7 6.18,-0.85 12.59,-1.78 17.82,-5.19 5.23,-3.41 8.89,-10.07 6.83,-15.97 7.93,5.02 17.6,6.86 26.97,6.36 10.49,-0.56 21.12,-4.17 28.52,-11.63 7.4,-7.45 10.95,-19.1 7.25,-28.93 -3.7,-9.83 -15.43,-16.41 -25.34,-12.93 2.2,-5.1 1.33,-11.16 -1.37,-16.01 -2.7,-4.85 -7.04,-8.61 -11.73,-11.57 -9.78,-6.18 -21.66,-9.28 -33.11,-7.64 -11.45,1.64 -22.29,8.27 -28.14,18.24 -14.39,-14.61 -37.37,-20.04 -56.78,-13.43 -4.94,1.68 -9.94,4.37 -12.3,9.02 -2.36,4.65 -0.67,11.53 4.33,13.01 -15.77,-8.36 -35.28,-9.31 -51.8,-2.53 -4.47,1.83 -8.88,4.35 -11.53,8.39 -2.64,4.04 -2.98,9.9 0.32,13.43 3.24,3.46 8.58,3.64 13.32,3.5"
         class="st3"
         id="path234" />
      <path
         d="m 249.09,207.83 c -1.94,13.38 5.24,24.57 18.1,28.8 12.79,4.2 27.41,1.32 38.96,-5 -2.94,-1.2 -5.88,-2.39 -8.81,-3.59 2.31,11.35 8.74,22.72 19.68,27.65 10.09,4.55 22.81,2.99 30.34,-5.51 -3.14,-0.4 -6.28,-0.81 -9.42,-1.21 4.52,6.83 9.32,13.79 16.35,18.27 8.07,5.15 17.56,5.01 26.7,3.85 8.69,-1.11 18.05,-2.21 25.03,-8.04 6.17,-5.15 9.35,-13.09 7.2,-20.96 -2.94,2.26 -5.88,4.52 -8.81,6.78 21.12,12.72 54.95,9.13 68.29,-13.38 6.03,-10.17 7.04,-23.86 0.06,-33.83 -6.53,-9.31 -18.46,-14.27 -29.51,-10.89 l 7.38,7.38 c 7.85,-21.45 -15.99,-37.92 -34.02,-41.9 -19.66,-4.35 -40.52,2.84 -51.29,20.3 3.14,-0.4 6.28,-0.81 9.42,-1.21 -14.34,-14.13 -34.83,-20.36 -54.64,-16.99 -8.95,1.52 -19.34,5.28 -23.86,13.79 -4.44,8.37 -0.72,18.41 7.92,21.83 6.31,2.5 10.63,-7.89 4.62,-10.97 -18.77,-9.6 -42.16,-10.84 -61.16,-1.01 -8.09,4.19 -14.53,12.14 -12.98,21.7 1.73,10.7 12.04,13.46 21.43,13.27 7.71,-0.16 7.74,-12.16 0,-12 -4.45,0.09 -12.07,-0.15 -9.12,-6.75 2.44,-5.46 10.54,-7.79 15.73,-9.18 13.37,-3.58 27.74,-1.97 40.04,4.33 1.54,-3.66 3.08,-7.31 4.62,-10.97 -1.63,-0.65 -0.86,-3.83 -0.39,-4.81 1.21,-2.55 4.52,-4.16 7.01,-5.17 5.73,-2.3 12.02,-3.17 18.15,-3.03 12.78,0.29 25.04,5.48 34.13,14.44 2.8,2.76 7.39,2.08 9.42,-1.21 7.52,-12.19 22.25,-17.63 36.12,-15.11 11.92,2.16 32.86,12.13 27.25,27.47 -1.58,4.32 3.24,8.64 7.38,7.38 6.97,-2.13 14.58,1.64 17.69,8.22 3.49,7.38 0.77,16.64 -4.41,22.52 -11.73,13.33 -34.74,14.16 -49.25,5.43 -4.51,-2.72 -10.18,1.77 -8.81,6.78 3.35,12.27 -18.66,13.85 -26.1,14.41 -5.85,0.44 -11.64,0.04 -16.45,-3.66 -4.51,-3.46 -7.7,-8.43 -10.8,-13.11 -2,-3.03 -6.72,-4.26 -9.42,-1.21 -4.62,5.22 -12.22,5.84 -18.19,2.45 -6.96,-3.95 -10.26,-11.82 -11.78,-19.29 -0.8,-3.92 -5.63,-5.33 -8.81,-3.59 -7.57,4.15 -16.44,6.21 -25.07,4.91 -7.71,-1.17 -15.66,-6.24 -14.37,-15.15 1.12,-7.6 -10.44,-10.86 -11.55,-3.23 z"
         class="st3"
         id="path236" />
    </g>
  </g>
  <g
     id="gray_cloud"
     transform="translate(-126.37748,-98.034445)">
    <path
       d="m 240.4,224.9 c -0.38,14.9 1.7,29.85 6.15,44.07 -6.85,3.57 -13.7,7.13 -20.55,10.7 -0.39,0.2 -0.8,0.43 -1.01,0.82 -0.32,0.63 0.02,1.37 0.37,1.99 6.56,11.83 13.12,23.66 19.69,35.49 -6.18,2.21 -12,5.43 -17.17,9.48 9.33,18.9 18.67,37.79 28,56.69 -1.47,-15.03 -2.95,-30.07 -4.42,-45.1 -0.25,-2.55 -0.48,-5.24 0.52,-7.6 2.41,-5.67 9.99,-6.35 15.46,-9.19 0.85,-0.44 1.72,-1.01 2.07,-1.9 0.38,-0.95 0.09,-2.02 -0.2,-3 -3.19,-10.7 -6.39,-21.4 -9.58,-32.09 5.14,-0.33 10.28,-0.67 15.42,-1 1.58,-0.1 3.26,-0.24 4.5,-1.22 1.91,-1.5 2.03,-4.29 1.98,-6.72 l -1.38,-72.66 c -15.04,2.77 -29.31,9.66 -40.82,19.73"
       class="st4"
       id="path241" />
    <path
       d="m 238.94,225.04 c -0.36,15 1.71,29.99 6.16,44.32 0.28,-0.38 0.56,-0.75 0.84,-1.13 -4.08,2.12 -8.16,4.25 -12.24,6.37 -2.04,1.06 -4.08,2.12 -6.12,3.19 -1.33,0.69 -3.89,1.47 -4.16,3.23 -0.14,0.9 0.44,1.76 0.85,2.5 l 1.68,3.03 3.36,6.06 6.72,12.12 c 2.56,4.62 5.12,9.23 7.68,13.85 l 0.72,-1.35 c -6.3,2.28 -12.21,5.55 -17.49,9.67 -0.23,0.18 -0.69,0.59 -0.52,0.95 9.33,18.9 18.67,37.79 28,56.69 0.55,1.11 3.02,0.49 2.9,-0.78 -0.79,-8.1 -1.59,-16.19 -2.38,-24.29 -0.39,-3.96 -0.78,-7.93 -1.17,-11.89 -0.38,-3.87 -0.99,-7.8 -1.08,-11.69 -0.06,-3.03 0.78,-5.81 3.3,-7.64 2.11,-1.53 4.68,-2.34 7.1,-3.22 2.38,-0.86 5.56,-1.7 7.24,-3.73 1.08,-1.3 0.84,-2.83 0.41,-4.35 -0.55,-1.92 -1.14,-3.83 -1.72,-5.75 -2.62,-8.78 -5.24,-17.56 -7.87,-26.34 -0.54,0.44 -1.07,0.89 -1.61,1.33 3.48,-0.23 6.97,-0.45 10.45,-0.68 2.96,-0.19 6.47,0.06 9.24,-1.16 2.37,-1.05 3.51,-3.21 3.77,-5.7 0.31,-3.11 0,-6.34 -0.06,-9.45 -0.27,-14.02 -0.53,-28.03 -0.8,-42.05 l -0.45,-23.64 c -0.02,-0.89 -1.05,-0.85 -1.69,-0.73 -15.45,2.88 -29.94,9.95 -41.78,20.26 -0.51,0.44 -0.22,1.04 0.33,1.23 0.7,0.24 1.53,-0.09 2.05,-0.55 11.3,-9.83 25.16,-16.46 39.87,-19.2 -0.56,-0.24 -1.13,-0.49 -1.69,-0.73 0.25,13.27 0.5,26.54 0.76,39.81 0.12,6.47 0.25,12.94 0.37,19.41 0.06,3.32 0.13,6.64 0.19,9.95 0.05,2.56 0.51,5.64 -0.45,8.09 -0.57,1.45 -1.67,1.98 -3.15,2.16 -1.71,0.2 -3.45,0.24 -5.18,0.36 -3.81,0.25 -7.63,0.5 -11.44,0.75 -0.54,0.04 -1.84,0.54 -1.61,1.33 2.34,7.82 4.67,15.65 7.01,23.47 0.52,1.76 1.05,3.51 1.57,5.27 0.29,0.96 0.57,1.92 0.86,2.87 0.3,1 0.85,2.31 0.27,3.31 -0.6,1.01 -2.22,1.48 -3.26,1.91 -1.36,0.56 -2.75,1.04 -4.13,1.54 -5.02,1.83 -10.23,4.5 -10.77,10.45 -0.33,3.59 0.4,7.35 0.75,10.92 0.39,3.96 0.78,7.93 1.17,11.89 0.89,9.09 1.78,18.17 2.67,27.26 0.97,-0.26 1.93,-0.52 2.9,-0.78 -9.33,-18.9 -18.67,-37.79 -28,-56.69 -0.17,0.32 -0.34,0.63 -0.52,0.95 5.1,-3.98 10.76,-7.1 16.84,-9.3 0.56,-0.2 1.04,-0.77 0.72,-1.35 l -12.36,-22.29 -6.12,-11.04 c -0.48,-0.86 -1.16,-1.78 -1.46,-2.73 -0.23,-0.76 0.24,-0.93 0.83,-1.24 0.51,-0.27 1.02,-0.53 1.53,-0.8 1.82,-0.95 3.64,-1.9 5.47,-2.84 4.3,-2.24 8.6,-4.48 12.9,-6.71 0.37,-0.19 1,-0.61 0.84,-1.13 -4.41,-14.17 -6.5,-28.99 -6.14,-43.83 0.06,-1.38 -2.87,-0.87 -2.9,0.28 z"
       class="st4"
       id="path243" />
    <g
       id="g249">
      <path
         d="m 276.94,116.19 c -8.68,-10.48 -24.06,-14.83 -36.94,-10.45 -12.88,4.38 -22.42,17.2 -22.92,30.8 -6.57,-1.84 -14.25,-0.06 -18.69,5.12 -4.44,5.18 -4.81,13.69 -0.19,18.71 -7.41,2.41 -15.29,5.16 -19.98,11.38 -4.69,6.22 -3.97,17.03 3.25,19.97 -7.21,1.57 -14.36,3.44 -21.43,5.59 -3.92,1.19 -8.44,3.16 -9.16,7.2 -0.6,3.36 2.02,6.63 5.19,7.89 3.17,1.25 6.72,0.94 10.09,0.43 5.86,-0.89 11.64,-2.32 17.24,-4.26 2.61,5.25 8.01,9 13.84,9.62 5.83,0.62 11.9,-1.91 15.55,-6.5 6.25,8.72 10.56,20.19 20.61,23.93 9.55,3.56 21.5,-3.15 23.44,-13.16 4.78,3.76 11.46,4.97 17.25,3.1 5.79,-1.87 10.52,-6.74 12.2,-12.58 4.38,2.12 8.97,4.28 13.83,4.2 4.86,-0.09 10.05,-3.19 10.77,-8 13.84,3.33 28.71,2.29 41.95,-2.93 4.92,-1.94 9.85,-4.65 12.64,-9.14 2.79,-4.5 2.66,-11.16 -1.52,-14.41 -2.34,-1.83 -5.46,-2.29 -8.42,-2.44 -6.63,-0.33 -13.32,0.65 -19.58,2.86 -0.33,-4.73 -0.74,-9.54 -2.53,-13.94 -1.79,-4.39 -5.18,-8.37 -9.73,-9.72 -12.33,-3.66 -22.68,12.72 -35.53,12.14 4.62,-5.39 9.29,-11.98 7.96,-18.96 -1.08,-5.66 -6.15,-10 -11.74,-11.38 -5.59,-1.38 -11.55,-0.19 -16.85,2.08 7.13,-5.89 10.84,-15.65 9.44,-24.79 1.98,3.63 1.5,8.2 -0.24,11.95 -1.74,3.75 -4.6,6.84 -7.41,9.88 9.05,-4.26 12,-17.73 5.56,-25.37 4.01,8.85 2.29,19.99 -4.18,27.23"
         class="st5"
         id="path245" />
      <path
         d="m 281.18,111.95 c -10.59,-12.19 -28.85,-17.35 -44.1,-11.51 -15.06,5.76 -25.06,20.13 -26.01,36.1 2.53,-1.93 5.06,-3.86 7.6,-5.79 -9.44,-2.25 -19.93,0.2 -25.83,8.35 -5.7,7.87 -4.9,18.16 1.12,25.51 0.88,-3.34 1.77,-6.69 2.65,-10.03 -9.93,3.26 -21.25,7.53 -25.61,17.92 -3.61,8.59 -1.54,20.06 7.44,24.39 0.48,-3.66 0.96,-7.31 1.43,-10.97 -7.94,1.76 -16.2,3.51 -23.81,6.41 -6.25,2.38 -11.85,7.05 -11.14,14.39 1.87,19.11 29.05,11.33 40.08,7.61 l -6.78,-2.76 c 8.01,14.45 27.83,16.91 38.81,4.34 -3.14,-0.4 -6.28,-0.81 -9.42,-1.21 7.23,10.33 12.91,24.44 26.63,27.37 12.41,2.65 25.47,-5.77 28.39,-18.03 -2.94,1.2 -5.88,2.39 -8.81,3.59 14.08,10.13 32.96,2.91 38.27,-13.06 -2.94,1.2 -5.88,2.39 -8.81,3.59 6.5,3.12 13.75,6.34 21.11,4.46 5.96,-1.52 10.85,-5.79 12.31,-11.85 -2.46,1.4 -4.92,2.79 -7.38,4.19 11.26,2.55 22.76,2.77 34.08,0.38 9.51,-2.01 20.6,-5.75 26.49,-14.03 5.11,-7.2 4.85,-18.46 -2.86,-23.8 -8.84,-6.13 -23.21,-3.32 -32.63,-0.18 2.53,1.93 5.06,3.86 7.6,5.79 -0.98,-13.38 -6.03,-30.92 -22.8,-30.17 -5.88,0.26 -11.17,3.22 -16.06,6.24 -4.59,2.83 -9.31,6.44 -14.93,6.41 1.41,3.41 2.83,6.83 4.24,10.24 7.54,-8.96 14.26,-21.09 6.14,-32 -7.72,-10.38 -21.5,-10.77 -32.62,-6.3 1.95,3.34 3.89,6.69 5.84,10.03 8.2,-7.19 12.54,-18.18 11.2,-29.03 -3.73,1.01 -7.45,2.02 -11.18,3.03 2.4,5.32 -3.51,11.08 -6.71,14.55 -4.65,5.04 1.18,12.62 7.27,9.42 11.72,-6.15 15.92,-22.93 7.71,-33.58 -1.85,-2.4 -4.5,-3.72 -7.49,-2.45 -2.47,1.04 -4.62,4.31 -3.47,7.08 2.98,7.18 2.5,15.27 -2.64,21.39 -4.94,5.88 3.51,14.41 8.49,8.49 7.72,-9.19 10.42,-21.78 5.73,-33.07 -3.66,1.54 -7.31,3.08 -10.97,4.62 4.34,5.63 3.07,13.77 -3.41,17.17 2.42,3.14 4.85,6.28 7.27,9.42 7.64,-8.27 13.69,-17.78 8.59,-29.09 -2.38,-5.28 -11.9,-2.8 -11.18,3.03 0.99,8.05 -1.56,15.18 -7.69,20.55 -4.33,3.8 0.25,12.27 5.84,10.03 5.98,-2.4 14.01,-4.39 19.08,0.98 5.2,5.52 -0.49,12.75 -4.28,17.26 -3.24,3.85 -1.27,10.22 4.24,10.24 9.84,0.05 17.05,-6.19 25.28,-10.58 3.47,-1.84 7.4,-3.21 10.87,-0.58 4.87,3.68 5.23,11.18 5.63,16.68 0.27,3.66 3.65,7.1 7.6,5.79 5.84,-1.95 15.47,-4.76 21.49,-2.05 6.27,2.82 -0.63,9.85 -3.97,11.75 -12.52,7.12 -28.84,7.91 -42.6,4.79 -3.08,-0.7 -6.6,0.92 -7.38,4.19 -1.68,7 -11.96,2.05 -15.79,0.22 -3.6,-1.73 -7.52,-0.3 -8.81,3.59 -3.05,9.19 -13.21,11.25 -20.64,5.89 -3.12,-2.24 -7.98,0.07 -8.81,3.59 -1.75,7.34 -10.14,12.04 -17.12,8.43 -7.6,-3.94 -11.29,-13.95 -15.96,-20.63 -2.06,-2.94 -6.69,-4.34 -9.42,-1.21 -5.92,6.77 -15.54,6.08 -19.97,-1.91 -1.22,-2.21 -4.32,-3.58 -6.78,-2.76 -4.5,1.52 -9.07,2.78 -13.74,3.66 -1.55,0.29 -12,2.09 -10.98,-1.25 0.65,-2.13 9.04,-3.43 10.74,-3.9 5.04,-1.41 10.12,-2.65 15.22,-3.78 4.85,-1.07 6.06,-8.73 1.43,-10.97 -4.32,-2.08 -3.88,-7.73 -1.44,-11.23 3.66,-5.23 11,-7.27 16.73,-9.15 4.56,-1.5 5.54,-6.5 2.65,-10.03 -2.52,-3.07 -1.81,-7.93 0.69,-10.75 3.06,-3.46 8.1,-4.06 12.36,-3.05 3.96,0.94 7.36,-1.82 7.6,-5.79 0.65,-10.94 8.07,-21.34 18.52,-25.01 11.19,-3.93 23.49,0.15 31.1,8.91 5.06,5.81 13.52,-2.71 8.47,-8.52 z"
         class="st5"
         id="path247" />
    </g>
  </g>
</svg>
