<?xml version="1.0" encoding="utf-8"?>
<!-- Generator: Adobe Illustrator 19.0.0, SVG Export Plug-In . SVG Version: 6.00 Build 0)  -->
<svg version="1.1" id="Layer_1" xmlns="http://www.w3.org/2000/svg" xmlns:xlink="http://www.w3.org/1999/xlink" x="0px" y="0px"
	 viewBox="0 0 360 360" style="enable-background:new 0 0 360 360;" xml:space="preserve">
<style type="text/css">
	.st0{fill:#DFF2F6;}
	.st1{fill:#EDF8FA;}
	.st2{fill:#F3FAFC;}
	.st3{fill:#FFFFFF;}
	.st4{fill:#C3D6C2;stroke:#C3D6C2;stroke-width:0.25;stroke-miterlimit:10;}
	.st5{fill:#CAC8C7;}
</style>
<ellipse id="XMLID_583_" class="st0" cx="179.7" cy="155.4" rx="59.4" ry="62.9"/>
<path id="XMLID_580_" class="st0" d="M218.9,198.4l-4.9,10.9c-0.4,0.8-0.5,1.7-0.5,2.6v20.3c0,1.5-0.5,3-1.5,4l-5.7,6.2
	c-0.8,0.9-1.8,1.3-2.9,1.3h-23.2h-1H156c-1.1,0-2.1-0.5-2.9-1.3l-5.7-6.2c-0.9-1-1.5-2.5-1.5-4v-20.3c0-0.9-0.2-1.8-0.5-2.6
	l-4.9-10.9H218.9z"/>
<g id="XMLID_579_">
	<path id="XMLID_109_" class="st1" d="M153.7,116.4c-6.4,5.5-11.1,12.9-13.5,20.9"/>
	<g id="XMLID_104_">
		<path id="XMLID_108_" class="st2" d="M152,114.6c-6.7,6-11.5,13.5-14.2,22c-1,3.1,3.9,4.4,4.8,1.3c2.4-7.8,6.8-14.4,12.9-19.8
			C157.9,116,154.4,112.5,152,114.6L152,114.6z"/>
	</g>
</g>
<g id="XMLID_578_">
	<path id="XMLID_102_" class="st1" d="M136.9,153.9"/>
	<g id="XMLID_93_">
		<path id="XMLID_101_" class="st2" d="M136.9,156.4c3.2,0,3.2-5,0-5C133.7,151.4,133.7,156.4,136.9,156.4L136.9,156.4z"/>
	</g>
</g>
<g id="XMLID_535_">
	<g id="XMLID_20_">
		<path id="XMLID_24_" class="st3" d="M138.2,223.1c0.8,0,0.8-1.3,0-1.3C137.4,221.8,137.4,223.1,138.2,223.1L138.2,223.1z"/>
	</g>
</g>
<g id="XMLID_531_">
	<g id="XMLID_14_">
		<path id="XMLID_18_" class="st3" d="M140.4,227.5c0.8,0,0.8-1.3,0-1.3C139.6,226.2,139.6,227.5,140.4,227.5L140.4,227.5z"/>
	</g>
</g>
<g id="XMLID_722_">
	<g id="XMLID_94_">
		<path id="XMLID_97_" class="st4" d="M180.4,253.1c-0.3-21.3,0.1-42.7,0.6-64c0.2-9,0.4-18,0.6-27c0-0.2-0.2-0.4-0.4-0.3
			c-0.2,0.1-0.2,0.4,0,0.5l-1.1,2.2c0.7,19-1.9,38.1-1.5,57.1c0.1,2.6,0.2,5.2,0.2,7.7c0,7.4-0.8,14.8-1.6,22.2"/>
		<g id="XMLID_95_">
			<path id="XMLID_96_" class="st4" d="M180.6,253.1c-0.4-25.2,0.3-50.3,0.8-75.4c0.1-3.5,0.2-6.9,0.2-10.4c0-0.9,0-1.8,0.1-2.8
				c0-0.6,0.3-1.9,0.1-2.4c-0.2-0.4-0.2-0.5-0.6-0.5c-0.1,0-0.1,0-0.2,0.1c-0.2,0.4,0,0.5-0.1,0.7c-0.2,0.7-0.7,1.2-0.9,1.8
				s-0.1,1.4-0.1,2.1c0.1,1.7,0.1,3.5,0.1,5.2c0,6.4-0.3,12.8-0.6,19.1c-0.3,6.5-0.7,13-0.9,19.5c-0.2,6.5,0.1,13,0.1,19.6
				c0,7.3-0.8,14.6-1.6,21.8c0,0.3,0.3,0.3,0.4,0c0.7-6.1,1.4-12.2,1.6-18.3c0.2-6-0.2-12.1-0.2-18.1c0.1-12.2,1.2-24.4,1.5-36.6
				c0.1-3.5,0.2-7,0.1-10.5c0-1.2-0.3-2.7,0.1-3.8c0.2-0.6,0.6-1.2,0.9-1.8c0-0.1,0-0.1,0-0.2c0.2,0.4,0,1.5,0,2
				c0,0.7,0,1.4-0.1,2.1c0,1.5-0.1,3-0.1,4.5c-0.1,2.9-0.1,5.8-0.2,8.7c-0.1,5.8-0.3,11.7-0.4,17.5c-0.3,12-0.5,23.9-0.5,35.9
				c0,6.8,0,13.5,0.1,20.2C180.2,253.4,180.6,253.4,180.6,253.1L180.6,253.1z"/>
		</g>
	</g>
</g>
<g id="XMLID_718_">
	<g id="XMLID_89_">
		<path id="XMLID_92_" class="st4" d="M180.8,161.8c0.7-0.5,0.3-1.5,0.4-2.3c0.2-0.9,1.2-1.6,2.1-1.7c1-0.1,1.9,0.3,2.7,0.8
			c3.7,1.9,6.7,4.9,9.1,8.3c2.4,3.3,4.3,7,6.1,10.7c1,2,2.1,4.2,1.9,6.5c-0.1,1-0.5,2-0.9,3c-1.3,2.9-3.2,5.5-5.5,7.6l0.6-0.5
			c2.1-5.9,2.2-12.5,0.4-18.4s-5.7-11.3-10.7-15c-1.5-1.1-3.5-2-4.9-0.9c-0.8,0.6-1.2,1.9-0.7,2.8"/>
		<g id="XMLID_90_">
			<path id="XMLID_91_" class="st4" d="M180.9,161.9c0.3-0.4,0.4-0.6,0.5-1.2c0.2-1.9,1-3.1,3-2.6c2,0.5,4,2.1,5.6,3.4
				c3.2,2.7,5.6,6.1,7.7,9.7c1,1.8,2,3.6,2.9,5.5c1.1,2.1,2.4,4.4,2.4,6.9c-0.1,2.2-1.2,4.2-2.3,6c-1.1,1.8-2.5,3.5-4.1,4.9
				c-0.2,0.2,0.1,0.4,0.3,0.3c1.3-1.1,1.5-3.1,1.8-4.8c0.5-2.3,0.6-4.6,0.5-7c-0.2-4.5-1.5-9-3.7-13c-2.1-3.7-4.9-7.1-8.4-9.6
				c-1.3-0.9-3.1-1.9-4.7-1.2c-1.2,0.6-1.6,2-1.2,3.2c0.1,0.2,0.5,0.1,0.4-0.1c-0.6-1.8,0.8-3.2,2.5-2.9c1,0.1,1.9,0.6,2.6,1.2
				c1.5,1,2.9,2.3,4.1,3.6c2.5,2.6,4.5,5.8,5.9,9.2c1.4,3.5,2.1,7.2,2.1,10.9c0,2-0.2,4.1-0.6,6.1c-0.3,1.4-0.5,3.1-1.6,4.1
				c0.1,0.1,0.2,0.2,0.3,0.3c1.7-1.6,3.2-3.4,4.4-5.4c1-1.7,2.1-3.8,2.1-5.8c0.1-2.3-1.1-4.5-2.2-6.6c-1.2-2.4-2.5-4.9-3.9-7.2
				c-2.4-3.9-5.3-7.7-9.2-10.3c-1.4-0.9-3.4-2.3-5.2-1.9c-0.6,0.1-1.2,0.5-1.5,0.9c-0.6,0.9,0,2.2-0.7,3
				C180.5,161.8,180.7,162.1,180.9,161.9L180.9,161.9z"/>
		</g>
	</g>
</g>
<g id="XMLID_713_">
	<g id="XMLID_84_">
		<path id="XMLID_87_" class="st4" d="M180.1,163.3c-0.2-0.3-0.5-0.5-0.8-0.7l0,0.1c-0.7,1.5-2.6,1.9-4.2,2.4
			c-2.2,0.8-4.2,2.2-5.9,3.8c-4.8,4.2-8.8,9.3-12.7,14.3c-1.2,1.5-2.5,3.1-3.2,4.9c-0.8,2-0.8,4.2-0.3,6.3l-0.2,0
			c-0.8-2.2-1.5-4.4-1.8-6.7c-0.5-3.9,0.6-8,2.9-11.3c3.7-5.1,9.9-7.6,14.9-11.5c1.7-1.3,3.3-2.9,5.4-3.8c2-0.8,4.6-0.8,6.1,0.8
			c-0.4-0.3-0.7-0.6-1.1-0.9"/>
		<g id="XMLID_85_">
			<path id="XMLID_86_" class="st4" d="M180.2,163.2c-0.3-0.3-0.5-0.5-0.8-0.8c-0.1-0.1-0.2,0-0.3,0.1c-0.7,1.4-2.3,1.8-3.7,2.2
				c-1.3,0.4-2.5,1-3.6,1.8c-2.5,1.7-4.7,3.9-6.8,6c-2.3,2.4-4.4,4.9-6.4,7.5c-1.9,2.4-4.1,4.7-5.4,7.5c-0.5,1.1-0.8,2.3-0.8,3.5
				c0,0.6,0,1.3,0.1,1.9c0,0.3,0.1,0.8,0.2,1.1c0.4,0.8,0-0.5,0-0.6c-1.1-3.1-1.9-6.3-1.4-9.6c0.9-6.7,5.8-10.8,11.1-14.3
				c2.6-1.6,5.2-3.2,7.5-5.2c2.7-2.2,7-5.3,10.2-2.2c0.1-0.1,0.2-0.2,0.3-0.3c-0.4-0.3-0.7-0.6-1.1-0.9c-0.2-0.2-0.5,0.1-0.3,0.3
				c0.4,0.3,0.7,0.6,1.1,0.9c0.2,0.2,0.5-0.1,0.3-0.3c-3.2-3-7.4-0.5-10.2,1.7c-3.9,3.1-8.2,5.4-12.1,8.4c-3.5,2.7-6.2,6.3-7.1,10.7
				c-0.4,2.2-0.4,4.4,0.1,6.6c0.3,1.4,0.7,2.8,1.2,4.1c0.2,0.4,0.2,1.1,0.6,1.2c0.2,0,0.3-0.1,0.2-0.2c-1.2-4.8,1.2-8.3,4-11.9
				c2.3-2.9,4.7-5.9,7.2-8.6c2.5-2.7,5.2-5.6,8.5-7.5c1.4-0.8,2.9-1.2,4.3-1.8c0.6-0.2,1.2-0.5,1.6-1c0.2-0.1,0.3-0.4,0.4-0.5
				c0.1-0.1,0.1-0.2,0.2-0.3c0.2,0.2,0.4,0.5,0.5,0.7C180.1,163.6,180.3,163.4,180.2,163.2L180.2,163.2z"/>
		</g>
	</g>
</g>
<g id="XMLID_709_">
	<g id="XMLID_79_">
		<path id="XMLID_82_" class="st4" d="M181.1,166c-0.1,0-0.1,0.2,0,0.2c0.1,0,0.1-0.2,0.1-0.2s-0.1-0.2,0-0.3c0.5-1.1,1-2.2,1.5-3.4
			c0.1-0.3,0.2-0.5,0.5-0.7c0.4-0.3,1-0.1,1.4,0.2c0.4,0.4,0.5,0.8,0.8,1.3c1.1,2.1,3.2,3.4,4.6,5.2c1.2,1.5,2,3.2,2.8,5
			c0.9,2,1.9,4.1,2.1,6.4c0.1,1.2,0,2.4-0.2,3.5c-0.8,4.8-3.1,9.4-3.3,14.3c0.5-1.2,0.2-2.5,0-3.7c-0.3-1.4-0.7-2.7-1.1-4.1
			c-0.5-1.9-1-3.7-2.1-5.3c-0.7-1-1.5-1.9-2.2-2.9c-0.6-1.1-0.9-2.2-1.1-3.4c-0.8-4.9,0-10-1.5-14.7c-0.9,1.3-1.5,2.9-1.7,4.5"/>
		<g id="XMLID_80_">
			<path id="XMLID_81_" class="st4" d="M181,165.9C181,165.9,181,165.9,181,165.9c-0.1,0.2-0.1,0.2-0.1,0.3c0,0,0.1,0.1,0.1,0.1
				c0.1,0.1,0.2,0.1,0.3,0c0.2-0.2,0.2-0.4,0.2-0.7c0.2-0.8,0.7-1.7,1-2.5c0.1-0.2,0.2-0.5,0.3-0.7c0.7,0.1,1.4,0.2,2.1,0.4
				c0.2,0.2,0.5,1,0.7,1.2c0.4,0.5,0.8,1,1.2,1.4c1.3,1.3,2.7,2.4,3.7,4c1,1.5,1.8,3.3,2.5,4.9c0.9,2,1.6,4.1,1.6,6.2
				c0,2-0.5,4-1,5.9c-1,3.6-2.3,7.1-2.5,10.9c0,0.2,0.3,0.2,0.4,0.1c0.8-2.5-0.4-5.4-1.1-7.9c-0.4-1.3-0.7-2.5-1.2-3.8
				c-0.6-1.4-1.6-2.4-2.5-3.7c-2-2.8-1.9-6.6-2.1-9.9c-0.1-3-0.2-6-1.1-9c-0.1-0.2-0.2-0.2-0.3,0c-0.9,1.4-1.5,2.9-1.8,4.5
				c0,0.2,0.3,0.3,0.4,0.1c0.2-1.6,0.8-3.1,1.7-4.4c-0.1,0-0.2,0-0.3,0c0.9,3,1,6.1,1.1,9.1c0.1,2.6,0.1,5.6,1.1,8
				c0.4,1.1,1.2,1.9,1.9,2.9c1.1,1.4,1.8,2.8,2.3,4.5c0.4,1.3,0.8,2.7,1.1,4.1c0.5,1.7,1,3.6,0.5,5.3c0.1,0,0.2,0,0.4,0.1
				c0.3-4.8,2.4-9.2,3.2-14c0.8-4.3-0.7-7.9-2.5-11.8c-0.9-1.8-1.9-3.4-3.3-4.8c-0.7-0.7-1.5-1.4-2.2-2.1c-0.8-0.8-1.2-1.8-1.8-2.7
				c-0.6-0.8-1.5-1.2-2.2-0.4c-0.5,0.6-0.8,1.6-1.1,2.4c-0.2,0.4-0.6,1-0.6,1.4c0,0,0,0.8,0.2,0.6C181.4,166,181.2,165.7,181,165.9
				L181,165.9z"/>
		</g>
	</g>
</g>
<g id="XMLID_705_">
	<g id="XMLID_74_">
		<path id="XMLID_77_" class="st4" d="M180,171.2c-0.5-0.2-0.9-0.4-1.3-0.6c-0.2-0.1-0.3-0.1-0.4-0.1c-0.1,0-0.2,0.2-0.2,0.2
			c-1.6,2.7-3.2,5.6-3.2,8.7c0,2.2,0.8,4.3,0.8,6.4c-0.1,2.4-1.2,4.5-2.3,6.6c-0.9,1.7-1.9,3.3-3.3,4.5l0-0.2
			c-0.6-1.2-1.2-2.5-1.8-3.8c-0.4-0.9-0.8-1.8-1-2.8c-0.6-3,0.6-6.2,2.3-8.8c1.5-2.2,3.5-4.2,4.6-6.6c0.9-1.9,1.4-4.1,2.9-5.6
			c0.1-0.1,0.2-0.2,0.4-0.2c0.2,0,0.3,0,0.4,0.1c0.9,0.3,1.8,0.8,2.5,1.5c-0.2-0.1-0.3-0.2-0.4-0.4"/>
		<g id="XMLID_75_">
			<path id="XMLID_76_" class="st4" d="M180,171c-0.4-0.2-1.4-0.9-1.9-0.7c-0.6,0.2-1.1,1.6-1.4,2.2c-1.2,2.2-2.3,4.6-2.2,7.2
				c0.1,3.1,1.2,5.9,0.2,9c-1,2.9-2.7,6.2-5,8.2c0.1,0,0.2,0.1,0.3,0.1c0.1-0.7-0.6-1.6-0.9-2.2c-0.6-1.3-1.3-2.7-1.7-4.2
				c-0.8-3.3,0.5-6.6,2.3-9.3c1.5-2.2,3.4-4.2,4.6-6.6c0.5-1.1,0.9-2.3,1.5-3.4c0.4-0.7,0.8-1.6,1.5-1.9c0.6-0.2,0.9-0.1,1.5,0.2
				c0.5,0.3,0.9,0.6,1.3,1c0.1-0.1,0.2-0.2,0.2-0.3c-0.1-0.1-0.2-0.2-0.4-0.4c-0.2-0.2-0.4,0.1-0.3,0.3c0.2,0.3,0.2,0.2,0.4,0.4
				c0.2,0.1,0.4-0.2,0.2-0.3c-0.7-0.6-2.1-1.8-3-1.6c-0.9,0.2-1.6,1.7-1.9,2.3c-0.7,1.4-1.1,2.9-1.9,4.2c-0.9,1.5-2,2.9-3.1,4.3
				c-1.9,2.5-3.6,5.3-3.7,8.5c-0.1,1.6,0.4,3,0.9,4.5c0.3,0.7,0.6,1.4,1,2.2c0.2,0.5,1.1,1.7,1,2.2c0,0.2,0.2,0.2,0.3,0.1
				c1.7-1.5,2.9-3.5,3.9-5.6c1.1-2.1,1.9-4.2,1.8-6.6c-0.2-2.7-1.1-5.2-0.5-7.9c0.3-1.3,0.9-2.6,1.5-3.8c0.3-0.5,0.5-1.2,0.9-1.6
				c0.8-0.9,1.3-0.8,2.3-0.4C180.1,171.4,180.3,171.1,180,171L180,171z"/>
		</g>
	</g>
</g>
<g id="XMLID_700_">
	<g id="XMLID_69_">
		<path id="XMLID_72_" class="st4" d="M179.7,213"/>
		<g id="XMLID_70_">
			<path id="XMLID_71_" class="st4" d="M179.7,213.2c0.2,0,0.2-0.4,0-0.4S179.5,213.2,179.7,213.2L179.7,213.2z"/>
		</g>
	</g>
</g>
<g id="XMLID_586_">
	<g id="XMLID_64_">
		<path id="XMLID_67_" class="st4" d="M179.8,212.6c0.1-0.3,0.7-0.3,0.7,0.1c0.2-0.5,0.6-0.9,1.1-1.1c0.4,0.7,0.8,1.5,1,2.4
			c0.4,1.4,0.5,2.9,1,4.3c1.2,3.3,4.8,5.2,6.6,8.2c1.7,2.8,1.5,6.6-0.3,9.3l0.2-0.2c1.6-0.5,2.8-1.9,3.5-3.5c1.2-2.4,1.5-5.2,1-7.8
			c-0.5-2.6-2-5-4.1-6.6c-1-0.7-2.1-1.3-3.1-2c-1.7-1.1-3.2-2.6-4.3-4.2c-0.3-0.5-0.7-1-1.2-1.1s-1.2,0.4-1,0.9"/>
		<g id="XMLID_65_">
			<path id="XMLID_66_" class="st4" d="M179.9,212.8c0.2,0,0.3,0,0.4,0.1c0.1,0.1,0.3,0.1,0.3,0c1-2.1,1.8,1.4,1.9,2.3
				c0.2,1.2,0.4,2.5,0.9,3.6c0.7,1.6,1.9,2.9,3.1,4.1c1.6,1.6,3.4,3.2,4.1,5.5c0.8,2.5,0.4,5.2-1,7.5c-0.1,0.2,0.2,0.4,0.3,0.2
				c0.5-0.4,1.2-0.5,1.7-0.9c0.5-0.4,0.9-0.8,1.2-1.3c0.9-1.2,1.5-2.8,1.9-4.3c0.7-3.2,0.1-6.7-1.8-9.4c-2.1-3-5.6-4.1-8.1-6.7
				c-0.7-0.7-1.2-1.5-1.9-2.3c-0.3-0.3-0.6-0.7-1-0.8c-0.7-0.2-1.3,0.3-1.3,1.1c0,0.2,0.4,0.2,0.4,0c0.9-0.6,1.5-0.5,1.9,0.3
				c0.2,0.3,0.4,0.5,0.6,0.8c0.3,0.4,0.7,0.8,1,1.2c0.8,0.8,1.8,1.6,2.7,2.3c2.4,1.6,4.6,2.9,6,5.5c1.4,2.7,1.7,5.8,0.8,8.7
				c-0.4,1.4-1.1,2.9-2.1,4c-0.7,0.7-1.6,0.9-2.3,1.5c0.1,0.1,0.2,0.2,0.3,0.2c2.4-3.7,1.7-8.2-1.2-11.4c-1.5-1.7-3.5-3.2-4.6-5.2
				c-1.4-2.4-1.1-5.3-2.5-7.8c-0.1-0.1-0.2-0.1-0.3-0.1c-0.3,0.2-1,0.9-1,0.9c-0.3,0.1-0.5-0.3-0.8,0.2
				C179.5,212.7,179.7,213,179.9,212.8L179.9,212.8z"/>
		</g>
	</g>
</g>
<g id="XMLID_548_">
	<g id="XMLID_59_">
		<path id="XMLID_62_" class="st4" d="M178.3,210.9c0.3,0,0.2-0.5,0-0.7c-0.2-0.2-0.6-0.2-0.8-0.4c-0.4,2.5-1.3,4.9-2.5,7.2
			c-0.5,0.9-1,1.8-1.2,2.8c-0.2,1.2,0.2,2.3,0.4,3.4c0.3,2.3-0.5,4.7-1.8,6.7c-1.3,2-3.2,3.5-5.2,4.7l-0.1-0.5
			c-1.9-4.5-1.5-9.9,1.3-14c2.4-3.5,6.3-6.1,7.6-10.2c0.2-0.5,0.3-1.2,0.8-1.5c0.5-0.4,1.3-0.3,1.4,0.3l-0.1-0.3
			c0.3,0.4,0.6,0.7,0.9,1.1c-0.2-0.1-0.4-0.3-0.5-0.5"/>
		<g id="XMLID_60_">
			<path id="XMLID_61_" class="st4" d="M178.4,211c0.8-0.7-0.4-1.1-0.9-1.4c-0.1-0.1-0.2,0-0.3,0.1c-0.5,2.7-1.4,5.2-2.7,7.6
				c-0.4,0.8-0.8,1.5-1,2.5c-0.2,1.3,0.3,2.6,0.4,3.9c0.2,2.9-1.2,5.6-3.1,7.6c-0.9,1-2,1.7-3.1,2.6c-0.3,0.1-0.5,0.3-0.6,0.5
				c0-0.1-0.1-0.2-0.1-0.3c-0.2-0.2-0.4-1.1-0.5-1.4c-1.5-4.8-0.4-10,2.8-13.9c1.4-1.7,2.9-3.2,4.3-4.8c0.5-0.7,1-1.3,1.4-2.1
				c0.2-0.3,0.4-0.7,0.5-1.1c0.1-0.3,0.2-0.6,0.3-0.8c0.2-0.8,0.8-1.2,1.9-1.2c0.1,0.2,0.4,0.1,0.3-0.2c0-0.1,0-0.2-0.1-0.3
				c-0.1,0.1-0.2,0.1-0.3,0.2c0.3,0.4,0.6,0.7,0.9,1.1c0.1-0.1,0.2-0.2,0.2-0.3c-0.2-0.2-0.3-0.3-0.5-0.5c-0.2-0.2-0.5,0-0.3,0.2
				c0.3,0.4,0.2,0.3,0.6,0.6c0.2,0.1,0.4-0.2,0.2-0.3c-0.3-0.4-0.6-0.7-0.9-1.1c-0.2-0.2-0.3,0-0.3,0.2c0,0.1,0,0.2,0.1,0.3
				c0.1-0.1,0.2-0.1,0.3-0.2c-0.2-0.5-0.8-0.8-1.4-0.5c-1.1,0.4-1.2,2.2-1.6,3c-1.4,3-4.1,5.1-6.1,7.6c-1.8,2.2-2.9,4.8-3.3,7.6
				c-0.2,1.4-0.2,2.9,0,4.3c0.2,1.5,0.8,2.7,1.2,4.1c0,0.1,0.2,0.2,0.3,0.1c3.6-2.3,7-5.7,7.2-10.3c0-1.4-0.5-2.7-0.5-4.1
				c0-1.6,1-2.9,1.7-4.2c0.5-1,0.9-2,1.2-3.1c0.2-0.7,0.4-1.4,0.6-2.1c0.5-2,0,0.5,0.7-0.1C178,210.9,178.3,211.2,178.4,211
				L178.4,211z"/>
		</g>
	</g>
</g>
<g id="XMLID_544_">
	<g id="XMLID_54_">
		<path id="XMLID_57_" class="st4" d="M177.9,193.1c0.2-0.3,0.7-0.3,1-0.1"/>
		<g id="XMLID_55_">
			<path id="XMLID_56_" class="st4" d="M178.1,193.2c0.2-0.2,0.5-0.2,0.8-0.1c0.2,0.2,0.4-0.2,0.2-0.3c-0.4-0.3-0.9-0.2-1.2,0.1
				C177.6,193.1,177.9,193.4,178.1,193.2L178.1,193.2z"/>
		</g>
	</g>
</g>
<g id="XMLID_540_">
	<g id="XMLID_49_">
		<path id="XMLID_52_" class="st4" d="M178.1,193.7c0.2,0.1,0.4,0.3,0.6,0.4c-0.5-0.5-1.2,0.1-1.6,0.7c-0.9,1.5-1.7,3.1-2.2,4.8
			c-1.1,3.2-1.5,6.8-3.1,9.8c-1,1.8-2.4,3.3-3.7,4.9c-2.9,3.5-5.4,7.4-7.8,11.2l0.1-1c2.8-5.1,1.1-11.6,3.3-16.9
			c1.8-4.4,5.9-7.4,9.5-10.6c1.6-1.4,3.1-2.9,4.6-4.5c0.2,0.1,0.5,0.2,0.8,0.4c-0.2-0.1-0.4-0.3-0.5-0.4"/>
		<g id="XMLID_50_">
			<path id="XMLID_51_" class="st4" d="M178,193.8c0.2,0.1,0.4,0.3,0.6,0.4c0.1-0.1,0.1-0.2,0.2-0.3c-3.1-1.7-5.8,12.2-6.6,14
				c-1.3,3.2-3.9,5.6-6,8.3c-2.2,2.9-4.2,6.1-6.2,9.2c0.1,0,0.2,0.1,0.4,0.1c0.2-1.1,0.7-2,1.1-3.1c0.5-1.5,0.7-3,0.8-4.5
				c0.3-3.5,0.2-7.3,1.7-10.6c1.4-3.1,3.9-5.4,6.4-7.6c1.3-1.1,2.6-2.2,3.9-3.4c0.7-0.6,1.3-1.2,1.9-1.9c0.6-0.6,1.3-1.8,2.2-1.4
				c0.2,0.1,0.4-0.2,0.2-0.3c-0.2-0.1-0.4-0.3-0.5-0.4c-0.2-0.2-0.4,0.2-0.2,0.3c0.2,0.1,0.4,0.3,0.5,0.4c0.1-0.1,0.1-0.2,0.2-0.3
				c-0.2-0.1-0.5-0.2-0.8-0.4c-0.1,0-0.2,0-0.2,0c-2.5,2.7-5.3,5.1-8,7.5c-2.5,2.2-4.8,4.5-6.1,7.6c-1.2,2.9-1.2,6.1-1.5,9.2
				c-0.2,1.9-0.3,3.8-0.9,5.6c-0.4,1.2-0.9,2-1.1,3.2c0,0.2,0.3,0.2,0.4,0.1c1.7-2.6,3.4-5.3,5.2-7.9c1.8-2.5,4-4.7,5.7-7.2
				c1.5-2.2,2.2-4.8,2.9-7.4c0.3-1.2,2.6-9.9,4.5-8.8c0.2,0.1,0.4-0.2,0.2-0.3c-0.2-0.1-0.4-0.3-0.6-0.4
				C178,193.4,177.8,193.7,178,193.8L178,193.8z"/>
		</g>
	</g>
</g>
<g id="XMLID_536_">
	<g id="XMLID_44_">
		<path id="XMLID_47_" class="st4" d="M178.5,185c0.2,0.1,0.5,0.1,0.7,0.2c-1.1,1.1-2.9,0.8-4.5,1.2c-1.5,0.3-2.7,1.4-4,2.3
			c-3,2.2-6.4,3.9-8.7,6.7c-2,2.4-3,5.5-3.5,8.6s-0.3,6.2-0.2,9.4c2.3-5.4,5.1-10.6,9-15.1c2.4-2.7,5.1-5.1,6.7-8.3
			c0.3-0.7,0.6-1.4,1.2-1.9c0.4-0.2,0.8-0.4,1.2-0.6c0.6-0.3,1-0.9,1.6-1.3c0.6-0.3,1.5-0.3,1.8,0.3"/>
		<g id="XMLID_45_">
			<path id="XMLID_46_" class="st4" d="M178.4,185.2c0.8,0.2-0.2,0.4-0.5,0.5c-0.5,0.2-1,0.2-1.4,0.2c-0.6,0.1-1.2,0.1-1.8,0.2
				c-1.5,0.4-2.8,1.4-4,2.3c-2.6,1.9-5.6,3.5-7.9,5.8c-4.9,5-4.8,12.5-4.5,19c0,0.2,0.3,0.2,0.4,0.1c2.3-5.6,5.3-10.9,9.3-15.4
				c1.7-1.9,3.6-3.7,5.1-5.8c0.8-1.2,1.4-3.1,2.5-3.9c0.5-0.3,1-0.5,1.5-0.8c0.6-0.5,1.9-2.1,2.8-0.8c0.2,0.2,0.5,0,0.3-0.2
				c-0.4-0.6-1-0.7-1.7-0.5c-0.5,0.2-0.8,0.5-1.2,0.8c-0.6,0.5-1.3,0.7-1.9,1.2c-1.1,0.8-1.5,2.5-2.3,3.6c-1.1,1.6-2.4,3-3.7,4.5
				c-4.8,5.1-8.3,10.8-11,17.2c0.1,0,0.2,0,0.4,0.1c-0.3-6.9-0.3-14.6,5.3-19.7c2.4-2.1,5.2-3.7,7.8-5.5c1.6-1.2,3.1-1.7,5-1.9
				c1-0.1,1.9-0.3,2.6-1c0.1-0.1,0.1-0.3-0.1-0.3c-0.2-0.1-0.5-0.1-0.7-0.2C178.3,184.8,178.2,185.1,178.4,185.2L178.4,185.2z"/>
		</g>
	</g>
</g>
<g id="XMLID_529_">
	<g id="XMLID_39_">
		<path id="XMLID_42_" class="st4" d="M180.7,160.3c0-0.9-0.3-1.9-0.8-2.7c-0.2,0.3-0.4,0.6-0.6,0.9c-1.5-1.7-2.8-3.6-3.9-5.5
			c-0.5-0.8-0.9-1.6-1.5-2.2c-1-1-2.3-1.5-3.6-1.9c-2.4-0.9-5-1.8-7.5-1.5c2.9,0.6,4.9,3.2,6.6,5.5c1.8,2.3,3.8,4.9,6.7,5.4
			c0.7,0.2,1.5,0.2,2.2,0.4c1.4,0.5,2.4,1.9,2.4,3.3"/>
		<g id="XMLID_40_">
			<path id="XMLID_41_" class="st4" d="M181,160.3c-0.1-1-0.3-1.9-0.8-2.8c-0.1-0.2-0.2-0.1-0.3,0c-0.8,1.2-1.7-0.8-2.3-1.6
				c-0.6-0.8-1.1-1.6-1.6-2.4c-0.8-1.3-1.4-2.7-2.7-3.6c-1.3-0.9-3-1.4-4.5-1.9c-2-0.7-3.9-1.1-6-1c-0.2,0-0.3,0.3-0.1,0.4
				c4,1,5.9,5,8.5,7.8c1,1.1,2.2,2.1,3.5,2.7c1,0.4,2,0.4,3,0.6c1.6,0.4,2.7,1.6,2.8,3.3c0,0.2,0.4,0.2,0.4,0
				c-0.1-1.4-0.8-2.7-2.1-3.3c-1.1-0.5-2.4-0.4-3.5-0.8c-1.3-0.5-2.5-1.4-3.5-2.4c-2.8-2.9-4.7-7.2-8.9-8.3c0,0.1,0,0.2-0.1,0.4
				c2-0.1,4,0.3,5.9,1c1.6,0.5,3.6,1.1,4.9,2.3c1.2,1.1,1.9,2.8,2.8,4.2c0.9,1.3,1.9,2.6,2.9,3.8c0.1,0.1,0.2,0.1,0.3,0
				c0.4-0.5,0.5-0.5,0.8,0.2c0.2,0.5,0.2,1.2,0.3,1.6C180.6,160.5,181,160.5,181,160.3L181,160.3z"/>
		</g>
	</g>
</g>
<g id="XMLID_401_">
	<g id="XMLID_34_">
		<path id="XMLID_37_" class="st4" d="M181,198.5c0.4-0.6,0.8-1.2,1.3-1.7c0.2-0.2,0.3-0.4,0.5-0.4c0.3,0,0.4,0.3,0.5,0.5
			c2.5,5.4,2.9,11.9,7,16.2c2.8,3,6.9,4.4,9.9,7.2c-2.8-1.6-3.9-5.1-4.4-8.2c-0.5-3.2-1-6.6-3.2-8.9c-2-2.2-5.3-3.1-7.1-5.6
			c-0.8-1.1-1.4-2.6-2.7-3l0.5,0c-0.5,0.5-1,1.1-1.5,1.6c-0.3,0.4-0.7,0.7-1.1,0.9"/>
		<g id="XMLID_35_">
			<path id="XMLID_36_" class="st4" d="M181.2,198.6c0.2-0.3,0.4-0.6,0.6-0.9c0.3-0.3,0.9-1,1.4-0.7c0.4,0.2,0.8,1.9,1,2.3
				c0.5,1.3,0.8,2.5,1.2,3.8c0.7,2.4,1.5,4.8,2.6,7c2.7,5,7.9,6.6,12,10.2c0.1-0.1,0.2-0.2,0.2-0.3c-5.4-3.3-3.6-10.8-6.4-15.6
				c-1.3-2.2-3.5-3.3-5.5-4.7c-1.4-0.9-2.4-2-3.3-3.4c-0.6-0.9-1.1-1.6-2.1-2c0,0.1,0,0.2-0.1,0.4c0.2,0,0.3,0,0.5,0
				c0-0.1-0.1-0.2-0.1-0.3c-0.8,0.8-1.5,1.9-2.5,2.5c-0.2,0.1,0,0.5,0.2,0.3c1-0.7,1.8-1.7,2.6-2.6c0.1-0.1,0-0.3-0.1-0.3
				c-0.2,0-0.3,0-0.5,0c-0.2,0-0.2,0.3-0.1,0.4c1.5,0.5,2,2.2,2.9,3.3c0.8,0.9,1.8,1.7,2.9,2.3c2.8,1.8,5,3.4,6.1,6.8
				c1.4,4.5,0.9,10.5,5.5,13.3c0.2,0.1,0.4-0.2,0.2-0.3c-2.3-2-5.1-3.3-7.5-5.1c-2.9-2.1-4.7-5-5.9-8.3c-1-2.8-1.7-5.7-2.8-8.5
				c-0.2-0.5-0.5-1.9-1.3-1.9c-0.8,0-1.6,1.8-2,2.2C180.7,198.6,181,198.8,181.2,198.6L181.2,198.6z"/>
		</g>
	</g>
</g>
<path id="XMLID_526_" class="st5" d="M199.8,243.7v17.4c0,3-2.1,5.4-4.7,5.4h-33.2c-2.6,0-4.7-2.4-4.7-5.4v-17.4"/>
</svg>
