<?xml version="1.0" encoding="utf-8"?>
<!-- Generator: Adobe Illustrator 19.0.0, SVG Export Plug-In . SVG Version: 6.00 Build 0)  -->
<svg version="1.1" id="Layer_1" xmlns="http://www.w3.org/2000/svg" xmlns:xlink="http://www.w3.org/1999/xlink" x="0px" y="0px"
	 viewBox="0 0 360 360" style="enable-background:new 0 0 360 360;" xml:space="preserve">
<style type="text/css">
	.st0{fill:#F7E8D4;}
	.st1{fill:#F9F0E3;}
	.st2{fill:#C3D6C2;}
	.st3{fill:#959590;}
	.st4{fill:#CAC8C7;}
</style>
<path id="XMLID_11_" class="st0" d="M176,84.3c-16.7,17.1-74.4,82.9-19.8,127.4c1,0.9,2.4,1.3,3.7,1.3h40.6c1.3,0,2.7-0.4,3.7-1.3
	c54.6-44.5-3.1-110.4-19.8-127.4C182.1,82,178.3,82,176,84.3z"/>
<g id="XMLID_530_">
	<path id="XMLID_92_" class="st0" d="M169.7,104.3c-5.8,6.3-10.3,13.8-13.1,21.9"/>
	<g id="XMLID_86_">
		<path id="XMLID_90_" class="st1" d="M168,102.6c-6.1,6.8-10.7,14.4-13.7,23c-1.1,3,3.7,4.3,4.8,1.3c2.8-7.7,7-14.7,12.5-20.8
			C173.6,103.7,170.1,100.2,168,102.6L168,102.6z"/>
	</g>
</g>
<g id="XMLID_523_">
	<g id="XMLID_25_">
		<path id="XMLID_29_" class="st1" d="M152.7,138.1c3.2,0,3.2-5,0-5C149.5,133.1,149.5,138.1,152.7,138.1L152.7,138.1z"/>
	</g>
</g>
<g id="XMLID_128_">
	<path id="XMLID_78_" class="st2" d="M161.4,173.9c-0.6,13.8,0.7,27.7,4.1,41.1"/>
	<g id="XMLID_73_">
		<path id="XMLID_77_" class="st2" d="M160.8,173.9c-0.6,13.9,0.8,27.7,4.1,41.2c0.2,0.8,1.4,0.5,1.2-0.3
			c-3.3-13.4-4.7-27.1-4.1-40.9C162.1,173.1,160.8,173.1,160.8,173.9L160.8,173.9z"/>
	</g>
</g>
<g id="XMLID_130_">
	<path id="XMLID_71_" class="st2" d="M178,205c1.2-1.5,2.2-3.1,3.2-4.8c2.4-4,4.7-8,7.1-12c-1.1,1.9-1.3,4.2-1.6,6.4
		c-0.4,2.2-1.1,4.5-3,5.7c-0.6,0.4-1.3,0.6-1.9,1.1c-0.5,0.4-0.9,0.9-1.3,1.5c-0.9,1.2-1.8,2.4-2.8,3.7"/>
	<g id="XMLID_66_">
		<path id="XMLID_70_" class="st2" d="M178.4,205.5c4.1-5.1,7-11.3,10.4-16.9c-0.4-0.2-0.7-0.4-1.1-0.6c-1.6,3.3-1,7.8-3.3,10.6
			c-1.2,1.4-2.9,2-4.1,3.4c-1.1,1.3-2.1,2.8-3.2,4.2c-0.5,0.6,0.6,1.3,1.1,0.6c1.5-2,2.8-4,4.8-5.4c1.1-0.8,2-1.2,2.8-2.4
			c2-3.1,1.4-7.1,3-10.4c0.4-0.7-0.7-1.3-1.1-0.6c-3.3,5.5-6.2,11.6-10.2,16.6C177,205.2,177.9,206.1,178.4,205.5L178.4,205.5z"/>
	</g>
</g>
<g id="XMLID_131_">
	<path id="XMLID_64_" class="st2" d="M175.6,175.8c-2-2-2.4-5.1-2.6-8c-0.2-2.9-0.4-5.9-2.1-8.2c0-0.1-0.1-0.1-0.2-0.1
		c-0.1,0-0.2,0.1-0.3,0.2c-1.3,2.7-0.6,6,0.5,8.8c1.3,3.2,3.1,6.2,5.5,8.7"/>
	<g id="XMLID_59_">
		<path id="XMLID_63_" class="st2" d="M176.1,175.3c-2.6-3.1-2.2-7.1-2.8-10.9c-0.3-1.7-0.7-4.3-2.2-5.4c-0.3-0.2-0.6-0.2-0.9,0
			c-2.1,1.8-1.1,6.4-0.4,8.5c1.2,3.8,3.4,7.1,6,10.1c0.5,0.6,1.4-0.3,0.9-0.9c-2.2-2.5-4.1-5.3-5.3-8.5c-0.7-1.7-1.2-3.5-1.2-5.4
			c0.1-3.8,1-1.6,1.5,0.2c1.2,4.6,0.2,9.2,3.4,13.1C175.7,176.8,176.6,175.9,176.1,175.3L176.1,175.3z"/>
	</g>
</g>
<g id="XMLID_164_">
	<path id="XMLID_57_" class="st2" d="M163.1,194.2c1.7-1.8,2.6-4.1,3.4-6.4c0.7-2.3,1.3-4.7,2.2-6.9c0.1-0.2,0.2-0.4,0.4-0.4
		c0.2,0,0.4,0.2,0.5,0.4c0.8,1.7,0.9,3.7,0.3,5.4c-0.5,1.8-1.6,3.4-2.9,4.7c-1.6,1.7-3.7,3.1-4.5,5.3"/>
	<g id="XMLID_52_">
		<path id="XMLID_56_" class="st2" d="M163.6,194.6c1.5-1.7,2.4-3.6,3.2-5.7c0.3-0.9,1.6-7.1,2.5-7c1.2,0.1-0.5,5.5-0.6,5.8
			c-0.7,1.3-1.7,2.4-2.7,3.5c-1.6,1.5-3.1,2.8-4,4.8c-0.3,0.7,0.7,1.4,1.1,0.6c1.7-3.8,5.9-5.5,7.3-9.7c0.6-1.7,1.2-6.1-1.1-7
			c-0.2-0.1-0.5,0-0.6,0.2c-1.2,1.3-1.6,3.4-2,5.1c-0.9,3.1-1.8,6.1-3.9,8.6C162.2,194.4,163,195.3,163.6,194.6L163.6,194.6z"/>
	</g>
</g>
<g id="XMLID_165_">
	<path id="XMLID_50_" class="st2" d="M197.7,180.1c-1.2-1.1-2.3-2.4-2.8-3.9c-0.2-0.7-0.2-1.4-0.3-2.1c-0.3-3.3-1-6.7-3.4-9
		c-0.1-0.1-0.3-0.3-0.5-0.3c-0.5-0.1-0.7,0.6-0.7,1.1c-0.1,4,1.6,8.1,4.4,10.9"/>
	<g id="XMLID_45_">
		<path id="XMLID_49_" class="st2" d="M198.2,179.7c-1.9-2-2.6-3.7-3-6.5c-0.2-1.3-0.3-2.5-0.7-3.7c-0.6-1.9-1.6-4.1-3.3-5.2
			c-0.2-0.1-0.4-0.1-0.6,0c-1.7,1.1-1,3.8-0.6,5.5c0.7,2.9,2.2,5.4,4.2,7.5c0.6,0.6,1.4-0.3,0.9-0.9c-1.9-2-3.3-4.3-3.9-7
			c-0.2-0.9-1.1-3.2,0.7-2.6c0.8,0.3,1.3,2.7,1.5,3.5c0.5,2,0.3,4.1,0.9,6.1c0.5,1.7,1.7,3,3,4.2
			C197.8,181.1,198.7,180.3,198.2,179.7L198.2,179.7z"/>
	</g>
</g>
<g id="XMLID_109_">
	<path id="XMLID_43_" class="st2" d="M178.9,145.1c-1,16.1-1.6,32.2-1.7,48.3c-0.1,7.6,0,15.2,1.2,22.7"/>
	<g id="XMLID_38_">
		<path id="XMLID_42_" class="st2" d="M178.3,145.1c-0.7,12.2-1.3,24.4-1.5,36.7c-0.2,11.5-0.7,23.1,1,34.5c0.1,0.8,1.3,0.5,1.2-0.3
			c-1.7-11.9-1.2-24.1-0.9-36.1c0.3-11.6,0.8-23.2,1.5-34.7C179.6,144.3,178.3,144.3,178.3,145.1L178.3,145.1z"/>
	</g>
</g>
<g id="XMLID_91_">
	<path id="XMLID_36_" class="st2" d="M198.4,158.8c0.6,7.2-0.1,14.3-0.8,21.5c-1.2,11.8-2.4,23.5-3.6,35.3"/>
	<g id="XMLID_31_">
		<path id="XMLID_35_" class="st2" d="M197.7,158.8c0.7,9.5-0.5,18.9-1.5,28.4c-1,9.5-1.9,19-2.9,28.4c-0.1,0.8,1.2,0.8,1.3,0
			c1-9.5,1.9-19,2.9-28.4c1-9.4,2.2-18.9,1.5-28.4C198.9,158,197.7,158,197.7,158.8L197.7,158.8z"/>
	</g>
</g>
<path id="XMLID_22_" class="st3" d="M159.9,212.8v15.5c0,0.9,0.2,1.9,0.7,2.7l3.5,6.1c0.5,0.8,0.7,1.7,0.7,2.7v21.6
	c0,1.4,0.6,2.8,1.6,3.8l10,10c2.1,2.1,5.5,2.1,7.6,0l10-10c1-1,1.6-2.4,1.6-3.8v-21.6c0-0.9,0.2-1.9,0.7-2.7l3.5-6.1
	c0.5-0.8,0.7-1.7,0.7-2.7v-15.5"/>
<path id="XMLID_9_" class="st4" d="M199.7,246.6h-38.9c-0.3,0-0.5-0.2-0.5-0.5v-0.9c0-0.3,0.2-0.5,0.5-0.5h38.9
	c0.3,0,0.5,0.2,0.5,0.5v0.9C200.2,246.4,200,246.6,199.7,246.6z"/>
<path id="XMLID_10_" class="st4" d="M199.9,253.6h-39.5c-0.3,0-0.5-0.2-0.5-0.5v-0.9c0-0.3,0.2-0.5,0.5-0.5h39.5
	c0.3,0,0.5,0.2,0.5,0.5v0.9C200.5,253.4,200.2,253.6,199.9,253.6z"/>
<path id="XMLID_13_" class="st4" d="M199.9,260.6h-39.5c-0.3,0-0.5-0.2-0.5-0.5v-0.9c0-0.3,0.2-0.5,0.5-0.5h39.5
	c0.3,0,0.5,0.2,0.5,0.5v0.9C200.5,260.3,200.2,260.6,199.9,260.6z"/>
</svg>
