<?xml version="1.0" encoding="utf-8"?>
<!-- Generator: Adobe Illustrator 19.0.0, SVG Export Plug-In . SVG Version: 6.00 Build 0)  -->
<svg version="1.1" id="Layer_1" xmlns="http://www.w3.org/2000/svg" xmlns:xlink="http://www.w3.org/1999/xlink" x="0px" y="0px"
	 viewBox="0 0 360 360" style="enable-background:new 0 0 360 360;" xml:space="preserve">
<style type="text/css">
	.st0{fill:#E0C9C3;}
	.st1{fill:#F1E3DB;}
	.st2{fill:#F8F2EE;}
	.st3{fill:#C3D6C2;}
</style>
<path id="XMLID_53_" class="st0" d="M202.5,237.2h-45c-0.3,0-0.5-0.2-0.5-0.5V235c0-0.3,0.2-0.5,0.5-0.5h45c0.3,0,0.5,0.2,0.5,0.5
	v1.6C203,237,202.8,237.2,202.5,237.2z"/>
<path id="XMLID_48_" class="st0" d="M202.8,246.9h-45.6c-0.3,0-0.5-0.2-0.5-0.5v-1.7c0-0.3,0.2-0.5,0.5-0.5h45.6
	c0.3,0,0.5,0.2,0.5,0.5v1.7C203.3,246.6,203.1,246.9,202.8,246.9z"/>
<path id="XMLID_16_" class="st0" d="M202.8,256.4h-45.6c-0.3,0-0.5-0.2-0.5-0.5v-1.7c0-0.3,0.2-0.5,0.5-0.5h45.6
	c0.3,0,0.5,0.2,0.5,0.5v1.7C203.3,256.1,203.1,256.4,202.8,256.4z"/>
<circle id="XMLID_962_" class="st1" cx="180" cy="147.1" r="59.4"/>
<path id="XMLID_959_" class="st1" d="M215,193.1l-4.3,7.9c-0.3,0.6-0.5,1.2-0.5,1.8v14.6c0,1.1-0.5,2.1-1.3,2.9l-5,4.4
	c-0.7,0.6-1.6,1-2.5,1h-20.5H180h-20.5c-0.9,0-1.8-0.3-2.5-1l-5-4.4c-0.8-0.7-1.3-1.8-1.3-2.9v-14.6c0-0.6-0.2-1.3-0.5-1.8l-4.3-7.9
	"/>
<g id="XMLID_951_">
	<path id="XMLID_42_" class="st1" d="M152.7,108.5c-6.4,5.5-11.1,12.9-13.5,20.9"/>
	<g id="XMLID_37_">
		<path id="XMLID_41_" class="st2" d="M151,106.7c-6.7,6-11.5,13.5-14.2,22c-1,3.1,3.9,4.4,4.8,1.3c2.4-7.8,6.8-14.4,12.9-19.8
			C156.9,108.1,153.4,104.6,151,106.7L151,106.7z"/>
	</g>
</g>
<g id="XMLID_943_">
	<path id="XMLID_34_" class="st1" d="M138.5,142.2"/>
	<g id="XMLID_29_">
		<path id="XMLID_33_" class="st2" d="M138.5,144.7c3.2,0,3.2-5,0-5C135.3,139.7,135.3,144.7,138.5,144.7L138.5,144.7z"/>
	</g>
</g>
<g id="XMLID_107_">
	<path id="XMLID_20_" class="st3" d="M181,199.2c-2.6-5.6-1.5-12.1,0.6-17.9c4.2-11.2,11.9-20.7,19.4-30c2.7,7.3,7.9,13.6,9.1,21.2
		c1.2,7.7-2.2,15.7-8.1,20.7s-14,7.1-21.7,6.2"/>
</g>
<g id="XMLID_110_">
	<path id="XMLID_18_" class="st3" d="M180.5,196.6c-2.3-4.7-6-8.5-10.4-11.4s-9.1-4.9-14.1-6.5c-0.2-0.1-0.5-0.2-0.7,0
		c-0.2,0.1-0.2,0.3-0.3,0.5c-1.3,4.2-1.8,8.9,0.3,12.7c2.5,4.5,7.8,6.4,12.9,7.3c4.1,0.7,8.5,0.8,12.2-1.1"/>
</g>
<g id="XMLID_121_">
	<path id="XMLID_15_" class="st3" d="M180.5,196.3c2.5,9.5,3,19.4,1.6,29.1"/>
</g>
<g id="XMLID_123_">
	<path id="XMLID_13_" class="st3" d="M182.1,197.8c2.2,9.2,2.9,18.7,1.9,28.1c-0.1,0.6-0.2,1.3-0.7,1.7s-1.4,0-1.3-0.6"/>
</g>
<path id="XMLID_35_" class="st0" d="M198.3,225.7V256c0,1.8-0.8,3.4-2.3,4.5l-16,11.9h0.8l-16-11.9c-1.5-1.1-2.3-2.7-2.3-4.5v-30.3"
	/>
</svg>
