<?xml version="1.0" encoding="utf-8"?>
<!-- Generator: Adobe Illustrator 19.0.0, SVG Export Plug-In . SVG Version: 6.00 Build 0)  -->
<svg version="1.1" id="Layer_1" xmlns="http://www.w3.org/2000/svg" xmlns:xlink="http://www.w3.org/1999/xlink" x="0px" y="0px"
	 viewBox="0 0 360 360" style="enable-background:new 0 0 360 360;" xml:space="preserve">
<style type="text/css">
	.st0{fill:#D6E6E3;}
	.st1{fill:#A9C8C8;}
	.st2{fill:#71896F;}
	.st3{fill:#889A84;}
	.st4{fill:#C3D6C2;}
	.st5{fill:#FFFFFF;}
	.st6{fill:#FAB8A4;}
	.st7{fill:#CAC8C7;}
</style>
<ellipse id="XMLID_5_" class="st0" cx="180.4" cy="155.4" rx="59.4" ry="62.9"/>
<path id="XMLID_3_" class="st0" d="M219.6,198.5l-4.9,10.9c-0.4,0.8-0.5,1.7-0.5,2.6v20.3c0,1.5-0.5,3-1.5,4l-5.7,6.2
	c-0.8,0.9-1.8,1.3-2.9,1.3h-23.2h-1h-23.2c-1.1,0-2.1-0.5-2.9-1.3l-5.7-6.2c-0.9-1-1.5-2.5-1.5-4V212c0-0.9-0.2-1.8-0.5-2.6
	l-4.9-10.9H219.6z"/>
<g id="XMLID_2_">
	<path id="XMLID_206_" class="st1" d="M154.4,116.4c-6.4,5.5-11.1,12.9-13.5,20.9"/>
	<g id="XMLID_201_">
		<path id="XMLID_205_" class="st1" d="M152.6,114.6c-6.7,6-11.5,13.5-14.2,22c-1,3.1,3.9,4.4,4.8,1.3c2.4-7.8,6.8-14.4,12.9-19.8
			C158.6,116,155,112.5,152.6,114.6L152.6,114.6z"/>
	</g>
</g>
<g id="XMLID_1_">
	<path id="XMLID_199_" class="st1" d="M137.6,153.9"/>
	<g id="XMLID_194_">
		<path id="XMLID_198_" class="st1" d="M137.6,156.4c3.2,0,3.2-5,0-5C134.4,151.4,134.4,156.4,137.6,156.4L137.6,156.4z"/>
	</g>
</g>
<g id="XMLID_24_">
	<g id="XMLID_188_">
		<path id="XMLID_192_" class="st2" d="M188.6,184.6c-5.2,8.4-7.4,18-6.3,27.9c0.1,0.8,1.3,0.8,1.3,0c-1.1-9.7,1-18.9,6.1-27.2
			C190.1,184.5,189,183.9,188.6,184.6L188.6,184.6z"/>
	</g>
</g>
<g id="XMLID_90_">
	<path id="XMLID_186_" class="st3" d="M197.5,218.3c0.5-0.8,1.1-1.5,1.4-2.4c0.3-0.9,0.4-1.8,0.1-2.7c-0.3-0.9-1.1-1.6-2-1.6l0-0.6
		c0-1-0.3-2.1-0.9-2.9c-0.4-0.6-1.1-1.1-1.8-1.1c-0.8,0-1.4,0.6-1.9,1.3c-1.1,1.6-1.5,3.5-1.2,5.4l-0.3,0.3
		c-0.2-0.3-0.7-0.5-1.1-0.4s-0.7,0.4-0.9,0.7c-0.6,0.9-0.6,2.2-0.3,3.3s0.9,2.1,1.3,3.2c0.6,1.4,1,3,1.2,4.5l0.7,0.5
		c1.8-0.1,3.5-0.9,4.8-2.2c0.6-0.6,1.1-1.3,1.2-2.2s-0.1-1.8-0.8-2.3"/>
	<g id="XMLID_181_">
		<path id="XMLID_185_" class="st3" d="M198.1,218.7c1.2-1.7,2.8-4.7,1-6.6c-0.4-0.4-1.3-0.8-1.5-1c-0.6-1-0.2-2.3-1.1-3.3
			c-1.5-1.7-3.3-1.4-4.6,0.3c-0.7,1-1.2,2.3-1.3,3.5c0,0.4-0.3,2.1,0.2,1.7c0.2-0.2-1.5,0.2-0.9-0.1c-1.6,0.7-2.1,1.9-2.1,3.7
			c0.1,2.3,1.7,4.3,2.3,6.5c0.3,1.2,0.1,2.2,1.1,2.9c1.6,1.2,4.8-0.8,5.9-2c1.5-1.6,2-3.6,0.4-5.4c-0.5-0.6-1.4,0.3-0.9,0.9
			c1.8,2-1.9,5.7-3.9,5.5c-1.5-0.2-1.1-0.9-1.4-2.2c-0.2-0.8-0.5-1.6-0.8-2.4c-0.2-0.3-0.3-0.7-0.5-1c-1.2-1.7-1-3.3,0.7-4.9
			c0.2,0.2,0.6,0.1,0.8-0.1c0.2-0.3,0.3-0.5,0.5-0.8c0.4-0.8-0.4-2.3,0.2-3.2c4.1-5.8,4.3-0.2,4.4,1c0,0.3,0.2,0.5,0.5,0.6
			c3.6,1,1.1,4.5,0.2,5.8C196.5,218.7,197.6,219.3,198.1,218.7L198.1,218.7z"/>
	</g>
</g>
<g id="XMLID_57_">
	<g id="XMLID_175_">
		<path id="XMLID_179_" class="st2" d="M186.5,239.7c-1.8-12.1-10.5-20.7-19.1-28.6c-0.6-0.5-1.5,0.3-0.9,0.9
			c8.4,7.8,17,16.2,18.7,28.1C185.4,240.9,186.6,240.5,186.5,239.7L186.5,239.7z"/>
	</g>
</g>
<g id="XMLID_419_">
	<path id="XMLID_173_" class="st3" d="M178.5,194.4c-0.3-2.4-1.2-4.7-2.5-6.8c-0.2-0.3-0.5-0.7-0.8-0.8s-0.8,0.2-0.7,0.6
		c-1-1.4-2.2-2.7-3.6-3.8c-0.4-0.3-0.7-0.5-1.2-0.6c-0.4-0.1-0.9,0-1.2,0.3c-0.4,0.5-0.3,1.2-0.1,1.8c-1.1-0.9-2.7-1.3-4-0.9
		c-1.4,0.4-2.4,1.9-2.1,3.3c0.3,1.2,1.4,2,2.5,2.6c1.2,0.6,2.6,1,4,1.2c-0.1,0.5-0.5,0.9-0.9,1.4c-0.3,0.4-0.6,1.1-0.3,1.5
		c0.2,0.2,0.4,0.4,0.7,0.5c1.5,0.5,3.2,0.1,4.8-0.1c1.6-0.2,3.4-0.3,4.7,0.6"/>
	<g id="XMLID_168_">
		<path id="XMLID_172_" class="st3" d="M179.1,194.2c-0.2-1.1-3.6-11.4-5.3-6.9c0.4,0,0.8-0.1,1.1-0.1c-1.2-1.6-3.1-4.4-5.3-4.7
			c-1.9-0.2-2.2,1.4-1.9,2.9c0.3-0.2,0.6-0.5,0.9-0.7c-2.3-1.5-6-1.7-7,1.5c-1.1,3.8,4.1,5.3,6.8,5.8c-0.1-0.3-0.2-0.6-0.4-0.9
			c-0.7,1.4-2.2,2.7-0.6,4c2.6,2,6.9-0.9,9.9,0.7c0.7,0.4,1.3-0.7,0.6-1.1c-1.5-0.8-2.8-0.9-4.5-0.8c-1.8,0.2-5.8,0.9-4.3-2.2
			c0.2-0.3,0.1-0.8-0.4-0.9c-1.3-0.2-2.6-0.5-3.8-1.1c-0.5-0.3-0.9-0.6-1.4-0.9c1.3-3.4,2.8-4.4,4.5-2.9c0.5,0.3,1-0.2,0.9-0.7
			c1.3-0.7,2.3-0.5,3,0.5c0.7,0.7,1.3,1.5,1.9,2.3c0.3,0.4,0.9,0.4,1.1-0.1c0-0.1,1.7,2.7,1.8,3c0.5,1.3,0.8,2.6,1.1,3.9
			C178,195.4,179.2,195,179.1,194.2L179.1,194.2z"/>
	</g>
</g>
<g id="XMLID_555_">
	<path id="XMLID_166_" class="st4" d="M182.6,206.5c0.7-1.9,1.7-3.7,3-5.3"/>
	<g id="XMLID_161_">
		<path id="XMLID_165_" class="st2" d="M183.2,206.7c0.7-1.8,1.6-3.5,2.8-5.1c0.5-0.6-0.4-1.5-0.9-0.9c-1.4,1.7-2.4,3.6-3.2,5.6
			C181.7,207.1,183,207.4,183.2,206.7L183.2,206.7z"/>
	</g>
</g>
<g id="XMLID_576_">
	<g id="XMLID_154_">
		<path id="XMLID_158_" class="st2" d="M179.6,194.4c-0.3-8-4.3-14.7-8.4-21.3c-0.4-0.7-1.5-0.1-1.1,0.6c4,6.4,7.9,12.9,8.2,20.6
			C178.4,195.2,179.7,195.2,179.6,194.4L179.6,194.4z"/>
	</g>
</g>
<g id="XMLID_52_">
	<g id="XMLID_148_">
		<path id="XMLID_152_" class="st2" d="M193.2,215.6c-0.5,5.3-2.4,10.2-5.6,14.5c-0.5,0.7,0.6,1.3,1.1,0.6c3.3-4.5,5.2-9.6,5.7-15.2
			C194.6,214.8,193.3,214.8,193.2,215.6L193.2,215.6z"/>
	</g>
</g>
<g id="XMLID_25_">
	<g id="XMLID_142_">
		<path id="XMLID_146_" class="st2" d="M188.6,162.7c-7.9,10-11.8,22.7-10.1,35.4c0.9,7.1,3.5,13.8,6,20.5c1.4,3.9,2.8,7.9,2.8,12.1
			c0,4.4-1.5,8.6-2.9,12.8c-0.3,0.8,0.9,1.1,1.2,0.3c1.9-5.4,3.6-10.8,2.7-16.6c-1-7.1-4.6-13.7-6.6-20.6c-4.4-15.1-2-30.6,7.9-43
			C190,162.9,189.1,162,188.6,162.7L188.6,162.7z"/>
	</g>
</g>
<g id="XMLID_374_">
	<g id="XMLID_136_">
		<path id="XMLID_140_" class="st2" d="M177,220.2c1.2-2.6,0.7-5.3-0.2-7.9c-0.3-0.8-1.5-0.4-1.2,0.3c0.7,2.3,1.4,4.7,0.3,6.9
			C175.6,220.3,176.7,220.9,177,220.2L177,220.2z"/>
	</g>
</g>
<g id="XMLID_159_">
	<g id="XMLID_109_">
		<path id="XMLID_113_" class="st2" d="M183,230.7c-1.8-1-3.7-1.7-5.6-2.2c-0.8-0.2-1.1,1-0.3,1.2c1.9,0.5,3.6,1.2,5.3,2.1
			C183.1,232.1,183.7,231.1,183,230.7L183,230.7z"/>
	</g>
</g>
<g id="XMLID_409_">
	<g id="XMLID_123_">
		<path id="XMLID_127_" class="st2" d="M178.6,194.8c-1.3-1.6-2.7-3-4.2-4.2c-0.6-0.5-1.5,0.4-0.9,0.9c1.6,1.2,3,2.7,4.2,4.2
			C178.3,196.3,179.1,195.4,178.6,194.8L178.6,194.8z"/>
	</g>
</g>
<g id="XMLID_62_">
	<path id="XMLID_121_" class="st3" d="M181.3,229.3c-1.3-1.7-3.3-3-5.5-3.6c-0.4-0.1-0.8-0.2-1.1,0.1c-0.2,0.2-0.2,0.5-0.1,0.8
		c0.1,0.3,0.2,0.6,0.4,0.8c-1.1-0.3-2.2-0.7-3.4-0.5c-0.5,0.1-1,0.3-1.1,0.7c-0.1,0.3,0.1,0.6,0.3,0.8c0.2,0.2,0.5,0.4,0.8,0.5
		c-0.4,0.2-0.8,0.4-1.2,0.6c-0.2,0.1-0.4,0.3-0.4,0.5c-0.1,0.3,0.1,0.6,0.4,0.8c0.3,0.2,0.6,0.2,1,0.3c1.9,0.3,3.8,0.3,5.7-0.1
		c0,0.2-0.1,0.3-0.1,0.5c0,0.2,0,0.4,0.2,0.4c0.1,0,0.2,0,0.2,0.1c1.4,0.1,2.7-0.7,4-1.3c0.3-0.1,0.7-0.3,1.1-0.2"/>
	<g id="XMLID_115_">
		<path id="XMLID_120_" class="st3" d="M181.8,228.9c-1.4-1.6-4.2-4.1-6.5-3.9c-1.7,0.1-1.3,1.5-0.8,2.7c0.2-0.3,0.5-0.6,0.7-0.9
			c-1.3-0.4-4.3-1.3-5.1,0.4c-0.5,1,0.4,1.7,1.2,2.2c0-0.4,0-0.7,0-1.1c-1.2,0.5-2.8,1.7-1.3,2.9c1.6,1.4,5.4,0.7,7.3,0.4
			c-0.3-0.3-0.5-0.5-0.8-0.8c-0.7,3.7,4.7,0.4,6,0.4c0.8,0,0.8-1.3,0-1.3c-0.6,0-0.8,0.1-1.3,0.2c-0.3,0.1-3.6,1.4-3.5,1
			c0.1-0.5-0.3-0.8-0.8-0.8c-1.4,0.2-2.7,0.3-4.1,0.2c-1.2-0.1-2.7-0.5-0.9-1.3c0.4-0.2,0.4-0.9,0-1.1c0.2-0.9,0.7-1.1,1.4-0.8
			c0.5,0.1,1.1,0.2,1.6,0.4c0.6,0.2,0.9-0.5,0.7-0.9c-0.7-1.5,2.2,0.2,2.7,0.4c1,0.6,1.9,1.4,2.6,2.3
			C181.4,230.4,182.3,229.5,181.8,228.9L181.8,228.9z"/>
	</g>
</g>
<g id="XMLID_63_">
	<path id="XMLID_107_" class="st3" d="M177.3,218.4c1.3-1.1,1.8-2.8,2.2-4.5c0.1-0.5,0.1-1.1-0.3-1.3c-0.4-0.1-0.8,0.3-1,0.7
		c-0.3,0.7-0.5,1.6-0.4,2.4c0-1.1,0-2.3,0-3.4c0-1.6,0-3.2-0.7-4.7c-0.1-0.2-0.3-0.4-0.4-0.3c-0.1,0-0.1,0.1-0.1,0.2
		c-0.3,0.9-0.3,1.8-0.1,2.7c-0.4-1.4-1.2-2.7-2.3-3.6c-0.2-0.2-0.4-0.3-0.7-0.4c-0.3,0-0.6,0.1-0.6,0.4c0,0.2,0.1,0.3,0.1,0.5
		c0.7,1.3,1.5,2.5,2.5,3.6c-0.6-0.4-1.2-0.8-1.9-1c-0.1,0-0.2-0.1-0.3,0c-0.2,0.1-0.1,0.5,0.1,0.7c0.8,0.9,1.6,1.7,2.4,2.7
		s1.4,2,1.5,3.2c-0.1-1.3-0.2-2.6-0.4-4c-0.1-0.8-0.3-1.7-0.9-2.3c0.2,0.7,0.3,1.4,0.5,2c-0.3-0.3-0.5-0.7-0.8-1
		c0.9,1.6,1.4,3.3,1.5,5.1c-0.6-1.1-1.4-2.1-2.6-2.6c-0.2,0.2,0,0.4,0.1,0.6c1,1.2,1.9,2.5,2.7,3.9"/>
	<g id="XMLID_95_">
		<path id="XMLID_99_" class="st3" d="M177.7,218.8c1.1-1,3.5-4.8,2.2-6.4c-1.8-2.1-2.8,2.2-2.8,3.2c0.4,0,0.8,0,1.3,0
			c0-1.7,0.8-8.5-1.6-9c-0.3-0.1-0.5,0-0.7,0.3c-0.6,1-0.5,2.3-0.3,3.4c0.4-0.1,0.8-0.2,1.2-0.3c-0.4-1.2-2.3-5.5-4.3-4.3
			c-1.9,1.1,1.4,4.5,2.2,5.4c0.3-0.3,0.5-0.7,0.8-1c-0.8-0.5-1.6-1-2.5-1.1c-0.3,0-0.5,0.2-0.6,0.5c-0.3,0.7,0.1,1.1,0.5,1.6
			c1.4,1.8,3,2.9,3.5,5.3c0.1,0.7,1.3,0.5,1.2-0.2c-0.2-2.2-0.1-4.9-1.5-6.7c-0.4-0.5-1.2,0.1-1,0.6c0.2,0.7,0.3,1.4,0.5,2
			c0.3-0.2,0.7-0.4,1-0.6c-0.3-0.3-0.5-0.7-0.8-1c-0.5-0.6-1.3,0.2-1,0.8c0.8,1.6,1.3,3.1,1.4,4.8c0.4-0.1,0.8-0.2,1.2-0.3
			c-0.7-1.3-1.5-2.1-2.8-2.8c-0.3-0.2-0.8,0-0.9,0.4c-0.1,0.6,0,0.6,0.2,1.2c0.5,1.2,1.9,2.5,2.6,3.8c0.4,0.7,1.5,0.1,1.1-0.6
			c-0.2-0.4-2.8-3.7-2.7-4c-0.3,0.1-0.6,0.2-0.9,0.4c1,0.5,1.8,1.4,2.4,2.4c0.3,0.5,1.2,0.3,1.2-0.3c-0.2-2-0.7-3.7-1.6-5.5
			c-0.3,0.3-0.7,0.5-1,0.8c0.3,0.3,0.5,0.7,0.8,1c0.4,0.5,1.2,0,1-0.6c-0.2-0.7-0.3-1.4-0.5-2c-0.3,0.2-0.7,0.4-1,0.6
			c1.2,1.5,1,4,1.2,5.8c0.4-0.1,0.8-0.1,1.2-0.2c-0.2-1.3-0.8-2.3-1.6-3.3c-0.4-0.5-0.9-1-1.3-1.5c-0.6-0.7-0.8-0.8,0.2-0.1
			c0.6,0.4,1.2-0.5,0.8-1c-0.3-0.3-2-2.3-1.8-2.7c0.4-0.6,1.8,2.9,1.8,2.9c0.3,0.8,1.3,0.4,1.2-0.3c-0.1-0.6-0.3-2.3-0.1-0.8
			c0.1,0.9,0.2,1.7,0.2,2.6c0,1.3,0,2.5,0,3.8c0,0.8,1.2,0.8,1.3,0c0-1.8,0.3-1.8,0.1-0.5c-0.2,1.1-0.9,2.1-1.7,2.8
			C176.2,218.5,177.1,219.4,177.7,218.8L177.7,218.8z"/>
	</g>
</g>
<g id="XMLID_64_">
	<path id="XMLID_106_" class="st3" d="M184.4,203.9c0.3-1,0.6-1.9,1-2.8c0-0.1,0.1-0.2,0.2-0.3c0.2-0.1,0.4,0.2,0.5,0.4
		c0.2,0.6,0.4,1.3,0.5,2c0.1,0.1,0.2-0.1,0.3-0.2c0.9-1.7,0.8-3.8,1.7-5.5c0.2-0.3,0.5-0.7,0.8-0.6c0.4,0,0.7,0.5,0.8,1
		c0.3,1.2,0.1,2.5-0.4,3.6c0.7-1.2,1.5-2.5,2.7-3.3c0.4-0.2,0.8-0.4,1.2-0.3c0.4,0.1,0.7,0.4,0.9,0.9c0.3,0.7-0.1,1.6-0.6,2.2
		c-0.5,0.6-1.2,1-1.9,1.3c-1.2,0.6-2.3,1.2-3.5,1.9c1.4-0.3,2.8-0.6,4.3-0.8c0.1,0,0.2,0,0.3,0c0.2,0.1,0.3,0.4,0.2,0.6
		c-0.1,0.8-0.9,1.3-1.7,1.5c-1.4,0.5-2.9,0.5-4.3,0.1c-0.2,0.5,0.6,1,0.3,1.5c-0.2,0.3-0.6,0.3-0.9,0.3c-1.1-0.1-2.1-0.3-3.2-0.4"/>
	<g id="XMLID_101_">
		<path id="XMLID_105_" class="st3" d="M185,204.1c0.4-1.3,0.7-3.2,1.1-0.7c0.1,0.3,0.5,0.5,0.8,0.4c0.8-0.2,1-1.3,1.2-2
			c0.2-0.9,0.2-2,0.7-2.8c1.7-3,0.9,1.5,0.6,2.3c-0.3,0.7,0.8,1.1,1.1,0.5c0.5-0.8,1-1.7,1.7-2.4c0.3-0.2,0.5-0.5,0.8-0.7
			c1.3,0.9,1.3,1.7,0,2.3c-1.4,1-3.1,1.6-4.5,2.4c-0.6,0.3-0.2,1.3,0.5,1.1c0.4-0.1,3.9-1,4.1-0.7c0.1,0.1-1.7,1-2,1.1
			c-1.1,0.3-2.2,0.1-3.2-0.1c-0.4-0.1-0.8,0.2-0.8,0.6c0,0.3,0.2,1.1,0.2,1.1c-0.3,0.3-2.9-0.3-3.3-0.4c-0.8-0.1-0.8,1.2,0,1.3
			c1.1,0.1,3.6,1,4.5,0c0.6-0.7-0.1-1.2-0.1-2c-0.3,0.2-0.5,0.4-0.8,0.6c1.8,0.4,6.5,0.7,6.7-2.1c0.2-2.5-4.5-0.8-5.6-0.5
			c0.2,0.4,0.3,0.8,0.5,1.1c1.9-1,7.6-2.9,6.3-6.2c-1.5-3.5-5.1,1.5-5.9,2.8c0.4,0.2,0.8,0.3,1.1,0.5c0.5-1.2,1.3-5.3-1-5.4
			c-0.9,0-1.4,0.9-1.7,1.6c-0.3,0.8-0.9,4.7-1.3,4.8c0.3,0.1,0.5,0.3,0.8,0.4c-0.2-1-0.3-2.5-1.4-2.8c-0.2-0.1-0.5,0-0.6,0.2
			c-0.7,0.9-1.1,2.2-1.4,3.4C183.5,204.5,184.7,204.9,185,204.1L185,204.1z"/>
	</g>
</g>
<g id="XMLID_54_">
	<g id="XMLID_59_">
		<path id="XMLID_68_" class="st5" d="M138.9,223.1c0.8,0,0.8-1.3,0-1.3C138.1,221.9,138.1,223.1,138.9,223.1L138.9,223.1z"/>
	</g>
</g>
<g id="XMLID_66_">
	<g id="XMLID_88_">
		<path id="XMLID_93_" class="st6" d="M190.4,160.1c1.1-1.8,1.3-7.3-2-7.2c-1.2,0.1-1.6,1.3-1.6,2.4c-0.2,2.2,1.2,4,2.5,5.6
			c0.3,0.4,0.8,0.2,1-0.1c1.1-1.5-0.1-5-0.6-6.6c-0.2-0.6-1.1-0.6-1.2,0c-0.3,1.6-0.3,3,0.3,4.5c0.3,0.8,1.4,0.5,1.2-0.3
			c-0.3-1.3-0.6-2.4-1.1-3.6c-0.2-0.6-1.3-0.6-1.2,0.2c0.1,1.8,0.4,5.3,2.4,6c0.2,0.1,0.5,0,0.6-0.2c1-1,0.8-2.4,1.9-3.5
			c1.3-1.4,4-0.2,0.9,2c-0.9,0.6-2.3,0.8-3.4,1.1c0.2,0.3,0.5,0.6,0.7,0.9c1.2-1.6,3.3-2.8,4.7-4.4c0.5-0.6-0.3-1.5-0.9-0.9
			c-1,1.1-1.9,2.2-2.7,3.5c-0.3,0.6,0.5,1.3,1,0.8c0.6-0.6,1.1-1.2,1.7-1.9c-0.3-0.3-0.7-0.5-1-0.8c-1.1,1.7-2.8,1.4-4.2,2.5
			c-0.2,0.2-0.2,0.5-0.1,0.8c0.4,0.9,1,0.8,1.9,1c0.5,0.1,3.7,0.1,1.3,0.9c-0.9,0.9-1.6,0.6-2-0.8c-0.3-0.5-0.6-1.1-0.8-1.6
			c-0.3,0.3-0.6,0.6-0.9,0.9c1.1,0.5,1.8,1.8,2.8,2.5c0.8,0.5,1.6,0.7,2.5,0.9c0.6,0.1,0.7-0.7,0.4-1.1c-0.9-1.1-1.9-1.8-3.2-2.4
			c-0.3-0.2-0.8-0.1-0.9,0.4c-0.4,1.7,2.5,2.8,3.8,3.1c0.4,0.1,0.8-0.2,0.8-0.6c0.1-2.1-3.5-3-5.1-3.6c-0.6-0.2-0.9,0.5-0.7,0.9
			c1.6,2.4,0.9,3.4-2.1,3.1c0-0.9,0.3-1.8,0.8-2.6c0.8-1,1.3-1.3,0.3,0.9c-0.6,1.4-1,2.5-0.7,4.1c0.1,0.6,0.9,0.5,1.1,0.1
			c1.2-1.5,1.6-3.1,1.6-5c0-0.6-0.9-0.9-1.2-0.3c-0.7,1.2-1,2.4-1.1,3.8c0,0.8,1.2,0.8,1.3,0c0.1-1.1,1-4.2-0.7-4.6
			c-0.9-0.2-1.4,0.6-1.5,1.5c0,0.3,0.2,0.5,0.5,0.6c2.6,0.7,1.6-3.6,0.5-4.6c-1.4-1.3-4.6-2-5.1,0.6c-0.4,2.2,2.7,4.3,4.7,3.6
			c3.1-1.1-1.3-3.8-2.5-4.3c-0.7-0.3-1.1,0.8-0.5,1.1c0.8,0.5,1.6,0.9,2.3,1.4c0.6,0.4,1.3-0.5,0.8-1c-1-0.8-1.8-1-3.1-0.7
			c-0.4,0.1-0.6,0.6-0.4,0.9c0.7,1,1.3,1.5,2.5,1.8c0.6,0.1,0.9-0.4,0.7-0.9c-0.5-1-1.3-1.8-2.5-1.7c-0.3,0-0.5,0.2-0.6,0.5
			c-0.3,0.8,0.1,1.3,0.6,2c0,0,2.5,2.4,2.4,2.5c0.3,0.1,0.6,0.2,0.9,0.4c-0.1-0.5-0.2-1-0.3-1.5c-0.1-0.6-1.1-0.6-1.2,0
			c-0.1,0.6-0.1,0.7,0,1.3c0.2,0.8,1.4,0.4,1.2-0.3c0-0.2,0-0.4,0-0.7c-0.4,0-0.8,0-1.2,0c0.1,0.5,0.2,1,0.3,1.5
			c0.1,0.4,0.6,0.6,0.9,0.4c0.6-0.5,0.9-0.8,0.7-1.7c-0.1-0.3-0.4-0.5-0.6-0.8c-0.6-0.4-1.1-0.8-1.6-1.3c-1.2-1.5-1.3-1.5-0.2,0
			c0.2-0.3,0.5-0.6,0.7-0.9c-0.6-0.4-1.2-0.8-1.8-1.2c-0.1,0.3-0.2,0.6-0.4,0.9c0.6,0.1,1.3,0.3,1.9,0.4c0.3-0.3,0.5-0.7,0.8-1
			c-0.8-0.5-1.6-0.9-2.3-1.4c-0.2,0.4-0.3,0.8-0.5,1.1c1.1,0.1,1.7,0.7,1.7,1.8c-1.3-0.1-1.5-1-0.7-2.8c1.9,1.5,2.6,3.2,2.3,5.1
			c-0.1,0.6-0.1,1.3-0.2,1.9c0.4,0,0.8,0,1.3,0c0-1.1,0.3-2.2,0.9-3.1c-0.4-0.1-0.8-0.2-1.2-0.3c0,1.7-0.4,3-1.4,4.4
			c0.4,0,0.8,0.1,1.1,0.1c-0.4-2.1,2-4,1.5-5.9c-0.2-0.7-0.6-1.2-1.3-1.2c-2-0.1-3.2,3.6-3.1,5.1c0.1,1.7,1.4,3.9,3.3,3.2
			c2.9-1,2-5,1.1-7c-0.2,0.3-0.5,0.6-0.7,0.9c0.5,0.2,4.3,1.4,4.2,2.4c0.3-0.2,0.5-0.4,0.8-0.6c-0.4-0.1-3-1-2.9-1.6
			c-0.3,0.1-0.6,0.2-0.9,0.4c1.2,0.5,2.1,1.2,3,2.2c0.1-0.4,0.3-0.7,0.4-1.1c-2.5-0.3-2.8-2.3-4.7-3.2c-0.6-0.3-1.1,0.3-0.9,0.9
			c0.9,1.9,2.1,4,4.4,4.3c1.4,0.2,3-0.3,3-1.9c0-1.9-2.4-2.4-3.8-2.7c-2.7-0.4-1,0,0.4-0.7c0.9-0.4,1.5-1,2.1-1.8
			c0.4-0.6-0.5-1.3-1-0.8c-0.6,0.6-1.1,1.2-1.7,1.9c0.3,0.3,0.7,0.5,1,0.8c0.7-1.2,1.5-2.2,2.5-3.2c-0.3-0.3-0.6-0.6-0.9-0.9
			c-1.5,1.7-3.6,2.8-4.9,4.6c-0.3,0.5,0.2,1,0.7,0.9c2-0.4,4.4-1,5.5-3c0.6-1.1,0.8-2.7-0.4-3.5c-1.3-0.8-3.2,0.7-4,1.6
			c-0.6,0.7-0.7,1.3-1.1,2.1c-0.1,0.3-0.1,0.5-0.1,0.8c-0.2-0.5-0.4-1-0.7-1.4c-0.4-1.1-0.6-2.1-0.6-3.2c-0.4,0.1-0.8,0.1-1.2,0.2
			c0.5,1.2,0.8,2.4,1.1,3.6c0.4-0.1,0.8-0.2,1.2-0.3c-0.5-1.3-0.6-2.5-0.3-3.8c-0.4,0-0.8,0-1.2,0c0.4,1.3,1.6,4.4,0.7,5.6
			c0.3,0,0.7-0.1,1-0.1c-0.6-0.8-3.6-4.3-1.3-4.5c1-0.6,1.5-0.1,1.3,1.5c0,0.9-0.2,1.7-0.7,2.4C188.9,160.1,190,160.8,190.4,160.1
			L190.4,160.1z"/>
	</g>
</g>
<g id="XMLID_70_">
	<g id="XMLID_82_">
		<path id="XMLID_86_" class="st6" d="M191.4,182.6c1.7-0.7,4.4-5,2.1-6.4c-1-0.6-2,0.4-2.6,1.2c-0.9,1.3-1,3-0.4,4.5
			c0.2,0.5,0.9,0.7,1.1,0.1c0.8-1.3,1.4-2.7,1.8-4.1c0.2-0.7-0.8-1.1-1.1-0.5c-0.6,1.1-1.1,2.1-1.4,3.3c0.2-0.2,0.4-0.3,0.6-0.5
			c-1.2,0-1.7,0.8-1.5,2c0.4-0.1,0.8-0.1,1.2-0.2c-0.4-1.6-3.6-6.4-5.3-3.5c-1.4,2.5,2.2,4.9,4.4,4.1c0.3-0.1,0.4-0.3,0.5-0.6
			c0.1-1.5-2.5-2.8-3.6-3.4c-0.5-0.3-1.3,0.3-0.9,0.9c0.8,1.1,1.8,2,2.9,2.8c0.5,0.4,1.2-0.3,0.9-0.9c-0.5-0.8-1-1.3-1.8-1.7
			c-0.6-0.3-1.2,0.4-0.8,1c0.9,1.1,2.1,1.9,3.6,2c0.3,0,0.5,0,0.8,0c0.3,0,0.5-0.1,0.8-0.1c0.4,0.2,0.8,0.5,1.2,0.7
			c-0.6,0.4-3-1.4-3.4-1.8c-0.3,0.3-0.5,0.7-0.8,1c1,0.5,5.8,3,6.3,0.7c0.5-2.2-3.9-2.2-5-1.9c-0.4,0.1-0.6,0.7-0.3,1
			c1.3,1.1,2.7,1.7,4.5,1.6c0.5,0,0.8-0.5,0.5-0.9c-0.9-1.6-4-2.4-5.8-2.3c-0.3,0-0.5,0.2-0.6,0.5c-0.3,0.9,0.4,1.4,1.1,2
			c0.3,0.2,0.5,0.5,0.8,0.7c1,0.6,1,1.3-0.1,2c-0.9-0.2-0.8-3.1-0.7-3.7c-0.4,0.1-0.8,0.1-1.2,0.2c0.5,1.7-0.1,3.5,1.4,4.9
			c0.2,0.2,0.5,0.2,0.8,0.1c2.4-1.1,0.5-3.6-0.9-4.6c-0.5-0.3-1,0.2-0.9,0.7c0.3,1.3,0.9,2.1,2,2.8c0.5,0.3,1-0.2,0.9-0.7
			c-0.3-1.3-0.8-2.4-1.8-3.4c-0.2-0.2-0.7-0.3-0.9,0c-0.6,0.8-1.7,2-2.8,2c-0.8,0-0.7-0.1,0.1-0.7c0.8-0.7,1.6-0.8,2.6-0.3
			c-0.1-0.3-0.2-0.6-0.4-0.9c-0.5,0.7-4.9,0.6-3.5,2.9c1.1,1.7,4.1-0.8,4.9-1.6c0.5-0.5,0-1.2-0.6-1c-1.9,0.4-3.3,1.5-4.7,2.8
			c0.3,0.2,0.7,0.4,1,0.6c0.4-1.4,1-2.6,1.8-3.9c0.4-0.7-0.6-1.3-1.1-0.6c-0.7,1-1.5,2-1.6,3.3c0,0.3,0.2,0.5,0.5,0.6
			c1.1,0.4,2.7-2,3.1-1.7c-0.1-0.2-0.2-0.5-0.3-0.7c-0.1,0.3-1.8,2.8-2.1,2.4c-0.3-0.5,1.5-2.5,1.8-2.8c0.6-0.6-0.3-1.5-0.9-0.9
			c-0.8,0.9-3.4,3.8-1.6,4.9c1.6,1,3.7-2,4-3.2c0.1-0.3,0-0.6-0.3-0.7c-1.4-0.8-2.5,2-3.4,1.6c0.2,0.2,0.3,0.4,0.5,0.6
			c0.1-0.9,0.9-1.9,1.5-2.6c-0.4-0.2-0.7-0.4-1.1-0.6c-0.8,1.3-1.4,2.7-1.9,4.2c-0.2,0.6,0.6,1,1,0.6c1.3-1.1,2.5-2.1,4.2-2.4
			c-0.2-0.3-0.4-0.7-0.6-1c-0.3,0.3-0.6,0.6-1,0.9c-0.5,0.4-1,0.7-1.6,0.9c0.3-0.6,1.1-0.5,1.7-0.6c0.7-0.2,1.1-0.3,1.5-0.9
			c0.2-0.4,0-0.8-0.4-0.9c-2.1-0.9-5.7,0.4-5.1,3.2c0,0.2,0.2,0.4,0.4,0.4c2,0.5,4.2-1.1,5.3-2.5c-0.3,0-0.6,0-0.9,0
			c0.8,0.8,1.2,1.7,1.5,2.8c0.3-0.2,0.6-0.5,0.9-0.7c-0.8-0.5-1.3-1.1-1.4-2c-0.3,0.2-0.6,0.5-0.9,0.7c0.3,0.8,0.6,1.6,0.9,2.4
			c0.3,0,0.5,0.1,0.8,0.1c-1.2-1.1-0.6-2.9-1.1-4.3c-0.2-0.7-1.2-0.5-1.2,0.2c-0.2,1.6,0.8,7,3.5,5.6c0.9-0.5,1.1-1.6,0.9-2.5
			c-0.1-0.6-0.5-1.2-0.8-1.7c-0.2-0.3-2.2-1.9-2.1-2.1c-0.2,0.2-0.4,0.3-0.6,0.5c1.2-0.1,4.1,0.7,4.7,1.7c0.2-0.3,0.4-0.6,0.5-0.9
			c-1.4,0-2.5-0.4-3.6-1.3C191.6,181.9,191.5,182.3,191.4,182.6c0.6-0.2,1.3-0.2,2,0c1.1,0.3,1.3,0.4,0.5,0.3
			c-1.2-0.1-2.4-0.8-3.4-1.3c-0.6-0.3-1.3,0.5-0.8,1c1.1,1.1,5.5,3.8,6.3,1c0.3-1-0.4-1.8-1.3-2.1c-0.5-0.2-1-0.1-1.5-0.1
			c-2,0.1-3.3,0.2-4.7-1.4c-0.3,0.3-0.5,0.7-0.8,1c0.6,0.2,1,0.6,1.3,1.2c0.3-0.3,0.6-0.6,0.9-0.9c-1-0.7-1.7-1.5-2.5-2.4
			c-0.3,0.3-0.6,0.6-0.9,0.9c0.5,0.3,3,1.5,2.9,2.3c0.2-0.2,0.3-0.4,0.5-0.6c-1.1,0.4-1.7,0-1.7-1.2c-0.8-1.4-0.6-1.5,0.4-0.5
			c0.7,0.7,1.1,1.6,1.3,2.5c0.2,0.7,1.3,0.5,1.2-0.2c0.1-0.2,0.2-0.5,0.3-0.7c0.3,0,0.5-0.2,0.6-0.5c0.3-1.1,0.7-2,1.3-3
			c-0.4-0.2-0.8-0.3-1.1-0.5c-0.5,1.3-1,2.6-1.7,3.8c0.4,0,0.8,0.1,1.1,0.1c-0.2-0.6-0.8-2.8,0.1-3.3c1.2,0.3,1.3,0.8,0.6,1.7
			c-0.3,0.6-0.7,1.1-1.3,1.4C190.4,181.7,190.7,182.9,191.4,182.6L191.4,182.6z"/>
	</g>
</g>
<g id="XMLID_72_">
	<g id="XMLID_75_">
		<path id="XMLID_80_" class="st6" d="M170.9,171.8c0.1-1.2,0.2-3.5-1.5-3.8c-1.4-0.2-1.8,1.5-1.5,2.6c0.2,0.9,1.5,2.7,2.6,1.7
			c1-0.9-0.5-2.7-1.1-3.4c-0.4-0.5-1.1,0.1-1,0.6c0.2,1.2,0.7,2.1,1.5,2.9c0.2,0.2,0.7,0.2,0.9,0c0.4-0.5,0.7-1,1-1.6
			c0.1-0.1,0.2-0.3,0.3-0.4c0.3-0.5,0.5-0.3,0.5,0.8c-0.2,0.5-1.4,0.5-1.8,0.5c0.1,0.4,0.3,0.7,0.4,1.1c0.3-0.3,1.2-1.5,1.6-1.4
			c-0.2-0.2-0.3-0.4-0.5-0.6c0,0.1-1.4,0.6-1.6,1.1c-0.2,0.5,0,0.9,0.3,1.2c0.3-0.3,0.5-0.7,0.8-1c-1.3-0.6-3.3-1.3-4.6-0.3
			c-1,0.8-0.9,2.3,0.5,2.5c0.9,0.1,3.5-0.4,3.6-1.7c0.2-1.7-2.3-0.7-3-0.5c-0.5,0.2-0.6,1.1,0,1.2c1,0.2,1.8,0.1,2.6-0.4
			c-0.3-0.3-0.6-0.6-0.9-0.9c-0.6,1-1.9,3.3-0.6,4.3c1.4,1.1,2.4-1.2,2.5-2.2c0.1-0.6,0.1-3.6-1.5-2.7c-1,0.6-0.9,3,0.2,3.4
			c0.2,0.1,0.5,0,0.6-0.2c0.7-0.7,0.7-1.6,0.6-2.5c0-0.3-0.4-0.5-0.6-0.5c-0.7,0-1.2,0.9-0.6,1.4c0.4,0.3,0.7,0.2,1.1,0.1
			c0.4-0.1,0.2-0.3,0.8-0.2c0.4,0,0.7,0.2,1,0.5c-0.6,0.1-1-0.1-1.1-0.6c-0.2,0.3-0.4,0.6-0.5,0.9c0.4,0,0.8,0.1,1.2,0.2
			c0.7,0.2,1.1-0.8,0.5-1.1c-0.9-0.4-1.9-0.7-2.9-0.8c-0.8-0.1-0.8,1.2,0,1.3c0.8,0.1,1.5,0.3,2.3,0.6c0.2-0.4,0.3-0.8,0.5-1.1
			c-0.5-0.1-1-0.2-1.5-0.3c-0.5,0-0.7,0.5-0.5,0.9c0.4,0.9,1.2,1.7,2.3,1.7c0.7,0,1.5-0.5,1.5-1.3c0-0.9-1-1.6-1.7-2
			c-0.4-0.2-0.8-0.4-1.2-0.3c0,0-1,0.5-0.9,0.5c0.1,0.1,0.3,0.3,0.4,0.4c0,0.1,0,0.1,0,0.2c-0.2,0.1-0.4,0.2-0.5,0.3
			c0,0,0.1,0,0.1,0c-0.2-0.2-0.4-0.3-0.6-0.5c-0.1,0.4-0.2,0.9-0.2,1.3c0.2-0.1,0.4-0.1,0.6-0.2c-0.1,0-0.1-0.1-0.2-0.1
			c0.1,0.1,0.3,0.3,0.4,0.4c-0.2-0.6-0.1-1.1,0.1-1.7c-0.2,0.1-0.4,0.2-0.5,0.3c-0.2,0,0.3,2.2-0.6,2.2c0,0,0.8-1.9,0.9-2.1
			c0.3-0.5-0.3-1.2-0.9-0.9c-0.5,0.4-1.1,0.5-1.7,0.3c0,0.4,0,0.8,0,1.2c0.4-0.1,1.3-0.6,1.8-0.4c-0.1-0.1-0.3-0.3-0.4-0.4
			c0.1,0.2-2.6,0.8-1.4,0.1c0.6-0.3,2.1,0.4,2.6,0.6c0.6,0.3,1.3-0.4,0.8-1c0.2,0.2,1.1-0.3,1.3-0.5c0.3-0.3,0.4-0.6,0.3-1
			c0-0.3-0.2-0.5-0.5-0.6c-1.1-0.3-2.2,1-2.8,1.7c-0.4,0.4-0.1,1,0.4,1.1c1.8,0.1,4.4-1.5,3.2-3.6c-0.4-0.7-1.1-0.9-1.9-0.6
			c-1.2,0.5-1.4,1.9-2.2,2.7c0.3,0,0.6,0,0.9,0c-0.7-0.7-1-1.4-1.2-2.4c-0.3,0.2-0.7,0.4-1,0.6c0.3,0.4,0.6,0.9,0.8,1.3
			c0.5,0.8-0.2-0.7-0.3-0.8c-0.1-0.5,0-1.2,0.5-0.5c0.3,0.4,0.1,1.6,0.1,2C169.6,172.6,170.8,172.6,170.9,171.8L170.9,171.8z"/>
	</g>
</g>
<g id="XMLID_118_">
	<g id="XMLID_18_">
		<path id="XMLID_48_" class="st5" d="M141.1,227.5c0.8,0,0.8-1.3,0-1.3C140.3,226.2,140.3,227.5,141.1,227.5L141.1,227.5z"/>
	</g>
</g>
<g id="XMLID_133_">
	<g id="XMLID_50_">
		<path id="XMLID_56_" class="st6" d="M165.3,207.7c0.5-2,0-4.8-2.1-5.8c-2.2-1-3.5,1.1-3,3.1c0.4,1.5,2.1,4.2,4.1,3.3
			c2.3-1.1-0.9-4.5-1.7-5.5c-0.4-0.5-1.4-0.3-1.1,0.5c0.5,1.4,1.1,2.5,1.9,3.7c0.4,0.5,1.4,0.2,1.1-0.5c-0.4-1-1-1.9-1.8-2.7
			c-0.4-0.4-1.2,0-1,0.6c0.4,1.3,1.1,3,2.4,3.7c0.3,0.1,0.6,0.1,0.8-0.1c0.7-0.7,0.9-1.8,1.5-2.6c0.1-0.2,0.2-0.4,0.3-0.6
			c0.3-0.8,0.8-0.4,1.5,1c-0.3,0.9-2.5,1.1-3.2,1.1c0.1,0.4,0.3,0.7,0.4,1.1c1.1-1.1,2.2-2.2,3.3-3.3c-0.4-0.1-0.7-0.3-1.1-0.4
			c0.3,2.5-2.5,1.9-3.3,3.2c-0.3,0.5-0.3,1,0.1,1.4c0.4,0.4,0.7,0.3,1.2,0.3c0.3-0.1,0.6-0.1,0.8-0.2c1.3,2.6,1.3,3.3,0.3,2.3
			c-1.2-0.8-1.7-2.2-1.8-3.5c-0.3,0.2-0.6,0.4-0.9,0.5c1.4,0.6,2.6,3.3,4.2,3.2c0.3,0,0.5-0.2,0.6-0.5c0.4-1.3-1.6-3.7-3-2.7
			c-1.6,1.3,1.4,3.2,2.4,3.5c0.4,0.1,0.8-0.2,0.8-0.6c-0.2-1.3-0.5-2.5-1.4-3.6c-1.3-1.5-4.4-2-4.8-4.1c-0.1-0.7-1-0.5-1.2,0
			c-0.3,0.9-0.2,1.4,0.3,2.2c0.1,0.2,2.2,2,2.1,2.3c0.3,0,0.7-0.1,1-0.1c-1.4-1.3-4.1-2.1-5.8-0.9c-1.5,1.1-1,3.1,0.7,3.5
			c1.1,0.3,5-0.1,4.8-1.9c-0.2-1.8-3.7-0.9-4.6-0.5c-0.5,0.2-0.6,0.8-0.1,1.1c1.2,0.7,2.3,0.7,3.5,0c0.4-0.3,0.4-1-0.1-1.1
			c-1-0.3-2-0.3-3-0.1c-0.8,0.2-0.5,1.1,0.2,1.2c1.2,0.2,2.4,0.2,3.6,0.2c-0.1-0.4-0.3-0.7-0.4-1.1c-1.1,1.1-4,4.4-1.6,5.7
			c1.5,0.8,3.1-1.1,3.5-2.4c0.3-1.1,0.1-4.2-1.7-4.1c-2.1,0.1-1.5,4-0.8,5.1c0.1,0.2,0.3,0.3,0.5,0.3c1.7-0.2,2.7-3.4,0.9-4.1
			c-1.8-0.7-2.4,2.7-1.3,3.7c0.3,0.3,0.8,0.2,1-0.1c0.5-0.9,0.6-1.6,0.5-2.7c-0.1-0.7-1-0.9-1.2-0.2c-0.2,0.6-0.4,1.1-0.7,1.7
			c0.3,0.1,0.7,0.2,1,0.3c0,0,0-0.1,0-0.1c-0.1,0.3-0.3,0.5-0.4,0.8c0,0,0.1,0,0.1,0c0.7-0.3,0.4-1.5-0.3-1.2c0,0-0.1,0-0.1,0
			c-0.3,0.1-0.6,0.4-0.4,0.8c0,0,0,0.1,0,0.1c0.2,0.4,0.7,0.6,1,0.3c0.6-0.6,0.7-1.5,1-2.2c-0.4-0.1-0.8-0.1-1.2-0.2
			c0.2,0.7,0.1,1.4-0.3,2c0.3,0,0.7-0.1,1-0.1c-0.9-1-0.7-1.5,0.3-1.4c0,0.9-0.2,1.6-0.8,2.2c-2.2,0,0.9-3.3,1-3.4
			c0.4-0.4,0.1-1.1-0.4-1.1c-1.2,0-2.4-0.1-3.6-0.2c0.1,0.4,0.1,0.8,0.2,1.2c0.8-0.2,1.6-0.2,2.4,0.1c0-0.4-0.1-0.8-0.1-1.1
			c-0.7,0-1.5,0-2.2,0c0,0.4-0.1,0.8-0.1,1.1c0.6-0.2,1.2-0.4,1.8-0.5c2.3-0.1,0.1,0.8-0.9,0.4c-0.8,0.3-1,0.1-0.5-0.7
			c-0.1-0.8,0.2-1,0.8-0.8c0.8-0.1,2,0.6,2.4,1c0.3,0.3,0.8,0.2,1-0.1c1.4-2.1-3.1-2.6-2.3-4.8c-0.4,0-0.8,0-1.2,0
			c0.2,1,0.7,1.7,1.6,2.3c2.1,1.5,4.2,2,4.6,5c0.3-0.2,0.5-0.4,0.8-0.6c-0.4-0.2-0.9-0.4-1.3-0.7c-0.3-0.3-0.3-0.4,0-0.2
			c0.4,0.1,0.4,0.1,0.1-0.2c-0.2-0.2-0.4-0.5-0.6-0.7c-0.6-0.7-1.2-1.2-2.1-1.6c-0.4-0.2-1,0-0.9,0.5c0.3,2.4,3.7,7.9,6.5,4.6
			c0.8-1,0.6-2.6-0.1-3.5c-0.5-0.6-1.2-1-2-1.2c-0.5-0.1-1,0.1-1.4,0.1c-0.9-0.1-0.2-0.1,0.4-0.5c0.8-0.6,2.1-1.7,1.1-2.7
			c-0.7-0.7-1.8-0.3-2.2,0.4c-0.5,0.9-0.2,2.1,1,2.1c1.5,0,2.3-1.6,2.1-2.9c-0.1-0.5-0.7-0.9-1.1-0.4c-1.1,1.1-2.2,2.2-3.3,3.3
			c-0.4,0.4-0.1,1.1,0.4,1.1c2.3,0.1,6.8-2.2,4.7-5.1c-2.5-3.5-4.7,3-5.7,4c0.3,0,0.5-0.1,0.8-0.1c-0.9-0.5-1.5-2.1-1.8-3
			c-0.3,0.2-0.7,0.4-1,0.6c0.7,0.6,1.1,1.3,1.4,2.2c0.4-0.2,0.8-0.3,1.1-0.5c-0.8-1.1-1.4-2.1-1.8-3.4c-0.4,0.2-0.8,0.3-1.1,0.5
			c0.4,0.5,2.9,3.5,1.4,3.6c-0.3-0.3-0.6-0.7-1-1c-0.9-1.2-0.3-1.8,1.8-1.9c0.7,0.7,0.5,2.4,0.4,3.2
			C163.9,208.1,165.1,208.5,165.3,207.7L165.3,207.7z"/>
	</g>
</g>
<path id="XMLID_69_" class="st7" d="M200.5,243.8v17.4c0,3-2.1,5.4-4.7,5.4h-33.2c-2.6,0-4.7-2.4-4.7-5.4v-17.4"/>
<g id="XMLID_67_">
	<g id="XMLID_42_">
		<path id="XMLID_46_" class="st5" d="M190.2,183.1c0.8,0,0.8-1.3,0-1.3C189.4,181.8,189.4,183.1,190.2,183.1L190.2,183.1z"/>
	</g>
</g>
<g id="XMLID_71_">
	<g id="XMLID_36_">
		<path id="XMLID_40_" class="st5" d="M189.3,161.2c0.8,0,0.8-1.3,0-1.3C188.5,160,188.5,161.2,189.3,161.2L189.3,161.2z"/>
	</g>
</g>
<g id="XMLID_73_">
	<g id="XMLID_30_">
		<path id="XMLID_34_" class="st5" d="M170.3,173.3c0.8,0,0.8-1.3,0-1.3C169.5,172.1,169.5,173.3,170.3,173.3L170.3,173.3z"/>
	</g>
</g>
<g id="XMLID_79_">
	<g id="XMLID_22_">
		<path id="XMLID_28_" class="st5" d="M164.7,209.2c0.8,0,0.8-1.3,0-1.3C163.8,208,163.8,209.2,164.7,209.2L164.7,209.2z"/>
	</g>
</g>
</svg>
