<?xml version="1.0" encoding="UTF-8" standalone="no"?>
<svg
   xmlns:dc="http://purl.org/dc/elements/1.1/"
   xmlns:cc="http://creativecommons.org/ns#"
   xmlns:rdf="http://www.w3.org/1999/02/22-rdf-syntax-ns#"
   xmlns:svg="http://www.w3.org/2000/svg"
   xmlns="http://www.w3.org/2000/svg"
   xmlns:sodipodi="http://sodipodi.sourceforge.net/DTD/sodipodi-0.dtd"
   xmlns:inkscape="http://www.inkscape.org/namespaces/inkscape"
   id="Layer_1"
   x="0"
   y="0"
   version="1.1"
   viewBox="0 0 423.75308 295.71924"
   xml:space="preserve"
   sodipodi:docname="n2o.svg"
   width="423.75308"
   height="295.71924"
   inkscape:version="1.0.1 (3bc2e813f5, 2020-09-07)"><metadata
     id="metadata2570"><rdf:RDF><cc:Work
         rdf:about=""><dc:format>image/svg+xml</dc:format><dc:type
           rdf:resource="http://purl.org/dc/dcmitype/StillImage" /></cc:Work></rdf:RDF></metadata><sodipodi:namedview
     pagecolor="#ffffff"
     bordercolor="#666666"
     borderopacity="1"
     objecttolerance="10"
     gridtolerance="10"
     guidetolerance="10"
     inkscape:pageopacity="0"
     inkscape:pageshadow="2"
     inkscape:window-width="1517"
     inkscape:window-height="1080"
     id="namedview2568"
     showgrid="false"
     inkscape:zoom="1.766"
     inkscape:cx="206.55287"
     inkscape:cy="191.17253"
     inkscape:window-x="1940"
     inkscape:window-y="36"
     inkscape:window-maximized="0"
     inkscape:current-layer="Layer_1"
     inkscape:document-rotation="0" /><defs
     id="defs2559" /><style
     id="style2561">.st0{fill:#0c592e}</style><path
     d="m 28.062871,141.49253 c -28.38999999,13.27 -32.4299999,52.33 -24.4599999,79.04 8.4199999,28.2 32.7799999,51.09 63.5999999,48.37 15.62,-1.37 30.01,-8.68 38.589999,-22.07 -3.14,0.4 -6.279999,0.81 -9.419999,1.21 22.899999,23.11 49.679999,48.42 84.539999,47.66 29.47,-0.64 58.33,-18.76 70.13,-46.03 -3.14,0.4 -6.28,0.81 -9.42,1.21 21.64,17.73 49.91,28.26 78.08,24.71 26.06,-3.28 49.41,-19.32 60.87,-43.18 6.35,-13.22 8.56,-27.58 5.85,-42.03 -1.4,2.46 -2.79,4.92 -4.19,7.38 35.87,-14.92 47.09,-61.33 39.05,-96.21 -8.2,-35.549997 -37.34,-61.939997 -74.23,-63.469997 -19.6,-0.81 -39.29,5.87 -53.26,19.84 3.41,1.41 6.83,2.83 10.24,4.24 -0.02,-16.16 -8.17,-31.33 -20.46,-41.61 -13.52,-11.3099997 -30.63,-16.6499997 -47.85,-18.9999997 -34.81,-4.75 -72.23,1.01 -100.69,22.6899997 -14.33,10.92 -25.4,24.97 -32.29,41.64 3.34,-0.88 6.69,-1.77 10.03,-2.65 -24.069999,-18.81 -60.339999,-11.75 -81.989999,7.62 -21.2299999,19 -26.3299999,53.379997 -5.99,74.979997 5.31,5.63 13.78,-2.87 8.49,-8.49 -16.03,-17.01 -10.22,-43.479997 5.97,-57.989997 16.22,-14.54 46.47,-22.11 65.019999,-7.62 3.79,2.96 8.2,1.79 10.03,-2.65 10.84,-26.23 35.43,-44.55 62.19,-52.21 15.29,-4.38 31.25,-5.61 47.09,-4.56 15.12,1 30.75,3.93 44,11.62 13.73,7.97 24.42,21.87 24.44,38.23 0.01,5.2 6.56,7.92 10.24,4.24 21.04,-21.02 56.34,-21.01 80.09,-4.57 25.45,17.61 34.08,52.919997 27.21,81.899997 -4.01,16.94 -13.64,35.44 -30.53,42.47 -3.2,1.33 -4.86,3.84 -4.19,7.38 5.16,27.48 -13.95,55.51 -39.04,65.7 -28.7,11.66 -62.51,2.12 -85.7,-16.89 -2.63,-2.15 -7.74,-2.67 -9.42,1.21 -10.35,23.93 -35.02,40.06 -61.13,40.11 -30.84,0.05 -54.48,-23.76 -74.69,-44.16 -2.81,-2.84 -7.359999,-2 -9.419999,1.21 -12.02,18.75 -39.78,20.71 -57.4,9.17 -20.65,-13.53 -29.1799999,-42.08 -25.25,-65.63 2.24,-13.41 8.52,-26.47 21.33,-32.46 6.99,-3.26 0.9,-13.61 -6.06,-10.35 z"
     class="st0"
     id="path2563" /><path
     d="m 110.78287,194.40253 c -1.51,-29.51 1.15,-58.93 8.06,-87.66 -3.34,0.88 -6.69,1.77 -10.03,2.65 18.06,22.11 26.8,50.02 42.8,73.46 5.16,7.57 20.36,30.36 29.29,14.32 1.67,-3 2.01,-6.53 2.56,-9.85 0.75,-4.49 1.45,-8.99 2.11,-13.5 1.24,-8.58 2.33,-17.19 3.22,-25.81 2.09,-20.07 3.15,-40.23 3.27,-60.399997 0.05,-7.72 -11.95,-7.73 -12,0 -0.12,20.179997 -1.18,40.329997 -3.27,60.399997 -1.02,9.82 -2.29,19.62 -3.81,29.38 -0.4,2.57 -0.82,5.14 -1.25,7.71 -0.2,1.2 -1.09,3.81 -0.92,5.06 -0.7,1.54 -0.05,1.55 1.96,0.04 -0.72,-0.76 -1.44,-1.52 -2.14,-2.3 -1.39,-1.55 -2.75,-3.14 -4.04,-4.78 -19.96,-25.22 -28.86,-57.21 -49.29,-82.22 -2.87,-3.519997 -9.04,-1.459997 -10.03,2.65 -7.15,29.72 -10.049999,60.32 -8.489999,90.85 0.4,7.68 12.399999,7.73 11.999999,0 z m 91.88,-12.64 c 0.2,-0.19 0.41,-0.39 0.61,-0.58 -6.74,4.09 -0.86,13.48 6.06,10.36 1.37,-0.62 2.82,-0.85 4.32,-0.74 0.39,0.03 2.66,0.74 1.98,-0.06 -0.58,-0.69 -0.63,1.66 -0.88,2.52 -0.38,1.3 -0.88,2.57 -1.44,3.8 -2.17,4.74 -5.31,8.69 -9.14,12.17 -3.19,2.9 -1.74,9.19 2.65,10.03 9.82,1.87 19.47,1.8 29.25,-0.29 7.55,-1.61 4.35,-13.18 -3.19,-11.57 -7.58,1.62 -15.25,1.74 -22.87,0.29 0.88,3.34 1.77,6.69 2.65,10.03 7.13,-6.48 14.92,-17.31 14.81,-27.44 -0.14,-12.56 -15.75,-12.91 -24.19,-9.11 2.02,3.45 4.04,6.91 6.06,10.36 1.66,-1.01 2.71,-2.04 3.7,-3.72 3.89,-6.68 -6.48,-12.72 -10.38,-6.05 z m 112.67,-78.12 c -4.28,-8.779997 -14.78,-11.239997 -23.72,-9.539997 -9.78,1.85 -18.24,8.519997 -24.08,16.329997 -12.46,16.68 -14.78,43.22 -7.17,62.43 8.1,20.46 28.85,29.03 49.78,23.96 19.52,-4.73 35.51,-20.92 37.96,-41.09 3.09,-25.49 -13.62,-47.6 -34.99,-59.429997 -6.76,-3.74 -12.82,6.619997 -6.06,10.359997 13.98,7.74 25.77,19.87 28.8,36.05 2.99,15.98 -4.75,30.92 -18.81,38.65 -12.81,7.04 -31.64,7.65 -41.26,-4.99 -9.37,-12.31 -9.11,-31.75 -4.92,-45.9 2.46,-8.31 7.28,-16.24 14.69,-21 5.18,-3.33 15.81,-7.19 19.42,0.22 3.39,6.95 13.74,0.87 10.36,-6.05 z"
     class="st0"
     id="path2565" /></svg>
