<?xml version="1.0" encoding="UTF-8" standalone="no"?>
<svg
   xmlns:dc="http://purl.org/dc/elements/1.1/"
   xmlns:cc="http://creativecommons.org/ns#"
   xmlns:rdf="http://www.w3.org/1999/02/22-rdf-syntax-ns#"
   xmlns:svg="http://www.w3.org/2000/svg"
   xmlns="http://www.w3.org/2000/svg"
   xmlns:sodipodi="http://sodipodi.sourceforge.net/DTD/sodipodi-0.dtd"
   xmlns:inkscape="http://www.inkscape.org/namespaces/inkscape"
   id="Layer_1"
   x="0"
   y="0"
   version="1.1"
   viewBox="0 0 350.68356 309.84485"
   xml:space="preserve"
   sodipodi:docname="o3.svg"
   width="350.68356"
   height="309.84485"
   inkscape:version="1.0.1 (3bc2e813f5, 2020-09-07)"><metadata
     id="metadata2583"><rdf:RDF><cc:Work
         rdf:about=""><dc:format>image/svg+xml</dc:format><dc:type
           rdf:resource="http://purl.org/dc/dcmitype/StillImage" /></cc:Work></rdf:RDF></metadata><sodipodi:namedview
     pagecolor="#ffffff"
     bordercolor="#666666"
     borderopacity="1"
     objecttolerance="10"
     gridtolerance="10"
     guidetolerance="10"
     inkscape:pageopacity="0"
     inkscape:pageshadow="2"
     inkscape:window-width="1517"
     inkscape:window-height="1080"
     id="namedview2581"
     showgrid="false"
     inkscape:zoom="1.766"
     inkscape:cx="199.20671"
     inkscape:cy="238.76972"
     inkscape:window-x="1940"
     inkscape:window-y="36"
     inkscape:window-maximized="0"
     inkscape:current-layer="Layer_1"
     inkscape:document-rotation="0" /><defs
     id="defs2572" /><style
     id="style2574">.st0{fill:#0c592e}</style><path
     d="m 33.896711,138.69972 c -26.1099996,20.45 -41.0999996,56.22 -30.4199996,88.69 10.0199996,30.45 38.8999996,51.8 71.4099996,46.61 16.7,-2.66 31.929999,-12.23 40.789999,-26.72 -3.66,-0.48 -7.31,-0.96 -10.97,-1.43 10.66,30.47 37.31,53.85 68.61,61.48 31.95,7.79 65.06,-2.93 87.76,-26.42 10.85,-11.23 19.18,-25.04 23.59,-40.05 1.13,-3.84 1.96,-7.76 2.54,-11.72 0.46,-3.15 -0.17,-9.16 1.62,-11.84 1.61,-2.4 6.89,-2.9 9.5,-3.94 3.94,-1.57 7.75,-3.41 11.35,-5.66 27.62,-17.29 41.83,-51.69 40.97,-83.47 -0.53,-19.52 -6.77,-40.199996 -21.74,-53.539996 -13.61,-12.13 -33.29,-18.05 -50.84,-11.62 -7.26,2.66 -4.43,12.99 3.19,11.57 14.37,-2.67 10.68,-21.07 5.86,-30.09 -6.69,-12.53 -18.15,-22.46 -30.79,-28.7 -14.88,-7.3500001 -31.33,-10.3000001 -47.76,-11.44000015 -15.89,-1.1 -32.89,-0.40999999686 -47.17,7.43000005 -13.78,7.5600001 -24.29,22.5100001 -22.98,38.6500001 3.41,-1.41 6.83,-2.83 10.24,-4.24 -8.37,-9.64 -21.51,-11.95 -33.7,-11.28 -13.38,0.74 -27.119999,3.7 -39.749999,8.13 -25.51,8.96 -47.61,27.1 -53.02,54.74 -3.02,15.399996 -0.94,31.139996 6.2,45.129996 3.51,6.88 13.87,0.82 10.36,-6.06 -6.69,-13.11 -7.68,-28.49 -3.33,-42.499996 4.32,-13.9 14.17,-24.81 26.56,-32.16 12.49,-7.4 26.72,-11.33 40.929999,-13.8 12.23,-2.13 28.18,-4.18 37.25,6.28 3.3,3.8 10.66,0.86 10.24,-4.24 -1.19,-14.66 10.04,-26.4 23.2,-31.01 14.91,-5.22 32.2,-4.06 47.58,-1.75 15.1,2.27 30.42,7.01 42.32,16.94 5.35,4.47 9.95,9.77 13.23,15.94 1.24,2.32 5.48,11.68 1.31,12.46 1.06,3.86 2.13,7.71 3.19,11.57 13.53,-4.95 28.54,-0.91 39.17,8.54 12.02,10.69 17.32,26.949996 18.13,42.649996 1.44,28.02 -9.94,59.47 -34.34,75.14 -6.05,3.89 -12.5,5.41 -18.95,8.26 -7.59,3.36 -8.7,10.67 -9.36,18.11 -1.27,14.25 -6.93,27.84 -15.19,39.43 -16.44,23.09 -44.12,37.37 -72.58,34.96 -31.64,-2.67 -61.33,-25.01 -71.85,-55.06 -1.68,-4.81 -8.16,-6.02 -10.97,-1.43 -13.129999,21.49 -43.429999,27.71 -64.809999,15.21 -24.17,-14.14 -33.5299996,-44.47 -25.53,-70.55 4.76,-15.5 14.72,-28.76 27.41,-38.7 6.1,-4.77 -2.44,-13.21 -8.46,-8.5 z"
     class="st0"
     id="path2576" /><path
     d="m 135.99671,97.579724 c -19.86,5.939996 -33.08,24.239996 -35.21,44.479996 -2.249999,21.4 7.94,46.43 25.82,58.88 18.43,12.83 42.64,3.31 55.98,-12.47 12.86,-15.22 17.92,-36.3 10.91,-55.3 -3.84,-10.41 -10.41,-19.6 -19.19,-26.42 -8.89,-6.909996 -21.38,-12.939996 -32.78,-9.559996 -7.39,2.19 -4.24,13.769996 3.19,11.569996 7.51,-2.23 16.42,2.85 22.23,7.35 5.82,4.5 10.43,10.48 13.62,17.09 6.6,13.7 4.95,29.59 -3.17,42.25 -7.83,12.21 -25.29,24.67 -40.21,17.8 -15.04,-6.93 -23.88,-27.1 -24.64,-42.79 -0.86,-17.82 8.84,-36 26.63,-41.32 7.39,-2.2 4.25,-13.789996 -3.18,-11.559996 z m 76.08,62.749996 c -1.23,1.47 -2.42,2.61 -4.06,3.61 2.42,3.14 4.85,6.28 7.27,9.42 1.96,-1.6 3.98,-2.1 6.2,-3.05 0.63,-0.19 1.28,-0.29 1.95,-0.31 -0.43,-0.59 -0.87,-1.18 -1.3,-1.77 -0.11,-0.01 -1.42,3.33 -1.55,3.58 -2.32,4.66 -5.26,8.81 -8.82,12.59 -4.95,5.26 1.24,12.03 7.27,9.42 3.39,-1.46 7.55,-1.07 10.71,0.78 4.41,2.58 3.71,5.41 0.82,9.01 -3.99,4.96 -13.24,11.8 -19.77,7.94 -6.66,-3.94 -12.71,6.43 -6.06,10.36 13.91,8.22 33.65,-3.88 39.19,-17.43 3.34,-8.18 -0.83,-15.98 -8.14,-20.24 -7.18,-4.19 -15.38,-3.99 -22.82,-0.78 2.42,3.14 4.85,6.28 7.27,9.42 3.86,-4.1 7.3,-8.62 9.96,-13.59 2.39,-4.47 5.32,-9.96 3.34,-15.08 -4.46,-11.52 -20.21,-4.7 -26.74,0.64 -5.32,4.34 1.54,12.93 7.27,9.42 2.46,-1.51 4.63,-3.27 6.49,-5.49 4.94,-5.85 -3.51,-14.38 -8.48,-8.45 z"
     class="st0"
     id="path2578" /></svg>
