<?xml version="1.0" encoding="utf-8"?>
<!-- Generator: Adobe Illustrator 19.0.0, SVG Export Plug-In . SVG Version: 6.00 Build 0)  -->
<svg version="1.1" id="Layer_1" xmlns="http://www.w3.org/2000/svg" xmlns:xlink="http://www.w3.org/1999/xlink" x="0px" y="0px"
	 viewBox="0 0 612 792" style="enable-background:new 0 0 612 792;" xml:space="preserve">
<style type="text/css">
	.st0{fill:#CC925E;stroke:#CC925E;stroke-miterlimit:10;}
	.st1{fill:#39B54A;}
	.st2{fill:#C37E3E;}
</style>
<polyline id="XMLID_12_" class="st0" points="362.8,486.2 350.4,556.7 278.3,556 266,486.2 "/>
<g id="XMLID_19_">
	<path id="XMLID_110_" class="st1" d="M325.6,456.7c-1.1-59.9,0.4-119.9,2-179.8c0.7-25.3,1.3-50.7,2-76c0-0.6-0.7-1.1-1.2-0.8
		c-0.5,0.3-0.5,1.2,0.1,1.5l-3.5,6.3c2.3,53.5-6.3,107-4.9,160.5c0.2,7.2,0.6,14.5,0.6,21.7c0.1,20.9-2.7,41.6-5.4,62.3"/>
	<g id="XMLID_105_">
		<path id="XMLID_109_" class="st1" d="M326.3,456.7c-1.3-70.7,1-141.4,2.8-212c0.3-9.7,0.5-19.5,0.8-29.2c0.1-2.6,0.1-5.2,0.2-7.8
			c0-1.6,0.9-5.4,0.2-6.8c-0.6-1.2-0.6-1.3-1.9-1.4c-0.2,0-0.4,0.1-0.5,0.3c-0.5,1.1,0,1.3-0.2,2c-0.6,1.9-2.3,3.4-2.9,5.2
			c-0.6,1.8-0.3,3.8-0.2,5.8c0.2,4.9,0.2,9.8,0.2,14.7c0,18-1,35.9-2.1,53.8c-1.1,18.3-2.4,36.5-3,54.8c-0.6,18.4,0.4,36.6,0.4,55
			c0,20.6-2.7,41-5.4,61.3c-0.1,0.8,1.1,0.8,1.3,0c2.3-17.1,4.6-34.3,5.2-51.5c0.7-17-0.7-34-0.5-51c0.4-34.3,3.9-68.5,5-102.8
			c0.3-9.8,0.5-19.6,0.3-29.4c-0.1-3.4-0.9-7.5,0.3-10.6c0.7-1.8,1.9-3.5,2.9-5.2c0.1-0.2,0.1-0.4,0-0.6c0.6,1-0.1,4.3-0.1,5.5
			c-0.1,1.9-0.1,3.9-0.2,5.8c-0.1,4.2-0.2,8.4-0.3,12.7c-0.2,8.1-0.4,16.2-0.6,24.4c-0.4,16.4-0.9,32.9-1.3,49.3
			c-0.9,33.6-1.6,67.3-1.8,100.9c-0.1,19,0,38,0.4,56.9C325,457.5,326.3,457.5,326.3,456.7L326.3,456.7z"/>
	</g>
</g>
<g id="XMLID_26_">
	<path id="XMLID_103_" class="st1" d="M326.8,200.1c2.2-1.5,0.9-4.9,1.3-7.5c0.5-3.1,3.8-5.3,6.9-5.5c3.2-0.2,6.2,1.1,9,2.6
		C356.2,196,366,206,374,217c7.9,11,14.1,23.2,20.2,35.3c3.4,6.7,6.9,13.9,6.1,21.4c-0.4,3.4-1.6,6.7-3.1,9.9
		c-4.3,9.4-10.6,18-18.2,25l2.1-1.8c6.9-19.5,7.3-41.1,1.2-60.8s-18.7-37.4-35.4-49.5c-4.8-3.5-11.5-6.5-16.3-3
		c-2.7,2-3.8,6.1-2.4,9.2"/>
	<g id="XMLID_98_">
		<path id="XMLID_102_" class="st1" d="M327.3,200.6c1.1-1.2,1.4-2.1,1.5-3.8c0.6-6.4,3.2-10.1,10-8.6c6.6,1.5,13.3,6.8,18.3,11.1
			c10.5,8.9,18.5,20.2,25.3,32c3.4,5.9,6.5,11.9,9.6,18c3.6,7,8,14.5,7.8,22.6c-0.2,7.1-4.1,14-7.7,19.9c-3.7,6-8.3,11.4-13.4,16.2
			c-0.6,0.6,0.3,1.4,0.9,0.9c4.4-3.7,5-10.3,6-15.7c1.5-7.6,2.1-15.3,1.7-23c-0.6-15-4.8-29.7-12.1-42.9
			c-6.8-12.2-16.3-23.4-27.8-31.5c-4.3-3-10.3-6.3-15.6-3.8c-4.1,1.9-5.4,6.6-4,10.7c0.3,0.8,1.5,0.4,1.2-0.3
			c-2-5.8,2.6-10.5,8.4-9.7c3.2,0.4,6.1,2,8.7,3.8c4.9,3.4,9.5,7.5,13.6,11.8c8.3,8.7,15,19.1,19.5,30.2c4.6,11.4,6.9,23.7,6.9,36.1
			c0,6.7-0.7,13.4-2.1,20c-1,4.6-1.7,10.3-5.3,13.4c0.3,0.3,0.6,0.6,0.9,0.9c5.6-5.3,10.5-11.2,14.5-17.9c3.4-5.7,6.9-12.4,7-19.2
			c0.2-7.7-3.7-14.9-7.1-21.6c-4-8-8.1-16-12.8-23.6c-7.9-13-17.6-25.3-30.4-33.8c-4.7-3.1-11.2-7.6-17.2-6.2
			c-1.9,0.4-3.8,1.5-4.9,3.1c-2.1,3,0.1,7.1-2.3,9.8C325.8,200.3,326.7,201.2,327.3,200.6L327.3,200.6z"/>
	</g>
</g>
<g id="XMLID_36_">
	<path id="XMLID_96_" class="st1" d="M324.5,205.2c-0.7-1-1.7-1.8-2.7-2.4l-0.1,0.2c-2.4,4.9-8.6,6.1-13.7,7.9
		c-7.4,2.6-13.7,7.4-19.6,12.6c-15.8,13.9-29,30.7-42,47.3c-4,5.1-8.1,10.3-10.4,16.3c-2.5,6.6-2.8,14-0.9,20.8l-0.6-0.1
		c-2.5-7.2-5-14.6-5.9-22.2c-1.5-13,2-26.5,9.6-37.2c12.1-16.8,32.7-25,49-37.8c5.7-4.4,11-9.6,17.7-12.4c6.7-2.8,15.2-2.7,20.2,2.6
		c-1.2-1-2.3-2-3.5-3"/>
	<g id="XMLID_90_">
		<path id="XMLID_95_" class="st1" d="M324.9,204.7c-0.9-1-1.7-1.8-2.8-2.5c-0.3-0.2-0.7-0.1-0.9,0.2c-2.3,4.7-7.6,5.9-12.2,7.4
			c-4.2,1.4-8.1,3.4-11.8,5.8c-8.3,5.5-15.5,12.7-22.3,19.9c-7.5,7.9-14.4,16.3-21.2,24.7c-6.2,7.8-13.6,15.6-17.7,24.8
			c-1.6,3.6-2.6,7.5-2.8,11.4c-0.1,2.1-0.1,4.2,0.2,6.3c0.1,1,0.2,2.6,0.6,3.5c1.2,2.7,0.1-1.5-0.1-2.1c-3.5-10.3-6.1-20.7-4.6-31.6
			c2.9-22.1,19-35.7,36.7-47c8.5-5.4,17-10.7,24.8-17.1c8.9-7.3,23-17.5,33.7-7.2c0.3-0.3,0.6-0.6,0.9-0.9c-1.2-1-2.3-2-3.5-3
			c-0.6-0.5-1.5,0.4-0.9,0.9c1.2,1,2.3,2,3.5,3c0.6,0.5,1.5-0.3,0.9-0.9c-10.4-10-24.4-1.8-33.5,5.6c-12.7,10.3-27.1,17.8-40,27.8
			c-11.6,9-20.5,20.7-23.3,35.4c-1.4,7.2-1.3,14.6,0.2,21.8c1,4.6,2.4,9.1,3.9,13.6c0.5,1.4,0.5,3.6,2.1,3.9
			c0.5,0.1,0.9-0.3,0.8-0.8c-4.1-15.8,4-27.5,13.3-39.4c7.6-9.7,15.4-19.4,23.7-28.5c8.3-9,17.3-18.5,28-24.8
			c4.5-2.6,9.4-3.9,14.1-5.8c1.9-0.8,3.8-1.7,5.3-3.2c0.5-0.4,0.9-1.2,1.4-1.6c0.2-0.4,0.4-0.8,0.7-1.1c0.6,0.8,1.2,1.6,1.8,2.3
			C324.6,206.2,325.4,205.3,324.9,204.7L324.9,204.7z"/>
	</g>
</g>
<g id="XMLID_43_">
	<path id="XMLID_88_" class="st1" d="M328,214.1c-0.3-0.1-0.3,0.5,0.1,0.5c0.3-0.1,0.4-0.5,0.3-0.8c-0.1-0.3-0.2-0.6-0.1-0.9
		c1.6-3.7,3.2-7.4,4.8-11.1c0.4-0.9,0.8-1.8,1.6-2.4c1.4-0.9,3.3-0.3,4.5,0.8c1.2,1.2,1.8,2.8,2.6,4.2c3.6,6.8,10.4,11.1,15.3,17
		c4,4.8,6.7,10.6,9.3,16.4c3.1,6.7,6.2,13.6,6.9,21c0.4,3.9,0,7.9-0.6,11.7c-2.6,15.9-10.1,30.9-10.8,47c1.6-3.8,0.8-8.1-0.1-12.1
		c-1-4.5-2.2-9-3.5-13.4c-1.7-6.1-3.4-12.3-6.9-17.6c-2.2-3.3-5.1-6.1-7.1-9.5c-2-3.5-2.9-7.4-3.6-11.3c-2.6-16-0.1-32.9-5-48.4
		c-3.1,4.3-5.1,9.4-5.7,14.7"/>
	<g id="XMLID_82_">
		<path id="XMLID_87_" class="st1" d="M327.5,213.6c-0.1,0.1-0.1,0.1-0.2,0.2c-0.2,0.3-0.2,0.6,0,0.9c0.1,0.1,0.2,0.2,0.2,0.3
			c0.2,0.3,0.6,0.2,0.9,0c0.7-0.7,0.5-1.3,0.8-2.3c0.8-2.8,2.2-5.5,3.4-8.2c0.3-0.8,0.7-1.6,1-2.4c2.3,0.4,4.6,0.8,6.8,1.2
			c0.8,0.6,1.7,3.2,2.3,4.1c1.2,1.7,2.6,3.3,4,4.7c4.2,4.3,8.9,8,12.3,13.1c3.4,5.1,5.9,10.8,8.3,16.3c2.9,6.6,5.4,13.4,5.4,20.6
			c0,6.6-1.6,13.2-3.3,19.6c-3.3,11.9-7.5,23.4-8.2,35.8c0,0.7,1,0.8,1.2,0.2c2.7-8.2-1.4-17.9-3.5-25.9c-1.2-4.2-2.3-8.4-4.1-12.4
			c-2.1-4.6-5.2-8-8.1-12.1c-6.7-9.2-6.4-21.8-6.8-32.7c-0.3-10-0.7-19.9-3.6-29.6c-0.2-0.5-0.8-0.6-1.1-0.1
			c-3.1,4.5-5,9.4-5.8,14.8c-0.1,0.8,1.1,1.1,1.2,0.3c0.8-5.3,2.7-10.1,5.7-14.5c-0.4,0-0.8-0.1-1.1-0.1c3,9.8,3.3,20,3.6,30.1
			c0.3,8.7,0.3,18.3,3.6,26.5c1.4,3.6,3.8,6.4,6.1,9.4c3.6,4.5,6,9.3,7.7,14.8c1.4,4.4,2.5,8.9,3.7,13.4c1.5,5.7,3.4,11.8,1.5,17.6
			c0.4,0.1,0.8,0.1,1.2,0.2c0.9-15.9,7.9-30.4,10.6-46c2.5-14.2-2.2-26.1-8.4-38.8c-2.9-5.9-6.2-11.1-10.9-15.7
			c-2.4-2.3-4.9-4.5-7.2-7c-2.5-2.8-3.8-6-5.9-8.9c-2-2.7-5-4-7.4-1.2c-1.7,1.9-2.5,5.4-3.5,7.8c-0.5,1.2-2.1,3.4-2.1,4.7
			c0,0.1,0.1,2.6,0.7,2C329,213.9,328.1,213,327.5,213.6L327.5,213.6z"/>
	</g>
</g>
<g id="XMLID_64_">
	<path id="XMLID_80_" class="st1" d="M324.1,231c-1.5-0.7-3-1.4-4.4-2.1c-0.5-0.2-1-0.4-1.4-0.2c-0.3,0.1-0.6,0.5-0.8,0.8
		c-5.3,8.9-10.7,18.3-10.7,28.6c0,7.1,2.7,14.1,2.5,21.2c-0.2,7.8-3.8,15-7.6,21.9c-3,5.5-6.2,11-11,15l0.1-0.7
		c-2.1-4.1-4.1-8.3-6-12.5c-1.3-3-2.5-6-3.2-9.2c-2.1-10,1.9-20.4,7.6-28.9c5-7.4,11.4-13.9,15.3-21.9c3.1-6.3,4.7-13.5,9.7-18.4
		c0.4-0.3,0.7-0.7,1.2-0.8c0.5-0.1,1,0,1.4,0.2c3,1.1,5.8,2.7,8.2,4.9c-0.5-0.3-1-0.7-1.3-1.3"/>
	<g id="XMLID_75_">
		<path id="XMLID_79_" class="st1" d="M324.4,230.5c-1.4-0.7-4.6-3.1-6.4-2.4c-2.1,0.8-3.6,5.4-4.6,7.1c-4,7.3-7.5,15.3-7.3,23.8
			c0.3,10.3,4.1,19.4,0.6,29.7c-3.2,9.5-9,20.3-16.6,27c0.4,0.1,0.7,0.3,1.1,0.4c0.3-2.3-2.1-5.2-3.1-7.2c-2.1-4.4-4.4-9-5.6-13.8
			c-2.8-10.9,1.5-21.8,7.7-30.7c5-7.3,11.3-13.8,15.2-21.9c1.7-3.6,3-7.5,4.8-11.1c1.2-2.3,2.5-5.2,5-6.2c2.1-0.8,3-0.3,5,0.8
			c1.6,0.9,3,2,4.4,3.2c0.3-0.3,0.5-0.7,0.8-1c-0.4-0.4-0.8-0.8-1.2-1.2c-0.5-0.6-1.4,0.3-0.9,0.9c0.7,0.9,0.5,0.7,1.4,1.4
			c0.6,0.4,1.3-0.5,0.8-1c-2.3-2-6.8-5.9-10-5.3c-2.9,0.5-5.3,5.5-6.4,7.7c-2.3,4.6-3.7,9.5-6.2,14c-2.9,5.1-6.7,9.6-10.2,14.3
			c-6.2,8.1-11.8,17.4-12.2,27.9c-0.2,5.2,1.2,9.9,3.1,14.7c1,2.4,2.1,4.7,3.2,7.1c0.8,1.6,3.5,5.5,3.3,7.4
			c-0.1,0.6,0.7,0.8,1.1,0.4c5.7-5.1,9.4-11.7,12.8-18.4c3.5-6.8,6.3-13.9,5.9-21.7c-0.5-8.9-3.6-17-1.5-25.9c1-4.4,2.9-8.6,5-12.6
			c0.9-1.7,1.7-3.8,3-5.3c2.5-3,4.3-2.8,7.5-1.2C324.5,231.9,325.1,230.8,324.4,230.5L324.4,230.5z"/>
	</g>
</g>
<g id="XMLID_85_">
	<path id="XMLID_73_" class="st1" d="M323.3,369"/>
	<g id="XMLID_68_">
		<path id="XMLID_72_" class="st1" d="M323.3,369.6c0.8,0,0.8-1.3,0-1.3C322.5,368.3,322.5,369.6,323.3,369.6L323.3,369.6z"/>
	</g>
</g>
<g id="XMLID_92_">
	<path id="XMLID_66_" class="st1" d="M323.5,367.8c0.3-1.1,2.4-0.9,2.3,0.3c0.6-1.6,1.9-2.9,3.5-3.6c1.4,2.4,2.5,5,3.3,7.8
		c1.3,4.7,1.5,9.6,3.2,14.1c4.1,10.9,15.9,17,21.8,27.1c5.5,9.3,5.1,21.8-1,30.7l0.8-0.6c5.4-1.5,9.2-6.4,11.6-11.4
		c3.8-7.9,5.1-17.1,3.3-25.7c-1.8-8.6-6.6-16.6-13.6-21.9c-3.2-2.4-6.8-4.3-10.2-6.6c-5.5-3.7-10.4-8.5-14.2-13.9
		c-1.1-1.5-2.2-3.2-4-3.7c-1.8-0.5-4.1,1.2-3.4,2.9"/>
	<g id="XMLID_60_">
		<path id="XMLID_65_" class="st1" d="M323.9,368.3c0.5,0.1,0.9,0.1,1.4,0.2c0.2,0.4,0.9,0.4,1.1,0c3.4-6.8,5.8,4.6,6.4,7.6
			c0.8,4,1.2,8.1,2.9,11.9c2.3,5.2,6.3,9.4,10.3,13.4c5.4,5.3,11.1,10.6,13.4,18.1c2.6,8.4,1.3,17.3-3.4,24.6
			c-0.4,0.6,0.5,1.2,1,0.8c1.6-1.3,3.8-1.7,5.5-3c1.5-1.2,2.9-2.6,4-4.2c3.1-4.1,5-9.2,6.1-14.2c2.4-10.7,0.4-22.1-6-31.1
			c-6.9-9.8-18.6-13.5-26.7-22c-2.3-2.4-4-5.1-6.1-7.6c-0.9-1.1-1.9-2.4-3.4-2.7c-2.4-0.5-4.4,1.1-4.2,3.5c0.1,0.8,1.3,0.8,1.3,0
			c3-2.1,5-1.7,6.2,1.1c0.6,0.9,1.3,1.8,2,2.7c1.1,1.3,2.2,2.6,3.4,3.9c2.7,2.8,5.8,5.4,9,7.6c7.8,5.3,15.2,9.4,19.9,18.1
			c4.7,8.8,5.5,19.2,2.8,28.8c-1.4,4.7-3.5,9.7-7,13.3c-2.3,2.4-5.2,3-7.7,5c0.3,0.3,0.7,0.5,1,0.8c7.8-12.3,5.7-27-3.8-37.7
			c-5.1-5.7-11.4-10.4-15.3-17.1c-4.6-7.9-3.7-17.6-8.2-25.6c-0.2-0.3-0.6-0.4-0.9-0.2c-1.1,0.6-3.2,2.9-3.2,2.9
			c-1.1,0.4-1.6-1-2.8,0.5C322.5,368,323.4,368.9,323.9,368.3L323.9,368.3z"/>
	</g>
</g>
<g id="XMLID_113_">
	<path id="XMLID_58_" class="st1" d="M318.7,361.9c1-0.1,0.8-1.8,0-2.3c-0.8-0.6-2-0.6-2.7-1.4c-1.4,8.3-4.2,16.3-8.3,23.7
		c-1.6,3-3.4,5.9-3.9,9.2c-0.5,3.8,0.8,7.5,1.2,11.3c1,7.7-1.6,15.6-6,22.1s-10.6,11.5-17.2,15.6l-0.4-1.7
		c-6.4-14.8-4.8-32.7,4.2-46.1c7.8-11.7,20.8-20.2,25-33.6c0.6-1.8,1.1-3.9,2.6-5.1c1.5-1.2,4.4-0.9,4.7,1l-0.2-1.1
		c1,1.2,2.1,2.4,3.1,3.5c-0.7-0.4-1.3-1-1.7-1.7"/>
	<g id="XMLID_53_">
		<path id="XMLID_57_" class="st1" d="M319.1,362.4c2.7-2.3-1.4-3.7-2.9-4.7c-0.3-0.2-0.8,0-0.9,0.4c-1.7,8.9-4.7,17-9,25
			c-1.4,2.6-2.8,5.1-3.2,8.1c-0.6,4.4,1.1,8.6,1.4,12.9c0.6,9.4-3.8,18.4-10.1,25.1c-3.1,3.3-6.6,5.7-10.1,8.5
			c-0.9,0.4-1.6,0.9-2,1.8c-0.1-0.3-0.2-0.7-0.3-1c-0.8-0.8-1.3-3.5-1.7-4.6c-5-15.9-1.2-33.1,9.2-45.9c4.5-5.5,9.7-10.4,14.2-15.9
			c1.7-2.2,3.3-4.4,4.7-6.9c0.6-1.1,1.2-2.3,1.7-3.5c0.4-0.9,0.7-1.9,1-2.8c0.5-2.7,2.5-4,6.1-3.9c0.3,0.7,1.2,0.2,1.1-0.5
			c-0.1-0.4-0.1-0.8-0.2-1.1c-0.3,0.2-0.7,0.4-1,0.6c1,1.2,2.1,2.4,3.1,3.5c0.3-0.3,0.5-0.7,0.8-1c-0.5-0.5-1-1-1.5-1.5
			c-0.5-0.7-1.5,0-1.1,0.6c0.9,1.2,0.7,1.1,1.9,2c0.6,0.4,1.2-0.5,0.8-1c-1-1.2-2.1-2.4-3.1-3.5c-0.5-0.5-1.1,0.1-1,0.6
			c0.1,0.4,0.1,0.8,0.2,1.1c0.4-0.2,0.8-0.3,1.1-0.5c-0.8-1.8-2.7-2.5-4.6-1.8c-3.5,1.4-4,7.2-5.4,10c-4.7,9.8-13.5,16.8-20.1,25.1
			c-5.8,7.2-9.6,15.7-10.9,24.9c-0.6,4.7-0.6,9.4,0.1,14.1c0.7,4.8,2.6,9,3.8,13.6c0.1,0.4,0.6,0.6,0.9,0.4
			c12-7.6,23.2-18.9,23.7-34c0.1-4.6-1.6-9-1.5-13.6c0.1-5.2,3.4-9.5,5.6-14c1.6-3.3,3-6.7,4.1-10.2c0.7-2.3,1.3-4.6,1.9-6.9
			c1.6-6.7-0.1,1.7,2.4-0.4C317.6,362,318.5,362.9,319.1,362.4L319.1,362.4z"/>
	</g>
</g>
<g id="XMLID_127_">
	<path id="XMLID_51_" class="st1" d="M317.4,303.3c0.8-0.9,2.3-1,3.3-0.3"/>
	<g id="XMLID_46_">
		<path id="XMLID_50_" class="st1" d="M317.9,303.8c0.7-0.7,1.7-0.7,2.5-0.2c0.7,0.5,1.3-0.6,0.6-1.1c-1.2-0.9-2.9-0.7-4,0.4
			C316.4,303.4,317.3,304.3,317.9,303.8L317.9,303.8z"/>
	</g>
</g>
<g id="XMLID_134_">
	<path id="XMLID_44_" class="st1" d="M318.1,305.3c0.6,0.4,1.3,0.9,1.9,1.3c-1.5-1.6-4.1,0.4-5.3,2.3c-3.1,4.9-5.6,10.2-7.4,15.8
		c-3.6,10.7-4.8,22.3-10.2,32.2c-3.3,5.9-8,11-12.3,16.2c-9.6,11.6-17.7,24.3-25.8,37l0.4-3.2c9.3-16.7,3.6-38.2,10.9-55.8
		c6-14.6,19.6-24.3,31.4-34.8c5.3-4.7,10.3-9.7,15.1-14.9c0.8,0.4,1.7,0.8,2.5,1.2c-0.6-0.4-1.2-0.9-1.7-1.3"/>
	<g id="XMLID_38_">
		<path id="XMLID_42_" class="st1" d="M317.8,305.8c0.6,0.4,1.3,0.9,1.9,1.3c0.2-0.4,0.4-0.7,0.6-1.1c-10.2-5.6-19.2,40.3-21.6,46
			c-4.4,10.5-12.9,18.4-19.7,27.3c-7.4,9.7-14,20.1-20.6,30.4c0.4,0.1,0.8,0.2,1.2,0.3c0.5-3.7,2.3-6.7,3.5-10.3
			c1.5-4.8,2.2-9.9,2.7-14.9c1.1-11.7,0.7-24.1,5.6-35c4.5-10.1,12.8-17.8,21-24.9c4.3-3.7,8.7-7.4,12.9-11.3c2.2-2,4.3-4.1,6.3-6.2
			c1.9-2,4.2-5.9,7.2-4.5c0.7,0.4,1.3-0.6,0.6-1.1c-0.6-0.4-1.2-0.9-1.7-1.3c-0.6-0.5-1.3,0.6-0.6,1.1c0.6,0.4,1.2,0.9,1.7,1.3
			c0.2-0.4,0.4-0.7,0.6-1.1c-0.8-0.4-1.7-0.8-2.5-1.2c-0.2-0.1-0.6-0.1-0.8,0.1c-8.2,9-17.4,16.8-26.5,24.8
			c-8.1,7.1-15.9,14.9-20,25c-3.9,9.6-4.1,20.1-4.9,30.2c-0.5,6.3-1.1,12.6-3,18.6c-1.2,3.9-3,6.6-3.5,10.6
			c-0.1,0.7,0.9,0.8,1.2,0.3c5.6-8.7,11.1-17.5,17.2-25.9c5.9-8.2,13.1-15.4,18.7-23.7c5-7.4,7.2-15.9,9.4-24.5
			c1-4,8.5-32.7,14.9-29.1c0.7,0.4,1.3-0.6,0.6-1.1c-0.6-0.4-1.3-0.9-1.9-1.3C317.8,304.3,317.1,305.4,317.8,305.8L317.8,305.8z"/>
	</g>
</g>
<g id="XMLID_141_">
	<path id="XMLID_35_" class="st1" d="M319.3,276.6c0.8,0.2,1.6,0.3,2.4,0.5c-3.6,3.7-9.7,2.7-14.8,3.8c-5,1.1-9,4.5-13.2,7.5
		c-9.8,7.1-21,12.7-28.7,22.1c-6.5,8-10,18.2-11.4,28.4c-1.4,10.2-1,20.6-0.6,30.9c7.5-17.9,16.9-35.1,29.8-49.7
		c7.8-8.8,16.9-16.8,22.1-27.4c1.1-2.2,2.1-4.7,4.1-6.1c1.2-0.8,2.6-1.2,3.8-1.9c1.9-1.1,3.3-3,5.2-4.2c1.9-1.1,4.9-1.1,5.9,0.9"/>
	<g id="XMLID_30_">
		<path id="XMLID_34_" class="st1" d="M319.1,277.2c2.6,0.5-0.7,1.3-1.7,1.6c-1.5,0.5-3.2,0.6-4.7,0.8c-2,0.2-4,0.3-5.9,0.8
			c-5.1,1.2-9.2,4.6-13.3,7.6c-8.7,6.3-18.5,11.4-26,19.1c-16.3,16.6-15.8,41.2-14.9,62.8c0,0.7,1,0.8,1.2,0.2
			c7.7-18.3,17.4-35.9,30.7-50.7c5.7-6.3,11.9-12.2,16.8-19.1c2.8-3.9,4.5-10.1,8.3-12.9c1.5-1.1,3.3-1.7,4.9-2.8
			c2.1-1.5,6.1-6.8,9.1-2.7c0.5,0.6,1.6,0,1.1-0.6c-1.4-1.9-3.3-2.4-5.6-1.6c-1.5,0.5-2.6,1.7-3.8,2.7c-2.1,1.8-4.4,2.4-6.4,4
			c-3.7,2.8-5.1,8.2-7.6,12c-3.5,5.3-8,10-12.3,14.7c-15.7,16.7-27.3,35.6-36.2,56.8c0.4,0.1,0.8,0.1,1.2,0.2
			c-1-22.9-1.1-48.3,17.5-64.8c7.8-6.9,17.1-12.1,25.6-18.1c5.3-3.8,10.1-5.5,16.6-6.2c3.3-0.4,6.2-1,8.7-3.2c0.3-0.3,0.2-1-0.3-1
			c-0.8-0.2-1.6-0.3-2.4-0.5C318.6,275.9,318.3,277.1,319.1,277.2L319.1,277.2z"/>
	</g>
</g>
<g id="XMLID_162_">
	<path id="XMLID_59_" class="st1" d="M326.7,195.1c-0.1-3.1-1-6.2-2.5-8.9c-0.7,1-1.4,1.9-2.1,2.9c-4.9-5.6-9.3-11.8-13-18.2
		c-1.5-2.6-2.9-5.3-5-7.4c-3.2-3.2-7.6-4.9-11.8-6.4c-8-2.9-16.4-5.9-24.8-5.1c9.4,2.1,16,10.4,21.8,18.1c5.8,7.7,12.5,16,22,17.8
		c2.4,0.5,5,0.5,7.3,1.3c4.5,1.5,7.8,6.2,7.8,11"/>
	<g id="XMLID_28_">
		<path id="XMLID_52_" class="st1" d="M327.4,195.1c-0.2-3.3-1.1-6.3-2.6-9.3c-0.2-0.5-0.8-0.3-1.1,0c-2.8,3.8-5.7-2.8-7.5-5.2
			c-1.9-2.6-3.6-5.2-5.2-7.9c-2.6-4.3-4.7-8.8-8.8-11.8c-4.3-3.1-9.9-4.7-14.9-6.4c-6.5-2.2-13-3.7-19.8-3.2c-0.7,0-0.9,1-0.2,1.2
			c13.3,3.4,19.3,16.5,27.9,25.8c3.3,3.6,7.1,6.9,11.6,8.8c3.2,1.3,6.5,1.3,9.8,2.1c5.3,1.3,8.8,5.2,9.1,10.8c0,0.8,1.3,0.8,1.3,0
			c-0.3-4.7-2.6-8.9-6.9-11c-3.6-1.8-7.8-1.3-11.5-2.6c-4.4-1.5-8.2-4.6-11.4-7.9c-9.3-9.7-15.4-23.7-29.5-27.3
			c-0.1,0.4-0.1,0.8-0.2,1.2c6.7-0.4,13.1,1.1,19.5,3.2c5.4,1.8,12,3.5,16.2,7.6c3.9,3.7,6.1,9.2,9.1,13.7c2.9,4.4,6.1,8.5,9.5,12.5
			c0.3,0.3,0.8,0.2,1-0.1c1.3-1.7,1.6-1.5,2.5,0.5c0.7,1.5,0.8,3.8,0.9,5.2C326.2,195.9,327.4,195.9,327.4,195.1L327.4,195.1z"/>
	</g>
</g>
<g id="XMLID_176_">
	<path id="XMLID_104_" class="st1" d="M327.7,321.2c1.4-1.9,2.8-3.8,4.2-5.7c0.5-0.6,1-1.3,1.8-1.3c0.9,0,1.4,0.9,1.8,1.7
		c8.3,17.7,9.7,39.1,23,53.4c9.2,9.8,22.6,14.6,32.6,23.6c-9.2-5.2-12.7-16.7-14.5-27.1s-3.2-21.8-10.4-29.5
		c-6.7-7.3-17.6-10.2-23.4-18.3c-2.6-3.7-4.5-8.7-8.9-9.9l1.7-0.1c-1.6,1.8-3.2,3.5-4.8,5.3c-1.1,1.2-2.2,2.4-3.6,3.1"/>
	<g id="XMLID_67_">
		<path id="XMLID_97_" class="st1" d="M328.2,321.5c0.7-0.9,1.3-2,2.1-2.9c0.9-0.9,3.1-3.3,4.6-2.4c1.4,0.7,2.6,6.1,3.2,7.7
			c1.5,4.2,2.8,8.4,4.1,12.6c2.4,7.9,4.8,15.9,8.7,23.1c8.9,16.4,26.2,21.9,39.6,33.6c0.3-0.3,0.5-0.7,0.8-1
			c-17.7-10.9-11.8-35.7-21.1-51.6c-4.2-7.3-11.4-10.9-18.2-15.4c-4.7-3.1-7.9-6.5-10.9-11.2c-1.9-2.9-3.7-5.4-7-6.6
			c-0.1,0.4-0.1,0.8-0.2,1.2c0.6,0,1.1-0.1,1.7-0.1c-0.1-0.4-0.3-0.7-0.4-1.1c-2.6,2.8-5,6.2-8.3,8.3c-0.7,0.4,0,1.5,0.6,1.1
			c3.4-2.2,5.8-5.5,8.5-8.5c0.3-0.4,0.1-1.1-0.4-1.1c-0.6,0-1.1,0.1-1.7,0.1c-0.7,0-0.8,1-0.2,1.2c4.9,1.8,6.5,7.1,9.5,10.8
			c2.6,3.1,6,5.5,9.4,7.6c9.3,5.9,16.6,11.2,20,22.3c4.5,15,3,34.7,18.2,44c0.6,0.4,1.3-0.5,0.8-1c-7.6-6.6-16.7-11-24.8-16.9
			c-9.6-7-15.4-16.4-19.4-27.5c-3.3-9.3-5.6-18.9-9.3-28.1c-0.7-1.8-1.7-6.4-4.2-6.4c-2.6,0-5.4,5.8-6.6,7.3
			C326.6,321.5,327.7,322.2,328.2,321.5L328.2,321.5z"/>
	</g>
</g>
<path id="XMLID_10_" class="st2" d="M365.5,486.2H263.3c-2,0-3.7-1.7-3.7-3.7v-26.4c0-2,1.7-3.7,3.7-3.7h102.2c2,0,3.7,1.7,3.7,3.7
	v26.4C369.2,484.6,367.5,486.2,365.5,486.2z"/>
</svg>
