<?xml version="1.0" encoding="UTF-8" standalone="no"?>
<svg
   xmlns:dc="http://purl.org/dc/elements/1.1/"
   xmlns:cc="http://creativecommons.org/ns#"
   xmlns:rdf="http://www.w3.org/1999/02/22-rdf-syntax-ns#"
   xmlns:svg="http://www.w3.org/2000/svg"
   xmlns="http://www.w3.org/2000/svg"
   xmlns:sodipodi="http://sodipodi.sourceforge.net/DTD/sodipodi-0.dtd"
   xmlns:inkscape="http://www.inkscape.org/namespaces/inkscape"
   id="Layer_1"
   x="0"
   y="0"
   version="1.1"
   viewBox="0 0 113.42415 101.57601"
   xml:space="preserve"
   sodipodi:docname="sandwich.svg"
   width="113.42415"
   height="101.576"
   inkscape:version="1.0.1 (3bc2e813f5, 2020-09-07)"><metadata
     id="metadata2638"><rdf:RDF><cc:Work
         rdf:about=""><dc:format>image/svg+xml</dc:format><dc:type
           rdf:resource="http://purl.org/dc/dcmitype/StillImage" /></cc:Work></rdf:RDF></metadata><sodipodi:namedview
     pagecolor="#ffffff"
     bordercolor="#666666"
     borderopacity="1"
     objecttolerance="10"
     gridtolerance="10"
     guidetolerance="10"
     inkscape:pageopacity="0"
     inkscape:pageshadow="2"
     inkscape:window-width="1517"
     inkscape:window-height="1080"
     id="namedview2636"
     showgrid="false"
     inkscape:zoom="1.766"
     inkscape:cx="56.826482"
     inkscape:cy="50.944726"
     inkscape:window-x="1940"
     inkscape:window-y="36"
     inkscape:window-maximized="0"
     inkscape:current-layer="Layer_1"
     inkscape:document-rotation="0" /><defs
     id="defs2585" /><style
     id="style2587">.st0{fill:#a97c50}.st1{fill:#2bb673}.st2{fill:#be1e2d}.st3{fill:#c49a6c}.st4{fill:#ceab83}</style><g
     id="XMLID_20_"
     transform="translate(-193.17351,-199.05527)"><path
       d="m 305.33,279.91 c -1.29,1.26 -2.58,2.52 -3.88,3.78 -0.01,0.01 -0.02,0.02 -0.02,0.03 l -0.9,-1.18 C 275.85,256.25 251.85,230.25 224.15,207.3 l -0.78,-0.9 c 0.95,-0.58 1.23,-1.82 1.93,-2.69 0.39,-0.49 0.91,-0.85 1.38,-1.26 0.71,-0.62 1.31,-1.35 1.79,-2.15 z"
       class="st0"
       id="path2589" /><path
       d="m 304.44,279.03 c -1.28,1.24 -2.76,2.43 -3.9,3.81 0.65,0.08 1.31,0.17 1.96,0.25 -1.8,-2.34 -3.9,-4.42 -5.92,-6.57 -2.56,-2.73 -5.13,-5.47 -7.7,-8.2 -5.12,-5.44 -10.25,-10.85 -15.43,-16.22 -10.34,-10.71 -20.88,-21.22 -31.87,-31.25 -3.1,-2.83 -6.24,-5.63 -9.41,-8.37 -1.65,-1.43 -3.31,-2.85 -4.98,-4.25 -1.04,-0.87 -2.05,-1.68 -2.94,-2.7 -0.08,0.65 -0.17,1.31 -0.25,1.96 1.18,-0.85 1.5,-2.13 2.43,-3.16 1.07,-1.18 2.25,-2 3.12,-3.39 -0.65,0.08 -1.31,0.17 -1.96,0.25 2.56,2.65 5.12,5.31 7.69,7.96 6.09,6.31 12.18,12.62 18.28,18.93 7.42,7.69 14.85,15.38 22.27,23.07 6.39,6.62 12.78,13.24 19.18,19.86 3.1,3.21 6.08,6.59 9.32,9.66 0.05,0.04 0.09,0.09 0.13,0.14 1.12,1.16 2.89,-0.61 1.77,-1.77 -2.56,-2.65 -5.12,-5.31 -7.69,-7.96 -6.09,-6.31 -12.18,-12.62 -18.28,-18.93 -7.42,-7.69 -14.85,-15.38 -22.27,-23.07 -6.39,-6.62 -12.78,-13.24 -19.18,-19.86 -3.1,-3.21 -6.08,-6.59 -9.32,-9.66 -0.05,-0.04 -0.09,-0.09 -0.13,-0.14 -0.58,-0.6 -1.54,-0.42 -1.96,0.25 -0.74,1.18 -1.78,1.89 -2.73,2.88 -0.75,0.78 -1.06,2.14 -1.92,2.77 -0.68,0.49 -0.82,1.31 -0.25,1.96 1.88,2.16 4.33,3.86 6.51,5.73 2.83,2.43 5.64,4.9 8.41,7.4 5.53,4.98 10.95,10.09 16.28,15.29 10.67,10.4 20.98,21.16 31.2,32 2.89,3.06 5.77,6.14 8.66,9.21 2.29,2.44 4.78,4.78 6.81,7.43 0.44,0.57 1.39,0.94 1.96,0.25 1.13,-1.37 2.62,-2.56 3.9,-3.81 1.14,-1.11 -0.63,-2.87 -1.79,-1.75 z"
       class="st0"
       id="path2591" /></g><g
     id="XMLID_56_"
     transform="translate(-193.17351,-199.05527)"><path
       d="m 221.22,212.35 c 0.78,-1.44 2.44,-2.37 4.08,-2.27 1.64,0.09 3.18,1.2 3.8,2.72 0.1,0.24 0.18,0.49 0.35,0.68 0.4,0.43 1.1,0.33 1.68,0.21 2.04,-0.41 4.2,-0.58 6.17,0.1 1.97,0.68 3.69,2.36 3.92,4.43 0.1,0.87 -0.06,1.76 0.12,2.61 0.47,2.17 3.52,3.25 5.25,1.86 0.66,-0.53 1.32,-1.37 2.13,-1.14 0.31,0.09 0.55,0.33 0.76,0.58 1.08,1.3 1.55,3.1 1.24,4.77 -0.1,0.52 -0.26,1.04 -0.17,1.56 0.34,1.88 3.32,1.72 4.5,3.23 1.05,1.34 0.24,3.4 1,4.93 0.66,1.34 2.33,1.9 3.14,3.15 0.83,1.27 0.59,2.93 0.72,4.44 0.13,1.51 1.09,3.28 2.6,3.17 1.3,-0.09 2.32,-1.56 3.59,-1.3 0.55,0.12 0.98,0.54 1.49,0.78 0.82,0.37 1.77,0.23 2.64,0.44 1.39,0.33 2.5,1.61 2.61,3.04 0.11,1.42 -0.78,2.87 -2.11,3.4 1.4,0.91 3.22,0.3 4.87,0.07 1.65,-0.23 3.85,0.45 3.85,2.12 0,1.5 -1.87,3.08 -0.85,4.18 0.42,0.45 1.12,0.47 1.73,0.55 2.49,0.34 4.59,2.56 4.8,5.07 0.03,0.41 0.03,0.84 0.23,1.2 0.39,0.67 1.31,0.74 2.09,0.85 3.47,0.53 6.19,4.08 5.8,7.57 -0.07,0.59 -0.19,1.24 0.14,1.73 0.22,0.32 0.6,0.5 0.93,0.71 1.52,0.96 2.23,3.04 1.6,4.73 -0.62,1.69 -2.51,2.81 -4.29,2.55"
       class="st1"
       id="path2594" /><path
       d="m 222.3,212.98 c 0.7,-1.16 2,-1.88 3.36,-1.6 0.7,0.14 1.36,0.56 1.82,1.11 0.46,0.57 0.57,1.34 1.08,1.86 1.04,1.06 2.52,0.57 3.78,0.37 1.74,-0.27 3.68,-0.28 5.28,0.56 1.13,0.59 2.12,1.63 2.34,2.92 0.26,1.5 -0.16,2.9 0.76,4.27 1.23,1.83 3.89,2.63 5.89,1.64 0.52,-0.26 0.91,-0.63 1.36,-0.99 0.59,-0.48 0.46,-0.4 0.88,0.25 0.44,0.69 0.68,1.51 0.7,2.34 0.02,0.8 -0.28,1.54 -0.29,2.34 -0.03,2.74 2.61,2.83 4.35,4.01 1.1,0.76 0.73,2.33 0.87,3.49 0.18,1.48 0.9,2.51 2.05,3.43 1.2,0.96 1.95,1.64 2.05,3.28 0.08,1.39 0.03,2.72 0.62,4.02 0.55,1.19 1.61,2.25 2.99,2.32 0.78,0.04 1.49,-0.24 2.17,-0.6 0.58,-0.31 1.05,-0.82 1.72,-0.61 0.67,0.21 1.18,0.71 1.9,0.86 0.86,0.18 1.82,0.02 2.6,0.51 1.62,1.03 1.08,3.13 -0.48,3.87 -0.86,0.41 -0.77,1.73 0,2.16 1.63,0.91 3.3,0.62 5.06,0.33 0.91,-0.15 3.37,-0.32 2.94,1.21 -0.38,1.37 -1.54,2.51 -0.81,4.02 0.82,1.69 2.76,1.22 4.18,1.96 1.51,0.79 2.24,2.18 2.44,3.82 0.23,1.96 1.43,2.53 3.21,2.84 1.67,0.3 3.09,1.23 4,2.67 0.41,0.65 0.7,1.36 0.84,2.11 0.15,0.84 -0.05,1.63 -0.03,2.47 0.04,2.18 2.42,2.35 2.89,4.28 0.49,2.01 -1.3,3.47 -3.18,3.28 -1.6,-0.16 -1.59,2.34 0,2.5 3.84,0.38 6.8,-3.49 5.38,-7.08 -0.31,-0.77 -0.78,-1.48 -1.4,-2.03 -0.26,-0.23 -0.79,-0.44 -1,-0.7 -0.38,-0.48 -0.07,-1.29 -0.07,-1.85 -0.01,-1.79 -0.67,-3.54 -1.76,-4.95 -1.11,-1.45 -2.69,-2.58 -4.48,-3.02 -0.4,-0.1 -0.8,-0.13 -1.2,-0.21 -0.63,-0.13 -0.65,-0.13 -0.72,-0.75 -0.11,-0.91 -0.31,-1.76 -0.73,-2.58 -0.81,-1.6 -2.29,-2.87 -3.99,-3.45 -0.44,-0.15 -0.87,-0.22 -1.33,-0.29 -0.62,-0.09 -0.76,0.11 -0.67,-0.49 0.12,-0.8 0.81,-1.53 0.97,-2.37 0.37,-1.95 -1.08,-3.41 -2.87,-3.86 -0.89,-0.23 -1.79,-0.21 -2.69,-0.07 -1.2,0.18 -2.58,0.66 -3.72,0.02 v 2.16 c 2.86,-1.36 3.6,-5.12 1.41,-7.43 -0.48,-0.5 -1.07,-0.89 -1.72,-1.14 -0.84,-0.32 -1.72,-0.22 -2.57,-0.43 -0.69,-0.17 -1.21,-0.7 -1.9,-0.9 -0.69,-0.2 -1.37,-0.12 -2.03,0.15 -0.62,0.25 -1.14,0.72 -1.75,0.95 -0.83,0.3 -1.27,-0.45 -1.5,-1.16 -0.48,-1.47 -0.05,-3.09 -0.53,-4.58 -0.51,-1.58 -1.7,-2.34 -2.88,-3.37 -1.32,-1.15 -0.84,-2.7 -1.12,-4.25 -0.26,-1.38 -1.14,-2.38 -2.37,-2.98 -0.69,-0.34 -2.36,-0.63 -2.61,-1.45 -0.2,-0.68 0.29,-1.74 0.27,-2.49 -0.02,-0.83 -0.18,-1.66 -0.48,-2.43 -0.48,-1.25 -1.39,-2.82 -2.86,-3 -1.61,-0.2 -2.13,1.31 -3.46,1.69 -1.08,0.31 -2.45,-0.37 -2.71,-1.49 -0.19,-0.84 0,-1.75 -0.12,-2.61 -0.11,-0.73 -0.36,-1.43 -0.72,-2.07 -0.74,-1.28 -1.95,-2.31 -3.29,-2.92 -1.8,-0.81 -3.8,-0.95 -5.74,-0.72 -0.48,0.06 -0.96,0.13 -1.44,0.21 -0.64,0.11 -0.71,0.26 -1.06,-0.23 -0.48,-0.68 -0.77,-1.37 -1.43,-1.93 -2.73,-2.34 -6.78,-1.54 -8.6,1.49 -0.84,1.43 1.32,2.69 2.15,1.31 z"
       class="st1"
       id="path2596" /></g><g
     id="XMLID_1_"
     transform="translate(-193.17351,-199.05527)"><path
       d="m 235.19,219.42 c 2.99,2.67 4.65,6.49 4.81,10.47 0.12,3.16 -0.85,6.9 -4.67,6.7 -2.2,-0.12 -4.45,-0.25 -6.46,-1.14 -2.06,-0.92 -3.71,-2.56 -5.21,-4.25 -1.98,-2.21 -3.88,-4.69 -4.29,-7.63 -0.43,-3.12 1.81,-7.32 5.15,-7.83 3.64,-0.56 8.01,1.31 10.67,3.68 z"
       class="st2"
       id="path2599" /><path
       d="m 234.3,220.3 c 2.95,2.69 4.59,6.57 4.44,10.57 -0.05,1.32 -0.31,2.98 -1.37,3.88 -1.25,1.07 -3.55,0.55 -5.02,0.34 -4.36,-0.61 -7.62,-3.97 -9.99,-7.5 -1.06,-1.58 -1.97,-3.46 -1.78,-5.41 0.16,-1.56 0.93,-3.13 2.09,-4.2 1.53,-1.4 3.73,-1.27 5.63,-0.8 2.2,0.55 4.3,1.63 6,3.12 1.21,1.05 2.98,-0.71 1.77,-1.77 -3.36,-2.92 -9.27,-5.65 -13.64,-3.4 -1.87,0.97 -3.18,2.85 -3.87,4.79 -0.77,2.18 -0.55,4.44 0.35,6.54 1.03,2.41 2.76,4.46 4.54,6.36 1.81,1.92 3.87,3.57 6.45,4.31 1.28,0.36 2.62,0.51 3.95,0.61 1.25,0.09 2.51,0.21 3.7,-0.24 1.86,-0.71 2.96,-2.45 3.4,-4.33 1.22,-5.23 -0.99,-11.08 -4.88,-14.64 -1.18,-1.08 -2.96,0.68 -1.77,1.77 z"
       class="st2"
       id="path2601" /></g><g
     id="XMLID_8_"
     transform="translate(-193.17351,-199.05527)"><path
       d="m 248.8,232.01 c 3.18,3.46 6.72,9.31 6.29,14.23 -0.36,4.11 -3.27,9 -7.42,10.1 -1.6,0.43 -3.3,0.36 -4.93,0.1 -4.54,-0.72 -8.87,-2.97 -11.86,-6.45 -2.99,-3.49 -4.57,-8.21 -4.01,-12.77 0.56,-4.56 3.34,-8.85 7.39,-11.01 5.17,-2.74 11.12,2.08 14.54,5.8 z"
       class="st2"
       id="path2604" /><path
       d="m 247.92,232.89 c 3.39,3.74 6.94,9.35 5.71,14.63 -0.56,2.4 -1.85,4.76 -3.79,6.32 -2.38,1.92 -5.48,1.77 -8.31,1.09 -5.67,-1.35 -10.72,-5.26 -12.65,-10.87 -1.84,-5.35 -0.6,-11.35 3.69,-15.16 2.4,-2.13 5.12,-2.8 8.12,-1.54 2.82,1.18 5.18,3.32 7.23,5.53 1.1,1.18 2.86,-0.59 1.77,-1.77 -4.04,-4.35 -10.5,-9.27 -16.54,-5.72 -5.77,3.4 -8.5,10.31 -7.34,16.78 1.24,6.96 6.6,12.38 13.17,14.62 3.2,1.09 7.07,1.71 10.27,0.31 2.72,-1.19 4.73,-3.68 5.91,-6.35 3.09,-7.01 -0.7,-14.38 -5.47,-19.63 -1.09,-1.2 -2.85,0.57 -1.77,1.76 z"
       class="st2"
       id="path2606" /></g><g
     id="XMLID_11_"
     transform="translate(-193.17351,-199.05527)"><path
       d="m 278.25,267.22 c 3.41,1.11 6.41,3.45 8.29,6.51 1.89,3.05 2.65,6.78 2.11,10.32 l -0.7,-2.32 c -0.2,0.93 0.08,1.89 0.14,2.84 0.06,0.95 -0.19,2.05 -1.04,2.48 -0.33,0.17 -0.71,0.2 -1.08,0.22 -3.79,0.14 -7.3,-1.9 -10.4,-4.09 -4.83,-3.41 -9.29,-7.36 -13.26,-11.74 -2.35,-2.59 -4.6,-5.48 -5.26,-8.92 -0.55,-2.89 0.64,-8.55 4.41,-8.48 3.86,0.07 8.11,2.42 10.8,5.04 2.91,2.84 4.85,6.6 5.82,10.56 0.3,1.21 0.51,2.44 0.93,3.61"
       class="st2"
       id="path2609" /><path
       d="m 277.92,268.43 c 6.36,2.15 10.45,8.6 9.53,15.29 h 2.41 c -0.23,-0.77 -0.47,-1.55 -0.7,-2.32 -0.44,-1.44 -2.28,-1 -2.46,0.33 -0.11,0.82 0.02,1.54 0.09,2.36 0.04,0.46 0.19,1.16 -0.1,1.56 -0.61,0.85 -2.83,0.24 -3.69,0.01 -2.71,-0.73 -5.1,-2.34 -7.35,-3.95 -4.59,-3.3 -8.83,-7.11 -12.61,-11.31 -3.05,-3.39 -5.91,-7.51 -4.45,-12.24 0.5,-1.6 1.43,-2.96 3.24,-2.86 2.64,0.14 5.2,1.38 7.34,2.85 2.38,1.64 4.26,3.88 5.64,6.42 1.56,2.87 1.97,5.95 2.98,9 0.5,1.52 2.92,0.87 2.41,-0.66 -0.56,-1.7 -0.83,-3.47 -1.37,-5.17 -0.48,-1.52 -1.11,-3.02 -1.87,-4.42 -1.48,-2.74 -3.53,-5.11 -6.04,-6.96 -3.79,-2.79 -11.26,-6.09 -14.1,-0.44 -2.57,5.1 -0.4,10.35 2.94,14.5 4.27,5.31 9.61,9.94 15.17,13.85 2.92,2.06 6.15,3.93 9.78,4.23 1.52,0.13 3.21,0.01 4.07,-1.43 1.02,-1.69 0.17,-3.52 0.41,-5.33 l -2.46,0.33 c 0.23,0.77 0.47,1.55 0.7,2.32 0.32,1.07 2.23,1.3 2.41,0 1.11,-8.1 -3.5,-15.73 -11.28,-18.37 -1.5,-0.52 -2.16,1.89 -0.64,2.41 z"
       class="st2"
       id="path2611" /></g><g
     id="XMLID_48_"
     transform="translate(-193.17351,-199.05527)"><path
       d="m 217.4,211.47 c -2.02,2.14 -4.03,4.29 -6.05,6.43 z"
       class="st0"
       id="path2614" /><path
       d="m 216.52,210.58 c -2.02,2.14 -4.03,4.29 -6.05,6.43 -0.45,0.48 -0.51,1.3 0,1.77 0.49,0.45 1.29,0.51 1.77,0 l 5.31,-5.64 c 0.25,-0.26 0.49,-0.52 0.74,-0.79 0.45,-0.48 0.51,-1.3 0,-1.77 -0.49,-0.44 -1.29,-0.5 -1.77,0 l -5.31,5.64 c -0.25,0.26 -0.49,0.52 -0.74,0.79 l 1.77,1.77 c 2.02,-2.14 4.03,-4.29 6.05,-6.43 0.45,-0.48 0.51,-1.3 0,-1.77 -0.49,-0.44 -1.29,-0.5 -1.77,0 z"
       class="st3"
       id="path2616" /></g><g
     id="XMLID_44_"
     transform="translate(-193.17351,-199.05527)"><path
       d="m 218.35,211.29 c 25.52,25.96 50.89,52.08 76.1,78.36 z"
       class="st0"
       id="path2619" /><path
       d="m 217.47,212.17 c 19.9,20.24 39.7,40.57 59.41,61 5.57,5.78 11.14,11.56 16.7,17.36 l 1.77,-1.77 c -2.52,-2.6 -5.04,-5.19 -7.56,-7.79 -6.05,-6.23 -12.11,-12.47 -18.16,-18.7 -7.33,-7.54 -14.65,-15.09 -21.98,-22.63 -6.34,-6.52 -12.67,-13.05 -19.01,-19.57 -3.07,-3.17 -6.04,-6.51 -9.26,-9.53 -0.05,-0.04 -0.09,-0.09 -0.13,-0.14 -1.13,-1.15 -2.9,0.62 -1.78,1.77 2.52,2.6 5.04,5.19 7.56,7.79 6.05,6.23 12.11,12.47 18.16,18.7 7.33,7.54 14.65,15.09 21.98,22.63 6.34,6.52 12.67,13.05 19.01,19.57 3.07,3.17 6.04,6.51 9.26,9.53 0.05,0.04 0.09,0.09 0.13,0.14 1.12,1.16 2.88,-0.61 1.77,-1.77 -19.65,-20.48 -39.4,-40.87 -59.25,-61.17 -5.61,-5.74 -11.23,-11.47 -16.86,-17.19 -1.12,-1.14 -2.89,0.62 -1.76,1.77 z"
       class="st3"
       id="path2621" /></g><g
     id="XMLID_41_"
     transform="translate(-193.17351,-199.05527)"><path
       d="m 294.99,289.65 c -1.65,3.25 -3.76,6.31 -6.25,9.09 z"
       class="st0"
       id="path2624" /><path
       d="m 293.91,289.02 c -1.63,3.19 -3.66,6.16 -6.05,8.83 0.65,0.5 1.31,1.01 1.96,1.51 l 5.46,-7.95 0.78,-1.14 c 0.38,-0.56 0.1,-1.39 -0.45,-1.71 -0.61,-0.35 -1.32,-0.1 -1.7,0.46 l -5.46,7.95 -0.78,1.14 c -0.8,1.17 1.02,2.57 1.96,1.51 2.53,-2.83 4.71,-5.96 6.44,-9.34 0.31,-0.6 0.16,-1.36 -0.45,-1.71 -0.56,-0.33 -1.4,-0.16 -1.71,0.45 z"
       class="st3"
       id="path2626" /></g><path
     id="XMLID_39_"
     d="m 28.066482,25.574726 c 3.19,4.74 7.16,8.82 11.79,12.15 1.07,0.77 2.27,-0.69 1.71,-1.71 -2.95,-5.39 -6.67,-10.33 -11.03,-14.67 -1.16,-1.15 -2.79,0.55 -1.77,1.77 l 15.18,18 c 0.95,1.13 2.59,-0.31 1.96,-1.51 -4.05,-7.75 -10.4,-13.87 -16.67,-19.82 l -1.77,1.77 c 5.83,4.74 11.22,9.98 16.12,15.68 0.94,1.09 2.68,-0.31 1.96,-1.51 -4,-6.69 -9.13,-12.65 -15.18,-17.56 -1.25,-1.01 -2.81,0.52 -1.77,1.77 4.76,5.66 9.52,11.33 14.28,16.99 0.91,1.08 2.75,-0.33 1.96,-1.51 -4.48,-6.76 -10.29,-12.5 -17.11,-16.88 -1.1,-0.71 -2.27,0.66 -1.71,1.71 3.25,6.05 7.23,11.66 11.85,16.74 0.97,1.06 2.67,-0.3 1.96,-1.51 -3.46,-5.93 -8.1,-11.03 -13.65,-15.06 -1.07,-0.78 -2.27,0.7 -1.71,1.71 3.75,6.83 8.36,13.16 13.69,18.85 0.97,1.04 2.69,-0.3 1.96,-1.51 -3.62,-6.07 -8.22,-11.5 -13.63,-16.05 -1.05,-0.89 -2.68,0.21 -1.96,1.51 2.89,5.23 6.81,9.84 11.52,13.53 0.67,0.52 1.46,0.46 1.96,-0.25 1.22,-1.72 -0.04,-3.81 -0.86,-5.41 -1,-1.97 -2.12,-3.88 -3.34,-5.73 -2.47,-3.72 -5.34,-7.15 -8.56,-10.24 -0.71,-0.68 -2.26,-0.25 -2.13,0.88 0.26,2.31 1.13,4.43 2.71,6.16 1.15,1.25 4.14,3.24 5,0.54 0.57,-1.79 -1.06,-4.53 -1.99,-5.96 -1.28,-1.98 -2.97,-3.61 -4.96,-4.87 -0.87,-0.55 -1.79,0.19 -1.88,1.08 -0.18,1.87 0.39,3.72 1.54,5.2 0.98,1.26 3.09,3.09 4.8,2.23 1.82,-0.91 0.77,-3.21 0.04,-4.45 -1.1,-1.86 -2.56,-3.4 -4.27,-4.7 -0.6,-0.46 -1.73,0 -1.84,0.75 -0.5,3.4 1.39,6.62 4.68,7.71 0.79,0.26 1.57,-0.43 1.58,-1.21 0.03,-1.94 -0.79,-3.83 -2.32,-5.05 -1.34,-1.08 -3.94,-1.91 -4.57,0.39 -0.48,1.76 0.3,4.08 1.01,5.67 0.89,1.99 2.29,3.61 4.01,4.92 0.77,0.59 1.9,-0.21 1.88,-1.08 -0.03,-2 -0.7,-3.89 -1.95,-5.46 -0.98,-1.22 -3.15,-3.29 -4.88,-2.47 -1.82,0.87 -0.82,3.27 -0.18,4.57 0.95,1.97 2.42,3.57 4.17,4.86 0.94,0.7 2.05,-0.45 1.84,-1.41 -0.77,-3.48 -3.14,-6.46 -6.38,-7.95 -0.7,-0.32 -1.64,-0.1 -1.84,0.75 -0.84,3.59 1.75,7.05 5.37,7.42 0.86,0.09 1.36,-0.86 1.21,-1.58 -0.65,-3.03 -2.91,-5.4 -5.85,-6.33 -0.99,-0.31 -2.05,0.94 -1.41,1.84 1.89,2.68 5.7,4.26 8.7,2.36 2.56,-1.61 2.6,-6.09 -0.75,-6.8 -1.13,-0.24 -2.22,1.21 -1.22,2.09 4.39,3.88 7.94,8.67 11.66,13.17 3.97,4.81 7.93,9.62 11.9,14.43 0.97,1.18 2.5,-0.32 1.96,-1.51 -2.46,-5.44 -6.88,-9.56 -11.22,-13.51 -1.19,-1.08 -2.95,0.66 -1.77,1.77 7.92,7.43 15.32,15.38 22.15,23.82 0.9,1.11 2.71,-0.33 1.96,-1.51 -5.07,-8.06 -11.47,-15.22 -18.94,-21.12 -0.5,0.65 -1.01,1.31 -1.51,1.96 9.21,6.79 17.11,15.13 24.95,23.41 1.11,1.17 2.85,-0.58 1.77,-1.77 -7.9,-8.64 -16.79,-16.33 -26.47,-22.92 -1.19,-0.81 -2.49,0.97 -1.51,1.96 8.98,9.06 17.96,18.12 26.94,27.19 1.14,1.15 2.86,-0.59 1.77,-1.77 -8.77,-9.51 -18.23,-18.42 -28.89,-25.79 -1.21,-0.84 -2.44,0.96 -1.51,1.96 7.54,8.19 15.09,16.39 22.63,24.58 0.94,1.02 2.82,-0.36 1.96,-1.51 -6.88,-9.25 -15.22,-17.29 -24.73,-23.82 -1.2,-0.83 -2.46,0.96 -1.51,1.96 l 26.79,28.32 c 1.12,1.19 2.78,-0.55 1.77,-1.77 -7.78,-9.3 -16.38,-17.89 -26.12,-25.14 l -1.26,2.16 c 13.1,9.07 22.15,22.55 33.71,33.3 0.87,0.81 2.49,0.02 2.09,-1.22 -1.74,-5.43 -5.36,-9.84 -9.07,-14.04 -4.25,-4.81 -8.63,-9.51 -13.11,-14.11 l -1.77,1.77 c 9.2,7.33 16.54,16.58 23.79,25.77 0.87,1.1 2.79,-0.36 1.96,-1.51 -6.32,-8.89 -13.76,-16.93 -22.19,-23.86 -1.26,-1.04 -2.76,0.51 -1.77,1.77 6.83,8.71 14.36,16.84 22.51,24.31 1.08,0.99 2.57,-0.24 1.96,-1.51 -4.17,-8.79 -10.69,-16.11 -17.13,-23.28 l -1.77,1.77 c 8.13,8.38 16.26,16.76 24.38,25.14 0.96,0.99 2.79,-0.33 1.96,-1.51 -5.34,-7.62 -11.67,-14.48 -18.86,-20.39 -1.23,-1.01 -2.87,0.56 -1.77,1.77 9.08,9.98 18.16,19.95 27.24,29.93 0.95,1.05 2.72,-0.31 1.96,-1.51 -3.8,-6.08 -8.33,-11.66 -13.5,-16.62 -1.17,-1.13 -2.81,0.56 -1.77,1.77 5.98,6.89 11.96,13.78 17.94,20.66 1.08,1.24 2.73,-0.53 1.77,-1.77 -2.63,-3.39 -5.52,-6.57 -8.64,-9.51 -1.17,-1.1 -2.92,0.63 -1.77,1.77 l 7.83,7.74 c 0.64,0.63 1.28,1.26 1.91,1.89 0.33,0.33 1.59,1.24 1.56,1.67 -0.02,0.21 -0.5,0.66 -0.65,0.85 -0.3,0.39 -0.61,0.78 -0.91,1.17 -0.61,0.78 -1.22,1.56 -1.83,2.33 -0.97,1.23 0.58,2.92 1.77,1.77 1.63,-1.58 2.73,-3.59 3.12,-5.84 0.19,-1.09 -1.21,-2.28 -2.09,-1.22 -1.68,2.02 -3.24,4.13 -4.66,6.35 -0.39,0.61 -0.05,1.73 0.75,1.84 0.61,0.08 1.22,0.16 1.84,0.25 1,0.13 2.05,-0.81 1.41,-1.84 -5.67,-9.13 -11.56,-18.4 -20.4,-24.8 -1.25,-0.9 -2.32,0.95 -1.51,1.96 5.66,7.14 11.32,14.27 16.97,21.41 l 1.77,-1.77 c -6.84,-6.84 -13.69,-13.68 -20.53,-20.52 -1.14,-1.14 -2.88,0.6 -1.77,1.77 3.62,3.81 7.23,7.61 10.85,11.42 3.1,3.26 6.14,7.24 10.19,9.38 1.4,0.74 3.91,1.78 4.58,-0.44 0.52,-1.71 -0.96,-4.05 -1.71,-5.5 -1.97,-3.81 -4.77,-7.17 -8.13,-9.84 -1,-0.8 -2.88,0.26 -1.96,1.51 3.67,5 7.73,9.67 12.2,13.97 0.9,0.87 2.41,0 2.09,-1.22 -1.69,-6.5 -7.28,-10.69 -12.5,-14.38 -1.22,-0.86 -2.4,0.95 -1.51,1.96 4,4.54 8.01,9.09 12.01,13.63 l 1.77,-1.77 c -3.59,-4.01 -7.25,-7.95 -10.99,-11.82 -3.34,-3.44 -6.67,-7.37 -11.02,-9.55 -1,-0.5 -2.53,0.62 -1.71,1.71 3.55,4.72 7.7,8.85 12.44,12.36 1.09,0.8 2.22,-0.71 1.71,-1.71 -3.23,-6.33 -7.69,-11.98 -13.11,-16.58 -1.05,-0.89 -2.68,0.22 -1.96,1.51 2.28,4.11 4.8,8.06 7.58,11.85 0.93,1.27 3.01,0.15 2.16,-1.26 -2.79,-4.62 -5.69,-9.31 -9.95,-12.72 -0.85,-0.68 -2.58,-0.09 -2.09,1.22 1.67,4.4 3.79,8.59 6.37,12.52 0.9,1.37 2.81,0.19 2.16,-1.26 -1.37,-3.05 -3.31,-5.77 -5.73,-8.07 -0.85,-0.81 -2.53,-0.02 -2.09,1.22 0.7,1.99 1.62,3.85 2.8,5.6 0.9,1.33 2.89,0.18 2.16,-1.26 -0.86,-1.7 -2.02,-3.2 -3.46,-4.46 -1.07,-0.94 -2.62,0.23 -1.96,1.51 0.59,1.14 1.17,2.29 1.76,3.43 0.73,1.43 2.89,0.17 2.16,-1.26 -0.59,-1.14 -1.17,-2.29 -1.76,-3.43 -0.65,0.5 -1.31,1.01 -1.96,1.51 1.29,1.13 2.29,2.42 3.07,3.95 l 2.16,-1.26 c -1.06,-1.57 -1.92,-3.22 -2.55,-5 -0.7,0.41 -1.39,0.81 -2.09,1.22 2.28,2.17 4.05,4.7 5.34,7.57 l 2.16,-1.26 c -2.46,-3.75 -4.53,-7.73 -6.12,-11.92 -0.7,0.41 -1.39,0.81 -2.09,1.22 4.11,3.29 6.87,7.76 9.56,12.21 l 2.16,-1.26 c -2.77,-3.79 -5.3,-7.74 -7.58,-11.85 -0.65,0.5 -1.31,1.01 -1.96,1.51 5.27,4.48 9.57,9.91 12.72,16.07 l 1.71,-1.71 c -4.37,-3.24 -8.28,-7.12 -11.55,-11.47 l -1.71,1.71 c 4.29,2.15 7.57,6.11 10.85,9.51 3.63,3.75 7.18,7.58 10.66,11.47 1.08,1.2 2.83,-0.57 1.77,-1.77 -4,-4.54 -8.01,-9.09 -12.01,-13.63 -0.5,0.65 -1.01,1.31 -1.51,1.96 4.67,3.3 9.84,7.06 11.36,12.88 0.7,-0.41 1.39,-0.81 2.09,-1.22 -4.31,-4.15 -8.27,-8.64 -11.81,-13.47 -0.65,0.5 -1.31,1.01 -1.96,1.51 2.78,2.21 5.15,4.86 6.95,7.92 0.9,1.53 1.49,3.14 2.22,4.74 0.44,-0.24 0.39,-0.39 -0.16,-0.45 -0.25,-0.11 -0.49,-0.23 -0.73,-0.35 -0.36,-0.19 -0.7,-0.4 -1.04,-0.62 -0.77,-0.5 -1.47,-1.07 -2.15,-1.69 -2.96,-2.68 -5.61,-5.75 -8.35,-8.64 -2.99,-3.15 -5.99,-6.3 -8.98,-9.45 l -1.77,1.77 c 6.84,6.84 13.69,13.68 20.53,20.52 1.17,1.17 2.74,-0.54 1.77,-1.77 -5.66,-7.14 -11.32,-14.27 -16.97,-21.41 -0.5,0.65 -1.01,1.31 -1.51,1.96 8.46,6.13 14.08,15.17 19.5,23.9 0.47,-0.61 0.94,-1.22 1.41,-1.84 -0.61,-0.08 -1.22,-0.16 -1.84,-0.25 0.25,0.61 0.5,1.22 0.75,1.84 1.3,-2.03 2.72,-3.98 4.26,-5.84 -0.7,-0.41 -1.39,-0.81 -2.09,-1.22 -0.32,1.85 -1.12,3.42 -2.48,4.73 l 1.77,1.77 c 0.71,-0.91 1.42,-1.81 2.13,-2.72 0.59,-0.75 1.33,-1.5 1.78,-2.34 0.990008,-1.86 -0.71,-3.14 -1.9,-4.32 -3.31,-3.27 -6.61,-6.54 -9.92,-9.8 l -1.77,1.77 c 3.12,2.95 6.01,6.12 8.64,9.51 l 1.77,-1.77 c -5.98,-6.89 -11.96,-13.78 -17.94,-20.66 l -1.77,1.77 c 5.02,4.82 9.42,10.22 13.11,16.12 0.65,-0.5 1.31,-1.01 1.96,-1.51 -9.08,-9.98 -18.16,-19.95 -27.24,-29.93 l -1.77,1.77 c 7.02,5.76 13.25,12.44 18.47,19.88 0.65,-0.5 1.31,-1.01 1.96,-1.51 -8.13,-8.38 -16.26,-16.76 -24.38,-25.14 -1.13,-1.16 -2.84,0.58 -1.77,1.77 6.31,7.03 12.66,14.17 16.74,22.78 0.65,-0.5 1.31,-1.01 1.96,-1.51 -8.16,-7.47 -15.69,-15.6 -22.51,-24.31 l -1.77,1.77 c 8.26,6.79 15.61,14.63 21.8,23.35 0.65,-0.5 1.31,-1.01 1.96,-1.51 -7.25,-9.19 -14.59,-18.43 -23.79,-25.77 -1.23,-0.98 -2.92,0.59 -1.77,1.77 4.26,4.36 8.42,8.82 12.47,13.38 3.64,4.1 7.37,8.35 9.07,13.66 0.7,-0.41 1.39,-0.81 2.09,-1.22 -11.74,-10.91 -20.92,-24.48 -34.22,-33.69 -1.34,-0.93 -2.53,1.22 -1.26,2.16 9.56,7.11 17.98,15.63 25.61,24.75 l 1.77,-1.77 -26.79,-28.32 c -0.5,0.65 -1.01,1.31 -1.51,1.96 9.14,6.27 17.22,14.03 23.83,22.92 0.65,-0.5 1.31,-1.01 1.96,-1.51 -7.54,-8.19 -15.09,-16.39 -22.63,-24.58 -0.5,0.65 -1.01,1.31 -1.51,1.96 10.48,7.25 19.76,16.05 28.38,25.4 l 1.77,-1.77 c -8.98,-9.06 -17.96,-18.12 -26.94,-27.19 -0.5,0.65 -1.01,1.31 -1.51,1.96 9.5,6.47 18.21,14.04 25.97,22.52 l 1.77,-1.77 c -8,-8.44 -16.06,-16.88 -25.45,-23.8 -1.13,-0.83 -2.63,1.08 -1.51,1.96 7.31,5.77 13.59,12.73 18.55,20.61 0.65,-0.5 1.31,-1.01 1.96,-1.51 -6.83,-8.44 -14.23,-16.4 -22.15,-23.82 l -1.77,1.77 c 4.2,3.82 8.45,7.74 10.83,13 0.65,-0.5 1.31,-1.01 1.96,-1.51 -3.97,-4.81 -7.93,-9.62 -11.9,-14.43 -3.72,-4.5 -7.27,-9.29 -11.66,-13.17 -0.41,0.7 -0.81,1.39 -1.22,2.09 0.62,0.13 0.94,0.73 0.81,1.36 -0.16,0.72 -0.94,1.12 -1.6,1.26 -1.66,0.37 -3.39,-0.51 -4.34,-1.86 -0.47,0.61 -0.94,1.22 -1.41,1.84 2.14,0.67 3.63,2.4 4.1,4.58 0.4,-0.53 0.8,-1.05 1.21,-1.58 -1.98,-0.2 -3.4,-2.36 -2.96,-4.25 -0.61,0.25 -1.22,0.5 -1.84,0.75 2.71,1.25 4.59,3.54 5.23,6.46 0.61,-0.47 1.22,-0.94 1.84,-1.41 -0.97,-0.72 -1.83,-1.61 -2.5,-2.62 -0.32,-0.49 -0.61,-1 -0.85,-1.53 -0.11,-0.24 -0.17,-0.56 -0.31,-0.78 -0.04,-0.1 -0.07,-0.2 -0.09,-0.3 -0.05,-0.32 -0.2,-0.18 -0.44,0.4 0.05,0.18 1.04,0.69 1.22,0.86 0.42,0.38 0.78,0.81 1.08,1.29 0.64,1.02 0.96,2.13 0.99,3.33 0.63,-0.36 1.25,-0.72 1.88,-1.08 -1.9,-1.44 -3.22,-3.59 -3.7,-5.92 -0.11,-0.52 -0.08,-1.06 -0.18,-1.58 -0.11,-0.57 -0.02,0.13 0.06,0.25 0.11,0.15 0.45,0.29 0.61,0.42 0.9,0.78 1.33,1.88 1.31,3.06 0.53,-0.4 1.05,-0.8 1.58,-1.21 -1.88,-0.62 -3.23,-2.64 -2.94,-4.64 -0.61,0.25 -1.22,0.5 -1.84,0.75 0.96,0.73 1.83,1.61 2.55,2.57 0.34,0.45 0.64,0.93 0.92,1.42 0.13,0.22 0.23,0.5 0.38,0.71 0.06,0.09 0.1,0.19 0.12,0.3 0.06,0.33 0.18,0.2 0.36,-0.39 -0.06,-0.18 -0.99,-0.64 -1.18,-0.81 -0.35,-0.33 -0.65,-0.71 -0.89,-1.13 -0.56,-0.97 -0.72,-2 -0.62,-3.1 -0.63,0.36 -1.25,0.72 -1.88,1.08 2.37,1.5 4.27,3.72 5.3,6.34 0.11,0.29 0.21,0.59 0.31,0.88 0.06,0.18 0.11,0.36 0.16,0.54 0.17,-0.09 0.34,-0.18 0.52,-0.27 0,-0.08 -1.56,-1.42 -1.71,-1.61 -0.86,-1.13 -1.42,-2.51 -1.57,-3.92 -0.71,0.29 -1.42,0.59 -2.13,0.88 2.76,2.65 5.27,5.53 7.45,8.67 1.06,1.52 2.04,3.1 2.95,4.72 0.45,0.81 0.89,1.63 1.3,2.46 0.32,0.65 1.15,1.82 0.67,2.5 0.65,-0.08 1.31,-0.17 1.96,-0.25 -4.56,-3.56 -8.33,-7.96 -11.13,-13.02 -0.65,0.5 -1.31,1.01 -1.96,1.51 5.26,4.42 9.72,9.64 13.24,15.54 0.65,-0.5 1.31,-1.01 1.96,-1.51 -5.19,-5.54 -9.64,-11.69 -13.3,-18.34 l -1.71,1.71 c 5.19,3.78 9.52,8.62 12.75,14.17 0.65,-0.5 1.31,-1.01 1.96,-1.51 -4.48,-4.92 -8.31,-10.37 -11.46,-16.23 l -1.71,1.71 c 6.45,4.14 11.98,9.59 16.21,15.98 0.65,-0.5 1.31,-1.01 1.96,-1.51 -4.76,-5.66 -9.52,-11.33 -14.28,-16.99 l -1.77,1.77 c 5.9,4.78 10.9,10.53 14.79,17.05 0.65,-0.5 1.31,-1.01 1.96,-1.51 -4.9,-5.7 -10.29,-10.94 -16.12,-15.68 -1.22,-0.99 -2.96,0.64 -1.77,1.77 6.13,5.81 12.33,11.75 16.28,19.32 0.65,-0.5 1.31,-1.01 1.96,-1.51 l -15.18,-18 -1.77,1.77 c 4.22,4.19 7.78,8.94 10.64,14.16 l 1.71,-1.71 c -4.27,-3.07 -7.96,-6.89 -10.89,-11.25 -0.89,-1.39 -3.06,-0.14 -2.15,1.2 z"
     class="st3" /><g
     id="XMLID_154_"
     transform="translate(-193.17351,-199.05527)"><path
       d="m 210.95,217.82 c -5.51,25.04 -11.02,50.09 -16.54,75.13 0.11,0.04 0.21,0.09 0.32,0.13 0.4,0.17 2.77,1.37 2.6,1.4 1.27,-0.2 2.39,0.04 3.33,0.54 2.93,0.28 5.88,0.44 8.83,0.58 26.18,1.26 52.37,2.51 78.55,3.77 z"
       class="st4"
       id="path2630" /><path
       d="m 209.75,217.49 c -4.3,19.51 -8.59,39.03 -12.89,58.54 -1.22,5.53 -2.43,11.06 -3.65,16.59 -0.16,0.73 0.22,1.26 0.87,1.54 0.44,0.19 0.87,0.42 1.3,0.64 0.23,0.12 0.46,0.24 0.68,0.36 0.07,0.04 0.67,0.44 0.39,0.2 -0.11,-0.41 -0.21,-0.81 -0.32,-1.22 v 0.02 c -0.13,0.7 0.33,1.69 1.21,1.58 1.3,-0.16 2.12,0.31 3.33,0.54 1.41,0.27 2.97,0.25 4.41,0.34 2.96,0.19 5.93,0.31 8.89,0.45 5.97,0.29 11.93,0.57 17.9,0.86 11.93,0.57 23.86,1.15 35.8,1.72 6.79,0.33 13.59,0.65 20.38,0.98 1.12,0.05 1.59,-1.38 0.88,-2.13 -2.55,-2.7 -5.11,-5.4 -7.66,-8.1 -6.13,-6.49 -12.26,-12.97 -18.39,-19.46 -7.45,-7.88 -14.89,-15.76 -22.34,-23.64 l -19.17,-20.28 c -3.12,-3.3 -6.11,-6.79 -9.39,-9.93 -0.04,-0.04 -0.09,-0.09 -0.13,-0.14 -1.11,-1.17 -2.87,0.6 -1.77,1.77 2.55,2.7 5.11,5.4 7.66,8.1 6.13,6.49 12.26,12.97 18.39,19.46 7.45,7.88 14.89,15.76 22.34,23.64 l 19.17,20.28 c 2.12,2.25 4.25,4.49 6.37,6.74 0.96,1.02 1.91,2.32 3.02,3.19 0.05,0.04 0.09,0.09 0.13,0.14 0.29,-0.71 0.59,-1.42 0.88,-2.13 -24.03,-1.15 -48.06,-2.31 -72.09,-3.46 -3.3,-0.16 -6.6,-0.3 -9.9,-0.49 -1.6,-0.09 -3.43,0 -4.99,-0.37 -1.34,-0.32 -2.3,-0.75 -3.73,-0.57 0.4,0.53 0.8,1.05 1.21,1.58 0.32,-1.7 -2.57,-2.56 -3.79,-3.07 0.29,0.51 0.58,1.03 0.87,1.54 4.3,-19.51 8.59,-39.03 12.89,-58.54 1.22,-5.53 2.43,-11.06 3.65,-16.59 0.35,-1.59 -2.06,-2.26 -2.41,-0.68 z"
       class="st4"
       id="path2632" /></g></svg>
