<?xml version="1.0" encoding="UTF-8" standalone="no"?>
<svg
   xmlns:dc="http://purl.org/dc/elements/1.1/"
   xmlns:cc="http://creativecommons.org/ns#"
   xmlns:rdf="http://www.w3.org/1999/02/22-rdf-syntax-ns#"
   xmlns:svg="http://www.w3.org/2000/svg"
   xmlns="http://www.w3.org/2000/svg"
   xmlns:sodipodi="http://sodipodi.sourceforge.net/DTD/sodipodi-0.dtd"
   xmlns:inkscape="http://www.inkscape.org/namespaces/inkscape"
   viewBox="0 0 436.35345 198.40189"
   version="1.1"
   id="svg2701"
   sodipodi:docname="satellite.svg"
   width="436.35345"
   height="198.40189"
   inkscape:version="1.0.1 (3bc2e813f5, 2020-09-07)">
  <metadata
     id="metadata2705">
    <rdf:RDF>
      <cc:Work
         rdf:about="">
        <dc:format>image/svg+xml</dc:format>
        <dc:type
           rdf:resource="http://purl.org/dc/dcmitype/StillImage" />
      </cc:Work>
    </rdf:RDF>
  </metadata>
  <sodipodi:namedview
     pagecolor="#ffffff"
     bordercolor="#666666"
     borderopacity="1"
     objecttolerance="10"
     gridtolerance="10"
     guidetolerance="10"
     inkscape:pageopacity="0"
     inkscape:pageshadow="2"
     inkscape:window-width="1517"
     inkscape:window-height="1080"
     id="namedview2703"
     showgrid="false"
     inkscape:zoom="1.766"
     inkscape:cx="219.04"
     inkscape:cy="132.60207"
     inkscape:window-x="1940"
     inkscape:window-y="36"
     inkscape:window-maximized="0"
     inkscape:current-layer="svg2701" />
  <defs
     id="defs2640" />
  <style
     id="style2642">.st0{fill:#67686b}.st1,.st2{fill:#5157a6;stroke:#fff;stroke-width:1.5;stroke-miterlimit:10}.st2{stroke-width:.5}.st3{fill:#686868;stroke:#686868}.st3,.st4,.st5{stroke-miterlimit:10}.st4{fill:#797a7d;stroke:#797a7d}.st5{stroke:#8a8c8e}.st5,.st6{fill:#8a8c8e}.st7{fill:#686868}.st8{fill:#474846}.st9{fill:#d1d3d4;stroke:#d1d3d4}.st10,.st12,.st9{stroke-miterlimit:10}.st10{stroke-width:.5;stroke:#fff}.st12{fill:none;stroke:#6f7173}</style>
  <g
     id="left_panels"
     transform="translate(-30.96,-117.39793)">
    <path
       d="m 159.08,185.16 17.2,5.15 -3.55,4.08 -13.65,-4.08 z"
       class="st0"
       id="path2644" />
    <path
       d="m 115.66,147.46 43.42,13.15 v 55.73 l -43.42,-12.81 z"
       class="st1"
       id="path2646" />
    <path
       d="m 72.55,133.7 43.11,13.76 v 56.07 L 72.55,189.04 Z"
       class="st1"
       id="path2648" />
    <path
       d="m 31.71,120.86 40.84,12.84 v 55.34 L 31.71,176.2 Z"
       class="st1"
       id="path2650" />
    <path
       d="m 129.56,151.67 v 55.96 m 15.87,-51.16 v 55.5 m -42.94,-68.71 v 55.41 M 88.21,138.7 v 55.69 M 59.45,129.58 v 54.64 M 46.91,125.64 v 55.34 M 31.71,138.7 159.08,179.23 M 31.71,157.47 159.08,196.76"
       class="st2"
       id="path2652" />
  </g>
  <g
     id="Layer_4"
     transform="translate(-30.96,-117.39793)">
    <path
       d="M 235.51,130.1 250,119.79 c 0,0 30.59,-9.63 54.64,14.45 5.01,5.96 21.29,18.34 12.12,46.09 -4.59,4.59 -12.12,11.69 -12.12,11.69 z"
       class="st3"
       id="path2655" />
    <path
       d="m 187.71,162.23 38.78,-30.06 c 0,0 29.5,-11.01 58.63,17.66 5.27,5.04 21.78,20.64 19.26,45.63 -4.82,5.04 -32.98,32.91 -32.98,32.91 z"
       class="st4"
       id="path2657" />
    <path
       d="m 178.03,185.16 c 0,0 -1.43,-13.42 7.95,-21.57 4.66,-4.05 11.98,-6.8 23.47,-5.96 9.17,1.83 61.91,12.21 65.58,58.72 -0.69,7.09 -4.84,28.84 -37.5,22.32 -32.66,-6.52 -59.5,-53.51 -59.5,-53.51 z"
       class="st5"
       id="path2659" />
    <path
       d="m 176.69,189.91 c 0,0 0.01,-0.2 0.1,-0.57 0.51,-2.04 3.49,-9.39 20.8,-18.95 4.28,-1.22 26.6,-2.14 46.47,17.43 4.89,4.28 19.26,20.26 11.92,36.58 -2.75,2.86 -12.18,11.42 -16.94,12.8 -4.75,1.37 -62.35,-47.29 -62.35,-47.29 z"
       class="st4"
       id="path2661" />
    <path
       d="m 171.05,203.09 c 0,0 -5.55,-6.71 14.63,-20.16 4.59,-1.53 25.07,-6.42 46.78,16.2 5.5,5.5 19.87,18.34 9.17,35.77 -4.59,3.67 -6.09,7.17 -13.15,8.87 -7.06,1.69 -4.87,0 -4.87,0 z"
       class="st5"
       id="path2663" />
    <path
       d="m 160.61,211.54 16.09,-13.03 c 0,0 12.77,-6.85 33.96,6.51 4.99,3.88 25.47,19.17 14.77,37.21 -3.36,3.06 -13.15,9.78 -13.15,9.78 z"
       class="st3"
       id="path2665" />
    <path
       d="m 143.88,220.8 c 3.43,-4.69 8.77,-7.89 14.48,-8.91 1.9,-0.34 3.85,-0.44 5.78,-0.26 3.15,0.28 6.19,1.22 9.19,2.21 4.61,1.53 9.21,3.21 13.38,5.71 14.86,8.93 23.95,24.83 23.59,35.33 -0.03,1 0.51,1.97 0.3,2.95 -0.26,1.27 -1.23,2.26 -2.15,3.17 -3.12,3.09 -6.24,6.18 -9.35,9.27 -4.44,-6.95 -11.51,-11.76 -18.71,-15.79 -7.2,-4.03 -14.78,-7.51 -21.2,-12.68 -5.67,-4.56 -10.25,-10.3 -14.79,-15.99 -0.95,-1.19 -1.96,-2.63 -1.6,-4.11"
       class="st6"
       id="path2667" />
    <path
       d="m 146.04,222.06 c 4.14,-5.55 11.26,-8.54 18.1,-7.93 4.02,0.35 7.99,1.88 11.77,3.23 3.62,1.29 7.13,2.82 10.39,4.87 5.5,3.46 10.39,8.04 14.18,13.33 3.24,4.52 5.87,9.52 6.96,14.98 0.06,0.31 0.12,0.63 0.17,0.94 0.06,0.36 0.07,0.47 0.07,0.52 0.07,0.63 0.12,1.27 0.13,1.91 0.02,0.92 0.03,1.79 0.21,2.7 0.16,0.83 0.06,1.13 -0.5,1.78 -1.47,1.7 -3.21,3.21 -4.8,4.79 -1.79,1.77 -3.58,3.55 -5.37,5.32 l 3.93,0.51 c -5.2,-8.02 -13.31,-13.27 -21.54,-17.76 -4.4,-2.4 -8.88,-4.66 -13.14,-7.31 -4.17,-2.6 -7.92,-5.65 -11.32,-9.2 -1.95,-2.04 -3.79,-4.18 -5.58,-6.36 -0.9,-1.09 -1.78,-2.19 -2.66,-3.3 -0.44,-0.55 -1.91,-1.95 -1.79,-2.72 0.22,-1.33 -0.35,-2.69 -1.75,-3.08 -1.2,-0.33 -2.85,0.41 -3.08,1.75 -0.52,3.15 1.22,5.26 3.07,7.58 1.58,1.98 3.17,3.94 4.81,5.86 3.43,3.99 7.15,7.69 11.39,10.82 8.15,6.01 17.7,9.71 26.06,15.37 4.33,2.93 8.34,6.45 11.2,10.86 0.87,1.35 2.74,1.68 3.93,0.51 3.3,-3.27 6.72,-6.45 9.91,-9.82 1.64,-1.73 2.63,-3.67 2.23,-6.09 -0.22,-1.33 -0.17,-2.65 -0.31,-3.99 -0.65,-6.17 -3.24,-12.04 -6.6,-17.2 -4.06,-6.22 -9.34,-11.61 -15.46,-15.82 -3.57,-2.45 -7.43,-4.31 -11.47,-5.86 -4.09,-1.57 -8.37,-3.14 -12.71,-3.82 -9.53,-1.5 -18.97,2.4 -24.73,10.11 -0.81,1.08 -0.18,2.79 0.9,3.42 1.25,0.74 2.59,0.18 3.4,-0.9 z"
       class="st6"
       id="path2669" />
    <path
       d="m 145.03,222.51 c 0.42,-0.26 -0.43,-0.64 -0.85,-0.4 -3.68,2.1 -5.58,6.54 -5.57,10.77 0.01,4.24 1.67,8.3 3.7,12.02 7.15,13.04 19.35,23.02 33.17,28.52 5.52,2.2 11.76,3.7 17.33,1.64 8.24,-3.06 12.04,-13.31 10.24,-21.9 -1.8,-8.6 -7.88,-15.66 -14.48,-21.47 -9.32,-8.2 -21.01,-14.94 -33.39,-14.12 -2.64,0.18 -5.34,0.73 -7.55,2.18 -2.21,1.45 -3.87,3.96 -3.75,6.61"
       class="st7"
       id="path2671" />
    <path
       d="m 146.8,224.27 c 1.59,-1.96 0.46,-4.62 -2.12,-4.73 -1.78,-0.08 -3.51,1.47 -4.63,2.7 -2.35,2.58 -3.58,5.91 -3.88,9.36 -0.64,7.36 3.57,14.68 7.7,20.45 8.14,11.35 20.05,20.1 33.26,24.63 7.16,2.46 15.23,2.88 21.4,-2.11 4.79,-3.87 7.2,-10.21 7.44,-16.23 0.57,-14.39 -11.7,-26.2 -22.51,-33.87 -5.97,-4.24 -12.81,-7.69 -20.08,-8.91 -6.95,-1.17 -16.36,-1.1 -20.56,5.63 -0.96,1.55 -1.46,3.36 -1.44,5.18 0.04,3.22 5.04,3.22 5,0 -0.03,-2.68 2.15,-4.64 4.53,-5.47 2.91,-1.02 6.14,-1.04 9.18,-0.76 5.99,0.54 11.71,2.95 16.81,6.02 5.34,3.22 10.25,7.24 14.55,11.76 3.99,4.19 7.45,9.08 8.91,14.75 1.2,4.67 0.67,9.82 -1.72,14.05 -2.69,4.76 -7.31,7.11 -12.75,6.8 -6.02,-0.34 -12.02,-3.19 -17.22,-6.07 -5.14,-2.85 -9.89,-6.35 -14.08,-10.48 -4.7,-4.63 -8.74,-10.05 -11.5,-16.06 -1.34,-2.91 -2.3,-6.29 -1.9,-9.53 0.18,-1.47 0.67,-2.93 1.41,-4.2 0.32,-0.55 0.67,-1.04 1.11,-1.51 0.24,-0.26 0.5,-0.52 0.78,-0.74 0.1,-0.11 0.22,-0.19 0.35,-0.26 0.69,-0.36 0.35,-0.45 -1,-0.26 -0.38,-0.5 -0.77,-1 -1.15,-1.49 0.02,0.05 0.03,0.09 0.05,0.14 0.21,-0.81 0.43,-1.62 0.64,-2.43 -0.04,0.05 -0.07,0.09 -0.11,0.14 -0.85,1.05 -1.02,2.51 0,3.54 0.87,0.84 2.67,1.02 3.53,-0.04 z"
       class="st7"
       id="path2673" />
    <ellipse
       cx="170.35001"
       cy="244.52"
       class="st8"
       rx="12.92"
       ry="20.25"
       transform="rotate(-56.58,170.34544,244.50748)"
       id="ellipse2675" />
  </g>
  <g
     id="Layer_3"
     transform="translate(-30.96,-117.39793)">
    <path
       d="m 194.54,181.41 -8.56,7.63 h 8.56 l 8.12,-7.07 c 0,0 -3.57,-1.05 -8.12,-0.56 z m 18.63,3.75 -7.93,6.33 7.93,3.97 7.2,-6.42 c 0,0 -2.37,-2.07 -7.2,-3.88 z m 15.3,10.11 -8.1,5.7 5.66,5.2 8.02,-5.45 c 0,-0.01 -3.32,-3.51 -5.58,-5.45 z m 12.27,13.22 -7.68,4.47 3.84,7.57 7.69,-4.19 c 0,0 -1.82,-5.15 -3.85,-7.85 z m 3.85,19.88 -7.86,3.78 -1.22,5.07 6.11,-2.32 c 0,0 2.68,-5.45 2.97,-6.53 z"
       class="st9"
       id="path2678" />
  </g>
  <g
     id="right_panels"
     transform="translate(-30.96,-117.39793)">
    <path
       d="m 253.47,216.34 c 0,0 -3.13,0.96 -3.1,3.48 3.93,1.15 17.2,4.57 17.2,4.57 l 0.56,-4.02 z"
       class="st0"
       id="path2681" />
    <path
       d="m 263.33,255.08 8.26,-59.62 58.7,16.51 -12.54,60.07 z m 66.96,-43.11 66.65,19.57 -19.42,60.53 -59.77,-20.03 z"
       class="st1"
       id="path2683" />
    <path
       d="m 396.94,231.54 69.4,20.48 -22.47,62.83 -66.35,-22.78 z"
       class="st1"
       id="path2685" />
    <path
       d="m 288.65,200.26 -8.56,60.04 m 30,-54.01 -10.52,60.09 m 51.15,-48.41 -15.09,60.06 m 39.18,-52.99 -17.47,60.27 m 62.56,-47 -20.24,61.36 m 44.16,-54.3 -21.89,61.95 m -152.57,-95.78 190.45,58.73 m -193.63,-35.74 185.83,57.54"
       class="st10"
       id="path2687" />
  </g>
  <g
     id="Layer_6"
     transform="translate(-30.96,-117.39793)">
    <ellipse
       cx="146.56"
       cy="264.84"
       fill="#d8d9da"
       stroke="#d8d9da"
       stroke-miterlimit="10"
       rx="33.299999"
       ry="49.34"
       transform="rotate(-60,146.55859,264.85092)"
       id="ellipse2690" />
    <path
       d="m 114.01,281.21 c -0.5,0.14 10.46,-17.4 27.88,-18.46 m 8.19,4.46 c 0,0 7.52,12.59 -2.95,33.62 m 5.56,-35.24 c 2.94,-1.7 25.28,6.4 33.03,28.58 m -43.33,-36.26 c 0,0 -9.38,-17.4 -38.56,-17.74 m 39.24,-12.01 c 0,0 6.84,10.52 4.06,27.36 m 3.74,5.87 c 0,0 10.44,-9.41 35.74,-3.07"
       class="st12"
       id="path2692" />
    <ellipse
       cx="148.32001"
       cy="261.39001"
       fill="#bec0c2"
       stroke="#bec0c2"
       stroke-miterlimit="10"
       rx="5.7600002"
       ry="6.9499998"
       transform="rotate(-71.385,148.32458,261.38997)"
       id="ellipse2694" />
    <path
       fill="#b3b5b8"
       d="m 106.22,236.06 c 0,0 20.86,-15.36 51.54,5.18 8.71,5.84 33.71,21.59 31.61,49.03 2.29,-3.44 3.58,-8.33 3.58,-12.75 0.01,-9.11 -3.74,-24.32 -23.65,-38.22 -3.32,-2.32 -7.45,-5.08 -12.15,-6.97 -3.44,-1.38 -6.44,-2.68 -10.09,-3.71 -5.62,-1.59 -11.34,-2.43 -16.91,-2.24 -4.63,0.16 -10.2,1.09 -14.77,3.13 -3.61,1.63 -6.41,3.51 -9.16,6.55 z"
       id="path2696" />
    <path
       d="m 146.56,259.66 c 0,0 3.36,-0.91 4.32,3.09 -1.16,1.38 -43.16,40.94 -43.16,40.94 0,0 -2.87,1.33 -3.88,-2.85 5.1,-5.1 42.72,-41.18 42.72,-41.18 z"
       class="st8"
       id="path2698" />
  </g>
</svg>
