<?xml version="1.0" encoding="UTF-8" standalone="no"?>
<svg
   xmlns:dc="http://purl.org/dc/elements/1.1/"
   xmlns:cc="http://creativecommons.org/ns#"
   xmlns:rdf="http://www.w3.org/1999/02/22-rdf-syntax-ns#"
   xmlns:svg="http://www.w3.org/2000/svg"
   xmlns="http://www.w3.org/2000/svg"
   xmlns:sodipodi="http://sodipodi.sourceforge.net/DTD/sodipodi-0.dtd"
   xmlns:inkscape="http://www.inkscape.org/namespaces/inkscape"
   id="Layer_1"
   x="0"
   y="0"
   version="1.1"
   viewBox="0 0 195.51489 189.91628"
   xml:space="preserve"
   sodipodi:docname="sun.svg"
   width="195.51489"
   height="189.91628"
   inkscape:version="1.0.1 (3bc2e813f5, 2020-09-07)"><metadata
     id="metadata2901"><rdf:RDF><cc:Work
         rdf:about=""><dc:format>image/svg+xml</dc:format><dc:type
           rdf:resource="http://purl.org/dc/dcmitype/StillImage" /></cc:Work></rdf:RDF></metadata><sodipodi:namedview
     pagecolor="#ffffff"
     bordercolor="#666666"
     borderopacity="1"
     objecttolerance="10"
     gridtolerance="10"
     guidetolerance="10"
     inkscape:pageopacity="0"
     inkscape:pageshadow="2"
     inkscape:window-width="1517"
     inkscape:window-height="1080"
     id="namedview2899"
     showgrid="false"
     inkscape:zoom="2.2075"
     inkscape:cx="99.167576"
     inkscape:cy="142.62758"
     inkscape:window-x="1940"
     inkscape:window-y="36"
     inkscape:window-maximized="0"
     inkscape:current-layer="Layer_1"
     inkscape:document-rotation="0" /><defs
     id="defs2707" /><style
     id="style2709">.st1{fill:#efcf19}</style><linearGradient
     id="SVGID_1_"
     x1="201.93069"
     x2="202.10471"
     y1="58.327599"
     y2="102.2417"
     gradientUnits="userSpaceOnUse"
     gradientTransform="translate(-100.83242,-57.372422)"><stop
       offset=".0398"
       stop-color="#f9ed32"
       id="stop2711" /><stop
       offset=".1849"
       stop-color="#f9e731"
       id="stop2713" /><stop
       offset=".364"
       stop-color="#f8dd2e"
       id="stop2715" /><stop
       offset=".5609"
       stop-color="#f8cc29"
       id="stop2717" /><stop
       offset=".7707"
       stop-color="#f7b423"
       id="stop2719" /><stop
       offset=".9886"
       stop-color="#f7951e"
       id="stop2721" /><stop
       offset="1"
       stop-color="#f7941d"
       id="stop2723" /></linearGradient><path
     fill="url(#SVGID_1_)"
     d="m 87.317576,44.137578 c 6.75,-0.84 13.630004,-0.64 20.320004,0.57 0.58,0.11 1.19,0.22 1.76,0.05 0.87,-0.26 1.41,-1.11 1.84,-1.91 3.68,-6.85 4.83,-15.02 3.19,-22.61 -1.64,-7.6 -6.07,-14.5600001 -12.25,-19.28000005 1.48,4.38999995 1.95,9.34000005 0.09,13.58000005 -2.510004,5.7 -8.620004,8.96 -12.030004,14.18 -2.61,4 -3.47,9.1 -2.31,13.73"
     id="path2726"
     style="fill:url(#SVGID_1_)" /><path
     d="m 87.317576,45.157578 c 5.55,-0.67 11.17,-0.68 16.720004,0.02 2.09,0.26 5,1.44 6.8,-0.1 1.61,-1.38 2.44,-3.96 3.16,-5.88 3.32,-8.83 2.78,-18.85 -1.46,-27.27 -2.29,-4.5500001 -5.61,-8.5700001 -9.64,-11.69000005 -0.72,-0.56 -2.06,-0.09 -1.71,0.98999995 1.38,4.19 1.98,9.0000001 0.04,13.1300001 -1.540004,3.26 -4.280004,5.69 -6.840004,8.14 -2.6,2.49 -5.07,5.11 -6.49,8.47 -1.58,3.72 -1.89,7.83 -0.96,11.76 0.3,1.28 2.27,0.74 1.97,-0.54 -0.98,-4.13 -0.38,-8.57 1.78,-12.25 1.85,-3.15 4.71,-5.51 7.28,-8.04 2.530004,-2.48 4.850004,-5.24 5.870004,-8.7 1.22,-4.0900001 0.63,-8.5100001 -0.68,-12.50000005 l -1.71,0.98999995 c 6.56,5.07 11.09,12.5200001 12.34,20.7400001 0.68,4.51 0.35,9.18 -0.89,13.57 -0.62,2.2 -1.45,4.35 -2.55,6.35 -0.61,1.11 -1.09,1.61 -2.45,1.39 -1.21,-0.19 -2.42,-0.4 -3.63,-0.56 -5.630004,-0.72 -11.320004,-0.73 -16.960004,-0.05 -1.28,0.14 -1.29,2.18 0.01,2.03 z"
     class="st1"
     id="path2728" /><path
     fill="#f1d933"
     d="m 102.04758,50.707578 c -1.97,0.09 -3.040004,-0.28 -4.620004,-0.22 -5.75,0.23 -11.56,0.48 -17.08,1.95 -12.83,3.44 -22.75,13.49 -27.04,24.97 -4.29,11.48 -3.42,24.150002 0.36,35.770002 0.97,2.97 2.13,5.91 3.78,8.62 4.17,6.85 11.33,11.93 19.2,15.16 8.26,3.39 17.45,4.9 26.500004,4.37 4.05,-0.24 8.1,-0.89 11.89,-2.2 8.55,-2.96 15.32,-9.11 20.72,-15.81 1.9,-2.36 3.68,-4.82 4.94,-7.51 1.32,-2.82 2.05,-5.85 2.46,-8.9 1.67,-12.260002 2.3,-27.730002 -5.49,-37.880002 -7.8,-10.15 -19.75,-19.04 -35.62,-18.32 z"
     id="path2730" /><path
     fill="#f2db33"
     d="m 102.04758,49.687578 c -1.1,0.03 -2.170004,-0.09 -3.270004,-0.18 -1.33,-0.1 -2.67,0.01 -4,0.07 -2.89,0.13 -5.77,0.32 -8.64,0.7 -4.97,0.66 -9.77,2.03 -14.21,4.39 -7.85,4.15 -14.29,10.96 -18.13,18.96 -4.55,9.5 -5.26,20.34 -3.45,30.610002 0.95,5.36 2.47,10.8 4.89,15.7 2.11,4.26 5.22,7.93 8.9,10.91 8.08,6.53 18.39,10.09 28.63,11.23 10.720004,1.19 21.920004,-0.18 31.070004,-6.22 4.01,-2.65 7.56,-5.95 10.72,-9.56 3.45,-3.94 6.67,-8.2 8.27,-13.25 1.49,-4.67 1.88,-9.78 2.19,-14.650002 0.3,-4.66 0.25,-9.35 -0.4,-13.98 -0.63,-4.46 -1.87,-8.89 -4.09,-12.84 -2.08,-3.71 -5.08,-7.02 -8.15,-9.92 -6.43,-6.07 -14.42,-10.44 -23.25,-11.64 -2.33,-0.32 -4.7,-0.42 -7.08,-0.33 -1.31,0.05 -1.32,2.09 0,2.04 8.89,-0.36 17.37,2.42 24.52,7.68 6.54,4.81 12.4,11.38 14.76,19.26 2.52,8.4 2.11,17.48 1.07,26.090002 -0.63,5.21 -1.86,10.01 -4.82,14.41 -2.66,3.95 -5.91,7.6 -9.44,10.79 -3.49,3.15 -7.46,5.84 -11.84,7.61 -4.9,1.97 -10.2,2.72 -15.45,2.83 -10.310004,0.21 -20.880004,-2.17 -29.850004,-7.34 -3.9,-2.25 -7.5,-5.07 -10.38,-8.56 -3.2,-3.87 -5.08,-8.55 -6.5,-13.32 -2.98,-10.01 -3.75,-20.850002 -0.69,-30.930002 2.48,-8.19 7.64,-15.56 14.53,-20.65 3.5,-2.59 7.4,-4.6 11.57,-5.86 5.18,-1.56 10.62,-1.92 15.99,-2.15 2.2,-0.1 4.35,0.2 6.540004,0.14 1.3,-0.04 1.3,-2.08 -0.01,-2.04 z"
     id="path2732" /><linearGradient
     id="SVGID_2_"
     x1="255.36909"
     x2="255.54311"
     y1="68.4776"
     y2="112.3917"
     gradientTransform="rotate(38.445,273.72474,-86.076504)"
     gradientUnits="userSpaceOnUse"><stop
       offset=".0398"
       stop-color="#f9ed32"
       id="stop2734" /><stop
       offset=".1849"
       stop-color="#f9e731"
       id="stop2736" /><stop
       offset=".364"
       stop-color="#f8dd2e"
       id="stop2738" /><stop
       offset=".5609"
       stop-color="#f8cc29"
       id="stop2740" /><stop
       offset=".7707"
       stop-color="#f7b423"
       id="stop2742" /><stop
       offset=".9886"
       stop-color="#f7951e"
       id="stop2744" /><stop
       offset="1"
       stop-color="#f7941d"
       id="stop2746" /></linearGradient><path
     fill="url(#SVGID_2_)"
     d="m 125.59758,48.807578 c 5.81,3.54 11.07,7.97 15.56,13.08 0.39,0.45 0.8,0.91 1.35,1.13 0.84,0.34 1.79,0.01 2.63,-0.35 7.14,-3.07 13.12,-8.76 16.56,-15.73 3.44,-6.97 4.3,-15.18 2.4,-22.71 -1.57,4.36 -4.28,8.53 -8.38,10.69 -5.51,2.9 -12.33,1.66 -18.24,3.63 -4.53,1.51 -8.38,4.97 -10.35,9.32"
     id="path2749"
     style="fill:url(#SVGID_2_)" /><path
     d="m 125.08758,49.687578 c 4.43,2.72 8.54,5.93 12.23,9.6 0.87,0.87 1.72,1.76 2.54,2.67 0.69,0.77 1.36,1.69 2.38,2.04 2.03,0.7 4.48,-0.87 6.2,-1.82 8.19,-4.51 14.33,-12.38 16.61,-21.44 1.39,-5.5 1.38,-11.28 0.02,-16.78 -0.26,-1.05 -1.64,-0.89 -1.97,0 -1.36,3.69 -3.53,7.34 -6.91,9.5 -3.5,2.24 -7.73,2.44 -11.75,2.82 -3.81,0.36 -7.57,0.96 -10.9,2.97 -3.17,1.91 -5.73,4.75 -7.3,8.11 -0.55,1.18 1.21,2.22 1.76,1.03 1.65,-3.52 4.39,-6.38 7.89,-8.1 3.82,-1.87 8.17,-1.85 12.3,-2.33 3.93,-0.45 7.69,-1.42 10.76,-4.03 2.91,-2.46 4.81,-5.89 6.11,-9.42 h -1.97 c 2.21,9 0.47,18.68 -4.87,26.26 -2.43,3.45 -5.58,6.42 -9.15,8.67 -0.82,0.52 -1.67,1 -2.53,1.44 -0.9,0.46 -2.25,1.34 -3.3,1.26 -0.96,-0.08 -1.79,-1.46 -2.39,-2.1 -0.83,-0.91 -1.69,-1.79 -2.57,-2.65 -3.69,-3.6 -7.79,-6.76 -12.18,-9.46 -1.1,-0.69 -2.13,1.07 -1.01,1.76 z"
     class="st1"
     id="path2751" /><linearGradient
     id="SVGID_3_"
     x1="297.44791"
     x2="297.6218"
     y1="118.8064"
     y2="162.7206"
     gradientTransform="rotate(81.17,267.34392,40.23692)"
     gradientUnits="userSpaceOnUse"><stop
       offset=".0398"
       stop-color="#f9ed32"
       id="stop2753" /><stop
       offset=".1849"
       stop-color="#f9e731"
       id="stop2755" /><stop
       offset=".364"
       stop-color="#f8dd2e"
       id="stop2757" /><stop
       offset=".5609"
       stop-color="#f8cc29"
       id="stop2759" /><stop
       offset=".7707"
       stop-color="#f7b423"
       id="stop2761" /><stop
       offset=".9886"
       stop-color="#f7951e"
       id="stop2763" /><stop
       offset="1"
       stop-color="#f7941d"
       id="stop2765" /></linearGradient><path
     fill="url(#SVGID_3_)"
     d="m 149.54758,75.037578 c 1.86,6.54 2.73,13.37 2.55,20.16 -0.01,0.59 -0.03,1.21 0.22,1.75 0.39,0.82 1.31,1.22 2.17,1.53 7.33,2.590002 15.58,2.470002 22.84,-0.32 7.26,-2.79 13.46,-8.23 17.17,-15.06 -4.11,2.14 -8.93,3.36 -13.41,2.17 -6.02,-1.61 -10.18,-7.14 -15.86,-9.71 -4.35,-1.97 -9.53,-2.03 -13.93,-0.17"
     id="path2768"
     style="fill:url(#SVGID_3_)" /><path
     d="m 148.56758,75.307578 c 1.52,5.4 2.38,10.96 2.52,16.57 0.05,1.92 -0.6,4.8 0.9,6.33 1.48,1.5 4.29,1.960002 6.25,2.380002 9.48,2.02 19.61,-0.06 27.4,-5.850002 4,-2.97 7.33,-6.75 9.74,-11.12 0.51,-0.92 -0.5,-1.86 -1.4,-1.4 -3.84,1.96 -8.34,3.21 -12.62,2.07 -3.48,-0.93 -6.36,-3.27 -9.16,-5.43 -2.89,-2.22 -5.89,-4.34 -9.47,-5.26 -3.87,-0.99 -8,-0.71 -11.69,0.8 -1.2,0.49 -0.68,2.46 0.54,1.97 3.9,-1.59 8.24,-1.76 12.21,-0.3 3.57,1.31 6.47,3.92 9.48,6.16 2.92,2.17 6.05,4.01 9.73,4.43 4.18,0.48 8.33,-0.79 12.02,-2.67 l -1.4,-1.4 c -4.03,7.31 -10.83,12.96 -18.85,15.37 -4.43,1.33 -9.15,1.7 -13.74,1.06 -2.2,-0.3 -4.54,-0.77 -6.59,-1.64 -1.18,-0.5 -1.34,-1.2 -1.31,-2.41 0.02,-1.27 0.02,-2.53 -0.02,-3.8 -0.19,-5.55 -1.07,-11.06 -2.57,-16.4 -0.36,-1.26 -2.33,-0.72 -1.97,0.54 z"
     class="st1"
     id="path2770" /><g
     id="g2791"
     transform="translate(-100.83242,-57.372422)"><linearGradient
       id="SVGID_4_"
       x1="291.48309"
       x2="291.65701"
       y1="164.464"
       y2="208.3782"
       gradientTransform="matrix(-0.4887,0.8724,-0.8724,-0.4887,568.7917,29.5682)"
       gradientUnits="userSpaceOnUse"><stop
         offset=".0398"
         stop-color="#f9ed32"
         id="stop2772" /><stop
         offset=".1849"
         stop-color="#f9e731"
         id="stop2774" /><stop
         offset=".364"
         stop-color="#f8dd2e"
         id="stop2776" /><stop
         offset=".5609"
         stop-color="#f8cc29"
         id="stop2778" /><stop
         offset=".7707"
         stop-color="#f7b423"
         id="stop2780" /><stop
         offset=".9886"
         stop-color="#f7951e"
         id="stop2782" /><stop
         offset="1"
         stop-color="#f7941d"
         id="stop2784" /></linearGradient><path
       fill="url(#SVGID_4_)"
       d="m 251.92,170.37 c -2.57,6.3 -6.1,12.2 -10.43,17.45 -0.38,0.46 -0.77,0.93 -0.9,1.51 -0.2,0.89 0.28,1.77 0.77,2.54 4.18,6.56 10.74,11.56 18.17,13.84 7.43,2.28 15.67,1.82 22.8,-1.26 -4.55,-0.85 -9.1,-2.86 -11.89,-6.56 -3.75,-4.98 -3.61,-11.9 -6.49,-17.43 -2.21,-4.23 -6.24,-7.47 -10.85,-8.73"
       id="path2787"
       style="fill:url(#SVGID_4_)" /><path
       d="m 250.94,170.1 c -1.99,4.84 -4.56,9.44 -7.62,13.69 -0.77,1.07 -1.58,2.11 -2.41,3.13 -0.67,0.83 -1.37,1.66 -1.39,2.78 -0.03,1.99 1.75,3.95 2.9,5.42 5.73,7.29 14.33,12 23.56,12.88 5.76,0.55 11.55,-0.43 16.86,-2.68 0.8,-0.34 0.57,-1.71 -0.24,-1.87 -3.98,-0.77 -7.95,-2.33 -10.71,-5.41 -2.68,-3 -3.55,-7.07 -4.53,-10.86 -0.95,-3.69 -2.12,-7.29 -4.56,-10.29 -2.42,-2.98 -5.76,-5.12 -9.44,-6.16 -1.27,-0.36 -1.81,1.61 -0.54,1.97 3.87,1.1 7.3,3.56 9.49,6.96 2.15,3.35 2.84,7.34 3.88,11.11 1.01,3.65 2.47,7.21 5.34,9.79 2.93,2.64 6.7,4.11 10.53,4.85 -0.08,-0.62 -0.16,-1.24 -0.24,-1.87 -8.52,3.62 -18.53,3.4 -26.81,-0.76 -3.69,-1.86 -7.01,-4.39 -9.76,-7.47 -0.68,-0.76 -1.32,-1.54 -1.91,-2.36 -0.58,-0.81 -1.65,-1.99 -1.73,-3.01 -0.08,-1.04 1.13,-2.03 1.72,-2.79 0.69,-0.88 1.37,-1.78 2.01,-2.7 3.05,-4.3 5.56,-8.94 7.56,-13.82 0.5,-1.2 -1.47,-1.73 -1.96,-0.53 z"
       class="st1"
       id="path2789" /></g><g
     id="g2812"
     transform="translate(-100.83242,-57.372422)"><linearGradient
       id="SVGID_5_"
       x1="234.02139"
       x2="234.1953"
       y1="198.9763"
       y2="242.8905"
       gradientTransform="rotate(157.941,228.79836,221.94384)"
       gradientUnits="userSpaceOnUse"><stop
         offset=".0398"
         stop-color="#f9ed32"
         id="stop2793" /><stop
         offset=".1849"
         stop-color="#f9e731"
         id="stop2795" /><stop
         offset=".364"
         stop-color="#f8dd2e"
         id="stop2797" /><stop
         offset=".5609"
         stop-color="#f8cc29"
         id="stop2799" /><stop
         offset=".7707"
         stop-color="#f7b423"
         id="stop2801" /><stop
         offset=".9886"
         stop-color="#f7951e"
         id="stop2803" /><stop
         offset="1"
         stop-color="#f7941d"
         id="stop2805" /></linearGradient><path
       fill="url(#SVGID_5_)"
       d="m 229.13,200 c -5.94,3.31 -12.39,5.71 -19.05,7.1 -0.58,0.12 -1.19,0.25 -1.65,0.62 -0.71,0.57 -0.89,1.56 -0.99,2.46 -0.84,7.73 1.16,15.73 5.54,22.16 4.38,6.43 11.09,11.22 18.59,13.27 -3.02,-3.51 -5.32,-7.92 -5.18,-12.56 0.19,-6.23 4.62,-11.55 5.82,-17.66 0.92,-4.69 -0.2,-9.74 -3.02,-13.6"
       id="path2808"
       style="fill:url(#SVGID_5_)" /><path
       d="m 228.62,199.12 c -4.76,2.63 -9.8,4.69 -15.05,6.1 -1.24,0.33 -2.49,0.62 -3.75,0.9 -0.97,0.21 -1.87,0.51 -2.5,1.32 -1.29,1.67 -1.09,4.56 -1.07,6.55 0.1,9.68 4.37,19.09 11.7,25.43 3.87,3.34 8.43,5.8 13.36,7.18 1.04,0.29 1.62,-0.96 0.99,-1.71 -2.61,-3.08 -4.75,-6.89 -4.88,-11.02 -0.12,-3.94 1.67,-7.55 3.24,-11.05 1.53,-3.41 2.89,-6.88 2.9,-10.68 0.01,-3.88 -1.23,-7.7 -3.47,-10.86 -0.75,-1.06 -2.53,-0.04 -1.76,1.03 2.37,3.33 3.52,7.38 3.11,11.46 -0.41,4.06 -2.48,7.7 -4.04,11.39 -1.49,3.52 -2.45,7.15 -1.77,10.99 0.67,3.83 2.75,7.25 5.23,10.18 l 0.99,-1.71 c -8.23,-2.3 -15.38,-7.84 -19.53,-15.33 -2.24,-4.04 -3.59,-8.59 -3.94,-13.19 -0.16,-2.11 -0.33,-4.62 0.23,-6.68 0.33,-1.21 1.35,-1.25 2.42,-1.48 1.25,-0.28 2.5,-0.59 3.74,-0.93 5.18,-1.45 10.18,-3.53 14.88,-6.13 1.15,-0.63 0.12,-2.4 -1.03,-1.76 z"
       class="st1"
       id="path2810" /></g><g
     id="g2833"
     transform="translate(-100.83242,-57.372422)"><linearGradient
       id="SVGID_6_"
       x1="176.2661"
       x2="176.44"
       y1="203.7502"
       y2="247.66431"
       gradientTransform="rotate(-167.317,175.60048,225.45218)"
       gradientUnits="userSpaceOnUse"><stop
         offset=".0398"
         stop-color="#f9ed32"
         id="stop2814" /><stop
         offset=".1849"
         stop-color="#f9e731"
         id="stop2816" /><stop
         offset=".364"
         stop-color="#f8dd2e"
         id="stop2818" /><stop
         offset=".5609"
         stop-color="#f8cc29"
         id="stop2820" /><stop
         offset=".7707"
         stop-color="#f7b423"
         id="stop2822" /><stop
         offset=".9886"
         stop-color="#f7951e"
         id="stop2824" /><stop
         offset="1"
         stop-color="#f7941d"
         id="stop2826" /></linearGradient><path
       fill="url(#SVGID_6_)"
       d="m 193.1,207.39 c -6.77,-0.67 -13.43,-2.36 -19.7,-5.02 -0.55,-0.23 -1.12,-0.47 -1.71,-0.43 -0.91,0.06 -1.62,0.77 -2.21,1.46 -5.09,5.87 -8.01,13.59 -8.08,21.36 -0.07,7.77 2.72,15.54 7.71,21.5 -0.48,-4.61 0.15,-9.54 2.9,-13.27 3.7,-5.01 10.38,-6.85 14.85,-11.19 3.43,-3.33 5.38,-8.12 5.27,-12.89"
       id="path2829"
       style="fill:url(#SVGID_6_)" /><path
       d="m 193.1,206.37 c -5.37,-0.55 -10.67,-1.74 -15.75,-3.55 -1.17,-0.41 -2.32,-0.87 -3.46,-1.34 -1.1,-0.46 -2.17,-0.79 -3.32,-0.27 -1.92,0.87 -3.36,3.29 -4.49,4.99 -5.17,7.79 -6.94,17.58 -4.77,26.68 1.24,5.19 3.69,10 7.08,14.11 0.54,0.66 1.83,0.14 1.74,-0.72 -0.4,-4.14 -0.02,-8.52 2.3,-12.08 2.1,-3.24 5.6,-5.17 8.82,-7.11 3.18,-1.91 6.23,-3.96 8.43,-7.01 2.32,-3.23 3.51,-7.18 3.46,-11.15 -0.02,-1.31 -2.06,-1.32 -2.04,0 0.05,4.12 -1.38,8.22 -4.14,11.31 -2.56,2.87 -6.06,4.62 -9.28,6.63 -3.1,1.93 -6.03,4.22 -7.73,7.53 -1.87,3.65 -2.26,7.85 -1.87,11.89 l 1.74,-0.72 c -5.56,-6.72 -8.24,-15.63 -7.19,-24.3 0.53,-4.36 1.99,-8.62 4.21,-12.42 1.07,-1.84 2.32,-3.81 3.89,-5.27 1.04,-0.97 2.12,-0.29 3.24,0.17 1.15,0.47 2.3,0.9 3.47,1.3 5.06,1.74 10.31,2.85 15.64,3.39 1.33,0.11 1.32,-1.93 0.02,-2.06 z"
       class="st1"
       id="path2831" /></g><g
     id="g2854"
     transform="translate(-100.83242,-57.372422)"><linearGradient
       id="SVGID_7_"
       x1="146.8784"
       x2="147.05231"
       y1="172.909"
       y2="216.8232"
       gradientTransform="rotate(-126.32,140.68675,198.08666)"
       gradientUnits="userSpaceOnUse"><stop
         offset=".0398"
         stop-color="#f9ed32"
         id="stop2835" /><stop
         offset=".1849"
         stop-color="#f9e731"
         id="stop2837" /><stop
         offset=".364"
         stop-color="#f8dd2e"
         id="stop2839" /><stop
         offset=".5609"
         stop-color="#f8cc29"
         id="stop2841" /><stop
         offset=".7707"
         stop-color="#f7b423"
         id="stop2843" /><stop
         offset=".9886"
         stop-color="#f7951e"
         id="stop2845" /><stop
         offset="1"
         stop-color="#f7941d"
         id="stop2847" /></linearGradient><path
       fill="url(#SVGID_7_)"
       d="m 159.68,193.53 c -4.67,-4.94 -8.59,-10.6 -11.58,-16.71 -0.26,-0.53 -0.53,-1.09 -1,-1.45 -0.73,-0.54 -1.73,-0.48 -2.63,-0.35 -7.7,1.09 -14.96,5 -20.11,10.82 -5.15,5.82 -8.14,13.51 -8.28,21.29 2.66,-3.8 6.37,-7.11 10.89,-8.11 6.08,-1.35 12.33,1.64 18.55,1.29 4.77,-0.26 9.39,-2.59 12.43,-6.27"
       id="path2850"
       style="fill:url(#SVGID_7_)" /><path
       d="m 160.4,192.81 c -3.56,-3.79 -6.68,-7.97 -9.28,-12.48 -0.61,-1.07 -1.2,-2.15 -1.75,-3.25 -0.47,-0.92 -0.86,-1.98 -1.76,-2.59 -1.8,-1.22 -4.64,-0.32 -6.57,0.15 -9.24,2.27 -17.32,8.45 -21.84,16.82 -2.6,4.81 -4.01,10.2 -4.14,15.67 -0.03,1.09 1.35,1.29 1.9,0.52 2.21,-3.1 5.14,-5.96 8.81,-7.23 4.05,-1.4 8.29,-0.47 12.38,0.24 3.83,0.66 7.67,1.08 11.46,-0.02 3.53,-1.02 6.71,-3.09 9.08,-5.88 0.84,-1 -0.59,-2.45 -1.44,-1.44 -2.5,2.95 -5.88,4.98 -9.68,5.72 -4.3,0.84 -8.61,-0.4 -12.86,-1.02 -3.94,-0.58 -7.84,-0.54 -11.48,1.28 -3.29,1.65 -5.91,4.35 -8.02,7.32 0.63,0.17 1.27,0.34 1.9,0.52 0.22,-9.05 4.26,-17.75 11.13,-23.66 3.32,-2.85 7.25,-5.01 11.42,-6.31 0.96,-0.3 1.93,-0.55 2.91,-0.76 1.01,-0.21 2.57,-0.73 3.58,-0.36 0.91,0.33 1.35,1.88 1.76,2.66 0.57,1.09 1.16,2.17 1.78,3.23 2.61,4.44 5.74,8.57 9.27,12.33 0.9,0.94 2.34,-0.5 1.44,-1.46 z"
       class="st1"
       id="path2852" /></g><g
     id="g2875"
     transform="translate(-100.83242,-57.372422)"><linearGradient
       id="SVGID_8_"
       x1="114.8368"
       x2="115.0107"
       y1="106.3422"
       y2="150.2563"
       gradientTransform="rotate(-90.013751,127.87541,132.4354)"
       gradientUnits="userSpaceOnUse"><stop
         offset=".0398"
         stop-color="#f9ed32"
         id="stop2856" /><stop
         offset=".1849"
         stop-color="#f9e731"
         id="stop2858" /><stop
         offset=".364"
         stop-color="#f8dd2e"
         id="stop2860" /><stop
         offset=".5609"
         stop-color="#f8cc29"
         id="stop2862" /><stop
         offset=".7707"
         stop-color="#f7b423"
         id="stop2864" /><stop
         offset=".9886"
         stop-color="#f7951e"
         id="stop2866" /><stop
         offset="1"
         stop-color="#f7941d"
         id="stop2868" /></linearGradient><path
       fill="url(#SVGID_8_)"
       d="m 144.97,159.25 c -0.84,-6.75 -0.65,-13.63 0.57,-20.32 0.11,-0.58 0.22,-1.19 0.05,-1.76 -0.26,-0.87 -1.11,-1.41 -1.91,-1.84 -6.85,-3.68 -15.02,-4.83 -22.62,-3.19 -7.6,1.64 -14.56,6.07 -19.28,12.25 4.39,-1.48 9.34,-1.96 13.58,-0.09 5.7,2.51 8.97,8.62 14.18,12.03 4,2.61 9.1,3.47 13.73,2.31"
       id="path2871"
       style="fill:url(#SVGID_8_)" /><path
       d="m 145.99,159.25 c -0.67,-5.55 -0.69,-11.17 0.01,-16.72 0.26,-2.09 1.44,-5 -0.1,-6.8 -1.38,-1.61 -3.96,-2.44 -5.88,-3.16 -8.83,-3.32 -18.85,-2.78 -27.27,1.47 -4.55,2.29 -8.57,5.61 -11.68,9.64 -0.56,0.72 -0.09,2.06 0.99,1.71 4.19,-1.38 9,-1.98 13.13,-0.04 3.26,1.54 5.69,4.28 8.14,6.84 2.49,2.6 5.11,5.07 8.47,6.49 3.72,1.58 7.83,1.89 11.76,0.95 1.28,-0.3 0.74,-2.27 -0.54,-1.97 -4.13,0.98 -8.57,0.38 -12.25,-1.77 -3.15,-1.85 -5.51,-4.71 -8.04,-7.28 -2.48,-2.53 -5.25,-4.84 -8.7,-5.87 -4.09,-1.21 -8.51,-0.63 -12.5,0.68 l 0.99,1.71 c 5.07,-6.56 12.51,-11.09 20.74,-12.34 4.51,-0.69 9.18,-0.36 13.57,0.88 2.2,0.62 4.35,1.45 6.35,2.55 1.11,0.61 1.61,1.09 1.39,2.45 -0.19,1.21 -0.4,2.42 -0.56,3.63 -0.72,5.63 -0.72,11.32 -0.04,16.96 0.13,1.28 2.17,1.29 2.02,-0.01 z"
       class="st1"
       id="path2873" /></g><g
     id="g2896"
     transform="translate(-100.83242,-57.372422)"><linearGradient
       id="SVGID_9_"
       x1="150.2045"
       x2="150.3784"
       y1="70.338898"
       y2="114.253"
       gradientTransform="rotate(-43.797,154.86947,92.842344)"
       gradientUnits="userSpaceOnUse"><stop
         offset=".0398"
         stop-color="#f9ed32"
         id="stop2877" /><stop
         offset=".1849"
         stop-color="#f9e731"
         id="stop2879" /><stop
         offset=".364"
         stop-color="#f8dd2e"
         id="stop2881" /><stop
         offset=".5609"
         stop-color="#f8cc29"
         id="stop2883" /><stop
         offset=".7707"
         stop-color="#f7b423"
         id="stop2885" /><stop
         offset=".9886"
         stop-color="#f7951e"
         id="stop2887" /><stop
         offset="1"
         stop-color="#f7941d"
         id="stop2889" /></linearGradient><path
       fill="url(#SVGID_9_)"
       d="m 155.86,120.53 c 4.29,-5.27 9.39,-9.89 15.06,-13.65 0.49,-0.33 1.01,-0.67 1.3,-1.18 0.45,-0.79 0.25,-1.78 0.01,-2.65 -2.08,-7.49 -6.9,-14.18 -13.35,-18.53 -6.45,-4.35 -14.46,-6.31 -22.18,-5.44 4.11,2.14 7.88,5.39 9.46,9.74 2.13,5.86 -0.02,12.44 1.13,18.56 0.88,4.69 3.79,8.97 7.84,11.51"
       id="path2892"
       style="fill:url(#SVGID_9_)" /><path
       d="m 156.59,121.25 c 3.34,-4.07 7.12,-7.79 11.31,-10.98 0.98,-0.74 1.98,-1.46 3,-2.15 0.86,-0.58 1.81,-1.12 2.29,-2.09 0.95,-1.93 -0.3,-4.57 -1.01,-6.39 -3.39,-8.65 -10.19,-15.67 -18.79,-19.21 -5.25,-2.16 -11.02,-2.98 -16.67,-2.38 -0.92,0.1 -1.49,1.38 -0.52,1.9 3.36,1.78 6.5,4.22 8.31,7.63 2.07,3.9 1.65,8.41 1.48,12.66 -0.16,3.99 0,7.9 1.69,11.59 1.49,3.26 3.94,6 6.95,7.94 1.11,0.71 2.13,-1.05 1.03,-1.76 -3.17,-2.04 -5.62,-5.13 -6.8,-8.71 -1.36,-4.1 -0.78,-8.42 -0.68,-12.64 0.09,-4 -0.4,-8.01 -2.69,-11.41 -2.06,-3.05 -5.03,-5.34 -8.26,-7.05 -0.17,0.63 -0.34,1.27 -0.52,1.9 9.13,-0.97 18.48,1.91 25.27,8.15 3.09,2.84 5.6,6.26 7.41,10.05 0.84,1.76 2,4.07 2.07,6.05 0.05,1.27 -1.21,1.76 -2.12,2.39 -0.99,0.68 -1.96,1.39 -2.91,2.13 -4.17,3.21 -7.94,6.88 -11.28,10.95 -0.83,1 0.6,2.45 1.44,1.43 z"
       class="st1"
       id="path2894" /></g></svg>
