<?xml version="1.0" encoding="UTF-8" standalone="no"?>
<svg
   xmlns:dc="http://purl.org/dc/elements/1.1/"
   xmlns:cc="http://creativecommons.org/ns#"
   xmlns:rdf="http://www.w3.org/1999/02/22-rdf-syntax-ns#"
   xmlns:svg="http://www.w3.org/2000/svg"
   xmlns="http://www.w3.org/2000/svg"
   xmlns:sodipodi="http://sodipodi.sourceforge.net/DTD/sodipodi-0.dtd"
   xmlns:inkscape="http://www.inkscape.org/namespaces/inkscape"
   viewBox="0 0 502.83734 496.50693"
   version="1.1"
   id="svg3019"
   sodipodi:docname="volcano.svg"
   width="502.83734"
   height="496.50693"
   inkscape:version="1.0.1 (3bc2e813f5, 2020-09-07)">
  <metadata
     id="metadata3023">
    <rdf:RDF>
      <cc:Work
         rdf:about="">
        <dc:format>image/svg+xml</dc:format>
        <dc:type
           rdf:resource="http://purl.org/dc/dcmitype/StillImage" />
      </cc:Work>
    </rdf:RDF>
  </metadata>
  <sodipodi:namedview
     pagecolor="#ffffff"
     bordercolor="#666666"
     borderopacity="1"
     objecttolerance="10"
     gridtolerance="10"
     guidetolerance="10"
     inkscape:pageopacity="0"
     inkscape:pageshadow="2"
     inkscape:window-width="1517"
     inkscape:window-height="1080"
     id="namedview3021"
     showgrid="false"
     inkscape:zoom="1.114899"
     inkscape:cx="301.98497"
     inkscape:cy="282.56891"
     inkscape:window-x="1940"
     inkscape:window-y="36"
     inkscape:window-maximized="0"
     inkscape:current-layer="svg3019" />
  <defs
     id="defs2903" />
  <style
     id="style2905">.st1{fill:#603913}.st2{fill:#3c2415}.st3{fill:#f7941e}.st4{fill:#a7a9ac}</style>
  <g
     id="Layer_4"
     transform="translate(-4.0150335,-113.43109)">
    <g
       id="XMLID_1_">
      <g
         id="XMLID_200_">
        <path
           id="XMLID_210_"
           d="m 245.1,428.6 c 12,30 25.1,59.6 39.5,88.6 4.7,9.5 18.3,14.7 28.2,11.5 9.9,-3.2 19.3,-12.9 18.4,-24.1 -1.5,-18.8 -7.4,-35.4 -14.7,-52.7 -3.2,-7.7 -6.5,-15.5 -9,-23.5 -0.7,-2.1 -1.3,-4.3 -1.8,-6.4 -0.6,-2.4 -0.9,-9.2 -0.7,-1 0,-4.4 -0.9,-1.9 -2.6,7.4 -5.7,7.8 -12.4,10.9 -20.1,9.1 4.3,0.8 -5.4,-3 0.1,0.3 1.1,0.6 4.3,2.1 4.8,3.2 -2.9,-2.2 -3.3,-2.5 -1.2,-0.8 0.8,0.7 1.7,1.5 2.5,2.2 3,2.8 5.9,5.9 8.7,8.9 6.5,7.1 12.8,14.3 19.2,21.5 13.3,15 26.6,30.1 39.9,45.1 7,7.9 21.5,9.6 30.3,3.9 9.3,-6 14.5,-17.2 11.5,-28.2 -4.6,-16.7 -14,-31 -23.6,-45.2 -4.2,-6.2 -8.4,-12.5 -11.7,-19.3 -0.4,-0.8 -0.8,-1.7 -1.2,-2.5 -1.4,-2.7 1.9,5.1 0.9,2.2 -0.6,-1.7 -1.3,-3.4 -1.8,-5.1 -0.5,-1.7 -1,-3.5 -1.3,-5.3 -0.2,-0.9 -0.7,-4.3 -0.1,-0.1 0.7,4.6 0.1,0 0.1,-0.8 -14.2,5.9 -28.5,11.8 -42.7,17.7 14,14.5 28.3,28.7 42.9,42.6 7.4,7.1 14.9,14 22.5,20.9 7,6.4 14.6,12.4 21.1,19.2 0,0 2.3,2.1 2.2,2.5 0,-1.1 -2.9,-3.9 -1,-1 0.9,1.4 1.3,3.9 -0.6,-1.8 0.7,1.9 0.1,3.5 0,-2.1 0,1 -0.3,3.3 0.3,-0.3 l 0.3,-1.8 c -0.6,2 -0.5,1.9 0.2,-0.2 0.4,-0.6 4.4,-6.1 2.4,-4.1 -2.1,2 5,-4.3 1.2,-1.1 -2.3,1.9 -1.3,-2 2.1,-0.9 -0.3,-0.1 -2.7,0.8 -2.8,0.8 -0.7,0.2 -1.4,0.3 -2.1,0.4 -3.2,0.8 5.8,-0.5 2.3,-0.3 -6,0.4 -12,1.1 -17.9,2.1 -12,2.2 -21.3,9.6 -29.6,18 -2.2,2.3 4.1,-2.2 1.2,-1.1 -0.4,0.2 -1.8,0.8 -2.1,1.1 1.7,-1.9 4.4,-1.6 1.5,-0.7 -1,0.3 -2,0.7 -3,1 -4.7,1.5 -9.5,3 -14.2,4.3 -2.7,0.7 -5.5,1.4 -8.3,2 -1.2,0.2 -2.5,0.4 -3.7,0.7 -3.1,0.6 4.9,-0.2 0.1,-0.1 -2.6,0 -5.2,0.3 -7.8,0.1 -1.1,-0.1 -4.4,-0.5 -0.3,0.1 4.6,0.7 -0.4,-0.1 -1,-0.3 -1.9,-0.4 -3.8,-1 -5.6,-1.6 -3.9,-1.2 1.6,0.5 1.9,0.9 -0.8,-0.7 -2.3,-1.2 -3.2,-1.7 -1.1,-0.7 -2.9,-2.6 -0.4,-0.1 2.9,3 -0.1,-0.1 -0.8,-0.8 -0.1,-0.1 -1.7,-2 -2,-2.1 0.7,0.9 1.4,1.8 2.1,2.8 -1.4,-2.2 -0.9,-1.3 1.2,2.8 v 13.3 c -1.1,5.8 -7,11.3 -12.7,13.2 -5.2,1.7 -4.1,0.3 -1.7,0.3 2.8,0 5.6,0 8.4,0.3 0.9,0.1 5,0.4 1.4,0.1 -3.6,-0.3 0.5,0.1 1.4,0.2 4.4,0.6 8.8,1.3 13.2,1.7 12.2,1.3 24.9,-0.5 35.8,-6.2 23.1,-12.2 29.7,-40.7 23.8,-64.4 -5.1,-20.4 -19.7,-39.4 -38.4,-49.2 -15.1,-7.9 -33.8,-10.7 -47,2.6 -11.3,11.3 -10.9,26.3 -8.7,40.9 3.7,24.4 12.5,48.1 24.6,69.6 5.2,9.3 17.9,14.8 28.2,11.5 10.1,-3.3 18.9,-12.9 18.4,-24.1 -1,-20.4 -5.2,-40.2 -13.1,-59.1 -1.4,-3.3 -2.8,-6.7 -4.2,-10 -1.7,-4.1 0.2,0.5 0.5,1.1 -0.5,-1 -0.9,-2.2 -1.3,-3.2 -1.7,-4.3 -3.4,-8.6 -4.6,-13 -0.5,-1.9 -1,-3.8 -1.4,-5.8 -0.2,-0.8 -0.2,-1.8 -0.5,-2.5 1.7,4.3 0.3,3.9 0.3,1.6 0,-2 -0.1,-4 0,-6 0.1,-1.1 1,-4.5 0.1,-1.2 -1.1,3.8 0.4,-1.2 0.6,-2.1 2.2,-10 5,-19.9 5,-30.3 0,-9.3 -1.6,-19.1 -5,-27.8 -7.4,-18.9 -20.7,-36.6 -39.8,-45 -12.4,-5.4 -25.8,-7.6 -39,-3.3 -9.9,3.2 -18.4,8.6 -26.8,14.5 -16.8,11.9 -31.9,24.7 -44.4,41.1 -12.2,16.1 -19.8,36.4 -20.2,56.8 -0.2,10.7 1.7,21.9 7.1,31.3 7.2,12.6 20.9,20.9 35.5,19 14.6,-2 23.4,-11.7 32.7,-22 7.4,-8.1 14.7,-16.2 22.1,-24.3 7.5,-8.3 15.1,-16.6 22.6,-24.9 3.8,-4.2 7.5,-8.3 11.3,-12.5 5.5,-6.1 12.1,-12.5 13.3,-21 1.2,-8.2 0.8,-15 -4.5,-21.8 -4.4,-5.7 -12,-10.7 -19.6,-9.9 -12.7,1.4 -24.6,4.7 -35.5,11.6 -9.2,5.9 -17.7,13.3 -24.6,21.8 -7.5,9.3 -14,19.2 -19.8,29.7 -2.6,4.8 -5.2,9.6 -7.8,14.3 -1.3,2.4 -2.6,4.7 -4,7.1 -0.4,0.7 -1.9,2.4 -1.9,3.1 2.4,-2.8 3,-3.6 1.7,-2.2 -6.1,5.9 1.5,5.2 22.9,-2.2 l 9,9 c 1.3,8.9 2,11.5 2,7.8 0,-0.9 0,-1.7 0.1,-2.6 0.1,-0.9 0.1,-1.8 0.2,-2.7 0.2,-1.9 0.1,-1.2 -0.3,2.1 -0.5,-2.3 1.3,-6.7 1.8,-9 1.7,-6.9 4.1,-13.5 6.6,-20.1 5.1,-13.2 10.6,-26.2 16,-39.3 6,-14.6 -9.2,-32.7 -24.1,-31.6 -21,1.5 -39.9,11.9 -56,25 -3.9,3.2 -7.5,7 -10,11.4 0,0.1 -6.7,16.8 -6.2,16.8 0.4,-1 0.9,-1.9 1.3,-2.9 -1.4,2.3 -0.9,1.8 1.5,-1.4 -0.5,0.1 -4,3.5 -4.3,4 3.1,-2.4 3.6,-2.8 1.5,-1.2 l -1.2,0.9 c -2.9,2.2 -5.8,4.3 -8.6,6.7 -13.1,11.5 -18,28.2 -27.5,42.3 -0.4,0.6 -3.1,3.7 -3.1,4.4 2.1,-2.7 2.3,-3 0.6,-0.8 -0.8,0.9 -1.5,1.8 -2.3,2.8 -2.7,3.1 -5.4,6.2 -8.1,9.2 -2.4,2.6 -5.1,4.9 -7.6,7.4 3.1,-2.3 3.6,-2.8 1.4,-1.3 -0.8,0.5 -1.7,1 -2.6,1.4 3.8,-1.5 4.4,-1.9 1.9,-1.1 4.3,-0.4 5.1,-0.6 2.3,-0.5 -18.1,0.3 -32.2,21.3 -21.6,37.6 8.8,13.5 22.6,17.5 37.1,22.2 11.1,3.6 22.3,6.9 33.6,9.9 24.1,6.4 48.6,11 73.3,14.2 11.2,1.4 22.5,2.5 33.8,3.1 12.4,0.6 26.8,2.4 38.5,-2.5 10.3,-4.3 17.3,-13.1 18.8,-24.3 1.2,-9.2 -1.6,-18.1 -6.6,-25.8 -6.7,-10.3 -14.9,-19.6 -23.5,-28.3 -19,-19.1 -40,-36.2 -62.1,-51.7 -10.2,-7.2 -25.2,-2.7 -32.3,6.4 -6.9,8.9 -7.8,25.1 2,32.8 29.2,23.2 58.7,46.2 88.4,68.8 8.4,6.4 23.5,3.5 30.3,-3.9 8.1,-8.8 8.7,-19.7 3.9,-30.3 -14,-31 -30.7,-60.8 -50.1,-88.8 -3.2,-4.6 -6.3,-9.6 -10.1,-13.6 -6.5,-6.7 -16,-10.3 -25.3,-9.1 -10.1,1.4 -18.2,7.6 -22.1,16.9 -3.1,7.4 -2.5,14 -1.4,21.7 2.5,16.7 7.5,32.9 12.8,49 2.9,8.9 5.9,17.8 8.6,26.8 1.3,4.3 2.5,8.7 3.6,13.1 0.6,2.3 1.1,4.7 1.6,7.1 l 0.6,2.7 c 0.5,2.5 0.5,2.4 0,-0.3 -0.8,-3.9 -0.2,-7.8 2,-11.5 l 9,-9 c 1.2,-0.5 2.4,-1.1 3.6,-1.6 h 13.3 c -2.5,-0.5 -1.9,-0.1 1.9,1.1 -1,-0.6 -1.9,-1.3 -2.8,-2 -1.8,-1.4 -3.7,-2.7 -5.5,-4.1 -3.9,-2.9 -7.9,-5.9 -11.8,-8.8 -7.3,-5.5 -14.7,-11 -22,-16.5 l -45.6,-34.2 c -4.7,-3.5 -13.9,-4.3 -19.3,-2.5 -5.3,1.7 -9.6,4.6 -13,9 -7.7,9.9 -6.7,23.7 2,32.8 17.1,18 37.5,32.5 57.6,46.9 l 25.2,-43.2 C 219.4,487 207.3,480 194.6,474.1 c -17.2,-8 -40.2,-19.8 -56.5,-2.8 -16.2,17 -4.7,39.1 7.1,54.5 1.9,2.5 3.9,5 5.7,7.6 0.2,0.3 2.5,4.1 2.6,4.2 -1.9,-0.2 -1.1,-8.5 -0.9,-9.2 l 1.2,-2.7 c -0.5,1.1 -1.1,2.2 -1.6,3.3 -0.8,1.7 -1.7,3.4 -2.5,5 -1.7,3.3 -3.5,6.7 -5.3,10 -6,11.1 -3.5,28.2 9,34.2 5.1,2.7 2.9,-0.5 -6.7,-9.7 5.8,-10.3 11.6,-20.5 17.5,-30.8 -13.3,3.1 -21.1,15.2 -21.8,28.2 14.2,-5.9 28.5,-11.8 42.7,-17.7 -6.4,-5.4 -12.8,-10.8 -19.3,-16.2 -8.3,-7 -20.5,-10.2 -30.3,-3.9 -9,5.8 -15,17.4 -11.5,28.2 3,9.2 7.6,17.4 14.7,24.1 9.1,8.6 22.9,9.7 32.8,2 10,-7.8 12.3,-21.1 6.4,-32.3 -10,-18.9 -26.5,-37.5 -50.1,-36 -17.1,1.1 -27.2,15 -24.1,31.6 2.4,12.6 12.4,20.6 23.7,24.9 9.2,3.5 20.7,-1.7 26.3,-9 6.4,-8.3 6.5,-18.5 2,-27.8 -4.4,-8.9 -13.5,-14.3 -22.7,-17 -2.1,-0.6 -4.9,-1.8 -7.1,-1.9 3.9,1.8 5,2.3 3.2,1.4 -1.6,-0.9 -0.8,-0.2 2.5,2.1 -3.5,-3.2 3.1,4.7 0.7,0.6 0.5,1.1 0.9,2.2 1.4,3.4 l -0.9,-2.7 c -0.5,-1.4 -0.9,-2.7 -1.3,-4.1 -1.5,-4.1 -3.1,-8.3 -5.7,-11.9 -7.1,-10 -17.4,-17.3 -30.1,-16.8 -14,0.5 -24.3,11 -25,25 -0.1,1.5 -0.1,2.9 -0.2,4.4 -0.1,2.9 -1.6,4.4 0.4,-1.4 2.1,-3.7 4.3,-7.4 6.4,-11 -0.2,0.2 -0.4,0.3 -0.6,0.5 3.7,-2.1 7.4,-4.3 11,-6.4 6.2,-1.6 14.2,0.9 8.9,-0.4 -2.5,-0.6 -5.5,-1.2 -8.1,-1.2 -7,0 -14.6,3 -19.6,7.9 -9.8,9.8 -12.2,27.9 -0.5,37.7 8.1,-13.9 16.2,-27.9 24.3,-41.8 -0.4,-0.1 -1.9,-0.7 -2.4,-0.7 1.9,-0.1 5.8,2.9 6.7,3.9 0.6,4 1.1,8 1.7,12.1 3.7,5.4 3.9,9.9 0.6,13.5 -0.4,0.5 -0.7,0.9 -1.1,1.4 0.5,-0.6 1.1,-1.3 1.6,-1.9 1.3,-1.4 2.6,-2.8 4.1,-4.2 0.8,-0.8 1.7,-1.5 2.5,-2.2 3.3,-3 -3,1.9 -0.4,0.4 7.4,-4.4 16,-8.6 21.8,-15.1 3.3,-3.6 5.2,-6.5 7,-10.8 0.6,-1.4 1.2,-2.9 1.8,-4.3 1.6,-3.9 -0.7,1.6 -0.8,1.9 -0.2,0.4 -3.8,4.7 -0.9,1.8 -0.1,0.1 -4.4,2.8 -2,1.6 3.3,-1.7 6.8,-5.1 9.7,-7.7 7.4,-6.5 14,-14.5 19.1,-22.9 1.2,-1.9 2.3,-3.9 3.2,-5.9 1.2,-2.6 1.7,-0.5 -1,0.9 0.6,-0.3 1.3,-1.4 1.7,-1.9 l 10.5,-11.4 c 6.9,-7.4 13.7,-14.8 20.6,-22.2 6.6,-7.1 13.1,-14.3 19.8,-21.3 1.4,-1.5 2.8,-3 4.3,-4.4 0.7,-0.6 3.7,-3 0.8,-0.9 -2.9,2.1 0.4,-0.1 1.1,-0.6 0.2,-0.1 2.4,-1.3 2.4,-1.3 0,0.1 -4.6,1.8 -0.9,0.3 2.4,-0.9 4.8,-1.9 7.3,-2.8 10.2,-3.9 20.2,-7.5 30.7,-10.4 2.7,-0.7 -2,0.3 -2.2,0.3 0.8,0.3 3,-0.2 4,-0.2 1,0 2,0.1 3,0.1 3,0 -5.6,-1.5 -1.4,-0.1 0.6,0.2 2.5,0.9 2.9,0.8 -0.9,0.1 -4.9,-2.6 -1.9,-0.8 -0.1,-0.1 2.4,1.5 2.5,1.5 -1.3,0.3 -4.5,-4.2 -0.7,0 8.9,9.6 26.5,9.7 35.4,0 9.4,-10.3 9.5,-25.1 0,-35.4 -19.2,-20.7 -48.7,-18 -72.8,-8.9 -11.8,4.5 -25.3,8.1 -35.8,15.1 -10.6,7 -18.7,17.2 -27.3,26.4 -8,8.6 -15.9,17.2 -23.9,25.8 -8.5,9.2 -17.9,18 -23.9,29.2 -1.2,2.2 -2.4,4.3 -3.9,6.3 -0.2,0.2 -0.3,0.4 -0.5,0.7 -1.6,2.2 -1.3,1.8 0.9,-1.1 0,0.3 -2.2,2.6 -2.2,2.6 -1.5,1.7 -3.1,3.3 -4.7,4.9 -0.8,0.8 -1.7,1.6 -2.5,2.3 -0.9,0.8 -1.7,1.5 -2.6,2.2 L 107,455 c -3,2.4 -6.4,4.5 -9.1,7.2 -4.3,4.3 -6.3,8.5 -8.5,14.1 -0.4,0.9 -0.7,1.8 -1,2.7 0.9,-2.6 1.7,-4.4 3.6,-6.4 -2.6,2.8 1.6,-1.1 2,-1.3 -1.1,0.3 -2.4,1.6 -3.5,2.2 -10.7,6.2 -20.8,13 -28.7,22.8 -8.5,10.4 -12.4,23.6 -5.1,36.1 4.8,8.3 13.5,13.7 22.7,16 10.4,2.6 23,-1.6 28.2,-11.5 4.9,-9.2 4.8,-23.1 -3.9,-30.3 -0.2,-0.2 -0.4,-0.3 -0.6,-0.5 2.4,5.9 4.9,11.8 7.3,17.7 v -0.6 c -1.1,4.2 -2.3,8.4 -3.4,12.6 -4,3.2 -7.9,6.4 -11.9,9.6 H 81.8 c 3.6,0.5 7,1.6 10.7,1.8 6.9,0.4 14.7,-2.7 19.5,-7.5 7.9,-8 8.1,-17.4 8.6,-27.8 l -25,25 c 2.8,0 1.7,-0.4 -3.3,-1.2 -2.4,0 -4.5,-0.8 -6.1,-2.4 -1.8,-1.5 -2,-1.6 -0.6,-0.3 -0.8,-1 -1.5,-2 -2.3,-2.9 0,0.4 2.5,5.3 0.6,0.6 -1.7,-4.1 -0.2,0 0.2,1 2.5,7.7 5.5,15.2 11.2,21.2 5.1,5.5 11.9,8.8 19,10.9 1.9,0.6 3.9,1.1 5.9,1.6 4,1 -1.3,-0.4 -2.3,-1 -1.1,-0.9 -2.2,-1.8 -3.4,-2.7 -2.6,-3.9 -3.3,-4.7 -2.1,-2.4 9.4,-12.2 18.8,-24.5 28.2,-36.7 4.5,1.3 7.8,3.8 10,7.6 1.4,4.1 1.8,4.9 1.3,2.4 -8,10.5 -16.1,21.1 -24.1,31.6 2.5,-0.2 5.5,0.9 -0.7,-0.5 3.3,0.7 -0.9,-0.3 -1.7,-1 0.5,0.4 3.3,2.1 3.9,2.3 -1.9,-0.6 -3.8,-3.3 -1,-0.3 0.4,0.4 0.8,0.8 1.1,1.2 1.2,1.4 0.7,0.8 -1.4,-1.8 0.4,-0.1 2.1,3.1 2.3,3.4 1.6,2.6 3,5.3 4.4,7.9 L 174,545.1 c -0.8,-0.7 -1.5,-1.4 -2.2,-2.2 2.2,3.1 2.6,3.5 1.1,1.3 -0.6,-0.9 -1.1,-1.8 -1.5,-2.7 1.4,3.6 1.7,4.1 0.8,1.6 -13.9,8.1 -27.9,16.2 -41.8,24.3 6.4,5.4 12.8,10.8 19.3,16.2 7.9,6.6 17.4,9.3 27.3,5.2 9.5,-4 14.8,-12.7 15.4,-22.8 -0.1,1.5 -0.2,2.9 -0.4,4.4 -2.1,3.7 -4.3,7.4 -6.4,11 -2.7,1.5 -5.4,3.1 -8.1,4.6 12.4,-2.9 21.9,-18.4 17.5,-30.8 -3,-8.4 -7.8,-16.2 -16.2,-20.2 l 9,34.2 c 8,-14.7 18.7,-31.3 12.7,-48.6 -4.2,-12.3 -13.8,-20.7 -20,-31.8 -0.5,-0.8 -2.3,-5 -0.8,-1.2 0.7,1.8 0.8,2.1 0.4,0.8 -3.6,-10.6 -10.3,-2.6 -20,24 -1.5,-0.1 -6.1,-1.6 -2.4,-0.1 l 3.9,1.5 c 1.4,0.5 2.8,1.1 4.1,1.7 2.9,1.2 -4.5,-2 -0.2,-0.1 2.7,1.2 5.4,2.5 8.1,3.8 11.2,5.5 22,11.8 32.3,18.9 10.8,7.4 28.2,2.4 34.2,-9 6.8,-12.9 2.4,-26.1 -9,-34.2 -4.4,-3.1 -8.7,-6.2 -13.1,-9.4 -2.4,-1.8 -4.8,-3.5 -7.2,-5.3 -0.9,-0.7 -1.8,-1.6 -2.8,-2.2 2.5,1.4 2.7,2.1 0.1,0.1 -8.6,-6.9 -16.9,-14.2 -24.4,-22.2 l -30.3,39.3 c 27.5,20.6 55,41.2 82.5,61.9 11.8,8.9 26.8,12.1 39.4,2.4 12.9,-10 11.5,-24.9 8.3,-39 -3.5,-15.3 -8.7,-30.2 -13.6,-45.2 -2.8,-8.6 -5.6,-17.2 -7.9,-26 -1.1,-4.1 -2.1,-8.2 -2.9,-12.3 -0.5,-2.4 -0.9,-4.7 -1.3,-7.1 -0.1,-0.8 -0.7,-4 0,0.1 0.2,2.1 0.3,2.5 0.2,1.3 -0.1,-5.6 -1.9,-1.1 -5.6,13.3 -3.7,2.1 -7.4,4.3 -11,6.4 -1.4,0.2 -2.7,0.4 -4.1,0.6 -4.2,-1.1 -8.4,-2.3 -12.6,-3.4 2.2,1.1 1.7,0.7 -1.5,-1.3 -2.3,-2.9 -2.5,-3.2 -0.9,-0.9 1.3,2.1 2.8,4 4.2,6 2.8,4 5.5,8.1 8.1,12.3 5,7.7 9.8,15.6 14.4,23.5 9.5,16.5 18.2,33.4 26,50.7 l 34.2,-34.2 c -6.7,-5.1 -13.5,-10.3 -20.2,-15.5 -1,-0.8 -2.1,-1.6 -3.1,-2.4 2.5,1.9 2.6,2 0.4,0.3 -1.5,-1.2 -3.1,-2.4 -4.6,-3.6 -3.3,-2.6 -6.7,-5.2 -10,-7.8 -13.6,-10.6 -27.2,-21.3 -40.7,-32.1 l -30.3,39.3 c 3.7,2.6 7.4,5.3 11,8 1,0.7 1.9,1.5 2.9,2.2 2.8,2.1 -3.5,-2.8 -0.7,-0.6 2.1,1.7 4.3,3.4 6.4,5.1 7.3,5.9 14.4,12.1 21.2,18.5 6.8,6.3 13.6,12.9 19.8,19.8 0.5,0.6 4.1,5.5 4.6,5.5 -0.3,0 -3.5,-4.8 -0.6,-0.8 0.5,0.7 1,1.5 1.6,2.2 0.7,1 1.3,2 2,3 0.6,0.9 1.8,4 0.6,0.5 -1.2,-3.6 -0.3,-0.8 -0.2,-0.1 -1.4,-7.6 5.8,-24.7 16.8,-23.3 -3.8,-0.5 -8.1,0.1 -12,0 -5.3,-0.1 -10.7,-0.3 -16,-0.6 -9.7,-0.6 -19.4,-1.5 -29.1,-2.7 -4.6,-0.5 0.3,0.1 1,0.2 -1.2,-0.1 -2.5,-0.4 -3.7,-0.5 -2.2,-0.3 -4.4,-0.7 -6.5,-1 -5.3,-0.8 -10.6,-1.8 -15.8,-2.8 -9.6,-1.9 -19.1,-4 -28.6,-6.3 -10.7,-2.7 -21.4,-5.6 -31.9,-8.9 -5.4,-1.7 -10.8,-3.4 -16.2,-5.2 -2.2,-0.7 -4.5,-1.5 -6.7,-2.3 -3.9,-1.3 1.6,0.6 2,0.8 -0.4,-0.2 -0.8,-0.5 -1.2,-0.7 2.1,1.2 3.8,2.9 5.1,5 -7.2,12.5 -14.4,25.1 -21.6,37.6 21.7,-0.4 36.2,-15.6 49.1,-31.1 6.5,-7.8 12.6,-15.9 17.3,-24.9 3.4,-6.5 6.7,-13 10.7,-19.2 2.6,-4.1 -3.8,4.1 0.4,-0.4 0.7,-0.8 3.7,-2.8 3.9,-3.7 -3.1,2.4 -3.6,2.7 -1.5,1.2 l 2.4,-1.8 c 2.4,-1.8 5,-3.8 7.4,-5.8 4,-3.4 7.5,-7.8 9.8,-12.5 1.6,-3.2 2.9,-6.5 3.9,-9.9 0.6,-2 3.3,-7.9 0,-2 2.3,-4.1 -4.1,3.4 -0.5,0.4 0.7,-0.7 1.4,-1.4 2.2,-2 -3.1,2.4 -3.6,2.8 -1.5,1.2 3.2,-2 6.3,-4.2 9.6,-6.2 3.3,-2 7.3,-3.4 10.4,-5.6 -3.4,1.4 -3.9,1.6 -1.3,0.7 1,-0.4 2.1,-0.7 3.2,-1 1.1,-0.3 2.1,-0.5 3.2,-0.7 -3.9,0.4 -4.5,0.5 -1.7,0.3 -8,-10.5 -16.1,-21.1 -24.1,-31.6 -5.9,14.5 -12.2,28.9 -17.6,43.6 -2.6,7.2 -4.9,14.5 -6.3,22.1 -2.2,11.6 -4.3,24.6 1.7,35.5 8.8,15.7 29.7,18.4 43.3,7.9 7.9,-6.1 12.4,-14.5 17.1,-23.1 3.6,-6.6 7.2,-13.3 11,-19.8 1.8,-3.1 3.7,-6.2 5.7,-9.2 1,-1.5 2.1,-3 3.1,-4.4 0.4,-0.6 2.3,-3.1 0.1,-0.2 -2.3,3 0,0.1 0.5,-0.5 2.4,-2.8 4.9,-5.5 7.6,-7.9 1.3,-1.2 3,-2.3 4.1,-3.6 0,0 -4.2,3 -2,1.6 0.9,-0.5 1.7,-1.2 2.6,-1.8 1.5,-1 3.1,-1.9 4.6,-2.8 0.7,-0.4 1.4,-0.7 2.1,-1 2.7,-1.6 -4.7,1.6 -1.8,0.7 1.7,-0.5 3.4,-1.2 5.1,-1.7 1.9,-0.5 8.6,-1.3 0.9,-0.5 -8,-10.5 -16.1,-21.1 -24.1,-31.6 0.2,-1.4 1.8,-3.1 2.6,-4.2 1.8,-2.9 0.2,-0.4 -0.4,0.2 -1.4,1.4 -2.7,2.9 -4,4.4 -3.1,3.4 -6.2,6.8 -9.3,10.3 -5.8,6.3 -11.5,12.7 -17.3,19 -11.2,12.4 -22.5,24.8 -33.7,37.2 -1.1,1.2 -2.3,2.4 -3.4,3.7 -2.8,3.2 3.8,-2 0.1,-0.1 3,-1.6 3.9,-1.4 7.8,-1.4 7.6,0 5.5,0.3 3.5,-0.3 2.7,0.9 4.9,1.9 7,3.9 -2.5,-2.3 1.5,1.5 1.5,2.1 0,-0.4 -0.8,-1.3 -1,-1.7 -1,-2.5 1.1,3.3 1.2,2.9 0.1,-1 -0.8,-2.8 -1.1,-3.8 -1.1,-3.6 0.2,5 0.1,0.4 -0.1,-2.2 -0.2,-4.4 -0.1,-6.7 0,-0.8 0.2,-1.7 0.2,-2.5 0,-2.7 -0.4,2.4 -0.4,2.5 0.6,-1.5 0.6,-3.4 1,-4.9 0.4,-1.6 0.8,-3.3 1.3,-4.9 0.3,-0.8 0.5,-1.6 0.8,-2.4 0.7,-1.9 2.6,-4.1 -0.4,0.5 1.8,-2.8 2.9,-6.2 4.6,-9 0.9,-1.5 1.8,-2.9 2.7,-4.3 0.5,-0.7 1,-1.4 1.4,-2.1 0.4,-0.6 2.7,-3.8 0.6,-0.8 -2.3,3.1 1.7,-1.9 2.3,-2.6 1.1,-1.3 2.3,-2.5 3.4,-3.7 2.5,-2.6 5.2,-5.1 7.9,-7.6 2.7,-2.4 6,-4.4 8.4,-7 0,0 -3.9,3 -1.7,1.3 0.7,-0.5 1.3,-1 2,-1.5 1.6,-1.2 3.2,-2.3 4.8,-3.5 3,-2.2 6,-4.3 9.2,-6.3 1.5,-0.9 3,-1.9 4.5,-2.7 0.8,-0.4 1.6,-0.8 2.3,-1.2 2.6,-1.6 -4.2,1.2 -1.2,0.5 1.1,-0.3 6.2,-1.2 2.4,-1 -3.9,0.3 0,0.3 0.9,0.1 2.4,-0.5 -2,-0.2 -2.5,-0.5 0.4,0.3 4.4,1.4 4.8,1.3 -0.2,0.1 -4.4,-2.2 -2.1,-0.9 1,0.6 2,1 3,1.6 0.9,0.5 5.3,3.8 2.2,1.2 -3.1,-2.5 1.2,1.1 2,1.9 1.1,1 2.1,2.1 3.1,3.2 0.5,0.6 1,1.2 1.5,1.7 2.1,2.3 -2.7,-4.1 -1.2,-1.5 1.7,2.8 3.4,5.5 4.9,8.4 2,4 -1.6,-4.7 -0.2,-0.4 0.5,1.7 1.1,3.3 1.5,5 0.4,1.5 0.6,2.9 1,4.4 0.6,2.6 -0.4,-3.1 -0.4,-2.9 0,0.7 0.1,1.5 0.2,2.2 0.1,1.7 0.2,3.5 0.1,5.2 0,1.1 -0.5,6.8 -0.1,2.8 0.4,-4 -0.5,1.8 -0.7,2.8 -0.4,1.8 -0.9,3.6 -1.3,5.4 -1.4,5.8 -2.4,11.5 -3.1,17.4 -2.4,20.3 6.2,39.2 13.9,57.4 1.1,2.6 -0.8,-1.9 -0.8,-2 0.3,1.1 0.9,2.2 1.3,3.2 0.8,1.9 1.5,3.9 2.2,5.8 1.6,4.4 2.9,8.8 4,13.3 1.1,4.2 1.9,8.4 2.6,12.7 0.8,4.9 -0.3,-0.7 -0.1,-1.1 -0.3,0.7 0.3,2.9 0.4,3.7 0.2,2.5 0.4,4.9 0.5,7.4 15.5,-4.2 31.1,-8.4 46.6,-12.6 -2.4,-4.2 -4.6,-8.5 -6.6,-12.8 -0.7,-1.4 -4.4,-8 -1.1,-2.3 -1.3,-2.2 -2,-5.2 -2.9,-7.6 -3.4,-9.3 -6,-19 -7.8,-28.7 -0.4,-2.3 -0.6,-4.8 -1.2,-7.1 0.1,0.4 0.3,6 0.4,2.3 0,-0.9 0,-1.8 -0.1,-2.7 -0.1,-1.8 1.1,-4.6 -0.4,2.8 0.4,-2.2 1.9,-2.2 -1.1,2.6 -3.1,4.9 -9,8.9 -14.8,8.8 -1.9,0 -5.7,-0.8 -1.5,0 3.1,0.6 -4.6,-2.3 -1.9,-0.8 0.8,0.5 1.7,0.8 2.6,1.3 1.5,0.8 2.9,1.7 4.3,2.6 3.4,2.1 -1.2,-1 -1.6,-1.3 0.6,0.7 1.5,1.3 2.2,1.9 1.8,1.6 3.4,3.4 5,5.2 1.9,2.2 -0.7,1 -1.2,-1.6 0.1,0.6 1.4,2 1.6,2.4 1.1,1.6 1.9,3.3 2.9,5 1.1,2 0,2.6 -0.7,-2 0.1,0.8 0.8,2 1,2.7 0.6,1.8 1.1,3.7 1.5,5.6 0.2,0.8 0.2,2 0.5,2.8 -1.8,-5 -0.5,-4.7 -0.5,-2.4 0,1.6 -0.5,4.2 -0.1,5.7 -0.9,-3.4 1,-5.2 0.3,-2.4 -0.2,0.9 -0.5,1.8 -0.7,2.7 -0.7,3.7 0.6,-1.5 1,-2.1 -0.4,0.5 -1.9,3 -2,3.6 0,-0.2 3.6,-3.8 1.8,-2.4 -0.8,0.7 -3.2,2.5 -0.1,0.4 3.2,-2.2 0.2,-0.4 -0.6,0.2 -2.5,1.8 4.8,-1.4 1.7,-0.7 -1,0.2 -2,0.6 -3,0.8 -1.3,0.3 -3.9,1.6 -0.6,0.2 3.1,-1.3 1,-0.2 -0.6,-0.1 h -4 c -2,-0.1 -4.8,0.1 -6.6,-0.6 4.2,1.6 3,0.4 1,0.1 -1.3,-0.2 -2.5,-0.3 -3.8,-0.5 -6.8,-0.9 -13.8,-2.1 -20.7,-1.6 -8.3,0.6 -15.7,2.2 -22.4,7.3 -9,7 -13.6,19 -10.3,30.2 3.5,11.8 14.4,22.2 25.1,27.5 21.6,10.8 45,9.2 67.6,2.6 12.2,-3.6 23.9,-7.3 33.8,-15.5 1.7,-1.4 3.2,-2.9 4.7,-4.4 0.8,-0.8 1.6,-1.5 2.3,-2.2 2.2,-2.4 -4,2.6 -1.2,1 2.8,-1.6 -4.8,1.3 -1.7,0.6 1,-0.2 2,-0.6 3.1,-0.8 1,-0.2 4.6,-0.7 0.6,-0.2 -4.3,0.5 0.6,0 1.5,-0.1 12.5,-1.1 24.4,-2.8 34.6,-10.7 12.9,-9.9 18.2,-26 14.2,-41.8 -3.4,-13.3 -13,-22.8 -22.9,-31.6 -9.1,-8.1 -18,-16.3 -26.9,-24.6 -17.3,-16.2 -34.1,-32.9 -50.5,-49.9 -7,-7.2 -18.3,-9 -27.3,-5.2 -8.7,3.7 -15.9,13 -15.4,22.8 1.1,19.4 9,36.5 19.6,52.5 4.3,6.6 8.9,13 13,19.7 2,3.2 3.8,6.5 5.5,9.9 0.4,0.9 2.1,4.8 0.5,0.9 -1.6,-3.8 -0.3,-0.6 0,0.3 0.7,2 1.4,4 1.9,6 13.9,-8.1 27.9,-16.2 41.8,-24.3 C 380.4,469.4 368.7,456 356.9,442.7 346,430.4 335.5,417 323.2,406 c -7.6,-6.9 -16.3,-13.4 -26.2,-16.5 -14.2,-4.4 -30.7,1.4 -37.6,14.8 -9,17.6 0.7,39.3 7.6,56.1 3.3,8 6.8,16 9.7,24.1 1.4,3.9 2.6,7.9 3.6,11.9 0.5,1.9 0.9,3.8 1.2,5.7 0.2,1 0.7,4.7 0.2,0.8 -0.6,-4.3 0,1.2 0.1,1.6 15.5,-4.2 31.1,-8.4 46.6,-12.6 -6.5,-13.2 -12.9,-26.6 -18.9,-40.1 -2.9,-6.4 -5.7,-12.9 -8.5,-19.4 -2.6,-6 2,4.9 -0.5,-1.1 -0.7,-1.8 -1.5,-3.6 -2.2,-5.3 -1.5,-3.6 -2.9,-7.1 -4.3,-10.7 -2.5,-6.3 -5.4,-11.4 -11.5,-14.9 -5.4,-3.1 -13.3,-4.5 -19.3,-2.5 -12.4,3.7 -23.3,17.7 -18.1,30.7 z"
           class="st1" />
      </g>
    </g>
    <g
       id="XMLID_9_">
      <g
         id="XMLID_213_">
        <path
           id="XMLID_217_"
           d="m 155.8,465.6 c 2.7,1.3 5.4,2.7 8.1,4.2 5.7,3.2 13.9,1.6 17.1,-4.5 3.1,-5.9 1.6,-13.7 -4.5,-17.1 -2.7,-1.5 -5.4,-2.9 -8.1,-4.2 -3.1,-1.5 -6.2,-2.2 -9.6,-1.3 -2.9,0.8 -6,3 -7.5,5.7 -1.5,2.9 -2.3,6.4 -1.3,9.6 1,3.1 2.9,6.2 5.8,7.6 z"
           class="st1" />
      </g>
    </g>
    <g
       id="XMLID_11_">
      <g
         id="XMLID_220_">
        <path
           id="XMLID_224_"
           d="m 168.3,464 c 16.1,0 16.1,-25 0,-25 -16.1,0 -16.1,25 0,25 z"
           class="st1" />
      </g>
    </g>
    <g
       id="XMLID_14_">
      <g
         id="XMLID_227_">
        <path
           id="XMLID_231_"
           d="m 301.4,378.4 c 11.4,11.8 22.9,23.6 34.3,35.4 4.7,4.8 13,4.7 17.7,0 5.2,-5.2 4.3,-12.5 0,-17.7 -10.9,-13.2 -21.9,-26.5 -32.8,-39.7 l -17.7,17.7 c 23.4,25.4 46.9,50.8 70.3,76.3 21.2,23 42.1,46.8 68.6,63.9 13.2,8.5 29.5,13.3 41.1,24.1 10.6,9.9 25.9,-2.5 19.6,-15.1 -2.9,-5.8 -7.2,-10 -12.3,-13.8 -3.9,-2.9 -10.4,-1.8 -13.9,1 -4,3.2 -5.6,8.1 -4.5,13.1 0.1,0.8 0.3,1.5 0.6,2.2 -0.1,2.2 0,2.5 0.3,0.9 0.2,-1.8 1.5,-3 3.7,-3.4 0.6,-0.4 0.5,-0.6 -0.4,-0.4 -3.4,-1.6 -10,2.4 -12.4,4.8 -5.1,5.1 -6.7,12.8 -5.8,19.7 5.3,-4 10.5,-8 15.8,-12.1 -2.8,-0.5 -5.7,-1.1 -8.5,-2 -2.1,-0.7 -0.3,-0.3 -2.2,-1 -1.3,-0.8 -1.6,-1 -0.8,-0.5 0.2,0.6 0.2,0.5 -0.2,-0.1 -0.4,-0.8 -0.4,-0.7 0,0.2 v 0.3 c 0.1,-1.4 -0.5,1 -0.8,1.5 -2.7,3.9 -10.4,2 -9.9,-3.4 5.3,-4 10.5,-8 15.8,-12.1 -15.5,-4.3 -33.6,5.7 -36.5,22 l 8.7,-8.7 c -15.4,2.6 -30.2,6.3 -42.1,16.9 7,4.1 13.9,8.1 20.9,12.2 2.4,-9.3 -3.2,-18.5 -12.5,-20.9 -9.6,-2.5 -17.6,4 -24.1,10.1 -4.8,4.5 -8.5,10.2 -13.6,14.4 -3.3,2.7 -7.1,3 -11.9,3.3 -14,0.7 -26.8,1.1 -37.8,11 -1.6,1.5 -3.4,3.1 -4.5,3.5 -1.7,0.6 -3.5,0.6 -5.5,0.2 -6,-1.2 -10.5,-6 -14.5,-10.3 -5,6.5 -10.1,13.1 -15.1,19.6 0.6,0.3 3.7,1.2 1.8,0.6 0.8,1.3 0.9,1.6 0.4,0.8 v 0.8 c -0.1,14.2 20.7,16.9 24.6,3.3 5.5,-19.3 -11.2,-36.7 -30.5,-33.6 -8.2,1.3 -15,5.7 -22.1,9.8 -1.3,0.8 -3,1.7 -4.3,2.2 -0.1,0 -4.7,1.2 -2.3,0.7 -1.5,-0.1 -1.8,0 -0.6,0.1 -1.4,-0.5 -1.7,-0.5 -0.7,0 -1.3,-0.8 -1.5,-0.8 -0.6,-0.2 0.3,0.4 0.5,0.8 0.6,1.3 -4,5.3 -8,10.5 -12.1,15.8 10.5,1.2 20.6,-2.9 28.4,-9.8 5.5,-4.9 4.7,-16.5 -2.5,-19.6 -7.5,-3.3 -15.4,-5.8 -23.4,-2.6 -1.5,0.6 -9.2,5.4 -8,6.4 0.9,-0.2 1.8,-0.4 2.6,-0.7 1.1,0.3 0.9,0.2 -0.7,-0.2 1.3,0.5 -3,-1.5 -2.6,-1.2 -6.9,-3.6 -13.1,-6.9 -21,-7.8 -8.5,-1 -16.2,0.7 -24,4.1 -5,2.2 -7.1,9.2 -5.7,14.1 1.5,5.4 6.5,9 12.1,9.2 l 18.3,0.6 -3.3,-24.6 c -9.6,3.1 -18.7,6.5 -27.2,-0.1 -9.1,-7.2 -17.2,-16.4 -25.5,-24.5 -11.6,-11.2 -29.3,6.5 -17.7,17.7 10.4,10 20.4,21.9 32.6,29.8 13.8,9 29.7,6.1 44.5,1.3 13.3,-4.4 11.1,-24.1 -3.3,-24.6 L 188,560 c 2.1,7.8 4.2,15.5 6.3,23.3 9.8,-4.3 17.9,3.6 26.9,6.9 6,2.2 13.1,2.3 18.7,-1.1 1.5,-0.9 3.8,-2.4 4.7,-3.9 1,-1.7 1.4,-0.9 -0.6,-0.9 -2.7,0 1.8,1 2.1,1.1 -0.8,-6.5 -1.7,-13.1 -2.5,-19.6 -3.2,2.8 -6.3,3 -10.7,2.5 -7.7,-0.9 -14.7,8.8 -12.1,15.8 6.8,18 26.2,20.1 41.8,12.3 5.2,-2.6 11.3,-8.5 17.4,-8.6 -1.4,0 2.2,0.7 0.9,0.3 -2,-0.6 0.6,0.9 -0.2,-0.2 1.5,2 0.3,-0.7 0.8,1.7 v 0.5 c 0.2,-1.2 0.2,-1.1 -0.2,0.5 l 24.6,3.3 c 0.1,-9.8 -5.4,-19.8 -14.6,-23.7 -5.7,-2.5 -12.1,-2.2 -16.1,3.2 -3.8,5.1 -3.3,11.7 1,16.4 9.3,10.2 22,18.8 36.5,17.8 7.9,-0.5 14.6,-3.4 20.5,-8.6 4.4,-3.8 5.3,-5 11.1,-5.8 -1.9,0.3 2.5,-0.1 2.4,-0.1 1.2,-0.1 2.4,-0.1 3.6,-0.2 2.7,-0.1 5.4,-0.1 8,-0.3 6.9,-0.5 13.8,-1.6 19.9,-5 5.6,-3 9.8,-7.7 13.9,-12.4 2.3,-2.6 4.6,-5.1 7.1,-7.4 0.9,-0.9 3.6,-2.4 3.9,-3.5 -0.2,0.5 -6.7,-0.4 -7.7,-2.6 -0.6,-2.1 -1.1,-4.2 -1.7,-6.3 0.1,-0.4 0.2,-0.8 0.3,-1.1 -3.3,12.5 11.8,20.3 20.9,12.2 8.1,-7.2 20.5,-8.7 31.1,-10.5 3.9,-0.6 8.1,-4.9 8.7,-8.7 0.1,-0.9 0.3,-1.7 0.6,-2.5 -0.5,1 -0.3,0.9 0.4,-0.5 -1.3,1.9 2.8,-2.2 0.9,-0.9 1.3,-0.7 1.5,-0.8 0.5,-0.4 0.8,-0.3 1.6,-0.5 2.5,-0.7 -1.2,0.2 -1.1,0.2 0.5,0.1 -1.2,-0.2 -1.1,-0.1 0.4,0.2 8.4,2.3 15.1,-4.1 15.8,-12.1 0.8,-9.4 -7,-17.3 -15.8,-19 -10.2,-1.9 -19.6,4.2 -22.6,14 -2.6,8.5 0.3,18 6.6,24.2 6,6 14.4,8.4 22.5,10 7.1,1.3 16.9,-3.3 15.8,-12.1 0,-0.4 -0.5,-4.7 -0.2,-4.8 0.1,0.5 0,1 -0.3,1.4 -0.6,1.2 -1.5,2.1 -2.8,2.7 -3.3,0.9 -3.6,1.4 -1,1.3 1.3,-0.2 2.7,-0.3 4,-0.5 2.1,-0.5 4.1,-1.4 5.9,-2.6 9.6,-6.3 10,-17.8 7.6,-28 -6.1,4.7 -12.2,9.4 -18.4,14.1 1.4,1 2.4,3 3.3,4.9 6.5,-5 13.1,-10.1 19.6,-15.1 -11.1,-10.4 -24.9,-15.8 -38,-23.1 -12.7,-7 -24,-16.1 -34.6,-26 -23.7,-22.4 -45.1,-47.5 -67.2,-71.5 -13.4,-14.5 -26.8,-29.1 -40.2,-43.6 -4.6,-5 -13,-4.6 -17.7,0 -5.2,5.2 -4.3,12.5 0,17.7 10.9,13.2 21.9,26.5 32.8,39.7 l 17.7,-17.7 c -11.4,-11.8 -22.9,-23.6 -34.3,-35.4 -11.1,-11.9 -28.8,5.8 -17.6,17.3 z"
           class="st1" />
      </g>
    </g>
    <g
       id="XMLID_15_">
      <g
         id="XMLID_234_">
        <path
           id="XMLID_238_"
           d="m 102.6,553.6 -5.3,-5.3 c -2.1,-2.1 -5.1,0.5 -3.9,3 2.2,4.6 6.2,7.1 11.2,7.7 2.9,0.3 3.2,-4.1 0.7,-4.9 -2.8,-0.9 -4.8,-2.2 -6.8,-4.4 -2,-2.2 -5.1,0.6 -3.9,3 2,4.2 5.4,6.9 10,7.8 2.2,0.5 4.5,-2.4 2.4,-4.2 -2.8,-2.4 -5.6,-4.8 -8.5,-7.1 -2.1,-1.8 -5.4,0.4 -3.9,3 2.2,3.8 5.3,6.2 9.5,7.4 1.8,0.5 3.6,-1.2 3.1,-3.1 -2.9,-9.3 -5.7,-18.5 -8.6,-27.8 -1.3,-4.3 -2.7,-8.6 -4,-13 -1.3,-4.2 -3.5,-9.1 -2.8,-13.5 0.9,-5.6 5.1,-11.2 0.9,-16.5 -3.5,-4.5 -9.8,-4.5 -15,-3.7 l 2.4,4.2 c 2.2,-1.9 4.4,-3.8 6.6,-5.8 2.2,-1.9 -0.6,-5.2 -3,-3.9 -10.3,5.3 -20.5,10.7 -30.8,16 -2.2,1.1 -1.2,4.8 1.3,4.7 5.8,-0.3 10.7,-2.5 14.5,-6.9 1.3,-1.4 0.6,-4.5 -1.8,-4.3 -6.4,0.7 -12.3,2.4 -18.1,5.1 -2.5,1.2 -0.7,5.6 1.9,4.6 5.5,-2.1 10.9,-4.6 16.2,-7.4 2.5,-1.3 0.8,-5.4 -1.9,-4.6 -6.3,1.9 -11.9,5 -16.8,9.5 -1.7,1.6 -0.2,4.1 1.8,4.3 6.1,0.5 11.1,-2.3 16.1,-5.4 l -3.4,-3.4 c -4.3,6.5 -8.1,13.3 -11.5,20.3 -1.4,2.9 2.9,5.4 4.3,2.5 2.8,-5.6 4.9,-11.4 6.4,-17.4 0.6,-2.7 -3.2,-4.5 -4.6,-1.9 -4.1,7.5 -6.3,15.6 -6.7,24.2 -0.1,2.9 4.1,3.3 4.9,0.7 1.7,-5.2 2.3,-10.6 1.4,-16 -0.4,-2.8 -1.2,-7.6 -5.1,-7.7 -8.9,-0.2 -2.6,21 -1.5,25 0.7,2.4 4.1,2.3 4.8,0 1.9,-6.1 2.9,-18.1 -3.6,-22.2 -6.9,-4.4 -9.3,4.3 -8.6,9.4 0.5,4 3.6,12.8 8.8,7.9 5.4,-5 2.5,-14.9 -0.2,-20.3 -0.8,-1.5 -2.8,-1.5 -3.9,-0.5 -5.4,5 -6.4,12.9 -2.6,19.1 1.2,2 3.8,1.3 4.6,-0.6 1.5,-3.8 4.7,-19.3 -3,-19 -7.5,0.3 -7.3,13.3 -5.6,17.9 0.9,2.4 3.9,2.3 4.8,0 1.4,-3.3 4.7,-15.7 -2.1,-15.9 -6.2,-0.2 -6.2,12.6 -5.8,16.4 0.4,3.2 4.6,3.2 5,0 0.6,-4.5 -0.5,-8.6 -3.1,-12.3 -1.3,-1.8 -3.9,-1.5 -4.6,0.6 -1.3,3.9 -1,7.5 0.9,11.1 1.1,2.2 4.8,1.2 4.7,-1.3 -0.2,-3.5 -0.9,-6.5 -2.3,-9.6 -0.7,-1.7 -3.5,-1.6 -4.3,0 -2.2,4.2 -2.2,8.2 -0.3,12.5 1.3,2.8 4.9,0.6 4.6,-1.9 -0.4,-3.1 -1.4,-5.7 -3.1,-8.3 -1.2,-1.8 -3.9,-1.5 -4.6,0.6 -1.1,3.7 -0.8,6.9 0.7,10.4 1.1,2.6 5.5,0.7 4.6,-1.9 -1,-2.9 -2.4,-5.2 -4.5,-7.5 -1.1,-1.3 -3.1,-0.8 -3.9,0.5 -1.8,2.7 -1.8,5.5 -0.1,8.3 1.2,2 4.9,1.3 4.7,-1.3 -0.3,-3.8 -2.7,-9.6 -7.7,-7.1 -4.5,2.2 -1.5,6.9 1.3,8.8 1.6,1.1 3.8,-0.4 3.8,-2.2 0,-3.9 -3,-9 -7.6,-6.7 -3.7,1.8 -2.7,7.2 1.2,7.9 1.7,0.3 3.9,-1.1 3.1,-3.1 -1.4,-3.6 -5.3,-7.9 -9.4,-4.5 -2.9,2.4 -1.5,6.4 1.8,7.5 2.3,0.7 3.7,-1.8 2.8,-3.7 -1.6,-3.5 -4.5,-5.2 -8.3,-5.4 -1.7,-0.1 -2.8,1.7 -2.4,3.2 0.4,1.5 0.7,2 1.8,3 l 3,-3.9 c -2.2,-1.1 -4.3,-1.9 -6.7,-2.4 -2.3,-0.5 -3.7,1.7 -2.8,3.7 1.2,2.6 4.2,3 6.7,3.8 l 14.1,4.5 c 9.1,2.9 18.2,5.8 27.2,8.7 2.7,0.9 4.4,-3.2 1.9,-4.6 -7.3,-3.8 -14.5,-7.7 -21.8,-11.5 -2.8,-1.5 -5.3,2.7 -2.5,4.3 4.8,2.8 9.8,5.1 14.9,7.1 2.6,1 4.5,-3.4 1.9,-4.6 -3.6,-1.7 -6.9,-3.7 -10,-6.2 l -3,3.9 c 4.2,2.3 8.5,4.2 13.1,5.5 2.5,0.8 4,-2.4 2.4,-4.2 -2.2,-2.5 -4.7,-4 -7.9,-4.9 -2.4,-0.6 -4.2,2.4 -2.4,4.2 1.5,1.5 3.1,3 4.6,4.5 2.3,2.3 5.8,-1.3 3.5,-3.5 -1.5,-1.5 -3.1,-3 -4.6,-4.5 l -2.4,4.2 c 2.4,0.6 4.1,1.7 5.7,3.6 l 2.4,-4.2 c -4.2,-1.2 -8.1,-2.9 -11.9,-5 -2.4,-1.3 -5.3,2.1 -3,3.9 3.4,2.8 7,5.1 11,7 0.6,-1.5 1.3,-3 1.9,-4.6 -4.8,-1.9 -9.3,-4.1 -13.7,-6.6 -0.8,1.4 -1.7,2.9 -2.5,4.3 7.3,3.8 14.5,7.7 21.8,11.5 0.6,-1.5 1.3,-3 1.9,-4.6 L 33,510.4 c -3.8,-1.2 -7.5,-2.4 -11.3,-3.6 -2,-0.6 -10.5,-2.1 -11.2,-3.9 -0.9,1.2 -1.9,2.4 -2.8,3.7 2,0.5 3.6,1 5.5,1.9 2.5,1.2 5.1,-1.8 3,-3.9 -0.2,-0.3 -0.3,-0.6 -0.5,-0.8 -0.8,1.1 -1.6,2.1 -2.4,3.2 2.1,0.1 3.4,1 4,2.9 0.9,-1.2 1.9,-2.4 2.8,-3.7 0.5,1.1 1,2.2 1.5,3.2 l 3.1,-3.1 c 0,1.2 0.1,2.4 0.1,3.6 1.3,-0.7 2.5,-1.4 3.8,-2.2 -0.4,0.9 -0.7,1.7 -1.1,2.6 1.6,-0.4 3.1,-0.8 4.7,-1.3 0,-1.1 0.1,-2.1 0.1,-3.2 -1.3,0.2 -2.6,0.3 -3.9,0.5 1.5,1.7 2.4,3.1 3.2,5.3 1.5,-0.6 3,-1.3 4.6,-1.9 -1,-2.4 -0.9,-4.3 -0.2,-6.6 -1.5,0.2 -3,0.4 -4.6,0.6 1.4,2.3 2.2,4.5 2.6,7.1 1.5,-0.6 3,-1.3 4.6,-1.9 -1.2,-2.6 -1,-4.9 0.3,-7.4 h -4.3 c 1.1,2.5 1.5,4.5 1.6,7.1 1.6,-0.4 3.1,-0.8 4.7,-1.3 -1.2,-2.4 -1.2,-4.8 -0.4,-7.3 -1.5,0.2 -3,0.4 -4.6,0.6 2.2,3.1 2.9,6.1 2.4,9.8 h 5 c -0.1,-1.2 0.6,-12 1.5,-11.6 -2.1,-1 -2,4.9 -2.1,5.2 -0.3,1.6 -0.8,3 -1.4,4.5 h 4.8 c -0.4,-1.2 -1.6,-10.8 0.4,-10.3 0.8,0.2 0.1,6.6 0,6.8 -0.3,1.6 -0.8,3.1 -1.4,4.7 1.5,-0.2 3,-0.4 4.6,-0.6 -2.7,-4.4 -1.9,-9.6 1.8,-13.1 -1.3,-0.2 -2.6,-0.3 -3.9,-0.5 1.4,2.7 2.5,5.6 2.5,8.7 0,1.4 0,3.4 -0.3,4.7 0.4,1.5 0.3,1.4 -0.3,0 -0.4,-0.8 -0.8,-1.7 -0.9,-2.6 -0.1,-0.5 -0.9,-3.5 -0.4,-3.9 2.4,-2.3 3,1.7 3.2,2.7 0.9,4.1 0.5,7.9 -0.7,11.9 h 4.8 c -0.8,-2.7 -1.4,-5.5 -1.9,-8.3 -0.2,-1 -0.5,-9.5 -1.4,-9.8 -1.1,-0.3 -0.1,2.1 0,2.8 0.3,1.6 0.4,3.1 0.4,4.7 0,3.2 -0.7,6.2 -1.7,9.3 1.6,0.2 3.3,0.4 4.9,0.7 0.3,-7.7 2.3,-14.9 6,-21.6 -1.5,-0.6 -3,-1.3 -4.6,-1.9 -1.4,5.7 -3.3,11 -5.9,16.3 1.4,0.8 2.9,1.7 4.3,2.5 3.4,-7 7.2,-13.8 11.5,-20.3 1.4,-2.1 -1.3,-4.7 -3.4,-3.4 -4.2,2.7 -8.4,5.2 -13.6,4.7 0.6,1.4 1.2,2.8 1.8,4.3 4.3,-3.9 9,-6.6 14.6,-8.2 -0.6,-1.5 -1.3,-3 -1.9,-4.6 -4.9,2.6 -9.8,4.9 -15,6.9 0.6,1.5 1.3,3 1.9,4.6 5,-2.4 10.1,-3.8 15.5,-4.4 -0.6,-1.4 -1.2,-2.8 -1.8,-4.3 -3,3.4 -6.5,5.2 -11,5.4 0.4,1.6 0.8,3.1 1.3,4.7 10.3,-5.3 20.5,-10.7 30.8,-16 l -3,-3.9 c -2.2,1.9 -4.4,3.8 -6.6,5.8 -2.1,1.8 0.2,4.5 2.4,4.2 2.8,-0.4 7.2,-0.8 9.3,1.5 2.6,2.8 0.1,7.3 -0.9,10.3 -1.8,5.9 -0.1,10.8 1.6,16.5 4.4,14.2 8.7,28.4 13.1,42.6 l 3.1,-3.1 c -3,-0.9 -5,-2.4 -6.5,-5.1 l -3.9,3 c 2.8,2.4 5.6,4.8 8.5,7.1 l 2.4,-4.2 c -3.4,-0.7 -5.5,-2.4 -7,-5.5 l -3.9,3 c 2.5,2.8 5.4,4.5 9,5.7 0.2,-1.6 0.4,-3.3 0.7,-4.9 -3.3,-0.4 -5.5,-2.4 -6.9,-5.2 l -3.9,3 5.3,5.3 c 2.3,2.2 5.8,-1.4 3.5,-3.6 z"
           class="st1" />
      </g>
    </g>
    <g
       id="XMLID_18_">
      <g
         id="XMLID_241_">
        <path
           id="XMLID_245_"
           d="m 408.6,501.6 c -3.4,7.1 -7,14.2 -10.7,21.2 1.4,0.8 2.9,1.7 4.3,2.5 4.5,-9.4 8.1,-19.2 10.6,-29.3 0.8,-3.1 -3.9,-4.4 -4.8,-1.3 -2.7,9.1 -5.7,18 -9.2,26.7 1.6,0.2 3.3,0.4 4.9,0.7 -0.4,-3.6 0.8,-7.1 1.7,-10.5 0.9,-3.2 1.7,-8.8 4.2,-11.2 -1.3,-0.2 -2.6,-0.3 -3.9,-0.5 1.7,2.9 0.7,10.3 0.6,13.4 -0.1,4.2 -0.3,8.4 -0.7,12.7 -0.3,3.2 4.7,3.2 5,0 0.5,-5.5 0.8,-11 0.7,-16.6 0,-3.7 0.7,-8.7 -1.3,-12.1 -0.8,-1.4 -2.8,-1.6 -3.9,-0.5 -3.1,2.9 -3.9,7.7 -5,11.7 -1.2,4.3 -3,9 -2.4,13.5 0.3,2.8 3.8,3.4 4.9,0.7 3.5,-8.8 6.6,-17.7 9.2,-26.7 -1.6,-0.4 -3.2,-0.9 -4.8,-1.3 -2.4,9.7 -5.8,19.1 -10.1,28.1 -1.4,2.9 2.8,5.4 4.3,2.5 3.7,-7 7.3,-14.1 10.7,-21.2 1.4,-2.9 -2.9,-5.4 -4.3,-2.5 z"
           class="st1" />
      </g>
    </g>
    <g
       id="XMLID_73_">
      <g
         id="XMLID_248_">
        <path
           id="XMLID_252_"
           d="m 435.9,552.6 c -0.3,0.8 -0.7,1.6 -1.1,2.4 1,0.1 2,0.3 3,0.4 -0.7,-1.1 -0.8,-2.1 -0.2,-3.2 -1.6,-0.2 -3.3,-0.4 -4.9,-0.7 0,0.5 0.1,4.8 0.5,2.1 0.8,-0.6 0.7,-1.1 -0.1,-1.4 -0.6,-0.4 -1,-0.9 -1.4,-1.5 -0.6,1.4 -1.2,2.8 -1.8,4.3 h 0.2 c 1.2,-0.9 2.4,-1.9 3.7,-2.8 -5.7,-2.9 -10.2,-7 -13.5,-12.4 -1.7,-2.7 -6,-0.2 -4.3,2.5 3.7,6.1 8.9,11 15.2,14.2 1.7,0.9 4.5,-0.6 3.7,-2.8 -0.9,-2.3 -2.4,-3.6 -5,-3.7 -2.3,-0.1 -3.1,2.7 -1.8,4.3 1.5,1.9 4.3,4.6 7,3.9 3,-0.8 2.6,-4.2 2.6,-6.6 0.1,-2.9 -4,-3.3 -4.9,-0.7 -0.9,2.6 -0.9,6.2 1.5,8.1 0.8,0.6 2.1,1.1 3,0.4 1.8,-1.3 2.6,-3.3 3.4,-5.3 1.2,-3.2 -3.7,-4.5 -4.8,-1.5 z"
           class="st1" />
      </g>
    </g>
    <g
       id="XMLID_76_">
      <g
         id="XMLID_255_">
        <path
           id="XMLID_259_"
           d="m 302.8,344.6 c 4.9,4.6 9.4,9.4 13.6,14.6 l 3.5,-3.5 c -8.5,-7.5 -17.5,-14.1 -27.2,-19.9 -0.8,1.4 -1.7,2.9 -2.5,4.3 3,1.7 5.8,3.6 8.4,5.8 2.4,2 5.9,-1.2 3.5,-3.5 -6.4,-6.3 -14.4,-10.3 -23.2,-11.7 -2.2,-0.3 -4.6,2.4 -2.4,4.2 3.9,3.2 8,6 12.5,8.4 2.9,1.5 5.1,-2.5 2.5,-4.3 -4.2,-3 -8.7,-5.5 -13.5,-7.5 -2.4,-1 -7.1,-3.6 -9.5,-1.1 -6.3,6.3 10.6,10.1 13.7,10.4 1.3,0.1 2.6,-1.2 2.5,-2.5 -0.4,-6.4 -9.9,-8.3 -15,-8.9 -6,-0.7 -9.1,4.2 -3.6,8.1 3.1,2.2 11.9,4.9 13.2,-0.7 1.6,-7 -10.9,-7.1 -14.8,-6.4 -2.6,0.4 -2.1,4.1 0,4.8 4.4,1.5 8.8,2 13.5,1.8 2.1,-0.1 3.4,-2.7 1.8,-4.3 -3.9,-3.8 -9.4,-3.8 -13.4,-0.2 -1.5,1.3 -0.6,3.6 1.1,4.2 4.3,1.4 8.3,0.8 12,-1.6 1.6,-1 1.6,-3.3 0,-4.3 -5.1,-3.1 -12.1,-4.5 -17.6,-1.7 -3.5,1.8 -6,7 -1.9,9.7 3.7,2.5 8,-1.7 6.7,-5.6 -1.7,-5.3 -8.7,-4.5 -12.3,-1.9 -3,2.1 -4.1,7.7 0.5,8.8 4.6,1.1 6.6,-4.9 3.7,-7.8 -3.4,-3.5 -11.5,-1.9 -13.6,2.5 -2.2,4.6 2.3,8.2 6.6,7.2 4.1,-0.9 7.3,-6.6 2.6,-9.2 -5.4,-3 -14.1,3.1 -17.6,6.7 -1.8,1.8 0,4.7 2.4,4.2 3,-0.7 5.6,-1.7 8.3,-3.1 2.4,-1.3 1,-4.4 -1.3,-4.7 -9.1,-0.9 -17.7,1.9 -24.7,7.9 -1.5,1.3 -0.6,3.6 1.1,4.2 4.8,1.6 8.6,-1 12.2,-4 1.7,-1.4 0.3,-4.4 -1.8,-4.3 -9.6,0.5 -19.3,1.5 -26.7,8.2 -1.2,1 -0.9,3.2 0.5,3.9 3.8,1.9 7.4,1.9 11.1,-0.1 2.6,-1.4 0.7,-5.1 -1.9,-4.6 -3.6,0.7 -7.2,1.4 -10.7,2.1 0.6,1.5 1.3,3 1.9,4.6 4.6,-2.4 9.3,-3.6 14.5,-3.6 3.3,0 3.2,-4.7 0,-5 -13.8,-1.2 -27.1,6 -33.7,18.1 -1.1,2 0.7,4 2.8,3.7 2.4,-0.4 3.9,-1.6 5.1,-3.7 -1.5,-0.6 -3,-1.3 -4.6,-1.9 -2.5,9.4 -5.5,18.6 -9,27.6 -1.2,3 3.7,4.3 4.8,1.3 3.5,-9.1 6.5,-18.3 9,-27.6 0.7,-2.7 -3.2,-4.5 -4.6,-1.9 -0.7,0.5 -1.4,0.9 -2.1,1.4 0.9,1.2 1.9,2.4 2.8,3.7 5.9,-10.7 17.3,-16.7 29.4,-15.6 v -5 c -6.1,0 -11.7,1.4 -17.1,4.3 -2.6,1.4 -0.7,5.1 1.9,4.6 3.6,-0.7 7.2,-1.4 10.7,-2.1 -0.6,-1.5 -1.3,-3 -1.9,-4.6 -2,1.3 -4,1.3 -6.1,0.1 0.2,1.3 0.3,2.6 0.5,3.9 6.4,-5.7 15.1,-6.2 23.2,-6.7 -0.6,-1.4 -1.2,-2.8 -1.8,-4.3 -2.1,1.7 -4.4,3.7 -7.4,2.7 0.4,1.4 0.7,2.8 1.1,4.2 6,-5.1 13.4,-7.2 21.1,-6.4 -0.4,-1.6 -0.8,-3.1 -1.3,-4.7 -2.3,1.2 -4.6,2 -7.1,2.6 l 2.4,4.2 c 1.9,-1.9 3.9,-3.5 6.4,-4.5 0.9,-0.4 2.9,-0.6 3.6,-1 1.1,0.2 1.4,-0.1 0.9,-0.8 -0.5,-0.8 -0.2,-1.1 1.1,-1 1.7,-0.1 3.5,-0.2 5.2,-0.4 0.6,-0.3 1.2,-0.5 1.8,-0.8 2.4,-0.6 4.9,-1.3 7.4,-1.7 3.9,-0.6 7.2,0.2 10.5,2.2 v -4.3 c -2.7,1.7 -5.2,2 -8.2,1 0.4,1.4 0.7,2.8 1.1,4.2 1.9,-1.7 4.5,-1.6 6.3,0.2 0.6,-1.4 1.2,-2.8 1.8,-4.3 -4.2,0.3 -8.1,-0.2 -12.1,-1.6 v 4.8 c 1.7,-0.4 3.5,-0.4 5.3,-0.1 1.2,0.6 2.3,0.6 3.5,0 -0.8,-0.1 -1.5,-0.1 -2.3,-0.2 -1.5,-0.3 -2.9,-1 -4.1,-2 -0.7,1.3 -0.4,1.8 1.1,1.5 1.1,0.1 2.1,0.3 3.1,0.6 1.5,0.4 7.1,1.5 7.2,3.3 l 2.5,-2.5 c -0.7,-0.1 -9.9,-1.6 -9.5,-2.9 l -1.7,1.7 c 2.5,-0.8 7.2,2.3 9.4,3.5 3,1.5 5.8,3.3 8.6,5.3 0.8,-1.4 1.7,-2.9 2.5,-4.3 -4.1,-2.2 -7.9,-4.6 -11.5,-7.6 l -2.4,4.2 c 8.1,1.3 15.1,4.7 21,10.5 l 3.5,-3.5 c -3,-2.4 -6.1,-4.6 -9.4,-6.5 -2.8,-1.6 -5.3,2.7 -2.5,4.3 9.3,5.6 18,12 26.2,19.1 2.4,2.2 5.5,-1.1 3.5,-3.5 -4.2,-5.2 -8.8,-10 -13.6,-14.6 -1.8,-2.5 -5.4,1 -3,3.2 z"
           class="st1" />
      </g>
    </g>
  </g>
  <g
     id="Layer_2"
     transform="translate(-4.0150335,-113.43109)">
    <g
       id="XMLID_4_">
      <g
         id="XMLID_239_">
        <path
           id="XMLID_254_"
           d="m 335.9,414.6 c 1.7,14.5 5.5,28.6 11.5,42 2.7,6.1 5.8,12.1 10,17.3 4.2,5.3 9.3,9.8 14,14.6 5.3,5.3 9.7,10.8 12.4,17.8 2.5,6.5 4.4,13.2 7.4,19.5 6.4,13.7 15.7,25.8 24.9,37.7 1.9,2.5 6.3,0 4.3,-2.5 -8.7,-11.3 -17.4,-22.6 -23.8,-35.4 -6.1,-12.2 -8.2,-25.6 -17.4,-36.2 -8.8,-10 -18.6,-17.7 -24.8,-29.8 -7.2,-14.1 -11.7,-29.5 -13.6,-45.2 -0.2,-2.9 -5.2,-3 -4.9,0.2 z"
           class="st2" />
      </g>
    </g>
    <g
       id="XMLID_5_">
      <g
         id="XMLID_172_">
        <path
           id="XMLID_225_"
           d="m 382.8,504.9 c 2.4,18.5 6.8,36.5 13.3,53.9 1.1,3 5.9,1.7 4.8,-1.3 -6.3,-17 -10.7,-34.6 -13.1,-52.6 -0.4,-3.1 -5.4,-3.1 -5,0 z"
           class="st2" />
      </g>
    </g>
    <g
       id="XMLID_6_">
      <g
         id="XMLID_163_">
        <path
           id="XMLID_170_"
           d="m 321.6,486.7 c 3.4,26.9 9.3,53.4 17.6,79.2 1,3.1 5.8,1.7 4.8,-1.3 -8.1,-25.4 -14,-51.4 -17.4,-77.8 -0.4,-3.3 -5.4,-3.3 -5,-0.1 z"
           class="st2" />
      </g>
    </g>
    <g
       id="XMLID_7_">
      <g
         id="XMLID_150_">
        <path
           id="XMLID_161_"
           d="m 262.7,422.2 c -8.6,26.3 -8.8,54 -8,81.4 0.2,6.9 0.5,13.7 0.6,20.6 0.2,7 0.9,14.4 -0.4,21.3 -1.2,6.7 -4.2,13.1 -6.6,19.5 -2.7,7.1 -5.4,14.2 -8.1,21.2 -1.2,3 3.7,4.3 4.8,1.3 l 7.8,-20.4 c 2.4,-6.4 5.4,-12.8 6.7,-19.4 2.7,-12.9 0.6,-27.3 0.2,-40.4 -0.9,-28.2 -1.1,-56.7 7.7,-83.8 1.1,-3.1 -3.8,-4.4 -4.7,-1.3 z"
           class="st2" />
      </g>
    </g>
    <g
       id="XMLID_8_">
      <g
         id="XMLID_81_">
        <path
           id="XMLID_86_"
           d="m 383,427.7 c 5.5,9.9 14.8,17.8 22.9,25.5 9,8.6 18.4,16.9 28,24.8 8.6,7.1 17.5,15.2 27.2,20.6 5.2,2.8 11,3.8 16.1,7 4.2,2.6 8,5.3 13,6.1 3.1,0.5 4.5,-4.3 1.3,-4.8 -5,-0.8 -8.8,-3.8 -13,-6.4 -4.7,-2.8 -10.1,-3.6 -14.8,-6.2 -10,-5.4 -18.9,-13.7 -27.6,-20.9 -8.7,-7.2 -17.1,-14.7 -25.3,-22.4 -8.2,-7.8 -17.9,-15.8 -23.4,-25.8 -1.6,-2.9 -6,-0.4 -4.4,2.5 z"
           class="st1" />
      </g>
    </g>
    <g
       id="XMLID_10_">
      <g
         id="XMLID_98_">
        <path
           id="XMLID_114_"
           d="m 490.9,512.6 c 4.9,5 16,18.9 8.4,25.7 -5.8,5.2 -14.9,2.4 -20.3,9 -2,2.5 1.5,6 3.5,3.5 3.8,-4.7 10.4,-4.1 15.7,-6.2 3.9,-1.6 7.1,-4.5 8.2,-8.7 2.5,-9.4 -5.9,-20.6 -12,-26.9 -2.2,-2.3 -5.7,1.3 -3.5,3.6 z"
           class="st1" />
      </g>
    </g>
    <g
       id="XMLID_12_">
      <g
         id="XMLID_87_">
        <path
           id="XMLID_97_"
           d="m 478.1,550.2 c 1.4,11.9 -18.5,4.1 -24.6,3.4 -3.4,-0.4 -6.9,-0.6 -10.3,0.2 -3.2,0.7 -6.1,4.2 -9,4.3 -2.8,0.1 -4.4,-2.5 -7.6,-1.5 -3.2,1 -6.3,3.6 -9,5.6 -1.2,0.9 -6.3,6.4 -7.6,6.3 -1.2,-0.1 -3.6,-4.7 -5.3,-5.4 -2.9,-1.3 -5.5,3 -2.5,4.3 2.7,1.1 3.3,4.7 6.1,5.8 3,1.2 5,-0.9 7.2,-2.8 3.3,-2.9 9.9,-10 14.7,-7.9 3.1,1.3 4.7,2.6 7.8,0.3 2.2,-1.7 3.6,-3.5 6.6,-4.2 2.5,-0.6 5.5,-0.3 8.1,-0.1 5.5,0.5 10.6,2.4 16.1,3.2 7.3,1 15.4,-3.3 14.4,-11.6 -0.5,-3.1 -5.5,-3.1 -5.1,0.1 z"
           class="st1" />
      </g>
    </g>
    <g
       id="XMLID_117_">
      <g
         id="XMLID_139_">
        <path
           id="XMLID_155_"
           d="m 399.2,563.2 c -6.1,2.7 -10.3,7.5 -14.3,12.6 -4.8,6.2 -9.6,13.2 -18.1,14.1 -7.4,0.8 -14.8,-1.4 -22.3,0.3 -6.8,1.6 -12.9,5.8 -17.3,11.1 -2,2.5 1.5,6 3.5,3.5 5.7,-6.8 13.3,-10.6 22.2,-10.4 6.8,0.2 13.8,1.6 20.3,-1 12.5,-5 16.1,-20.5 28.4,-25.9 3.1,-1.2 0.6,-5.5 -2.4,-4.3 z"
           class="st1" />
      </g>
    </g>
    <g
       id="XMLID_26_">
      <g
         id="XMLID_91_">
        <path
           id="XMLID_174_"
           d="m 141.1,406.4 c -15.1,24.9 -34,47.3 -56.1,66.4 -2.4,2.1 1.1,5.6 3.5,3.5 22.4,-19.3 41.6,-42.1 56.9,-67.4 1.6,-2.7 -2.7,-5.3 -4.3,-2.5 z"
           class="st1" />
      </g>
    </g>
    <g
       id="XMLID_33_">
      <g
         id="XMLID_94_">
        <path
           id="XMLID_101_"
           d="m 86.3,470.3 c -9.6,6.4 -19.8,10 -30.8,13.1 -4.4,1.2 -8.5,2.9 -12.2,5.6 -4.1,3 -7.5,6.9 -12.5,8.5 -3.1,1 -1.8,5.8 1.3,4.8 4.3,-1.3 7.6,-3.9 11,-6.7 4.7,-4 9.4,-6.2 15.4,-7.8 10.8,-2.9 20.9,-6.9 30.3,-13.2 2.7,-1.8 0.2,-6.1 -2.5,-4.3 z"
           class="st1" />
      </g>
    </g>
    <g
       id="XMLID_40_">
      <g
         id="XMLID_106_">
        <path
           id="XMLID_120_"
           d="m 30.4,498 c -7.4,3.1 -16.2,-0.7 -23.7,2.8 -4.8,2.2 -2.3,6.1 0.8,8.7 11.1,9.2 26.7,8.7 39.7,13.6 3,1.1 4.3,-3.7 1.3,-4.8 -6.5,-2.5 -13.3,-3.6 -20,-5.2 -3.4,-0.8 -6.7,-1.7 -9.9,-3 -1.8,-0.7 -9.7,-4 -9.7,-6.3 -0.4,0.7 -0.8,1.4 -1.2,2.2 7.2,-4.5 16.5,0 24.1,-3.1 2.8,-1.3 1.6,-6.2 -1.4,-4.9 z"
           class="st1" />
      </g>
    </g>
    <g
       id="XMLID_47_">
      <g
         id="XMLID_138_">
        <path
           id="XMLID_159_"
           d="m 47.1,523.1 c 4.3,1.4 5,8.7 7.9,12 3.1,3.5 7,6.7 10.4,9.9 2.8,2.6 5.9,5 9.8,5.8 1.4,0.3 2.9,0.3 4.3,0.1 3.8,-0.6 6.6,-1.2 10.5,-0.4 3.1,0.6 4.5,-4.2 1.3,-4.8 -2.3,-0.5 -4.7,-1 -7.1,-0.8 -2,0.1 -3.8,0.9 -5.7,1 -6.4,0.5 -10.3,-5.6 -14.5,-9.4 -1.4,-1.3 -3.1,-2.5 -4.5,-3.9 -2.3,-2.3 -3.1,-5.1 -4.4,-8 -1.4,-3.1 -3.4,-5.3 -6.7,-6.3 -3,-1 -4.4,3.8 -1.3,4.8 z"
           class="st1" />
      </g>
    </g>
    <g
       id="XMLID_54_">
      <g
         id="XMLID_115_">
        <path
           id="XMLID_146_"
           d="m 88.3,548.7 c 1.7,11 11.7,16.7 21.8,18.7 7.4,1.4 13.9,1.5 19.7,7 4,3.8 7.3,8 11.9,11.1 10,6.8 22.6,8 34.3,7 7.1,-0.6 14,-2 21,-3 7,-1.1 14.2,-1.7 20.2,2.5 2.6,1.8 5.1,-2.5 2.5,-4.3 -9.4,-6.6 -21.4,-3.5 -31.8,-1.8 -13.1,2.1 -27.4,3.8 -39.7,-2.4 -9.5,-4.7 -14.4,-15.7 -24.7,-18.9 -11.3,-3.5 -28,-1.8 -30.4,-17.3 -0.5,-3.1 -5.3,-1.7 -4.8,1.4 z"
           class="st1" />
      </g>
    </g>
    <g
       id="XMLID_19_">
      <g
         id="XMLID_121_">
        <path
           id="XMLID_131_"
           d="m 220.4,593.5 c 7.4,1.1 12,7.3 18.5,10.2 7,3 14,0.9 20.4,-2.5 3.4,-1.8 6.6,-4 10,-5.9 2.2,-1.2 4.4,-2.4 6.8,-3.1 1.3,-0.4 2.7,-0.7 4.1,-0.8 1.1,-0.3 1.4,-0.2 0.7,0.3 1.5,2.8 0.6,7.5 1.9,10.6 0.9,2.1 2.3,3.6 4.5,4.5 3.5,1.5 7.8,1 11.6,1.4 4.4,0.5 8.8,1 13.2,1.3 4.5,0.3 18.2,2.2 18.5,-5.2 0.1,-3.2 -4.9,-3.2 -5,0 0,-0.7 -2,0.1 -3.1,0.2 -1.8,0.2 -3.6,0.2 -5.3,0.1 -4.1,-0.1 -8.2,-0.4 -12.3,-0.9 -2.7,-0.3 -5.4,-0.7 -8.1,-0.9 -2.2,-0.2 -5.4,0.3 -7.4,-0.8 -3.5,-1.8 -2.8,-8.4 -3.4,-11.7 -2.2,-11 -21.5,2.1 -26.1,4.8 -7.8,4.6 -15.1,6.9 -23.1,1.5 -4.8,-3.3 -9,-7.1 -15,-8 -3.2,-0.4 -4.6,4.4 -1.4,4.9 z"
           class="st1" />
      </g>
    </g>
    <g
       id="XMLID_68_">
      <g
         id="XMLID_142_">
        <path
           id="XMLID_148_"
           d="m 202.2,398.9 c -10.9,25.5 -29.5,47.9 -45.7,70.2 -8.2,11.2 -16.3,22.4 -24,33.9 -3.8,5.6 -7.4,11.3 -10.9,17.1 -3.4,5.5 -6.8,12.1 -13.6,13.6 -3.1,0.7 -1.8,5.5 1.3,4.8 11.5,-2.5 16.8,-16.4 22.5,-25.3 8.2,-12.7 16.9,-25 25.8,-37.2 8.7,-12 17.5,-23.8 26,-36 8.6,-12.3 17.1,-24.8 23,-38.7 1.2,-2.8 -3.1,-5.3 -4.4,-2.4 z"
           class="st2" />
      </g>
    </g>
    <g
       id="XMLID_75_">
      <g
         id="XMLID_134_">
        <path
           id="XMLID_140_"
           d="m 121.5,459.9 c -5.5,4.5 -10.9,9 -16.1,13.9 -4.8,4.6 -9,9.8 -13.8,14.4 -2.5,2.4 -5.1,4.7 -8.1,6.3 -3.5,2 -6.8,1.9 -10.6,2.4 -6.3,1 -11.9,4.2 -17.3,7.4 -2.8,1.6 -0.3,6 2.5,4.3 3.4,-2 6.7,-4.1 10.4,-5.5 3.7,-1.4 7.3,-1.3 11.1,-2 5.5,-0.9 10.3,-4.7 14.3,-8.4 5.1,-4.7 9.4,-10.1 14.4,-14.9 5.3,-5.1 11,-9.8 16.7,-14.5 2.5,-1.9 -1,-5.4 -3.5,-3.4 z"
           class="st2" />
      </g>
    </g>
    <g
       id="XMLID_82_">
      <g
         id="XMLID_126_">
        <path
           id="XMLID_130_"
           d="m 208.6,481.2 c -4.4,10.6 -8.9,21.2 -14.7,31.1 -5.7,9.6 -12.4,18.4 -17.7,28.3 -5,9.4 -8.2,19.8 -13.7,28.8 -2.7,4.5 -11.8,15.6 -7.5,21 0.9,1.1 2.6,0.8 3.5,0 0.1,-0.1 0.2,-0.2 0.3,-0.2 1.1,-0.9 0.8,-2.6 0,-3.5 l -0.2,-0.2 c -2,-2.5 -5.5,1 -3.5,3.5 l 0.2,0.2 v -3.5 c -0.1,0.1 -0.2,0.2 -0.3,0.2 h 3.5 c 0.3,0.4 2.3,-4.8 2.5,-5.3 1.1,-2.2 2.4,-4.2 3.6,-6.2 2.6,-4.1 4.9,-8.2 6.8,-12.6 4,-9.5 8.2,-18.7 13.5,-27.5 5.1,-8.5 11.1,-16.4 15.8,-25.1 4.8,-8.9 8.7,-18.3 12.6,-27.6 1.4,-3 -3.4,-4.3 -4.7,-1.4 z"
           class="st2" />
      </g>
    </g>
    <g
       id="XMLID_89_">
      <g
         id="XMLID_53_">
        <path
           id="XMLID_111_"
           d="m 207,485.2 c -3.1,9.6 -6.2,19.1 -10,28.5 -3.6,8.7 -8,17 -11.7,25.6 -3.5,8 -5.9,16 -7.6,24.5 -0.9,4.7 -2.4,8.9 -4,13.4 -1.2,3.5 -1.8,6.7 -0.7,10.2 0.9,3.1 5.8,1.8 4.8,-1.3 -1.4,-4.5 1.3,-8.7 2.7,-12.9 1.5,-4.4 2,-9 3,-13.5 1.9,-8.5 5.3,-16.5 9,-24.4 7.5,-16 13.8,-32 19.2,-48.8 1.1,-3.1 -3.7,-4.4 -4.7,-1.3 z"
           class="st2" />
      </g>
    </g>
    <g
       id="XMLID_103_">
      <g
         id="XMLID_45_">
        <path
           id="XMLID_51_"
           d="m 255.1,548.1 c -5.9,15.6 -2.8,32.2 0.3,48 0.6,3.2 5.4,1.8 4.8,-1.3 -2.9,-15 -5.9,-30.6 -0.3,-45.4 1.2,-2.9 -3.6,-4.2 -4.8,-1.3 z"
           class="st2" />
      </g>
    </g>
    <g
       id="XMLID_110_">
      <g
         id="XMLID_37_">
        <path
           id="XMLID_43_"
           d="m 426.1,479.5 c 10.6,10.3 21.2,20.6 31.8,31 10.5,10.3 18.8,21.2 20.5,36.2 0.4,3.2 5.4,3.2 5,0 -1.6,-14.2 -8.3,-25.7 -18.2,-35.9 -11.6,-11.9 -23.7,-23.3 -35.6,-34.8 -2.3,-2.2 -5.9,1.3 -3.5,3.5 z"
           class="st2" />
      </g>
    </g>
    <g
       id="XMLID_62_">
      <path
         id="XMLID_267_"
         d="m 297.1,294.6 c 1.3,-1.8 3.1,-3.2 5.2,-4 2.2,-0.8 4.6,-1 6.5,-2.3 1.9,-1.3 3,-3.9 1.8,-5.8 -0.9,-1.4 -2.8,-2 -4.4,-1.6 -1.6,0.4 -3,1.5 -4,2.8 -2.7,3.3 -3.6,7.7 -5.1,11.6 -0.3,0.7 -0.6,1.4 -1.1,1.9"
         class="st3" />
      <g
         id="XMLID_189_">
        <path
           id="XMLID_232_"
           d="m 298.9,296.4 c 1.9,-2.4 4,-3.4 7,-4.3 1.9,-0.6 3.9,-1.2 5.4,-2.6 2.8,-2.7 3.3,-7.3 0.1,-9.9 -3.6,-2.8 -8.3,-0.9 -11,2.2 -1.4,1.7 -2.4,3.6 -3.3,5.7 -1,2.4 -1.4,6 -3,7.9 -2,2.5 1.5,6 3.5,3.5 1.7,-2 2.3,-4.6 3.2,-7.1 0.8,-2.4 2.8,-8.7 6.2,-8.6 2.5,0.1 1,2.7 -0.3,3.4 -1.4,0.7 -3.1,0.9 -4.6,1.4 -2.7,1 -5,2.6 -6.8,4.8 -1.9,2.5 1.6,6.1 3.6,3.6 z"
           class="st3" />
      </g>
    </g>
    <g
       id="XMLID_77_">
      <path
         id="XMLID_266_"
         d="m 237.7,278.8 c -6,0.1 -11.8,3.7 -14.6,9 -0.9,1.7 -1.6,3.7 -3.2,4.7 -0.7,0.4 -1.7,0.6 -2.5,0.1 -0.3,-0.2 -0.6,-0.6 -0.8,-1 -1.7,-2.8 -1.9,-6.4 -1.1,-9.6 0.8,-3.2 2.6,-6.1 4.7,-8.6 0.7,-0.9 1.5,-1.8 2.6,-2.3 2.3,-1.1 5,-0.1 7.4,0.8 3.5,1.4 7,2.9 10,5.2"
         class="st3" />
      <g
         id="XMLID_261_">
        <path
           id="XMLID_265_"
           d="m 237.7,276.3 c -3.7,0.2 -7.2,1.2 -10.3,3.2 -3.4,2.3 -4.5,5.4 -7,8.3 -0.8,0.9 -1.3,1.9 -2.5,0.1 -0.7,-1.1 -0.2,-4 0.1,-5.2 0.6,-2.5 2.4,-6.3 4.4,-8 4.5,-3.6 12.6,1.8 16.6,4.6 2.6,1.9 5.1,-2.5 2.5,-4.3 -4.6,-3.3 -13.4,-8.7 -19.3,-6.3 -5.4,2.2 -9.1,10.3 -9.5,15.8 -0.3,4.4 1.9,13.4 8.2,10.2 2.8,-1.4 3.5,-4.5 5.1,-6.9 2.6,-4 7,-6.3 11.7,-6.5 3.2,-0.2 3.2,-5.2 0,-5 z"
           class="st3" />
      </g>
    </g>
    <g
       id="XMLID_3_">
      <g
         id="XMLID_175_">
        <path
           id="XMLID_179_"
           d="m 385.9,424.6 c -16.6,-18.9 -33.1,-37.9 -49.7,-56.8 -13.2,-15 -27.1,-30.5 -45.9,-38.5 -9.2,-3.9 -19.4,-6 -29.4,-5 -10.8,1.2 -19.7,7.3 -30,9.9 -5.2,1.3 -10.5,1.9 -15.5,3.9 -4.7,1.8 -9,4.4 -13,7.4 -7.8,5.8 -14.2,13.2 -20.3,20.8 -7.3,9.1 -14.3,18.6 -23.5,26 -6.8,5.5 -17.2,8.9 -18.4,18.8 -0.4,3.2 4.6,3.2 5,0 0.5,-4.6 5.2,-7.2 8.7,-9.5 3.5,-2.3 6.9,-4.6 10.1,-7.4 7.2,-6.2 13.1,-13.7 18.9,-21.1 5.8,-7.2 11.6,-14.5 18.6,-20.6 8,-6.9 16.6,-10.5 26.8,-12.6 9.9,-2 18.4,-7.5 28.2,-9.7 9.7,-2.2 19.9,-0.7 29.2,2.8 19,7.2 33.1,22.8 46.2,37.8 16.8,19.1 33.5,38.3 50.2,57.4 2.4,2.4 5.9,-1.2 3.8,-3.6 z"
           class="st1" />
      </g>
    </g>
  </g>
  <g
     id="Layer_3"
     transform="translate(-4.0150335,-113.43109)">
    <g
       id="XMLID_13_">
      <path
         id="XMLID_199_"
         d="m 277.7,308.9 c 0.5,0.2 1,-0.1 1.4,-0.5 0.3,-0.4 0.5,-0.9 0.6,-1.4 0.1,-0.2 0.1,-0.6 -0.2,-0.6 h -0.2 c -1.2,0.4 -1.5,2 -2.3,2.9 -0.5,0.6 -1.3,1 -2,1.3 -2.6,1.1 -5.5,1.3 -8.3,1.5 -2.6,0.1 -5.3,0.1 -7.8,-0.5 -2.5,-0.6 -5,-1.8 -6.7,-3.8 2.1,1.5 4,3.2 6.1,4.7 2.1,1.5 4.5,2.7 7,2.9 2,0.2 4.1,-0.3 6,-1.1 1.9,-0.8 3.6,-1.9 5.3,-3 0.6,-0.4 1.2,-0.8 1.6,-1.4 0.4,-0.6 0.7,-1.3 0.4,-2 l 0.1,-1.8 c -3.3,-8.6 -6.6,-17.8 -4.6,-26.7 2.2,-10 10.8,-17.6 20.4,-21.2 9.6,-3.6 20.1,-3.7 30.3,-3.2 6.9,0.3 15.6,-0.2 18.4,-6.5 2.5,-5.7 -2,-12.1 -7.2,-15.6 -6.7,-4.5 -14.8,-6.6 -21.8,-10.6 -7,-4.1 -13.2,-11.5 -11.9,-19.5 1.1,-6.5 7,-11.3 13.3,-13.3 6.3,-2 13,-1.6 19.6,-1.6 29.8,0.2 60.5,-6 85,-23 6.2,-4.3 12.1,-9.4 15.3,-16.2 3.3,-6.8 3.5,-15.4 -1.1,-21.4 -4.4,-5.7 -12.1,-7.7 -19.2,-8.9 -19.9,-3.2 -40.3,-2.8 -60.4,-0.9 -13.3,1.2 -26.7,3 -39.3,7.4 -18.6,6.4 -34.9,18.1 -53.1,25.7 -9.7,4 -19.9,6.9 -30.3,8.4 -5.3,0.8 -10.8,1.3 -15.8,3.1 -5.1,1.9 -9.8,5.5 -11.6,10.5 -1.8,5.1 0.4,11.7 5.4,13.5 l -0.3,-0.4 c 8.4,6.6 18.3,10.7 28.1,15 21.8,9.5 43.1,19.8 64,31 1.7,0.9 3.6,2.4 3.2,4.2 -0.4,1.7 -2.6,2.2 -4.3,2.3 -10.4,0.7 -20.8,-0.6 -31.2,-1.1 -10.4,-0.5 -21.2,-0.1 -30.8,4 -1.1,0.5 -2.3,1 -3,2.1 -1.4,2.1 -0.3,4.9 1,7.1 3,4.7 7,8.8 11.7,11.8 2.9,1.8 6,3.3 8.7,5.3 2.7,2 5.1,4.8 5.7,8.2 0.8,4.4 -1.7,8.8 -5.2,11.6 -1.8,1.4 -3.9,2.5 -5.4,4.3 -3.8,4.4 -2.5,11 -1,16.6"
         class="st4" />
      <g
         id="XMLID_194_">
        <path
           id="XMLID_198_"
           d="m 277.7,311.4 c 4.4,0 6.5,-7.8 1.5,-7.4 -0.8,0.1 -1.5,0.6 -2.1,1.1 -2,1.7 -3.1,3.4 -6,4.1 -5.5,1.4 -13,1 -17.1,-3.1 l -3,3.9 c 3.8,2.9 7.4,6.4 12.2,7.6 4.8,1.2 9.5,-0.8 13.5,-3.3 8.6,-5.4 2.5,-13.3 0.6,-21.2 -3.1,-13.3 2.5,-24.8 14.7,-31 11.1,-5.6 23.5,-4.6 35.5,-4.6 7.3,0 16.6,-1.5 18.7,-9.8 2.3,-9 -6.3,-16.1 -13.3,-19.7 -9.7,-5 -27.3,-8.8 -28.2,-22.4 -1,-14.7 18.8,-15.4 28.7,-15.3 22.8,0.2 45.8,-2.9 66.9,-11.8 16.6,-7 41.5,-20.4 40.1,-41.7 -1.5,-23.1 -33.7,-22.8 -50.5,-23.3 -12.9,-0.3 -25.9,0.4 -38.8,1.7 -12.3,1.2 -24.6,3.1 -36.3,7.1 -12.6,4.4 -24.2,11.1 -36,17.3 -12.8,6.8 -25.9,12.5 -40.1,15.4 -11.2,2.3 -25.2,1.7 -33.3,11.2 -5.6,6.7 -5.2,17.9 3.4,21.9 2,0.9 5,-1.2 3.4,-3.4 -0.1,-0.1 -0.2,-0.3 -0.3,-0.4 l -3.4,3.4 c 14.5,11.1 32.8,16.8 49.1,24.5 9,4.2 17.9,8.6 26.8,13.1 4,2 8,4.1 12,6.2 0.4,0.2 5.8,2.6 5.7,3.2 -0.1,1.6 -7.4,1.1 -8.2,1.1 -17.7,-0.1 -36.2,-4.3 -53.4,1.8 -5.8,2.1 -9.8,5.5 -6.8,12.1 3.2,7 10,12.3 16.4,16.1 4.2,2.4 10.2,5.5 10.4,11.1 0.1,5.6 -5,8.1 -8.6,11.2 -6.1,5.3 -4.9,13.4 -3.1,20.5 0.8,3.1 5.6,1.8 4.8,-1.3 -1,-4 -2.3,-8.6 -0.5,-12.6 1.7,-3.7 6.4,-5.4 8.9,-8.6 4.1,-5.2 4.6,-11.8 0.5,-17.1 -5.2,-6.7 -14.2,-9 -19.9,-15.3 -1.5,-1.7 -3.6,-3.8 -4.2,-5.9 -1.2,-3.8 1.4,-4.6 4.3,-5.5 5,-1.7 10.3,-2.4 15.5,-2.7 9.7,-0.5 19.3,0.7 28.9,1.2 4.7,0.2 9.5,0.5 14.2,-0.1 2.2,-0.3 4.5,-0.9 5.7,-3 3.3,-6.1 -6.9,-9.7 -10.6,-11.7 -8.8,-4.6 -17.7,-9.1 -26.6,-13.4 -10.1,-4.9 -20.3,-9.5 -30.6,-14 -9.8,-4.3 -19.6,-8.5 -28.1,-15 -2,-1.5 -4.8,1.5 -3.4,3.4 0.1,0.1 0.2,0.3 0.3,0.4 l 3.4,-3.4 c -5,-2.3 -6,-8.3 -3.3,-12.8 3.1,-5.2 9.3,-7.3 14.9,-8.4 10.9,-2.2 21.7,-3.3 32.3,-6.9 20.8,-7.1 38.6,-20.5 59.2,-28 21.2,-7.7 45.2,-9.2 67.6,-9.4 12,-0.1 24.2,0.5 36,2.9 4.4,0.9 9.2,2.3 12.6,5.5 4.7,4.3 5.6,10.9 4,16.8 -2.8,10.4 -12.7,17.3 -21.4,22.6 -8.9,5.4 -18.6,9.5 -28.6,12.5 -10.1,3 -20.5,4.9 -30.9,5.8 -10.4,0.9 -20.9,0 -31.2,1 -8.1,0.8 -16.5,3.9 -20.8,11.3 -4.1,7.2 -1.8,15.3 3.4,21.2 6.6,7.5 16.5,9.8 25,14.2 4.4,2.2 9.5,5.5 10.8,10.7 1.6,6.6 -4.7,8.9 -9.9,9.4 -11.1,1 -22,-0.9 -33,2 -9.1,2.4 -17.7,7.7 -22.8,15.7 -5.8,9.1 -4.7,19.8 -1.5,29.6 0.7,2.1 2.8,5.5 2.3,7.6 -0.4,2 -3.1,3.2 -4.8,4.1 -7.5,3.6 -12.4,-1.6 -18,-5.8 -2.3,-1.7 -5,2 -3,3.9 4.4,4.5 10.2,5.3 16.3,5 3,-0.1 6.2,-0.4 8.9,-1.5 0.8,-0.3 1.5,-0.7 2.2,-1.2 0.4,-0.3 2.3,-3.1 2.3,-3.1 l -2.4,-0.6 c 0,-0.6 -0.1,-1.2 -0.1,-1.8 -3,0.2 -3,5.2 0.2,5.1 z"
           class="st4" />
      </g>
    </g>
  </g>
  <g
     id="Layer_5"
     transform="translate(-4.0150335,-113.43109)">
    <g
       id="XMLID_41_">
      <g
         id="XMLID_48_">
        <path
           id="XMLID_167_"
           d="m 352.1,372.6 c -13.2,-18 -27.5,-35.5 -37.7,-55.3 l 34.2,65.8 c 9.8,14.9 19.5,29.8 29.3,44.6 1.3,2 3.1,4.2 5.4,3.8 -5.6,-21.7 -18,-40.9 -31.2,-58.9 z"
           class="st3" />
        <g
           id="XMLID_63_">
          <path
             id="XMLID_166_"
             d="m 354.2,371.3 c -13.2,-18 -27.4,-35.4 -37.7,-55.3 -1.5,-2.9 -5.8,-0.3 -4.3,2.5 5.9,11.4 11.9,22.8 17.8,34.2 6.4,12.2 12.1,25 19.7,36.5 6,9.1 11.9,18.2 17.9,27.3 2.8,4.3 5.5,8.8 8.6,13 1.9,2.6 3.8,4.3 7.1,4.4 1.6,0.1 2.8,-1.7 2.4,-3.2 -5.9,-21.9 -18.2,-41.2 -31.5,-59.4 -1.9,-2.6 -6.2,-0.1 -4.3,2.5 13.1,17.9 25.2,36.7 31,58.3 0.8,-1.1 1.6,-2.1 2.4,-3.2 -3.4,-0.2 -6.4,-7.4 -8.1,-10 -2.7,-4.1 -5.4,-8.3 -8.1,-12.4 -4.9,-7.4 -9.8,-14.9 -14.7,-22.3 -2.4,-3.7 -4.3,-7.6 -6.3,-11.5 -7.7,-14.8 -15.4,-29.7 -23.1,-44.5 -2.1,-4.1 -4.3,-8.2 -6.4,-12.3 -1.4,0.8 -2.9,1.7 -4.3,2.5 10.4,19.9 24.5,37.3 37.7,55.3 1.8,2.7 6.1,0.2 4.2,-2.4 z"
             class="st3" />
        </g>
      </g>
      <g
         id="XMLID_55_">
        <path
           id="XMLID_58_"
           d="m 313.5,316.6 c -1.9,-3.1 -4,-6.4 -7,-8.5 -3,-2.2 -7.3,-3 -10.4,-1 -1,0.6 -1.8,1.5 -2.8,2 -3.6,1.9 -7.8,-0.8 -11.4,-2.7 -7.2,-3.6 -15.9,-3.9 -23.3,-0.7 -2.6,1.1 -5.4,2.6 -8,1.6 -2.8,-1.1 -4.2,-4.6 -7.1,-5.3 -2.4,-0.5 -4.6,1.2 -6.5,2.7 -8.3,7 -16.6,14.1 -23.6,22.4 -4.3,5.1 -8.1,10.7 -12.6,15.6 -9.3,10.3 -21.4,17.6 -31.1,27.5 -8.3,8.4 -14.7,18.3 -21,28.2 -0.7,1.1 -1.4,2.3 -1.7,3.6 -0.8,4.6 5.2,7.7 9.7,6.4 4.5,-1.3 7.7,-4.9 11.4,-7.7 4.3,-3.2 10.2,-6.6 10.8,-11.5 0.1,1.6 0.3,3.2 1.1,4.7 1.1,2 3.6,3.4 5.7,2.5 1.5,-0.7 2.3,-2.3 3.1,-3.7 5.2,-8.8 16.1,-13.3 20.6,-22.5 2.1,-4.2 2.9,-9.4 6.8,-12.1 2.3,2.3 2.3,6.1 1.5,9.2 -0.8,3.1 -2.4,6.1 -2.8,9.3 -0.1,0.8 -0.1,1.7 0.3,2.5 1.1,1.9 4,1.3 5.8,0.1 1.8,-1.2 3.8,-2.8 5.9,-2.1 -4.8,30.2 -19,58.6 -21.1,89.1 -0.1,2.1 0.1,4.7 2.1,5.4 1.8,0.6 3.5,-0.9 4.6,-2.4 3.7,-4.9 5.8,-10.8 7.8,-16.6 5.3,-15.1 10.6,-30.3 15.9,-45.4 -0.8,7.5 -0.3,15.2 1.4,22.6 0.4,1.8 1.2,3.9 3,4.2 1.8,0.3 3.2,-1.3 4.2,-2.8 15.6,-23.6 14.4,-54.2 22.1,-81.4 2.2,6 4.3,12 6.5,17.9 2.2,-4.3 4.3,-8.5 6.5,-12.8 2.2,7 5.8,13.5 10.6,19 1,-3.1 1.4,-6.3 1.2,-9.5 3,16.5 7.6,32.7 13.7,48.2 l 4.8,-21 c 9.9,7.8 8.9,25.1 19.9,31.3 1.5,-11.5 -0.6,-23.5 -5.8,-33.8 -3.1,-6.1 -7.4,-12.1 -7,-18.9 0.1,-1.6 0.6,-3.5 2,-4.3 2.6,-1.6 5.7,1 7.5,3.4 5.2,6.9 9.8,14.3 13.5,22.1 1,2.1 2.4,4.5 4.7,4.6 2,0 3.6,-2 3.8,-4 0.2,-2 -0.7,-4 -1.5,-5.8 z"
           class="st3" />
        <g
           id="XMLID_23_">
          <path
             id="XMLID_57_"
             d="m 315.6,315.3 c -3.9,-6.2 -9.9,-13.9 -18.3,-11.5 -1.5,0.4 -2.6,1.4 -3.9,2.1 -3.6,1.9 -5.5,0.6 -8.9,-1 -4.3,-2.1 -8.6,-3.6 -13.4,-3.9 -4.2,-0.3 -8.5,0.5 -12.5,1.9 -3.4,1.3 -6.1,2.5 -9.3,0.2 -1.4,-1 -2.3,-2.4 -4,-3.2 -3.3,-1.4 -6.3,0 -8.9,2 -4.5,3.4 -8.7,7.3 -12.8,11 -8.4,7.7 -14.9,16.5 -22.2,25.1 -6.7,8.1 -15.1,14.4 -23.2,21 -7.9,6.5 -14.9,13.6 -20.9,21.8 -3.1,4.3 -6.1,8.7 -8.9,13.2 -2,3 -4.6,6.2 -3.8,10.1 1.7,8 12,7.8 17.4,4.3 4.1,-2.6 8,-6.1 11.9,-9.1 3.4,-2.6 6.4,-5.4 7.3,-9.7 -1.6,-0.2 -3.3,-0.4 -4.9,-0.7 0.4,4.5 2.5,10 8,9.9 5.2,-0.1 7.8,-7.6 10.9,-10.7 4.3,-4.3 9.4,-7.7 13.2,-12.5 3.9,-4.9 4.6,-12.2 9.4,-16.2 h -3.5 c 5,6.4 -5.2,14.1 -1.4,20.5 3.6,6.1 9.6,-1.1 13.8,-0.8 -0.8,-1.1 -1.6,-2.1 -2.4,-3.2 -2.7,16 -7.7,31.5 -12.3,47 -2.3,7.8 -4.5,15.6 -6.1,23.5 -1.4,6.6 -3.7,15.1 -2.6,21.9 0.7,4.1 4.3,6.8 8.3,4.5 5.3,-3.1 7.9,-11.5 9.9,-16.9 5.9,-16.1 11.4,-32.4 17.1,-48.5 -1.6,-0.2 -3.3,-0.4 -4.9,-0.7 -0.6,6.2 -0.4,12.4 0.6,18.6 0.5,3.4 1,8.6 4.7,10.2 8,3.4 13.5,-13.4 15.5,-18.5 8.4,-21.4 8.7,-45 14.8,-67.1 h -4.8 c 2.2,6 4.3,12 6.5,17.9 0.7,1.9 3.5,2.7 4.6,0.6 2.2,-4.3 4.3,-8.5 6.5,-12.8 -1.5,-0.2 -3,-0.4 -4.6,-0.6 2.5,7.5 6.2,14.1 11.3,20.1 1.3,1.5 3.7,0.6 4.2,-1.1 1,-3.4 1.4,-6.7 1.3,-10.2 -1.6,0.2 -3.3,0.4 -4.9,0.7 3,16.5 7.6,32.6 13.7,48.2 0.8,2.1 4.2,2.6 4.8,0 l 4.8,-21 c -1.4,0.4 -2.8,0.7 -4.2,1.1 10,8.5 8.7,24.5 20.4,31.7 1.8,1.1 3.6,-0.4 3.8,-2.2 1.2,-10.7 -0.2,-21.4 -4.4,-31.4 -1.8,-4.2 -4.3,-8.1 -6.2,-12.2 -0.9,-2 -2.9,-6.2 -2.2,-8.4 2,-5.8 6.5,1.8 7.9,3.7 3,4.3 5.7,8.7 8.1,13.3 1.7,3.2 3,7.8 6.4,9.6 7.3,3.9 10,-5.6 8.1,-10.8 -2.2,-6.1 -5.7,-12 -8.6,-17.9 -5.2,-10.8 -10.5,-21.5 -15.7,-32.3 -3.6,-6.6 -7.1,-13.6 -10.5,-20.6 -1.4,-2.9 -5.7,-0.4 -4.3,2.5 l 23.7,48.6 c 3.3,6.7 6.8,13.4 9.8,20.2 0.1,0.1 0.1,0.3 0.2,0.4 l 0.9,2.3 c -0.6,6.9 -2.7,1.8 -3.3,1.1 -3.1,-4.1 -5,-9.7 -7.8,-14.1 -3,-4.7 -9,-16.4 -16.3,-13.1 -8.4,3.8 -1.5,17.5 1.3,22.7 6.3,11.6 9.2,23.6 7.7,36.8 1.3,-0.7 2.5,-1.4 3.8,-2.2 -10.8,-6.6 -9.8,-22.7 -19.4,-30.9 -1.3,-1.1 -3.7,-0.9 -4.2,1.1 l -4.8,21 h 4.8 C 301.6,396.1 297,380 294,363.5 c -0.5,-2.8 -5,-2.1 -4.9,0.7 0.1,3.1 -0.3,5.9 -1.1,8.9 1.4,-0.4 2.8,-0.7 4.2,-1.1 -4.5,-5.3 -7.8,-11.3 -10,-17.9 -0.6,-1.9 -3.5,-2.6 -4.6,-0.6 -2.2,4.3 -4.3,8.5 -6.5,12.8 1.5,0.2 3,0.4 4.6,0.6 -2.2,-6 -4.3,-12 -6.5,-17.9 -0.8,-2.2 -4.1,-2.5 -4.8,0 -4.7,17 -6.1,34.6 -10.1,51.6 -2.1,8.7 -4.8,17.2 -9.2,25 -0.8,1.4 -2.4,5.9 -4.9,4.5 -1,-0.6 -1.4,-7.1 -1.5,-7.9 -0.6,-5 -0.5,-10.1 -0.1,-15.1 0.3,-3 -4,-3.2 -4.9,-0.7 -4.7,13.3 -9.3,26.6 -14,39.9 -2.1,6 -4,12.3 -7.2,17.9 -0.4,0.6 -2,4 -2.8,4.1 -2.3,0.2 -1.4,-3.1 -1.4,-4 0.3,-3.6 0.8,-7.3 1.4,-10.9 4.4,-25.8 15.2,-50 19.4,-75.8 0.3,-1.7 -0.7,-3 -2.4,-3.2 -3.3,-0.3 -4.3,1.6 -7.1,2.4 -1.1,1.1 -1.7,1 -1.8,-0.3 -0.5,-0.8 -0.4,-1.7 0.1,-2.6 0.3,-1.5 1.1,-3.1 1.6,-4.6 1.5,-4.8 1.5,-9.2 -1.7,-13.2 -0.9,-1.1 -2.6,-0.8 -3.5,0 -3,2.5 -4.3,5.7 -5.7,9.3 -1.8,4.6 -4.3,8.1 -7.9,11.5 -2.9,2.7 -6.1,5.2 -9,8 -1.3,1.3 -2.5,2.7 -3.6,4.1 -0.6,0.8 -1.1,2.3 -1.9,2.8 -0.4,1 -1.2,1.1 -2.4,0.2 -2.1,0.3 -3,-0.6 -2.5,-2.9 -0.2,-2.6 -4.3,-3.6 -4.9,-0.7 -0.8,3.9 -4.3,6.2 -7.4,8.4 -2.6,1.9 -5,4 -7.6,6 -2.5,2 -9.7,6 -11.8,1 -1.3,-3 4.8,-10 6.4,-12.3 4.8,-7.2 9.8,-14.1 16,-20.2 6,-5.9 12.7,-10.9 19.1,-16.2 13,-10.8 21.7,-25.1 33.9,-36.7 3.1,-2.9 6.3,-5.7 9.5,-8.4 1.6,-1.4 3.2,-3.2 5.1,-4.2 3.1,-1.7 5.1,0.4 7.5,2.3 5.7,4.5 11.4,-0.5 17.4,-1.6 5,-1 10.2,-0.4 14.9,1.6 3.4,1.4 6.6,3.8 10.3,4.1 4,0.3 5.5,-2.3 8.9,-3.3 6,-1.7 10,4.7 12.7,9 1.7,2.6 6,0.1 4.3,-2.6 z"
             class="st3" />
        </g>
      </g>
    </g>
  </g>
</svg>
