<?xml version="1.0" encoding="UTF-8" standalone="no"?>
<svg
   xmlns:dc="http://purl.org/dc/elements/1.1/"
   xmlns:cc="http://creativecommons.org/ns#"
   xmlns:rdf="http://www.w3.org/1999/02/22-rdf-syntax-ns#"
   xmlns:svg="http://www.w3.org/2000/svg"
   xmlns="http://www.w3.org/2000/svg"
   xmlns:sodipodi="http://sodipodi.sourceforge.net/DTD/sodipodi-0.dtd"
   xmlns:inkscape="http://www.inkscape.org/namespaces/inkscape"
   viewBox="0 0 1505.4 391.29999"
   version="1.1"
   id="svg218"
   sodipodi:docname="town.svg"
   width="1505.4"
   height="391.29999"
   inkscape:version="1.0.1 (3bc2e813f5, 2020-09-07)">
  <metadata
     id="metadata222">
    <rdf:RDF>
      <cc:Work
         rdf:about="">
        <dc:format>image/svg+xml</dc:format>
        <dc:type
           rdf:resource="http://purl.org/dc/dcmitype/StillImage" />
      </cc:Work>
    </rdf:RDF>
  </metadata>
  <sodipodi:namedview
     pagecolor="#ffffff"
     bordercolor="#666666"
     borderopacity="1"
     objecttolerance="10"
     gridtolerance="10"
     guidetolerance="10"
     inkscape:pageopacity="0"
     inkscape:pageshadow="2"
     inkscape:window-width="1517"
     inkscape:window-height="1080"
     id="namedview220"
     showgrid="false"
     inkscape:zoom="0.87866667"
     inkscape:cx="751.8"
     inkscape:cy="7.1"
     inkscape:window-x="1940"
     inkscape:window-y="36"
     inkscape:window-maximized="0"
     inkscape:current-layer="svg218" />
  <defs
     id="defs2" />
  <style
     id="style4">.st2{fill:#d0bfa0}.st3{fill:#c97268}.st4{fill:#deebee}.st5{fill:#768472}.st6{fill:#ee9faa}.st7{fill:#dece9a}.st8{fill:#9eb8b6}.st9{fill:#a08b70}.st10{fill:#d5dedd}.st11{fill:#726658;stroke:#726658;stroke-miterlimit:10}.st12{fill:#232516}.st13{fill:#b0c4c3}.st14{fill:#4c92bc}.st15{fill:#534422}.st17{fill:#aba391}.st18{fill:none;stroke:#c49a6c;stroke-width:3;stroke-miterlimit:10}.st19{fill:#a97c50;stroke:#a97c50}.st19,.st20,.st21{stroke-miterlimit:10}.st20{stroke-width:3;fill:#d3d4d7;stroke:#cacbcf}.st21{fill:#534422;stroke:#534422}.st22{fill:#c17d3f}.st23{fill:#486373}.st25,.st26{fill:#715d32;stroke:#715d32;stroke-width:3;stroke-miterlimit:10}.st26{fill:none;stroke:#808285;stroke-width:5}.st27{fill:#715d32}.st28{fill:#c49a6c;stroke:#c49a6c;stroke-width:3;stroke-miterlimit:10}.st29{fill:none;stroke:#6d6e71;stroke-width:2}.st29,.st30,.st31,.st32{stroke-miterlimit:10}.st30{stroke-width:.25;fill:#b35c7d;stroke:#b35c7d}.st31,.st32{fill:#e7f6fd;stroke:#e7f6fd}.st32{fill:none;stroke:#726658;stroke-width:4}.st33{fill:#486473}.st34{fill:#a6cbaf}.st35{fill:#8380bd}.st36{fill:#b2a16e}.st37{fill:#cb95a6}.st38{fill:#b35c7d}.st39{fill:#b2a16e;stroke:#b2a16e;stroke-width:.25;stroke-miterlimit:10}</style>
  <g
     id="Layer_6"
     transform="translate(1.8,-342.9)">
    <path
       id="XMLID_8_"
       fill="#a7a9ac"
       stroke="#a7a9ac"
       stroke-miterlimit="10"
       d="M -1.3,625.9 H 1501.3 V 733.7 H -1.3 Z" />
  </g>
  <g
     id="Layer_2"
     transform="translate(1.8,-342.9)">
    <path
       id="XMLID_2_"
       d="m 1502.6,646.3 -208.7,-0.2 V 436.4 l 208.7,-0.2 z"
       class="st2" />
    <path
       id="XMLID_3_"
       d="M 1293.9,646.1 1159,646 V 343.1 l 134.9,-0.2 z"
       class="st3" />
    <path
       id="XMLID_4_"
       d="M 1159,646 936.1,645.8 V 409.3 l 222.9,-0.2 z"
       class="st4" />
    <path
       id="XMLID_13_"
       d="M 674.6,645.5 H 568 v -221 23 h 107.7"
       class="st5" />
    <path
       id="XMLID_17_"
       d="M 568,645.5 H 451.4 L 450.1,369.9 H 568 v 54.6"
       class="st6" />
    <path
       id="XMLID_20_"
       d="M 451.4,645.5 H 305.5 V 369.9 h 144.3"
       class="st7" />
    <path
       id="XMLID_23_"
       d="m 305.5,645.5 h -124 V 369.9 h 124"
       class="st2" />
    <path
       id="XMLID_24_"
       d="M 181.5,424.5 H 46.7 v 221 h 134.8"
       class="st8" />
    <path
       id="XMLID_6_"
       d="M 674.8,648 V 388.7 l -0.1,-0.1 261.4,-0.3 v 257.6"
       class="st9" />
  </g>
  <g
     id="Layer_3"
     transform="translate(1.8,-342.9)">
    <path
       id="XMLID_439_"
       d="m 745.4,479.4 h -34.5 v -51.5 h 34.5 z"
       class="st8" />
    <path
       id="XMLID_438_"
       d="m 818.3,479.4 h -34.5 v -51.6 h 34.5 z"
       class="st8" />
    <path
       id="XMLID_437_"
       d="m 891.4,479.3 -34.6,0.1 v -51.6 l 34.6,-0.1 z"
       class="st10" />
    <path
       id="XMLID_436_"
       d="m 745.4,553.3 h -34.5 v -51.5 h 34.5 z"
       class="st8" />
    <path
       id="XMLID_435_"
       d="m 818.3,553.3 h -34.5 v -51.5 h 34.5 z"
       class="st10" />
    <path
       id="XMLID_434_"
       d="m 891.4,553.3 h -34.6 v -51.5 h 34.6 z"
       class="st8" />
    <path
       id="XMLID_433_"
       d="m 748.6,645.6 h -43.7 v -49.3 h 43.7 z"
       class="st11" />
    <path
       id="XMLID_432_"
       d="m 795.1,626.8 -20.6,-0.1 v -30.4 h 20.6 z"
       class="st12" />
    <path
       id="XMLID_431_"
       d="M 930.7,626.9 910,626.8 v -30.4 h 20.7 z"
       class="st12" />
    <path
       id="XMLID_430_"
       d="M 1192.1,394.9 H 1168 v -35.4 h 24.1 z"
       class="st13" />
    <path
       id="XMLID_429_"
       d="m 1223,394.8 -24.1,0.1 v -35.4 l 24.1,-0.1 z"
       class="st4" />
    <path
       id="XMLID_428_"
       d="m 1253.9,394.8 h -24 v -35.4 h 24 z"
       class="st13" />
    <path
       id="XMLID_427_"
       d="m 1284.9,394.8 h -24.1 v -35.4 l 24.1,-0.1 z"
       class="st13" />
    <path
       id="XMLID_426_"
       d="M 1192.1,438.9 1168,439 v -35.4 h 24.1 z"
       class="st13" />
    <path
       id="XMLID_425_"
       d="m 1223,438.9 h -24.1 v -35.4 h 24.1 z"
       class="st13" />
    <path
       id="XMLID_424_"
       d="m 1253.9,438.9 h -24 v -35.4 h 24 z"
       class="st4" />
    <path
       id="XMLID_423_"
       d="m 1284.9,438.9 h -24.1 v -35.4 l 24.1,-0.1 z"
       class="st13" />
    <path
       id="XMLID_422_"
       d="M 1192.1,483 H 1168 v -35.4 h 24.1 z"
       class="st4" />
    <path
       id="XMLID_421_"
       d="m 1223,483 h -24.1 v -35.4 h 24.1 z"
       class="st4" />
    <path
       id="XMLID_420_"
       d="m 1253.9,483 h -24 v -35.4 h 24 z"
       class="st13" />
    <path
       id="XMLID_419_"
       d="m 1284.9,483 h -24.1 v -35.4 h 24.1 z"
       class="st13" />
    <path
       id="XMLID_418_"
       d="m 1441.2,531.5 h -33.4 V 489 h 33.4 z"
       class="st4" />
    <path
       id="XMLID_417_"
       d="m 1485.8,531.5 h -33.4 V 489 h 33.4 z"
       class="st4" />
    <path
       id="XMLID_416_"
       d="m 1004.8,485.5 h -48.4 v -53.2 h 48.4 z"
       class="st14" />
    <path
       id="XMLID_415_"
       d="m 1071.7,485.5 h -48.4 v -53.2 l 48.4,-0.1 z"
       class="st14" />
    <path
       id="XMLID_414_"
       d="m 1377.5,646.1 h -36.4 V 597 h 36.4 z"
       class="st9" />
    <path
       id="XMLID_413_"
       d="M 939.2,660.2 756.9,660 v -33.3 l 182.3,0.2 z"
       class="st15" />
    <path
       id="XMLID_412_"
       d="m 671.7,596.2 267.5,0.2 v -19.9 l -267.5,-0.2 z"
       class="st15" />
    <path
       id="XMLID_411_"
       d="m 671.7,659.9 34.2,0.6 v -33.4 l -34.2,-0.5 z"
       class="st15" />
    <path
       id="XMLID_410_"
       d="M 1038,547.9 H 945.5 V 518.4 H 1038 Z"
       class="st6" />
    <path
       id="XMLID_409_"
       fill="#cdced9"
       stroke="#cdced9"
       stroke-miterlimit="10"
       d="m 1241.2,645.6 h -36.3 v -54.5 l 36.3,0.1 z" />
    <path
       id="XMLID_407_"
       d="m 1388.7,436.3 -73.3,0.1 V 401 l 73.3,-0.1 z"
       class="st17" />
    <path
       id="XMLID_406_"
       d="m 1340.6,401 h -19.1 v -17.7 l 19.1,-0.1 z"
       class="st17" />
    <path
       id="XMLID_405_"
       d="m 1024.8,605.2 -75.2,-0.1 v -25.8 l 75.2,0.1 z"
       class="st18" />
    <path
       id="XMLID_404_"
       d="m 1024.8,631 -75.2,-0.1 v -25.8 l 75.2,0.1 z"
       class="st18" />
    <path
       id="XMLID_403_"
       d="m 949.6,630.9 v 18.9"
       class="st18" />
    <path
       id="XMLID_402_"
       d="m 1024.8,631 v 18.9"
       class="st18" />
    <path
       id="XMLID_401_"
       d="m 992.9,560.9 h 20.9 v 11.4 h -20.9 z"
       class="st19" />
    <path
       id="XMLID_400_"
       d="m 1013.7,572.3 v 6.1"
       class="st19" />
    <path
       id="XMLID_399_"
       d="m 992.9,572.3 v 6.1"
       class="st19" />
    <path
       id="XMLID_398_"
       d="m 1092.9,644.4 h -34 v -52.6 h 34 z"
       class="st20" />
    <path
       id="XMLID_397_"
       d="m 1126.9,644.4 h -34 v -52.6 l 34,0.1 z"
       class="st20" />
    <path
       id="XMLID_396_"
       d="m 1138.5,609.7 h -3.7 c -1.1,0 -2.1,-0.9 -2.1,-2.1 v -14.1 c 0,-1.1 0.9,-2.1 2.1,-2.1 h 3.7 c 1.1,0 2.1,0.9 2.1,2.1 v 14.1 c 0,1.2 -1,2.1 -2.1,2.1 z"
       class="st21" />
    <path
       id="XMLID_395_"
       d="m 1136.4,620 h -2 c -0.9,0 -1.6,-0.7 -1.6,-1.6 v -4.2 c 0,-0.9 0.7,-1.6 1.6,-1.6 h 2 c 0.9,0 1.6,0.7 1.6,1.6 v 4.2 c 0,0.8 -0.7,1.6 -1.6,1.6 z"
       class="st21" />
    <path
       id="XMLID_394_"
       d="m 1140.6,606.7 v 39.2"
       class="st21" />
    <path
       id="XMLID_393_"
       d="m 1138,618.3 h 2.6"
       class="st21" />
    <path
       id="XMLID_392_"
       d="m 1041.1,575.4 h 4.2 v 70.5 h -4.2 z"
       class="st22" />
    <path
       id="XMLID_391_"
       d="m 1146.1,575.4 h 4.2 v 70.5 h -4.2 z"
       class="st22" />
    <path
       id="XMLID_390_"
       d="m 1055.3,549.4 80.8,-0.2 14.2,26.2 h -109.2 z"
       class="st23" />
    <path
       id="XMLID_386_"
       fill="#715d32"
       stroke="#715d32"
       stroke-miterlimit="10"
       d="m 1339.2,463.4 40.1,0.2 12.8,22.3 -65.9,-0.2 z" />
    <path
       id="XMLID_385_"
       d="m 1329.1,485.7 v 70.1"
       class="st25" />
    <path
       id="XMLID_384_"
       d="m 1390.1,485.9 v 69.9"
       class="st25" />
    <path
       id="XMLID_382_"
       d="m 1332.2,582.7 v 63.4"
       class="st26" />
    <path
       id="XMLID_381_"
       d="m 1386,582.7 v 63.5"
       class="st26" />
    <path
       id="XMLID_380_"
       d="m 1398.1,572.3 v 73.9"
       class="st26" />
    <path
       id="XMLID_378_"
       d="m 1502.6,618.5 -110.5,-82.8 v -4 l 110.5,82.8"
       class="st27" />
    <path
       id="XMLID_377_"
       d="M 1428.8,584.8 H 1407 v -12.5 h 21.8 z"
       class="st28" />
    <path
       id="XMLID_376_"
       d="m 1392.3,559.8 h 21.8 v 12.5 h -21.8 z"
       class="st28" />
    <path
       id="XMLID_375_"
       d="m 1443.5,597.3 h -21.8 v -12.5 h 21.8 z"
       class="st28" />
    <path
       id="XMLID_374_"
       d="m 1458,610 -21.8,-0.1 v -12.5 l 21.8,0.1 z"
       class="st28" />
    <path
       id="XMLID_373_"
       d="m 1472.7,622.5 h -21.9 V 610 h 21.9 z"
       class="st28" />
    <path
       id="XMLID_372_"
       d="m 1487.4,635 h -21.9 v -12.5 h 21.9 z"
       class="st28" />
    <path
       id="XMLID_371_"
       d="m 1502.1,647.5 h -21.9 V 635 h 21.9 z"
       class="st28" />
    <path
       id="XMLID_370_"
       d="M 1252.9,555.9 H 1200 v -14.5 h 52.9 z"
       class="st13" />
    <path
       id="XMLID_369_"
       d="m 755.9,490.8 -55.5,0.1 v -35.7 l 55.5,-0.1 z"
       class="st29" />
    <path
       id="XMLID_368_"
       d="m 828.9,490.8 h -55.6 v -35.7 h 55.6 z"
       class="st29" />
    <path
       id="XMLID_367_"
       d="M 901.9,490.8 H 846.3 V 455.1 L 901.9,455 Z"
       class="st29" />
    <path
       id="XMLID_366_"
       d="m 755.9,564.9 h -55.5 v -35.7 h 55.5 z"
       class="st29" />
    <path
       id="XMLID_365_"
       d="m 828.9,564.9 h -55.6 v -35.7 h 55.6 z"
       class="st29" />
    <path
       id="XMLID_364_"
       d="m 901.9,564.9 h -55.6 v -35.7 h 55.6 z"
       class="st29" />
    <path
       id="XMLID_363_"
       d="m 936.1,499.2 -4.7,13.4 232.7,-0.1 -5.1,-13.4 z"
       class="st23" />
    <path
       id="XMLID_345_"
       d="m 305.5,489.4 261.8,0.9 7.7,30.7 -277.2,-0.9 z"
       class="st22" />
    <path
       id="XMLID_342_"
       d="m 450.1,411.2 -7,31.9 H 575 l -7,-31.9 z"
       class="st22" />
    <path
       id="XMLID_339_"
       d="m 46.6,548.5 -8,23.2 h 150.7 l -8,-23.2 z"
       class="st3" />
    <path
       id="XMLID_338_"
       d="M 603.8,591.3 H 640 v 54.2 h -36.2 z"
       class="st27" />
    <path
       id="XMLID_337_"
       d="m 491.6,591.3 h 36.2 v 54.2 h -36.2 z"
       class="st30" />
    <path
       id="XMLID_336_"
       d="m 363.7,591.3 h 29.4 v 54.2 h -29.4 z"
       class="st2" />
    <path
       id="XMLID_335_"
       d="m 222.3,591 h 36.2 v 54.2 h -36.2 z"
       class="st9" />
    <path
       id="XMLID_332_"
       d="m 98.5,486.1 h 30.9 v 44.3 H 98.5 Z"
       class="st31" />
    <path
       id="XMLID_331_"
       d="M 139.1,486.1 H 170 v 44.3 h -30.9 z"
       class="st31" />
    <path
       id="XMLID_330_"
       d="m 57.9,486.1 h 30.9 v 44.3 H 57.9 Z"
       class="st31" />
    <path
       id="XMLID_329_"
       d="m 466.8,539.7 h 85.9 v 25.9 h -85.9 z"
       class="st2" />
    <path
       id="XMLID_328_"
       d="m 461,378.9 h 25.4 v 24.2 H 461 Z"
       class="st4" />
    <path
       id="XMLID_327_"
       d="m 532.8,378.9 h 25.4 v 24.2 h -25.4 z"
       class="st4" />
    <path
       id="XMLID_326_"
       d="m 497.5,378.9 h 25.4 v 24.2 h -25.4 z"
       class="st4" />
    <path
       id="XMLID_325_"
       d="m 460.5,454.1 h 25.4 v 24.2 h -25.4 z"
       class="st4" />
    <path
       id="XMLID_324_"
       d="m 532.2,454.1 h 25.4 v 24.2 h -25.4 z"
       class="st4" />
    <path
       id="XMLID_323_"
       d="m 496.9,454.1 h 25.4 v 24.2 h -25.4 z"
       class="st4" />
    <path
       id="XMLID_322_"
       d="m 310.3,564.2 h 42.6 v 54.2 h -42.6 z"
       class="st4" />
    <path
       id="XMLID_321_"
       d="m 404.2,564.2 h 42.6 v 54.2 h -42.6 z"
       class="st4" />
    <path
       id="XMLID_318_"
       d="m 395.8,626.6 h 59.5 v 23 h -59.5 z"
       class="st15" />
    <path
       id="XMLID_315_"
       d="m 301.8,626.6 h 59.5 v 23 h -59.5 z"
       class="st15" />
    <path
       id="XMLID_314_"
       d="m 335.5,525.1 h 85.9 v 8.2 h -85.9 z"
       class="st12" />
    <path
       id="XMLID_313_"
       d="m 310.3,545.3 h 42.6 v 18.8 h -42.6 z"
       class="st11" />
    <path
       id="XMLID_312_"
       d="m 404.2,545.3 h 42.6 v 18.8 h -42.6 z"
       class="st11" />
    <path
       id="XMLID_311_"
       d="M 450.1,454.1 H 305.5"
       class="st32" />
    <path
       id="XMLID_310_"
       d="M 450.8,390.7 H 306.1"
       class="st32" />
    <path
       id="XMLID_307_"
       d="m 197.5,551.2 h 85.9 v 25.9 h -85.9 z"
       class="st27" />
    <path
       id="XMLID_306_"
       d="M 191.6,381 H 213 v 31.1 h -21.4 z"
       class="st14" />
    <path
       id="XMLID_305_"
       d="m 219.1,381 h 21.4 v 31.1 h -21.4 z"
       class="st14" />
    <path
       id="XMLID_304_"
       d="m 246.5,381 h 21.4 v 31.1 h -21.4 z"
       class="st5" />
    <path
       id="XMLID_303_"
       d="m 274,381 h 21.4 v 31.1 H 274 Z"
       class="st5" />
    <path
       id="XMLID_302_"
       d="M 191.6,423.5 H 213 v 31.1 h -21.4 z"
       class="st5" />
    <path
       id="XMLID_301_"
       d="m 219.1,423.5 h 21.4 v 31.1 h -21.4 z"
       class="st5" />
    <path
       id="XMLID_300_"
       d="m 246.5,423.5 h 21.4 v 31.1 h -21.4 z"
       class="st14" />
    <path
       id="XMLID_299_"
       d="m 274,423.5 h 21.4 v 31.1 H 274 Z"
       class="st5" />
    <path
       id="XMLID_296_"
       d="m 46.6,449.6 -8,23.1 h 150.7 l -8,-23.1 z"
       class="st3" />
    <path
       id="XMLID_295_"
       d="m 219.1,465.9 h 21.4 V 497 h -21.4 z"
       class="st14" />
    <path
       id="XMLID_294_"
       d="m 246.5,465.9 h 21.4 V 497 h -21.4 z"
       class="st5" />
    <path
       id="XMLID_293_"
       d="m 274,465.9 h 21.4 V 497 H 274 Z"
       class="st14" />
    <path
       id="XMLID_292_"
       d="M 191.6,465.9 H 213 V 497 h -21.4 z"
       class="st5" />
    <path
       id="XMLID_216_"
       d="m 408.7,443.1 v -19.5 c 0,-7.9 5.4,-14.3 12.1,-14.3 6.7,0 12.1,6.4 12.1,14.3 v 19.5 z"
       class="st4" />
    <path
       id="XMLID_215_"
       d="m 365.5,443.1 v -19.5 c 0,-7.9 5.4,-14.3 12.1,-14.3 6.7,0 12.1,6.4 12.1,14.3 v 19.5 z"
       class="st4" />
    <path
       id="XMLID_213_"
       d="m 322.4,443.1 v -19.5 c 0,-7.9 5.4,-14.3 12.1,-14.3 6.7,0 12.1,6.4 12.1,14.3 v 19.5 z"
       class="st4" />
    <path
       id="XMLID_212_"
       d="m 645.5,495.1 v -16.2 c 0,-6.6 3.9,-11.9 8.7,-11.9 4.8,0 8.7,5.3 8.7,11.9 v 16.2 z"
       class="st14" />
    <path
       id="XMLID_211_"
       d="m 623.4,495.1 v -16.2 c 0,-6.6 3.9,-11.9 8.7,-11.9 4.8,0 8.7,5.3 8.7,11.9 v 16.2 z"
       class="st14" />
    <path
       id="XMLID_210_"
       d="m 601.3,495.1 v -16.2 c 0,-6.6 3.9,-11.9 8.7,-11.9 4.8,0 8.7,5.3 8.7,11.9 v 16.2 z"
       class="st33" />
    <path
       id="XMLID_156_"
       d="m 579.2,495.1 v -16.2 c 0,-6.6 3.9,-11.9 8.7,-11.9 4.8,0 8.7,5.3 8.7,11.9 v 16.2 z"
       class="st14" />
    <path
       id="XMLID_154_"
       d="m 646.4,533.1 v -16.2 c 0,-6.6 3.9,-11.9 8.7,-11.9 4.8,0 8.7,5.3 8.7,11.9 v 16.2 z"
       class="st33" />
    <path
       id="XMLID_153_"
       d="m 624.3,533.1 v -16.2 c 0,-6.6 3.9,-11.9 8.7,-11.9 4.8,0 8.7,5.3 8.7,11.9 v 16.2 z"
       class="st33" />
    <path
       id="XMLID_102_"
       d="m 602.2,533.1 v -16.2 c 0,-6.6 3.9,-11.9 8.7,-11.9 4.8,0 8.7,5.3 8.7,11.9 v 16.2 z"
       class="st14" />
    <path
       id="XMLID_101_"
       d="m 580.1,533.1 v -16.2 c 0,-6.6 3.9,-11.9 8.7,-11.9 4.8,0 8.7,5.3 8.7,11.9 v 16.2 z"
       class="st33" />
    <path
       id="XMLID_94_"
       d="m 594.8,649.5 v -46.4 c 0,-19.8 11.9,-35.9 26.5,-35.9 14.6,0 26.5,16.1 26.5,35.9 v 46.4 h 14 v -52.9 c 0,-22.6 -18.1,-40.9 -40.5,-40.9 -22.4,0 -40.5,18.3 -40.5,40.9 v 52.9"
       class="st2" />
    <path
       id="XMLID_64_"
       d="m 219.1,507.4 h 21.4 v 31.1 h -21.4 z"
       class="st14" />
    <path
       id="XMLID_32_"
       d="m 246.5,507.4 h 21.4 v 31.1 h -21.4 z"
       class="st14" />
    <path
       id="XMLID_31_"
       d="m 274,507.4 h 21.4 v 31.1 H 274 Z"
       class="st5" />
    <path
       id="XMLID_30_"
       d="M 191.6,507.4 H 213 v 31.1 h -21.4 z"
       class="st5" />
    <path
       id="XMLID_100_"
       d="m 609.2,570.5 -1.5,-15.9 h 27.2 l -1.5,15.9 z"
       class="st22" />
    <path
       id="XMLID_5_"
       d="m 1377.8,557.7 h -36.4 v -49.1 h 36.4 z"
       class="st9" />
    <path
       id="XMLID_408_"
       d="m 1392.1,582.7 h -65.9 v -26.9 h 65.9 z"
       class="st19" />
    <path
       id="XMLID_383_"
       d="m 1329.1,524.7 61,0.1"
       class="st25" />
    <path
       id="XMLID_10_"
       d="m 57.9,592.9 h 36.2 v 54.2 H 57.9 Z"
       class="st9" />
    <path
       id="XMLID_14_"
       d="M 139.1,584.6 H 170 v 44.3 h -30.9 z"
       class="st31" />
  </g>
  <g
     id="Layer_4"
     transform="translate(1.8,-342.9)">
    <g
       id="XMLID_86_">
      <path
         id="XMLID_168_"
         d="m 998.1,590.5 c 0.1,3.7 0.8,7.5 2.1,11 0.3,0.8 0.6,1.5 1.2,2.1 0.4,0.4 0.9,0.7 1.4,0.9 0.9,0.5 1.9,0.9 2.9,0.7 0.9,-0.2 1.6,-0.9 2.1,-1.7 0.5,-0.8 0.7,-1.7 0.9,-2.6 0.9,-3.4 1.7,-6.9 1.7,-10.4 v -0.3 c -2.9,0.4 -5.8,0.1 -8.6,-0.2 -1.1,-0.1 -2.3,-0.2 -3.4,0.1"
         class="st34" />
      <g
         id="XMLID_151_">
        <path
           id="XMLID_160_"
           d="m 997.5,590.5 c 0.2,4.7 0.7,15.6 7.7,15.3 2.6,-0.1 3.5,-2.6 4.1,-4.8 0.9,-3.3 2.1,-7.3 1.7,-10.8 0,-0.3 -0.3,-0.7 -0.6,-0.6 -4.1,0.5 -8.3,-0.9 -12.2,0 -0.8,0.2 -0.5,1.4 0.3,1.2 3.8,-0.8 8,0.5 11.9,0.1 l -0.6,-0.6 c 0.2,1.9 -0.2,4 -0.6,5.9 -0.3,1.7 -0.6,5.8 -1.9,7 -1.4,0.3 -2.8,0.5 -4.2,0.8 -1.1,-0.5 -1.9,-1.3 -2.3,-2.6 -0.5,-1 -0.7,-2.2 -1,-3.2 -0.6,-2.5 -1,-5 -1.1,-7.6 0,-0.9 -1.3,-0.9 -1.2,-0.1 z"
           class="st34" />
      </g>
    </g>
    <g
       id="XMLID_116_">
      <path
         id="XMLID_167_"
         d="m 1012.5,630.7 c 0.5,-4.6 1.2,-9.1 1.8,-13.7 l -0.1,-0.2 c -2.6,-0.2 -5.3,-0.1 -7.9,0.3 -0.2,0 -0.4,0.1 -0.5,0.2 -0.1,0.2 -0.1,0.4 -0.1,0.6 0.6,4.1 1.6,8.2 2.9,12.2"
         class="st35" />
      <g
         id="XMLID_162_">
        <path
           id="XMLID_166_"
           d="m 1013.1,630.7 c 0.3,-2.4 0.6,-4.9 0.9,-7.3 0.2,-1.4 0.4,-2.8 0.6,-4.1 0.1,-0.6 0.5,-1.8 0.3,-2.3 -0.5,-1.7 -3.9,-0.9 -5.2,-0.9 -1.6,0.1 -4.5,-0.3 -4.6,1.8 -0.1,1.7 0.6,3.7 1,5.3 0.5,2.4 1.2,4.7 1.9,7 0.2,0.8 1.5,0.4 1.2,-0.3 -0.9,-2.7 -1.6,-5.3 -2.2,-8.1 -0.2,-1.2 -1.1,-3.4 0.2,-4.3 0.9,-0.5 3.5,-0.2 4.5,-0.2 0.3,0 1.6,-0.2 1.7,0 0.3,0.2 0.1,0.4 0,1.1 l -0.6,4.2 c -0.4,2.7 -0.7,5.4 -1,8.1 0,0.8 1.2,0.8 1.3,0 z"
           class="st35" />
      </g>
    </g>
    <g
       id="XMLID_117_">
      <path
         id="XMLID_149_"
         d="m 1001.4,615.3 c -0.2,1.3 -0.4,2.5 -0.6,3.8 0.3,-1.4 0.6,-2.8 0.9,-4.1 -1.9,0.2 -3.7,0.3 -5.6,0.4 0.2,1.6 0.5,3.1 1.1,4.6 0.1,0.2 0.2,0.5 0.2,0.7 0,0.3 -0.1,0.6 -0.3,0.9 -0.7,1.6 -1.1,3.3 -1.2,5 -0.1,0.8 0,1.7 0.5,2.3 0.3,0.4 0.8,0.6 1.2,0.9 0.8,0.4 1.7,0.9 2.7,0.8 1.2,-0.1 2.2,-1.1 2.5,-2.3 0.4,-1.1 0.2,-2.4 -0.1,-3.6 -0.5,-1.9 -1.3,-3.6 -2.3,-5.3"
         class="st36" />
      <g
         id="XMLID_144_">
        <path
           id="XMLID_148_"
           d="m 1000.8,615.1 c -0.2,1.3 -0.4,2.5 -0.6,3.8 -0.1,0.8 1,1.1 1.2,0.3 0.3,-1.4 0.6,-2.8 0.9,-4.1 0.1,-0.4 -0.2,-0.8 -0.6,-0.8 -1.9,0.2 -3.7,0.3 -5.6,0.4 -0.4,0 -0.7,0.4 -0.6,0.8 0.2,1.8 1.4,4.1 1,5.9 -0.4,1.8 -1.2,3.4 -1.2,5.2 0,2.4 1.4,4 3.9,4.5 2.4,0.5 4,-1.3 4.4,-3.5 0.5,-2.9 -1.2,-6 -2.6,-8.5 -0.4,-0.7 -1.5,-0.1 -1.1,0.6 0.9,1.6 1.8,3.3 2.2,5.1 0.8,1.7 0.1,2.6 -2,3 -1.9,2.2 -3.1,1.8 -3.6,-1.3 -0.1,-1 0.3,-2.4 0.7,-3.4 0.3,-1.1 0.9,-2 0.7,-3.1 -0.2,-1.7 -0.9,-3.3 -1.2,-5 -0.2,0.3 -0.4,0.5 -0.6,0.8 1.9,-0.1 3.7,-0.2 5.6,-0.4 -0.2,-0.3 -0.4,-0.5 -0.6,-0.8 -0.3,1.4 -0.6,2.8 -0.9,4.1 l 1.2,0.3 c 0.2,-1.3 0.4,-2.5 0.6,-3.8 0.1,-0.5 -1.1,-0.9 -1.2,-0.1 z"
           class="st36" />
      </g>
    </g>
    <g
       id="XMLID_118_">
      <path
         id="XMLID_142_"
         d="m 988,615 c -2.2,0.3 -4.4,0.7 -6.6,1 0.5,1.4 0.9,2.8 1.4,4.2 0.1,0.3 0.2,0.5 0.2,0.8 0,0.4 -0.2,0.7 -0.4,1 -0.8,1.2 -1.4,2.6 -1.4,4.1 0,1.5 0.7,3.1 1.9,4 1.2,0.9 2.9,1.2 4.3,0.6 1.4,-0.6 2.4,-2 2.5,-3.6 0,-1.2 -0.5,-2.4 -1,-3.4 -0.4,-0.8 -0.8,-1.6 -1.2,-2.3 -0.1,-0.3 -0.3,-0.5 -0.3,-0.8 0,-0.3 0.1,-0.7 0.2,-1 0.5,-1.4 0.7,-2.9 0.7,-4.3 0,0.2 0.1,0.4 0.1,0.6"
         class="st37" />
      <g
         id="XMLID_137_">
        <path
           id="XMLID_141_"
           d="m 987.9,614.4 c -2.2,0.3 -4.4,0.7 -6.6,1 -0.3,0 -0.5,0.5 -0.4,0.8 0.4,1.2 1,2.5 1.2,3.7 0.3,1.6 -0.5,2.4 -1,3.8 -0.4,1.1 -0.6,2.3 -0.4,3.5 0.5,2.8 3.1,4.8 5.9,4.4 2.6,-0.4 4.2,-2.8 3.9,-5.3 -0.2,-1.3 -0.9,-2.5 -1.4,-3.6 -1.2,-2.7 -0.2,-4.6 -0.1,-7.4 -0.4,0.1 -0.8,0.1 -1.2,0.2 0,0.2 0.1,0.4 0.1,0.6 0.1,0.8 1.3,0.5 1.2,-0.3 0,-0.2 -0.1,-0.4 -0.1,-0.6 -0.1,-0.7 -1.2,-0.5 -1.2,0.2 -0.1,2.2 -1.2,4.2 -0.6,6.3 0.2,0.7 0.7,1.4 1.1,2.1 1,2.2 2.7,7.9 -3.3,6.7 -3.5,-0.8 -3.4,-4.5 -2.4,-7 0.3,-0.8 0.9,-1.3 1,-2.1 0.3,-1.5 -1.1,-3.9 -1.5,-5.3 -0.1,0.3 -0.3,0.5 -0.4,0.8 2.2,-0.3 4.4,-0.7 6.6,-1 0.7,-0.4 0.4,-1.6 -0.4,-1.5 z"
           class="st37" />
      </g>
    </g>
    <g
       id="XMLID_120_">
      <path
         id="XMLID_135_"
         d="m 973.8,630.6 c 1.6,-2.7 2.5,-5.8 2.4,-8.9 0,-0.1 0,-0.2 -0.1,-0.3 -0.1,-0.2 -0.4,-0.2 -0.6,-0.1 -4.5,0.7 -9.2,0.7 -13.7,-0.1 v -0.1 c -0.6,-1.5 -1.3,-2.9 -2.2,-4.2 -0.2,0.2 -0.3,0.5 -0.4,0.8 -1.3,2.8 -2.7,5.8 -2.1,8.8 0.3,1.7 1.3,3.2 2.7,4.3"
         class="st38" />
      <g
         id="XMLID_108_">
        <path
           id="XMLID_112_"
           d="m 974.4,630.9 c 1.2,-2.1 4.3,-8.5 1.7,-10.3 -0.3,-0.2 -5.6,0.5 -3.2,0.3 -1.8,0.2 -3.7,0.2 -5.5,0.1 -1,0 -4.3,0.1 -4.9,-0.3 -0.8,-0.5 -1.6,-3.3 -2.2,-4.2 -0.2,-0.4 -0.8,-0.4 -1.1,0 -2.7,4.7 -4.4,10.5 0.2,14.6 0.6,0.5 1.5,-0.4 0.9,-0.9 -4.2,-3.7 -2.4,-8.9 0,-13 h -1.1 c 0.8,1.3 1.6,2.7 2.1,4.1 0.1,0.2 0.2,0.4 0.4,0.4 3.2,0.5 6.5,0.7 9.7,0.5 1.4,-0.1 3.2,-0.9 4.1,0.7 0.9,1.6 -1.6,6 -2.3,7.3 -0.3,0.8 0.8,1.4 1.2,0.7 z"
           class="st38" />
      </g>
    </g>
    <g
       id="XMLID_121_">
      <path
         id="XMLID_132_"
         d="m 973.2,604 c 1.2,-0.9 1.5,-2.6 1.8,-4 l 0.9,-4.5 c 0,-0.2 0.1,-0.4 0,-0.5 -0.1,-0.2 -0.3,-0.2 -0.5,-0.2 -3.4,-0.3 -6.8,-0.2 -10.2,0.2 -0.1,0 -0.2,0 -0.2,0.1 -0.1,0.1 -0.1,0.2 -0.1,0.2 -0.1,1.9 0.1,3.7 0.7,5.5 0.4,1.2 0.9,2.4 2,3"
         class="st36" />
      <g
         id="XMLID_126_">
        <path
           id="XMLID_131_"
           d="m 973.7,604.4 c 1.1,-1 1.5,-2.2 1.9,-3.7 0.4,-1.6 1,-3.7 1,-5.3 0,-2.4 -4.4,-1.5 -5.9,-1.5 -1.6,0 -4.2,-0.2 -5.7,0.4 -0.8,0.4 -0.8,0.8 -0.8,1.7 0,2.9 0.5,6.6 3,8.3 0.7,0.5 1.3,-0.6 0.6,-1.1 -1.2,-0.8 -1.6,-2.1 -1.9,-3.4 -0.2,-0.8 -0.9,-3 -0.5,-3.8 0.8,-1.4 4.3,-0.9 5.7,-0.9 0.8,0 2.7,-0.3 3.4,0.1 0.9,0.5 0.5,1.4 0.4,2.3 -0.4,2.1 -0.5,4.5 -2.1,6 -0.6,0.6 0.3,1.5 0.9,0.9 z"
           class="st36" />
      </g>
    </g>
    <g
       id="XMLID_122_">
      <g
         id="XMLID_114_">
        <path
           id="XMLID_124_"
           d="m 964.8,596.5 c -0.8,-0.8 -1.9,-1.6 -3.1,-1 -1,0.5 -1.4,1.7 -1.4,2.8 0,1.1 0.1,2.5 1,3.3 1,0.9 2.8,1 4.1,1.3 0.8,0.2 1.1,-1 0.3,-1.2 -1.2,-0.3 -3.4,-0.3 -3.9,-1.5 -0.3,-0.6 -0.3,-1.3 -0.2,-2 0,-0.3 0.1,-0.8 0.3,-1 0.8,-1 1.6,-0.1 2.1,0.4 0.5,0.4 1.3,-0.5 0.8,-1.1 z"
           class="st36" />
      </g>
    </g>
    <g
       id="XMLID_129_">
      <path
         id="XMLID_106_"
         d="m 990.2,604.3 c 2.7,-3.7 3.1,-8.6 3.3,-13.2 -4.2,0.7 -8.4,0.8 -12.6,1 -0.4,0 -0.8,0.1 -1,0.4 -0.1,0.2 -0.1,0.5 -0.1,0.8 0.3,2.6 0.6,5.3 1.4,7.8 0.5,1.5 1.3,3.1 2.7,3.6 0.5,0.2 1.1,0.2 1.7,0.2 0.7,0 1.5,0.1 2.2,0.1 1,0 2.1,0 2.6,-0.9"
         class="st35" />
      <g
         id="XMLID_53_">
        <path
           id="XMLID_57_"
           d="m 990.8,604.6 c 2.7,-4 3.2,-8.7 3.4,-13.5 0,-0.4 -0.4,-0.7 -0.8,-0.6 -2.7,0.4 -5.5,0.6 -8.3,0.8 -1.4,0.1 -3.6,-0.3 -5,0.3 -2.1,1 -0.6,5 -0.3,6.8 0.5,2.5 1.2,5.9 3.9,6.9 1.9,0.7 5.7,0.9 7.1,-0.7 0.6,-0.7 -0.3,-1.6 -0.8,-1 -0.8,0.8 -3.2,0.9 -4.4,0.6 -2.1,-0.4 -3.1,-1.3 -3.8,-3.4 -0.3,-0.9 -0.5,-1.9 -0.7,-2.9 -0.2,-1.2 -0.9,-3.1 -0.6,-4.3 0.4,-1.6 5.1,-1.2 6.8,-1.3 2.2,-0.1 4.3,-0.4 6.5,-0.7 -0.3,-0.2 -0.5,-0.4 -0.8,-0.6 -0.2,4.5 -0.6,9 -3.2,12.8 -0.5,0.9 0.5,1.5 1,0.8 z"
           class="st35" />
      </g>
    </g>
    <g
       id="XMLID_133_">
      <g
         id="XMLID_98_">
        <path
           id="XMLID_105_"
           d="m 958.7,526.1 v 7.1 c 0,2.1 0.4,4.7 -0.3,6.8 1.6,0.2 3.3,0.4 4.9,0.7 0,-4.7 0.1,-9.4 0.1,-14.1 h -5 c 0.1,4.5 0.1,9.1 0.2,13.6 0.1,3.2 5.1,3.2 5,0 -0.1,-4.5 -0.1,-9.1 -0.2,-13.6 -0.1,-3.2 -5,-3.2 -5,0 0,4.7 -0.1,9.4 -0.1,14.1 0,2.8 4.1,3.4 4.9,0.7 0.7,-2.3 0.4,-4.7 0.4,-7 v -8.2 c 0,-3.3 -5,-3.3 -4.9,-0.1 z"
           class="st15" />
      </g>
    </g>
    <g
       id="XMLID_134_">
      <g
         id="XMLID_91_">
        <path
           id="XMLID_96_"
           d="m 968.3,531 h -7.1 c -2.1,0 -4.7,0.3 -6.7,-0.3 -0.2,1.6 -0.4,3.3 -0.7,4.9 4.7,0.1 9.4,0.1 14.1,0.2 v -5 c -4.5,0 -9,0.1 -13.5,0.1 -3.2,0 -3.2,5 0,5 4.5,0 9,-0.1 13.5,-0.1 3.2,0 3.2,-5 0,-5 -4.7,-0.1 -9.4,-0.1 -14.1,-0.2 -2.9,0 -3.3,4.1 -0.7,4.9 2.2,0.7 4.7,0.5 7,0.5 h 8.1 c 3.3,0 3.3,-5 0.1,-5 z"
           class="st15" />
      </g>
    </g>
    <g
       id="XMLID_159_">
      <g
         id="XMLID_84_">
        <path
           id="XMLID_89_"
           d="m 976.3,525.2 c 0.1,5.8 0.1,11.5 -0.1,17.3 -0.1,3.2 4.9,3.2 5,0 0.2,-5.8 0.2,-11.5 0.1,-17.3 0,-3.2 -5,-3.3 -5,0 z"
           class="st15" />
      </g>
    </g>
    <g
       id="XMLID_171_">
      <g
         id="XMLID_78_">
        <path
           id="XMLID_82_"
           d="m 977.7,526.1 c 8.4,1.5 6,12.4 -0.2,15.1 -2.9,1.3 -0.4,5.6 2.5,4.3 10.2,-4.4 11.4,-22 -1,-24.2 -3.1,-0.6 -4.5,4.2 -1.3,4.8 z"
           class="st15" />
      </g>
    </g>
    <g
       id="XMLID_185_">
      <g
         id="XMLID_72_">
        <path
           id="XMLID_76_"
           d="m 990.7,523.9 c -1,4.6 -2.2,9.6 -1.3,14.3 0.6,3.2 2.5,7.6 6.3,7.7 3.9,0 5.6,-4.7 6.2,-7.8 0.5,-2.3 0.5,-4.6 0.4,-6.9 -0.1,-2.2 -0.9,-4.5 -0.9,-6.6 -1.3,0.7 -2.5,1.4 -3.8,2.2 0.1,0 0.1,0.1 0.2,0.1 -0.4,-0.9 -0.8,-1.9 -1.1,-2.8 0,0 0,0.1 -0.1,0.1 -1.2,3 3.6,4.3 4.8,1.3 0,0 0,-0.1 0.1,-0.1 0.4,-0.9 -0.2,-2.4 -1.1,-2.8 -0.1,0 -0.1,-0.1 -0.2,-0.1 -1.7,-0.7 -3.8,0.1 -3.8,2.2 0,2.2 0.8,4.4 0.9,6.6 0.1,2.7 0.1,5.5 -0.9,8 -0.9,2.4 -1.4,1.1 -2,-1 -0.4,-1.4 -0.4,-2.9 -0.3,-4.3 0.1,-2.9 0.8,-5.7 1.4,-8.5 0.7,-3.4 -4.1,-4.8 -4.8,-1.6 z"
           class="st15" />
      </g>
    </g>
    <g
       id="XMLID_157_">
      <g
         id="XMLID_66_">
        <path
           id="XMLID_70_"
           d="m 1010,531.9 c 3.5,-1.5 5.7,-4.1 7,-7.6 0.9,-2.3 -2.6,-4.3 -4.2,-2.4 -2,2.3 -5.2,7 -3.6,10.3 1.9,3.7 5.6,0.2 7.6,-1.3 -1.1,-0.3 -2.3,-0.6 -3.4,-0.9 0.6,1.1 0.2,2.5 1.4,3.4 1.3,1.1 2.9,1 4.3,0.4 3,-1.2 6.2,-3.3 5.1,-6.9 -0.5,-1.7 -2.8,-2.5 -4.2,-1.1 -2,2.1 -3.5,7.6 0.8,8.2 4,0.6 7.8,-5.7 9.2,-8.6 1.4,-2.9 -2.5,-5.2 -4.3,-2.5 -2,2.9 -4.7,8.1 -1.7,11.1 2.3,2.3 5.8,-1.3 3.5,-3.5 -0.4,-0.4 2,-4.5 2.5,-5.1 -1.4,-0.8 -2.9,-1.7 -4.3,-2.5 -0.6,1.3 -1.3,2.5 -2.3,3.7 -0.4,0.5 -0.9,1 -1.3,1.5 -1.5,1 -1.1,1.4 1.5,1.3 -1.4,-0.4 -2.8,-0.7 -4.2,-1.1 -0.5,0 -0.9,0.1 -1.3,0.5 0.4,1.6 0.6,1.9 0.4,1 0,-0.9 -0.3,-1.5 -0.8,-2.3 -0.6,-1.1 -2.3,-1.7 -3.4,-0.9 -0.6,0.5 -3.5,2.2 -2.6,2.2 0.7,0.4 1.4,0.8 2.2,1.2 -0.5,-0.7 2.1,-4.1 2.5,-4.6 l -4.2,-2.4 c -0.9,2.3 -2.5,3.7 -4.7,4.6 -2.9,1.2 -0.4,5.5 2.5,4.3 z"
           class="st15" />
      </g>
    </g>
    <g
       id="XMLID_178_">
      <g
         id="XMLID_59_">
        <path
           id="XMLID_63_"
           d="m 1010.3,543.4 c 3.5,-1.1 6.1,-3.2 7.7,-6.6 0.9,-2 -1.2,-5.1 -3.4,-3.4 -2.5,1.9 -6,5.7 -4.9,9.1 1.4,4.6 5.7,0.5 8,0 l -2.4,-0.6 c -0.5,-0.5 -0.7,-1.1 -0.3,0.1 0.2,0.4 0.2,0.8 0.5,1.2 0.7,1 1.6,1.4 2.8,1.5 3.1,0.2 5.7,-2.7 7.4,-5 1.8,-2.4 -1.9,-4.7 -3.9,-3 -2.7,2.2 -3.3,7.3 1.2,7.7 4.3,0.3 8.5,-4.2 10.7,-7.4 -1.4,-0.8 -2.9,-1.7 -4.3,-2.5 -1.4,2.3 -2.5,4.8 -3.5,7.3 -1.2,3 3.7,4.3 4.8,1.3 0.8,-2.1 1.8,-4.1 3,-6.1 1.6,-2.8 -2.5,-5.2 -4.3,-2.5 -0.9,1.4 -1.9,2.5 -3.3,3.5 -0.3,0.2 -0.7,0.4 -1,0.6 -2.2,0.5 -2.2,1.1 0.3,1.7 l -3.9,-3 c -0.2,0.2 -3.5,3.4 -1.5,3.8 0,0 -0.1,-1.4 -0.3,-1.6 -0.5,-0.8 -1,-1.5 -1.9,-1.8 -0.8,-0.2 -1.6,0.1 -2.3,0.3 -1.2,0.4 -3.4,1 -1.6,2.1 0.7,1 1.1,1 1.3,-0.1 0.4,-1 1,-1.8 2,-2.4 l -3.4,-3.4 c -1,2.2 -2.4,3.6 -4.7,4.3 -3.2,1 -1.9,5.9 1.2,4.9 z"
           class="st15" />
      </g>
    </g>
  </g>
  <g
     id="Layer_5"
     transform="translate(1.8,-342.9)">
    <path
       id="XMLID_46_"
       d="m 1216,522.9 -44.9,33 v -27.4 l 38.3,-21.8"
       class="st27" />
    <path
       id="XMLID_43_"
       d="m 1236.9,522.9 45,33 v -27.4 l -38.4,-21.8"
       class="st27" />
    <path
       id="XMLID_42_"
       d="m 1216.6,523.8 c -1.9,-4 -3.8,-8 -5.8,-12 -0.5,-1.1 -1.1,-2.3 -1.4,-3.5 -0.7,-2.5 -0.4,-5.2 0.9,-7.5 1.3,-2.2 3.6,-3.8 6.2,-4.1 h 19.9 c 2.5,0.3 4.9,1.9 6.2,4.1 1.3,2.2 1.6,5 0.9,7.5 -0.3,1.2 -0.9,2.4 -1.4,3.5 -1.9,4 -3.8,8 -5.8,12 z"
       class="st7" />
    <path
       id="XMLID_41_"
       d="m 508.3,560.6 -6.5,-6.5 c -0.8,-0.8 -0.8,-2.1 0,-2.9 l 6.5,-6.5 c 0.8,-0.8 2.1,-0.8 2.9,0 l 6.5,6.5 c 0.8,0.8 0.8,2.1 0,2.9 l -6.5,6.5 c -0.8,0.8 -2.1,0.8 -2.9,0 z"
       class="st30" />
    <path
       id="XMLID_40_"
       d="m 534,560.6 -6.5,-6.5 c -0.8,-0.8 -0.8,-2.1 0,-2.9 l 6.5,-6.5 c 0.8,-0.8 2.1,-0.8 2.9,0 l 6.5,6.5 c 0.8,0.8 0.8,2.1 0,2.9 l -6.5,6.5 c -0.8,0.8 -2.1,0.8 -2.9,0 z"
       class="st30" />
    <path
       id="XMLID_39_"
       d="m 482.6,560.6 -6.5,-6.5 c -0.8,-0.8 -0.8,-2.1 0,-2.9 l 6.5,-6.5 c 0.8,-0.8 2.1,-0.8 2.9,0 l 6.5,6.5 c 0.8,0.8 0.8,2.1 0,2.9 l -6.5,6.5 c -0.8,0.8 -2.1,0.8 -2.9,0 z"
       class="st30" />
    <path
       id="XMLID_38_"
       d="m 539.7,600.6 8.9,-18.2 8.9,18.2 c 0,2.2 -4,3.9 -8.9,3.9 -4.9,0 -8.9,-1.7 -8.9,-3.9 z"
       class="st7" />
    <path
       id="XMLID_37_"
       d="m 461.9,600.6 8.9,-18.2 8.9,18.2 c 0,2.2 -4,3.9 -8.9,3.9 -4.9,0 -8.9,-1.7 -8.9,-3.9 z"
       class="st7" />
    <path
       id="XMLID_36_"
       d="m 334.5,462.1 -9.5,13.4 h 19 z"
       class="st39" />
    <path
       id="XMLID_29_"
       d="m 420.8,462.1 -9.5,13.4 h 19 z"
       class="st39" />
    <path
       id="XMLID_28_"
       d="m 377.8,462.1 -9.5,13.4 h 19 z"
       class="st39" />
    <path
       id="XMLID_27_"
       d="m 130.4,412.1 h 29.1 v 12.5 h -29.1 z"
       class="st9" />
  </g>
</svg>
